<svg width="284" height="312" viewBox="0 0 284 312" fill="none" xmlns="http://www.w3.org/2000/svg">
<path d="M242.299 28.4455C244.573 28.0315 265.77 24.7019 276.957 45.2658C278.411 47.9398 285.668 61.9825 281.954 77.6642C277.56 96.2786 261.422 101.402 257.493 102.644C243.645 107.044 232.257 99.6426 227.646 95.9681C223.051 92.3107 216.738 87.2733 214.108 77.1639C209.528 59.481 220.576 42.885 221.334 41.7809C228.853 30.8262 238.663 29.0666 242.283 28.4282L242.299 28.4455Z" fill="#EBD9C6" stroke="white" stroke-linecap="round" stroke-linejoin="round"/>
<path d="M136.946 172.815C141.755 172.058 186.571 165.968 210.223 203.578C213.298 208.469 228.64 234.152 220.789 262.833C211.498 296.878 177.379 306.249 169.07 308.521C139.792 316.567 115.715 303.031 105.967 296.31C96.251 289.621 82.9042 280.408 77.343 261.918C67.66 229.577 91.0171 199.224 92.62 197.205C108.518 177.169 129.258 173.951 136.913 172.783L136.946 172.815Z" fill="#EBD9C6" stroke="white" stroke-linecap="round" stroke-linejoin="round"/>
<path d="M258.812 55.1993C259.884 55.0141 269.877 53.5245 275.151 62.7242C275.837 63.9204 279.258 70.2027 277.507 77.2182C275.435 85.5457 267.828 87.8379 265.975 88.3936C259.447 90.3616 254.078 87.0507 251.905 85.4068C249.738 83.7706 246.762 81.517 245.522 76.9944C243.363 69.0836 248.571 61.6591 248.929 61.1652C252.474 56.2643 257.098 55.4771 258.805 55.1916L258.812 55.1993Z" fill="#FFEBCD" stroke="white" stroke-linecap="round" stroke-linejoin="round"/>
<path d="M149.509 194.27C151.101 194.019 165.939 192.004 173.77 204.45C174.788 206.069 179.867 214.568 177.268 224.06C174.192 235.327 162.896 238.428 160.145 239.18C150.451 241.842 142.48 237.363 139.252 235.139C136.036 232.925 131.617 229.876 129.776 223.757C126.57 213.054 134.303 203.009 134.834 202.341C140.097 195.711 146.964 194.646 149.498 194.259L149.509 194.27Z" fill="#FFEBCD" stroke="white" stroke-linecap="round" stroke-linejoin="round"/>
<path d="M62.9459 1.80896C67.7547 1.05715 112.571 -4.98861 136.223 32.351C139.298 37.2064 154.64 62.7051 146.789 91.1797C137.498 124.98 103.379 134.283 95.0699 136.539C65.7919 144.527 41.7151 131.088 31.9667 124.416C22.251 117.775 8.90417 108.628 3.34299 90.2713C-6.34001 58.1629 17.0171 28.0281 18.62 26.0233C34.5185 6.13177 55.2583 2.93663 62.9131 1.7776L62.9459 1.80896Z" fill="#EBD9C6" stroke="white" stroke-linecap="round" stroke-linejoin="round"/>
<path d="M49.8824 28.1231C50.7272 28.0087 58.6004 27.0887 62.7553 32.7708C63.2955 33.5097 65.9908 37.3899 64.6116 41.723C62.9795 46.8665 56.9855 48.2822 55.5258 48.6254C50.3824 49.841 46.1527 47.796 44.4401 46.7806C42.7333 45.7701 40.3886 44.3781 39.4116 41.5848C37.7105 36.6987 41.8138 32.113 42.0954 31.8079C44.8884 28.7809 48.5319 28.2947 49.8766 28.1183L49.8824 28.1231Z" fill="#FFEBCD" stroke="white" stroke-linecap="round" stroke-linejoin="round"/>
<path d="M82.9978 73.7101C84.3949 73.4813 97.416 71.6412 104.288 83.0055C105.181 84.4832 109.639 92.2437 107.358 100.91C104.658 111.197 94.7452 114.028 92.3311 114.715C83.8247 117.146 76.8294 113.056 73.9971 111.025C71.1743 109.004 67.2965 106.22 65.6807 100.633C62.8674 90.8613 69.6536 81.6898 70.1193 81.0796C74.7385 75.0257 80.7642 74.0533 82.9883 73.7005L82.9978 73.7101Z" fill="#FFEBCD" stroke="white" stroke-linecap="round" stroke-linejoin="round"/>
<path d="M83.3711 37.587C84.0209 37.4726 90.0772 36.5526 93.2733 42.2347C93.6889 42.9735 95.7622 46.8538 94.7012 51.1869C93.4457 56.3303 88.835 57.7461 87.7121 58.0893C83.7557 59.3049 80.502 57.2599 79.1847 56.2445C77.8718 55.2339 76.0681 53.842 75.3166 51.0486C74.0081 46.1626 77.1645 41.5768 77.3811 41.2718C79.5295 38.2448 82.3322 37.7586 83.3666 37.5822L83.3711 37.587Z" fill="#FFEBCD" stroke="white" stroke-linecap="round" stroke-linejoin="round"/>
</svg>
