<svg width="1329" height="112" viewBox="0 0 1329 112" fill="none" xmlns="http://www.w3.org/2000/svg">
<path d="M28.206 36.3195C30.3179 35.9327 50.0009 32.8222 60.3883 52.0332C61.7388 54.5313 68.477 67.6502 65.0289 82.3001C60.9486 99.6899 45.9637 104.477 42.3145 105.637C29.4559 109.747 18.8816 102.833 14.6002 99.3998C10.3332 95.9831 4.47143 91.2771 2.02902 81.8327C-2.22365 65.3132 8.03454 49.8091 8.73852 48.7776C15.7209 38.5436 24.8297 36.8997 28.1916 36.3034L28.206 36.3195Z" fill="#EBD9C6" stroke="white" stroke-linecap="round" stroke-linejoin="round"/>
<path d="M43.5566 61.0919C44.5313 60.9175 53.6158 59.5156 58.41 68.1741C59.0333 69.3 62.1432 75.2127 60.5518 81.8155C58.6686 89.6532 51.7525 91.8105 50.0682 92.3335C44.1335 94.1858 39.2531 91.0696 37.277 89.5224C35.3076 87.9825 32.6022 85.8615 31.4749 81.6049C29.5122 74.1595 34.2467 67.1717 34.5716 66.7068C37.7943 62.0943 41.9983 61.3534 43.55 61.0846L43.5566 61.0919Z" fill="#FFEBCD" stroke="white" stroke-linecap="round" stroke-linejoin="round"/>
<path d="M309.996 68.5613C311.131 68.1992 321.748 65.1148 328.773 75.7401C329.686 77.1218 334.288 84.4004 333.39 93.2289C332.331 103.708 324.413 107.477 322.484 108.392C315.691 111.628 309.402 108.24 306.812 106.496C304.232 104.761 300.686 102.37 298.698 96.9764C295.232 87.541 299.818 77.7757 300.135 77.1247C303.279 70.6653 308.178 69.1178 309.987 68.5528L309.996 68.5613Z" fill="#EBD9C6" stroke="white" stroke-linecap="round" stroke-linejoin="round"/>
<path d="M320.281 82.3328C320.785 82.1701 325.502 80.7847 328.635 85.5967C329.042 86.2224 331.094 89.5185 330.703 93.5106C330.242 98.249 326.725 99.9466 325.869 100.359C322.851 101.816 320.053 100.278 318.9 99.487C317.751 98.6998 316.173 97.6152 315.284 95.174C313.735 90.9034 315.765 86.491 315.905 86.1968C317.297 83.2783 319.473 82.5828 320.277 82.3289L320.281 82.3328Z" fill="#FFEBCD" stroke="white" stroke-linecap="round" stroke-linejoin="round"/>
<path d="M591.343 32.1495C593.283 33.0706 611.069 42.0569 608.262 63.7151C607.897 66.5313 605.692 81.1137 594.328 90.9817C580.849 102.703 565.894 97.8234 562.256 96.6309C549.421 92.4458 544.886 80.6538 543.42 75.3655C541.957 70.0986 539.953 62.8534 543.495 53.7638C549.704 37.8762 567.092 31.2973 568.266 30.8722C579.915 26.6531 588.265 30.6459 591.341 32.128L591.343 32.1495Z" fill="#EBD9C6" stroke="white" stroke-linecap="round" stroke-linejoin="round"/>
<path d="M589.311 61.2211C590.204 61.6497 598.393 65.8245 597.219 75.6518C597.067 76.9296 596.132 83.5446 590.98 87.9704C584.869 93.2272 577.997 90.9332 576.325 90.3726C570.428 88.4049 568.291 83.0231 567.593 80.6126C566.895 78.2118 565.941 74.9091 567.516 70.797C570.277 63.6094 578.204 60.7093 578.739 60.5221C584.051 58.6648 587.894 60.5221 589.31 61.2113L589.311 61.2211Z" fill="#FFEBCD" stroke="white" stroke-linecap="round" stroke-linejoin="round"/>
<path d="M857.391 5.59236C858.199 5.14957 865.794 1.20007 872.454 6.58929C873.32 7.2901 877.723 11.0215 878.186 16.7686C878.74 23.5887 873.265 27.4624 871.931 28.4038C867.233 31.7286 862.061 30.7735 859.887 30.1597C857.72 29.5497 854.742 28.7073 852.55 25.6742C848.723 20.3661 850.916 13.332 851.071 12.861C852.605 8.18752 856.094 6.28654 857.383 5.58864L857.391 5.59236Z" fill="#EBD9C6" stroke="white" stroke-linecap="round" stroke-linejoin="round"/>
<path d="M867.039 12.6866C867.415 12.4838 870.95 10.6722 873.993 13.0377C874.389 13.3453 876.4 14.9845 876.578 17.5486C876.792 20.5914 874.238 22.3559 873.615 22.7847C871.424 24.2991 869.04 23.9049 868.039 23.6443C867.042 23.3854 865.671 23.0277 864.677 21.6867C862.942 19.3397 863.999 16.1841 864.074 15.9727C864.811 13.8757 866.435 13.0048 867.035 12.685L867.039 12.6866Z" fill="#FFEBCD" stroke="white" stroke-linecap="round" stroke-linejoin="round"/>
<path d="M1149.76 70.6268C1150.35 71.6947 1155.54 81.726 1149.18 90.3395C1148.35 91.4594 1143.93 97.1514 1136.87 97.6395C1128.48 98.2256 1123.46 90.9737 1122.25 89.2068C1117.94 82.9842 1118.9 76.2284 1119.57 73.3922C1120.23 70.5663 1121.14 66.6823 1124.79 63.8726C1131.17 58.9685 1139.94 61.9865 1140.53 62.1988C1146.36 64.3038 1148.85 68.9135 1149.77 70.6165L1149.76 70.6268Z" fill="#EBD9C6" stroke="white" stroke-linecap="round" stroke-linejoin="round"/>
<path d="M1141.55 82.8059C1141.81 83.2988 1144.15 87.9252 1141.52 91.775C1141.18 92.2756 1139.35 94.8173 1136.33 94.9594C1132.74 95.1312 1130.51 91.7724 1129.97 90.9541C1128.06 88.072 1128.39 85.0068 1128.65 83.7229C1128.9 82.4436 1129.24 80.6855 1130.77 79.4475C1133.45 77.2869 1137.24 78.7604 1137.5 78.8638C1140.02 79.8883 1141.14 82.0155 1141.55 82.8013L1141.55 82.8059Z" fill="#FFEBCD" stroke="white" stroke-linecap="round" stroke-linejoin="round"/>
<path d="M1296.6 34.1788C1298.36 33.9228 1314.71 31.8637 1323.34 44.5808C1324.46 46.2345 1330.06 54.9188 1327.19 64.6167C1323.8 76.1283 1311.35 79.2969 1308.32 80.065C1297.64 82.7855 1288.86 78.2086 1285.3 75.9362C1281.75 73.6744 1276.88 70.5592 1274.85 64.3073C1271.32 53.3719 1279.84 43.1085 1280.43 42.4257C1286.23 35.6511 1293.8 34.5629 1296.59 34.1682L1296.6 34.1788Z" fill="#EBD9C6" stroke="white" stroke-linecap="round" stroke-linejoin="round"/>
<path d="M1309.46 51.0264C1310.28 50.912 1317.85 49.992 1321.84 55.6741C1322.36 56.413 1324.95 60.2932 1323.63 64.6263C1322.06 69.7698 1316.29 71.1855 1314.89 71.5288C1309.94 72.7443 1305.88 70.6993 1304.23 69.684C1302.59 68.6734 1300.34 67.2815 1299.4 64.4881C1297.76 59.602 1301.71 55.0163 1301.98 54.7112C1304.66 51.6842 1308.17 51.198 1309.46 51.0217L1309.46 51.0264Z" fill="#FFEBCD" stroke="white" stroke-linecap="round" stroke-linejoin="round"/>
</svg>
