<svg width="114" height="58" viewBox="0 0 114 58" fill="none" xmlns="http://www.w3.org/2000/svg">
<path d="M42.5 25.5L43.5 24.5C44.0092 24.3376 44.2568 24.3602 44.5 25M23.5 31.5V19.5H33V22H27V25H32V27.5H26.5V31.5H23.5ZM34.5 23V31.5H37.5V23H34.5ZM34.5 21.5V19.5H37.5V21.5H34.5Z" stroke="black"/>
<path d="M33.5 1C51.5895 1 66 13.6666 66 29C66 44.3334 51.5895 57 33.5 57C15.4105 57 1 44.3334 1 29C1 13.6666 15.4105 1 33.5 1Z" fill="#FFFBF5" stroke="#4C4D53" stroke-width="2"/>
<path d="M8.654 25.741V29.89H13.721V31.591H8.654V37H6.539V24.04H14.621V25.741H8.654ZM18.3376 27.82V37H16.4026V27.82H18.3376ZM18.6616 25.048C18.6616 25.222 18.6256 25.387 18.5536 25.543C18.4876 25.699 18.3946 25.837 18.2746 25.957C18.1546 26.071 18.0136 26.164 17.8516 26.236C17.6956 26.302 17.5276 26.335 17.3476 26.335C17.1736 26.335 17.0086 26.302 16.8526 26.236C16.7026 26.164 16.5706 26.071 16.4566 25.957C16.3426 25.837 16.2496 25.699 16.1776 25.543C16.1116 25.387 16.0786 25.222 16.0786 25.048C16.0786 24.868 16.1116 24.7 16.1776 24.544C16.2496 24.388 16.3426 24.253 16.4566 24.139C16.5706 24.019 16.7026 23.926 16.8526 23.86C17.0086 23.788 17.1736 23.752 17.3476 23.752C17.5276 23.752 17.6956 23.788 17.8516 23.86C18.0136 23.926 18.1546 24.019 18.2746 24.139C18.3946 24.253 18.4876 24.388 18.5536 24.544C18.6256 24.7 18.6616 24.868 18.6616 25.048ZM24.0448 32.329C24.6448 32.329 25.0948 32.176 25.3948 31.87C25.6948 31.564 25.8448 31.165 25.8448 30.673C25.8448 30.169 25.6948 29.77 25.3948 29.476C25.0948 29.182 24.6448 29.035 24.0448 29.035C23.4508 29.035 23.0008 29.182 22.6948 29.476C22.3948 29.77 22.2448 30.169 22.2448 30.673C22.2448 30.913 22.2838 31.135 22.3618 31.339C22.4398 31.543 22.5538 31.72 22.7038 31.87C22.8538 32.014 23.0398 32.128 23.2618 32.212C23.4898 32.29 23.7508 32.329 24.0448 32.329ZM26.7358 37.45C26.7358 37.246 26.6758 37.084 26.5558 36.964C26.4418 36.838 26.2858 36.742 26.0878 36.676C25.8898 36.604 25.6588 36.553 25.3948 36.523C25.1308 36.487 24.8488 36.463 24.5488 36.451C24.2548 36.433 23.9518 36.418 23.6398 36.406C23.3338 36.388 23.0368 36.358 22.7488 36.316C22.4608 36.466 22.2238 36.646 22.0378 36.856C21.8578 37.066 21.7678 37.309 21.7678 37.585C21.7678 37.765 21.8128 37.933 21.9028 38.089C21.9988 38.245 22.1428 38.38 22.3348 38.494C22.5328 38.608 22.7818 38.698 23.0818 38.764C23.3878 38.83 23.7538 38.863 24.1798 38.863C25.0318 38.863 25.6708 38.731 26.0968 38.467C26.5228 38.203 26.7358 37.864 26.7358 37.45ZM28.6798 28.153V28.873C28.6798 29.113 28.5358 29.26 28.2478 29.314L27.3298 29.467C27.4858 29.815 27.5638 30.202 27.5638 30.628C27.5638 31.078 27.4738 31.486 27.2938 31.852C27.1198 32.218 26.8768 32.53 26.5648 32.788C26.2528 33.046 25.8808 33.244 25.4488 33.382C25.0168 33.52 24.5488 33.589 24.0448 33.589C23.8528 33.589 23.6638 33.58 23.4778 33.562C23.2978 33.538 23.1208 33.508 22.9468 33.472C22.7728 33.574 22.6438 33.682 22.5598 33.796C22.4758 33.91 22.4338 34.027 22.4338 34.147C22.4338 34.345 22.5208 34.492 22.6948 34.588C22.8688 34.684 23.0968 34.753 23.3788 34.795C23.6668 34.837 23.9938 34.864 24.3598 34.876C24.7258 34.888 25.0978 34.909 25.4758 34.939C25.8538 34.969 26.2258 35.02 26.5918 35.092C26.9578 35.158 27.2818 35.272 27.5638 35.434C27.8518 35.59 28.0828 35.803 28.2568 36.073C28.4308 36.343 28.5178 36.694 28.5178 37.126C28.5178 37.522 28.4188 37.909 28.2208 38.287C28.0228 38.665 27.7348 39.001 27.3568 39.295C26.9848 39.589 26.5288 39.823 25.9888 39.997C25.4488 40.177 24.8338 40.267 24.1438 40.267C23.4598 40.267 22.8628 40.201 22.3528 40.069C21.8488 39.937 21.4258 39.757 21.0838 39.529C20.7478 39.307 20.4958 39.049 20.3278 38.755C20.1658 38.461 20.0848 38.155 20.0848 37.837C20.0848 37.405 20.2198 37.036 20.4898 36.73C20.7658 36.424 21.1378 36.184 21.6058 36.01C21.3538 35.89 21.1498 35.725 20.9938 35.515C20.8438 35.305 20.7688 35.029 20.7688 34.687C20.7688 34.417 20.8678 34.135 21.0658 33.841C21.2638 33.547 21.5608 33.298 21.9568 33.094C21.5008 32.842 21.1408 32.509 20.8768 32.095C20.6128 31.675 20.4808 31.186 20.4808 30.628C20.4808 30.172 20.5678 29.761 20.7418 29.395C20.9218 29.029 21.1708 28.717 21.4888 28.459C21.8068 28.201 22.1818 28.003 22.6138 27.865C23.0518 27.727 23.5288 27.658 24.0448 27.658C24.8368 27.658 25.5268 27.823 26.1148 28.153H28.6798ZM35.2843 32.446C35.2843 33.172 35.1943 33.826 35.0143 34.408C34.8403 34.984 34.5763 35.476 34.2223 35.884C33.8743 36.286 33.4393 36.598 32.9173 36.82C32.4013 37.036 31.8013 37.144 31.1173 37.144C30.8053 37.144 30.4963 37.123 30.1903 37.081C29.8843 37.045 29.5663 36.985 29.2363 36.901L29.3443 35.641C29.3623 35.521 29.4073 35.425 29.4793 35.353C29.5573 35.281 29.6683 35.245 29.8123 35.245C29.9203 35.245 30.0583 35.269 30.2263 35.317C30.4003 35.359 30.6253 35.38 30.9013 35.38C31.2673 35.38 31.5913 35.326 31.8733 35.218C32.1613 35.11 32.4013 34.942 32.5933 34.714C32.7913 34.48 32.9383 34.183 33.0343 33.823C33.1363 33.457 33.1873 33.016 33.1873 32.5V24.04H35.2843V32.446ZM42.4434 32.986C41.7534 33.01 41.1714 33.067 40.6974 33.157C40.2234 33.241 39.8394 33.352 39.5454 33.49C39.2514 33.622 39.0384 33.781 38.9064 33.967C38.7804 34.153 38.7174 34.357 38.7174 34.579C38.7174 34.795 38.7504 34.981 38.8164 35.137C38.8884 35.287 38.9844 35.413 39.1044 35.515C39.2304 35.611 39.3744 35.683 39.5364 35.731C39.7044 35.773 39.8874 35.794 40.0854 35.794C40.5894 35.794 41.0214 35.701 41.3814 35.515C41.7474 35.323 42.1014 35.047 42.4434 34.687V32.986ZM37.3134 29.098C38.3514 28.132 39.5874 27.649 41.0214 27.649C41.5494 27.649 42.0174 27.736 42.4254 27.91C42.8394 28.078 43.1844 28.318 43.4604 28.63C43.7424 28.942 43.9554 29.314 44.0994 29.746C44.2494 30.172 44.3244 30.646 44.3244 31.168V37H43.4604C43.2744 37 43.1334 36.973 43.0374 36.919C42.9414 36.859 42.8604 36.742 42.7944 36.568L42.6054 35.821C42.3714 36.031 42.1404 36.22 41.9124 36.388C41.6844 36.55 41.4474 36.688 41.2014 36.802C40.9614 36.916 40.7004 37 40.4184 37.054C40.1424 37.114 39.8364 37.144 39.5004 37.144C39.1284 37.144 38.7804 37.093 38.4564 36.991C38.1384 36.889 37.8624 36.736 37.6284 36.532C37.3944 36.322 37.2084 36.064 37.0704 35.758C36.9384 35.452 36.8724 35.092 36.8724 34.678C36.8724 34.324 36.9654 33.979 37.1514 33.643C37.3434 33.307 37.6554 33.007 38.0874 32.743C38.5254 32.473 39.0984 32.251 39.8064 32.077C40.5204 31.903 41.3994 31.804 42.4434 31.78V31.168C42.4434 30.508 42.3024 30.016 42.0204 29.692C41.7384 29.368 41.3244 29.206 40.7784 29.206C40.4064 29.206 40.0944 29.254 39.8424 29.35C39.5904 29.44 39.3714 29.539 39.1854 29.647C38.9994 29.755 38.8344 29.857 38.6904 29.953C38.5464 30.043 38.3934 30.088 38.2314 30.088C38.0994 30.088 37.9854 30.055 37.8894 29.989C37.7994 29.917 37.7244 29.83 37.6644 29.728L37.3134 29.098ZM46.5911 37V27.82H47.7611C48.0251 27.82 48.1931 27.943 48.2651 28.189L48.3911 28.99C48.5591 28.798 48.7331 28.624 48.9131 28.468C49.0931 28.306 49.2851 28.168 49.4891 28.054C49.6991 27.934 49.9211 27.841 50.1551 27.775C50.3951 27.709 50.6531 27.676 50.9291 27.676C51.2231 27.676 51.4931 27.718 51.7391 27.802C51.9851 27.886 52.2011 28.006 52.3871 28.162C52.5791 28.318 52.7441 28.507 52.8821 28.729C53.0201 28.951 53.1341 29.2 53.2241 29.476C53.3621 29.158 53.5361 28.885 53.7461 28.657C53.9561 28.429 54.1901 28.243 54.4481 28.099C54.7061 27.955 54.9791 27.85 55.2671 27.784C55.5611 27.712 55.8581 27.676 56.1581 27.676C56.6501 27.676 57.0881 27.754 57.4721 27.91C57.8621 28.066 58.1891 28.294 58.4531 28.594C58.7231 28.888 58.9271 29.251 59.0651 29.683C59.2031 30.115 59.2721 30.607 59.2721 31.159V37H57.3371V31.159C57.3371 30.511 57.1961 30.025 56.9141 29.701C56.6381 29.371 56.2271 29.206 55.6811 29.206C55.4351 29.206 55.2041 29.248 54.9881 29.332C54.7721 29.416 54.5831 29.539 54.4211 29.701C54.2591 29.863 54.1301 30.067 54.0341 30.313C53.9441 30.553 53.8991 30.835 53.8991 31.159V37H51.9641V31.159C51.9641 30.487 51.8291 29.995 51.5591 29.683C51.2891 29.365 50.8931 29.206 50.3711 29.206C50.0111 29.206 49.6781 29.299 49.3721 29.485C49.0661 29.665 48.7841 29.914 48.5261 30.232V37H46.5911Z" fill="#4C4D53"/>
</svg>
