<svg width="72" height="66" viewBox="0 0 72 66" fill="none" xmlns="http://www.w3.org/2000/svg">
<path d="M6.23926 15.5244C6.86069 14.6362 9.19951 11.4051 13.4224 8.28204C24.2211 0.299103 36.6553 0.944802 38.4461 1.06076C41.4911 1.26106 53.9281 2.44704 62.9473 12.3354C65.5488 15.1871 69.8988 20.9878 70.8253 29.2527C72.3902 43.1814 62.9642 52.7852 61.614 54.1135C53.4338 62.1755 43.2594 63.6566 39.3133 63.9887C36.7739 64.2022 25.6956 64.8821 15.2161 57.8427C12.8207 56.2324 5.22238 50.9693 2.12372 41.0335C1.82995 40.0926 -1.94663 27.2076 6.23643 15.5244H6.23926Z" stroke="#404148" stroke-width="2" stroke-miterlimit="10"/>
<path d="M29.7292 16.8396H43.0051" stroke="#404148" stroke-width="2" stroke-miterlimit="10"/>
<path d="M28.9185 16.8396H29.7292H28.8592C26.5882 17.4036 24.8256 18.9058 24.351 20.7955C23.9838 22.2477 24.481 23.5259 24.6787 23.9713C24.851 24.3587 25.4329 25.6106 26.9186 26.4513C27.9101 27.0126 28.8592 27.1418 29.3676 27.176" stroke="#404148" stroke-width="2" stroke-miterlimit="10"/>
<path d="M43.0051 16.8395C43.0729 16.8368 43.1661 16.8342 43.2791 16.8395C45.0163 16.9159 46.4427 18.4524 47.0755 19.6647C47.7251 20.9113 47.9991 22.7087 47.0755 24.4034C45.8665 26.6251 43.4514 27.1759 43.1435 27.1733L28.9383 27.1285" stroke="#404148" stroke-width="2" stroke-miterlimit="10"/>
<path d="M29.0174 27.3999C28.5089 27.4684 27.1277 27.7241 25.9244 28.8099C24.6617 29.9511 24.3425 31.3321 24.2606 32.0437C24.2126 32.4364 24.094 33.5775 24.7013 34.7846C25.8679 37.0986 28.6728 37.6652 29.0174 37.6705L35.9152 37.7495L36.0028 27.3999H29.0174Z" stroke="#404148" stroke-width="2" stroke-miterlimit="10"/>
<path d="M36.3643 30.4572C37.0451 28.9813 38.3105 28.275 38.7116 28.0589C40.7341 26.9678 43.6322 26.9599 45.5953 28.4463C46.9992 29.5084 47.437 30.9658 47.5444 31.3427C47.6602 31.7512 47.9087 32.6578 47.6715 33.7252C47.2139 35.773 45.1773 37.4413 42.9034 37.8313C40.8471 38.1845 39.2511 37.378 38.9517 37.2199C37.0451 36.2158 36.4039 34.5554 36.2598 34.1443C36.0988 33.683 35.5847 32.1439 36.3643 30.4572Z" stroke="#404148" stroke-width="2" stroke-miterlimit="10"/>
<path d="M35.9152 37.7523L35.8333 43.9088C35.8333 44.0802 35.7937 44.3279 35.7147 44.6152C35.3531 45.925 34.3221 46.6867 33.8814 47.0135C33.5086 47.2902 31.65 48.6659 29.0795 48.2416C26.6277 47.8358 25.3905 46.0937 25.1956 45.8064C24.9527 45.4506 24.1363 44.2172 24.3002 42.5173C24.4951 40.5011 25.9385 39.302 26.3311 38.9857C27.509 38.0369 28.7773 37.7681 29.3592 37.6812" stroke="#404148" stroke-width="2" stroke-miterlimit="10"/>
</svg>
