<svg width="453" height="155" viewBox="0 0 453 155" fill="none" xmlns="http://www.w3.org/2000/svg">
<rect x="-250.269" y="10.2969" width="736.229" height="144.16" rx="6" fill="#4F5057"/>
<ellipse cx="425.204" cy="72.8159" rx="1.53168" ry="2.20653" fill="#F7FF85"/>
<ellipse cx="348.62" cy="46.3374" rx="1.53168" ry="2.20653" fill="#F7FF85"/>
<ellipse cx="247.528" cy="116.946" rx="1.53168" ry="2.20653" fill="#F7FF85"/>
<ellipse cx="30.0288" cy="100.765" rx="1.53168" ry="2.20653" fill="#F7FF85"/>
<ellipse cx="127.036" cy="111.062" rx="1.53168" ry="2.20653" fill="#F7FF85"/>
<ellipse cx="128.567" cy="27.9492" rx="3.06337" ry="4.41306" fill="#F7FF85"/>
<ellipse cx="350.151" cy="126.508" rx="3.06337" ry="4.41306" fill="#F7FF85"/>
<ellipse cx="10.1167" cy="47.0726" rx="4.08449" ry="5.88408" fill="#F7FF85"/>
<ellipse cx="383.848" cy="60.3118" rx="4.08449" ry="5.88408" fill="#F7FF85"/>
<ellipse cx="282.756" cy="136.805" rx="4.08449" ry="5.88408" fill="#F7FF85"/>
<ellipse cx="95.8911" cy="113.269" rx="4.08449" ry="5.88408" fill="#F7FF85"/>
<ellipse cx="175.539" cy="117.682" rx="3.06337" ry="4.41306" fill="#F7FF85"/>
<ellipse cx="305.222" cy="23.5361" rx="3.06337" ry="4.41306" fill="#F7FF85"/>
<ellipse cx="3.47993" cy="128.714" rx="1.53168" ry="2.20653" fill="#F7FF85"/>
<ellipse cx="447.157" cy="11.7685" rx="3.06337" ry="4.41306" fill="#F7FF85"/>
<ellipse cx="219.447" cy="26.4785" rx="3.06337" ry="4.41306" fill="#F7FF85"/>
<ellipse cx="425.714" cy="116.211" rx="3.06337" ry="4.41306" fill="#F7FF85"/>
<path d="M93.2357 87.4101C92.9957 87.4101 92.7957 87.3101 92.6357 87.1101L87.3157 80.3301L88.5357 79.0901L93.9557 86.0301C94.0757 86.2035 94.1357 86.3835 94.1357 86.5701C94.1357 86.8368 94.0357 87.0435 93.8357 87.1901C93.649 87.3368 93.449 87.4101 93.2357 87.4101ZM93.1757 73.3501C93.389 73.3501 93.5624 73.4368 93.6957 73.6101C93.8424 73.7835 93.9157 73.9635 93.9157 74.1501C93.9157 74.3368 93.8357 74.5101 93.6757 74.6701L84.8357 83.0301L84.6957 81.1701L92.5357 73.6501C92.7357 73.4501 92.949 73.3501 93.1757 73.3501ZM84.1757 87.3701C83.9224 87.3701 83.7224 87.2901 83.5757 87.1301C83.429 86.9701 83.3557 86.7768 83.3557 86.5501V74.1901C83.3557 73.9501 83.4357 73.7568 83.5957 73.6101C83.7557 73.4501 83.9557 73.3701 84.1957 73.3701C84.449 73.3701 84.649 73.4501 84.7957 73.6101C84.9424 73.7568 85.0157 73.9501 85.0157 74.1901V86.5501C85.0157 86.7768 84.9357 86.9701 84.7757 87.1301C84.629 87.2901 84.429 87.3701 84.1757 87.3701ZM105.625 82.1701C105.625 83.2101 105.392 84.1368 104.925 84.9501C104.472 85.7635 103.852 86.4035 103.065 86.8701C102.292 87.3368 101.418 87.5701 100.445 87.5701C99.4716 87.5701 98.5916 87.3368 97.8049 86.8701C97.0183 86.4035 96.3916 85.7635 95.9249 84.9501C95.4716 84.1368 95.2449 83.2101 95.2449 82.1701C95.2449 81.1301 95.4716 80.2035 95.9249 79.3901C96.3916 78.5768 97.0183 77.9368 97.8049 77.4701C98.5916 77.0034 99.4716 76.7701 100.445 76.7701C101.418 76.7701 102.292 77.0034 103.065 77.4701C103.852 77.9368 104.472 78.5768 104.925 79.3901C105.392 80.2035 105.625 81.1301 105.625 82.1701ZM104.025 82.1701C104.025 81.3968 103.865 80.7168 103.545 80.1301C103.238 79.5435 102.812 79.0835 102.265 78.7501C101.732 78.4168 101.125 78.2501 100.445 78.2501C99.7649 78.2501 99.1516 78.4168 98.6049 78.7501C98.0716 79.0835 97.6449 79.5435 97.3249 80.1301C97.0049 80.7168 96.8449 81.3968 96.8449 82.1701C96.8449 82.9301 97.0049 83.6035 97.3249 84.1901C97.6449 84.7768 98.0716 85.2435 98.6049 85.5901C99.1516 85.9235 99.7649 86.0901 100.445 86.0901C101.125 86.0901 101.732 85.9235 102.265 85.5901C102.812 85.2435 103.238 84.7768 103.545 84.1901C103.865 83.6035 104.025 82.9301 104.025 82.1701ZM112.951 76.7701C113.858 76.7701 114.571 76.9568 115.091 77.3301C115.611 77.7034 115.978 78.2034 116.191 78.8301C116.418 79.4568 116.531 80.1568 116.531 80.9301V86.5501C116.531 86.7768 116.451 86.9701 116.291 87.1301C116.145 87.2901 115.958 87.3701 115.731 87.3701C115.505 87.3701 115.311 87.2901 115.151 87.1301C115.005 86.9701 114.931 86.7768 114.931 86.5501V80.9701C114.931 80.4635 114.851 80.0101 114.691 79.6101C114.545 79.1968 114.291 78.8701 113.931 78.6301C113.585 78.3768 113.105 78.2501 112.491 78.2501C111.931 78.2501 111.418 78.3768 110.951 78.6301C110.485 78.8701 110.111 79.1968 109.831 79.6101C109.551 80.0101 109.411 80.4635 109.411 80.9701V86.5501C109.411 86.7768 109.331 86.9701 109.171 87.1301C109.025 87.2901 108.838 87.3701 108.611 87.3701C108.385 87.3701 108.191 87.2901 108.031 87.1301C107.885 86.9701 107.811 86.7768 107.811 86.5501V77.8301C107.811 77.6035 107.885 77.4168 108.031 77.2701C108.191 77.1101 108.385 77.0301 108.611 77.0301C108.851 77.0301 109.045 77.1101 109.191 77.2701C109.338 77.4168 109.411 77.6035 109.411 77.8301V79.2501L109.011 79.6901C109.078 79.3435 109.231 78.9968 109.471 78.6501C109.711 78.2901 110.011 77.9701 110.371 77.6901C110.731 77.4101 111.131 77.1901 111.571 77.0301C112.011 76.8568 112.471 76.7701 112.951 76.7701ZM118.871 77.0901H123.571C123.785 77.0901 123.958 77.1635 124.091 77.3101C124.238 77.4568 124.311 77.6301 124.311 77.8301C124.311 78.0434 124.238 78.2235 124.091 78.3701C123.958 78.5035 123.785 78.5701 123.571 78.5701H118.871C118.671 78.5701 118.498 78.4968 118.351 78.3501C118.205 78.2035 118.131 78.0235 118.131 77.8101C118.131 77.6101 118.205 77.4434 118.351 77.3101C118.498 77.1635 118.671 77.0901 118.871 77.0901ZM120.971 74.3701C121.198 74.3701 121.385 74.4501 121.531 74.6101C121.678 74.7568 121.751 74.9434 121.751 75.1701V84.8301C121.751 85.1501 121.798 85.3901 121.891 85.5501C121.985 85.7101 122.105 85.8235 122.251 85.8901C122.411 85.9435 122.565 85.9701 122.711 85.9701C122.845 85.9701 122.958 85.9501 123.051 85.9101C123.158 85.8568 123.278 85.8301 123.411 85.8301C123.545 85.8301 123.665 85.8968 123.771 86.0301C123.891 86.1501 123.951 86.3101 123.951 86.5101C123.951 86.7501 123.811 86.9568 123.531 87.1301C123.251 87.2901 122.938 87.3701 122.591 87.3701C122.405 87.3701 122.171 87.3568 121.891 87.3301C121.625 87.3035 121.358 87.2168 121.091 87.0701C120.825 86.9235 120.598 86.6835 120.411 86.3501C120.238 86.0035 120.151 85.5235 120.151 84.9101V75.1701C120.151 74.9434 120.231 74.7568 120.391 74.6101C120.551 74.4501 120.745 74.3701 120.971 74.3701ZM134.837 76.9301C135.063 76.9301 135.25 77.0101 135.397 77.1701C135.557 77.3168 135.637 77.5035 135.637 77.7301V86.5501C135.637 86.7768 135.557 86.9701 135.397 87.1301C135.25 87.2901 135.063 87.3701 134.837 87.3701C134.597 87.3701 134.403 87.2901 134.257 87.1301C134.11 86.9701 134.037 86.7768 134.037 86.5501V84.6501L134.417 84.6101C134.417 84.9035 134.317 85.2235 134.117 85.5701C133.917 85.9168 133.643 86.2435 133.297 86.5501C132.95 86.8435 132.537 87.0901 132.057 87.2901C131.59 87.4768 131.083 87.5701 130.537 87.5701C129.63 87.5701 128.817 87.3368 128.097 86.8701C127.377 86.3901 126.803 85.7435 126.377 84.9301C125.963 84.1168 125.757 83.1901 125.757 82.1501C125.757 81.0968 125.963 80.1701 126.377 79.3701C126.803 78.5568 127.377 77.9234 128.097 77.4701C128.817 77.0034 129.617 76.7701 130.497 76.7701C131.07 76.7701 131.603 76.8634 132.097 77.0501C132.59 77.2368 133.017 77.4901 133.377 77.8101C133.75 78.1301 134.037 78.4835 134.237 78.8701C134.45 79.2568 134.557 79.6435 134.557 80.0301L134.037 79.9101V77.7301C134.037 77.5035 134.11 77.3168 134.257 77.1701C134.403 77.0101 134.597 76.9301 134.837 76.9301ZM130.717 86.0901C131.383 86.0901 131.97 85.9168 132.477 85.5701C132.997 85.2235 133.397 84.7568 133.677 84.1701C133.97 83.5701 134.117 82.8968 134.117 82.1501C134.117 81.4168 133.97 80.7568 133.677 80.1701C133.397 79.5701 132.997 79.1035 132.477 78.7701C131.97 78.4235 131.383 78.2501 130.717 78.2501C130.063 78.2501 129.477 78.4168 128.957 78.7501C128.45 79.0835 128.05 79.5435 127.757 80.1301C127.463 80.7168 127.317 81.3901 127.317 82.1501C127.317 82.8968 127.457 83.5701 127.737 84.1701C128.03 84.7568 128.43 85.2235 128.937 85.5701C129.457 85.9168 130.05 86.0901 130.717 86.0901ZM139.342 87.3701C139.102 87.3701 138.909 87.2901 138.762 87.1301C138.615 86.9701 138.542 86.7768 138.542 86.5501V73.3701C138.542 73.1435 138.615 72.9568 138.762 72.8101C138.909 72.6501 139.102 72.5701 139.342 72.5701C139.569 72.5701 139.755 72.6501 139.902 72.8101C140.062 72.9568 140.142 73.1435 140.142 73.3701V86.5501C140.142 86.7768 140.062 86.9701 139.902 87.1301C139.755 87.2901 139.569 87.3701 139.342 87.3701ZM145.982 76.9701C146.195 76.9701 146.375 77.0568 146.522 77.2301C146.682 77.3901 146.762 77.5568 146.762 77.7301C146.762 77.9568 146.655 78.1568 146.442 78.3301L139.962 83.9901L139.902 82.1301L145.422 77.2101C145.582 77.0501 145.769 76.9701 145.982 76.9701ZM146.202 87.3501C145.975 87.3501 145.775 87.2635 145.602 87.0901L141.342 82.5501L142.542 81.4501L146.762 85.9701C146.922 86.1435 147.002 86.3435 147.002 86.5701C147.002 86.8101 146.909 87.0035 146.722 87.1501C146.535 87.2835 146.362 87.3501 146.202 87.3501ZM148.699 77.0901H153.399C153.613 77.0901 153.786 77.1635 153.919 77.3101C154.066 77.4568 154.139 77.6301 154.139 77.8301C154.139 78.0434 154.066 78.2235 153.919 78.3701C153.786 78.5035 153.613 78.5701 153.399 78.5701H148.699C148.499 78.5701 148.326 78.4968 148.179 78.3501C148.033 78.2035 147.959 78.0235 147.959 77.8101C147.959 77.6101 148.033 77.4434 148.179 77.3101C148.326 77.1635 148.499 77.0901 148.699 77.0901ZM150.799 74.3701C151.026 74.3701 151.213 74.4501 151.359 74.6101C151.506 74.7568 151.579 74.9434 151.579 75.1701V84.8301C151.579 85.1501 151.626 85.3901 151.719 85.5501C151.813 85.7101 151.933 85.8235 152.079 85.8901C152.239 85.9435 152.393 85.9701 152.539 85.9701C152.673 85.9701 152.786 85.9501 152.879 85.9101C152.986 85.8568 153.106 85.8301 153.239 85.8301C153.373 85.8301 153.493 85.8968 153.599 86.0301C153.719 86.1501 153.779 86.3101 153.779 86.5101C153.779 86.7501 153.639 86.9568 153.359 87.1301C153.079 87.2901 152.766 87.3701 152.419 87.3701C152.233 87.3701 151.999 87.3568 151.719 87.3301C151.453 87.3035 151.186 87.2168 150.919 87.0701C150.653 86.9235 150.426 86.6835 150.239 86.3501C150.066 86.0035 149.979 85.5235 149.979 84.9101V75.1701C149.979 74.9434 150.059 74.7568 150.219 74.6101C150.379 74.4501 150.573 74.3701 150.799 74.3701ZM156.745 79.2101C156.465 79.2101 156.245 79.1301 156.085 78.9701C155.938 78.7968 155.865 78.5701 155.865 78.2901V77.8901C155.865 77.6101 155.938 77.3901 156.085 77.2301C156.245 77.0701 156.465 76.9901 156.745 76.9901H156.905C157.198 76.9901 157.418 77.0701 157.565 77.2301C157.712 77.3901 157.785 77.6101 157.785 77.8901V78.2901C157.785 78.5701 157.712 78.7968 157.565 78.9701C157.418 79.1301 157.198 79.2101 156.905 79.2101H156.745ZM156.745 87.3701C156.465 87.3701 156.245 87.2901 156.085 87.1301C155.938 86.9568 155.865 86.7301 155.865 86.4501V86.0501C155.865 85.7701 155.938 85.5501 156.085 85.3901C156.245 85.2301 156.465 85.1501 156.745 85.1501H156.905C157.198 85.1501 157.418 85.2301 157.565 85.3901C157.712 85.5501 157.785 85.7701 157.785 86.0501V86.4501C157.785 86.7301 157.712 86.9568 157.565 87.1301C157.418 87.2901 157.198 87.3701 156.905 87.3701H156.745ZM170.469 76.8701C171.376 76.8701 172.109 77.1034 172.669 77.5701C173.243 78.0235 173.623 78.6701 173.809 79.5101H173.509L173.649 79.1501C173.809 78.7768 174.083 78.4168 174.469 78.0701C174.856 77.7234 175.303 77.4368 175.809 77.2101C176.316 76.9834 176.843 76.8701 177.389 76.8701C178.269 76.8701 178.963 77.0634 179.469 77.4501C179.976 77.8235 180.336 78.3301 180.549 78.9701C180.776 79.5968 180.889 80.3035 180.889 81.0901V86.5501C180.889 86.7768 180.809 86.9701 180.649 87.1301C180.503 87.2901 180.316 87.3701 180.089 87.3701C179.849 87.3701 179.656 87.2901 179.509 87.1301C179.363 86.9701 179.289 86.7768 179.289 86.5501V81.1301C179.289 80.6101 179.209 80.1435 179.049 79.7301C178.903 79.3034 178.656 78.9701 178.309 78.7301C177.976 78.4768 177.516 78.3501 176.929 78.3501C176.383 78.3501 175.883 78.4768 175.429 78.7301C174.976 78.9701 174.616 79.3034 174.349 79.7301C174.083 80.1435 173.949 80.6101 173.949 81.1301V86.5501C173.949 86.7768 173.876 86.9701 173.729 87.1301C173.583 87.2901 173.389 87.3701 173.149 87.3701C172.923 87.3701 172.729 87.2901 172.569 87.1301C172.423 86.9701 172.349 86.7768 172.349 86.5501V81.0701C172.349 80.5635 172.276 80.1101 172.129 79.7101C171.996 79.2968 171.763 78.9701 171.429 78.7301C171.096 78.4768 170.636 78.3501 170.049 78.3501C169.516 78.3501 169.029 78.4768 168.589 78.7301C168.149 78.9701 167.796 79.2968 167.529 79.7101C167.263 80.1101 167.129 80.5635 167.129 81.0701V86.5501C167.129 86.7768 167.049 86.9701 166.889 87.1301C166.743 87.2901 166.556 87.3701 166.329 87.3701C166.103 87.3701 165.909 87.2901 165.749 87.1301C165.603 86.9701 165.529 86.7768 165.529 86.5501V77.8301C165.529 77.6035 165.603 77.4168 165.749 77.2701C165.909 77.1101 166.103 77.0301 166.329 77.0301C166.569 77.0301 166.763 77.1101 166.909 77.2701C167.056 77.4168 167.129 77.6035 167.129 77.8301V79.3501L166.689 79.8301C166.743 79.4835 166.876 79.1368 167.089 78.7901C167.316 78.4435 167.603 78.1235 167.949 77.8301C168.296 77.5368 168.683 77.3035 169.109 77.1301C169.536 76.9568 169.989 76.8701 170.469 76.8701ZM185.17 86.5501C185.17 86.7768 185.09 86.9701 184.93 87.1301C184.783 87.2901 184.596 87.3701 184.37 87.3701C184.13 87.3701 183.936 87.2901 183.79 87.1301C183.643 86.9701 183.57 86.7768 183.57 86.5501V77.6701C183.57 77.4434 183.643 77.2568 183.79 77.1101C183.95 76.9501 184.143 76.8701 184.37 76.8701C184.596 76.8701 184.783 76.9501 184.93 77.1101C185.09 77.2568 185.17 77.4434 185.17 77.6701V86.5501ZM184.37 75.5301C184.036 75.5301 183.79 75.4635 183.63 75.3301C183.47 75.1968 183.39 74.9901 183.39 74.7101V74.4301C183.39 74.1501 183.476 73.9434 183.65 73.8101C183.823 73.6768 184.07 73.6101 184.39 73.6101C184.71 73.6101 184.95 73.6768 185.11 73.8101C185.27 73.9434 185.35 74.1501 185.35 74.4301V74.7101C185.35 74.9901 185.263 75.1968 185.09 75.3301C184.93 75.4635 184.69 75.5301 184.37 75.5301ZM192.764 76.8701C193.67 76.8701 194.404 77.1034 194.964 77.5701C195.537 78.0235 195.917 78.6701 196.104 79.5101H195.804L195.944 79.1501C196.104 78.7768 196.377 78.4168 196.764 78.0701C197.15 77.7234 197.597 77.4368 198.104 77.2101C198.61 76.9834 199.137 76.8701 199.684 76.8701C200.564 76.8701 201.257 77.0634 201.764 77.4501C202.27 77.8235 202.63 78.3301 202.844 78.9701C203.07 79.5968 203.184 80.3035 203.184 81.0901V86.5501C203.184 86.7768 203.104 86.9701 202.944 87.1301C202.797 87.2901 202.61 87.3701 202.384 87.3701C202.144 87.3701 201.95 87.2901 201.804 87.1301C201.657 86.9701 201.584 86.7768 201.584 86.5501V81.1301C201.584 80.6101 201.504 80.1435 201.344 79.7301C201.197 79.3034 200.95 78.9701 200.604 78.7301C200.27 78.4768 199.81 78.3501 199.224 78.3501C198.677 78.3501 198.177 78.4768 197.724 78.7301C197.27 78.9701 196.91 79.3034 196.644 79.7301C196.377 80.1435 196.244 80.6101 196.244 81.1301V86.5501C196.244 86.7768 196.17 86.9701 196.024 87.1301C195.877 87.2901 195.684 87.3701 195.444 87.3701C195.217 87.3701 195.024 87.2901 194.864 87.1301C194.717 86.9701 194.644 86.7768 194.644 86.5501V81.0701C194.644 80.5635 194.57 80.1101 194.424 79.7101C194.29 79.2968 194.057 78.9701 193.724 78.7301C193.39 78.4768 192.93 78.3501 192.344 78.3501C191.81 78.3501 191.324 78.4768 190.884 78.7301C190.444 78.9701 190.09 79.2968 189.824 79.7101C189.557 80.1101 189.424 80.5635 189.424 81.0701V86.5501C189.424 86.7768 189.344 86.9701 189.184 87.1301C189.037 87.2901 188.85 87.3701 188.624 87.3701C188.397 87.3701 188.204 87.2901 188.044 87.1301C187.897 86.9701 187.824 86.7768 187.824 86.5501V77.8301C187.824 77.6035 187.897 77.4168 188.044 77.2701C188.204 77.1101 188.397 77.0301 188.624 77.0301C188.864 77.0301 189.057 77.1101 189.204 77.2701C189.35 77.4168 189.424 77.6035 189.424 77.8301V79.3501L188.984 79.8301C189.037 79.4835 189.17 79.1368 189.384 78.7901C189.61 78.4435 189.897 78.1235 190.244 77.8301C190.59 77.5368 190.977 77.3035 191.404 77.1301C191.83 76.9568 192.284 76.8701 192.764 76.8701ZM207.464 86.5501C207.464 86.7768 207.384 86.9701 207.224 87.1301C207.077 87.2901 206.891 87.3701 206.664 87.3701C206.424 87.3701 206.231 87.2901 206.084 87.1301C205.937 86.9701 205.864 86.7768 205.864 86.5501V77.6701C205.864 77.4434 205.937 77.2568 206.084 77.1101C206.244 76.9501 206.437 76.8701 206.664 76.8701C206.891 76.8701 207.077 76.9501 207.224 77.1101C207.384 77.2568 207.464 77.4434 207.464 77.6701V86.5501ZM206.664 75.5301C206.331 75.5301 206.084 75.4635 205.924 75.3301C205.764 75.1968 205.684 74.9901 205.684 74.7101V74.4301C205.684 74.1501 205.771 73.9434 205.944 73.8101C206.117 73.6768 206.364 73.6101 206.684 73.6101C207.004 73.6101 207.244 73.6768 207.404 73.8101C207.564 73.9434 207.644 74.1501 207.644 74.4301V74.7101C207.644 74.9901 207.557 75.1968 207.384 75.3301C207.224 75.4635 206.984 75.5301 206.664 75.5301ZM214.658 87.5701C213.551 87.5701 212.625 87.2568 211.878 86.6301C211.145 86.0035 210.585 85.1435 210.198 84.0501C209.825 82.9568 209.638 81.7301 209.638 80.3701C209.638 78.9835 209.825 77.7501 210.198 76.6701C210.585 75.5901 211.145 74.7368 211.878 74.1101C212.625 73.4834 213.551 73.1701 214.658 73.1701C215.765 73.1701 216.685 73.4834 217.418 74.1101C218.165 74.7368 218.725 75.5901 219.098 76.6701C219.471 77.7501 219.658 78.9835 219.658 80.3701C219.658 81.7301 219.471 82.9568 219.098 84.0501C218.725 85.1435 218.165 86.0035 217.418 86.6301C216.685 87.2568 215.765 87.5701 214.658 87.5701ZM214.658 85.9501C215.365 85.9501 215.958 85.7235 216.438 85.2701C216.931 84.8168 217.305 84.1768 217.558 83.3501C217.811 82.5101 217.938 81.5168 217.938 80.3701C217.938 79.2101 217.811 78.2168 217.558 77.3901C217.305 76.5501 216.931 75.9101 216.438 75.4701C215.958 75.0168 215.365 74.7901 214.658 74.7901C213.951 74.7901 213.351 75.0168 212.858 75.4701C212.378 75.9101 212.005 76.5501 211.738 77.3901C211.485 78.2168 211.358 79.2101 211.358 80.3701C211.358 81.5168 211.485 82.5101 211.738 83.3501C212.005 84.1768 212.378 84.8168 212.858 85.2701C213.351 85.7235 213.951 85.9501 214.658 85.9501ZM226.45 87.5701C225.343 87.5701 224.416 87.2568 223.67 86.6301C222.936 86.0035 222.376 85.1435 221.99 84.0501C221.616 82.9568 221.43 81.7301 221.43 80.3701C221.43 78.9835 221.616 77.7501 221.99 76.6701C222.376 75.5901 222.936 74.7368 223.67 74.1101C224.416 73.4834 225.343 73.1701 226.45 73.1701C227.556 73.1701 228.476 73.4834 229.21 74.1101C229.956 74.7368 230.516 75.5901 230.89 76.6701C231.263 77.7501 231.45 78.9835 231.45 80.3701C231.45 81.7301 231.263 82.9568 230.89 84.0501C230.516 85.1435 229.956 86.0035 229.21 86.6301C228.476 87.2568 227.556 87.5701 226.45 87.5701ZM226.45 85.9501C227.156 85.9501 227.75 85.7235 228.23 85.2701C228.723 84.8168 229.096 84.1768 229.35 83.3501C229.603 82.5101 229.73 81.5168 229.73 80.3701C229.73 79.2101 229.603 78.2168 229.35 77.3901C229.096 76.5501 228.723 75.9101 228.23 75.4701C227.75 75.0168 227.156 74.7901 226.45 74.7901C225.743 74.7901 225.143 75.0168 224.65 75.4701C224.17 75.9101 223.796 76.5501 223.53 77.3901C223.276 78.2168 223.15 79.2101 223.15 80.3701C223.15 81.5168 223.276 82.5101 223.53 83.3501C223.796 84.1768 224.17 84.8168 224.65 85.2701C225.143 85.7235 225.743 85.9501 226.45 85.9501ZM238.241 87.5701C237.135 87.5701 236.208 87.2568 235.461 86.6301C234.728 86.0035 234.168 85.1435 233.781 84.0501C233.408 82.9568 233.221 81.7301 233.221 80.3701C233.221 78.9835 233.408 77.7501 233.781 76.6701C234.168 75.5901 234.728 74.7368 235.461 74.1101C236.208 73.4834 237.135 73.1701 238.241 73.1701C239.348 73.1701 240.268 73.4834 241.001 74.1101C241.748 74.7368 242.308 75.5901 242.681 76.6701C243.055 77.7501 243.241 78.9835 243.241 80.3701C243.241 81.7301 243.055 82.9568 242.681 84.0501C242.308 85.1435 241.748 86.0035 241.001 86.6301C240.268 87.2568 239.348 87.5701 238.241 87.5701ZM238.241 85.9501C238.948 85.9501 239.541 85.7235 240.021 85.2701C240.515 84.8168 240.888 84.1768 241.141 83.3501C241.395 82.5101 241.521 81.5168 241.521 80.3701C241.521 79.2101 241.395 78.2168 241.141 77.3901C240.888 76.5501 240.515 75.9101 240.021 75.4701C239.541 75.0168 238.948 74.7901 238.241 74.7901C237.535 74.7901 236.935 75.0168 236.441 75.4701C235.961 75.9101 235.588 76.5501 235.321 77.3901C235.068 78.2168 234.941 79.2101 234.941 80.3701C234.941 81.5168 235.068 82.5101 235.321 83.3501C235.588 84.1768 235.961 84.8168 236.441 85.2701C236.935 85.7235 237.535 85.9501 238.241 85.9501ZM245.953 85.0501C246.033 85.0501 246.12 85.0701 246.213 85.1101C246.32 85.1368 246.433 85.2035 246.553 85.3101C246.82 85.5501 247.133 85.7435 247.493 85.8901C247.853 86.0368 248.267 86.1101 248.733 86.1101C249.307 86.1101 249.833 85.9835 250.313 85.7301C250.793 85.4635 251.18 85.0901 251.473 84.6101C251.78 84.1301 251.933 83.5768 251.933 82.9501C251.933 82.2701 251.78 81.7168 251.473 81.2901C251.18 80.8501 250.8 80.5301 250.333 80.3301C249.88 80.1168 249.4 80.0101 248.893 80.0101C248.707 80.0101 248.533 80.0234 248.373 80.0501C248.213 80.0768 248.06 80.1101 247.913 80.1501C247.78 80.1901 247.653 80.2101 247.533 80.2101C247.32 80.2101 247.153 80.1368 247.033 79.9901C246.913 79.8435 246.853 79.6635 246.853 79.4501C246.853 79.3301 246.873 79.2234 246.913 79.1301C246.967 79.0235 247.047 78.9101 247.153 78.7901L251.033 74.5901L251.353 74.9701H245.673C245.46 74.9701 245.28 74.8968 245.133 74.7501C244.987 74.6034 244.913 74.4234 244.913 74.2101C244.913 73.9968 244.987 73.8235 245.133 73.6901C245.28 73.5434 245.46 73.4701 245.673 73.4701H252.193C252.487 73.4701 252.7 73.5568 252.833 73.7301C252.967 73.8901 253.033 74.0701 253.033 74.2701C253.033 74.3901 253 74.5035 252.933 74.6101C252.88 74.7168 252.807 74.8168 252.713 74.9101L248.833 79.1301L248.373 78.7301C248.44 78.6768 248.593 78.6301 248.833 78.5901C249.073 78.5368 249.273 78.5101 249.433 78.5101C250.18 78.5101 250.867 78.6901 251.493 79.0501C252.12 79.4101 252.62 79.9168 252.993 80.5701C253.367 81.2235 253.553 81.9835 253.553 82.8501C253.553 83.8101 253.333 84.6435 252.893 85.3501C252.453 86.0568 251.847 86.6035 251.073 86.9901C250.313 87.3768 249.453 87.5701 248.493 87.5701C247.96 87.5701 247.433 87.4901 246.913 87.3301C246.407 87.1568 245.967 86.9101 245.593 86.5901C245.42 86.4968 245.3 86.3901 245.233 86.2701C245.18 86.1501 245.153 86.0301 245.153 85.9101C245.153 85.7101 245.227 85.5168 245.373 85.3301C245.533 85.1435 245.727 85.0501 245.953 85.0501ZM267.94 86.2701C267.513 86.2701 267.133 86.1835 266.8 86.0101C266.466 85.8235 266.213 85.5701 266.04 85.2501C265.88 84.9301 265.833 84.5635 265.9 84.1501L266.06 82.9301L266.34 83.1701C266.1 83.8901 265.766 84.4835 265.34 84.9501C264.913 85.4035 264.446 85.7368 263.94 85.9501C263.446 86.1635 262.946 86.2701 262.44 86.2701C261.893 86.2701 261.393 86.1301 260.94 85.8501C260.5 85.5568 260.146 85.1635 259.88 84.6701C259.613 84.1635 259.48 83.5968 259.48 82.9701C259.48 82.3435 259.6 81.6968 259.84 81.0301C260.093 80.3501 260.433 79.7168 260.86 79.1301C261.3 78.5434 261.806 78.0701 262.38 77.7101C262.966 77.3501 263.6 77.1701 264.28 77.1701C265.013 77.1701 265.613 77.4034 266.08 77.8701C266.56 78.3368 266.84 78.9301 266.92 79.6501L266.48 80.7501L266.92 77.9301C266.946 77.7568 267.02 77.6101 267.14 77.4901C267.26 77.3568 267.446 77.2901 267.7 77.2901C268.006 77.2901 268.213 77.3635 268.32 77.5101C268.426 77.6568 268.453 77.8768 268.4 78.1701L267.5 83.8501C267.433 84.3035 267.493 84.6301 267.68 84.8301C267.88 85.0301 268.106 85.1301 268.36 85.1301C268.813 85.1301 269.24 84.9635 269.64 84.6301C270.04 84.2968 270.386 83.8635 270.68 83.3301C270.986 82.7835 271.226 82.1701 271.4 81.4901C271.573 80.8101 271.66 80.1301 271.66 79.4501C271.66 78.4368 271.42 77.5501 270.94 76.7901C270.473 76.0168 269.806 75.4168 268.94 74.9901C268.073 74.5501 267.053 74.3301 265.88 74.3301C264.546 74.3301 263.3 74.5301 262.14 74.9301C260.993 75.3301 259.986 75.9168 259.12 76.6901C258.253 77.4501 257.573 78.3834 257.08 79.4901C256.6 80.5835 256.36 81.8368 256.36 83.2501C256.36 84.0101 256.48 84.7635 256.72 85.5101C256.96 86.2435 257.326 86.9035 257.82 87.4901C258.326 88.0901 258.973 88.5635 259.76 88.9101C260.56 89.2701 261.52 89.4501 262.64 89.4501C263.373 89.4501 264 89.3968 264.52 89.2901C265.04 89.1835 265.5 89.0368 265.9 88.8501C266.313 88.6635 266.726 88.4701 267.14 88.2701C267.286 88.1901 267.426 88.1701 267.56 88.2101C267.693 88.2501 267.793 88.3568 267.86 88.5301C267.993 88.8501 267.846 89.1168 267.42 89.3301C266.846 89.6101 266.186 89.8901 265.44 90.1701C264.693 90.4635 263.76 90.6101 262.64 90.6101C261.293 90.6101 260.146 90.3968 259.2 89.9701C258.253 89.5568 257.48 88.9968 256.88 88.2901C256.293 87.5835 255.86 86.7968 255.58 85.9301C255.3 85.0501 255.16 84.1568 255.16 83.2501C255.16 81.6901 255.433 80.2901 255.98 79.0501C256.54 77.8101 257.306 76.7501 258.28 75.8701C259.266 74.9901 260.406 74.3235 261.7 73.8701C262.993 73.4034 264.386 73.1701 265.88 73.1701C267.4 73.1701 268.68 73.4568 269.72 74.0301C270.76 74.5901 271.54 75.3501 272.06 76.3101C272.593 77.2568 272.86 78.3035 272.86 79.4501C272.86 80.2635 272.74 81.0768 272.5 81.8901C272.273 82.6901 271.94 83.4235 271.5 84.0901C271.06 84.7435 270.54 85.2701 269.94 85.6701C269.34 86.0701 268.673 86.2701 267.94 86.2701ZM262.76 84.9901C263.186 84.9901 263.6 84.8835 264 84.6701C264.413 84.4435 264.786 84.1501 265.12 83.7901C265.453 83.4301 265.72 83.0368 265.92 82.6101C266.133 82.1701 266.253 81.7368 266.28 81.3101C266.426 80.6701 266.426 80.1368 266.28 79.7101C266.146 79.2835 265.906 78.9701 265.56 78.7701C265.213 78.5568 264.806 78.4501 264.34 78.4501C263.833 78.4501 263.373 78.5968 262.96 78.8901C262.546 79.1701 262.193 79.5368 261.9 79.9901C261.62 80.4435 261.4 80.9301 261.24 81.4501C261.093 81.9701 261.02 82.4635 261.02 82.9301C261.02 83.5835 261.186 84.0901 261.52 84.4501C261.866 84.8101 262.28 84.9901 262.76 84.9901ZM274.434 85.7301C274.314 85.5568 274.261 85.3768 274.274 85.1901C274.287 84.9901 274.401 84.8168 274.614 84.6701C274.747 84.5768 274.901 84.5368 275.074 84.5501C275.261 84.5635 275.427 84.6501 275.574 84.8101C275.947 85.2501 276.374 85.6035 276.854 85.8701C277.334 86.1235 277.921 86.2501 278.614 86.2501C278.934 86.2368 279.254 86.1835 279.574 86.0901C279.894 85.9968 280.161 85.8368 280.374 85.6101C280.601 85.3701 280.714 85.0568 280.714 84.6701C280.714 84.2968 280.601 84.0035 280.374 83.7901C280.147 83.5635 279.854 83.3835 279.494 83.2501C279.134 83.1035 278.741 82.9768 278.314 82.8701C277.874 82.7501 277.441 82.6168 277.014 82.4701C276.587 82.3101 276.201 82.1168 275.854 81.8901C275.521 81.6501 275.247 81.3568 275.034 81.0101C274.834 80.6501 274.734 80.2168 274.734 79.7101C274.734 79.1101 274.894 78.5901 275.214 78.1501C275.547 77.7101 275.987 77.3701 276.534 77.1301C277.094 76.8901 277.701 76.7701 278.354 76.7701C278.727 76.7701 279.114 76.8168 279.514 76.9101C279.927 76.9901 280.327 77.1368 280.714 77.3501C281.101 77.5501 281.441 77.8301 281.734 78.1901C281.854 78.3234 281.921 78.4901 281.934 78.6901C281.947 78.8901 281.861 79.0701 281.674 79.2301C281.527 79.3368 281.361 79.3835 281.174 79.3701C281.001 79.3568 280.854 79.2901 280.734 79.1701C280.454 78.8368 280.101 78.5834 279.674 78.4101C279.261 78.2235 278.801 78.1301 278.294 78.1301C277.974 78.1301 277.661 78.1768 277.354 78.2701C277.047 78.3635 276.787 78.5235 276.574 78.7501C276.374 78.9635 276.274 79.2635 276.274 79.6501C276.287 80.0101 276.407 80.3035 276.634 80.5301C276.861 80.7568 277.167 80.9435 277.554 81.0901C277.941 81.2235 278.367 81.3568 278.834 81.4901C279.261 81.5968 279.667 81.7235 280.054 81.8701C280.454 82.0035 280.814 82.1835 281.134 82.4101C281.454 82.6368 281.707 82.9301 281.894 83.2901C282.081 83.6368 282.174 84.0768 282.174 84.6101C282.174 85.2235 282.001 85.7568 281.654 86.2101C281.307 86.6501 280.847 86.9901 280.274 87.2301C279.714 87.4568 279.107 87.5701 278.454 87.5701C277.721 87.5701 276.994 87.4301 276.274 87.1501C275.567 86.8701 274.954 86.3968 274.434 85.7301ZM283.867 77.0901H288.567C288.78 77.0901 288.953 77.1635 289.087 77.3101C289.233 77.4568 289.307 77.6301 289.307 77.8301C289.307 78.0434 289.233 78.2235 289.087 78.3701C288.953 78.5035 288.78 78.5701 288.567 78.5701H283.867C283.667 78.5701 283.493 78.4968 283.347 78.3501C283.2 78.2035 283.127 78.0235 283.127 77.8101C283.127 77.6101 283.2 77.4434 283.347 77.3101C283.493 77.1635 283.667 77.0901 283.867 77.0901ZM285.967 74.3701C286.193 74.3701 286.38 74.4501 286.527 74.6101C286.673 74.7568 286.747 74.9434 286.747 75.1701V84.8301C286.747 85.1501 286.793 85.3901 286.887 85.5501C286.98 85.7101 287.1 85.8235 287.247 85.8901C287.407 85.9435 287.56 85.9701 287.707 85.9701C287.84 85.9701 287.953 85.9501 288.047 85.9101C288.153 85.8568 288.273 85.8301 288.407 85.8301C288.54 85.8301 288.66 85.8968 288.767 86.0301C288.887 86.1501 288.947 86.3101 288.947 86.5101C288.947 86.7501 288.807 86.9568 288.527 87.1301C288.247 87.2901 287.933 87.3701 287.587 87.3701C287.4 87.3701 287.167 87.3568 286.887 87.3301C286.62 87.3035 286.353 87.2168 286.087 87.0701C285.82 86.9235 285.593 86.6835 285.407 86.3501C285.233 86.0035 285.147 85.5235 285.147 84.9101V75.1701C285.147 74.9434 285.227 74.7568 285.387 74.6101C285.547 74.4501 285.74 74.3701 285.967 74.3701ZM299.052 77.0301C299.292 77.0301 299.486 77.1101 299.632 77.2701C299.779 77.4168 299.852 77.6035 299.852 77.8301V83.2901C299.852 84.6368 299.472 85.6835 298.712 86.4301C297.966 87.1635 296.919 87.5301 295.572 87.5301C294.239 87.5301 293.192 87.1635 292.432 86.4301C291.686 85.6835 291.312 84.6368 291.312 83.2901V77.8301C291.312 77.6035 291.386 77.4168 291.532 77.2701C291.692 77.1101 291.886 77.0301 292.112 77.0301C292.352 77.0301 292.546 77.1101 292.692 77.2701C292.839 77.4168 292.912 77.6035 292.912 77.8301V83.2901C292.912 84.1968 293.146 84.8835 293.612 85.3501C294.079 85.8168 294.732 86.0501 295.572 86.0501C296.439 86.0501 297.099 85.8168 297.552 85.3501C298.019 84.8835 298.252 84.1968 298.252 83.2901V77.8301C298.252 77.6035 298.326 77.4168 298.472 77.2701C298.632 77.1101 298.826 77.0301 299.052 77.0301ZM311.116 72.5701C311.343 72.5701 311.53 72.6501 311.676 72.8101C311.836 72.9568 311.916 73.1435 311.916 73.3701V86.5501C311.916 86.7768 311.836 86.9701 311.676 87.1301C311.53 87.2901 311.343 87.3701 311.116 87.3701C310.876 87.3701 310.683 87.2901 310.536 87.1301C310.39 86.9701 310.316 86.7768 310.316 86.5501V84.6501L310.696 84.5101C310.696 84.8301 310.596 85.1701 310.396 85.5301C310.196 85.8768 309.923 86.2035 309.576 86.5101C309.23 86.8168 308.816 87.0701 308.336 87.2701C307.87 87.4701 307.363 87.5701 306.816 87.5701C305.923 87.5701 305.11 87.3368 304.376 86.8701C303.656 86.4035 303.083 85.7635 302.656 84.9501C302.243 84.1368 302.036 83.2101 302.036 82.1701C302.036 81.1168 302.243 80.1835 302.656 79.3701C303.083 78.5568 303.656 77.9234 304.376 77.4701C305.096 77.0034 305.896 76.7701 306.776 76.7701C307.336 76.7701 307.863 76.8634 308.356 77.0501C308.85 77.2368 309.276 77.4901 309.636 77.8101C310.01 78.1301 310.303 78.4835 310.516 78.8701C310.73 79.2568 310.836 79.6435 310.836 80.0301L310.316 79.9101V73.3701C310.316 73.1435 310.39 72.9568 310.536 72.8101C310.683 72.6501 310.876 72.5701 311.116 72.5701ZM306.996 86.0901C307.663 86.0901 308.25 85.9235 308.756 85.5901C309.276 85.2435 309.676 84.7768 309.956 84.1901C310.25 83.5901 310.396 82.9168 310.396 82.1701C310.396 81.4101 310.25 80.7368 309.956 80.1501C309.676 79.5634 309.276 79.1035 308.756 78.7701C308.25 78.4235 307.663 78.2501 306.996 78.2501C306.343 78.2501 305.756 78.4235 305.236 78.7701C304.73 79.1035 304.33 79.5634 304.036 80.1501C303.743 80.7368 303.596 81.4101 303.596 82.1701C303.596 82.9035 303.743 83.5701 304.036 84.1701C304.33 84.7568 304.73 85.2235 305.236 85.5701C305.756 85.9168 306.343 86.0901 306.996 86.0901ZM315.141 87.3501C314.861 87.3501 314.641 87.2701 314.481 87.1101C314.335 86.9501 314.261 86.7301 314.261 86.4501V86.0501C314.261 85.7568 314.335 85.5301 314.481 85.3701C314.641 85.2101 314.861 85.1301 315.141 85.1301H315.301C315.595 85.1301 315.815 85.2101 315.961 85.3701C316.108 85.5301 316.181 85.7568 316.181 86.0501V86.4501C316.181 86.7301 316.108 86.9501 315.961 87.1101C315.815 87.2701 315.595 87.3501 315.301 87.3501H315.141ZM319.484 87.3701C319.244 87.3701 319.05 87.2901 318.904 87.1301C318.757 86.9701 318.684 86.7768 318.684 86.5501V73.3701C318.684 73.1435 318.757 72.9568 318.904 72.8101C319.05 72.6501 319.244 72.5701 319.484 72.5701C319.71 72.5701 319.897 72.6501 320.044 72.8101C320.204 72.9568 320.284 73.1435 320.284 73.3701V86.5501C320.284 86.7768 320.204 86.9701 320.044 87.1301C319.897 87.2901 319.71 87.3701 319.484 87.3701ZM326.124 76.9701C326.337 76.9701 326.517 77.0568 326.664 77.2301C326.824 77.3901 326.904 77.5568 326.904 77.7301C326.904 77.9568 326.797 78.1568 326.584 78.3301L320.104 83.9901L320.044 82.1301L325.564 77.2101C325.724 77.0501 325.91 76.9701 326.124 76.9701ZM326.344 87.3501C326.117 87.3501 325.917 87.2635 325.744 87.0901L321.484 82.5501L322.684 81.4501L326.904 85.9701C327.064 86.1435 327.144 86.3435 327.144 86.5701C327.144 86.8101 327.05 87.0035 326.864 87.1501C326.677 87.2835 326.504 87.3501 326.344 87.3501ZM333.572 87.5701C332.505 87.5701 331.572 87.3435 330.772 86.8901C329.972 86.4368 329.345 85.8168 328.892 85.0301C328.452 84.2301 328.232 83.3101 328.232 82.2701C328.232 81.1101 328.458 80.1235 328.912 79.3101C329.378 78.4834 329.978 77.8568 330.712 77.4301C331.458 76.9901 332.245 76.7701 333.072 76.7701C333.685 76.7701 334.278 76.8835 334.852 77.1101C335.425 77.3368 335.932 77.6701 336.372 78.1101C336.812 78.5368 337.165 79.0568 337.432 79.6701C337.698 80.2701 337.838 80.9435 337.852 81.6901C337.852 81.9035 337.772 82.0835 337.612 82.2301C337.452 82.3768 337.265 82.4501 337.052 82.4501H329.152L328.792 81.0701H336.492L336.172 81.3501V80.9101C336.118 80.3635 335.932 79.8968 335.612 79.5101C335.305 79.1101 334.925 78.8035 334.472 78.5901C334.032 78.3768 333.565 78.2701 333.072 78.2701C332.672 78.2701 332.272 78.3435 331.872 78.4901C331.485 78.6235 331.132 78.8501 330.812 79.1701C330.505 79.4768 330.252 79.8768 330.052 80.3701C329.865 80.8635 329.772 81.4568 329.772 82.1501C329.772 82.9235 329.925 83.6035 330.232 84.1901C330.552 84.7768 330.992 85.2435 331.552 85.5901C332.112 85.9235 332.765 86.0901 333.512 86.0901C333.978 86.0901 334.385 86.0301 334.732 85.9101C335.078 85.7901 335.378 85.6435 335.632 85.4701C335.885 85.2835 336.098 85.0968 336.272 84.9101C336.445 84.7901 336.612 84.7301 336.772 84.7301C336.972 84.7301 337.132 84.7968 337.252 84.9301C337.385 85.0635 337.452 85.2235 337.452 85.4101C337.452 85.6368 337.345 85.8368 337.132 86.0101C336.758 86.4235 336.252 86.7901 335.612 87.1101C334.972 87.4168 334.292 87.5701 333.572 87.5701ZM348.635 76.9301C348.861 76.9301 349.048 77.0101 349.195 77.1701C349.355 77.3168 349.435 77.5035 349.435 77.7301V86.5501C349.435 86.7768 349.355 86.9701 349.195 87.1301C349.048 87.2901 348.861 87.3701 348.635 87.3701C348.395 87.3701 348.201 87.2901 348.055 87.1301C347.908 86.9701 347.835 86.7768 347.835 86.5501V84.6501L348.215 84.6101C348.215 84.9035 348.115 85.2235 347.915 85.5701C347.715 85.9168 347.441 86.2435 347.095 86.5501C346.748 86.8435 346.335 87.0901 345.855 87.2901C345.388 87.4768 344.881 87.5701 344.335 87.5701C343.428 87.5701 342.615 87.3368 341.895 86.8701C341.175 86.3901 340.601 85.7435 340.175 84.9301C339.761 84.1168 339.555 83.1901 339.555 82.1501C339.555 81.0968 339.761 80.1701 340.175 79.3701C340.601 78.5568 341.175 77.9234 341.895 77.4701C342.615 77.0034 343.415 76.7701 344.295 76.7701C344.868 76.7701 345.401 76.8634 345.895 77.0501C346.388 77.2368 346.815 77.4901 347.175 77.8101C347.548 78.1301 347.835 78.4835 348.035 78.8701C348.248 79.2568 348.355 79.6435 348.355 80.0301L347.835 79.9101V77.7301C347.835 77.5035 347.908 77.3168 348.055 77.1701C348.201 77.0101 348.395 76.9301 348.635 76.9301ZM344.515 86.0901C345.181 86.0901 345.768 85.9168 346.275 85.5701C346.795 85.2235 347.195 84.7568 347.475 84.1701C347.768 83.5701 347.915 82.8968 347.915 82.1501C347.915 81.4168 347.768 80.7568 347.475 80.1701C347.195 79.5701 346.795 79.1035 346.275 78.7701C345.768 78.4235 345.181 78.2501 344.515 78.2501C343.861 78.2501 343.275 78.4168 342.755 78.7501C342.248 79.0835 341.848 79.5435 341.555 80.1301C341.261 80.7168 341.115 81.3901 341.115 82.1501C341.115 82.8968 341.255 83.5701 341.535 84.1701C341.828 84.7568 342.228 85.2235 342.735 85.5701C343.255 85.9168 343.848 86.0901 344.515 86.0901ZM352.66 87.3501C352.38 87.3501 352.16 87.2701 352 87.1101C351.853 86.9501 351.78 86.7301 351.78 86.4501V86.0501C351.78 85.7568 351.853 85.5301 352 85.3701C352.16 85.2101 352.38 85.1301 352.66 85.1301H352.82C353.113 85.1301 353.333 85.2101 353.48 85.3701C353.627 85.5301 353.7 85.7568 353.7 86.0501V86.4501C353.7 86.7301 353.627 86.9501 353.48 87.1101C353.333 87.2701 353.113 87.3501 352.82 87.3501H352.66ZM364.562 72.5701C364.789 72.5701 364.975 72.6501 365.122 72.8101C365.282 72.9568 365.362 73.1435 365.362 73.3701V86.5501C365.362 86.7768 365.282 86.9701 365.122 87.1301C364.975 87.2901 364.789 87.3701 364.562 87.3701C364.322 87.3701 364.129 87.2901 363.982 87.1301C363.835 86.9701 363.762 86.7768 363.762 86.5501V84.6501L364.142 84.5101C364.142 84.8301 364.042 85.1701 363.842 85.5301C363.642 85.8768 363.369 86.2035 363.022 86.5101C362.675 86.8168 362.262 87.0701 361.782 87.2701C361.315 87.4701 360.809 87.5701 360.262 87.5701C359.369 87.5701 358.555 87.3368 357.822 86.8701C357.102 86.4035 356.529 85.7635 356.102 84.9501C355.689 84.1368 355.482 83.2101 355.482 82.1701C355.482 81.1168 355.689 80.1835 356.102 79.3701C356.529 78.5568 357.102 77.9234 357.822 77.4701C358.542 77.0034 359.342 76.7701 360.222 76.7701C360.782 76.7701 361.309 76.8634 361.802 77.0501C362.295 77.2368 362.722 77.4901 363.082 77.8101C363.455 78.1301 363.749 78.4835 363.962 78.8701C364.175 79.2568 364.282 79.6435 364.282 80.0301L363.762 79.9101V73.3701C363.762 73.1435 363.835 72.9568 363.982 72.8101C364.129 72.6501 364.322 72.5701 364.562 72.5701ZM360.442 86.0901C361.109 86.0901 361.695 85.9235 362.202 85.5901C362.722 85.2435 363.122 84.7768 363.402 84.1901C363.695 83.5901 363.842 82.9168 363.842 82.1701C363.842 81.4101 363.695 80.7368 363.402 80.1501C363.122 79.5634 362.722 79.1035 362.202 78.7701C361.695 78.4235 361.109 78.2501 360.442 78.2501C359.789 78.2501 359.202 78.4235 358.682 78.7701C358.175 79.1035 357.775 79.5634 357.482 80.1501C357.189 80.7368 357.042 81.4101 357.042 82.1701C357.042 82.9035 357.189 83.5701 357.482 84.1701C357.775 84.7568 358.175 85.2235 358.682 85.5701C359.202 85.9168 359.789 86.0901 360.442 86.0901ZM369.067 87.3701C368.827 87.3701 368.634 87.2901 368.487 87.1301C368.34 86.9701 368.267 86.7768 368.267 86.5501V73.3701C368.267 73.1435 368.34 72.9568 368.487 72.8101C368.634 72.6501 368.827 72.5701 369.067 72.5701C369.294 72.5701 369.48 72.6501 369.627 72.8101C369.787 72.9568 369.867 73.1435 369.867 73.3701V86.5501C369.867 86.7768 369.787 86.9701 369.627 87.1301C369.48 87.2901 369.294 87.3701 369.067 87.3701ZM375.707 76.9701C375.92 76.9701 376.1 77.0568 376.247 77.2301C376.407 77.3901 376.487 77.5568 376.487 77.7301C376.487 77.9568 376.38 78.1568 376.167 78.3301L369.687 83.9901L369.627 82.1301L375.147 77.2101C375.307 77.0501 375.494 76.9701 375.707 76.9701ZM375.927 87.3501C375.7 87.3501 375.5 87.2635 375.327 87.0901L371.067 82.5501L372.267 81.4501L376.487 85.9701C376.647 86.1435 376.727 86.3435 376.727 86.5701C376.727 86.8101 376.634 87.0035 376.447 87.1501C376.26 87.2835 376.087 87.3501 375.927 87.3501Z" fill="white"/>
</svg>
