<svg width="1728" height="131" viewBox="0 0 1728 131" fill="none" xmlns="http://www.w3.org/2000/svg">
<rect width="1734" height="132" rx="6" fill="#4F5057"/>
<circle cx="904" cy="120" r="4" fill="#F7FF85"/>
<circle cx="721" cy="104" r="4" fill="#F7FF85"/>
<circle cx="1304" cy="55" r="3" fill="#F7FF85"/>
<circle cx="1427" cy="86" r="3" fill="#F7FF85"/>
<circle cx="1667" cy="80" r="3" fill="#F7FF85"/>
<circle cx="1615" cy="96" r="4" fill="#F7FF85"/>
<circle cx="799" cy="107" r="3" fill="#F7FF85"/>
<circle cx="399" cy="31" r="3" fill="#F7FF85"/>
<circle cx="1289" cy="35" r="3" fill="#F7FF85"/>
<circle cx="1499" cy="46" r="3" fill="#F7FF85"/>
<circle cx="1509" cy="98" r="3" fill="#F7FF85"/>
<circle cx="160" cy="45" r="3" fill="#F7FF85"/>
<circle cx="725" cy="20" r="3" fill="#F7FF85"/>
<circle cx="471" cy="41" r="3" fill="#F7FF85"/>
<circle cx="632" cy="113" r="3" fill="#F7FF85"/>
<circle cx="565" cy="60" r="3" fill="#F7FF85"/>
<circle cx="1165" cy="112" r="3" fill="#F7FF85"/>
<circle cx="988" cy="32" r="3" fill="#F7FF85"/>
<circle cx="1065" cy="35" r="3" fill="#F7FF85"/>
<circle cx="1388" cy="40" r="3" fill="#F7FF85"/>
<circle cx="334" cy="106" r="3" fill="#F7FF85"/>
<circle cx="171" cy="109" r="3" fill="#F7FF85"/>
<circle cx="63" cy="31" r="3" fill="#F7FF85"/>
<circle cx="842" cy="32" r="3" fill="#F7FF85"/>
<circle cx="1088" cy="86" r="3" fill="#F7FF85"/>
<ellipse cx="337.5" cy="45" rx="2.5" ry="2" fill="#F7FF85"/>
<circle cx="554" cy="104" r="3" fill="#F7FF85"/>
<circle cx="1044" cy="106" r="3" fill="#F7FF85"/>
<circle cx="73" cy="106" r="4" fill="#F7FF85"/>
<circle cx="1188" cy="44" r="4" fill="#F7FF85"/>
<circle cx="1460" cy="117" r="4" fill="#F7FF85"/>
<circle cx="1607" cy="57" r="4" fill="#F7FF85"/>
<circle cx="1326" cy="103" r="4" fill="#F7FF85"/>
<circle cx="1221" cy="87" r="4" fill="#F7FF85"/>
<circle cx="292" cy="70" r="4" fill="#F7FF85"/>
<circle cx="496" cy="74" r="4" fill="#F7FF85"/>
<circle cx="378" cy="80" r="4" fill="#F7FF85"/>
<circle cx="20" cy="82" r="4" fill="#F7FF85"/>
<circle cx="1669" cy="31" r="4" fill="#F7FF85"/>
<circle cx="1144" cy="45" r="4" fill="#F7FF85"/>
<circle cx="1283" cy="67" r="3" fill="#F7FF85"/>
<path d="M670.296 80.056C669.96 80.056 669.68 79.916 669.456 79.636L662.008 70.144L663.716 68.408L671.304 78.124C671.472 78.3667 671.556 78.6187 671.556 78.88C671.556 79.2533 671.416 79.5427 671.136 79.748C670.875 79.9533 670.595 80.056 670.296 80.056ZM670.212 60.372C670.511 60.372 670.753 60.4933 670.94 60.736C671.145 60.9787 671.248 61.2307 671.248 61.492C671.248 61.7533 671.136 61.996 670.912 62.22L658.536 73.924L658.34 71.32L669.316 60.792C669.596 60.512 669.895 60.372 670.212 60.372ZM657.612 80C657.257 80 656.977 79.888 656.772 79.664C656.567 79.44 656.464 79.1693 656.464 78.852V61.548C656.464 61.212 656.576 60.9413 656.8 60.736C657.024 60.512 657.304 60.4 657.64 60.4C657.995 60.4 658.275 60.512 658.48 60.736C658.685 60.9413 658.788 61.212 658.788 61.548V78.852C658.788 79.1693 658.676 79.44 658.452 79.664C658.247 79.888 657.967 80 657.612 80ZM687.641 72.72C687.641 74.176 687.314 75.4733 686.661 76.612C686.026 77.7507 685.158 78.6467 684.057 79.3C682.974 79.9533 681.752 80.28 680.389 80.28C679.026 80.28 677.794 79.9533 676.693 79.3C675.592 78.6467 674.714 77.7507 674.061 76.612C673.426 75.4733 673.109 74.176 673.109 72.72C673.109 71.264 673.426 69.9667 674.061 68.828C674.714 67.6893 675.592 66.7933 676.693 66.14C677.794 65.4867 679.026 65.16 680.389 65.16C681.752 65.16 682.974 65.4867 684.057 66.14C685.158 66.7933 686.026 67.6893 686.661 68.828C687.314 69.9667 687.641 71.264 687.641 72.72ZM685.401 72.72C685.401 71.6373 685.177 70.6853 684.729 69.864C684.3 69.0427 683.702 68.3987 682.937 67.932C682.19 67.4653 681.341 67.232 680.389 67.232C679.437 67.232 678.578 67.4653 677.813 67.932C677.066 68.3987 676.469 69.0427 676.021 69.864C675.573 70.6853 675.349 71.6373 675.349 72.72C675.349 73.784 675.573 74.7267 676.021 75.548C676.469 76.3693 677.066 77.0227 677.813 77.508C678.578 77.9747 679.437 78.208 680.389 78.208C681.341 78.208 682.19 77.9747 682.937 77.508C683.702 77.0227 684.3 76.3693 684.729 75.548C685.177 74.7267 685.401 73.784 685.401 72.72ZM697.898 65.16C699.167 65.16 700.166 65.4213 700.894 65.944C701.622 66.4667 702.135 67.1667 702.434 68.044C702.751 68.9213 702.91 69.9013 702.91 70.984V78.852C702.91 79.1693 702.798 79.44 702.574 79.664C702.369 79.888 702.107 80 701.79 80C701.473 80 701.202 79.888 700.978 79.664C700.773 79.44 700.67 79.1693 700.67 78.852V71.04C700.67 70.3307 700.558 69.696 700.334 69.136C700.129 68.5573 699.774 68.1 699.27 67.764C698.785 67.4093 698.113 67.232 697.254 67.232C696.47 67.232 695.751 67.4093 695.098 67.764C694.445 68.1 693.922 68.5573 693.53 69.136C693.138 69.696 692.942 70.3307 692.942 71.04V78.852C692.942 79.1693 692.83 79.44 692.606 79.664C692.401 79.888 692.139 80 691.822 80C691.505 80 691.234 79.888 691.01 79.664C690.805 79.44 690.702 79.1693 690.702 78.852V66.644C690.702 66.3267 690.805 66.0653 691.01 65.86C691.234 65.636 691.505 65.524 691.822 65.524C692.158 65.524 692.429 65.636 692.634 65.86C692.839 66.0653 692.942 66.3267 692.942 66.644V68.632L692.382 69.248C692.475 68.7627 692.69 68.2773 693.026 67.792C693.362 67.288 693.782 66.84 694.286 66.448C694.79 66.056 695.35 65.748 695.966 65.524C696.582 65.2813 697.226 65.16 697.898 65.16ZM706.186 65.608H712.766C713.064 65.608 713.307 65.7107 713.494 65.916C713.699 66.1213 713.802 66.364 713.802 66.644C713.802 66.9427 713.699 67.1947 713.494 67.4C713.307 67.5867 713.064 67.68 712.766 67.68H706.186C705.906 67.68 705.663 67.5773 705.458 67.372C705.252 67.1667 705.15 66.9147 705.15 66.616C705.15 66.336 705.252 66.1027 705.458 65.916C705.663 65.7107 705.906 65.608 706.186 65.608ZM709.126 61.8C709.443 61.8 709.704 61.912 709.91 62.136C710.115 62.3413 710.218 62.6027 710.218 62.92V76.444C710.218 76.892 710.283 77.228 710.414 77.452C710.544 77.676 710.712 77.8347 710.918 77.928C711.142 78.0027 711.356 78.04 711.562 78.04C711.748 78.04 711.907 78.012 712.038 77.956C712.187 77.8813 712.355 77.844 712.542 77.844C712.728 77.844 712.896 77.9373 713.046 78.124C713.214 78.292 713.298 78.516 713.298 78.796C713.298 79.132 713.102 79.4213 712.71 79.664C712.318 79.888 711.879 80 711.394 80C711.132 80 710.806 79.9813 710.414 79.944C710.04 79.9067 709.667 79.7853 709.294 79.58C708.92 79.3747 708.603 79.0387 708.342 78.572C708.099 78.0867 707.978 77.4147 707.978 76.556V62.92C707.978 62.6027 708.09 62.3413 708.314 62.136C708.538 61.912 708.808 61.8 709.126 61.8ZM728.538 65.384C728.855 65.384 729.116 65.496 729.322 65.72C729.546 65.9253 729.658 66.1867 729.658 66.504V78.852C729.658 79.1693 729.546 79.44 729.322 79.664C729.116 79.888 728.855 80 728.538 80C728.202 80 727.931 79.888 727.726 79.664C727.52 79.44 727.418 79.1693 727.418 78.852V76.192L727.95 76.136C727.95 76.5467 727.81 76.9947 727.53 77.48C727.25 77.9653 726.867 78.4227 726.382 78.852C725.896 79.2627 725.318 79.608 724.646 79.888C723.992 80.1493 723.283 80.28 722.518 80.28C721.248 80.28 720.11 79.9533 719.102 79.3C718.094 78.628 717.291 77.7227 716.694 76.584C716.115 75.4453 715.826 74.148 715.826 72.692C715.826 71.2173 716.115 69.92 716.694 68.8C717.291 67.6613 718.094 66.7747 719.102 66.14C720.11 65.4867 721.23 65.16 722.462 65.16C723.264 65.16 724.011 65.2907 724.702 65.552C725.392 65.8133 725.99 66.168 726.494 66.616C727.016 67.064 727.418 67.5587 727.698 68.1C727.996 68.6413 728.146 69.1827 728.146 69.724L727.418 69.556V66.504C727.418 66.1867 727.52 65.9253 727.726 65.72C727.931 65.496 728.202 65.384 728.538 65.384ZM722.77 78.208C723.703 78.208 724.524 77.9653 725.234 77.48C725.962 76.9947 726.522 76.3413 726.914 75.52C727.324 74.68 727.53 73.7373 727.53 72.692C727.53 71.6653 727.324 70.7413 726.914 69.92C726.522 69.08 725.962 68.4267 725.234 67.96C724.524 67.4747 723.703 67.232 722.77 67.232C721.855 67.232 721.034 67.4653 720.306 67.932C719.596 68.3987 719.036 69.0427 718.626 69.864C718.215 70.6853 718.01 71.628 718.01 72.692C718.01 73.7373 718.206 74.68 718.598 75.52C719.008 76.3413 719.568 76.9947 720.278 77.48C721.006 77.9653 721.836 78.208 722.77 78.208ZM734.845 80C734.509 80 734.238 79.888 734.033 79.664C733.827 79.44 733.725 79.1693 733.725 78.852V60.4C733.725 60.0827 733.827 59.8213 734.033 59.616C734.238 59.392 734.509 59.28 734.845 59.28C735.162 59.28 735.423 59.392 735.629 59.616C735.853 59.8213 735.965 60.0827 735.965 60.4V78.852C735.965 79.1693 735.853 79.44 735.629 79.664C735.423 79.888 735.162 80 734.845 80ZM744.141 65.44C744.439 65.44 744.691 65.5613 744.897 65.804C745.121 66.028 745.233 66.2613 745.233 66.504C745.233 66.8213 745.083 67.1013 744.785 67.344L735.713 75.268L735.629 72.664L743.357 65.776C743.581 65.552 743.842 65.44 744.141 65.44ZM744.449 79.972C744.131 79.972 743.851 79.8507 743.609 79.608L737.645 73.252L739.325 71.712L745.233 78.04C745.457 78.2827 745.569 78.5627 745.569 78.88C745.569 79.216 745.438 79.4867 745.177 79.692C744.915 79.8787 744.673 79.972 744.449 79.972ZM747.945 65.608H754.525C754.824 65.608 755.067 65.7107 755.253 65.916C755.459 66.1213 755.561 66.364 755.561 66.644C755.561 66.9427 755.459 67.1947 755.253 67.4C755.067 67.5867 754.824 67.68 754.525 67.68H747.945C747.665 67.68 747.423 67.5773 747.217 67.372C747.012 67.1667 746.909 66.9147 746.909 66.616C746.909 66.336 747.012 66.1027 747.217 65.916C747.423 65.7107 747.665 65.608 747.945 65.608ZM750.885 61.8C751.203 61.8 751.464 61.912 751.669 62.136C751.875 62.3413 751.977 62.6027 751.977 62.92V76.444C751.977 76.892 752.043 77.228 752.173 77.452C752.304 77.676 752.472 77.8347 752.677 77.928C752.901 78.0027 753.116 78.04 753.321 78.04C753.508 78.04 753.667 78.012 753.797 77.956C753.947 77.8813 754.115 77.844 754.301 77.844C754.488 77.844 754.656 77.9373 754.805 78.124C754.973 78.292 755.057 78.516 755.057 78.796C755.057 79.132 754.861 79.4213 754.469 79.664C754.077 79.888 753.639 80 753.153 80C752.892 80 752.565 79.9813 752.173 79.944C751.8 79.9067 751.427 79.7853 751.053 79.58C750.68 79.3747 750.363 79.0387 750.101 78.572C749.859 78.0867 749.737 77.4147 749.737 76.556V62.92C749.737 62.6027 749.849 62.3413 750.073 62.136C750.297 61.912 750.568 61.8 750.885 61.8ZM759.209 68.576C758.817 68.576 758.509 68.464 758.285 68.24C758.08 67.9973 757.977 67.68 757.977 67.288V66.728C757.977 66.336 758.08 66.028 758.285 65.804C758.509 65.58 758.817 65.468 759.209 65.468H759.433C759.844 65.468 760.152 65.58 760.357 65.804C760.562 66.028 760.665 66.336 760.665 66.728V67.288C760.665 67.68 760.562 67.9973 760.357 68.24C760.152 68.464 759.844 68.576 759.433 68.576H759.209ZM759.209 80C758.817 80 758.509 79.888 758.285 79.664C758.08 79.4213 757.977 79.104 757.977 78.712V78.152C757.977 77.76 758.08 77.452 758.285 77.228C758.509 77.004 758.817 76.892 759.209 76.892H759.433C759.844 76.892 760.152 77.004 760.357 77.228C760.562 77.452 760.665 77.76 760.665 78.152V78.712C760.665 79.104 760.562 79.4213 760.357 79.664C760.152 79.888 759.844 80 759.433 80H759.209ZM778.423 65.3C779.692 65.3 780.719 65.6267 781.503 66.28C782.306 66.9147 782.838 67.82 783.099 68.996H782.679L782.875 68.492C783.099 67.9693 783.482 67.4653 784.023 66.98C784.564 66.4947 785.19 66.0933 785.899 65.776C786.608 65.4587 787.346 65.3 788.111 65.3C789.343 65.3 790.314 65.5707 791.023 66.112C791.732 66.6347 792.236 67.344 792.535 68.24C792.852 69.1173 793.011 70.1067 793.011 71.208V78.852C793.011 79.1693 792.899 79.44 792.675 79.664C792.47 79.888 792.208 80 791.891 80C791.555 80 791.284 79.888 791.079 79.664C790.874 79.44 790.771 79.1693 790.771 78.852V71.264C790.771 70.536 790.659 69.8827 790.435 69.304C790.23 68.7067 789.884 68.24 789.399 67.904C788.932 67.5493 788.288 67.372 787.467 67.372C786.702 67.372 786.002 67.5493 785.367 67.904C784.732 68.24 784.228 68.7067 783.855 69.304C783.482 69.8827 783.295 70.536 783.295 71.264V78.852C783.295 79.1693 783.192 79.44 782.987 79.664C782.782 79.888 782.511 80 782.175 80C781.858 80 781.587 79.888 781.363 79.664C781.158 79.44 781.055 79.1693 781.055 78.852V71.18C781.055 70.4707 780.952 69.836 780.747 69.276C780.56 68.6973 780.234 68.24 779.767 67.904C779.3 67.5493 778.656 67.372 777.835 67.372C777.088 67.372 776.407 67.5493 775.791 67.904C775.175 68.24 774.68 68.6973 774.307 69.276C773.934 69.836 773.747 70.4707 773.747 71.18V78.852C773.747 79.1693 773.635 79.44 773.411 79.664C773.206 79.888 772.944 80 772.627 80C772.31 80 772.039 79.888 771.815 79.664C771.61 79.44 771.507 79.1693 771.507 78.852V66.644C771.507 66.3267 771.61 66.0653 771.815 65.86C772.039 65.636 772.31 65.524 772.627 65.524C772.963 65.524 773.234 65.636 773.439 65.86C773.644 66.0653 773.747 66.3267 773.747 66.644V68.772L773.131 69.444C773.206 68.9587 773.392 68.4733 773.691 67.988C774.008 67.5027 774.41 67.0547 774.895 66.644C775.38 66.2333 775.922 65.9067 776.519 65.664C777.116 65.4213 777.751 65.3 778.423 65.3ZM799.003 78.852C799.003 79.1693 798.891 79.44 798.667 79.664C798.462 79.888 798.201 80 797.883 80C797.547 80 797.277 79.888 797.071 79.664C796.866 79.44 796.763 79.1693 796.763 78.852V66.42C796.763 66.1027 796.866 65.8413 797.071 65.636C797.295 65.412 797.566 65.3 797.883 65.3C798.201 65.3 798.462 65.412 798.667 65.636C798.891 65.8413 799.003 66.1027 799.003 66.42V78.852ZM797.883 63.424C797.417 63.424 797.071 63.3307 796.847 63.144C796.623 62.9573 796.511 62.668 796.511 62.276V61.884C796.511 61.492 796.633 61.2027 796.875 61.016C797.118 60.8293 797.463 60.736 797.911 60.736C798.359 60.736 798.695 60.8293 798.919 61.016C799.143 61.2027 799.255 61.492 799.255 61.884V62.276C799.255 62.668 799.134 62.9573 798.891 63.144C798.667 63.3307 798.331 63.424 797.883 63.424ZM809.635 65.3C810.904 65.3 811.931 65.6267 812.715 66.28C813.518 66.9147 814.05 67.82 814.311 68.996H813.891L814.087 68.492C814.311 67.9693 814.694 67.4653 815.235 66.98C815.776 66.4947 816.402 66.0933 817.111 65.776C817.82 65.4587 818.558 65.3 819.323 65.3C820.555 65.3 821.526 65.5707 822.235 66.112C822.944 66.6347 823.448 67.344 823.747 68.24C824.064 69.1173 824.223 70.1067 824.223 71.208V78.852C824.223 79.1693 824.111 79.44 823.887 79.664C823.682 79.888 823.42 80 823.103 80C822.767 80 822.496 79.888 822.291 79.664C822.086 79.44 821.983 79.1693 821.983 78.852V71.264C821.983 70.536 821.871 69.8827 821.647 69.304C821.442 68.7067 821.096 68.24 820.611 67.904C820.144 67.5493 819.5 67.372 818.679 67.372C817.914 67.372 817.214 67.5493 816.579 67.904C815.944 68.24 815.44 68.7067 815.067 69.304C814.694 69.8827 814.507 70.536 814.507 71.264V78.852C814.507 79.1693 814.404 79.44 814.199 79.664C813.994 79.888 813.723 80 813.387 80C813.07 80 812.799 79.888 812.575 79.664C812.37 79.44 812.267 79.1693 812.267 78.852V71.18C812.267 70.4707 812.164 69.836 811.959 69.276C811.772 68.6973 811.446 68.24 810.979 67.904C810.512 67.5493 809.868 67.372 809.047 67.372C808.3 67.372 807.619 67.5493 807.003 67.904C806.387 68.24 805.892 68.6973 805.519 69.276C805.146 69.836 804.959 70.4707 804.959 71.18V78.852C804.959 79.1693 804.847 79.44 804.623 79.664C804.418 79.888 804.156 80 803.839 80C803.522 80 803.251 79.888 803.027 79.664C802.822 79.44 802.719 79.1693 802.719 78.852V66.644C802.719 66.3267 802.822 66.0653 803.027 65.86C803.251 65.636 803.522 65.524 803.839 65.524C804.175 65.524 804.446 65.636 804.651 65.86C804.856 66.0653 804.959 66.3267 804.959 66.644V68.772L804.343 69.444C804.418 68.9587 804.604 68.4733 804.903 67.988C805.22 67.5027 805.622 67.0547 806.107 66.644C806.592 66.2333 807.134 65.9067 807.731 65.664C808.328 65.4213 808.963 65.3 809.635 65.3ZM830.216 78.852C830.216 79.1693 830.104 79.44 829.88 79.664C829.674 79.888 829.413 80 829.096 80C828.76 80 828.489 79.888 828.284 79.664C828.078 79.44 827.976 79.1693 827.976 78.852V66.42C827.976 66.1027 828.078 65.8413 828.284 65.636C828.508 65.412 828.778 65.3 829.096 65.3C829.413 65.3 829.674 65.412 829.88 65.636C830.104 65.8413 830.216 66.1027 830.216 66.42V78.852ZM829.096 63.424C828.629 63.424 828.284 63.3307 828.06 63.144C827.836 62.9573 827.724 62.668 827.724 62.276V61.884C827.724 61.492 827.845 61.2027 828.088 61.016C828.33 60.8293 828.676 60.736 829.124 60.736C829.572 60.736 829.908 60.8293 830.132 61.016C830.356 61.2027 830.468 61.492 830.468 61.884V62.276C830.468 62.668 830.346 62.9573 830.104 63.144C829.88 63.3307 829.544 63.424 829.096 63.424ZM840.287 80.28C838.738 80.28 837.441 79.8413 836.395 78.964C835.369 78.0867 834.585 76.8827 834.043 75.352C833.521 73.8213 833.259 72.104 833.259 70.2C833.259 68.2587 833.521 66.532 834.043 65.02C834.585 63.508 835.369 62.3133 836.395 61.436C837.441 60.5587 838.738 60.12 840.287 60.12C841.837 60.12 843.125 60.5587 844.151 61.436C845.197 62.3133 845.981 63.508 846.503 65.02C847.026 66.532 847.287 68.2587 847.287 70.2C847.287 72.104 847.026 73.8213 846.503 75.352C845.981 76.8827 845.197 78.0867 844.151 78.964C843.125 79.8413 841.837 80.28 840.287 80.28ZM840.287 78.012C841.277 78.012 842.107 77.6947 842.779 77.06C843.47 76.4253 843.993 75.5293 844.347 74.372C844.702 73.196 844.879 71.8053 844.879 70.2C844.879 68.576 844.702 67.1853 844.347 66.028C843.993 64.852 843.47 63.956 842.779 63.34C842.107 62.7053 841.277 62.388 840.287 62.388C839.298 62.388 838.458 62.7053 837.767 63.34C837.095 63.956 836.573 64.852 836.199 66.028C835.845 67.1853 835.667 68.576 835.667 70.2C835.667 71.8053 835.845 73.196 836.199 74.372C836.573 75.5293 837.095 76.4253 837.767 77.06C838.458 77.6947 839.298 78.012 840.287 78.012ZM856.796 80.28C855.246 80.28 853.949 79.8413 852.904 78.964C851.877 78.0867 851.093 76.8827 850.552 75.352C850.029 73.8213 849.768 72.104 849.768 70.2C849.768 68.2587 850.029 66.532 850.552 65.02C851.093 63.508 851.877 62.3133 852.904 61.436C853.949 60.5587 855.246 60.12 856.796 60.12C858.345 60.12 859.633 60.5587 860.66 61.436C861.705 62.3133 862.489 63.508 863.012 65.02C863.534 66.532 863.796 68.2587 863.796 70.2C863.796 72.104 863.534 73.8213 863.012 75.352C862.489 76.8827 861.705 78.0867 860.66 78.964C859.633 79.8413 858.345 80.28 856.796 80.28ZM856.796 78.012C857.785 78.012 858.616 77.6947 859.288 77.06C859.978 76.4253 860.501 75.5293 860.856 74.372C861.21 73.196 861.388 71.8053 861.388 70.2C861.388 68.576 861.21 67.1853 860.856 66.028C860.501 64.852 859.978 63.956 859.288 63.34C858.616 62.7053 857.785 62.388 856.796 62.388C855.806 62.388 854.966 62.7053 854.276 63.34C853.604 63.956 853.081 64.852 852.708 66.028C852.353 67.1853 852.176 68.576 852.176 70.2C852.176 71.8053 852.353 73.196 852.708 74.372C853.081 75.5293 853.604 76.4253 854.276 77.06C854.966 77.6947 855.806 78.012 856.796 78.012ZM873.304 80.28C871.755 80.28 870.457 79.8413 869.412 78.964C868.385 78.0867 867.601 76.8827 867.06 75.352C866.537 73.8213 866.276 72.104 866.276 70.2C866.276 68.2587 866.537 66.532 867.06 65.02C867.601 63.508 868.385 62.3133 869.412 61.436C870.457 60.5587 871.755 60.12 873.304 60.12C874.853 60.12 876.141 60.5587 877.168 61.436C878.213 62.3133 878.997 63.508 879.52 65.02C880.043 66.532 880.304 68.2587 880.304 70.2C880.304 72.104 880.043 73.8213 879.52 75.352C878.997 76.8827 878.213 78.0867 877.168 78.964C876.141 79.8413 874.853 80.28 873.304 80.28ZM873.304 78.012C874.293 78.012 875.124 77.6947 875.796 77.06C876.487 76.4253 877.009 75.5293 877.364 74.372C877.719 73.196 877.896 71.8053 877.896 70.2C877.896 68.576 877.719 67.1853 877.364 66.028C877.009 64.852 876.487 63.956 875.796 63.34C875.124 62.7053 874.293 62.388 873.304 62.388C872.315 62.388 871.475 62.7053 870.784 63.34C870.112 63.956 869.589 64.852 869.216 66.028C868.861 67.1853 868.684 68.576 868.684 70.2C868.684 71.8053 868.861 73.196 869.216 74.372C869.589 75.5293 870.112 76.4253 870.784 77.06C871.475 77.6947 872.315 78.012 873.304 78.012ZM884.101 76.752C884.213 76.752 884.334 76.78 884.465 76.836C884.614 76.8733 884.773 76.9667 884.941 77.116C885.314 77.452 885.753 77.7227 886.257 77.928C886.761 78.1333 887.339 78.236 887.993 78.236C888.795 78.236 889.533 78.0587 890.205 77.704C890.877 77.3307 891.418 76.808 891.829 76.136C892.258 75.464 892.473 74.6893 892.473 73.812C892.473 72.86 892.258 72.0853 891.829 71.488C891.418 70.872 890.886 70.424 890.233 70.144C889.598 69.8453 888.926 69.696 888.217 69.696C887.955 69.696 887.713 69.7147 887.489 69.752C887.265 69.7893 887.05 69.836 886.845 69.892C886.658 69.948 886.481 69.976 886.313 69.976C886.014 69.976 885.781 69.8733 885.613 69.668C885.445 69.4627 885.361 69.2107 885.361 68.912C885.361 68.744 885.389 68.5947 885.445 68.464C885.519 68.3147 885.631 68.156 885.781 67.988L891.213 62.108L891.661 62.64H883.709C883.41 62.64 883.158 62.5373 882.953 62.332C882.747 62.1267 882.645 61.8747 882.645 61.576C882.645 61.2773 882.747 61.0347 882.953 60.848C883.158 60.6427 883.41 60.54 883.709 60.54H892.837C893.247 60.54 893.546 60.6613 893.733 60.904C893.919 61.128 894.013 61.38 894.013 61.66C894.013 61.828 893.966 61.9867 893.873 62.136C893.798 62.2853 893.695 62.4253 893.565 62.556L888.133 68.464L887.489 67.904C887.582 67.8293 887.797 67.764 888.133 67.708C888.469 67.6333 888.749 67.596 888.973 67.596C890.018 67.596 890.979 67.848 891.857 68.352C892.734 68.856 893.434 69.5653 893.957 70.48C894.479 71.3947 894.741 72.4587 894.741 73.672C894.741 75.016 894.433 76.1827 893.817 77.172C893.201 78.1613 892.351 78.9267 891.269 79.468C890.205 80.0093 889.001 80.28 887.657 80.28C886.91 80.28 886.173 80.168 885.445 79.944C884.735 79.7013 884.119 79.356 883.597 78.908C883.354 78.7773 883.186 78.628 883.093 78.46C883.018 78.292 882.981 78.124 882.981 77.956C882.981 77.676 883.083 77.4053 883.289 77.144C883.513 76.8827 883.783 76.752 884.101 76.752ZM914.881 78.46C914.284 78.46 913.752 78.3387 913.285 78.096C912.819 77.8347 912.464 77.48 912.221 77.032C911.997 76.584 911.932 76.0707 912.025 75.492L912.249 73.784L912.641 74.12C912.305 75.128 911.839 75.9587 911.241 76.612C910.644 77.2467 909.991 77.7133 909.281 78.012C908.591 78.3107 907.891 78.46 907.181 78.46C906.416 78.46 905.716 78.264 905.081 77.872C904.465 77.4613 903.971 76.9107 903.597 76.22C903.224 75.5107 903.037 74.7173 903.037 73.84C903.037 72.9627 903.205 72.0573 903.541 71.124C903.896 70.172 904.372 69.2853 904.969 68.464C905.585 67.6427 906.295 66.98 907.097 66.476C907.919 65.972 908.805 65.72 909.757 65.72C910.784 65.72 911.624 66.0467 912.277 66.7C912.949 67.3533 913.341 68.184 913.453 69.192L912.837 70.732L913.453 66.784C913.491 66.5413 913.593 66.336 913.761 66.168C913.929 65.9813 914.191 65.888 914.545 65.888C914.975 65.888 915.264 65.9907 915.413 66.196C915.563 66.4013 915.6 66.7093 915.525 67.12L914.265 75.072C914.172 75.7067 914.256 76.164 914.517 76.444C914.797 76.724 915.115 76.864 915.469 76.864C916.104 76.864 916.701 76.6307 917.261 76.164C917.821 75.6973 918.307 75.0907 918.717 74.344C919.147 73.5787 919.483 72.72 919.725 71.768C919.968 70.816 920.089 69.864 920.089 68.912C920.089 67.4933 919.753 66.252 919.081 65.188C918.428 64.1053 917.495 63.2653 916.281 62.668C915.068 62.052 913.64 61.744 911.997 61.744C910.131 61.744 908.385 62.024 906.761 62.584C905.156 63.144 903.747 63.9653 902.533 65.048C901.32 66.112 900.368 67.4187 899.677 68.968C899.005 70.4987 898.669 72.2533 898.669 74.232C898.669 75.296 898.837 76.3507 899.173 77.396C899.509 78.4227 900.023 79.3467 900.713 80.168C901.423 81.008 902.328 81.6707 903.429 82.156C904.549 82.66 905.893 82.912 907.461 82.912C908.488 82.912 909.365 82.8373 910.093 82.688C910.821 82.5387 911.465 82.3333 912.025 82.072C912.604 81.8107 913.183 81.54 913.761 81.26C913.967 81.148 914.163 81.12 914.349 81.176C914.536 81.232 914.676 81.3813 914.769 81.624C914.956 82.072 914.751 82.4453 914.153 82.744C913.351 83.136 912.427 83.528 911.381 83.92C910.336 84.3307 909.029 84.536 907.461 84.536C905.576 84.536 903.971 84.2373 902.645 83.64C901.32 83.0613 900.237 82.2773 899.397 81.288C898.576 80.2987 897.969 79.1973 897.577 77.984C897.185 76.752 896.989 75.5013 896.989 74.232C896.989 72.048 897.372 70.088 898.137 68.352C898.921 66.616 899.995 65.132 901.357 63.9C902.739 62.668 904.335 61.7347 906.145 61.1C907.956 60.4467 909.907 60.12 911.997 60.12C914.125 60.12 915.917 60.5213 917.373 61.324C918.829 62.108 919.921 63.172 920.649 64.516C921.396 65.8413 921.769 67.3067 921.769 68.912C921.769 70.0507 921.601 71.1893 921.265 72.328C920.948 73.448 920.481 74.4747 919.865 75.408C919.249 76.3227 918.521 77.06 917.681 77.62C916.841 78.18 915.908 78.46 914.881 78.46ZM907.629 76.668C908.227 76.668 908.805 76.5187 909.365 76.22C909.944 75.9027 910.467 75.492 910.933 74.988C911.4 74.484 911.773 73.9333 912.053 73.336C912.352 72.72 912.52 72.1133 912.557 71.516C912.763 70.62 912.763 69.8733 912.557 69.276C912.371 68.6787 912.035 68.24 911.549 67.96C911.064 67.6613 910.495 67.512 909.841 67.512C909.132 67.512 908.488 67.7173 907.909 68.128C907.331 68.52 906.836 69.0333 906.425 69.668C906.033 70.3027 905.725 70.984 905.501 71.712C905.296 72.44 905.193 73.1307 905.193 73.784C905.193 74.6987 905.427 75.408 905.893 75.912C906.379 76.416 906.957 76.668 907.629 76.668ZM923.974 77.704C923.806 77.4613 923.731 77.2093 923.75 76.948C923.768 76.668 923.927 76.4253 924.226 76.22C924.412 76.0893 924.627 76.0333 924.87 76.052C925.131 76.0707 925.364 76.192 925.57 76.416C926.092 77.032 926.69 77.5267 927.362 77.9C928.034 78.2547 928.855 78.432 929.826 78.432C930.274 78.4133 930.722 78.3387 931.17 78.208C931.618 78.0773 931.991 77.8533 932.29 77.536C932.607 77.2 932.766 76.7613 932.766 76.22C932.766 75.6973 932.607 75.2867 932.29 74.988C931.972 74.6707 931.562 74.4187 931.058 74.232C930.554 74.0267 930.003 73.8493 929.406 73.7C928.79 73.532 928.183 73.3453 927.586 73.14C926.988 72.916 926.447 72.6453 925.962 72.328C925.495 71.992 925.112 71.5813 924.814 71.096C924.534 70.592 924.394 69.9853 924.394 69.276C924.394 68.436 924.618 67.708 925.066 67.092C925.532 66.476 926.148 66 926.914 65.664C927.698 65.328 928.547 65.16 929.462 65.16C929.984 65.16 930.526 65.2253 931.086 65.356C931.664 65.468 932.224 65.6733 932.766 65.972C933.307 66.252 933.783 66.644 934.194 67.148C934.362 67.3347 934.455 67.568 934.474 67.848C934.492 68.128 934.371 68.38 934.11 68.604C933.904 68.7533 933.671 68.8187 933.41 68.8C933.167 68.7813 932.962 68.688 932.794 68.52C932.402 68.0533 931.907 67.6987 931.31 67.456C930.731 67.1947 930.087 67.064 929.378 67.064C928.93 67.064 928.491 67.1293 928.062 67.26C927.632 67.3907 927.268 67.6147 926.97 67.932C926.69 68.2307 926.55 68.6507 926.55 69.192C926.568 69.696 926.736 70.1067 927.054 70.424C927.371 70.7413 927.8 71.0027 928.342 71.208C928.883 71.3947 929.48 71.5813 930.134 71.768C930.731 71.9173 931.3 72.0947 931.842 72.3C932.402 72.4867 932.906 72.7387 933.354 73.056C933.802 73.3733 934.156 73.784 934.418 74.288C934.679 74.7733 934.81 75.3893 934.81 76.136C934.81 76.9947 934.567 77.7413 934.082 78.376C933.596 78.992 932.952 79.468 932.15 79.804C931.366 80.1213 930.516 80.28 929.602 80.28C928.575 80.28 927.558 80.084 926.55 79.692C925.56 79.3 924.702 78.6373 923.974 77.704ZM937.18 65.608H943.76C944.058 65.608 944.301 65.7107 944.488 65.916C944.693 66.1213 944.796 66.364 944.796 66.644C944.796 66.9427 944.693 67.1947 944.488 67.4C944.301 67.5867 944.058 67.68 943.76 67.68H937.18C936.9 67.68 936.657 67.5773 936.452 67.372C936.246 67.1667 936.144 66.9147 936.144 66.616C936.144 66.336 936.246 66.1027 936.452 65.916C936.657 65.7107 936.9 65.608 937.18 65.608ZM940.12 61.8C940.437 61.8 940.698 61.912 940.904 62.136C941.109 62.3413 941.212 62.6027 941.212 62.92V76.444C941.212 76.892 941.277 77.228 941.408 77.452C941.538 77.676 941.706 77.8347 941.912 77.928C942.136 78.0027 942.35 78.04 942.556 78.04C942.742 78.04 942.901 78.012 943.032 77.956C943.181 77.8813 943.349 77.844 943.536 77.844C943.722 77.844 943.89 77.9373 944.04 78.124C944.208 78.292 944.292 78.516 944.292 78.796C944.292 79.132 944.096 79.4213 943.704 79.664C943.312 79.888 942.873 80 942.388 80C942.126 80 941.8 79.9813 941.408 79.944C941.034 79.9067 940.661 79.7853 940.288 79.58C939.914 79.3747 939.597 79.0387 939.336 78.572C939.093 78.0867 938.972 77.4147 938.972 76.556V62.92C938.972 62.6027 939.084 62.3413 939.308 62.136C939.532 61.912 939.802 61.8 940.12 61.8ZM958.439 65.524C958.775 65.524 959.046 65.636 959.251 65.86C959.457 66.0653 959.559 66.3267 959.559 66.644V74.288C959.559 76.1733 959.027 77.6387 957.963 78.684C956.918 79.7107 955.453 80.224 953.567 80.224C951.701 80.224 950.235 79.7107 949.171 78.684C948.126 77.6387 947.603 76.1733 947.603 74.288V66.644C947.603 66.3267 947.706 66.0653 947.911 65.86C948.135 65.636 948.406 65.524 948.723 65.524C949.059 65.524 949.33 65.636 949.535 65.86C949.741 66.0653 949.843 66.3267 949.843 66.644V74.288C949.843 75.5573 950.17 76.5187 950.823 77.172C951.477 77.8253 952.391 78.152 953.567 78.152C954.781 78.152 955.705 77.8253 956.339 77.172C956.993 76.5187 957.319 75.5573 957.319 74.288V66.644C957.319 66.3267 957.422 66.0653 957.627 65.86C957.851 65.636 958.122 65.524 958.439 65.524ZM975.329 59.28C975.646 59.28 975.908 59.392 976.113 59.616C976.337 59.8213 976.449 60.0827 976.449 60.4V78.852C976.449 79.1693 976.337 79.44 976.113 79.664C975.908 79.888 975.646 80 975.329 80C974.993 80 974.722 79.888 974.517 79.664C974.312 79.44 974.209 79.1693 974.209 78.852V76.192L974.741 75.996C974.741 76.444 974.601 76.92 974.321 77.424C974.041 77.9093 973.658 78.3667 973.173 78.796C972.688 79.2253 972.109 79.58 971.437 79.86C970.784 80.14 970.074 80.28 969.309 80.28C968.058 80.28 966.92 79.9533 965.893 79.3C964.885 78.6467 964.082 77.7507 963.485 76.612C962.906 75.4733 962.617 74.176 962.617 72.72C962.617 71.2453 962.906 69.9387 963.485 68.8C964.082 67.6613 964.885 66.7747 965.893 66.14C966.901 65.4867 968.021 65.16 969.253 65.16C970.037 65.16 970.774 65.2907 971.465 65.552C972.156 65.8133 972.753 66.168 973.257 66.616C973.78 67.064 974.19 67.5587 974.489 68.1C974.788 68.6413 974.937 69.1827 974.937 69.724L974.209 69.556V60.4C974.209 60.0827 974.312 59.8213 974.517 59.616C974.722 59.392 974.993 59.28 975.329 59.28ZM969.561 78.208C970.494 78.208 971.316 77.9747 972.025 77.508C972.753 77.0227 973.313 76.3693 973.705 75.548C974.116 74.708 974.321 73.7653 974.321 72.72C974.321 71.656 974.116 70.7133 973.705 69.892C973.313 69.0707 972.753 68.4267 972.025 67.96C971.316 67.4747 970.494 67.232 969.561 67.232C968.646 67.232 967.825 67.4747 967.097 67.96C966.388 68.4267 965.828 69.0707 965.417 69.892C965.006 70.7133 964.801 71.656 964.801 72.72C964.801 73.7467 965.006 74.68 965.417 75.52C965.828 76.3413 966.388 76.9947 967.097 77.48C967.825 77.9653 968.646 78.208 969.561 78.208ZM980.964 79.972C980.572 79.972 980.264 79.86 980.04 79.636C979.835 79.412 979.732 79.104 979.732 78.712V78.152C979.732 77.7413 979.835 77.424 980.04 77.2C980.264 76.976 980.572 76.864 980.964 76.864H981.188C981.599 76.864 981.907 76.976 982.112 77.2C982.317 77.424 982.42 77.7413 982.42 78.152V78.712C982.42 79.104 982.317 79.412 982.112 79.636C981.907 79.86 981.599 79.972 981.188 79.972H980.964ZM987.043 80C986.707 80 986.436 79.888 986.231 79.664C986.026 79.44 985.923 79.1693 985.923 78.852V60.4C985.923 60.0827 986.026 59.8213 986.231 59.616C986.436 59.392 986.707 59.28 987.043 59.28C987.36 59.28 987.622 59.392 987.827 59.616C988.051 59.8213 988.163 60.0827 988.163 60.4V78.852C988.163 79.1693 988.051 79.44 987.827 79.664C987.622 79.888 987.36 80 987.043 80ZM996.339 65.44C996.638 65.44 996.89 65.5613 997.095 65.804C997.319 66.028 997.431 66.2613 997.431 66.504C997.431 66.8213 997.282 67.1013 996.983 67.344L987.911 75.268L987.827 72.664L995.555 65.776C995.779 65.552 996.04 65.44 996.339 65.44ZM996.647 79.972C996.33 79.972 996.05 79.8507 995.807 79.608L989.843 73.252L991.523 71.712L997.431 78.04C997.655 78.2827 997.767 78.5627 997.767 78.88C997.767 79.216 997.636 79.4867 997.375 79.692C997.114 79.8787 996.871 79.972 996.647 79.972ZM1006.77 80.28C1005.27 80.28 1003.97 79.9627 1002.85 79.328C1001.73 78.6933 1000.85 77.8253 1000.21 76.724C999.599 75.604 999.291 74.316 999.291 72.86C999.291 71.236 999.608 69.8547 1000.24 68.716C1000.9 67.5587 1001.74 66.6813 1002.76 66.084C1003.81 65.468 1004.91 65.16 1006.07 65.16C1006.93 65.16 1007.76 65.3187 1008.56 65.636C1009.36 65.9533 1010.07 66.42 1010.69 67.036C1011.3 67.6333 1011.8 68.3613 1012.17 69.22C1012.54 70.06 1012.74 71.0027 1012.76 72.048C1012.76 72.3467 1012.65 72.5987 1012.42 72.804C1012.2 73.0093 1011.94 73.112 1011.64 73.112H1000.58L1000.07 71.18H1010.85L1010.41 71.572V70.956C1010.33 70.1907 1010.07 69.5373 1009.62 68.996C1009.19 68.436 1008.66 68.0067 1008.03 67.708C1007.41 67.4093 1006.76 67.26 1006.07 67.26C1005.51 67.26 1004.95 67.3627 1004.39 67.568C1003.85 67.7547 1003.35 68.072 1002.9 68.52C1002.47 68.9493 1002.12 69.5093 1001.84 70.2C1001.58 70.8907 1001.45 71.7213 1001.45 72.692C1001.45 73.7747 1001.66 74.7267 1002.09 75.548C1002.54 76.3693 1003.15 77.0227 1003.94 77.508C1004.72 77.9747 1005.64 78.208 1006.68 78.208C1007.34 78.208 1007.91 78.124 1008.39 77.956C1008.88 77.788 1009.3 77.5827 1009.65 77.34C1010.01 77.0787 1010.3 76.8173 1010.55 76.556C1010.79 76.388 1011.02 76.304 1011.25 76.304C1011.53 76.304 1011.75 76.3973 1011.92 76.584C1012.11 76.7707 1012.2 76.9947 1012.2 77.256C1012.2 77.5733 1012.05 77.8533 1011.75 78.096C1011.23 78.6747 1010.52 79.188 1009.62 79.636C1008.73 80.0653 1007.77 80.28 1006.77 80.28ZM1027.85 65.384C1028.17 65.384 1028.43 65.496 1028.64 65.72C1028.86 65.9253 1028.97 66.1867 1028.97 66.504V78.852C1028.97 79.1693 1028.86 79.44 1028.64 79.664C1028.43 79.888 1028.17 80 1027.85 80C1027.52 80 1027.25 79.888 1027.04 79.664C1026.84 79.44 1026.73 79.1693 1026.73 78.852V76.192L1027.27 76.136C1027.27 76.5467 1027.13 76.9947 1026.85 77.48C1026.57 77.9653 1026.18 78.4227 1025.7 78.852C1025.21 79.2627 1024.63 79.608 1023.96 79.888C1023.31 80.1493 1022.6 80.28 1021.83 80.28C1020.57 80.28 1019.43 79.9533 1018.42 79.3C1017.41 78.628 1016.61 77.7227 1016.01 76.584C1015.43 75.4453 1015.14 74.148 1015.14 72.692C1015.14 71.2173 1015.43 69.92 1016.01 68.8C1016.61 67.6613 1017.41 66.7747 1018.42 66.14C1019.43 65.4867 1020.55 65.16 1021.78 65.16C1022.58 65.16 1023.33 65.2907 1024.02 65.552C1024.71 65.8133 1025.31 66.168 1025.81 66.616C1026.33 67.064 1026.73 67.5587 1027.01 68.1C1027.31 68.6413 1027.46 69.1827 1027.46 69.724L1026.73 69.556V66.504C1026.73 66.1867 1026.84 65.9253 1027.04 65.72C1027.25 65.496 1027.52 65.384 1027.85 65.384ZM1022.09 78.208C1023.02 78.208 1023.84 77.9653 1024.55 77.48C1025.28 76.9947 1025.84 76.3413 1026.23 75.52C1026.64 74.68 1026.85 73.7373 1026.85 72.692C1026.85 71.6653 1026.64 70.7413 1026.23 69.92C1025.84 69.08 1025.28 68.4267 1024.55 67.96C1023.84 67.4747 1023.02 67.232 1022.09 67.232C1021.17 67.232 1020.35 67.4653 1019.62 67.932C1018.91 68.3987 1018.35 69.0427 1017.94 69.864C1017.53 70.6853 1017.33 71.628 1017.33 72.692C1017.33 73.7373 1017.52 74.68 1017.91 75.52C1018.33 76.3413 1018.89 76.9947 1019.59 77.48C1020.32 77.9653 1021.15 78.208 1022.09 78.208ZM1033.49 79.972C1033.1 79.972 1032.79 79.86 1032.57 79.636C1032.36 79.412 1032.26 79.104 1032.26 78.712V78.152C1032.26 77.7413 1032.36 77.424 1032.57 77.2C1032.79 76.976 1033.1 76.864 1033.49 76.864H1033.71C1034.12 76.864 1034.43 76.976 1034.64 77.2C1034.84 77.424 1034.95 77.7413 1034.95 78.152V78.712C1034.95 79.104 1034.84 79.412 1034.64 79.636C1034.43 79.86 1034.12 79.972 1033.71 79.972H1033.49ZM1050.15 59.28C1050.47 59.28 1050.73 59.392 1050.94 59.616C1051.16 59.8213 1051.27 60.0827 1051.27 60.4V78.852C1051.27 79.1693 1051.16 79.44 1050.94 79.664C1050.73 79.888 1050.47 80 1050.15 80C1049.82 80 1049.55 79.888 1049.34 79.664C1049.14 79.44 1049.03 79.1693 1049.03 78.852V76.192L1049.56 75.996C1049.56 76.444 1049.42 76.92 1049.14 77.424C1048.86 77.9093 1048.48 78.3667 1048 78.796C1047.51 79.2253 1046.93 79.58 1046.26 79.86C1045.61 80.14 1044.9 80.28 1044.13 80.28C1042.88 80.28 1041.74 79.9533 1040.72 79.3C1039.71 78.6467 1038.91 77.7507 1038.31 76.612C1037.73 75.4733 1037.44 74.176 1037.44 72.72C1037.44 71.2453 1037.73 69.9387 1038.31 68.8C1038.91 67.6613 1039.71 66.7747 1040.72 66.14C1041.72 65.4867 1042.84 65.16 1044.08 65.16C1044.86 65.16 1045.6 65.2907 1046.29 65.552C1046.98 65.8133 1047.58 66.168 1048.08 66.616C1048.6 67.064 1049.01 67.5587 1049.31 68.1C1049.61 68.6413 1049.76 69.1827 1049.76 69.724L1049.03 69.556V60.4C1049.03 60.0827 1049.14 59.8213 1049.34 59.616C1049.55 59.392 1049.82 59.28 1050.15 59.28ZM1044.38 78.208C1045.32 78.208 1046.14 77.9747 1046.85 77.508C1047.58 77.0227 1048.14 76.3693 1048.53 75.548C1048.94 74.708 1049.14 73.7653 1049.14 72.72C1049.14 71.656 1048.94 70.7133 1048.53 69.892C1048.14 69.0707 1047.58 68.4267 1046.85 67.96C1046.14 67.4747 1045.32 67.232 1044.38 67.232C1043.47 67.232 1042.65 67.4747 1041.92 67.96C1041.21 68.4267 1040.65 69.0707 1040.24 69.892C1039.83 70.7133 1039.62 71.656 1039.62 72.72C1039.62 73.7467 1039.83 74.68 1040.24 75.52C1040.65 76.3413 1041.21 76.9947 1041.92 77.48C1042.65 77.9653 1043.47 78.208 1044.38 78.208ZM1056.46 80C1056.12 80 1055.85 79.888 1055.65 79.664C1055.44 79.44 1055.34 79.1693 1055.34 78.852V60.4C1055.34 60.0827 1055.44 59.8213 1055.65 59.616C1055.85 59.392 1056.12 59.28 1056.46 59.28C1056.78 59.28 1057.04 59.392 1057.24 59.616C1057.47 59.8213 1057.58 60.0827 1057.58 60.4V78.852C1057.58 79.1693 1057.47 79.44 1057.24 79.664C1057.04 79.888 1056.78 80 1056.46 80ZM1065.76 65.44C1066.05 65.44 1066.31 65.5613 1066.51 65.804C1066.74 66.028 1066.85 66.2613 1066.85 66.504C1066.85 66.8213 1066.7 67.1013 1066.4 67.344L1057.33 75.268L1057.24 72.664L1064.97 65.776C1065.2 65.552 1065.46 65.44 1065.76 65.44ZM1066.06 79.972C1065.75 79.972 1065.47 79.8507 1065.22 79.608L1059.26 73.252L1060.94 71.712L1066.85 78.04C1067.07 78.2827 1067.18 78.5627 1067.18 78.88C1067.18 79.216 1067.05 79.4867 1066.79 79.692C1066.53 79.8787 1066.29 79.972 1066.06 79.972Z" fill="white"/>
</svg>
