<svg width="1728" height="174" viewBox="0 0 1728 174" fill="none" xmlns="http://www.w3.org/2000/svg">
<rect width="1734" height="182" rx="6" fill="#4F5057"/>
<ellipse cx="904" cy="165.455" rx="4" ry="5.51515" fill="#F7FF85"/>
<ellipse cx="721" cy="143.394" rx="4" ry="5.51515" fill="#F7FF85"/>
<ellipse cx="1304" cy="75.8336" rx="3" ry="4.13636" fill="#F7FF85"/>
<ellipse cx="1427" cy="118.576" rx="3" ry="4.13636" fill="#F7FF85"/>
<ellipse cx="1667" cy="110.303" rx="3" ry="4.13636" fill="#F7FF85"/>
<ellipse cx="1615" cy="132.364" rx="4" ry="5.51515" fill="#F7FF85"/>
<ellipse cx="799" cy="147.53" rx="3" ry="4.13636" fill="#F7FF85"/>
<ellipse cx="399" cy="42.7428" rx="3" ry="4.13636" fill="#F7FF85"/>
<ellipse cx="1289" cy="48.2575" rx="3" ry="4.13636" fill="#F7FF85"/>
<ellipse cx="1499" cy="63.4244" rx="3" ry="4.13636" fill="#F7FF85"/>
<ellipse cx="1509" cy="135.121" rx="3" ry="4.13636" fill="#F7FF85"/>
<ellipse cx="160" cy="62.0455" rx="3" ry="4.13636" fill="#F7FF85"/>
<ellipse cx="725" cy="27.5758" rx="3" ry="4.13636" fill="#F7FF85"/>
<ellipse cx="471" cy="56.5299" rx="3" ry="4.13636" fill="#F7FF85"/>
<ellipse cx="632" cy="155.803" rx="3" ry="4.13636" fill="#F7FF85"/>
<ellipse cx="565" cy="82.7272" rx="3" ry="4.13636" fill="#F7FF85"/>
<ellipse cx="1165" cy="154.424" rx="3" ry="4.13636" fill="#F7FF85"/>
<ellipse cx="988" cy="44.1207" rx="3" ry="4.13636" fill="#F7FF85"/>
<ellipse cx="1065" cy="48.2575" rx="3" ry="4.13636" fill="#F7FF85"/>
<ellipse cx="1388" cy="55.152" rx="3" ry="4.13636" fill="#F7FF85"/>
<ellipse cx="334" cy="146.152" rx="3" ry="4.13636" fill="#F7FF85"/>
<ellipse cx="171" cy="150.288" rx="3" ry="4.13636" fill="#F7FF85"/>
<ellipse cx="63" cy="42.7428" rx="3" ry="4.13636" fill="#F7FF85"/>
<ellipse cx="842" cy="44.1207" rx="3" ry="4.13636" fill="#F7FF85"/>
<ellipse cx="1088" cy="118.576" rx="3" ry="4.13636" fill="#F7FF85"/>
<ellipse cx="337.5" cy="62.0457" rx="2.5" ry="2.75758" fill="#F7FF85"/>
<ellipse cx="554" cy="143.394" rx="3" ry="4.13636" fill="#F7FF85"/>
<ellipse cx="1044" cy="146.152" rx="3" ry="4.13636" fill="#F7FF85"/>
<ellipse cx="73" cy="146.152" rx="4" ry="5.51515" fill="#F7FF85"/>
<ellipse cx="1188" cy="60.6665" rx="4" ry="5.51515" fill="#F7FF85"/>
<ellipse cx="1460" cy="161.318" rx="4" ry="5.51515" fill="#F7FF85"/>
<ellipse cx="1607" cy="78.5913" rx="4" ry="5.51515" fill="#F7FF85"/>
<ellipse cx="1326" cy="142.015" rx="4" ry="5.51515" fill="#F7FF85"/>
<ellipse cx="1221" cy="119.955" rx="4" ry="5.51515" fill="#F7FF85"/>
<ellipse cx="292" cy="96.5152" rx="4" ry="5.51515" fill="#F7FF85"/>
<ellipse cx="496" cy="102.031" rx="4" ry="5.51515" fill="#F7FF85"/>
<ellipse cx="378" cy="110.303" rx="4" ry="5.51515" fill="#F7FF85"/>
<ellipse cx="20" cy="113.061" rx="4" ry="5.51515" fill="#F7FF85"/>
<ellipse cx="1669" cy="42.7427" rx="4" ry="5.51515" fill="#F7FF85"/>
<ellipse cx="1144" cy="62.0454" rx="4" ry="5.51515" fill="#F7FF85"/>
<ellipse cx="1283" cy="92.3785" rx="3" ry="4.13636" fill="#F7FF85"/>
<path d="M670.296 105.238C669.96 105.238 669.68 105.098 669.456 104.818L662.008 95.3256L663.716 93.5896L671.304 103.306C671.472 103.548 671.556 103.8 671.556 104.062C671.556 104.435 671.416 104.724 671.136 104.93C670.875 105.135 670.595 105.238 670.296 105.238ZM670.212 85.5536C670.511 85.5536 670.753 85.675 670.94 85.9176C671.145 86.1603 671.248 86.4123 671.248 86.6736C671.248 86.935 671.136 87.1776 670.912 87.4016L658.536 99.1056L658.34 96.5016L669.316 85.9736C669.596 85.6936 669.895 85.5536 670.212 85.5536ZM657.612 105.182C657.257 105.182 656.977 105.07 656.772 104.846C656.567 104.622 656.464 104.351 656.464 104.034V86.7296C656.464 86.3936 656.576 86.123 656.8 85.9176C657.024 85.6936 657.304 85.5816 657.64 85.5816C657.995 85.5816 658.275 85.6936 658.48 85.9176C658.685 86.123 658.788 86.3936 658.788 86.7296V104.034C658.788 104.351 658.676 104.622 658.452 104.846C658.247 105.07 657.967 105.182 657.612 105.182ZM687.641 97.9016C687.641 99.3576 687.314 100.655 686.661 101.794C686.026 102.932 685.158 103.828 684.057 104.482C682.974 105.135 681.752 105.462 680.389 105.462C679.026 105.462 677.794 105.135 676.693 104.482C675.592 103.828 674.714 102.932 674.061 101.794C673.426 100.655 673.109 99.3576 673.109 97.9016C673.109 96.4456 673.426 95.1483 674.061 94.0096C674.714 92.871 675.592 91.975 676.693 91.3216C677.794 90.6683 679.026 90.3416 680.389 90.3416C681.752 90.3416 682.974 90.6683 684.057 91.3216C685.158 91.975 686.026 92.871 686.661 94.0096C687.314 95.1483 687.641 96.4456 687.641 97.9016ZM685.401 97.9016C685.401 96.819 685.177 95.867 684.729 95.0456C684.3 94.2243 683.702 93.5803 682.937 93.1136C682.19 92.647 681.341 92.4136 680.389 92.4136C679.437 92.4136 678.578 92.647 677.813 93.1136C677.066 93.5803 676.469 94.2243 676.021 95.0456C675.573 95.867 675.349 96.819 675.349 97.9016C675.349 98.9656 675.573 99.9083 676.021 100.73C676.469 101.551 677.066 102.204 677.813 102.69C678.578 103.156 679.437 103.39 680.389 103.39C681.341 103.39 682.19 103.156 682.937 102.69C683.702 102.204 684.3 101.551 684.729 100.73C685.177 99.9083 685.401 98.9656 685.401 97.9016ZM697.898 90.3416C699.167 90.3416 700.166 90.603 700.894 91.1256C701.622 91.6483 702.135 92.3483 702.434 93.2256C702.751 94.103 702.91 95.083 702.91 96.1656V104.034C702.91 104.351 702.798 104.622 702.574 104.846C702.369 105.07 702.107 105.182 701.79 105.182C701.473 105.182 701.202 105.07 700.978 104.846C700.773 104.622 700.67 104.351 700.67 104.034V96.2216C700.67 95.5123 700.558 94.8776 700.334 94.3176C700.129 93.739 699.774 93.2816 699.27 92.9456C698.785 92.591 698.113 92.4136 697.254 92.4136C696.47 92.4136 695.751 92.591 695.098 92.9456C694.445 93.2816 693.922 93.739 693.53 94.3176C693.138 94.8776 692.942 95.5123 692.942 96.2216V104.034C692.942 104.351 692.83 104.622 692.606 104.846C692.401 105.07 692.139 105.182 691.822 105.182C691.505 105.182 691.234 105.07 691.01 104.846C690.805 104.622 690.702 104.351 690.702 104.034V91.8256C690.702 91.5083 690.805 91.247 691.01 91.0416C691.234 90.8176 691.505 90.7056 691.822 90.7056C692.158 90.7056 692.429 90.8176 692.634 91.0416C692.839 91.247 692.942 91.5083 692.942 91.8256V93.8136L692.382 94.4296C692.475 93.9443 692.69 93.459 693.026 92.9736C693.362 92.4696 693.782 92.0216 694.286 91.6296C694.79 91.2376 695.35 90.9296 695.966 90.7056C696.582 90.463 697.226 90.3416 697.898 90.3416ZM706.186 90.7896H712.766C713.064 90.7896 713.307 90.8923 713.494 91.0976C713.699 91.303 713.802 91.5456 713.802 91.8256C713.802 92.1243 713.699 92.3763 713.494 92.5816C713.307 92.7683 713.064 92.8616 712.766 92.8616H706.186C705.906 92.8616 705.663 92.759 705.458 92.5536C705.252 92.3483 705.15 92.0963 705.15 91.7976C705.15 91.5176 705.252 91.2843 705.458 91.0976C705.663 90.8923 705.906 90.7896 706.186 90.7896ZM709.126 86.9816C709.443 86.9816 709.704 87.0936 709.91 87.3176C710.115 87.523 710.218 87.7843 710.218 88.1016V101.626C710.218 102.074 710.283 102.41 710.414 102.634C710.544 102.858 710.712 103.016 710.918 103.11C711.142 103.184 711.356 103.222 711.562 103.222C711.748 103.222 711.907 103.194 712.038 103.138C712.187 103.063 712.355 103.026 712.542 103.026C712.728 103.026 712.896 103.119 713.046 103.306C713.214 103.474 713.298 103.698 713.298 103.978C713.298 104.314 713.102 104.603 712.71 104.846C712.318 105.07 711.879 105.182 711.394 105.182C711.132 105.182 710.806 105.163 710.414 105.126C710.04 105.088 709.667 104.967 709.294 104.762C708.92 104.556 708.603 104.22 708.342 103.754C708.099 103.268 707.978 102.596 707.978 101.738V88.1016C707.978 87.7843 708.09 87.523 708.314 87.3176C708.538 87.0936 708.808 86.9816 709.126 86.9816ZM728.538 90.5656C728.855 90.5656 729.116 90.6776 729.322 90.9016C729.546 91.107 729.658 91.3683 729.658 91.6856V104.034C729.658 104.351 729.546 104.622 729.322 104.846C729.116 105.07 728.855 105.182 728.538 105.182C728.202 105.182 727.931 105.07 727.726 104.846C727.52 104.622 727.418 104.351 727.418 104.034V101.374L727.95 101.318C727.95 101.728 727.81 102.176 727.53 102.662C727.25 103.147 726.867 103.604 726.382 104.034C725.896 104.444 725.318 104.79 724.646 105.07C723.992 105.331 723.283 105.462 722.518 105.462C721.248 105.462 720.11 105.135 719.102 104.482C718.094 103.81 717.291 102.904 716.694 101.766C716.115 100.627 715.826 99.3296 715.826 97.8736C715.826 96.399 716.115 95.1016 716.694 93.9816C717.291 92.843 718.094 91.9563 719.102 91.3216C720.11 90.6683 721.23 90.3416 722.462 90.3416C723.264 90.3416 724.011 90.4723 724.702 90.7336C725.392 90.995 725.99 91.3496 726.494 91.7976C727.016 92.2456 727.418 92.7403 727.698 93.2816C727.996 93.823 728.146 94.3643 728.146 94.9056L727.418 94.7376V91.6856C727.418 91.3683 727.52 91.107 727.726 90.9016C727.931 90.6776 728.202 90.5656 728.538 90.5656ZM722.77 103.39C723.703 103.39 724.524 103.147 725.234 102.662C725.962 102.176 726.522 101.523 726.914 100.702C727.324 99.8616 727.53 98.919 727.53 97.8736C727.53 96.847 727.324 95.923 726.914 95.1016C726.522 94.2616 725.962 93.6083 725.234 93.1416C724.524 92.6563 723.703 92.4136 722.77 92.4136C721.855 92.4136 721.034 92.647 720.306 93.1136C719.596 93.5803 719.036 94.2243 718.626 95.0456C718.215 95.867 718.01 96.8096 718.01 97.8736C718.01 98.919 718.206 99.8616 718.598 100.702C719.008 101.523 719.568 102.176 720.278 102.662C721.006 103.147 721.836 103.39 722.77 103.39ZM734.845 105.182C734.509 105.182 734.238 105.07 734.033 104.846C733.827 104.622 733.725 104.351 733.725 104.034V85.5816C733.725 85.2643 733.827 85.003 734.033 84.7976C734.238 84.5736 734.509 84.4616 734.845 84.4616C735.162 84.4616 735.423 84.5736 735.629 84.7976C735.853 85.003 735.965 85.2643 735.965 85.5816V104.034C735.965 104.351 735.853 104.622 735.629 104.846C735.423 105.07 735.162 105.182 734.845 105.182ZM744.141 90.6216C744.439 90.6216 744.691 90.743 744.897 90.9856C745.121 91.2096 745.233 91.443 745.233 91.6856C745.233 92.003 745.083 92.283 744.785 92.5256L735.713 100.45L735.629 97.8456L743.357 90.9576C743.581 90.7336 743.842 90.6216 744.141 90.6216ZM744.449 105.154C744.131 105.154 743.851 105.032 743.609 104.79L737.645 98.4336L739.325 96.8936L745.233 103.222C745.457 103.464 745.569 103.744 745.569 104.062C745.569 104.398 745.438 104.668 745.177 104.874C744.915 105.06 744.673 105.154 744.449 105.154ZM747.945 90.7896H754.525C754.824 90.7896 755.067 90.8923 755.253 91.0976C755.459 91.303 755.561 91.5456 755.561 91.8256C755.561 92.1243 755.459 92.3763 755.253 92.5816C755.067 92.7683 754.824 92.8616 754.525 92.8616H747.945C747.665 92.8616 747.423 92.759 747.217 92.5536C747.012 92.3483 746.909 92.0963 746.909 91.7976C746.909 91.5176 747.012 91.2843 747.217 91.0976C747.423 90.8923 747.665 90.7896 747.945 90.7896ZM750.885 86.9816C751.203 86.9816 751.464 87.0936 751.669 87.3176C751.875 87.523 751.977 87.7843 751.977 88.1016V101.626C751.977 102.074 752.043 102.41 752.173 102.634C752.304 102.858 752.472 103.016 752.677 103.11C752.901 103.184 753.116 103.222 753.321 103.222C753.508 103.222 753.667 103.194 753.797 103.138C753.947 103.063 754.115 103.026 754.301 103.026C754.488 103.026 754.656 103.119 754.805 103.306C754.973 103.474 755.057 103.698 755.057 103.978C755.057 104.314 754.861 104.603 754.469 104.846C754.077 105.07 753.639 105.182 753.153 105.182C752.892 105.182 752.565 105.163 752.173 105.126C751.8 105.088 751.427 104.967 751.053 104.762C750.68 104.556 750.363 104.22 750.101 103.754C749.859 103.268 749.737 102.596 749.737 101.738V88.1016C749.737 87.7843 749.849 87.523 750.073 87.3176C750.297 87.0936 750.568 86.9816 750.885 86.9816ZM759.209 93.7576C758.817 93.7576 758.509 93.6456 758.285 93.4216C758.08 93.179 757.977 92.8616 757.977 92.4696V91.9096C757.977 91.5176 758.08 91.2096 758.285 90.9856C758.509 90.7616 758.817 90.6496 759.209 90.6496H759.433C759.844 90.6496 760.152 90.7616 760.357 90.9856C760.562 91.2096 760.665 91.5176 760.665 91.9096V92.4696C760.665 92.8616 760.562 93.179 760.357 93.4216C760.152 93.6456 759.844 93.7576 759.433 93.7576H759.209ZM759.209 105.182C758.817 105.182 758.509 105.07 758.285 104.846C758.08 104.603 757.977 104.286 757.977 103.894V103.334C757.977 102.942 758.08 102.634 758.285 102.41C758.509 102.186 758.817 102.074 759.209 102.074H759.433C759.844 102.074 760.152 102.186 760.357 102.41C760.562 102.634 760.665 102.942 760.665 103.334V103.894C760.665 104.286 760.562 104.603 760.357 104.846C760.152 105.07 759.844 105.182 759.433 105.182H759.209ZM778.423 90.4816C779.692 90.4816 780.719 90.8083 781.503 91.4616C782.306 92.0963 782.838 93.0016 783.099 94.1776H782.679L782.875 93.6736C783.099 93.151 783.482 92.647 784.023 92.1616C784.564 91.6763 785.19 91.275 785.899 90.9576C786.608 90.6403 787.346 90.4816 788.111 90.4816C789.343 90.4816 790.314 90.7523 791.023 91.2936C791.732 91.8163 792.236 92.5256 792.535 93.4216C792.852 94.299 793.011 95.2883 793.011 96.3896V104.034C793.011 104.351 792.899 104.622 792.675 104.846C792.47 105.07 792.208 105.182 791.891 105.182C791.555 105.182 791.284 105.07 791.079 104.846C790.874 104.622 790.771 104.351 790.771 104.034V96.4456C790.771 95.7176 790.659 95.0643 790.435 94.4856C790.23 93.8883 789.884 93.4216 789.399 93.0856C788.932 92.731 788.288 92.5536 787.467 92.5536C786.702 92.5536 786.002 92.731 785.367 93.0856C784.732 93.4216 784.228 93.8883 783.855 94.4856C783.482 95.0643 783.295 95.7176 783.295 96.4456V104.034C783.295 104.351 783.192 104.622 782.987 104.846C782.782 105.07 782.511 105.182 782.175 105.182C781.858 105.182 781.587 105.07 781.363 104.846C781.158 104.622 781.055 104.351 781.055 104.034V96.3616C781.055 95.6523 780.952 95.0176 780.747 94.4576C780.56 93.879 780.234 93.4216 779.767 93.0856C779.3 92.731 778.656 92.5536 777.835 92.5536C777.088 92.5536 776.407 92.731 775.791 93.0856C775.175 93.4216 774.68 93.879 774.307 94.4576C773.934 95.0176 773.747 95.6523 773.747 96.3616V104.034C773.747 104.351 773.635 104.622 773.411 104.846C773.206 105.07 772.944 105.182 772.627 105.182C772.31 105.182 772.039 105.07 771.815 104.846C771.61 104.622 771.507 104.351 771.507 104.034V91.8256C771.507 91.5083 771.61 91.247 771.815 91.0416C772.039 90.8176 772.31 90.7056 772.627 90.7056C772.963 90.7056 773.234 90.8176 773.439 91.0416C773.644 91.247 773.747 91.5083 773.747 91.8256V93.9536L773.131 94.6256C773.206 94.1403 773.392 93.655 773.691 93.1696C774.008 92.6843 774.41 92.2363 774.895 91.8256C775.38 91.415 775.922 91.0883 776.519 90.8456C777.116 90.603 777.751 90.4816 778.423 90.4816ZM799.003 104.034C799.003 104.351 798.891 104.622 798.667 104.846C798.462 105.07 798.201 105.182 797.883 105.182C797.547 105.182 797.277 105.07 797.071 104.846C796.866 104.622 796.763 104.351 796.763 104.034V91.6016C796.763 91.2843 796.866 91.023 797.071 90.8176C797.295 90.5936 797.566 90.4816 797.883 90.4816C798.201 90.4816 798.462 90.5936 798.667 90.8176C798.891 91.023 799.003 91.2843 799.003 91.6016V104.034ZM797.883 88.6056C797.417 88.6056 797.071 88.5123 796.847 88.3256C796.623 88.139 796.511 87.8496 796.511 87.4576V87.0656C796.511 86.6736 796.633 86.3843 796.875 86.1976C797.118 86.011 797.463 85.9176 797.911 85.9176C798.359 85.9176 798.695 86.011 798.919 86.1976C799.143 86.3843 799.255 86.6736 799.255 87.0656V87.4576C799.255 87.8496 799.134 88.139 798.891 88.3256C798.667 88.5123 798.331 88.6056 797.883 88.6056ZM809.635 90.4816C810.904 90.4816 811.931 90.8083 812.715 91.4616C813.518 92.0963 814.05 93.0016 814.311 94.1776H813.891L814.087 93.6736C814.311 93.151 814.694 92.647 815.235 92.1616C815.776 91.6763 816.402 91.275 817.111 90.9576C817.82 90.6403 818.558 90.4816 819.323 90.4816C820.555 90.4816 821.526 90.7523 822.235 91.2936C822.944 91.8163 823.448 92.5256 823.747 93.4216C824.064 94.299 824.223 95.2883 824.223 96.3896V104.034C824.223 104.351 824.111 104.622 823.887 104.846C823.682 105.07 823.42 105.182 823.103 105.182C822.767 105.182 822.496 105.07 822.291 104.846C822.086 104.622 821.983 104.351 821.983 104.034V96.4456C821.983 95.7176 821.871 95.0643 821.647 94.4856C821.442 93.8883 821.096 93.4216 820.611 93.0856C820.144 92.731 819.5 92.5536 818.679 92.5536C817.914 92.5536 817.214 92.731 816.579 93.0856C815.944 93.4216 815.44 93.8883 815.067 94.4856C814.694 95.0643 814.507 95.7176 814.507 96.4456V104.034C814.507 104.351 814.404 104.622 814.199 104.846C813.994 105.07 813.723 105.182 813.387 105.182C813.07 105.182 812.799 105.07 812.575 104.846C812.37 104.622 812.267 104.351 812.267 104.034V96.3616C812.267 95.6523 812.164 95.0176 811.959 94.4576C811.772 93.879 811.446 93.4216 810.979 93.0856C810.512 92.731 809.868 92.5536 809.047 92.5536C808.3 92.5536 807.619 92.731 807.003 93.0856C806.387 93.4216 805.892 93.879 805.519 94.4576C805.146 95.0176 804.959 95.6523 804.959 96.3616V104.034C804.959 104.351 804.847 104.622 804.623 104.846C804.418 105.07 804.156 105.182 803.839 105.182C803.522 105.182 803.251 105.07 803.027 104.846C802.822 104.622 802.719 104.351 802.719 104.034V91.8256C802.719 91.5083 802.822 91.247 803.027 91.0416C803.251 90.8176 803.522 90.7056 803.839 90.7056C804.175 90.7056 804.446 90.8176 804.651 91.0416C804.856 91.247 804.959 91.5083 804.959 91.8256V93.9536L804.343 94.6256C804.418 94.1403 804.604 93.655 804.903 93.1696C805.22 92.6843 805.622 92.2363 806.107 91.8256C806.592 91.415 807.134 91.0883 807.731 90.8456C808.328 90.603 808.963 90.4816 809.635 90.4816ZM830.216 104.034C830.216 104.351 830.104 104.622 829.88 104.846C829.674 105.07 829.413 105.182 829.096 105.182C828.76 105.182 828.489 105.07 828.284 104.846C828.078 104.622 827.976 104.351 827.976 104.034V91.6016C827.976 91.2843 828.078 91.023 828.284 90.8176C828.508 90.5936 828.778 90.4816 829.096 90.4816C829.413 90.4816 829.674 90.5936 829.88 90.8176C830.104 91.023 830.216 91.2843 830.216 91.6016V104.034ZM829.096 88.6056C828.629 88.6056 828.284 88.5123 828.06 88.3256C827.836 88.139 827.724 87.8496 827.724 87.4576V87.0656C827.724 86.6736 827.845 86.3843 828.088 86.1976C828.33 86.011 828.676 85.9176 829.124 85.9176C829.572 85.9176 829.908 86.011 830.132 86.1976C830.356 86.3843 830.468 86.6736 830.468 87.0656V87.4576C830.468 87.8496 830.346 88.139 830.104 88.3256C829.88 88.5123 829.544 88.6056 829.096 88.6056ZM840.287 105.462C838.738 105.462 837.441 105.023 836.395 104.146C835.369 103.268 834.585 102.064 834.043 100.534C833.521 99.003 833.259 97.2856 833.259 95.3816C833.259 93.4403 833.521 91.7136 834.043 90.2016C834.585 88.6896 835.369 87.495 836.395 86.6176C837.441 85.7403 838.738 85.3016 840.287 85.3016C841.837 85.3016 843.125 85.7403 844.151 86.6176C845.197 87.495 845.981 88.6896 846.503 90.2016C847.026 91.7136 847.287 93.4403 847.287 95.3816C847.287 97.2856 847.026 99.003 846.503 100.534C845.981 102.064 845.197 103.268 844.151 104.146C843.125 105.023 841.837 105.462 840.287 105.462ZM840.287 103.194C841.277 103.194 842.107 102.876 842.779 102.242C843.47 101.607 843.993 100.711 844.347 99.5536C844.702 98.3776 844.879 96.987 844.879 95.3816C844.879 93.7576 844.702 92.367 844.347 91.2096C843.993 90.0336 843.47 89.1376 842.779 88.5216C842.107 87.887 841.277 87.5696 840.287 87.5696C839.298 87.5696 838.458 87.887 837.767 88.5216C837.095 89.1376 836.573 90.0336 836.199 91.2096C835.845 92.367 835.667 93.7576 835.667 95.3816C835.667 96.987 835.845 98.3776 836.199 99.5536C836.573 100.711 837.095 101.607 837.767 102.242C838.458 102.876 839.298 103.194 840.287 103.194ZM856.796 105.462C855.246 105.462 853.949 105.023 852.904 104.146C851.877 103.268 851.093 102.064 850.552 100.534C850.029 99.003 849.768 97.2856 849.768 95.3816C849.768 93.4403 850.029 91.7136 850.552 90.2016C851.093 88.6896 851.877 87.495 852.904 86.6176C853.949 85.7403 855.246 85.3016 856.796 85.3016C858.345 85.3016 859.633 85.7403 860.66 86.6176C861.705 87.495 862.489 88.6896 863.012 90.2016C863.534 91.7136 863.796 93.4403 863.796 95.3816C863.796 97.2856 863.534 99.003 863.012 100.534C862.489 102.064 861.705 103.268 860.66 104.146C859.633 105.023 858.345 105.462 856.796 105.462ZM856.796 103.194C857.785 103.194 858.616 102.876 859.288 102.242C859.978 101.607 860.501 100.711 860.856 99.5536C861.21 98.3776 861.388 96.987 861.388 95.3816C861.388 93.7576 861.21 92.367 860.856 91.2096C860.501 90.0336 859.978 89.1376 859.288 88.5216C858.616 87.887 857.785 87.5696 856.796 87.5696C855.806 87.5696 854.966 87.887 854.276 88.5216C853.604 89.1376 853.081 90.0336 852.708 91.2096C852.353 92.367 852.176 93.7576 852.176 95.3816C852.176 96.987 852.353 98.3776 852.708 99.5536C853.081 100.711 853.604 101.607 854.276 102.242C854.966 102.876 855.806 103.194 856.796 103.194ZM873.304 105.462C871.755 105.462 870.457 105.023 869.412 104.146C868.385 103.268 867.601 102.064 867.06 100.534C866.537 99.003 866.276 97.2856 866.276 95.3816C866.276 93.4403 866.537 91.7136 867.06 90.2016C867.601 88.6896 868.385 87.495 869.412 86.6176C870.457 85.7403 871.755 85.3016 873.304 85.3016C874.853 85.3016 876.141 85.7403 877.168 86.6176C878.213 87.495 878.997 88.6896 879.52 90.2016C880.043 91.7136 880.304 93.4403 880.304 95.3816C880.304 97.2856 880.043 99.003 879.52 100.534C878.997 102.064 878.213 103.268 877.168 104.146C876.141 105.023 874.853 105.462 873.304 105.462ZM873.304 103.194C874.293 103.194 875.124 102.876 875.796 102.242C876.487 101.607 877.009 100.711 877.364 99.5536C877.719 98.3776 877.896 96.987 877.896 95.3816C877.896 93.7576 877.719 92.367 877.364 91.2096C877.009 90.0336 876.487 89.1376 875.796 88.5216C875.124 87.887 874.293 87.5696 873.304 87.5696C872.315 87.5696 871.475 87.887 870.784 88.5216C870.112 89.1376 869.589 90.0336 869.216 91.2096C868.861 92.367 868.684 93.7576 868.684 95.3816C868.684 96.987 868.861 98.3776 869.216 99.5536C869.589 100.711 870.112 101.607 870.784 102.242C871.475 102.876 872.315 103.194 873.304 103.194ZM884.101 101.934C884.213 101.934 884.334 101.962 884.465 102.018C884.614 102.055 884.773 102.148 884.941 102.298C885.314 102.634 885.753 102.904 886.257 103.11C886.761 103.315 887.339 103.418 887.993 103.418C888.795 103.418 889.533 103.24 890.205 102.886C890.877 102.512 891.418 101.99 891.829 101.318C892.258 100.646 892.473 99.871 892.473 98.9936C892.473 98.0416 892.258 97.267 891.829 96.6696C891.418 96.0536 890.886 95.6056 890.233 95.3256C889.598 95.027 888.926 94.8776 888.217 94.8776C887.955 94.8776 887.713 94.8963 887.489 94.9336C887.265 94.971 887.05 95.0176 886.845 95.0736C886.658 95.1296 886.481 95.1576 886.313 95.1576C886.014 95.1576 885.781 95.055 885.613 94.8496C885.445 94.6443 885.361 94.3923 885.361 94.0936C885.361 93.9256 885.389 93.7763 885.445 93.6456C885.519 93.4963 885.631 93.3376 885.781 93.1696L891.213 87.2896L891.661 87.8216H883.709C883.41 87.8216 883.158 87.719 882.953 87.5136C882.747 87.3083 882.645 87.0563 882.645 86.7576C882.645 86.459 882.747 86.2163 882.953 86.0296C883.158 85.8243 883.41 85.7216 883.709 85.7216H892.837C893.247 85.7216 893.546 85.843 893.733 86.0856C893.919 86.3096 894.013 86.5616 894.013 86.8416C894.013 87.0096 893.966 87.1683 893.873 87.3176C893.798 87.467 893.695 87.607 893.565 87.7376L888.133 93.6456L887.489 93.0856C887.582 93.011 887.797 92.9456 888.133 92.8896C888.469 92.815 888.749 92.7776 888.973 92.7776C890.018 92.7776 890.979 93.0296 891.857 93.5336C892.734 94.0376 893.434 94.747 893.957 95.6616C894.479 96.5763 894.741 97.6403 894.741 98.8536C894.741 100.198 894.433 101.364 893.817 102.354C893.201 103.343 892.351 104.108 891.269 104.65C890.205 105.191 889.001 105.462 887.657 105.462C886.91 105.462 886.173 105.35 885.445 105.126C884.735 104.883 884.119 104.538 883.597 104.09C883.354 103.959 883.186 103.81 883.093 103.642C883.018 103.474 882.981 103.306 882.981 103.138C882.981 102.858 883.083 102.587 883.289 102.326C883.513 102.064 883.783 101.934 884.101 101.934ZM914.881 103.642C914.284 103.642 913.752 103.52 913.285 103.278C912.819 103.016 912.464 102.662 912.221 102.214C911.997 101.766 911.932 101.252 912.025 100.674L912.249 98.9656L912.641 99.3016C912.305 100.31 911.839 101.14 911.241 101.794C910.644 102.428 909.991 102.895 909.281 103.194C908.591 103.492 907.891 103.642 907.181 103.642C906.416 103.642 905.716 103.446 905.081 103.054C904.465 102.643 903.971 102.092 903.597 101.402C903.224 100.692 903.037 99.899 903.037 99.0216C903.037 98.1443 903.205 97.239 903.541 96.3056C903.896 95.3536 904.372 94.467 904.969 93.6456C905.585 92.8243 906.295 92.1616 907.097 91.6576C907.919 91.1536 908.805 90.9016 909.757 90.9016C910.784 90.9016 911.624 91.2283 912.277 91.8816C912.949 92.535 913.341 93.3656 913.453 94.3736L912.837 95.9136L913.453 91.9656C913.491 91.723 913.593 91.5176 913.761 91.3496C913.929 91.163 914.191 91.0696 914.545 91.0696C914.975 91.0696 915.264 91.1723 915.413 91.3776C915.563 91.583 915.6 91.891 915.525 92.3016L914.265 100.254C914.172 100.888 914.256 101.346 914.517 101.626C914.797 101.906 915.115 102.046 915.469 102.046C916.104 102.046 916.701 101.812 917.261 101.346C917.821 100.879 918.307 100.272 918.717 99.5256C919.147 98.7603 919.483 97.9016 919.725 96.9496C919.968 95.9976 920.089 95.0456 920.089 94.0936C920.089 92.675 919.753 91.4336 919.081 90.3696C918.428 89.287 917.495 88.447 916.281 87.8496C915.068 87.2336 913.64 86.9256 911.997 86.9256C910.131 86.9256 908.385 87.2056 906.761 87.7656C905.156 88.3256 903.747 89.147 902.533 90.2296C901.32 91.2936 900.368 92.6003 899.677 94.1496C899.005 95.6803 898.669 97.435 898.669 99.4136C898.669 100.478 898.837 101.532 899.173 102.578C899.509 103.604 900.023 104.528 900.713 105.35C901.423 106.19 902.328 106.852 903.429 107.338C904.549 107.842 905.893 108.094 907.461 108.094C908.488 108.094 909.365 108.019 910.093 107.87C910.821 107.72 911.465 107.515 912.025 107.254C912.604 106.992 913.183 106.722 913.761 106.442C913.967 106.33 914.163 106.302 914.349 106.358C914.536 106.414 914.676 106.563 914.769 106.806C914.956 107.254 914.751 107.627 914.153 107.926C913.351 108.318 912.427 108.71 911.381 109.102C910.336 109.512 909.029 109.718 907.461 109.718C905.576 109.718 903.971 109.419 902.645 108.822C901.32 108.243 900.237 107.459 899.397 106.47C898.576 105.48 897.969 104.379 897.577 103.166C897.185 101.934 896.989 100.683 896.989 99.4136C896.989 97.2296 897.372 95.2696 898.137 93.5336C898.921 91.7976 899.995 90.3136 901.357 89.0816C902.739 87.8496 904.335 86.9163 906.145 86.2816C907.956 85.6283 909.907 85.3016 911.997 85.3016C914.125 85.3016 915.917 85.703 917.373 86.5056C918.829 87.2896 919.921 88.3536 920.649 89.6976C921.396 91.023 921.769 92.4883 921.769 94.0936C921.769 95.2323 921.601 96.371 921.265 97.5096C920.948 98.6296 920.481 99.6563 919.865 100.59C919.249 101.504 918.521 102.242 917.681 102.802C916.841 103.362 915.908 103.642 914.881 103.642ZM907.629 101.85C908.227 101.85 908.805 101.7 909.365 101.402C909.944 101.084 910.467 100.674 910.933 100.17C911.4 99.6656 911.773 99.115 912.053 98.5176C912.352 97.9016 912.52 97.295 912.557 96.6976C912.763 95.8016 912.763 95.055 912.557 94.4576C912.371 93.8603 912.035 93.4216 911.549 93.1416C911.064 92.843 910.495 92.6936 909.841 92.6936C909.132 92.6936 908.488 92.899 907.909 93.3096C907.331 93.7016 906.836 94.215 906.425 94.8496C906.033 95.4843 905.725 96.1656 905.501 96.8936C905.296 97.6216 905.193 98.3123 905.193 98.9656C905.193 99.8803 905.427 100.59 905.893 101.094C906.379 101.598 906.957 101.85 907.629 101.85ZM923.974 102.886C923.806 102.643 923.731 102.391 923.75 102.13C923.768 101.85 923.927 101.607 924.226 101.402C924.412 101.271 924.627 101.215 924.87 101.234C925.131 101.252 925.364 101.374 925.57 101.598C926.092 102.214 926.69 102.708 927.362 103.082C928.034 103.436 928.855 103.614 929.826 103.614C930.274 103.595 930.722 103.52 931.17 103.39C931.618 103.259 931.991 103.035 932.29 102.718C932.607 102.382 932.766 101.943 932.766 101.402C932.766 100.879 932.607 100.468 932.29 100.17C931.972 99.8523 931.562 99.6003 931.058 99.4136C930.554 99.2083 930.003 99.031 929.406 98.8816C928.79 98.7136 928.183 98.527 927.586 98.3216C926.988 98.0976 926.447 97.827 925.962 97.5096C925.495 97.1736 925.112 96.763 924.814 96.2776C924.534 95.7736 924.394 95.167 924.394 94.4576C924.394 93.6176 924.618 92.8896 925.066 92.2736C925.532 91.6576 926.148 91.1816 926.914 90.8456C927.698 90.5096 928.547 90.3416 929.462 90.3416C929.984 90.3416 930.526 90.407 931.086 90.5376C931.664 90.6496 932.224 90.855 932.766 91.1536C933.307 91.4336 933.783 91.8256 934.194 92.3296C934.362 92.5163 934.455 92.7496 934.474 93.0296C934.492 93.3096 934.371 93.5616 934.11 93.7856C933.904 93.935 933.671 94.0003 933.41 93.9816C933.167 93.963 932.962 93.8696 932.794 93.7016C932.402 93.235 931.907 92.8803 931.31 92.6376C930.731 92.3763 930.087 92.2456 929.378 92.2456C928.93 92.2456 928.491 92.311 928.062 92.4416C927.632 92.5723 927.268 92.7963 926.97 93.1136C926.69 93.4123 926.55 93.8323 926.55 94.3736C926.568 94.8776 926.736 95.2883 927.054 95.6056C927.371 95.923 927.8 96.1843 928.342 96.3896C928.883 96.5763 929.48 96.763 930.134 96.9496C930.731 97.099 931.3 97.2763 931.842 97.4816C932.402 97.6683 932.906 97.9203 933.354 98.2376C933.802 98.555 934.156 98.9656 934.418 99.4696C934.679 99.955 934.81 100.571 934.81 101.318C934.81 102.176 934.567 102.923 934.082 103.558C933.596 104.174 932.952 104.65 932.15 104.986C931.366 105.303 930.516 105.462 929.602 105.462C928.575 105.462 927.558 105.266 926.55 104.874C925.56 104.482 924.702 103.819 923.974 102.886ZM937.18 90.7896H943.76C944.058 90.7896 944.301 90.8923 944.488 91.0976C944.693 91.303 944.796 91.5456 944.796 91.8256C944.796 92.1243 944.693 92.3763 944.488 92.5816C944.301 92.7683 944.058 92.8616 943.76 92.8616H937.18C936.9 92.8616 936.657 92.759 936.452 92.5536C936.246 92.3483 936.144 92.0963 936.144 91.7976C936.144 91.5176 936.246 91.2843 936.452 91.0976C936.657 90.8923 936.9 90.7896 937.18 90.7896ZM940.12 86.9816C940.437 86.9816 940.698 87.0936 940.904 87.3176C941.109 87.523 941.212 87.7843 941.212 88.1016V101.626C941.212 102.074 941.277 102.41 941.408 102.634C941.538 102.858 941.706 103.016 941.912 103.11C942.136 103.184 942.35 103.222 942.556 103.222C942.742 103.222 942.901 103.194 943.032 103.138C943.181 103.063 943.349 103.026 943.536 103.026C943.722 103.026 943.89 103.119 944.04 103.306C944.208 103.474 944.292 103.698 944.292 103.978C944.292 104.314 944.096 104.603 943.704 104.846C943.312 105.07 942.873 105.182 942.388 105.182C942.126 105.182 941.8 105.163 941.408 105.126C941.034 105.088 940.661 104.967 940.288 104.762C939.914 104.556 939.597 104.22 939.336 103.754C939.093 103.268 938.972 102.596 938.972 101.738V88.1016C938.972 87.7843 939.084 87.523 939.308 87.3176C939.532 87.0936 939.802 86.9816 940.12 86.9816ZM958.439 90.7056C958.775 90.7056 959.046 90.8176 959.251 91.0416C959.457 91.247 959.559 91.5083 959.559 91.8256V99.4696C959.559 101.355 959.027 102.82 957.963 103.866C956.918 104.892 955.453 105.406 953.567 105.406C951.701 105.406 950.235 104.892 949.171 103.866C948.126 102.82 947.603 101.355 947.603 99.4696V91.8256C947.603 91.5083 947.706 91.247 947.911 91.0416C948.135 90.8176 948.406 90.7056 948.723 90.7056C949.059 90.7056 949.33 90.8176 949.535 91.0416C949.741 91.247 949.843 91.5083 949.843 91.8256V99.4696C949.843 100.739 950.17 101.7 950.823 102.354C951.477 103.007 952.391 103.334 953.567 103.334C954.781 103.334 955.705 103.007 956.339 102.354C956.993 101.7 957.319 100.739 957.319 99.4696V91.8256C957.319 91.5083 957.422 91.247 957.627 91.0416C957.851 90.8176 958.122 90.7056 958.439 90.7056ZM975.329 84.4616C975.646 84.4616 975.908 84.5736 976.113 84.7976C976.337 85.003 976.449 85.2643 976.449 85.5816V104.034C976.449 104.351 976.337 104.622 976.113 104.846C975.908 105.07 975.646 105.182 975.329 105.182C974.993 105.182 974.722 105.07 974.517 104.846C974.312 104.622 974.209 104.351 974.209 104.034V101.374L974.741 101.178C974.741 101.626 974.601 102.102 974.321 102.606C974.041 103.091 973.658 103.548 973.173 103.978C972.688 104.407 972.109 104.762 971.437 105.042C970.784 105.322 970.074 105.462 969.309 105.462C968.058 105.462 966.92 105.135 965.893 104.482C964.885 103.828 964.082 102.932 963.485 101.794C962.906 100.655 962.617 99.3576 962.617 97.9016C962.617 96.427 962.906 95.1203 963.485 93.9816C964.082 92.843 964.885 91.9563 965.893 91.3216C966.901 90.6683 968.021 90.3416 969.253 90.3416C970.037 90.3416 970.774 90.4723 971.465 90.7336C972.156 90.995 972.753 91.3496 973.257 91.7976C973.78 92.2456 974.19 92.7403 974.489 93.2816C974.788 93.823 974.937 94.3643 974.937 94.9056L974.209 94.7376V85.5816C974.209 85.2643 974.312 85.003 974.517 84.7976C974.722 84.5736 974.993 84.4616 975.329 84.4616ZM969.561 103.39C970.494 103.39 971.316 103.156 972.025 102.69C972.753 102.204 973.313 101.551 973.705 100.73C974.116 99.8896 974.321 98.947 974.321 97.9016C974.321 96.8376 974.116 95.895 973.705 95.0736C973.313 94.2523 972.753 93.6083 972.025 93.1416C971.316 92.6563 970.494 92.4136 969.561 92.4136C968.646 92.4136 967.825 92.6563 967.097 93.1416C966.388 93.6083 965.828 94.2523 965.417 95.0736C965.006 95.895 964.801 96.8376 964.801 97.9016C964.801 98.9283 965.006 99.8616 965.417 100.702C965.828 101.523 966.388 102.176 967.097 102.662C967.825 103.147 968.646 103.39 969.561 103.39ZM980.964 105.154C980.572 105.154 980.264 105.042 980.04 104.818C979.835 104.594 979.732 104.286 979.732 103.894V103.334C979.732 102.923 979.835 102.606 980.04 102.382C980.264 102.158 980.572 102.046 980.964 102.046H981.188C981.599 102.046 981.907 102.158 982.112 102.382C982.317 102.606 982.42 102.923 982.42 103.334V103.894C982.42 104.286 982.317 104.594 982.112 104.818C981.907 105.042 981.599 105.154 981.188 105.154H980.964ZM987.043 105.182C986.707 105.182 986.436 105.07 986.231 104.846C986.026 104.622 985.923 104.351 985.923 104.034V85.5816C985.923 85.2643 986.026 85.003 986.231 84.7976C986.436 84.5736 986.707 84.4616 987.043 84.4616C987.36 84.4616 987.622 84.5736 987.827 84.7976C988.051 85.003 988.163 85.2643 988.163 85.5816V104.034C988.163 104.351 988.051 104.622 987.827 104.846C987.622 105.07 987.36 105.182 987.043 105.182ZM996.339 90.6216C996.638 90.6216 996.89 90.743 997.095 90.9856C997.319 91.2096 997.431 91.443 997.431 91.6856C997.431 92.003 997.282 92.283 996.983 92.5256L987.911 100.45L987.827 97.8456L995.555 90.9576C995.779 90.7336 996.04 90.6216 996.339 90.6216ZM996.647 105.154C996.33 105.154 996.05 105.032 995.807 104.79L989.843 98.4336L991.523 96.8936L997.431 103.222C997.655 103.464 997.767 103.744 997.767 104.062C997.767 104.398 997.636 104.668 997.375 104.874C997.114 105.06 996.871 105.154 996.647 105.154ZM1006.77 105.462C1005.27 105.462 1003.97 105.144 1002.85 104.51C1001.73 103.875 1000.85 103.007 1000.21 101.906C999.599 100.786 999.291 99.4976 999.291 98.0416C999.291 96.4176 999.608 95.0363 1000.24 93.8976C1000.9 92.7403 1001.74 91.863 1002.76 91.2656C1003.81 90.6496 1004.91 90.3416 1006.07 90.3416C1006.93 90.3416 1007.76 90.5003 1008.56 90.8176C1009.36 91.135 1010.07 91.6016 1010.69 92.2176C1011.3 92.815 1011.8 93.543 1012.17 94.4016C1012.54 95.2416 1012.74 96.1843 1012.76 97.2296C1012.76 97.5283 1012.65 97.7803 1012.42 97.9856C1012.2 98.191 1011.94 98.2936 1011.64 98.2936H1000.58L1000.07 96.3616H1010.85L1010.41 96.7536V96.1376C1010.33 95.3723 1010.07 94.719 1009.62 94.1776C1009.19 93.6176 1008.66 93.1883 1008.03 92.8896C1007.41 92.591 1006.76 92.4416 1006.07 92.4416C1005.51 92.4416 1004.95 92.5443 1004.39 92.7496C1003.85 92.9363 1003.35 93.2536 1002.9 93.7016C1002.47 94.131 1002.12 94.691 1001.84 95.3816C1001.58 96.0723 1001.45 96.903 1001.45 97.8736C1001.45 98.9563 1001.66 99.9083 1002.09 100.73C1002.54 101.551 1003.15 102.204 1003.94 102.69C1004.72 103.156 1005.64 103.39 1006.68 103.39C1007.34 103.39 1007.91 103.306 1008.39 103.138C1008.88 102.97 1009.3 102.764 1009.65 102.522C1010.01 102.26 1010.3 101.999 1010.55 101.738C1010.79 101.57 1011.02 101.486 1011.25 101.486C1011.53 101.486 1011.75 101.579 1011.92 101.766C1012.11 101.952 1012.2 102.176 1012.2 102.438C1012.2 102.755 1012.05 103.035 1011.75 103.278C1011.23 103.856 1010.52 104.37 1009.62 104.818C1008.73 105.247 1007.77 105.462 1006.77 105.462ZM1027.85 90.5656C1028.17 90.5656 1028.43 90.6776 1028.64 90.9016C1028.86 91.107 1028.97 91.3683 1028.97 91.6856V104.034C1028.97 104.351 1028.86 104.622 1028.64 104.846C1028.43 105.07 1028.17 105.182 1027.85 105.182C1027.52 105.182 1027.25 105.07 1027.04 104.846C1026.84 104.622 1026.73 104.351 1026.73 104.034V101.374L1027.27 101.318C1027.27 101.728 1027.13 102.176 1026.85 102.662C1026.57 103.147 1026.18 103.604 1025.7 104.034C1025.21 104.444 1024.63 104.79 1023.96 105.07C1023.31 105.331 1022.6 105.462 1021.83 105.462C1020.57 105.462 1019.43 105.135 1018.42 104.482C1017.41 103.81 1016.61 102.904 1016.01 101.766C1015.43 100.627 1015.14 99.3296 1015.14 97.8736C1015.14 96.399 1015.43 95.1016 1016.01 93.9816C1016.61 92.843 1017.41 91.9563 1018.42 91.3216C1019.43 90.6683 1020.55 90.3416 1021.78 90.3416C1022.58 90.3416 1023.33 90.4723 1024.02 90.7336C1024.71 90.995 1025.31 91.3496 1025.81 91.7976C1026.33 92.2456 1026.73 92.7403 1027.01 93.2816C1027.31 93.823 1027.46 94.3643 1027.46 94.9056L1026.73 94.7376V91.6856C1026.73 91.3683 1026.84 91.107 1027.04 90.9016C1027.25 90.6776 1027.52 90.5656 1027.85 90.5656ZM1022.09 103.39C1023.02 103.39 1023.84 103.147 1024.55 102.662C1025.28 102.176 1025.84 101.523 1026.23 100.702C1026.64 99.8616 1026.85 98.919 1026.85 97.8736C1026.85 96.847 1026.64 95.923 1026.23 95.1016C1025.84 94.2616 1025.28 93.6083 1024.55 93.1416C1023.84 92.6563 1023.02 92.4136 1022.09 92.4136C1021.17 92.4136 1020.35 92.647 1019.62 93.1136C1018.91 93.5803 1018.35 94.2243 1017.94 95.0456C1017.53 95.867 1017.33 96.8096 1017.33 97.8736C1017.33 98.919 1017.52 99.8616 1017.91 100.702C1018.33 101.523 1018.89 102.176 1019.59 102.662C1020.32 103.147 1021.15 103.39 1022.09 103.39ZM1033.49 105.154C1033.1 105.154 1032.79 105.042 1032.57 104.818C1032.36 104.594 1032.26 104.286 1032.26 103.894V103.334C1032.26 102.923 1032.36 102.606 1032.57 102.382C1032.79 102.158 1033.1 102.046 1033.49 102.046H1033.71C1034.12 102.046 1034.43 102.158 1034.64 102.382C1034.84 102.606 1034.95 102.923 1034.95 103.334V103.894C1034.95 104.286 1034.84 104.594 1034.64 104.818C1034.43 105.042 1034.12 105.154 1033.71 105.154H1033.49ZM1050.15 84.4616C1050.47 84.4616 1050.73 84.5736 1050.94 84.7976C1051.16 85.003 1051.27 85.2643 1051.27 85.5816V104.034C1051.27 104.351 1051.16 104.622 1050.94 104.846C1050.73 105.07 1050.47 105.182 1050.15 105.182C1049.82 105.182 1049.55 105.07 1049.34 104.846C1049.14 104.622 1049.03 104.351 1049.03 104.034V101.374L1049.56 101.178C1049.56 101.626 1049.42 102.102 1049.14 102.606C1048.86 103.091 1048.48 103.548 1048 103.978C1047.51 104.407 1046.93 104.762 1046.26 105.042C1045.61 105.322 1044.9 105.462 1044.13 105.462C1042.88 105.462 1041.74 105.135 1040.72 104.482C1039.71 103.828 1038.91 102.932 1038.31 101.794C1037.73 100.655 1037.44 99.3576 1037.44 97.9016C1037.44 96.427 1037.73 95.1203 1038.31 93.9816C1038.91 92.843 1039.71 91.9563 1040.72 91.3216C1041.72 90.6683 1042.84 90.3416 1044.08 90.3416C1044.86 90.3416 1045.6 90.4723 1046.29 90.7336C1046.98 90.995 1047.58 91.3496 1048.08 91.7976C1048.6 92.2456 1049.01 92.7403 1049.31 93.2816C1049.61 93.823 1049.76 94.3643 1049.76 94.9056L1049.03 94.7376V85.5816C1049.03 85.2643 1049.14 85.003 1049.34 84.7976C1049.55 84.5736 1049.82 84.4616 1050.15 84.4616ZM1044.38 103.39C1045.32 103.39 1046.14 103.156 1046.85 102.69C1047.58 102.204 1048.14 101.551 1048.53 100.73C1048.94 99.8896 1049.14 98.947 1049.14 97.9016C1049.14 96.8376 1048.94 95.895 1048.53 95.0736C1048.14 94.2523 1047.58 93.6083 1046.85 93.1416C1046.14 92.6563 1045.32 92.4136 1044.38 92.4136C1043.47 92.4136 1042.65 92.6563 1041.92 93.1416C1041.21 93.6083 1040.65 94.2523 1040.24 95.0736C1039.83 95.895 1039.62 96.8376 1039.62 97.9016C1039.62 98.9283 1039.83 99.8616 1040.24 100.702C1040.65 101.523 1041.21 102.176 1041.92 102.662C1042.65 103.147 1043.47 103.39 1044.38 103.39ZM1056.46 105.182C1056.12 105.182 1055.85 105.07 1055.65 104.846C1055.44 104.622 1055.34 104.351 1055.34 104.034V85.5816C1055.34 85.2643 1055.44 85.003 1055.65 84.7976C1055.85 84.5736 1056.12 84.4616 1056.46 84.4616C1056.78 84.4616 1057.04 84.5736 1057.24 84.7976C1057.47 85.003 1057.58 85.2643 1057.58 85.5816V104.034C1057.58 104.351 1057.47 104.622 1057.24 104.846C1057.04 105.07 1056.78 105.182 1056.46 105.182ZM1065.76 90.6216C1066.05 90.6216 1066.31 90.743 1066.51 90.9856C1066.74 91.2096 1066.85 91.443 1066.85 91.6856C1066.85 92.003 1066.7 92.283 1066.4 92.5256L1057.33 100.45L1057.24 97.8456L1064.97 90.9576C1065.2 90.7336 1065.46 90.6216 1065.76 90.6216ZM1066.06 105.154C1065.75 105.154 1065.47 105.032 1065.22 104.79L1059.26 98.4336L1060.94 96.8936L1066.85 103.222C1067.07 103.464 1067.18 103.744 1067.18 104.062C1067.18 104.398 1067.05 104.668 1066.79 104.874C1066.53 105.06 1066.29 105.154 1066.06 105.154Z" fill="white"/>
</svg>
