<svg width="1736" height="161" viewBox="0 0 1736 161" fill="none" xmlns="http://www.w3.org/2000/svg">
<rect width="1736" height="160.712" rx="6" fill="#4F5057"/>
<ellipse cx="1062.5" cy="80.9223" rx="1.5" ry="1.69767" fill="#F7FF85"/>
<ellipse cx="987.5" cy="60.5502" rx="1.5" ry="1.69767" fill="#F7FF85"/>
<ellipse cx="888.5" cy="114.875" rx="1.5" ry="1.69767" fill="#F7FF85"/>
<ellipse cx="675.5" cy="102.426" rx="1.5" ry="1.69767" fill="#F7FF85"/>
<ellipse cx="770.5" cy="110.348" rx="1.5" ry="1.69767" fill="#F7FF85"/>
<ellipse cx="772" cy="46.4027" rx="3" ry="3.39533" fill="#F7FF85"/>
<ellipse cx="989" cy="122.232" rx="3" ry="3.39533" fill="#F7FF85"/>
<ellipse cx="656" cy="61.116" rx="4" ry="4.52711" fill="#F7FF85"/>
<ellipse cx="1022" cy="71.302" rx="4" ry="4.52711" fill="#F7FF85"/>
<ellipse cx="923" cy="130.155" rx="4" ry="4.52711" fill="#F7FF85"/>
<ellipse cx="740" cy="112.046" rx="4" ry="4.52711" fill="#F7FF85"/>
<ellipse cx="1323" cy="56.5887" rx="3" ry="3.39533" fill="#F7FF85"/>
<ellipse cx="1446" cy="91.6741" rx="3" ry="3.39533" fill="#F7FF85"/>
<ellipse cx="1686" cy="84.8831" rx="3" ry="3.39533" fill="#F7FF85"/>
<ellipse cx="1634" cy="102.992" rx="4" ry="4.52711" fill="#F7FF85"/>
<ellipse cx="818" cy="115.441" rx="3" ry="3.39533" fill="#F7FF85"/>
<ellipse cx="418" cy="29.4261" rx="3" ry="3.39533" fill="#F7FF85"/>
<ellipse cx="1308" cy="33.9534" rx="3" ry="3.39533" fill="#F7FF85"/>
<ellipse cx="1518" cy="46.4027" rx="3" ry="3.39533" fill="#F7FF85"/>
<ellipse cx="1528" cy="105.255" rx="3" ry="3.39533" fill="#F7FF85"/>
<ellipse cx="179" cy="45.2713" rx="3" ry="3.39533" fill="#F7FF85"/>
<ellipse cx="945" cy="43.0076" rx="3" ry="3.39533" fill="#F7FF85"/>
<ellipse cx="490" cy="40.744" rx="3" ry="3.39533" fill="#F7FF85"/>
<ellipse cx="649.5" cy="123.93" rx="1.5" ry="1.69767" fill="#F7FF85"/>
<ellipse cx="584" cy="62.2479" rx="3" ry="3.39533" fill="#F7FF85"/>
<ellipse cx="1184" cy="121.1" rx="3" ry="3.39533" fill="#F7FF85"/>
<ellipse cx="1084" cy="33.9534" rx="3" ry="3.39533" fill="#F7FF85"/>
<ellipse cx="1407" cy="39.6121" rx="3" ry="3.39533" fill="#F7FF85"/>
<ellipse cx="353" cy="114.309" rx="3" ry="3.39533" fill="#F7FF85"/>
<ellipse cx="190" cy="117.705" rx="3" ry="3.39533" fill="#F7FF85"/>
<ellipse cx="82" cy="29.4261" rx="3" ry="3.39533" fill="#F7FF85"/>
<ellipse cx="861" cy="45.2713" rx="3" ry="3.39533" fill="#F7FF85"/>
<ellipse cx="1107" cy="91.6741" rx="3" ry="3.39533" fill="#F7FF85"/>
<ellipse cx="356.5" cy="45.2709" rx="2.5" ry="2.26356" fill="#F7FF85"/>
<ellipse cx="573" cy="112.046" rx="3" ry="3.39533" fill="#F7FF85"/>
<ellipse cx="1063" cy="114.309" rx="3" ry="3.39533" fill="#F7FF85"/>
<ellipse cx="92" cy="114.309" rx="4" ry="4.52711" fill="#F7FF85"/>
<ellipse cx="1207" cy="44.1394" rx="4" ry="4.52711" fill="#F7FF85"/>
<ellipse cx="1479" cy="126.759" rx="4" ry="4.52711" fill="#F7FF85"/>
<ellipse cx="1626" cy="58.8523" rx="4" ry="4.52711" fill="#F7FF85"/>
<ellipse cx="1345" cy="110.914" rx="4" ry="4.52711" fill="#F7FF85"/>
<ellipse cx="1240" cy="92.8059" rx="4" ry="4.52711" fill="#F7FF85"/>
<ellipse cx="311" cy="73.5657" rx="4" ry="4.52711" fill="#F7FF85"/>
<ellipse cx="515" cy="78.0925" rx="4" ry="4.52711" fill="#F7FF85"/>
<ellipse cx="397" cy="84.8836" rx="4" ry="4.52711" fill="#F7FF85"/>
<ellipse cx="39" cy="87.1467" rx="4" ry="4.52711" fill="#F7FF85"/>
<ellipse cx="1688" cy="29.426" rx="4" ry="4.52711" fill="#F7FF85"/>
<ellipse cx="1163" cy="45.2713" rx="4" ry="4.52711" fill="#F7FF85"/>
<ellipse cx="1302" cy="70.1702" rx="3" ry="3.39533" fill="#F7FF85"/>
</svg>
