<svg width="1728" height="198" viewBox="0 0 1728 198" fill="none" xmlns="http://www.w3.org/2000/svg">
<rect width="1734" height="206" rx="6" fill="#4F5057"/>
<ellipse cx="904" cy="187.273" rx="4" ry="6.24242" fill="#F7FF85"/>
<ellipse cx="721" cy="162.303" rx="4" ry="6.24242" fill="#F7FF85"/>
<ellipse cx="1304" cy="85.8332" rx="3" ry="4.68182" fill="#F7FF85"/>
<ellipse cx="1427" cy="134.212" rx="3" ry="4.68182" fill="#F7FF85"/>
<ellipse cx="1667" cy="124.849" rx="3" ry="4.68182" fill="#F7FF85"/>
<ellipse cx="1615" cy="149.819" rx="4" ry="6.24242" fill="#F7FF85"/>
<ellipse cx="799" cy="166.985" rx="3" ry="4.68182" fill="#F7FF85"/>
<ellipse cx="399" cy="48.3791" rx="3" ry="4.68182" fill="#F7FF85"/>
<ellipse cx="1289" cy="54.6213" rx="3" ry="4.68182" fill="#F7FF85"/>
<ellipse cx="1499" cy="71.7883" rx="3" ry="4.68182" fill="#F7FF85"/>
<ellipse cx="1509" cy="152.939" rx="3" ry="4.68182" fill="#F7FF85"/>
<ellipse cx="160" cy="70.2277" rx="3" ry="4.68182" fill="#F7FF85"/>
<ellipse cx="725" cy="31.2121" rx="3" ry="4.68182" fill="#F7FF85"/>
<ellipse cx="471" cy="63.9846" rx="3" ry="4.68182" fill="#F7FF85"/>
<ellipse cx="632" cy="176.349" rx="3" ry="4.68182" fill="#F7FF85"/>
<ellipse cx="565" cy="93.6359" rx="3" ry="4.68182" fill="#F7FF85"/>
<ellipse cx="1165" cy="174.788" rx="3" ry="4.68182" fill="#F7FF85"/>
<ellipse cx="988" cy="49.9387" rx="3" ry="4.68182" fill="#F7FF85"/>
<ellipse cx="1065" cy="54.6213" rx="3" ry="4.68182" fill="#F7FF85"/>
<ellipse cx="1388" cy="62.425" rx="3" ry="4.68182" fill="#F7FF85"/>
<ellipse cx="334" cy="165.425" rx="3" ry="4.68182" fill="#F7FF85"/>
<ellipse cx="171" cy="170.106" rx="3" ry="4.68182" fill="#F7FF85"/>
<ellipse cx="63" cy="48.3791" rx="3" ry="4.68182" fill="#F7FF85"/>
<ellipse cx="842" cy="49.9387" rx="3" ry="4.68182" fill="#F7FF85"/>
<ellipse cx="1088" cy="134.212" rx="3" ry="4.68182" fill="#F7FF85"/>
<ellipse cx="337.5" cy="70.2277" rx="2.5" ry="3.12121" fill="#F7FF85"/>
<ellipse cx="554" cy="162.303" rx="3" ry="4.68182" fill="#F7FF85"/>
<ellipse cx="1044" cy="165.425" rx="3" ry="4.68182" fill="#F7FF85"/>
<ellipse cx="73" cy="165.425" rx="4" ry="6.24242" fill="#F7FF85"/>
<ellipse cx="1188" cy="68.6663" rx="4" ry="6.24242" fill="#F7FF85"/>
<ellipse cx="1460" cy="182.59" rx="4" ry="6.24242" fill="#F7FF85"/>
<ellipse cx="1607" cy="88.9553" rx="4" ry="6.24242" fill="#F7FF85"/>
<ellipse cx="1326" cy="160.742" rx="4" ry="6.24242" fill="#F7FF85"/>
<ellipse cx="1221" cy="135.773" rx="4" ry="6.24242" fill="#F7FF85"/>
<ellipse cx="292" cy="109.242" rx="4" ry="6.24242" fill="#F7FF85"/>
<ellipse cx="496" cy="115.486" rx="4" ry="6.24242" fill="#F7FF85"/>
<ellipse cx="378" cy="124.849" rx="4" ry="6.24242" fill="#F7FF85"/>
<ellipse cx="20" cy="127.97" rx="4" ry="6.24242" fill="#F7FF85"/>
<ellipse cx="1669" cy="48.3791" rx="4" ry="6.24242" fill="#F7FF85"/>
<ellipse cx="1144" cy="70.2268" rx="4" ry="6.24242" fill="#F7FF85"/>
<ellipse cx="1283" cy="104.561" rx="3" ry="4.68182" fill="#F7FF85"/>
<path d="M662.624 120.064C662.24 120.064 661.92 119.904 661.664 119.584L653.152 108.736L655.104 106.752L663.776 117.856C663.968 118.133 664.064 118.421 664.064 118.72C664.064 119.147 663.904 119.477 663.584 119.712C663.285 119.947 662.965 120.064 662.624 120.064ZM662.528 97.568C662.869 97.568 663.147 97.7067 663.36 97.984C663.595 98.2613 663.712 98.5493 663.712 98.848C663.712 99.1467 663.584 99.424 663.328 99.68L649.184 113.056L648.96 110.08L661.504 98.048C661.824 97.728 662.165 97.568 662.528 97.568ZM648.128 120C647.723 120 647.403 119.872 647.168 119.616C646.933 119.36 646.816 119.051 646.816 118.688V98.912C646.816 98.528 646.944 98.2187 647.2 97.984C647.456 97.728 647.776 97.6 648.16 97.6C648.565 97.6 648.885 97.728 649.12 97.984C649.355 98.2187 649.472 98.528 649.472 98.912V118.688C649.472 119.051 649.344 119.36 649.088 119.616C648.853 119.872 648.533 120 648.128 120ZM682.447 111.68C682.447 113.344 682.073 114.827 681.327 116.128C680.601 117.429 679.609 118.453 678.351 119.2C677.113 119.947 675.716 120.32 674.159 120.32C672.601 120.32 671.193 119.947 669.935 119.2C668.676 118.453 667.673 117.429 666.927 116.128C666.201 114.827 665.839 113.344 665.839 111.68C665.839 110.016 666.201 108.533 666.927 107.232C667.673 105.931 668.676 104.907 669.935 104.16C671.193 103.413 672.601 103.04 674.159 103.04C675.716 103.04 677.113 103.413 678.351 104.16C679.609 104.907 680.601 105.931 681.327 107.232C682.073 108.533 682.447 110.016 682.447 111.68ZM679.887 111.68C679.887 110.443 679.631 109.355 679.119 108.416C678.628 107.477 677.945 106.741 677.071 106.208C676.217 105.675 675.247 105.408 674.159 105.408C673.071 105.408 672.089 105.675 671.215 106.208C670.361 106.741 669.679 107.477 669.167 108.416C668.655 109.355 668.399 110.443 668.399 111.68C668.399 112.896 668.655 113.973 669.167 114.912C669.679 115.851 670.361 116.597 671.215 117.152C672.089 117.685 673.071 117.952 674.159 117.952C675.247 117.952 676.217 117.685 677.071 117.152C677.945 116.597 678.628 115.851 679.119 114.912C679.631 113.973 679.887 112.896 679.887 111.68ZM694.169 103.04C695.62 103.04 696.761 103.339 697.593 103.936C698.425 104.533 699.012 105.333 699.353 106.336C699.716 107.339 699.897 108.459 699.897 109.696V118.688C699.897 119.051 699.769 119.36 699.513 119.616C699.279 119.872 698.98 120 698.617 120C698.255 120 697.945 119.872 697.689 119.616C697.455 119.36 697.337 119.051 697.337 118.688V109.76C697.337 108.949 697.209 108.224 696.953 107.584C696.719 106.923 696.313 106.4 695.737 106.016C695.183 105.611 694.415 105.408 693.433 105.408C692.537 105.408 691.716 105.611 690.969 106.016C690.223 106.4 689.625 106.923 689.177 107.584C688.729 108.224 688.505 108.949 688.505 109.76V118.688C688.505 119.051 688.377 119.36 688.121 119.616C687.887 119.872 687.588 120 687.225 120C686.863 120 686.553 119.872 686.297 119.616C686.063 119.36 685.945 119.051 685.945 118.688V104.736C685.945 104.373 686.063 104.075 686.297 103.84C686.553 103.584 686.863 103.456 687.225 103.456C687.609 103.456 687.919 103.584 688.153 103.84C688.388 104.075 688.505 104.373 688.505 104.736V107.008L687.865 107.712C687.972 107.157 688.217 106.603 688.601 106.048C688.985 105.472 689.465 104.96 690.041 104.512C690.617 104.064 691.257 103.712 691.961 103.456C692.665 103.179 693.401 103.04 694.169 103.04ZM703.641 103.552H711.161C711.502 103.552 711.779 103.669 711.993 103.904C712.227 104.139 712.345 104.416 712.345 104.736C712.345 105.077 712.227 105.365 711.993 105.6C711.779 105.813 711.502 105.92 711.161 105.92H703.641C703.321 105.92 703.043 105.803 702.809 105.568C702.574 105.333 702.457 105.045 702.457 104.704C702.457 104.384 702.574 104.117 702.809 103.904C703.043 103.669 703.321 103.552 703.641 103.552ZM707.001 99.2C707.363 99.2 707.662 99.328 707.897 99.584C708.131 99.8187 708.249 100.117 708.249 100.48V115.936C708.249 116.448 708.323 116.832 708.473 117.088C708.622 117.344 708.814 117.525 709.049 117.632C709.305 117.717 709.55 117.76 709.785 117.76C709.998 117.76 710.179 117.728 710.329 117.664C710.499 117.579 710.691 117.536 710.905 117.536C711.118 117.536 711.31 117.643 711.481 117.856C711.673 118.048 711.769 118.304 711.769 118.624C711.769 119.008 711.545 119.339 711.097 119.616C710.649 119.872 710.147 120 709.593 120C709.294 120 708.921 119.979 708.473 119.936C708.046 119.893 707.619 119.755 707.193 119.52C706.766 119.285 706.403 118.901 706.105 118.368C705.827 117.813 705.689 117.045 705.689 116.064V100.48C705.689 100.117 705.817 99.8187 706.073 99.584C706.329 99.328 706.638 99.2 707.001 99.2ZM729.186 103.296C729.548 103.296 729.847 103.424 730.082 103.68C730.338 103.915 730.466 104.213 730.466 104.576V118.688C730.466 119.051 730.338 119.36 730.082 119.616C729.847 119.872 729.548 120 729.186 120C728.802 120 728.492 119.872 728.258 119.616C728.023 119.36 727.906 119.051 727.906 118.688V115.648L728.514 115.584C728.514 116.053 728.354 116.565 728.034 117.12C727.714 117.675 727.276 118.197 726.722 118.688C726.167 119.157 725.506 119.552 724.738 119.872C723.991 120.171 723.18 120.32 722.306 120.32C720.855 120.32 719.554 119.947 718.402 119.2C717.25 118.432 716.332 117.397 715.65 116.096C714.988 114.795 714.658 113.312 714.658 111.648C714.658 109.963 714.988 108.48 715.65 107.2C716.332 105.899 717.25 104.885 718.402 104.16C719.554 103.413 720.834 103.04 722.242 103.04C723.159 103.04 724.012 103.189 724.802 103.488C725.591 103.787 726.274 104.192 726.85 104.704C727.447 105.216 727.906 105.781 728.226 106.4C728.567 107.019 728.738 107.637 728.738 108.256L727.906 108.064V104.576C727.906 104.213 728.023 103.915 728.258 103.68C728.492 103.424 728.802 103.296 729.186 103.296ZM722.594 117.952C723.66 117.952 724.599 117.675 725.41 117.12C726.242 116.565 726.882 115.819 727.33 114.88C727.799 113.92 728.034 112.843 728.034 111.648C728.034 110.475 727.799 109.419 727.33 108.48C726.882 107.52 726.242 106.773 725.41 106.24C724.599 105.685 723.66 105.408 722.594 105.408C721.548 105.408 720.61 105.675 719.778 106.208C718.967 106.741 718.327 107.477 717.858 108.416C717.388 109.355 717.154 110.432 717.154 111.648C717.154 112.843 717.378 113.92 717.826 114.88C718.295 115.819 718.935 116.565 719.746 117.12C720.578 117.675 721.527 117.952 722.594 117.952ZM736.394 120C736.01 120 735.701 119.872 735.466 119.616C735.231 119.36 735.114 119.051 735.114 118.688V97.6C735.114 97.2373 735.231 96.9387 735.466 96.704C735.701 96.448 736.01 96.32 736.394 96.32C736.757 96.32 737.055 96.448 737.29 96.704C737.546 96.9387 737.674 97.2373 737.674 97.6V118.688C737.674 119.051 737.546 119.36 737.29 119.616C737.055 119.872 736.757 120 736.394 120ZM747.018 103.36C747.359 103.36 747.647 103.499 747.882 103.776C748.138 104.032 748.266 104.299 748.266 104.576C748.266 104.939 748.095 105.259 747.754 105.536L737.386 114.592L737.29 111.616L746.122 103.744C746.378 103.488 746.677 103.36 747.018 103.36ZM747.37 119.968C747.007 119.968 746.687 119.829 746.41 119.552L739.594 112.288L741.514 110.528L748.266 117.76C748.522 118.037 748.65 118.357 748.65 118.72C748.65 119.104 748.501 119.413 748.202 119.648C747.903 119.861 747.626 119.968 747.37 119.968ZM751.366 103.552H758.886C759.227 103.552 759.505 103.669 759.718 103.904C759.953 104.139 760.07 104.416 760.07 104.736C760.07 105.077 759.953 105.365 759.718 105.6C759.505 105.813 759.227 105.92 758.886 105.92H751.366C751.046 105.92 750.769 105.803 750.534 105.568C750.299 105.333 750.182 105.045 750.182 104.704C750.182 104.384 750.299 104.117 750.534 103.904C750.769 103.669 751.046 103.552 751.366 103.552ZM754.726 99.2C755.089 99.2 755.387 99.328 755.622 99.584C755.857 99.8187 755.974 100.117 755.974 100.48V115.936C755.974 116.448 756.049 116.832 756.198 117.088C756.347 117.344 756.539 117.525 756.774 117.632C757.03 117.717 757.275 117.76 757.51 117.76C757.723 117.76 757.905 117.728 758.054 117.664C758.225 117.579 758.417 117.536 758.63 117.536C758.843 117.536 759.035 117.643 759.206 117.856C759.398 118.048 759.494 118.304 759.494 118.624C759.494 119.008 759.27 119.339 758.822 119.616C758.374 119.872 757.873 120 757.318 120C757.019 120 756.646 119.979 756.198 119.936C755.771 119.893 755.345 119.755 754.918 119.52C754.491 119.285 754.129 118.901 753.83 118.368C753.553 117.813 753.414 117.045 753.414 116.064V100.48C753.414 100.117 753.542 99.8187 753.798 99.584C754.054 99.328 754.363 99.2 754.726 99.2ZM764.239 106.944C763.791 106.944 763.439 106.816 763.183 106.56C762.948 106.283 762.831 105.92 762.831 105.472V104.832C762.831 104.384 762.948 104.032 763.183 103.776C763.439 103.52 763.791 103.392 764.239 103.392H764.495C764.964 103.392 765.316 103.52 765.551 103.776C765.786 104.032 765.903 104.384 765.903 104.832V105.472C765.903 105.92 765.786 106.283 765.551 106.56C765.316 106.816 764.964 106.944 764.495 106.944H764.239ZM764.239 120C763.791 120 763.439 119.872 763.183 119.616C762.948 119.339 762.831 118.976 762.831 118.528V117.888C762.831 117.44 762.948 117.088 763.183 116.832C763.439 116.576 763.791 116.448 764.239 116.448H764.495C764.964 116.448 765.316 116.576 765.551 116.832C765.786 117.088 765.903 117.44 765.903 117.888V118.528C765.903 118.976 765.786 119.339 765.551 119.616C765.316 119.872 764.964 120 764.495 120H764.239ZM786.198 103.2C787.648 103.2 788.822 103.573 789.718 104.32C790.635 105.045 791.243 106.08 791.542 107.424H791.062L791.286 106.848C791.542 106.251 791.979 105.675 792.598 105.12C793.216 104.565 793.931 104.107 794.742 103.744C795.552 103.381 796.395 103.2 797.27 103.2C798.678 103.2 799.787 103.509 800.598 104.128C801.408 104.725 801.984 105.536 802.326 106.56C802.688 107.563 802.87 108.693 802.87 109.952V118.688C802.87 119.051 802.742 119.36 802.486 119.616C802.251 119.872 801.952 120 801.59 120C801.206 120 800.896 119.872 800.662 119.616C800.427 119.36 800.31 119.051 800.31 118.688V110.016C800.31 109.184 800.182 108.437 799.926 107.776C799.691 107.093 799.296 106.56 798.742 106.176C798.208 105.771 797.472 105.568 796.534 105.568C795.659 105.568 794.859 105.771 794.134 106.176C793.408 106.56 792.832 107.093 792.406 107.776C791.979 108.437 791.766 109.184 791.766 110.016V118.688C791.766 119.051 791.648 119.36 791.414 119.616C791.179 119.872 790.87 120 790.486 120C790.123 120 789.814 119.872 789.558 119.616C789.323 119.36 789.206 119.051 789.206 118.688V109.92C789.206 109.109 789.088 108.384 788.854 107.744C788.64 107.083 788.267 106.56 787.734 106.176C787.2 105.771 786.464 105.568 785.526 105.568C784.672 105.568 783.894 105.771 783.19 106.176C782.486 106.56 781.92 107.083 781.494 107.744C781.067 108.384 780.854 109.109 780.854 109.92V118.688C780.854 119.051 780.726 119.36 780.47 119.616C780.235 119.872 779.936 120 779.574 120C779.211 120 778.902 119.872 778.646 119.616C778.411 119.36 778.294 119.051 778.294 118.688V104.736C778.294 104.373 778.411 104.075 778.646 103.84C778.902 103.584 779.211 103.456 779.574 103.456C779.958 103.456 780.267 103.584 780.502 103.84C780.736 104.075 780.854 104.373 780.854 104.736V107.168L780.15 107.936C780.235 107.381 780.448 106.827 780.79 106.272C781.152 105.717 781.611 105.205 782.166 104.736C782.72 104.267 783.339 103.893 784.022 103.616C784.704 103.339 785.43 103.2 786.198 103.2ZM809.718 118.688C809.718 119.051 809.59 119.36 809.334 119.616C809.1 119.872 808.801 120 808.438 120C808.054 120 807.745 119.872 807.51 119.616C807.276 119.36 807.158 119.051 807.158 118.688V104.48C807.158 104.117 807.276 103.819 807.51 103.584C807.766 103.328 808.076 103.2 808.438 103.2C808.801 103.2 809.1 103.328 809.334 103.584C809.59 103.819 809.718 104.117 809.718 104.48V118.688ZM808.438 101.056C807.905 101.056 807.51 100.949 807.254 100.736C806.998 100.523 806.87 100.192 806.87 99.744V99.296C806.87 98.848 807.009 98.5173 807.286 98.304C807.564 98.0907 807.958 97.984 808.47 97.984C808.982 97.984 809.366 98.0907 809.622 98.304C809.878 98.5173 810.006 98.848 810.006 99.296V99.744C810.006 100.192 809.868 100.523 809.59 100.736C809.334 100.949 808.95 101.056 808.438 101.056ZM821.869 103.2C823.319 103.2 824.493 103.573 825.389 104.32C826.306 105.045 826.914 106.08 827.213 107.424H826.733L826.957 106.848C827.213 106.251 827.65 105.675 828.269 105.12C828.887 104.565 829.602 104.107 830.413 103.744C831.223 103.381 832.066 103.2 832.941 103.2C834.349 103.2 835.458 103.509 836.269 104.128C837.079 104.725 837.655 105.536 837.997 106.56C838.359 107.563 838.541 108.693 838.541 109.952V118.688C838.541 119.051 838.413 119.36 838.157 119.616C837.922 119.872 837.623 120 837.261 120C836.877 120 836.567 119.872 836.333 119.616C836.098 119.36 835.981 119.051 835.981 118.688V110.016C835.981 109.184 835.853 108.437 835.597 107.776C835.362 107.093 834.967 106.56 834.413 106.176C833.879 105.771 833.143 105.568 832.205 105.568C831.33 105.568 830.53 105.771 829.805 106.176C829.079 106.56 828.503 107.093 828.077 107.776C827.65 108.437 827.437 109.184 827.437 110.016V118.688C827.437 119.051 827.319 119.36 827.085 119.616C826.85 119.872 826.541 120 826.157 120C825.794 120 825.485 119.872 825.229 119.616C824.994 119.36 824.877 119.051 824.877 118.688V109.92C824.877 109.109 824.759 108.384 824.525 107.744C824.311 107.083 823.938 106.56 823.405 106.176C822.871 105.771 822.135 105.568 821.197 105.568C820.343 105.568 819.565 105.771 818.861 106.176C818.157 106.56 817.591 107.083 817.165 107.744C816.738 108.384 816.525 109.109 816.525 109.92V118.688C816.525 119.051 816.397 119.36 816.141 119.616C815.906 119.872 815.607 120 815.245 120C814.882 120 814.573 119.872 814.317 119.616C814.082 119.36 813.965 119.051 813.965 118.688V104.736C813.965 104.373 814.082 104.075 814.317 103.84C814.573 103.584 814.882 103.456 815.245 103.456C815.629 103.456 815.938 103.584 816.173 103.84C816.407 104.075 816.525 104.373 816.525 104.736V107.168L815.821 107.936C815.906 107.381 816.119 106.827 816.461 106.272C816.823 105.717 817.282 105.205 817.837 104.736C818.391 104.267 819.01 103.893 819.693 103.616C820.375 103.339 821.101 103.2 821.869 103.2ZM845.389 118.688C845.389 119.051 845.261 119.36 845.005 119.616C844.771 119.872 844.472 120 844.109 120C843.725 120 843.416 119.872 843.181 119.616C842.947 119.36 842.829 119.051 842.829 118.688V104.48C842.829 104.117 842.947 103.819 843.181 103.584C843.437 103.328 843.747 103.2 844.109 103.2C844.472 103.2 844.771 103.328 845.005 103.584C845.261 103.819 845.389 104.117 845.389 104.48V118.688ZM844.109 101.056C843.576 101.056 843.181 100.949 842.925 100.736C842.669 100.523 842.541 100.192 842.541 99.744V99.296C842.541 98.848 842.68 98.5173 842.957 98.304C843.235 98.0907 843.629 97.984 844.141 97.984C844.653 97.984 845.037 98.0907 845.293 98.304C845.549 98.5173 845.677 98.848 845.677 99.296V99.744C845.677 100.192 845.539 100.523 845.261 100.736C845.005 100.949 844.621 101.056 844.109 101.056ZM856.9 120.32C855.129 120.32 853.646 119.819 852.452 118.816C851.278 117.813 850.382 116.437 849.764 114.688C849.166 112.939 848.868 110.976 848.868 108.8C848.868 106.581 849.166 104.608 849.764 102.88C850.382 101.152 851.278 99.7867 852.452 98.784C853.646 97.7813 855.129 97.28 856.9 97.28C858.67 97.28 860.142 97.7813 861.316 98.784C862.51 99.7867 863.406 101.152 864.004 102.88C864.601 104.608 864.9 106.581 864.9 108.8C864.9 110.976 864.601 112.939 864.004 114.688C863.406 116.437 862.51 117.813 861.316 118.816C860.142 119.819 858.67 120.32 856.9 120.32ZM856.9 117.728C858.03 117.728 858.98 117.365 859.748 116.64C860.537 115.915 861.134 114.891 861.54 113.568C861.945 112.224 862.148 110.635 862.148 108.8C862.148 106.944 861.945 105.355 861.54 104.032C861.134 102.688 860.537 101.664 859.748 100.96C858.98 100.235 858.03 99.872 856.9 99.872C855.769 99.872 854.809 100.235 854.02 100.96C853.252 101.664 852.654 102.688 852.228 104.032C851.822 105.355 851.62 106.944 851.62 108.8C851.62 110.635 851.822 112.224 852.228 113.568C852.654 114.891 853.252 115.915 854.02 116.64C854.809 117.365 855.769 117.728 856.9 117.728ZM875.767 120.32C873.996 120.32 872.513 119.819 871.319 118.816C870.145 117.813 869.249 116.437 868.631 114.688C868.033 112.939 867.735 110.976 867.735 108.8C867.735 106.581 868.033 104.608 868.631 102.88C869.249 101.152 870.145 99.7867 871.319 98.784C872.513 97.7813 873.996 97.28 875.767 97.28C877.537 97.28 879.009 97.7813 880.183 98.784C881.377 99.7867 882.273 101.152 882.871 102.88C883.468 104.608 883.767 106.581 883.767 108.8C883.767 110.976 883.468 112.939 882.871 114.688C882.273 116.437 881.377 117.813 880.183 118.816C879.009 119.819 877.537 120.32 875.767 120.32ZM875.767 117.728C876.897 117.728 877.847 117.365 878.615 116.64C879.404 115.915 880.001 114.891 880.407 113.568C880.812 112.224 881.015 110.635 881.015 108.8C881.015 106.944 880.812 105.355 880.407 104.032C880.001 102.688 879.404 101.664 878.615 100.96C877.847 100.235 876.897 99.872 875.767 99.872C874.636 99.872 873.676 100.235 872.887 100.96C872.119 101.664 871.521 102.688 871.095 104.032C870.689 105.355 870.487 106.944 870.487 108.8C870.487 110.635 870.689 112.224 871.095 113.568C871.521 114.891 872.119 115.915 872.887 116.64C873.676 117.365 874.636 117.728 875.767 117.728ZM894.633 120.32C892.863 120.32 891.38 119.819 890.185 118.816C889.012 117.813 888.116 116.437 887.497 114.688C886.9 112.939 886.601 110.976 886.601 108.8C886.601 106.581 886.9 104.608 887.497 102.88C888.116 101.152 889.012 99.7867 890.185 98.784C891.38 97.7813 892.863 97.28 894.633 97.28C896.404 97.28 897.876 97.7813 899.049 98.784C900.244 99.7867 901.14 101.152 901.737 102.88C902.335 104.608 902.633 106.581 902.633 108.8C902.633 110.976 902.335 112.939 901.737 114.688C901.14 116.437 900.244 117.813 899.049 118.816C897.876 119.819 896.404 120.32 894.633 120.32ZM894.633 117.728C895.764 117.728 896.713 117.365 897.481 116.64C898.271 115.915 898.868 114.891 899.273 113.568C899.679 112.224 899.881 110.635 899.881 108.8C899.881 106.944 899.679 105.355 899.273 104.032C898.868 102.688 898.271 101.664 897.481 100.96C896.713 100.235 895.764 99.872 894.633 99.872C893.503 99.872 892.543 100.235 891.753 100.96C890.985 101.664 890.388 102.688 889.961 104.032C889.556 105.355 889.353 106.944 889.353 108.8C889.353 110.635 889.556 112.224 889.961 113.568C890.388 114.891 890.985 115.915 891.753 116.64C892.543 117.365 893.503 117.728 894.633 117.728ZM906.972 116.288C907.1 116.288 907.239 116.32 907.388 116.384C907.559 116.427 907.74 116.533 907.932 116.704C908.359 117.088 908.86 117.397 909.436 117.632C910.012 117.867 910.673 117.984 911.42 117.984C912.337 117.984 913.18 117.781 913.948 117.376C914.716 116.949 915.335 116.352 915.804 115.584C916.295 114.816 916.54 113.931 916.54 112.928C916.54 111.84 916.295 110.955 915.804 110.272C915.335 109.568 914.727 109.056 913.98 108.736C913.255 108.395 912.487 108.224 911.676 108.224C911.377 108.224 911.1 108.245 910.844 108.288C910.588 108.331 910.343 108.384 910.108 108.448C909.895 108.512 909.692 108.544 909.5 108.544C909.159 108.544 908.892 108.427 908.7 108.192C908.508 107.957 908.412 107.669 908.412 107.328C908.412 107.136 908.444 106.965 908.508 106.816C908.593 106.645 908.721 106.464 908.892 106.272L915.1 99.552L915.612 100.16H906.524C906.183 100.16 905.895 100.043 905.66 99.808C905.425 99.5733 905.308 99.2853 905.308 98.944C905.308 98.6027 905.425 98.3253 905.66 98.112C905.895 97.8773 906.183 97.76 906.524 97.76H916.956C917.425 97.76 917.767 97.8987 917.98 98.176C918.193 98.432 918.3 98.72 918.3 99.04C918.3 99.232 918.247 99.4133 918.14 99.584C918.055 99.7547 917.937 99.9147 917.788 100.064L911.58 106.816L910.844 106.176C910.951 106.091 911.196 106.016 911.58 105.952C911.964 105.867 912.284 105.824 912.54 105.824C913.735 105.824 914.833 106.112 915.836 106.688C916.839 107.264 917.639 108.075 918.236 109.12C918.833 110.165 919.132 111.381 919.132 112.768C919.132 114.304 918.78 115.637 918.076 116.768C917.372 117.899 916.401 118.773 915.164 119.392C913.948 120.011 912.572 120.32 911.036 120.32C910.183 120.32 909.34 120.192 908.508 119.936C907.697 119.659 906.993 119.264 906.396 118.752C906.119 118.603 905.927 118.432 905.82 118.24C905.735 118.048 905.692 117.856 905.692 117.664C905.692 117.344 905.809 117.035 906.044 116.736C906.3 116.437 906.609 116.288 906.972 116.288ZM942.15 118.24C941.468 118.24 940.86 118.101 940.326 117.824C939.793 117.525 939.388 117.12 939.11 116.608C938.854 116.096 938.78 115.509 938.886 114.848L939.142 112.896L939.59 113.28C939.206 114.432 938.673 115.381 937.99 116.128C937.308 116.853 936.561 117.387 935.75 117.728C934.961 118.069 934.161 118.24 933.35 118.24C932.476 118.24 931.676 118.016 930.95 117.568C930.246 117.099 929.681 116.469 929.254 115.68C928.828 114.869 928.614 113.963 928.614 112.96C928.614 111.957 928.806 110.923 929.19 109.856C929.596 108.768 930.14 107.755 930.822 106.816C931.526 105.877 932.337 105.12 933.254 104.544C934.193 103.968 935.206 103.68 936.294 103.68C937.468 103.68 938.428 104.053 939.174 104.8C939.942 105.547 940.39 106.496 940.518 107.648L939.814 109.408L940.518 104.896C940.561 104.619 940.678 104.384 940.87 104.192C941.062 103.979 941.361 103.872 941.766 103.872C942.257 103.872 942.588 103.989 942.758 104.224C942.929 104.459 942.972 104.811 942.886 105.28L941.446 114.368C941.34 115.093 941.436 115.616 941.734 115.936C942.054 116.256 942.417 116.416 942.822 116.416C943.548 116.416 944.23 116.149 944.87 115.616C945.51 115.083 946.065 114.389 946.534 113.536C947.025 112.661 947.409 111.68 947.686 110.592C947.964 109.504 948.102 108.416 948.102 107.328C948.102 105.707 947.718 104.288 946.95 103.072C946.204 101.835 945.137 100.875 943.75 100.192C942.364 99.488 940.732 99.136 938.854 99.136C936.721 99.136 934.726 99.456 932.87 100.096C931.036 100.736 929.425 101.675 928.038 102.912C926.652 104.128 925.564 105.621 924.774 107.392C924.006 109.141 923.622 111.147 923.622 113.408C923.622 114.624 923.814 115.829 924.198 117.024C924.582 118.197 925.169 119.253 925.958 120.192C926.769 121.152 927.804 121.909 929.062 122.464C930.342 123.04 931.878 123.328 933.67 123.328C934.844 123.328 935.846 123.243 936.678 123.072C937.51 122.901 938.246 122.667 938.886 122.368C939.548 122.069 940.209 121.76 940.87 121.44C941.105 121.312 941.329 121.28 941.542 121.344C941.756 121.408 941.916 121.579 942.022 121.856C942.236 122.368 942.001 122.795 941.318 123.136C940.401 123.584 939.345 124.032 938.15 124.48C936.956 124.949 935.462 125.184 933.67 125.184C931.516 125.184 929.681 124.843 928.166 124.16C926.652 123.499 925.414 122.603 924.454 121.472C923.516 120.341 922.822 119.083 922.374 117.696C921.926 116.288 921.702 114.859 921.702 113.408C921.702 110.912 922.14 108.672 923.014 106.688C923.91 104.704 925.137 103.008 926.694 101.6C928.273 100.192 930.097 99.1253 932.166 98.4C934.236 97.6533 936.465 97.28 938.854 97.28C941.286 97.28 943.334 97.7387 944.998 98.656C946.662 99.552 947.91 100.768 948.742 102.304C949.596 103.819 950.022 105.493 950.022 107.328C950.022 108.629 949.83 109.931 949.446 111.232C949.084 112.512 948.55 113.685 947.846 114.752C947.142 115.797 946.31 116.64 945.35 117.28C944.39 117.92 943.324 118.24 942.15 118.24ZM933.862 116.192C934.545 116.192 935.206 116.021 935.846 115.68C936.508 115.317 937.105 114.848 937.638 114.272C938.172 113.696 938.598 113.067 938.918 112.384C939.26 111.68 939.452 110.987 939.494 110.304C939.729 109.28 939.729 108.427 939.494 107.744C939.281 107.061 938.897 106.56 938.342 106.24C937.788 105.899 937.137 105.728 936.39 105.728C935.58 105.728 934.844 105.963 934.182 106.432C933.521 106.88 932.956 107.467 932.486 108.192C932.038 108.917 931.686 109.696 931.43 110.528C931.196 111.36 931.078 112.149 931.078 112.896C931.078 113.941 931.345 114.752 931.878 115.328C932.433 115.904 933.094 116.192 933.862 116.192ZM952.542 117.376C952.35 117.099 952.264 116.811 952.286 116.512C952.307 116.192 952.488 115.915 952.83 115.68C953.043 115.531 953.288 115.467 953.566 115.488C953.864 115.509 954.131 115.648 954.366 115.904C954.963 116.608 955.646 117.173 956.414 117.6C957.182 118.005 958.12 118.208 959.23 118.208C959.742 118.187 960.254 118.101 960.766 117.952C961.278 117.803 961.704 117.547 962.046 117.184C962.408 116.8 962.59 116.299 962.59 115.68C962.59 115.083 962.408 114.613 962.046 114.272C961.683 113.909 961.214 113.621 960.638 113.408C960.062 113.173 959.432 112.971 958.75 112.8C958.046 112.608 957.352 112.395 956.67 112.16C955.987 111.904 955.368 111.595 954.814 111.232C954.28 110.848 953.843 110.379 953.502 109.824C953.182 109.248 953.022 108.555 953.022 107.744C953.022 106.784 953.278 105.952 953.79 105.248C954.323 104.544 955.027 104 955.902 103.616C956.798 103.232 957.768 103.04 958.814 103.04C959.411 103.04 960.03 103.115 960.67 103.264C961.331 103.392 961.971 103.627 962.59 103.968C963.208 104.288 963.752 104.736 964.222 105.312C964.414 105.525 964.52 105.792 964.542 106.112C964.563 106.432 964.424 106.72 964.126 106.976C963.891 107.147 963.624 107.221 963.326 107.2C963.048 107.179 962.814 107.072 962.622 106.88C962.174 106.347 961.608 105.941 960.926 105.664C960.264 105.365 959.528 105.216 958.718 105.216C958.206 105.216 957.704 105.291 957.214 105.44C956.723 105.589 956.307 105.845 955.966 106.208C955.646 106.549 955.486 107.029 955.486 107.648C955.507 108.224 955.699 108.693 956.062 109.056C956.424 109.419 956.915 109.717 957.534 109.952C958.152 110.165 958.835 110.379 959.582 110.592C960.264 110.763 960.915 110.965 961.534 111.2C962.174 111.413 962.75 111.701 963.262 112.064C963.774 112.427 964.179 112.896 964.478 113.472C964.776 114.027 964.926 114.731 964.926 115.584C964.926 116.565 964.648 117.419 964.094 118.144C963.539 118.848 962.803 119.392 961.886 119.776C960.99 120.139 960.019 120.32 958.974 120.32C957.8 120.32 956.638 120.096 955.486 119.648C954.355 119.2 953.374 118.443 952.542 117.376ZM967.634 103.552H975.154C975.495 103.552 975.772 103.669 975.986 103.904C976.22 104.139 976.338 104.416 976.338 104.736C976.338 105.077 976.22 105.365 975.986 105.6C975.772 105.813 975.495 105.92 975.154 105.92H967.634C967.314 105.92 967.036 105.803 966.802 105.568C966.567 105.333 966.45 105.045 966.45 104.704C966.45 104.384 966.567 104.117 966.802 103.904C967.036 103.669 967.314 103.552 967.634 103.552ZM970.994 99.2C971.356 99.2 971.655 99.328 971.89 99.584C972.124 99.8187 972.242 100.117 972.242 100.48V115.936C972.242 116.448 972.316 116.832 972.466 117.088C972.615 117.344 972.807 117.525 973.042 117.632C973.298 117.717 973.543 117.76 973.778 117.76C973.991 117.76 974.172 117.728 974.322 117.664C974.492 117.579 974.684 117.536 974.898 117.536C975.111 117.536 975.303 117.643 975.474 117.856C975.666 118.048 975.762 118.304 975.762 118.624C975.762 119.008 975.538 119.339 975.09 119.616C974.642 119.872 974.14 120 973.586 120C973.287 120 972.914 119.979 972.466 119.936C972.039 119.893 971.612 119.755 971.186 119.52C970.759 119.285 970.396 118.901 970.098 118.368C969.82 117.813 969.682 117.045 969.682 116.064V100.48C969.682 100.117 969.81 99.8187 970.066 99.584C970.322 99.328 970.631 99.2 970.994 99.2ZM991.931 103.456C992.315 103.456 992.624 103.584 992.859 103.84C993.093 104.075 993.211 104.373 993.211 104.736V113.472C993.211 115.627 992.603 117.301 991.387 118.496C990.192 119.669 988.517 120.256 986.363 120.256C984.229 120.256 982.555 119.669 981.339 118.496C980.144 117.301 979.547 115.627 979.547 113.472V104.736C979.547 104.373 979.664 104.075 979.899 103.84C980.155 103.584 980.464 103.456 980.827 103.456C981.211 103.456 981.52 103.584 981.755 103.84C981.989 104.075 982.107 104.373 982.107 104.736V113.472C982.107 114.923 982.48 116.021 983.227 116.768C983.973 117.515 985.019 117.888 986.363 117.888C987.749 117.888 988.805 117.515 989.531 116.768C990.277 116.021 990.651 114.923 990.651 113.472V104.736C990.651 104.373 990.768 104.075 991.003 103.84C991.259 103.584 991.568 103.456 991.931 103.456ZM1011.23 96.32C1011.6 96.32 1011.89 96.448 1012.13 96.704C1012.39 96.9387 1012.51 97.2373 1012.51 97.6V118.688C1012.51 119.051 1012.39 119.36 1012.13 119.616C1011.89 119.872 1011.6 120 1011.23 120C1010.85 120 1010.54 119.872 1010.31 119.616C1010.07 119.36 1009.95 119.051 1009.95 118.688V115.648L1010.56 115.424C1010.56 115.936 1010.4 116.48 1010.08 117.056C1009.76 117.611 1009.32 118.133 1008.77 118.624C1008.21 119.115 1007.55 119.52 1006.79 119.84C1006.04 120.16 1005.23 120.32 1004.35 120.32C1002.92 120.32 1001.62 119.947 1000.45 119.2C999.297 118.453 998.38 117.429 997.697 116.128C997.036 114.827 996.705 113.344 996.705 111.68C996.705 109.995 997.036 108.501 997.697 107.2C998.38 105.899 999.297 104.885 1000.45 104.16C1001.6 103.413 1002.88 103.04 1004.29 103.04C1005.19 103.04 1006.03 103.189 1006.82 103.488C1007.61 103.787 1008.29 104.192 1008.87 104.704C1009.46 105.216 1009.93 105.781 1010.27 106.4C1010.61 107.019 1010.79 107.637 1010.79 108.256L1009.95 108.064V97.6C1009.95 97.2373 1010.07 96.9387 1010.31 96.704C1010.54 96.448 1010.85 96.32 1011.23 96.32ZM1004.64 117.952C1005.71 117.952 1006.65 117.685 1007.46 117.152C1008.29 116.597 1008.93 115.851 1009.38 114.912C1009.85 113.952 1010.08 112.875 1010.08 111.68C1010.08 110.464 1009.85 109.387 1009.38 108.448C1008.93 107.509 1008.29 106.773 1007.46 106.24C1006.65 105.685 1005.71 105.408 1004.64 105.408C1003.6 105.408 1002.66 105.685 1001.83 106.24C1001.01 106.773 1000.37 107.509 999.905 108.448C999.436 109.387 999.201 110.464 999.201 111.68C999.201 112.853 999.436 113.92 999.905 114.88C1000.37 115.819 1001.01 116.565 1001.83 117.12C1002.66 117.675 1003.6 117.952 1004.64 117.952ZM1017.67 119.968C1017.23 119.968 1016.87 119.84 1016.62 119.584C1016.38 119.328 1016.27 118.976 1016.27 118.528V117.888C1016.27 117.419 1016.38 117.056 1016.62 116.8C1016.87 116.544 1017.23 116.416 1017.67 116.416H1017.93C1018.4 116.416 1018.75 116.544 1018.99 116.8C1019.22 117.056 1019.34 117.419 1019.34 117.888V118.528C1019.34 118.976 1019.22 119.328 1018.99 119.584C1018.75 119.84 1018.4 119.968 1017.93 119.968H1017.67ZM1024.62 120C1024.24 120 1023.93 119.872 1023.69 119.616C1023.46 119.36 1023.34 119.051 1023.34 118.688V97.6C1023.34 97.2373 1023.46 96.9387 1023.69 96.704C1023.93 96.448 1024.24 96.32 1024.62 96.32C1024.98 96.32 1025.28 96.448 1025.52 96.704C1025.77 96.9387 1025.9 97.2373 1025.9 97.6V118.688C1025.9 119.051 1025.77 119.36 1025.52 119.616C1025.28 119.872 1024.98 120 1024.62 120ZM1035.24 103.36C1035.59 103.36 1035.87 103.499 1036.11 103.776C1036.36 104.032 1036.49 104.299 1036.49 104.576C1036.49 104.939 1036.32 105.259 1035.98 105.536L1025.61 114.592L1025.52 111.616L1034.35 103.744C1034.6 103.488 1034.9 103.36 1035.24 103.36ZM1035.6 119.968C1035.23 119.968 1034.91 119.829 1034.64 119.552L1027.82 112.288L1029.74 110.528L1036.49 117.76C1036.75 118.037 1036.88 118.357 1036.88 118.72C1036.88 119.104 1036.73 119.413 1036.43 119.648C1036.13 119.861 1035.85 119.968 1035.6 119.968ZM1047.16 120.32C1045.46 120.32 1043.96 119.957 1042.68 119.232C1041.4 118.507 1040.4 117.515 1039.67 116.256C1038.97 114.976 1038.62 113.504 1038.62 111.84C1038.62 109.984 1038.98 108.405 1039.71 107.104C1040.45 105.781 1041.41 104.779 1042.59 104.096C1043.78 103.392 1045.04 103.04 1046.36 103.04C1047.34 103.04 1048.29 103.221 1049.21 103.584C1050.13 103.947 1050.94 104.48 1051.64 105.184C1052.35 105.867 1052.91 106.699 1053.34 107.68C1053.76 108.64 1053.99 109.717 1054.01 110.912C1054.01 111.253 1053.88 111.541 1053.63 111.776C1053.37 112.011 1053.07 112.128 1052.73 112.128H1040.09L1039.51 109.92H1051.83L1051.32 110.368V109.664C1051.24 108.789 1050.94 108.043 1050.43 107.424C1049.94 106.784 1049.33 106.293 1048.6 105.952C1047.9 105.611 1047.15 105.44 1046.36 105.44C1045.72 105.44 1045.08 105.557 1044.44 105.792C1043.82 106.005 1043.26 106.368 1042.75 106.88C1042.26 107.371 1041.85 108.011 1041.53 108.8C1041.23 109.589 1041.08 110.539 1041.08 111.648C1041.08 112.885 1041.33 113.973 1041.82 114.912C1042.33 115.851 1043.03 116.597 1043.93 117.152C1044.83 117.685 1045.87 117.952 1047.07 117.952C1047.81 117.952 1048.46 117.856 1049.02 117.664C1049.57 117.472 1050.05 117.237 1050.46 116.96C1050.86 116.661 1051.2 116.363 1051.48 116.064C1051.76 115.872 1052.03 115.776 1052.28 115.776C1052.6 115.776 1052.86 115.883 1053.05 116.096C1053.26 116.309 1053.37 116.565 1053.37 116.864C1053.37 117.227 1053.2 117.547 1052.86 117.824C1052.26 118.485 1051.45 119.072 1050.43 119.584C1049.4 120.075 1048.31 120.32 1047.16 120.32ZM1071.26 103.296C1071.63 103.296 1071.92 103.424 1072.16 103.68C1072.41 103.915 1072.54 104.213 1072.54 104.576V118.688C1072.54 119.051 1072.41 119.36 1072.16 119.616C1071.92 119.872 1071.63 120 1071.26 120C1070.88 120 1070.57 119.872 1070.33 119.616C1070.1 119.36 1069.98 119.051 1069.98 118.688V115.648L1070.59 115.584C1070.59 116.053 1070.43 116.565 1070.11 117.12C1069.79 117.675 1069.35 118.197 1068.8 118.688C1068.24 119.157 1067.58 119.552 1066.81 119.872C1066.07 120.171 1065.26 120.32 1064.38 120.32C1062.93 120.32 1061.63 119.947 1060.48 119.2C1059.33 118.432 1058.41 117.397 1057.73 116.096C1057.07 114.795 1056.73 113.312 1056.73 111.648C1056.73 109.963 1057.07 108.48 1057.73 107.2C1058.41 105.899 1059.33 104.885 1060.48 104.16C1061.63 103.413 1062.91 103.04 1064.32 103.04C1065.24 103.04 1066.09 103.189 1066.88 103.488C1067.67 103.787 1068.35 104.192 1068.93 104.704C1069.52 105.216 1069.98 105.781 1070.3 106.4C1070.64 107.019 1070.81 107.637 1070.81 108.256L1069.98 108.064V104.576C1069.98 104.213 1070.1 103.915 1070.33 103.68C1070.57 103.424 1070.88 103.296 1071.26 103.296ZM1064.67 117.952C1065.74 117.952 1066.68 117.675 1067.49 117.12C1068.32 116.565 1068.96 115.819 1069.41 114.88C1069.88 113.92 1070.11 112.843 1070.11 111.648C1070.11 110.475 1069.88 109.419 1069.41 108.48C1068.96 107.52 1068.32 106.773 1067.49 106.24C1066.68 105.685 1065.74 105.408 1064.67 105.408C1063.63 105.408 1062.69 105.675 1061.85 106.208C1061.04 106.741 1060.4 107.477 1059.93 108.416C1059.47 109.355 1059.23 110.432 1059.23 111.648C1059.23 112.843 1059.45 113.92 1059.9 114.88C1060.37 115.819 1061.01 116.565 1061.82 117.12C1062.65 117.675 1063.6 117.952 1064.67 117.952ZM1077.7 119.968C1077.25 119.968 1076.9 119.84 1076.65 119.584C1076.41 119.328 1076.29 118.976 1076.29 118.528V117.888C1076.29 117.419 1076.41 117.056 1076.65 116.8C1076.9 116.544 1077.25 116.416 1077.7 116.416H1077.96C1078.43 116.416 1078.78 116.544 1079.01 116.8C1079.25 117.056 1079.37 117.419 1079.37 117.888V118.528C1079.37 118.976 1079.25 119.328 1079.01 119.584C1078.78 119.84 1078.43 119.968 1077.96 119.968H1077.7ZM1096.75 96.32C1097.11 96.32 1097.41 96.448 1097.64 96.704C1097.9 96.9387 1098.03 97.2373 1098.03 97.6V118.688C1098.03 119.051 1097.9 119.36 1097.64 119.616C1097.41 119.872 1097.11 120 1096.75 120C1096.36 120 1096.05 119.872 1095.82 119.616C1095.58 119.36 1095.47 119.051 1095.47 118.688V115.648L1096.07 115.424C1096.07 115.936 1095.91 116.48 1095.59 117.056C1095.27 117.611 1094.84 118.133 1094.28 118.624C1093.73 119.115 1093.07 119.52 1092.3 119.84C1091.55 120.16 1090.74 120.32 1089.87 120.32C1088.44 120.32 1087.14 119.947 1085.96 119.2C1084.81 118.453 1083.89 117.429 1083.21 116.128C1082.55 114.827 1082.22 113.344 1082.22 111.68C1082.22 109.995 1082.55 108.501 1083.21 107.2C1083.89 105.899 1084.81 104.885 1085.96 104.16C1087.11 103.413 1088.39 103.04 1089.8 103.04C1090.7 103.04 1091.54 103.189 1092.33 103.488C1093.12 103.787 1093.8 104.192 1094.38 104.704C1094.98 105.216 1095.44 105.781 1095.79 106.4C1096.13 107.019 1096.3 107.637 1096.3 108.256L1095.47 108.064V97.6C1095.47 97.2373 1095.58 96.9387 1095.82 96.704C1096.05 96.448 1096.36 96.32 1096.75 96.32ZM1090.15 117.952C1091.22 117.952 1092.16 117.685 1092.97 117.152C1093.8 116.597 1094.44 115.851 1094.89 114.912C1095.36 113.952 1095.59 112.875 1095.59 111.68C1095.59 110.464 1095.36 109.387 1094.89 108.448C1094.44 107.509 1093.8 106.773 1092.97 106.24C1092.16 105.685 1091.22 105.408 1090.15 105.408C1089.11 105.408 1088.17 105.685 1087.34 106.24C1086.53 106.773 1085.89 107.509 1085.42 108.448C1084.95 109.387 1084.71 110.464 1084.71 111.68C1084.71 112.853 1084.95 113.92 1085.42 114.88C1085.89 115.819 1086.53 116.565 1087.34 117.12C1088.17 117.675 1089.11 117.952 1090.15 117.952ZM1103.95 120C1103.57 120 1103.26 119.872 1103.03 119.616C1102.79 119.36 1102.67 119.051 1102.67 118.688V97.6C1102.67 97.2373 1102.79 96.9387 1103.03 96.704C1103.26 96.448 1103.57 96.32 1103.95 96.32C1104.32 96.32 1104.62 96.448 1104.85 96.704C1105.11 96.9387 1105.23 97.2373 1105.23 97.6V118.688C1105.23 119.051 1105.11 119.36 1104.85 119.616C1104.62 119.872 1104.32 120 1103.95 120ZM1114.58 103.36C1114.92 103.36 1115.21 103.499 1115.44 103.776C1115.7 104.032 1115.83 104.299 1115.83 104.576C1115.83 104.939 1115.66 105.259 1115.31 105.536L1104.95 114.592L1104.85 111.616L1113.68 103.744C1113.94 103.488 1114.24 103.36 1114.58 103.36ZM1114.93 119.968C1114.57 119.968 1114.25 119.829 1113.97 119.552L1107.15 112.288L1109.07 110.528L1115.83 117.76C1116.08 118.037 1116.21 118.357 1116.21 118.72C1116.21 119.104 1116.06 119.413 1115.76 119.648C1115.46 119.861 1115.19 119.968 1114.93 119.968Z" fill="white"/>
</svg>
