<?xml version="1.0" encoding="UTF-8"?>
<svg id="Layer_1" xmlns="http://www.w3.org/2000/svg" version="1.1" viewBox="0 0 1728 131">
  <!-- Generator: Adobe Illustrator 29.5.0, SVG Export Plug-In . SVG Version: 2.1.0 Build 137)  -->
  <defs>
    <style>
      .st0 {
        fill: #4f5057;
      }

      .st1 {
        fill: #f7ff85;
      }

      .st2 {
        fill: #fff;
      }
    </style>
  </defs>
  <rect class="st0" width="1734" height="132" rx="6" ry="6"/>
  <circle class="st1" cx="904" cy="120" r="4"/>
  <circle class="st1" cx="721" cy="104" r="4"/>
  <circle class="st1" cx="1304" cy="55" r="3"/>
  <circle class="st1" cx="1427" cy="86" r="3"/>
  <circle class="st1" cx="1667" cy="80" r="3"/>
  <circle class="st1" cx="1615" cy="96" r="4"/>
  <circle class="st1" cx="799" cy="107" r="3"/>
  <circle class="st1" cx="399" cy="31" r="3"/>
  <circle class="st1" cx="1289" cy="35" r="3"/>
  <circle class="st1" cx="1499" cy="46" r="3"/>
  <circle class="st1" cx="1509" cy="98" r="3"/>
  <circle class="st1" cx="160" cy="45" r="3"/>
  <circle class="st1" cx="725" cy="20" r="3"/>
  <circle class="st1" cx="471" cy="41" r="3"/>
  <circle class="st1" cx="632" cy="113" r="3"/>
  <circle class="st1" cx="565" cy="60" r="3"/>
  <circle class="st1" cx="1165" cy="112" r="3"/>
  <circle class="st1" cx="988" cy="32" r="3"/>
  <circle class="st1" cx="1065" cy="35" r="3"/>
  <circle class="st1" cx="1388" cy="40" r="3"/>
  <circle class="st1" cx="334" cy="106" r="3"/>
  <circle class="st1" cx="171" cy="109" r="3"/>
  <circle class="st1" cx="63" cy="31" r="3"/>
  <circle class="st1" cx="842" cy="32" r="3"/>
  <circle class="st1" cx="1088" cy="86" r="3"/>
  <ellipse class="st1" cx="337.5" cy="45" rx="2.5" ry="2"/>
  <circle class="st1" cx="554" cy="104" r="3"/>
  <circle class="st1" cx="1044" cy="106" r="3"/>
  <circle class="st1" cx="73" cy="106" r="4"/>
  <circle class="st1" cx="1188" cy="44" r="4"/>
  <circle class="st1" cx="1460" cy="117" r="4"/>
  <circle class="st1" cx="1607" cy="57" r="4"/>
  <circle class="st1" cx="1326" cy="103" r="4"/>
  <circle class="st1" cx="1221" cy="87" r="4"/>
  <circle class="st1" cx="292" cy="70" r="4"/>
  <circle class="st1" cx="496" cy="74" r="4"/>
  <circle class="st1" cx="378" cy="80" r="4"/>
  <circle class="st1" cx="20" cy="82" r="4"/>
  <circle class="st1" cx="1669" cy="31" r="4"/>
  <circle class="st1" cx="1144" cy="45" r="4"/>
  <circle class="st1" cx="1283" cy="67" r="3"/>
  <path class="st2" d="M670.3,80.1c-.3,0-.6-.1-.8-.4l-7.4-9.5,1.7-1.7,7.6,9.7c.2.2.3.5.3.8,0,.4-.1.7-.4.9-.3.2-.5.3-.8.3ZM670.2,60.4c.3,0,.5.1.7.4.2.2.3.5.3.8s-.1.5-.3.7l-12.4,11.7-.2-2.6,11-10.5c.3-.3.6-.4.9-.4ZM657.6,80c-.4,0-.6-.1-.8-.3-.2-.2-.3-.5-.3-.8v-17.3c0-.3.1-.6.3-.8.2-.2.5-.3.8-.3s.6.1.8.3c.2.2.3.5.3.8v17.3c0,.3-.1.6-.3.8-.2.2-.5.3-.8.3ZM687.6,72.7c0,1.5-.3,2.8-1,3.9-.6,1.1-1.5,2-2.6,2.7-1.1.7-2.3,1-3.7,1s-2.6-.3-3.7-1c-1.1-.7-2-1.5-2.6-2.7-.6-1.1-1-2.4-1-3.9s.3-2.8,1-3.9c.7-1.1,1.5-2,2.6-2.7s2.3-1,3.7-1,2.6.3,3.7,1c1.1.7,2,1.5,2.6,2.7.7,1.1,1,2.4,1,3.9ZM685.4,72.7c0-1.1-.2-2-.7-2.9-.4-.8-1-1.5-1.8-1.9-.7-.5-1.6-.7-2.5-.7s-1.8.2-2.6.7c-.7.5-1.3,1.1-1.8,1.9-.4.8-.7,1.8-.7,2.9s.2,2,.7,2.8c.4.8,1,1.5,1.8,2,.8.5,1.6.7,2.6.7s1.8-.2,2.5-.7c.8-.5,1.4-1.1,1.8-2,.4-.8.7-1.8.7-2.8ZM697.9,65.2c1.3,0,2.3.3,3,.8.7.5,1.2,1.2,1.5,2.1.3.9.5,1.9.5,2.9v7.9c0,.3-.1.6-.3.8-.2.2-.5.3-.8.3s-.6-.1-.8-.3c-.2-.2-.3-.5-.3-.8v-7.8c0-.7-.1-1.3-.3-1.9-.2-.6-.6-1-1.1-1.4-.5-.4-1.2-.5-2-.5s-1.5.2-2.2.5c-.7.3-1.2.8-1.6,1.4-.4.6-.6,1.2-.6,1.9v7.8c0,.3-.1.6-.3.8-.2.2-.5.3-.8.3s-.6-.1-.8-.3c-.2-.2-.3-.5-.3-.8v-12.2c0-.3.1-.6.3-.8.2-.2.5-.3.8-.3s.6.1.8.3c.2.2.3.5.3.8v2l-.6.6c0-.5.3-1,.6-1.5.3-.5.8-1,1.3-1.3.5-.4,1.1-.7,1.7-.9.6-.2,1.3-.4,1.9-.4ZM706.2,65.6h6.6c.3,0,.5.1.7.3.2.2.3.4.3.7s-.1.6-.3.8c-.2.2-.4.3-.7.3h-6.6c-.3,0-.5-.1-.7-.3-.2-.2-.3-.5-.3-.8s.1-.5.3-.7c.2-.2.4-.3.7-.3ZM709.1,61.8c.3,0,.6.1.8.3.2.2.3.5.3.8v13.5c0,.4,0,.8.2,1,.1.2.3.4.5.5.2,0,.4.1.6.1s.3,0,.5,0c.1,0,.3-.1.5-.1s.4,0,.5.3c.2.2.3.4.3.7s-.2.6-.6.9c-.4.2-.8.3-1.3.3s-.6,0-1,0c-.4,0-.7-.2-1.1-.4-.4-.2-.7-.5-1-1-.2-.5-.4-1.2-.4-2v-13.6c0-.3.1-.6.3-.8.2-.2.5-.3.8-.3ZM728.5,65.4c.3,0,.6.1.8.3.2.2.3.5.3.8v12.3c0,.3-.1.6-.3.8-.2.2-.5.3-.8.3s-.6-.1-.8-.3c-.2-.2-.3-.5-.3-.8v-2.7h.5c0,.4-.1.8-.4,1.3-.3.5-.7.9-1.1,1.4-.5.4-1.1.8-1.7,1-.7.3-1.4.4-2.1.4-1.3,0-2.4-.3-3.4-1-1-.7-1.8-1.6-2.4-2.7-.6-1.1-.9-2.4-.9-3.9s.3-2.8.9-3.9c.6-1.1,1.4-2,2.4-2.7,1-.7,2.1-1,3.4-1s1.5.1,2.2.4c.7.3,1.3.6,1.8,1.1.5.4.9.9,1.2,1.5.3.5.4,1.1.4,1.6l-.7-.2v-3.1c0-.3.1-.6.3-.8.2-.2.5-.3.8-.3ZM722.8,78.2c.9,0,1.8-.2,2.5-.7.7-.5,1.3-1.1,1.7-2,.4-.8.6-1.8.6-2.8s-.2-2-.6-2.8c-.4-.8-1-1.5-1.7-2-.7-.5-1.5-.7-2.5-.7s-1.7.2-2.5.7c-.7.5-1.3,1.1-1.7,1.9-.4.8-.6,1.8-.6,2.8s.2,2,.6,2.8c.4.8,1,1.5,1.7,2,.7.5,1.6.7,2.5.7ZM734.8,80c-.3,0-.6-.1-.8-.3-.2-.2-.3-.5-.3-.8v-18.5c0-.3.1-.6.3-.8.2-.2.5-.3.8-.3s.6.1.8.3c.2.2.3.5.3.8v18.5c0,.3-.1.6-.3.8-.2.2-.5.3-.8.3ZM744.1,65.4c.3,0,.5.1.8.4.2.2.3.5.3.7s-.1.6-.4.8l-9.1,7.9v-2.6c0,0,7.6-6.9,7.6-6.9.2-.2.5-.3.8-.3ZM744.4,80c-.3,0-.6-.1-.8-.4l-6-6.4,1.7-1.5,5.9,6.3c.2.2.3.5.3.8s-.1.6-.4.8c-.3.2-.5.3-.7.3ZM747.9,65.6h6.6c.3,0,.5.1.7.3.2.2.3.4.3.7s-.1.6-.3.8c-.2.2-.4.3-.7.3h-6.6c-.3,0-.5-.1-.7-.3-.2-.2-.3-.5-.3-.8s.1-.5.3-.7c.2-.2.4-.3.7-.3ZM750.9,61.8c.3,0,.6.1.8.3.2.2.3.5.3.8v13.5c0,.4,0,.8.2,1,.1.2.3.4.5.5.2,0,.4.1.6.1s.3,0,.5,0c.2,0,.3-.1.5-.1s.4,0,.5.3c.2.2.3.4.3.7s-.2.6-.6.9c-.4.2-.8.3-1.3.3s-.6,0-1,0c-.4,0-.7-.2-1.1-.4-.4-.2-.7-.5-1-1-.2-.5-.4-1.2-.4-2v-13.6c0-.3.1-.6.3-.8.2-.2.5-.3.8-.3ZM759.2,68.6c-.4,0-.7-.1-.9-.3-.2-.2-.3-.6-.3-1v-.6c0-.4.1-.7.3-.9.2-.2.5-.3.9-.3h.2c.4,0,.7.1.9.3s.3.5.3.9v.6c0,.4-.1.7-.3,1-.2.2-.5.3-.9.3h-.2ZM759.2,80c-.4,0-.7-.1-.9-.3-.2-.2-.3-.6-.3-1v-.6c0-.4.1-.7.3-.9.2-.2.5-.3.9-.3h.2c.4,0,.7.1.9.3.2.2.3.5.3.9v.6c0,.4-.1.7-.3,1-.2.2-.5.3-.9.3h-.2ZM778.4,65.3c1.3,0,2.3.3,3.1,1,.8.6,1.3,1.5,1.6,2.7h-.4l.2-.5c.2-.5.6-1,1.1-1.5.5-.5,1.2-.9,1.9-1.2s1.4-.5,2.2-.5c1.2,0,2.2.3,2.9.8.7.5,1.2,1.2,1.5,2.1.3.9.5,1.9.5,3v7.6c0,.3-.1.6-.3.8-.2.2-.5.3-.8.3s-.6-.1-.8-.3c-.2-.2-.3-.5-.3-.8v-7.6c0-.7-.1-1.4-.3-2-.2-.6-.6-1.1-1-1.4-.5-.4-1.1-.5-1.9-.5s-1.5.2-2.1.5c-.6.3-1.1.8-1.5,1.4-.4.6-.6,1.2-.6,2v7.6c0,.3-.1.6-.3.8s-.5.3-.8.3-.6-.1-.8-.3c-.2-.2-.3-.5-.3-.8v-7.7c0-.7-.1-1.3-.3-1.9-.2-.6-.5-1-1-1.4-.5-.4-1.1-.5-1.9-.5s-1.4.2-2,.5c-.6.3-1.1.8-1.5,1.4-.4.6-.6,1.2-.6,1.9v7.7c0,.3-.1.6-.3.8-.2.2-.5.3-.8.3s-.6-.1-.8-.3c-.2-.2-.3-.5-.3-.8v-12.2c0-.3.1-.6.3-.8.2-.2.5-.3.8-.3s.6.1.8.3c.2.2.3.5.3.8v2.1l-.6.7c0-.5.3-1,.6-1.5.3-.5.7-.9,1.2-1.3.5-.4,1-.7,1.6-1,.6-.2,1.2-.4,1.9-.4ZM799,78.9c0,.3-.1.6-.3.8-.2.2-.5.3-.8.3s-.6-.1-.8-.3c-.2-.2-.3-.5-.3-.8v-12.4c0-.3.1-.6.3-.8.2-.2.5-.3.8-.3s.6.1.8.3c.2.2.3.5.3.8v12.4ZM797.9,63.4c-.5,0-.8,0-1-.3-.2-.2-.3-.5-.3-.9v-.4c0-.4.1-.7.4-.9.2-.2.6-.3,1-.3s.8,0,1,.3c.2.2.3.5.3.9v.4c0,.4-.1.7-.4.9-.2.2-.6.3-1,.3ZM809.6,65.3c1.3,0,2.3.3,3.1,1,.8.6,1.3,1.5,1.6,2.7h-.4l.2-.5c.2-.5.6-1,1.1-1.5.5-.5,1.2-.9,1.9-1.2.7-.3,1.4-.5,2.2-.5,1.2,0,2.2.3,2.9.8.7.5,1.2,1.2,1.5,2.1.3.9.5,1.9.5,3v7.6c0,.3-.1.6-.3.8-.2.2-.5.3-.8.3s-.6-.1-.8-.3c-.2-.2-.3-.5-.3-.8v-7.6c0-.7-.1-1.4-.3-2-.2-.6-.6-1.1-1-1.4-.5-.4-1.1-.5-1.9-.5s-1.5.2-2.1.5c-.6.3-1.1.8-1.5,1.4-.4.6-.6,1.2-.6,2v7.6c0,.3-.1.6-.3.8-.2.2-.5.3-.8.3s-.6-.1-.8-.3c-.2-.2-.3-.5-.3-.8v-7.7c0-.7-.1-1.3-.3-1.9-.2-.6-.5-1-1-1.4-.5-.4-1.1-.5-1.9-.5s-1.4.2-2,.5c-.6.3-1.1.8-1.5,1.4-.4.6-.6,1.2-.6,1.9v7.7c0,.3-.1.6-.3.8-.2.2-.5.3-.8.3s-.6-.1-.8-.3c-.2-.2-.3-.5-.3-.8v-12.2c0-.3.1-.6.3-.8.2-.2.5-.3.8-.3s.6.1.8.3c.2.2.3.5.3.8v2.1l-.6.7c0-.5.3-1,.6-1.5.3-.5.7-.9,1.2-1.3.5-.4,1-.7,1.6-1,.6-.2,1.2-.4,1.9-.4ZM830.2,78.9c0,.3-.1.6-.3.8-.2.2-.5.3-.8.3s-.6-.1-.8-.3c-.2-.2-.3-.5-.3-.8v-12.4c0-.3.1-.6.3-.8.2-.2.5-.3.8-.3s.6.1.8.3c.2.2.3.5.3.8v12.4ZM829.1,63.4c-.5,0-.8,0-1-.3-.2-.2-.3-.5-.3-.9v-.4c0-.4.1-.7.4-.9.2-.2.6-.3,1-.3s.8,0,1,.3c.2.2.3.5.3.9v.4c0,.4-.1.7-.4.9-.2.2-.6.3-1,.3ZM840.3,80.3c-1.5,0-2.8-.4-3.9-1.3-1-.9-1.8-2.1-2.4-3.6-.5-1.5-.8-3.2-.8-5.2s.3-3.7.8-5.2c.5-1.5,1.3-2.7,2.4-3.6,1-.9,2.3-1.3,3.9-1.3s2.8.4,3.9,1.3c1,.9,1.8,2.1,2.4,3.6.5,1.5.8,3.2.8,5.2s-.3,3.6-.8,5.2c-.5,1.5-1.3,2.7-2.4,3.6-1,.9-2.3,1.3-3.9,1.3ZM840.3,78c1,0,1.8-.3,2.5-1,.7-.6,1.2-1.5,1.6-2.7.4-1.2.5-2.6.5-4.2s-.2-3-.5-4.2c-.4-1.2-.9-2.1-1.6-2.7-.7-.6-1.5-1-2.5-1s-1.8.3-2.5,1c-.7.6-1.2,1.5-1.6,2.7-.4,1.2-.5,2.5-.5,4.2s.2,3,.5,4.2c.4,1.2.9,2.1,1.6,2.7.7.6,1.5,1,2.5,1ZM856.8,80.3c-1.6,0-2.8-.4-3.9-1.3-1-.9-1.8-2.1-2.4-3.6-.5-1.5-.8-3.2-.8-5.2s.3-3.7.8-5.2c.5-1.5,1.3-2.7,2.4-3.6,1-.9,2.3-1.3,3.9-1.3s2.8.4,3.9,1.3c1,.9,1.8,2.1,2.4,3.6.5,1.5.8,3.2.8,5.2s-.3,3.6-.8,5.2c-.5,1.5-1.3,2.7-2.4,3.6-1,.9-2.3,1.3-3.9,1.3ZM856.8,78c1,0,1.8-.3,2.5-1,.7-.6,1.2-1.5,1.6-2.7.4-1.2.5-2.6.5-4.2s-.2-3-.5-4.2c-.4-1.2-.9-2.1-1.6-2.7-.7-.6-1.5-1-2.5-1s-1.8.3-2.5,1c-.7.6-1.2,1.5-1.6,2.7-.4,1.2-.5,2.5-.5,4.2s.2,3,.5,4.2c.4,1.2.9,2.1,1.6,2.7.7.6,1.5,1,2.5,1ZM873.3,80.3c-1.5,0-2.8-.4-3.9-1.3-1-.9-1.8-2.1-2.4-3.6-.5-1.5-.8-3.2-.8-5.2s.3-3.7.8-5.2c.5-1.5,1.3-2.7,2.4-3.6,1-.9,2.3-1.3,3.9-1.3s2.8.4,3.9,1.3c1,.9,1.8,2.1,2.4,3.6.5,1.5.8,3.2.8,5.2s-.3,3.6-.8,5.2-1.3,2.7-2.4,3.6c-1,.9-2.3,1.3-3.9,1.3ZM873.3,78c1,0,1.8-.3,2.5-1,.7-.6,1.2-1.5,1.6-2.7.4-1.2.5-2.6.5-4.2s-.2-3-.5-4.2c-.4-1.2-.9-2.1-1.6-2.7-.7-.6-1.5-1-2.5-1s-1.8.3-2.5,1c-.7.6-1.2,1.5-1.6,2.7-.4,1.2-.5,2.5-.5,4.2s.2,3,.5,4.2c.4,1.2.9,2.1,1.6,2.7.7.6,1.5,1,2.5,1ZM884.1,76.8c.1,0,.2,0,.4,0,.1,0,.3.1.5.3.4.3.8.6,1.3.8.5.2,1.1.3,1.7.3s1.5-.2,2.2-.5c.7-.4,1.2-.9,1.6-1.6.4-.7.6-1.4.6-2.3s-.2-1.7-.6-2.3c-.4-.6-.9-1.1-1.6-1.3-.6-.3-1.3-.4-2-.4s-.5,0-.7,0-.4,0-.6.1c-.2,0-.4,0-.5,0-.3,0-.5-.1-.7-.3-.2-.2-.3-.5-.3-.8s0-.3,0-.4c0-.1.2-.3.3-.5l5.4-5.9.4.5h-8c-.3,0-.6-.1-.8-.3-.2-.2-.3-.5-.3-.8s.1-.5.3-.7c.2-.2.5-.3.8-.3h9.1c.4,0,.7.1.9.4.2.2.3.5.3.8s0,.3-.1.5c0,.1-.2.3-.3.4l-5.4,5.9-.6-.6c0,0,.3-.1.6-.2.3,0,.6-.1.8-.1,1,0,2,.3,2.9.8.9.5,1.6,1.2,2.1,2.1.5.9.8,2,.8,3.2s-.3,2.5-.9,3.5c-.6,1-1.5,1.8-2.5,2.3-1.1.5-2.3.8-3.6.8s-1.5-.1-2.2-.3c-.7-.2-1.3-.6-1.8-1-.2-.1-.4-.3-.5-.4,0-.2-.1-.3-.1-.5,0-.3.1-.6.3-.8.2-.3.5-.4.8-.4ZM914.9,78.5c-.6,0-1.1-.1-1.6-.4-.5-.3-.8-.6-1.1-1.1-.2-.4-.3-1-.2-1.5l.2-1.7.4.3c-.3,1-.8,1.8-1.4,2.5-.6.6-1.2,1.1-2,1.4-.7.3-1.4.4-2.1.4s-1.5-.2-2.1-.6c-.6-.4-1.1-1-1.5-1.7-.4-.7-.6-1.5-.6-2.4s.2-1.8.5-2.7c.4-1,.8-1.8,1.4-2.7.6-.8,1.3-1.5,2.1-2,.8-.5,1.7-.8,2.7-.8s1.9.3,2.5,1c.7.7,1.1,1.5,1.2,2.5l-.6,1.5.6-3.9c0-.2.1-.4.3-.6.2-.2.4-.3.8-.3s.7.1.9.3c.1.2.2.5.1.9l-1.3,8c0,.6,0,1.1.3,1.4.3.3.6.4,1,.4.6,0,1.2-.2,1.8-.7s1-1.1,1.5-1.8c.4-.8.8-1.6,1-2.6.2-1,.4-1.9.4-2.9,0-1.4-.3-2.7-1-3.7-.7-1.1-1.6-1.9-2.8-2.5-1.2-.6-2.6-.9-4.3-.9s-3.6.3-5.2.8c-1.6.6-3,1.4-4.2,2.5-1.2,1.1-2.2,2.4-2.9,3.9-.7,1.5-1,3.3-1,5.3s.2,2.1.5,3.2c.3,1,.9,2,1.5,2.8.7.8,1.6,1.5,2.7,2,1.1.5,2.5.8,4,.8s1.9,0,2.6-.2c.7-.1,1.4-.4,1.9-.6.6-.3,1.2-.5,1.7-.8.2-.1.4-.1.6,0,.2,0,.3.2.4.4.2.4,0,.8-.6,1.1-.8.4-1.7.8-2.8,1.2-1,.4-2.4.6-3.9.6s-3.5-.3-4.8-.9c-1.3-.6-2.4-1.4-3.2-2.4-.8-1-1.4-2.1-1.8-3.3-.4-1.2-.6-2.5-.6-3.8,0-2.2.4-4.1,1.1-5.9.8-1.7,1.9-3.2,3.2-4.5,1.4-1.2,3-2.2,4.8-2.8,1.8-.7,3.8-1,5.9-1s3.9.4,5.4,1.2c1.5.8,2.5,1.8,3.3,3.2.7,1.3,1.1,2.8,1.1,4.4s-.2,2.3-.5,3.4c-.3,1.1-.8,2.1-1.4,3.1-.6.9-1.3,1.7-2.2,2.2-.8.6-1.8.8-2.8.8ZM907.6,76.7c.6,0,1.2-.1,1.7-.4.6-.3,1.1-.7,1.6-1.2.5-.5.8-1.1,1.1-1.7.3-.6.5-1.2.5-1.8.2-.9.2-1.6,0-2.2-.2-.6-.5-1-1-1.3-.5-.3-1.1-.4-1.7-.4s-1.4.2-1.9.6c-.6.4-1.1.9-1.5,1.5-.4.6-.7,1.3-.9,2-.2.7-.3,1.4-.3,2.1s.2,1.6.7,2.1c.5.5,1.1.8,1.7.8ZM924,77.7c-.2-.2-.2-.5-.2-.8,0-.3.2-.5.5-.7.2-.1.4-.2.6-.2.3,0,.5.1.7.4.5.6,1.1,1.1,1.8,1.5.7.4,1.5.5,2.5.5.4,0,.9,0,1.3-.2s.8-.4,1.1-.7c.3-.3.5-.8.5-1.3s-.2-.9-.5-1.2c-.3-.3-.7-.6-1.2-.8-.5-.2-1.1-.4-1.7-.5-.6-.2-1.2-.4-1.8-.6-.6-.2-1.1-.5-1.6-.8-.5-.3-.8-.7-1.1-1.2-.3-.5-.4-1.1-.4-1.8s.2-1.6.7-2.2c.5-.6,1.1-1.1,1.8-1.4.8-.3,1.6-.5,2.5-.5s1.1,0,1.6.2c.6.1,1.1.3,1.7.6.5.3,1,.7,1.4,1.2.2.2.3.4.3.7,0,.3-.1.5-.4.8-.2.1-.4.2-.7.2-.2,0-.4-.1-.6-.3-.4-.5-.9-.8-1.5-1.1-.6-.3-1.2-.4-1.9-.4s-.9,0-1.3.2c-.4.1-.8.4-1.1.7-.3.3-.4.7-.4,1.3,0,.5.2.9.5,1.2.3.3.7.6,1.3.8.5.2,1.1.4,1.8.6.6.1,1.2.3,1.7.5.6.2,1.1.4,1.5.8s.8.7,1.1,1.2c.3.5.4,1.1.4,1.8s-.2,1.6-.7,2.2c-.5.6-1.1,1.1-1.9,1.4-.8.3-1.6.5-2.5.5s-2-.2-3.1-.6c-1-.4-1.8-1.1-2.6-2ZM937.2,65.6h6.6c.3,0,.5.1.7.3.2.2.3.4.3.7s-.1.6-.3.8c-.2.2-.4.3-.7.3h-6.6c-.3,0-.5-.1-.7-.3-.2-.2-.3-.5-.3-.8s.1-.5.3-.7c.2-.2.4-.3.7-.3ZM940.1,61.8c.3,0,.6.1.8.3.2.2.3.5.3.8v13.5c0,.4,0,.8.2,1,.1.2.3.4.5.5.2,0,.4.1.6.1s.3,0,.5,0c.1,0,.3-.1.5-.1s.4,0,.5.3c.2.2.3.4.3.7s-.2.6-.6.9c-.4.2-.8.3-1.3.3s-.6,0-1,0c-.4,0-.7-.2-1.1-.4-.4-.2-.7-.5-1-1-.2-.5-.4-1.2-.4-2v-13.6c0-.3.1-.6.3-.8.2-.2.5-.3.8-.3ZM958.4,65.5c.3,0,.6.1.8.3.2.2.3.5.3.8v7.6c0,1.9-.5,3.4-1.6,4.4-1,1-2.5,1.5-4.4,1.5s-3.3-.5-4.4-1.5c-1-1-1.6-2.5-1.6-4.4v-7.6c0-.3.1-.6.3-.8.2-.2.5-.3.8-.3s.6.1.8.3c.2.2.3.5.3.8v7.6c0,1.3.3,2.2,1,2.9.7.7,1.6,1,2.7,1s2.1-.3,2.8-1c.7-.7,1-1.6,1-2.9v-7.6c0-.3.1-.6.3-.8.2-.2.5-.3.8-.3ZM975.3,59.3c.3,0,.6.1.8.3.2.2.3.5.3.8v18.5c0,.3-.1.6-.3.8-.2.2-.5.3-.8.3s-.6-.1-.8-.3c-.2-.2-.3-.5-.3-.8v-2.7l.5-.2c0,.4-.1.9-.4,1.4-.3.5-.7.9-1.1,1.4-.5.4-1.1.8-1.7,1.1-.7.3-1.4.4-2.1.4-1.3,0-2.4-.3-3.4-1-1-.7-1.8-1.5-2.4-2.7-.6-1.1-.9-2.4-.9-3.9s.3-2.8.9-3.9c.6-1.1,1.4-2,2.4-2.7,1-.7,2.1-1,3.4-1s1.5.1,2.2.4c.7.3,1.3.6,1.8,1.1.5.4.9.9,1.2,1.5s.4,1.1.4,1.6l-.7-.2v-9.2c0-.3.1-.6.3-.8.2-.2.5-.3.8-.3ZM969.6,78.2c.9,0,1.8-.2,2.5-.7.7-.5,1.3-1.1,1.7-2,.4-.8.6-1.8.6-2.8s-.2-2-.6-2.8c-.4-.8-1-1.5-1.7-1.9-.7-.5-1.5-.7-2.5-.7s-1.7.2-2.5.7c-.7.5-1.3,1.1-1.7,1.9-.4.8-.6,1.8-.6,2.8s.2,2,.6,2.8c.4.8,1,1.5,1.7,2,.7.5,1.5.7,2.5.7ZM981,80c-.4,0-.7-.1-.9-.3-.2-.2-.3-.5-.3-.9v-.6c0-.4.1-.7.3-1,.2-.2.5-.3.9-.3h.2c.4,0,.7.1.9.3.2.2.3.5.3,1v.6c0,.4-.1.7-.3.9s-.5.3-.9.3h-.2ZM987,80c-.3,0-.6-.1-.8-.3-.2-.2-.3-.5-.3-.8v-18.5c0-.3.1-.6.3-.8.2-.2.5-.3.8-.3s.6.1.8.3c.2.2.3.5.3.8v18.5c0,.3-.1.6-.3.8-.2.2-.5.3-.8.3ZM996.3,65.4c.3,0,.6.1.8.4.2.2.3.5.3.7s-.1.6-.4.8l-9.1,7.9v-2.6c0,0,7.6-6.9,7.6-6.9.2-.2.5-.3.8-.3ZM996.6,80c-.3,0-.6-.1-.8-.4l-6-6.4,1.7-1.5,5.9,6.3c.2.2.3.5.3.8s-.1.6-.4.8c-.3.2-.5.3-.7.3ZM1006.8,80.3c-1.5,0-2.8-.3-3.9-1-1.1-.6-2-1.5-2.6-2.6-.6-1.1-.9-2.4-.9-3.9s.3-3,.9-4.1c.7-1.2,1.5-2,2.5-2.6,1-.6,2.1-.9,3.3-.9s1.7.2,2.5.5,1.5.8,2.1,1.4c.6.6,1.1,1.3,1.5,2.2.4.8.6,1.8.6,2.8,0,.3-.1.6-.3.8-.2.2-.5.3-.8.3h-11.1l-.5-1.9h10.8l-.4.4v-.6c0-.8-.3-1.4-.8-2-.4-.6-1-1-1.6-1.3-.6-.3-1.3-.4-2-.4s-1.1.1-1.7.3c-.5.2-1,.5-1.5,1-.4.4-.8,1-1.1,1.7-.3.7-.4,1.5-.4,2.5s.2,2,.6,2.9c.4.8,1.1,1.5,1.8,2,.8.5,1.7.7,2.7.7s1.2,0,1.7-.3c.5-.2.9-.4,1.3-.6.4-.3.6-.5.9-.8.2-.2.5-.3.7-.3s.5,0,.7.3c.2.2.3.4.3.7s-.2.6-.5.8c-.5.6-1.2,1.1-2.1,1.5-.9.4-1.8.6-2.8.6ZM1027.8,65.4c.3,0,.6.1.8.3.2.2.3.5.3.8v12.3c0,.3-.1.6-.3.8-.2.2-.5.3-.8.3s-.6-.1-.8-.3c-.2-.2-.3-.5-.3-.8v-2.7h.5c0,.4-.1.8-.4,1.3-.3.5-.7.9-1.2,1.4-.5.4-1.1.8-1.7,1-.7.3-1.4.4-2.1.4-1.3,0-2.4-.3-3.4-1-1-.7-1.8-1.6-2.4-2.7-.6-1.1-.9-2.4-.9-3.9s.3-2.8.9-3.9c.6-1.1,1.4-2,2.4-2.7,1-.7,2.1-1,3.4-1s1.5.1,2.2.4c.7.3,1.3.6,1.8,1.1.5.4.9.9,1.2,1.5.3.5.4,1.1.4,1.6l-.7-.2v-3.1c0-.3.1-.6.3-.8.2-.2.5-.3.8-.3ZM1022.1,78.2c.9,0,1.8-.2,2.5-.7.7-.5,1.3-1.1,1.7-2,.4-.8.6-1.8.6-2.8s-.2-2-.6-2.8c-.4-.8-.9-1.5-1.7-2-.7-.5-1.5-.7-2.5-.7s-1.7.2-2.5.7c-.7.5-1.3,1.1-1.7,1.9-.4.8-.6,1.8-.6,2.8s.2,2,.6,2.8c.4.8,1,1.5,1.7,2,.7.5,1.6.7,2.5.7ZM1033.5,80c-.4,0-.7-.1-.9-.3-.2-.2-.3-.5-.3-.9v-.6c0-.4,0-.7.3-1,.2-.2.5-.3.9-.3h.2c.4,0,.7.1.9.3.2.2.3.5.3,1v.6c0,.4-.1.7-.3.9-.2.2-.5.3-.9.3h-.2ZM1050.2,59.3c.3,0,.6.1.8.3.2.2.3.5.3.8v18.5c0,.3-.1.6-.3.8-.2.2-.5.3-.8.3s-.6-.1-.8-.3c-.2-.2-.3-.5-.3-.8v-2.7l.5-.2c0,.4-.1.9-.4,1.4-.3.5-.7.9-1.1,1.4-.5.4-1.1.8-1.7,1.1-.7.3-1.4.4-2.1.4-1.2,0-2.4-.3-3.4-1-1-.7-1.8-1.5-2.4-2.7-.6-1.1-.9-2.4-.9-3.9s.3-2.8.9-3.9c.6-1.1,1.4-2,2.4-2.7,1-.7,2.1-1,3.4-1s1.5.1,2.2.4c.7.3,1.3.6,1.8,1.1.5.4.9.9,1.2,1.5.3.5.4,1.1.4,1.6l-.7-.2v-9.2c0-.3.1-.6.3-.8.2-.2.5-.3.8-.3ZM1044.4,78.2c.9,0,1.8-.2,2.5-.7.7-.5,1.3-1.1,1.7-2,.4-.8.6-1.8.6-2.8s-.2-2-.6-2.8c-.4-.8-1-1.5-1.7-1.9-.7-.5-1.5-.7-2.5-.7s-1.7.2-2.5.7c-.7.5-1.3,1.1-1.7,1.9-.4.8-.6,1.8-.6,2.8s.2,2,.6,2.8c.4.8,1,1.5,1.7,2,.7.5,1.5.7,2.5.7ZM1056.5,80c-.3,0-.6-.1-.8-.3-.2-.2-.3-.5-.3-.8v-18.5c0-.3,0-.6.3-.8.2-.2.5-.3.8-.3s.6.1.8.3c.2.2.3.5.3.8v18.5c0,.3-.1.6-.3.8-.2.2-.5.3-.8.3ZM1065.8,65.4c.3,0,.6.1.8.4.2.2.3.5.3.7s-.2.6-.4.8l-9.1,7.9v-2.6c0,0,7.6-6.9,7.6-6.9.2-.2.5-.3.8-.3ZM1066.1,80c-.3,0-.6-.1-.8-.4l-6-6.4,1.7-1.5,5.9,6.3c.2.2.3.5.3.8s-.1.6-.4.8c-.3.2-.5.3-.7.3Z"/>
</svg>