<svg width="69" height="60" viewBox="0 0 69 60" fill="none" xmlns="http://www.w3.org/2000/svg">
<path d="M24.5301 57.6737C18.7225 56.1598 14.8913 53.6703 13.9681 53.0524C13.3135 52.6152 10.3593 50.6026 7.47231 47.1628C3.54043 42.4729 2.19345 38.0719 1.92909 37.1722C1.51786 35.7667 0.061758 30.3143 1.92909 23.5287C4.33773 14.7846 10.6699 9.63217 12.0588 8.54459C20.9213 1.59272 31.1853 1.08326 33.531 1.01461C36.0445 0.942342 46.9045 0.870076 56.388 7.87252C67.357 15.9734 67.9319 27.2178 67.9906 29.3351C68.0661 32.1246 67.7514 37.2373 64.6126 42.7619C63.7524 44.2722 57.8399 54.2664 44.1559 57.811C34.7605 60.2427 26.8967 58.2916 24.5217 57.6737H24.5301Z" stroke="#4C4D53" stroke-width="2" stroke-miterlimit="10"/>
<path d="M25.7805 57.2688C25.9316 56.9978 26.133 56.5678 26.2212 56.0186C26.3219 55.4188 26.2212 54.9563 26.2212 54.7937V50.8842C25.9568 50.924 25.6001 50.9745 25.1763 51.0215C24.7105 51.0721 23.8209 51.1624 22.6963 51.1516C22.0417 51.1444 21.022 51.1299 19.7421 50.8842C19.0456 50.7505 18.4832 50.6385 17.7951 50.3314C17.5391 50.2158 16.9181 49.9195 16.2677 49.3775C15.9907 49.1462 15.7515 48.9475 15.5039 48.6223C15.2941 48.3477 15.2396 48.1851 14.6647 46.9133C14.4465 46.4327 14.4255 46.393 14.3961 46.3388C14.329 46.2195 14.1527 45.9016 13.5191 45.1247C13.1708 44.6984 12.8855 44.3804 12.5834 44.0733C12.2309 43.7156 12.0546 43.5746 11.8196 43.4482C11.6308 43.347 11.5595 43.3398 11.2657 43.1844C11.0685 43.0796 10.8503 42.964 10.6069 42.7725C10.4055 42.6135 10.2083 42.4581 10.0572 42.2052C9.93972 42.0029 9.83481 41.8258 9.90195 41.6741C10.053 41.3417 10.9468 41.3633 11.2489 41.3706C11.6224 41.3814 12.3694 41.4356 13.3681 41.8439C13.7877 42.0137 14.7612 42.4184 15.6172 43.2603C15.8984 43.5349 16.2173 43.936 16.8551 44.7345C17.2747 45.262 17.3167 45.3379 17.5433 45.58C17.7909 45.8437 18.2399 46.3099 18.9742 46.7398C19.2806 46.9205 19.8596 47.2529 20.7031 47.4408C21.064 47.5203 21.5423 47.5926 22.2893 47.5745C23.888 47.5347 26.0911 47.6504 26.2799 46.8121C26.3303 46.5808 26.3387 46.5519 26.4352 46.122C26.8338 44.2973 28.655 43.2242 28.3738 42.917C28.3151 42.852 28.206 42.8628 28.0172 42.8701C27.3038 42.8953 26.603 42.7111 25.8938 42.6496C24.5007 42.5304 22.7173 41.9053 22.2641 41.7463C20.296 41.0562 18.9784 40.2432 18.6553 40.0409C18.0636 39.6687 17.3503 39.2207 16.6117 38.5053C15.399 37.331 14.8955 36.1784 14.371 34.9535C14.094 34.3031 13.4058 32.5723 13.2002 30.1912C13.1037 29.0603 12.9904 27.7595 13.3597 26.195C13.9261 23.785 15.3571 21.9494 16.6327 20.7137L16.5446 20.6198C16.2928 20.1573 15.9823 19.4563 15.8439 18.5747C15.7809 18.1664 15.7725 17.8376 16.0998 15.4817C16.3558 13.6426 16.4523 13.1873 16.9097 12.9633C17.1279 12.8585 17.3965 12.8152 18.3028 12.9633C19.7422 13.1982 20.8164 13.5848 21.2276 13.7366C23.5523 14.6001 25.961 15.8178 26.1289 15.984C26.1372 15.9948 26.1834 16.0382 26.2463 16.0454C26.3554 16.0563 26.4519 15.9406 26.4729 15.9226C26.8128 15.5504 28.7893 15.3047 28.7893 15.3047C30.2244 15.1276 30.9419 15.0373 31.1559 15.0265C32.7337 14.9289 34.471 14.8241 36.7705 14.9976C38.4574 15.1276 41.8816 15.5143 42.5446 15.8069C42.5907 15.8286 42.7921 15.9226 43.0313 15.89C43.3376 15.8503 43.5307 15.6371 43.581 15.5829C44.0804 15.0662 45.8889 14.3833 48.1255 13.5451C48.1255 13.5451 49.0907 13.1837 50.6223 12.873C51.0881 12.779 51.6881 12.6779 52.049 12.9561C52.2211 13.0898 52.2714 13.256 52.3092 13.3752C52.8421 15.0662 52.9135 14.8025 53.0561 15.6371C53.1568 16.2405 53.1695 16.6777 53.1862 17.2016C53.2282 18.6506 53.2491 19.3732 52.8925 19.7707C52.7498 19.9333 52.4477 20.2006 52.5022 20.5258C52.5358 20.7209 52.6868 20.8546 52.7288 20.8908C53.5932 21.6568 53.9877 22.7371 54.6759 23.6296C55.9389 25.2628 55.9389 28.0016 55.9431 29.3566C55.9431 31.9183 55.2298 33.8839 54.806 34.8595C54.378 35.8532 53.9038 36.948 52.8589 38.1295C50.8279 40.4203 47.5003 42.039 44.2273 42.404C43.2831 42.5087 40.6856 42.693 40.6898 42.8773C40.6898 42.9206 40.8451 42.9604 41.101 43.1989C41.164 43.2603 41.2101 43.3073 41.2521 43.3542C41.4032 43.5204 41.5164 43.6722 41.613 43.8095C42.1249 44.5466 42.3767 45.1464 42.3767 45.1464C42.4271 45.2656 42.5488 45.5655 42.6537 45.9594C42.939 47.0253 42.9096 48.0334 42.8928 48.3369C42.8928 48.373 42.8928 48.3983 42.8928 48.4091C42.8509 49.1462 42.8257 51.4479 42.8551 56.8208C42.8677 56.8424 42.8929 56.875 42.918 56.9147C43.1069 57.1929 43.2957 57.4567 43.5684 57.6084C43.6817 57.6699 43.9167 57.7783 44.3112 57.7674" stroke="#4C4D53" stroke-width="2" stroke-miterlimit="10"/>
</svg>
