<svg width="453" height="156" viewBox="0 0 453 156" fill="none" xmlns="http://www.w3.org/2000/svg">
<rect x="-232.478" y="10.4004" width="731.878" height="145.6" rx="6" fill="#4F5057"/>
<ellipse cx="439.002" cy="73.543" rx="1.52263" ry="2.22857" fill="#F7FF85"/>
<ellipse cx="362.871" cy="46.7999" rx="1.52263" ry="2.22857" fill="#F7FF85"/>
<ellipse cx="262.377" cy="118.114" rx="1.52263" ry="2.22857" fill="#F7FF85"/>
<ellipse cx="46.1633" cy="101.772" rx="1.52263" ry="2.22857" fill="#F7FF85"/>
<ellipse cx="142.597" cy="112.171" rx="1.52263" ry="2.22857" fill="#F7FF85"/>
<ellipse cx="144.119" cy="28.2286" rx="3.04526" ry="4.45714" fill="#F7FF85"/>
<ellipse cx="364.394" cy="127.772" rx="3.04526" ry="4.45714" fill="#F7FF85"/>
<ellipse cx="26.3689" cy="47.5425" rx="4.06035" ry="5.94286" fill="#F7FF85"/>
<ellipse cx="397.891" cy="60.9145" rx="4.06035" ry="5.94286" fill="#F7FF85"/>
<ellipse cx="297.397" cy="138.171" rx="4.06035" ry="5.94286" fill="#F7FF85"/>
<ellipse cx="111.637" cy="114.4" rx="4.06035" ry="5.94286" fill="#F7FF85"/>
<ellipse cx="190.814" cy="118.858" rx="3.04526" ry="4.45714" fill="#F7FF85"/>
<ellipse cx="319.73" cy="23.7716" rx="3.04526" ry="4.45714" fill="#F7FF85"/>
<ellipse cx="19.7717" cy="130" rx="1.52263" ry="2.22857" fill="#F7FF85"/>
<ellipse cx="234.462" cy="26.7433" rx="3.04526" ry="4.45714" fill="#F7FF85"/>
<ellipse cx="439.51" cy="117.371" rx="3.04526" ry="4.45714" fill="#F7FF85"/>
</svg>
