<svg width="1329" height="112" viewBox="0 0 1329 112" fill="none" xmlns="http://www.w3.org/2000/svg">
<path d="M28.206 36.3198C30.3179 35.933 50.0009 32.8225 60.3883 52.0334C61.7388 54.5315 68.477 67.6504 65.0289 82.3004C60.9486 99.6902 45.9637 104.477 42.3145 105.637C29.4559 109.747 18.8816 102.833 14.6002 99.4C10.3332 95.9833 4.47143 91.2773 2.02902 81.833C-2.22365 65.3135 8.03454 49.8093 8.73852 48.7779C15.7209 38.5438 24.8297 36.8999 28.1916 36.3036L28.206 36.3198Z" fill="#DD8E6F" stroke="white" stroke-linecap="round" stroke-linejoin="round"/>
<path d="M43.5566 61.0914C44.5313 60.9171 53.6158 59.5151 58.41 68.1736C59.0333 69.2995 62.1432 75.2122 60.5518 81.815C58.6686 89.6527 51.7525 91.8101 50.0682 92.3331C44.1335 94.1853 39.2531 91.0691 37.277 89.5219C35.3076 87.982 32.6022 85.861 31.4749 81.6044C29.5122 74.159 34.2467 67.1712 34.5716 66.7063C37.7943 62.0938 41.9983 61.3529 43.55 61.0841L43.5566 61.0914Z" fill="#FFEBCD" stroke="white" stroke-linecap="round" stroke-linejoin="round"/>
<path d="M309.996 68.5613C311.131 68.1992 321.748 65.1148 328.773 75.7401C329.686 77.1218 334.288 84.4004 333.39 93.2289C332.331 103.708 324.413 107.477 322.484 108.392C315.691 111.628 309.402 108.24 306.812 106.496C304.232 104.761 300.686 102.37 298.698 96.9764C295.232 87.541 299.818 77.7757 300.135 77.1247C303.279 70.6653 308.178 69.1178 309.987 68.5528L309.996 68.5613Z" fill="#DD8E6F" stroke="white" stroke-linecap="round" stroke-linejoin="round"/>
<path d="M320.281 82.3328C320.785 82.1701 325.502 80.7847 328.635 85.5967C329.042 86.2224 331.094 89.5185 330.703 93.5106C330.242 98.249 326.725 99.9466 325.869 100.359C322.851 101.816 320.053 100.278 318.9 99.487C317.751 98.6998 316.173 97.6152 315.284 95.174C313.735 90.9034 315.765 86.491 315.905 86.1968C317.297 83.2783 319.473 82.5828 320.277 82.3289L320.281 82.3328Z" fill="#FFEBCD" stroke="white" stroke-linecap="round" stroke-linejoin="round"/>
<path d="M591.343 32.1497C593.283 33.0709 611.069 42.0571 608.262 63.7154C607.897 66.5315 605.692 81.1139 594.328 90.982C580.849 102.703 565.894 97.8237 562.256 96.6311C549.421 92.446 544.886 80.654 543.42 75.3657C541.957 70.0989 539.953 62.8536 543.495 53.764C549.704 37.8764 567.092 31.2976 568.266 30.8725C579.915 26.6534 588.265 30.6461 591.341 32.1282L591.343 32.1497Z" fill="#DD8E6F" stroke="white" stroke-linecap="round" stroke-linejoin="round"/>
<path d="M589.311 61.2214C590.204 61.6499 598.393 65.8247 597.219 75.652C597.067 76.9298 596.132 83.5449 590.98 87.9706C584.869 93.2275 577.997 90.9334 576.325 90.3728C570.428 88.4051 568.291 83.0234 567.593 80.6128C566.895 78.212 565.941 74.9094 567.516 70.7972C570.277 63.6096 578.204 60.7095 578.739 60.5224C584.051 58.6651 587.894 60.5223 589.31 61.2116L589.311 61.2214Z" fill="#FFEBCD" stroke="white" stroke-linecap="round" stroke-linejoin="round"/>
<path d="M857.391 5.59211C858.199 5.14932 865.794 1.19982 872.454 6.58904C873.32 7.28985 877.723 11.0212 878.186 16.7684C878.74 23.5885 873.265 27.4621 871.931 28.4035C867.233 31.7283 862.061 30.7732 859.887 30.1595C857.72 29.5495 854.742 28.707 852.55 25.674C848.723 20.3658 850.916 13.3318 851.071 12.8607C852.605 8.18727 856.094 6.28629 857.383 5.5884L857.391 5.59211Z" fill="#DD8E6F" stroke="white" stroke-linecap="round" stroke-linejoin="round"/>
<path d="M867.039 12.6864C867.415 12.4835 870.95 10.672 873.993 13.0375C874.389 13.3451 876.4 14.9842 876.578 17.5484C876.792 20.5912 874.238 22.3556 873.615 22.7845C871.424 24.2989 869.04 23.9046 868.039 23.6441C867.042 23.3852 865.671 23.0275 864.677 21.6864C862.942 19.3394 863.999 16.1839 864.074 15.9725C864.811 13.8755 866.435 13.0045 867.035 12.6848L867.039 12.6864Z" fill="#FFEBCD" stroke="white" stroke-linecap="round" stroke-linejoin="round"/>
<path d="M1149.76 70.6266C1150.35 71.6945 1155.54 81.7258 1149.18 90.3392C1148.35 91.4592 1143.93 97.1511 1136.87 97.6392C1128.48 98.2254 1123.46 90.9734 1122.25 89.2065C1117.94 82.984 1118.9 76.2282 1119.57 73.392C1120.23 70.5661 1121.14 66.682 1124.79 63.8724C1131.17 58.9683 1139.94 61.9863 1140.53 62.1985C1146.36 64.3036 1148.85 68.9133 1149.77 70.6163L1149.76 70.6266Z" fill="#DD8E6F" stroke="white" stroke-linecap="round" stroke-linejoin="round"/>
<path d="M1141.55 82.8059C1141.81 83.2988 1144.15 87.9252 1141.52 91.775C1141.18 92.2756 1139.35 94.8173 1136.33 94.9594C1132.74 95.1312 1130.51 91.7724 1129.97 90.9541C1128.06 88.072 1128.39 85.0068 1128.65 83.7229C1128.9 82.4436 1129.24 80.6855 1130.77 79.4475C1133.45 77.2869 1137.24 78.7604 1137.5 78.8638C1140.02 79.8883 1141.14 82.0155 1141.55 82.8013L1141.55 82.8059Z" fill="#FFEBCD" stroke="white" stroke-linecap="round" stroke-linejoin="round"/>
<path d="M1296.6 34.1791C1298.36 33.923 1314.71 31.864 1323.34 44.5811C1324.46 46.2347 1330.06 54.9191 1327.19 64.6169C1323.8 76.1285 1311.35 79.2971 1308.32 80.0653C1297.64 82.7858 1288.86 78.2089 1285.3 75.9364C1281.75 73.6747 1276.88 70.5594 1274.85 64.3075C1271.32 53.3721 1279.84 43.1088 1280.43 42.426C1286.23 35.6513 1293.8 34.5631 1296.59 34.1684L1296.6 34.1791Z" fill="#DD8E6F" stroke="white" stroke-linecap="round" stroke-linejoin="round"/>
<path d="M1309.46 51.0267C1310.28 50.9123 1317.85 49.9923 1321.84 55.6744C1322.36 56.4132 1324.95 60.2935 1323.63 64.6266C1322.06 69.77 1316.29 71.1858 1314.89 71.529C1309.94 72.7446 1305.88 70.6996 1304.23 69.6842C1302.59 68.6736 1300.34 67.2817 1299.4 64.4883C1297.76 59.6023 1301.71 55.0165 1301.98 54.7115C1304.66 51.6845 1308.17 51.1983 1309.46 51.0219L1309.46 51.0267Z" fill="#FFEBCD" stroke="white" stroke-linecap="round" stroke-linejoin="round"/>
</svg>
