<svg width="206" height="175" viewBox="0 0 206 175" fill="none" xmlns="http://www.w3.org/2000/svg">
<path d="M35.7399 0.940245C38.4367 0.564343 63.5704 -2.45854 76.8343 16.2113C78.5588 18.639 87.1629 31.3883 82.76 45.6256C77.5498 62.5256 58.4152 67.1774 53.7554 68.3051C37.336 72.299 23.8335 65.5797 18.3665 62.2436C12.9178 58.9231 5.43274 54.3497 2.31397 45.1714C-3.11636 29.1172 9.98256 14.0498 10.8815 13.0474C19.7975 3.10165 31.4287 1.50408 35.7215 0.924567L35.7399 0.940245Z" fill="#EBD9C6" stroke="white" stroke-linecap="round" stroke-linejoin="round"/>
<path d="M182.324 31.7585C183.591 31.5515 195.401 29.8867 201.633 40.1687C202.443 41.5057 206.486 48.527 204.417 56.3679C201.969 65.6751 192.978 68.2369 190.789 68.858C183.074 71.0576 176.729 67.3571 174.16 65.5198C171.6 63.6911 168.083 61.1724 166.617 56.1177C164.066 47.2763 170.221 38.9783 170.643 38.4262C174.833 32.9489 180.298 32.069 182.315 31.7499L182.324 31.7585Z" fill="#EBD9C6" stroke="white" stroke-linecap="round" stroke-linejoin="round"/>
<path d="M123.74 103.946C126.437 103.565 151.57 100.498 164.834 119.438C166.559 121.901 175.163 134.835 170.76 149.279C165.55 166.424 146.415 171.143 141.755 172.287C125.336 176.339 111.833 169.522 106.366 166.138C100.918 162.769 93.4327 158.129 90.314 148.818C84.8836 132.531 97.9826 117.246 98.8815 116.229C107.798 106.139 119.429 104.518 123.722 103.93L123.74 103.946Z" fill="#EBD9C6" stroke="white" stroke-linecap="round" stroke-linejoin="round"/>
<path d="M44.6267 44.6589C45.374 44.5445 52.3388 43.6245 56.0143 49.3066C56.4922 50.0454 58.8765 53.9257 57.6564 58.2588C56.2126 63.4022 50.9102 64.818 49.619 65.1612C45.069 66.3768 41.3274 64.3318 39.8124 63.3164C38.3025 62.3058 36.2284 60.9139 35.3641 58.1205C33.8593 53.2345 37.4891 48.6487 37.7382 48.3437C40.209 45.3167 43.432 44.8305 44.6216 44.6541L44.6267 44.6589Z" fill="#FFEBCD" stroke="white" stroke-linecap="round" stroke-linejoin="round"/>
<path d="M26.2783 32.5944C26.7657 32.5399 31.3079 32.1018 33.705 34.8076C34.0167 35.1594 35.5716 37.0072 34.7759 39.0705C33.8343 41.5198 30.3762 42.194 29.5341 42.3574C26.5667 42.9362 24.1265 41.9624 23.1385 41.4789C22.1538 40.9977 20.8011 40.3349 20.2375 39.0047C19.2561 36.678 21.6234 34.4943 21.7858 34.349C23.3971 32.9076 25.4992 32.6761 26.275 32.5921L26.2783 32.5944Z" fill="#FFEBCD" stroke="white" stroke-linecap="round" stroke-linejoin="round"/>
<path d="M45.6041 25.6002C45.9615 25.5403 49.2925 25.0584 51.0503 28.0348C51.2789 28.4218 52.4192 30.4543 51.8357 32.724C51.1452 35.4182 48.6092 36.1598 47.9917 36.3396C45.8156 36.9763 44.0261 35.9051 43.3016 35.3732C42.5795 34.8439 41.5875 34.1148 41.1741 32.6516C40.4545 30.0922 42.1905 27.6902 42.3096 27.5304C43.4912 25.9448 45.0327 25.6901 45.6017 25.5977L45.6041 25.6002Z" fill="#FFEBCD" stroke="white" stroke-linecap="round" stroke-linejoin="round"/>
<path d="M191.534 45.6296C192.119 45.5424 197.569 44.8414 200.446 49.1707C200.82 49.7336 202.686 52.69 201.731 55.9914C200.601 59.9102 196.451 60.9889 195.441 61.2504C191.88 62.1765 188.952 60.6184 187.766 59.8448C186.585 59.0749 184.961 58.0144 184.285 55.8861C183.107 52.1634 185.948 48.6695 186.143 48.437C188.077 46.1308 190.599 45.7603 191.53 45.6259L191.534 45.6296Z" fill="#FFEBCD" stroke="white" stroke-linecap="round" stroke-linejoin="round"/>
<path d="M131.301 114.67C132.178 114.545 140.354 113.538 144.669 119.761C145.23 120.57 148.029 124.82 146.597 129.566C144.902 135.199 138.677 136.75 137.161 137.125C131.82 138.457 127.428 136.217 125.649 135.105C123.877 133.998 121.442 132.474 120.427 129.414C118.661 124.063 122.922 119.04 123.214 118.706C126.115 115.391 129.898 114.858 131.295 114.665L131.301 114.67Z" fill="#FFEBCD" stroke="white" stroke-linecap="round" stroke-linejoin="round"/>
<path d="M145.023 154.583C145.413 154.539 149.046 154.188 150.964 156.353C151.213 156.635 152.457 158.113 151.821 159.763C151.067 161.723 148.301 162.262 147.627 162.393C145.253 162.856 143.301 162.077 142.511 161.69C141.723 161.305 140.641 160.775 140.19 159.711C139.405 157.849 141.299 156.102 141.429 155.986C142.718 154.833 144.399 154.648 145.02 154.581L145.023 154.583Z" fill="#FFEBCD" stroke="white" stroke-linecap="round" stroke-linejoin="round"/>
</svg>
