<svg width="152" height="156" viewBox="0 0 152 156" fill="none" xmlns="http://www.w3.org/2000/svg">
<path opacity="0.5" d="M74.8891 26.2622C78.6758 26.3101 117.205 25.5062 127.316 61.1178C128.63 65.7484 135.386 84.6349 123.551 108.045C109.525 135.837 80.6608 145.122 73.9194 145.864C50.1569 148.512 32.0404 134.634 26.0643 127.471C20.1065 120.34 11.9269 110.524 11.5362 93.8944C10.8863 64.8141 34.7729 42.2169 36.399 40.7207C52.5291 25.8743 68.8509 26.1217 74.8709 26.2304L74.8891 26.2622Z" fill="white" stroke="#B6AFAF" stroke-width="2" stroke-linecap="round" stroke-linejoin="round"/>
<path d="M23.2717 46.6492C23.1578 46.8844 22.9696 47.0266 22.7072 47.0758L17.4669 48.1301L16.8508 46.4158L22.2911 45.334C22.5077 45.2937 22.7084 45.3184 22.8932 45.4079C23.1283 45.5219 23.2788 45.7037 23.3445 45.9533C23.4018 46.1989 23.3776 46.4309 23.2717 46.6492ZM14.4629 42.1939C14.5606 41.9924 14.724 41.8693 14.953 41.8247C15.1777 41.7676 15.374 41.7798 15.542 41.8612C15.7184 41.9467 15.8456 42.1016 15.9235 42.3261L18.4175 50.0531L16.5854 49.2431L14.4535 42.9517C14.354 42.6649 14.3571 42.4123 14.4629 42.1939ZM20.7076 51.9407C20.5936 52.1759 20.4306 52.3303 20.2187 52.4039C19.9983 52.4734 19.7789 52.4552 19.5605 52.3494L12.2785 48.8206C12.0601 48.7148 11.9162 48.5517 11.8466 48.3313C11.7687 48.1069 11.7867 47.8771 11.9007 47.6419C12.0147 47.4067 12.1798 47.2586 12.3961 47.1975C12.6081 47.1239 12.8233 47.14 13.0416 47.2458L20.3237 50.7746C20.5421 50.8804 20.6922 51.0413 20.7742 51.2574C20.8478 51.4693 20.8256 51.6971 20.7076 51.9407ZM24.4958 42.6242C24.7059 42.7456 24.8417 42.921 24.9031 43.1505C24.9611 43.3673 24.9295 43.5807 24.8081 43.7908C24.6914 43.9929 24.5246 44.1229 24.3079 44.1809C24.083 44.2343 23.8655 44.2003 23.6554 44.0789L16.1636 39.7512C15.9534 39.6298 15.8194 39.4607 15.7613 39.244C15.6999 39.0145 15.7299 38.7946 15.8513 38.5845C15.9726 38.3744 16.1434 38.2467 16.3636 38.2014C16.5803 38.1434 16.7938 38.1751 17.0039 38.2964L24.4958 42.6242ZM26.4021 39.5942C26.6054 39.7267 26.7341 39.9052 26.7882 40.1299C26.8345 40.3494 26.7914 40.5609 26.6589 40.7642C26.5264 40.9675 26.3504 41.0923 26.1308 41.1386C25.9035 41.1798 25.6881 41.1342 25.4848 41.0017L20.6407 37.8448C20.4374 37.7123 20.3126 37.5363 20.2663 37.3167C20.2121 37.0921 20.2513 36.8781 20.3838 36.6748C20.5163 36.4715 20.6962 36.3492 20.9236 36.308C21.1432 36.2617 21.3546 36.3048 21.5579 36.4373L26.4021 39.5942ZM19.6138 36.1897C19.4405 36.4555 19.2752 36.6152 19.1179 36.6686C18.9605 36.722 18.7723 36.6774 18.5534 36.5347L18.3305 36.3894C18.1038 36.2417 17.9895 36.0837 17.9878 35.9154C17.9833 35.7342 18.0626 35.5185 18.2256 35.2683C18.404 34.9946 18.5719 34.8311 18.7292 34.7777C18.8866 34.7243 19.0747 34.7689 19.2937 34.9116L19.5165 35.0568C19.7433 35.2046 19.8614 35.3651 19.871 35.5385C19.8728 35.7067 19.787 35.9238 19.6138 36.1897ZM28.7428 37.8995C28.5914 38.0891 28.4042 38.1964 28.1812 38.2214C27.9509 38.2405 27.7409 38.1744 27.5513 38.0229L20.7908 32.6236C20.6012 32.4721 20.4939 32.2849 20.469 32.0619C20.4367 31.8331 20.4963 31.6239 20.6477 31.4343C20.7992 31.2447 20.99 31.1403 21.2203 31.1212C21.4433 31.0962 21.6496 31.1594 21.8392 31.3109L28.5997 36.7102C28.7894 36.8616 28.9003 37.0518 28.9325 37.2806C28.9575 37.5036 28.8943 37.7099 28.7428 37.8995ZM25.6686 29.7466C25.8026 29.5789 25.9883 29.4884 26.2259 29.4751C26.4635 29.4617 26.6479 29.5075 26.7792 29.6123C26.9542 29.7521 27.0484 29.9707 27.0618 30.268L27.4622 35.9809L25.9089 34.8299L25.492 30.394C25.4641 30.1447 25.523 29.9289 25.6686 29.7466ZM31.6412 34.248C31.4898 34.4376 31.2887 34.5398 31.038 34.5546L27.2776 34.8659L27.1538 33.1366L30.8705 32.8799C31.127 32.8578 31.3464 32.9196 31.5288 33.0652C31.7184 33.2166 31.814 33.4185 31.8157 33.6706C31.8159 33.9097 31.7577 34.1021 31.6412 34.248ZM34.3192 21.3949C34.8441 20.9753 35.3318 20.7707 35.7822 20.7811C36.2399 20.7857 36.6713 20.9367 37.0764 21.2342C37.4756 21.5245 37.8588 21.8992 38.226 22.3585L40.4638 25.1581C40.6153 25.3476 40.6815 25.5575 40.6625 25.7878C40.6376 26.0108 40.5304 26.1981 40.3408 26.3496C40.1513 26.5011 39.945 26.5644 39.722 26.5396C39.4932 26.5074 39.303 26.3966 39.1515 26.207L36.9137 23.4075C36.7214 23.1669 36.5203 22.9751 36.3105 22.8322C36.0948 22.682 35.8638 22.6097 35.6175 22.6155C35.3711 22.6212 35.1058 22.7377 34.8215 22.965C34.5444 23.1864 34.3541 23.4342 34.2505 23.7081C34.1469 23.9821 34.1227 24.2583 34.178 24.5368C34.2348 24.8021 34.3593 25.055 34.5516 25.2956L36.7894 28.0951C36.9409 28.2847 37.0071 28.4946 36.9881 28.7249C36.9632 28.9479 36.856 29.1352 36.6665 29.2867C36.4769 29.4382 36.2706 29.5015 36.0476 29.4767C35.8188 29.4445 35.6286 29.3337 35.4771 29.1441L30.0749 22.3859C29.9234 22.1963 29.8601 21.99 29.885 21.767C29.904 21.5367 30.0083 21.3458 30.1979 21.1943C30.3874 21.0428 30.5966 20.9831 30.8254 21.0153C31.0484 21.0401 31.2357 21.1474 31.3872 21.3369L33.5551 24.0489L33.3648 24.1473C33.3314 23.9709 33.3176 23.7668 33.3235 23.535C33.3236 23.296 33.358 23.0475 33.4266 22.7895C33.4952 22.5315 33.6024 22.2845 33.7483 22.0484C33.8883 21.8051 34.0786 21.5872 34.3192 21.3949ZM45.6292 23.1971C44.939 23.5883 44.2576 23.7868 43.585 23.7926C42.9159 23.7856 42.3029 23.6127 41.7461 23.2739C41.1974 22.9305 40.7459 22.4462 40.3915 21.821C39.9773 21.0902 39.7713 20.3862 39.7737 19.709C39.7796 19.019 39.9438 18.4002 40.2664 17.8526C40.5889 17.305 41.0182 16.8793 41.5541 16.5756C41.9682 16.3408 42.4062 16.2052 42.8683 16.1686C43.3384 16.1274 43.8008 16.1765 44.2552 16.3158C44.7051 16.447 45.1217 16.6615 45.505 16.9592C45.8964 17.2523 46.2164 17.618 46.4649 18.0565C46.5673 18.256 46.5799 18.458 46.5028 18.6627C46.4257 18.8673 46.2897 19.0249 46.0948 19.1353L41.4422 21.7725L40.3865 20.7617L44.8564 18.228L44.7265 18.6235L44.5401 18.2947C44.3904 18.0684 44.1855 17.9056 43.9253 17.8063C43.6733 17.7024 43.4037 17.6621 43.1165 17.6854C42.8329 17.696 42.5652 17.7726 42.3135 17.9153C42.0699 18.0534 41.8609 18.2147 41.6867 18.3994C41.5124 18.584 41.3918 18.7971 41.325 19.0389C41.2581 19.2806 41.2537 19.5567 41.3117 19.8671C41.3696 20.1776 41.5114 20.5317 41.7369 20.9296C41.9854 21.3681 42.2865 21.6909 42.64 21.8982C42.997 22.0928 43.3637 22.1907 43.7399 22.1921C44.1197 22.1806 44.4719 22.0829 44.7967 21.8988C45.0971 21.7285 45.3229 21.5684 45.4739 21.4184C45.6249 21.2684 45.7348 21.131 45.8035 21.0063C45.8758 20.8687 45.9427 20.7503 46.0044 20.651C46.1092 20.4951 46.2265 20.3803 46.3564 20.3066C46.535 20.2054 46.7157 20.1834 46.8984 20.2408C47.0893 20.2936 47.2307 20.4011 47.3227 20.5635C47.447 20.7828 47.4461 21.0461 47.32 21.3536C47.2101 21.6519 47.0035 21.9782 46.7001 22.3326C46.3922 22.6788 46.0352 22.967 45.6292 23.1971ZM50.4971 20.5421C50.272 20.6329 50.0563 20.6344 49.8498 20.5466C49.6398 20.4502 49.4894 20.2894 49.3986 20.0644L47.2352 14.7023C47.1444 14.4773 47.1429 14.2615 47.2307 14.055C47.3149 13.8399 47.4696 13.6869 47.6947 13.5961C47.9197 13.5053 48.1372 13.5081 48.3472 13.6045C48.5537 13.6923 48.7024 13.8487 48.7932 14.0738L49.2856 15.2942L48.8437 14.461C48.8551 14.2148 48.903 13.9842 48.9872 13.769C49.0767 13.5417 49.1957 13.3377 49.3442 13.157C49.4892 12.9677 49.6594 12.8034 49.8549 12.6641C50.0503 12.5249 50.2562 12.4116 50.4726 12.3243C50.7323 12.2196 50.9783 12.2058 51.2108 12.2831C51.4519 12.3569 51.6126 12.4934 51.693 12.6925C51.8082 12.9781 51.8184 13.2155 51.7237 13.4047C51.6254 13.5852 51.4898 13.7104 51.3166 13.7803C51.1522 13.8466 50.9885 13.8774 50.8256 13.8727C50.6713 13.8645 50.5076 13.8953 50.3345 13.9652C50.1787 14.028 50.0343 14.1316 49.9013 14.2758C49.7734 14.4079 49.6717 14.5798 49.596 14.7915C49.5291 14.9997 49.4994 15.2381 49.5072 15.5067C49.5201 15.7632 49.5894 16.0472 49.7151 16.3588L50.9565 19.4358C51.0473 19.6608 51.0506 19.8809 50.9663 20.0961C50.8785 20.3026 50.7221 20.4513 50.4971 20.5421ZM57.6654 10.4015L60.9077 9.6966C61.1266 9.64901 61.3248 9.68232 61.5025 9.79652C61.6801 9.91072 61.7928 10.0773 61.8404 10.2961C61.886 10.5059 61.8517 10.6996 61.7375 10.8773C61.6213 11.0458 61.4538 11.1539 61.2349 11.2014L57.9926 11.9064C57.7737 11.9539 57.5755 11.9206 57.3978 11.8064C57.2202 11.6922 57.1075 11.5257 57.0599 11.3068C57.0143 11.0971 57.0496 10.9079 57.1658 10.7394C57.28 10.5617 57.4465 10.4491 57.6654 10.4015ZM58.7574 8.37321C58.9946 8.32166 59.2039 8.3621 59.3856 8.49454C59.5743 8.61588 59.6945 8.79511 59.746 9.03223L61.0696 15.12C61.0974 15.2477 61.143 15.3476 61.2064 15.4198C61.279 15.49 61.3603 15.5344 61.4503 15.553C61.5494 15.5697 61.6491 15.5671 61.7495 15.5453C61.8589 15.5215 61.9553 15.4814 62.0385 15.4251C62.1198 15.3597 62.2198 15.3141 62.3383 15.2883C62.466 15.2606 62.5929 15.2951 62.719 15.3918C62.8542 15.4866 62.9446 15.6388 62.9902 15.8486C63.0458 16.104 62.95 16.3445 62.703 16.5701C62.465 16.7938 62.1865 16.9403 61.8673 17.0097C61.6757 17.0513 61.4584 17.0842 61.2154 17.1084C60.9794 17.1215 60.7437 17.0916 60.5081 17.0186C60.2797 16.9346 60.0694 16.7797 59.877 16.5541C59.6847 16.3285 59.54 15.9922 59.4428 15.5453L58.1044 9.38915C58.0528 9.15202 58.0877 8.93908 58.209 8.75033C58.3375 8.55047 58.5203 8.42477 58.7574 8.37321ZM66.1966 15.3788C66.2311 15.619 66.1818 15.8335 66.0486 16.0223C65.9141 16.2019 65.7268 16.309 65.4866 16.3435C65.2464 16.378 65.0365 16.328 64.8568 16.1935C64.6759 16.0497 64.5682 15.8578 64.5337 15.6176L63.7118 9.89428C63.6773 9.65408 63.7273 9.44417 63.8618 9.26456C63.995 9.07572 64.1817 8.96404 64.4219 8.92955C64.6621 8.89505 64.8726 8.94968 65.0536 9.09341C65.2332 9.22792 65.3402 9.41527 65.3747 9.65547L66.1966 15.3788ZM64.2786 8.03078C63.9645 8.07589 63.7355 8.05692 63.5916 7.97387C63.4476 7.89082 63.3571 7.71995 63.32 7.46127L63.2821 7.19798C63.2437 6.93006 63.2871 6.73996 63.4124 6.62767C63.5456 6.50482 63.76 6.42216 64.0557 6.37971C64.379 6.33327 64.6127 6.35158 64.7566 6.43463C64.9005 6.51768 64.9911 6.68854 65.0282 6.94722L65.066 7.21052C65.1045 7.47844 65.0618 7.67316 64.9378 7.79469C64.8125 7.90697 64.5928 7.98567 64.2786 8.03078ZM69.7401 14.9842C69.7646 15.2257 69.7019 15.4384 69.5517 15.6226C69.4099 15.7965 69.2183 15.8958 68.9769 15.9203C68.7448 15.9439 68.5418 15.8849 68.3678 15.7431C68.193 15.592 68.0933 15.3958 68.0687 15.1543L67.1927 6.54681C67.1681 6.30539 67.2267 6.09772 67.3685 5.9238C67.5186 5.73966 67.7144 5.6353 67.9558 5.61073C68.1972 5.58616 68.4007 5.64988 68.5663 5.8019C68.7402 5.94368 68.8395 6.13529 68.864 6.37671L69.7401 14.9842ZM83.8383 6.29914C84.0619 6.31253 84.2392 6.39794 84.37 6.55538C84.5008 6.71282 84.5595 6.90334 84.5461 7.12694L84.0581 15.2743C84.0436 15.5166 83.9475 15.7165 83.7697 15.8742C83.6018 16.0231 83.3968 16.0903 83.1546 16.0757C83.0334 16.0685 82.9088 16.0423 82.7806 15.9972C82.6623 15.9434 82.5727 15.8773 82.512 15.7988L77.4375 8.49634L77.8143 8.29451L77.4158 14.9466C77.4024 15.1702 77.3167 15.3521 77.1587 15.4922C77.01 15.6329 76.8192 15.6963 76.5863 15.6823C76.3627 15.6689 76.1855 15.5835 76.0547 15.4261C75.9239 15.2686 75.8652 15.0781 75.8786 14.8545L76.3666 6.70711C76.3811 6.46488 76.4723 6.26931 76.6402 6.12042C76.8179 5.96276 77.0279 5.89119 77.2701 5.9057C77.4006 5.91351 77.534 5.94955 77.6704 6.01382C77.8073 6.06878 77.9053 6.14945 77.9644 6.25584L82.8821 13.3666L82.6344 13.5201L83.0228 7.03569C83.0362 6.81209 83.1173 6.62995 83.266 6.48925C83.4146 6.34856 83.6054 6.28518 83.8383 6.29914ZM90.4727 9.60744C90.8092 9.68487 91.142 9.79973 91.4709 9.95202C91.8109 10.0973 92.1077 10.2853 92.3611 10.516C92.6236 10.7488 92.8133 11.0271 92.9304 11.3509C93.0495 11.6656 93.062 12.0276 92.9678 12.4369L92.588 14.0878L90.997 13.8223L91.2826 12.5807C91.3622 12.2351 91.3379 11.9661 91.2097 11.7738C91.0837 11.5725 90.9122 11.4229 90.6952 11.3251C90.4804 11.2182 90.2775 11.1428 90.0865 11.0988C89.7681 11.0256 89.4904 11.0048 89.2533 11.0364C89.0161 11.068 88.8045 11.1343 88.6185 11.2351C88.4325 11.336 88.2469 11.4561 88.0616 11.5954C87.8448 11.7467 87.6182 11.7951 87.3817 11.7407C87.2089 11.7009 87.0633 11.6052 86.945 11.4534C86.8266 11.3017 86.7905 11.1258 86.8365 10.9257C86.8575 10.8347 86.892 10.7469 86.9403 10.6622C86.9906 10.5685 87.0626 10.4845 87.1563 10.4103C87.4017 10.2177 87.6824 10.0381 87.9985 9.87139C88.3237 9.70678 88.6895 9.59461 89.0959 9.53488C89.5135 9.46815 89.9724 9.49234 90.4727 9.60744ZM88.1984 17.0572C87.7891 16.963 87.4021 16.7926 87.0375 16.5459C86.682 16.3012 86.41 15.9849 86.2215 15.5967C86.0352 15.1995 86.0017 14.7417 86.1209 14.2232C86.2298 13.7502 86.4194 13.3629 86.69 13.0612C86.9717 12.7525 87.3483 12.5518 87.8197 12.4592C88.3024 12.3595 88.8939 12.3903 89.5942 12.5514L96.6616 14.1775L96.3595 14.3666L96.438 14.0255C96.4805 13.7575 96.4394 13.499 96.3147 13.2501C96.1991 13.0032 96.0276 12.7914 95.8001 12.6145C95.5838 12.4307 95.3347 12.3063 95.0527 12.2414C94.7799 12.1787 94.5168 12.1564 94.2636 12.1748C94.0103 12.1932 93.7774 12.2689 93.5649 12.4019C93.3523 12.535 93.1625 12.7355 92.9955 13.0036C92.8284 13.2716 92.6937 13.6285 92.5911 14.0742C92.4781 14.5653 92.4819 15.0067 92.6025 15.3984C92.7342 15.7831 92.9384 16.103 93.2149 16.3582C93.5026 16.6063 93.8283 16.7723 94.1921 16.856C94.5287 16.9334 94.8033 16.9678 95.0159 16.9593C95.2286 16.9508 95.4024 16.9237 95.5374 16.8782C95.6836 16.8256 95.813 16.7836 95.9256 16.752C96.1081 16.7078 96.2722 16.7025 96.4177 16.7359C96.6178 16.782 96.7658 16.8879 96.8618 17.0536C96.9668 17.2214 96.9984 17.3963 96.9566 17.5782C96.9001 17.8238 96.7215 18.0173 96.4207 18.1588C96.1382 18.3045 95.7654 18.4055 95.3023 18.4618C94.8414 18.509 94.3835 18.4802 93.9287 18.3756C93.1556 18.1977 92.5191 17.8837 92.0193 17.4335C91.5307 16.9763 91.1956 16.4347 91.014 15.8087C90.8415 15.1848 90.8359 14.5227 90.997 13.8223C91.1853 13.0037 91.5137 12.3466 91.9821 11.851C92.4526 11.3463 92.9871 11 93.5859 10.8121C94.1936 10.6264 94.7977 10.6025 95.398 10.7406C95.8619 10.8474 96.2765 11.0433 96.6419 11.3285C97.0163 11.6158 97.324 11.9643 97.5649 12.3741C97.808 12.7748 97.9702 13.2144 98.0517 13.6928C98.1422 14.1734 98.131 14.6592 98.018 15.1504C97.9587 15.3666 97.8314 15.5241 97.6363 15.6228C97.4412 15.7216 97.2345 15.7459 97.0162 15.6956L89.1166 13.8781C88.7892 13.8028 88.5321 13.7963 88.3453 13.8587C88.1677 13.9232 88.0348 14.0219 87.9468 14.1549C87.8587 14.2878 87.7979 14.4271 87.7645 14.5726C87.7226 14.7545 87.7381 14.9161 87.8109 15.0574C87.8838 15.1986 87.9912 15.3143 88.1333 15.4045C88.2754 15.4947 88.4283 15.5586 88.592 15.5962C89.0013 15.6904 89.356 15.7098 89.6561 15.6543C89.9582 15.5897 90.2111 15.4899 90.4146 15.3547C90.6292 15.2126 90.7953 15.0736 90.9127 14.9378L91.3816 16.2093C91.2103 16.371 90.961 16.5387 90.6337 16.7124C90.3064 16.8861 89.9319 17.0155 89.5101 17.1004C89.0995 17.1783 88.6623 17.1639 88.1984 17.0572ZM98.5412 18.1967C98.5046 18.0404 98.5297 17.869 98.6165 17.6827C98.7033 17.4964 98.883 17.3785 99.1556 17.3292C99.3292 17.2998 99.4901 17.3256 99.6384 17.4068C99.7902 17.4794 99.9093 17.6192 99.9956 17.8263C100.143 18.1796 100.326 18.4821 100.546 18.7339C100.765 18.9857 101.082 19.1968 101.496 19.3673C101.629 19.4119 101.779 19.4532 101.945 19.4913C102.114 19.5207 102.276 19.5067 102.431 19.4493C102.598 19.3868 102.728 19.2434 102.82 19.019C102.898 18.8291 102.896 18.6514 102.813 18.4859C102.729 18.3204 102.596 18.1544 102.412 17.988C102.237 17.8251 102.034 17.6558 101.803 17.4802C101.568 17.2924 101.327 17.0924 101.081 16.8803C100.844 16.6717 100.639 16.4461 100.467 16.2035C100.298 15.9522 100.191 15.6712 100.147 15.3605C100.104 15.0499 100.16 14.7046 100.316 14.3249C100.494 13.8933 100.766 13.5762 101.132 13.3736C101.498 13.1709 101.904 13.0658 102.351 13.058C102.807 13.0539 103.247 13.1388 103.67 13.3128C103.937 13.423 104.203 13.5729 104.469 13.7627C104.737 13.9439 104.975 14.1629 105.182 14.4197C105.393 14.6679 105.541 14.9458 105.626 15.2535C105.668 15.422 105.66 15.6005 105.603 15.7888C105.546 15.9772 105.396 16.1074 105.154 16.1796C104.982 16.2299 104.812 16.2152 104.643 16.1355C104.477 16.0472 104.36 15.9282 104.29 15.7784C104.221 15.5282 104.085 15.2954 103.881 15.0802C103.685 14.8686 103.428 14.6971 103.109 14.5656C102.979 14.5124 102.83 14.471 102.66 14.4416C102.503 14.4071 102.347 14.4186 102.192 14.476C102.041 14.5248 101.92 14.657 101.832 14.8728C101.75 15.0713 101.749 15.2576 101.829 15.4318C101.912 15.5972 102.046 15.7632 102.229 15.9297C102.425 16.0911 102.634 16.2578 102.856 16.4298C103.087 16.6055 103.316 16.7958 103.545 17.0008C103.773 17.2059 103.968 17.4322 104.128 17.6799C104.289 17.9277 104.387 18.2051 104.422 18.5122C104.46 18.8107 104.401 19.1498 104.245 19.5296C104.064 19.9698 103.78 20.292 103.393 20.4961C103.006 20.7003 102.585 20.8045 102.129 20.8086C101.677 20.8042 101.248 20.7185 100.842 20.5515C100.333 20.342 99.8593 20.0461 99.4211 19.6639C98.9864 19.2731 98.6932 18.7841 98.5412 18.1967ZM108.295 15.6839L111.208 17.2739C111.404 17.3812 111.532 17.5362 111.592 17.7388C111.651 17.9415 111.627 18.1411 111.52 18.3377C111.417 18.5261 111.264 18.6501 111.062 18.7096C110.864 18.7609 110.666 18.7329 110.47 18.6256L107.557 17.0356C107.361 16.9282 107.233 16.7732 107.173 16.5706C107.114 16.368 107.138 16.1684 107.245 15.9718C107.348 15.7833 107.498 15.6635 107.696 15.6122C107.899 15.5526 108.099 15.5766 108.295 15.6839ZM110.449 14.8658C110.662 14.982 110.793 15.1497 110.844 15.3687C110.907 15.584 110.881 15.7981 110.764 16.0111L107.779 21.4792C107.716 21.5939 107.685 21.6993 107.686 21.7954C107.695 21.896 107.727 21.9828 107.783 22.0558C107.847 22.1333 107.924 22.1966 108.014 22.2458C108.113 22.2995 108.212 22.3323 108.312 22.3443C108.416 22.348 108.521 22.379 108.628 22.4371C108.743 22.4997 108.816 22.6089 108.848 22.7646C108.888 22.9248 108.857 23.099 108.754 23.2875C108.629 23.5168 108.399 23.6359 108.064 23.6447C107.738 23.658 107.431 23.5864 107.145 23.4298C106.973 23.3359 106.787 23.2185 106.587 23.0777C106.4 22.9331 106.242 22.7561 106.112 22.5467C105.994 22.3337 105.936 22.0789 105.939 21.7824C105.941 21.486 106.052 21.137 106.271 20.7356L109.29 15.2061C109.406 14.9931 109.572 14.855 109.787 14.7918C110.015 14.7248 110.236 14.7495 110.449 14.8658ZM112.366 27.1009C111.726 26.6328 111.265 26.0934 110.982 25.4828C110.714 24.8701 110.619 24.2403 110.699 23.5934C110.786 22.952 111.041 22.3411 111.465 21.7609C111.961 21.0827 112.518 20.6053 113.136 20.3288C113.767 20.0502 114.399 19.9453 115.031 20.014C115.663 20.0827 116.227 20.2987 116.725 20.6622C117.109 20.943 117.413 21.2864 117.636 21.6925C117.867 22.1041 118.013 22.5456 118.073 23.0172C118.138 23.4812 118.114 23.9491 118.001 24.421C117.895 24.8983 117.693 25.3405 117.395 25.7474C117.256 25.9228 117.077 26.0174 116.859 26.0313C116.64 26.0452 116.441 25.9861 116.26 25.8539L111.942 22.6986L112.429 21.3205L116.577 24.3519L116.163 24.3962L116.386 24.091C116.531 23.8615 116.595 23.6077 116.579 23.3298C116.57 23.0573 116.495 22.795 116.356 22.5429C116.23 22.2887 116.05 22.0763 115.816 21.9056C115.59 21.7404 115.357 21.6163 115.117 21.5334C114.877 21.4505 114.633 21.4284 114.385 21.4669C114.137 21.5055 113.884 21.615 113.625 21.7956C113.366 21.9762 113.101 22.2511 112.831 22.6203C112.534 23.0273 112.364 23.4345 112.32 23.842C112.29 24.2475 112.351 24.6219 112.505 24.9654C112.672 25.3068 112.906 25.5877 113.207 25.8079C113.486 26.0117 113.725 26.1515 113.924 26.2274C114.122 26.3034 114.293 26.347 114.435 26.3583C114.59 26.3676 114.725 26.3799 114.841 26.3952C115.027 26.4265 115.179 26.4862 115.3 26.5743C115.466 26.6955 115.56 26.8511 115.583 27.0413C115.613 27.2369 115.574 27.4101 115.463 27.5608C115.315 27.7642 115.074 27.8718 114.742 27.8834C114.425 27.906 114.043 27.8519 113.595 27.7212C113.153 27.583 112.743 27.3762 112.366 27.1009ZM129.171 29.3845C129.487 29.7531 129.675 30.188 129.735 30.6891C129.802 31.1973 129.74 31.7055 129.548 32.2136C129.357 32.7218 129.038 33.1671 128.591 33.5496C128.152 33.926 127.666 34.1699 127.135 34.281C126.603 34.3922 126.088 34.3789 125.589 34.2411C125.103 34.1042 124.702 33.8515 124.386 33.4829L122.71 31.5265L122.993 31.4689L120.792 33.3542C120.608 33.5121 120.403 33.5889 120.178 33.5848C119.961 33.5746 119.773 33.4774 119.615 33.2931C119.463 33.1159 119.399 32.9189 119.423 32.7023C119.453 32.4796 119.56 32.2893 119.745 32.1314L125.89 26.8673C126.075 26.7094 126.279 26.6391 126.502 26.6564C126.739 26.6747 126.937 26.776 127.094 26.9603L129.171 29.3845ZM125.598 32.4447C125.714 32.5793 125.883 32.6619 126.106 32.6923C126.328 32.7228 126.565 32.7046 126.815 32.6379C127.072 32.5651 127.3 32.4437 127.498 32.2737C127.704 32.0976 127.859 31.8911 127.963 31.6543C128.067 31.4174 128.118 31.1897 128.115 30.971C128.119 30.7463 128.064 30.5666 127.948 30.4319L126.254 28.4542L126.555 28.4179L123.844 30.7403L123.914 30.4776L125.598 32.4447ZM124.865 39.7449C124.73 39.543 124.685 39.332 124.729 39.112C124.781 38.8868 124.908 38.7069 125.11 38.5723L129.921 35.3656C130.123 35.2311 130.334 35.1858 130.554 35.2298C130.782 35.2687 130.963 35.3891 131.097 35.591C131.232 35.7929 131.273 36.0065 131.222 36.2317C131.178 36.4517 131.055 36.629 130.853 36.7636L129.758 37.4935L130.484 36.8917C130.727 36.8529 130.963 36.8529 131.19 36.8918C131.431 36.9332 131.655 37.0083 131.862 37.1171C132.077 37.2206 132.272 37.354 132.448 37.5171C132.624 37.6802 132.777 37.8588 132.907 38.053C133.062 38.286 133.125 38.5241 133.097 38.7675C133.073 39.0185 132.972 39.2036 132.794 39.3227C132.538 39.4935 132.307 39.5517 132.103 39.4973C131.906 39.4378 131.756 39.3303 131.652 39.175C131.554 39.0274 131.491 38.8734 131.462 38.7129C131.439 38.5602 131.375 38.4061 131.272 38.2508C131.179 38.111 131.048 37.9906 130.88 37.8896C130.724 37.7913 130.535 37.7265 130.313 37.6954C130.095 37.6721 129.856 37.6915 129.595 37.7536C129.346 37.8183 129.082 37.9438 128.802 38.1301L126.041 39.9703C125.839 40.1049 125.625 40.1527 125.397 40.1139C125.177 40.0698 124.999 39.9469 124.865 39.7449ZM134.152 48.6316C133.472 48.9821 132.791 49.1385 132.11 49.1009C131.442 49.0672 130.83 48.868 130.275 48.5032C129.724 48.1467 129.286 47.6532 128.961 47.0226C128.636 46.392 128.486 45.7448 128.512 45.0807C128.541 44.425 128.734 43.8111 129.09 43.2391C129.459 42.6711 129.984 42.2119 130.664 41.8613C131.344 41.5108 132.019 41.3524 132.687 41.386C133.368 41.4237 133.984 41.6208 134.535 41.9773C135.099 42.3378 135.543 42.8333 135.868 43.4639C136.193 44.0945 136.336 44.7397 136.298 45.3997C136.273 46.0638 136.076 46.6798 135.707 47.2478C135.351 47.8198 134.833 48.281 134.152 48.6316ZM133.383 47.1381C133.806 46.9201 134.126 46.6449 134.343 46.3125C134.573 45.9841 134.7 45.6299 134.725 45.2497C134.754 44.8779 134.679 44.5177 134.499 44.1692C134.319 43.8208 134.068 43.5462 133.744 43.3456C133.424 43.1533 133.062 43.0512 132.657 43.0394C132.264 43.0316 131.857 43.1368 131.434 43.3548C131.019 43.5685 130.696 43.8396 130.467 44.1679C130.249 44.5003 130.126 44.8525 130.097 45.2243C130.073 45.6045 130.15 45.9688 130.33 46.3173C130.509 46.6657 130.759 46.9361 131.078 47.1285C131.402 47.3291 131.761 47.4333 132.153 47.4411C132.558 47.4528 132.968 47.3519 133.383 47.1381ZM132.023 53.4787C131.531 53.6817 131.069 53.7613 130.637 53.7176C130.197 53.6774 129.811 53.5387 129.481 53.3014C129.151 53.0642 128.904 52.7471 128.74 52.3503C128.651 52.1346 128.653 51.9318 128.746 51.7418C128.827 51.5468 128.967 51.4083 129.165 51.3264L129.308 51.2676C129.497 51.1893 129.675 51.1916 129.841 51.2747C130.003 51.3492 130.153 51.4689 130.292 51.6337C130.446 51.8123 130.606 51.918 130.771 51.9508C130.927 51.9872 131.095 51.9784 131.275 51.9244C131.458 51.879 131.645 51.8172 131.835 51.7388L137.645 49.3397C137.869 49.2471 138.085 49.2439 138.292 49.33C138.508 49.4125 138.662 49.5659 138.755 49.7902C138.847 50.0145 138.846 50.2321 138.752 50.4428C138.666 50.65 138.51 50.8 138.286 50.8926L132.023 53.4787ZM139.585 49.417C139.464 49.1237 139.426 48.8971 139.471 48.7371C139.516 48.5772 139.659 48.4473 139.901 48.3476L140.147 48.2461C140.397 48.1428 140.592 48.138 140.732 48.2318C140.884 48.3306 141.016 48.5181 141.13 48.7941C141.255 49.0961 141.295 49.327 141.25 49.487C141.205 49.6469 141.062 49.7768 140.82 49.8765L140.574 49.9781C140.324 50.0814 140.125 50.0879 139.976 49.9977C139.837 49.9039 139.706 49.7103 139.585 49.417ZM133.787 58.6661C133.543 57.9112 133.486 57.2038 133.616 56.5438C133.757 55.8899 134.05 55.3243 134.494 54.8473C134.941 54.3791 135.507 54.0344 136.191 53.8134C136.99 53.555 137.721 53.4952 138.384 53.6341C139.058 53.7789 139.631 54.0645 140.103 54.4909C140.574 54.9172 140.904 55.4235 141.094 56.0096C141.24 56.4625 141.285 56.9189 141.228 57.3789C141.173 57.8477 141.032 58.2906 140.804 58.7077C140.585 59.1218 140.291 59.4866 139.922 59.8021C139.556 60.1264 139.133 60.366 138.653 60.5211C138.437 60.5811 138.237 60.5527 138.052 60.4359C137.867 60.3191 137.74 60.1542 137.671 59.941L136.026 54.8523L137.229 54.022L138.81 58.9109L138.448 58.704L138.808 58.5877C139.06 58.4867 139.261 58.3188 139.41 58.084C139.563 57.8581 139.657 57.6022 139.692 57.3162C139.739 57.0363 139.718 56.7586 139.629 56.4833C139.543 56.2169 139.427 55.9797 139.281 55.7718C139.135 55.5638 138.951 55.4028 138.727 55.2886C138.504 55.1744 138.235 55.1144 137.919 55.1086C137.603 55.1028 137.228 55.1702 136.792 55.3109C136.313 55.4659 135.936 55.6956 135.662 56.0001C135.399 56.3106 135.229 56.65 135.152 57.0182C135.087 57.3925 135.111 57.7572 135.226 58.1125C135.333 58.441 135.444 58.6944 135.56 58.8726C135.677 59.0507 135.789 59.186 135.898 59.2785C136.018 59.377 136.12 59.4665 136.205 59.547C136.337 59.681 136.425 59.819 136.471 59.9611C136.534 60.1565 136.52 60.3379 136.427 60.5053C136.336 60.6816 136.203 60.7984 136.025 60.8558C135.785 60.9333 135.527 60.8793 135.252 60.6938C134.982 60.5261 134.704 60.2579 134.418 59.8893C134.141 59.5179 133.93 59.1101 133.787 58.6661ZM135.471 64.1048C135.422 63.8671 135.46 63.6546 135.584 63.4674C135.717 63.2784 135.902 63.1597 136.14 63.1112L144.618 61.3836C144.855 61.3351 145.068 61.3728 145.255 61.4966C145.451 61.6185 145.574 61.7983 145.622 62.0361C145.671 62.2739 145.628 62.4873 145.496 62.6763C145.372 62.8635 145.191 62.9813 144.953 63.0297L136.475 64.7574C136.238 64.8058 136.021 64.7691 135.824 64.6472C135.637 64.5234 135.519 64.3426 135.471 64.1048ZM143.699 66.9715C143.742 67.1819 143.692 67.3825 143.55 67.5734C143.408 67.7643 143.255 67.8765 143.09 67.91C142.871 67.9547 142.643 67.8869 142.406 67.7066L137.764 64.3518L139.644 63.8974L143.315 66.4211C143.525 66.5594 143.652 66.7429 143.699 66.9715ZM136.416 68.6701C136.367 68.4324 136.418 68.2125 136.567 68.0106L138.738 64.9249L140.145 65.9384L137.96 68.9556C137.812 69.1666 137.624 69.2954 137.395 69.342C137.158 69.3905 136.941 69.3345 136.747 69.1741C136.563 69.0211 136.453 68.8531 136.416 68.6701ZM144.097 70.3046L144.431 73.6057C144.454 73.8286 144.398 74.0218 144.265 74.1854C144.131 74.3491 143.953 74.4422 143.73 74.4648C143.517 74.4864 143.328 74.4305 143.165 74.297C143.01 74.1626 142.922 73.9839 142.899 73.761L142.565 70.46C142.542 70.2371 142.597 70.0439 142.731 69.8802C142.864 69.7166 143.043 69.6235 143.265 69.6009C143.479 69.5792 143.663 69.6356 143.817 69.7701C143.981 69.9036 144.074 70.0818 144.097 70.3046ZM145.989 71.6185C146.013 71.8599 145.95 72.0634 145.797 72.2289C145.656 72.4027 145.464 72.5019 145.223 72.5264L139.024 73.1548C138.894 73.168 138.79 73.202 138.711 73.2569C138.633 73.3211 138.58 73.3969 138.551 73.4842C138.523 73.5808 138.515 73.6802 138.525 73.7824C138.536 73.8938 138.565 73.9941 138.612 74.0832C138.668 74.1713 138.702 74.2757 138.714 74.3964C138.727 74.5264 138.679 74.6486 138.568 74.763C138.459 74.8867 138.297 74.9593 138.084 74.981C137.824 75.0074 137.596 74.8851 137.399 74.6142C137.204 74.3526 137.09 74.0592 137.057 73.7342C137.037 73.5392 137.029 73.3196 137.032 73.0754C137.046 72.8394 137.102 72.6086 137.201 72.3828C137.31 72.1653 137.488 71.9738 137.734 71.8081C137.98 71.6425 138.33 71.5366 138.785 71.4904L145.053 70.855C145.294 70.8305 145.502 70.8892 145.676 71.031C145.86 71.1812 145.964 71.377 145.989 71.6185Z" fill="#797B88"/>
<path d="M97.4141 56.5237C99.1484 56.2285 115.312 53.8542 123.842 68.5183C124.951 70.4251 130.484 80.439 127.652 91.6216C124.302 104.896 111.996 108.549 109 109.435C98.4406 112.572 89.7572 107.294 86.2414 104.674C82.7375 102.066 77.9239 98.4739 75.9182 91.2649C72.4261 78.6552 80.8498 66.8206 81.4279 66.0332C87.1617 58.2214 94.6416 56.9666 97.4023 56.5114L97.4141 56.5237Z" fill="#FFEBCD" stroke="#B6AFAF" stroke-linecap="round" stroke-linejoin="round"/>
</svg>
