<svg width="154" height="156" viewBox="0 0 154 156" fill="none" xmlns="http://www.w3.org/2000/svg">
<path opacity="0.5" d="M75.8891 26.2632C79.6758 26.311 118.205 25.5071 128.316 61.1188C129.63 65.7494 136.386 84.6359 124.551 108.046C110.525 135.838 81.6608 145.123 74.9194 145.865C51.1569 148.513 33.0404 134.635 27.0643 127.472C21.1065 120.341 12.9269 110.524 12.5362 93.8954C11.8863 64.8151 35.7729 42.2179 37.399 40.7217C53.5291 25.8753 69.8509 26.1226 75.8709 26.2314L75.8891 26.2632Z" fill="#F1F9FF" stroke="#B6AFAF" stroke-width="3" stroke-linecap="round" stroke-linejoin="round"/>
<path d="M22.0926 51.092C21.9868 51.3512 21.7954 51.5161 21.5182 51.5867L15.9873 53.0727L15.2111 51.282L20.9541 49.7528C21.1829 49.6949 21.3991 49.7075 21.6028 49.7906C21.8621 49.8964 22.0354 50.0805 22.1228 50.3429C22.2009 50.6015 22.1908 50.8512 22.0926 51.092ZM12.3689 46.9312C12.4595 46.709 12.6258 46.5662 12.8676 46.5028C13.104 46.4264 13.3147 46.426 13.4999 46.5016C13.6944 46.5809 13.8409 46.7379 13.9396 46.9725L17.1353 55.0638L15.1208 54.3231L12.4107 47.7421C12.2846 47.4422 12.2707 47.1719 12.3689 46.9312ZM19.7131 56.9253C19.6074 57.1846 19.4437 57.3608 19.2221 57.454C18.9912 57.5435 18.7554 57.5391 18.5146 57.4409L10.4868 54.1662C10.2461 54.068 10.081 53.9035 9.99157 53.6726C9.89289 53.438 9.89643 53.191 10.0022 52.9318C10.1079 52.6725 10.2744 52.5028 10.5015 52.4226C10.7231 52.3294 10.9543 52.3319 11.195 52.4301L19.2228 55.7048C19.4636 55.803 19.6352 55.9647 19.7376 56.1901C19.8308 56.4118 19.8226 56.6568 19.7131 56.9253ZM23.1577 46.7107C23.3894 46.8286 23.5447 47.0086 23.6235 47.2506C23.698 47.4792 23.6763 47.7094 23.5584 47.9411C23.445 48.164 23.2741 48.3126 23.0455 48.3871C22.8079 48.457 22.5733 48.433 22.3416 48.3151L14.0791 44.1122C13.8474 43.9943 13.6943 43.8211 13.6198 43.5925C13.541 43.3504 13.5605 43.1136 13.6784 42.8818C13.7963 42.6501 13.9717 42.5037 14.2047 42.4427C14.4333 42.3683 14.6635 42.39 14.8952 42.5078L23.1577 46.7107ZM24.9997 43.3555C25.2259 43.4837 25.3755 43.6661 25.4483 43.9027C25.5124 44.1344 25.4804 44.3634 25.3522 44.5896C25.2241 44.8158 25.0442 44.961 24.8125 45.0251C24.572 45.0843 24.3387 45.0498 24.1125 44.9217L18.7223 41.8682C18.4961 41.7401 18.3509 41.5602 18.2868 41.3285C18.2139 41.0918 18.2416 40.8604 18.3698 40.6342C18.4979 40.4079 18.6822 40.2652 18.9226 40.206C19.1543 40.1419 19.3833 40.1739 19.6095 40.3021L24.9997 43.3555ZM17.514 40.1667C17.3464 40.4625 17.1803 40.6442 17.0156 40.7118C16.8509 40.7794 16.6467 40.7442 16.4031 40.6062L16.1551 40.4657C15.9028 40.3228 15.7701 40.1614 15.757 39.9816C15.7401 39.7882 15.8106 39.5522 15.9683 39.2738C16.1408 38.9693 16.3094 38.7832 16.4741 38.7156C16.6389 38.648 16.843 38.6832 17.0866 38.8212L17.3346 38.9617C17.5869 39.1046 17.724 39.2685 17.7458 39.4532C17.7589 39.633 17.6816 39.8708 17.514 40.1667ZM27.3737 41.3767C27.2264 41.591 27.0346 41.7201 26.7982 41.7639C26.5536 41.8021 26.3241 41.7475 26.1098 41.6003L18.4697 36.3504C18.2555 36.2031 18.1264 36.0113 18.0826 35.7749C18.0305 35.5329 18.0781 35.3047 18.2253 35.0904C18.3726 34.8761 18.5685 34.7499 18.8131 34.7117C19.0495 34.6679 19.2749 34.7196 19.4891 34.8669L27.1293 40.1168C27.3435 40.264 27.4767 40.4587 27.5288 40.7007C27.5726 40.9371 27.5209 41.1624 27.3737 41.3767ZM23.4611 32.9006C23.5913 32.711 23.7829 32.6 24.0358 32.5675C24.2886 32.535 24.4892 32.5697 24.6376 32.6716C24.8354 32.8075 24.9529 33.0339 24.99 33.3506L25.8575 39.4249L24.109 38.3144L23.3222 33.6059C23.2732 33.3417 23.3195 33.1066 23.4611 32.9006ZM30.1901 37.2515C30.0429 37.4658 29.8359 37.5904 29.5691 37.6255L25.5745 38.2476L25.309 36.409L29.2612 35.8488C29.5337 35.8054 29.7729 35.8546 29.9789 35.9961C30.1932 36.1434 30.311 36.3517 30.3321 36.621C30.3507 36.8765 30.3034 37.0866 30.1901 37.2515ZM28.5094 23.5569C28.6905 23.3995 28.9081 23.3297 29.162 23.3475C29.4169 23.3512 29.6297 23.4512 29.8002 23.6475L35.4864 30.1925C35.6569 30.3887 35.7295 30.6171 35.7041 30.8776C35.6721 31.1305 35.5618 31.339 35.3731 31.503C35.1617 31.6866 34.9361 31.77 34.6963 31.7532C34.4499 31.7288 34.2415 31.6184 34.0709 31.4222L28.3848 24.8772C28.2142 24.681 28.1412 24.4596 28.1656 24.2132C28.1834 23.9593 28.298 23.7405 28.5094 23.5569ZM33.5256 19.1988C33.737 19.0152 33.9659 18.9355 34.2123 18.9599C34.4521 18.9768 34.6573 19.0833 34.8278 19.2796L40.514 25.8245C40.6845 26.0208 40.7608 26.2459 40.743 26.4998C40.7262 26.7397 40.6083 26.9547 40.3894 27.1449C40.2082 27.3023 39.9901 27.3791 39.7352 27.3754C39.4813 27.3576 39.2691 27.2505 39.0985 27.0542L33.4124 20.5093C33.2418 20.313 33.1725 20.0884 33.2045 19.8355C33.2299 19.575 33.3369 19.3628 33.5256 19.1988ZM31.3381 26.8815L36.3884 22.4939L37.5197 23.7961L32.4695 28.1837L31.3381 26.8815ZM46.1252 23.5256C45.3912 23.9544 44.664 24.1765 43.9435 24.1921C43.2265 24.1939 42.5674 24.0173 41.9662 23.662C41.3735 23.3018 40.883 22.7892 40.4947 22.1243C40.0407 21.3472 39.8103 20.5958 39.8034 19.8703C39.8 19.131 39.9674 18.4658 40.3053 17.8746C40.6433 17.2835 41.0972 16.8214 41.6671 16.4885C42.1075 16.2313 42.5749 16.0798 43.0694 16.0342C43.5725 15.9835 44.0685 16.0296 44.5573 16.1726C45.0411 16.3069 45.4904 16.5309 45.9052 16.8444C46.3287 17.153 46.6766 17.5404 46.9489 18.0067C47.0614 18.219 47.0777 18.4353 46.9979 18.6556C46.9181 18.8759 46.7746 19.0466 46.5674 19.1676L41.6197 22.0578L40.4745 20.9895L45.228 18.2129L45.0943 18.6384L44.8901 18.2886C44.7265 18.0483 44.5047 17.8768 44.2247 17.774C43.9532 17.6662 43.6638 17.6268 43.3565 17.6558C43.0527 17.6711 42.767 17.7569 42.4993 17.9133C42.2403 18.0646 42.0187 18.2403 41.8345 18.4406C41.6504 18.6408 41.5242 18.8708 41.456 19.1307C41.3877 19.3906 41.3868 19.6865 41.4533 20.0183C41.5197 20.3501 41.6765 20.7275 41.9236 21.1506C42.196 21.6169 42.523 21.9586 42.9046 22.1758C43.2899 22.3792 43.684 22.4791 44.0871 22.4752C44.4938 22.4577 44.8698 22.3481 45.2152 22.1463C45.5347 21.9597 45.7743 21.785 45.934 21.6222C46.0937 21.4594 46.2095 21.3107 46.2814 21.1761C46.3569 21.0277 46.427 20.8999 46.4917 20.7926C46.6018 20.6241 46.7258 20.4995 46.864 20.4188C47.054 20.3079 47.2472 20.2818 47.4438 20.3408C47.6489 20.3946 47.802 20.5079 47.9029 20.6806C48.039 20.9137 48.0417 21.1959 47.9109 21.5271C47.7974 21.8482 47.5806 22.2007 47.2605 22.5845C46.9353 22.9597 46.5569 23.2735 46.1252 23.5256ZM51.3096 20.6331C51.0687 20.7309 50.8375 20.733 50.616 20.6394C50.3908 20.5366 50.2293 20.3647 50.1315 20.1238L47.8013 14.3838C47.7035 14.1429 47.7014 13.9117 47.7949 13.6902C47.8847 13.4595 48.0501 13.2952 48.291 13.1974C48.5319 13.0996 48.765 13.1022 48.9902 13.205C49.2117 13.2986 49.3713 13.4658 49.4691 13.7067L49.9995 15.0132L49.5241 14.1215C49.5358 13.8577 49.5865 13.6105 49.6763 13.3797C49.7716 13.136 49.8986 12.9171 50.0573 12.7232C50.2123 12.52 50.3943 12.3436 50.6034 12.1939C50.8124 12.0443 51.0328 11.9225 51.2644 11.8284C51.5424 11.7156 51.806 11.7003 52.0553 11.7826C52.3138 11.8611 52.4863 12.007 52.5728 12.2201C52.697 12.5258 52.7085 12.7802 52.6074 12.9831C52.5025 13.1768 52.3574 13.3112 52.1721 13.3864C51.9961 13.4579 51.8208 13.4913 51.6462 13.4866C51.4809 13.4782 51.3056 13.5116 51.1203 13.5868C50.9535 13.6545 50.799 13.7658 50.6568 13.9207C50.5201 14.0625 50.4115 14.2469 50.3309 14.4739C50.2597 14.6971 50.2285 14.9526 50.2374 15.2403C50.2518 15.5151 50.3267 15.8193 50.4621 16.1528L51.7993 19.4467C51.8971 19.6876 51.9011 19.9235 51.8113 20.1542C51.7177 20.3756 51.5505 20.5353 51.3096 20.6331ZM64.2275 16.8585C63.952 16.9087 63.7105 16.8664 63.5029 16.7314C63.2936 16.5866 63.1656 16.3863 63.119 16.1305L61.5589 7.57151L63.4773 7.22185L65.0374 15.7808C65.084 16.0366 65.03 16.2701 64.8753 16.4812C64.7287 16.6808 64.5128 16.8065 64.2275 16.8585ZM59.3927 8.82018C59.1369 8.8668 58.9062 8.82755 58.7004 8.70242C58.5044 8.5755 58.3832 8.38414 58.3365 8.12836C58.2899 7.87257 58.3368 7.65565 58.4771 7.4776C58.6255 7.28791 58.8276 7.16976 59.0834 7.12314L65.6355 5.92891C65.8912 5.88228 66.1171 5.92243 66.313 6.04936C66.5188 6.17449 66.645 6.36495 66.6916 6.62073C66.7382 6.87652 66.6874 7.09925 66.539 7.28894C66.3986 7.46699 66.2006 7.57932 65.9448 7.62595L59.3927 8.82018ZM71.411 14.8589C71.4352 15.1178 71.371 15.3448 71.2185 15.5398C71.065 15.7249 70.8589 15.8295 70.6 15.8537C70.3411 15.8778 70.1192 15.8132 69.9341 15.6597C69.7481 15.4963 69.643 15.2852 69.6188 15.0263L69.0428 8.85814C69.0186 8.59927 69.0833 8.37729 69.2367 8.19222C69.3892 7.9972 69.5949 7.88759 69.8538 7.86342C70.1127 7.83924 70.3351 7.90886 70.5211 8.07228C70.7062 8.22573 70.8108 8.4319 70.835 8.69077L71.411 14.8589ZM69.7482 6.89404C69.4097 6.92565 69.1656 6.89321 69.016 6.7967C68.8664 6.70019 68.7785 6.51255 68.7525 6.23376L68.726 5.95C68.699 5.66125 68.7556 5.46012 68.8956 5.34661C69.0447 5.22221 69.2786 5.14513 69.5972 5.11538C69.9457 5.08283 70.1947 5.11481 70.3443 5.21132C70.494 5.30783 70.5818 5.49547 70.6078 5.77426L70.6343 6.05802C70.6613 6.34677 70.6052 6.55287 70.4661 6.67635C70.326 6.78986 70.0867 6.86242 69.7482 6.89404ZM75.2653 14.6941C75.2724 14.954 75.1885 15.1764 75.0134 15.3613C74.8481 15.5358 74.6356 15.6267 74.3756 15.6338C74.1257 15.6406 73.9135 15.5614 73.7389 15.3961C73.5641 15.2208 73.4731 15.0032 73.466 14.7433L73.2127 5.47676C73.2056 5.21686 73.2847 4.99961 73.45 4.82503C73.625 4.64018 73.8425 4.54421 74.1024 4.5371C74.3623 4.53 74.5746 4.61423 74.7395 4.78979C74.9141 4.95508 75.0049 5.16768 75.012 5.42758L75.2653 14.6941ZM91.992 11.9119C91.893 12.6553 91.6767 13.3327 91.343 13.944C91.0094 14.5553 90.5816 15.0784 90.0597 15.5133C89.5489 15.9397 88.9628 16.25 88.3014 16.4444C87.6498 16.6401 86.9573 16.6891 86.2238 16.5914C85.4903 16.4938 84.8347 16.2652 84.2571 15.9058C83.6795 15.5464 83.195 15.0935 82.8037 14.5471C82.4237 13.9921 82.1526 13.3759 81.9906 12.6986C81.8286 12.0213 81.7971 11.3109 81.8961 10.5675C81.9951 9.82403 82.2114 9.14665 82.545 8.53534C82.8786 7.92403 83.3008 7.40522 83.8115 6.9789C84.3335 6.544 84.9203 6.22869 85.5718 6.03298C86.2233 5.83728 86.9159 5.78826 87.6494 5.88594C88.3829 5.98362 89.0385 6.21216 89.6161 6.57155C90.2036 6.93226 90.6874 7.39013 91.0675 7.94515C91.4588 8.49159 91.7354 9.10346 91.8974 9.78077C92.0595 10.4581 92.091 11.1685 91.992 11.9119ZM90.059 11.6545C90.1475 10.9904 90.0935 10.3728 89.8972 9.80191C89.7021 9.22109 89.3928 8.74105 88.9691 8.36181C88.5455 7.98257 88.0264 7.75203 87.4118 7.67019C86.7972 7.58835 86.2359 7.67501 85.7277 7.93017C85.2196 8.18533 84.7961 8.56273 84.4572 9.06236C84.1282 9.56331 83.9188 10.1508 83.829 10.8249C83.7406 11.489 83.7889 12.1108 83.974 12.6903C84.1704 13.2612 84.4804 13.7363 84.9041 14.1156C85.3277 14.4948 85.8468 14.7253 86.4614 14.8072C87.076 14.889 87.6373 14.8024 88.1454 14.5472C88.6536 14.2921 89.0771 13.9147 89.416 13.415C89.7562 12.9055 89.9706 12.3186 90.059 11.6545ZM99.4389 11.1449C100.196 11.4046 100.69 11.7805 100.923 12.2727C101.159 12.7555 101.235 13.3048 101.151 13.9208L100.953 13.7103L101.145 13.5222C101.333 13.3436 101.587 13.1719 101.908 13.0072C102.232 12.8329 102.589 12.7175 102.979 12.6608C103.381 12.5979 103.79 12.6379 104.206 12.7807C104.887 13.0144 105.352 13.3379 105.602 13.7512C105.86 14.1678 105.972 14.6447 105.935 15.182C105.902 15.7098 105.783 16.2717 105.579 16.8675L104.333 20.4997C104.248 20.7456 104.096 20.9261 103.877 21.0412C103.661 21.1468 103.43 21.1574 103.184 21.073C102.938 20.9886 102.763 20.8385 102.657 20.6225C102.555 20.3971 102.546 20.1614 102.63 19.9155L103.876 16.2833C103.984 15.9712 104.041 15.6792 104.05 15.4073C104.062 15.126 103.995 14.8755 103.848 14.656C103.701 14.4365 103.444 14.2635 103.075 14.1369C102.715 14.0136 102.382 13.9838 102.075 14.0475C101.767 14.1112 101.504 14.248 101.283 14.458C101.076 14.6617 100.919 14.9196 100.812 15.2318L99.5655 18.8639C99.4811 19.1098 99.3293 19.2903 99.1101 19.4054C98.8941 19.511 98.6632 19.5216 98.4172 19.4372C98.1713 19.3528 97.9955 19.2027 97.8899 18.9867C97.7875 18.7613 97.7785 18.5256 97.8629 18.2797L99.1092 14.6475C99.2164 14.3354 99.2743 14.0434 99.283 13.7715C99.2949 13.4902 99.2276 13.2397 99.0809 13.0202C98.9342 12.8007 98.6764 12.6277 98.3075 12.5011C97.9481 12.3778 97.6147 12.348 97.3074 12.4117C97.0001 12.4754 96.7364 12.6122 96.5163 12.8222C96.309 13.0259 96.1518 13.2838 96.0446 13.596L94.7983 17.2281C94.7139 17.474 94.5621 17.6545 94.3429 17.7696C94.1269 17.8752 93.896 17.8858 93.6501 17.8014C93.4041 17.717 93.2284 17.5669 93.1228 17.3509C93.0204 17.1255 93.0114 16.8898 93.0958 16.6439L95.1064 10.7842C95.1908 10.5383 95.341 10.3625 95.557 10.2569C95.7762 10.1418 96.0088 10.1265 96.2547 10.2109C96.5006 10.2953 96.6748 10.4502 96.7771 10.6756C96.8828 10.8916 96.8934 11.1225 96.809 11.3684L96.5997 11.9785L96.4014 11.8629C96.5417 11.7313 96.7184 11.6017 96.9314 11.4739C97.1477 11.3366 97.3921 11.2249 97.6649 11.1388C97.9376 11.0526 98.2226 11.0077 98.5199 11.004C98.8204 10.9908 99.1268 11.0378 99.4389 11.1449ZM116.598 16.4554C116.711 16.5393 116.803 16.6582 116.875 16.8121C116.961 16.964 117 17.112 116.992 17.256L116.55 23.9315L115.967 23.4581L122.301 21.2282C122.615 21.1259 122.892 21.1646 123.132 21.3443C123.324 21.4881 123.445 21.685 123.495 21.9349C123.546 22.1849 123.49 22.4179 123.328 22.6341L118.125 29.5878C117.969 29.7959 117.769 29.9212 117.525 29.9634C117.287 29.9977 117.056 29.9309 116.832 29.7632C116.608 29.5954 116.475 29.3896 116.432 29.1456C116.404 28.8996 116.468 28.6726 116.624 28.4644L120.856 22.8078L121.244 23.2664L115.999 25.1681C115.861 25.2022 115.712 25.2094 115.552 25.1896C115.4 25.1757 115.271 25.1229 115.165 25.031C115.055 24.9611 114.968 24.8522 114.903 24.7043C114.847 24.5623 114.816 24.4204 114.81 24.2784L115.23 18.9349L116.019 18.5321L111.471 24.609C111.316 24.8172 111.12 24.9454 110.884 24.9936C110.654 25.0339 110.435 24.9761 110.227 24.8204C110.026 24.6706 109.913 24.4797 109.887 24.2477C109.867 24.0077 109.934 23.7837 110.09 23.5755L115.294 16.6218C115.443 16.4217 115.644 16.3035 115.896 16.2672C116.156 16.2369 116.39 16.2997 116.598 16.4554ZM120.984 32.236C120.799 32.4187 120.583 32.5129 120.336 32.5184C120.095 32.5169 119.884 32.4237 119.701 32.2387C119.518 32.0537 119.428 31.841 119.429 31.6006C119.438 31.3532 119.535 31.1381 119.72 30.9554L124.127 26.6021C124.312 26.4193 124.525 26.3287 124.765 26.3302C125.013 26.3247 125.228 26.4144 125.411 26.5994C125.593 26.7844 125.68 27.0006 125.672 27.248C125.67 27.4884 125.577 27.7 125.392 27.8827L120.984 32.236ZM126.094 25.9036C125.855 25.6617 125.725 25.4523 125.705 25.2754C125.685 25.0985 125.775 24.9116 125.974 24.7149L126.177 24.5146C126.383 24.3108 126.574 24.2271 126.751 24.2636C126.942 24.3001 127.149 24.4322 127.374 24.6599C127.62 24.9089 127.753 25.1219 127.773 25.2988C127.793 25.4757 127.704 25.6625 127.505 25.8593L127.302 26.0595C127.096 26.2633 126.901 26.3505 126.717 26.3211C126.54 26.2846 126.333 26.1455 126.094 25.9036ZM130.045 31.8894C130.302 32.2212 130.487 32.5652 130.599 32.9214C130.711 33.2776 130.764 33.6158 130.76 33.9359C130.761 34.264 130.722 34.5476 130.642 34.787C130.576 35.0281 130.487 35.1916 130.377 35.2774L129.984 35.0889L130.849 34.4175C131.054 34.2581 131.276 34.1935 131.515 34.2235C131.761 34.2475 131.964 34.3622 132.123 34.5676C132.283 34.773 132.347 34.9949 132.317 35.2335C132.287 35.472 132.166 35.674 131.952 35.8396L126.679 39.9319C125.992 40.4653 125.326 40.7413 124.682 40.7599C124.037 40.7926 123.436 40.6384 122.88 40.2975C122.317 39.9628 121.82 39.5189 121.391 38.9659C121.269 38.8079 121.129 38.5871 120.972 38.3037C120.816 38.0202 120.676 37.7425 120.554 37.4705C120.431 37.1984 120.348 36.9848 120.303 36.8295C120.222 36.5128 120.223 36.2457 120.308 36.0283C120.39 35.8249 120.54 35.6834 120.757 35.6039C121.041 35.4972 121.288 35.4891 121.498 35.5797C121.699 35.6764 121.836 35.8361 121.908 36.059C121.945 36.1564 121.999 36.3235 122.069 36.5604C122.139 36.7973 122.229 37.0438 122.339 37.3C122.447 37.5703 122.566 37.7884 122.695 37.9543C123.155 38.5468 123.613 38.8933 124.071 38.9938C124.529 39.0942 124.967 38.982 125.386 38.6571L126.417 37.857L126.42 38.0819C126.318 38.1616 126.148 38.2044 125.912 38.2103C125.691 38.218 125.435 38.1822 125.146 38.1029C124.862 38.0316 124.571 37.9094 124.272 37.7363C123.981 37.557 123.726 37.3252 123.505 37.0408C123.07 36.4799 122.815 35.867 122.743 35.2021C122.677 34.5311 122.789 33.8752 123.076 33.2344C123.372 32.5874 123.839 32.0156 124.479 31.519C125.127 31.0163 125.797 30.7052 126.489 30.5858C127.189 30.4603 127.849 30.5114 128.469 30.7392C129.097 30.9609 129.622 31.3443 130.045 31.8894ZM128.916 33.1262C128.64 32.7707 128.311 32.5261 127.929 32.3923C127.547 32.2586 127.147 32.2332 126.731 32.3161C126.314 32.3989 125.916 32.5875 125.537 32.8818C125.165 33.1699 124.888 33.5056 124.704 33.8886C124.52 34.2717 124.446 34.665 124.481 35.0685C124.515 35.472 124.67 35.8515 124.946 36.207C125.228 36.5704 125.561 36.8189 125.943 36.9527C126.325 37.0864 126.724 37.1118 127.141 37.0289C127.558 36.9461 127.952 36.7605 128.323 36.4724C128.702 36.1781 128.984 35.8394 129.168 35.4564C129.351 35.0733 129.426 34.68 129.391 34.2765C129.357 33.873 129.198 33.4896 128.916 33.1262ZM130.807 48.7544C130.504 48.1236 130.307 47.519 130.218 46.9407C130.137 46.358 130.184 45.7415 130.36 45.0912C130.402 44.9264 130.472 44.782 130.568 44.6583C130.663 44.5345 130.774 44.4423 130.901 44.3816C131.108 44.2818 131.323 44.2672 131.545 44.3377C131.781 44.4128 131.953 44.5631 132.062 44.7883C132.144 44.9596 132.164 45.1388 132.121 45.326C132.006 45.8028 131.957 46.2426 131.973 46.6454C131.994 47.0572 132.123 47.5109 132.362 48.0065C132.522 48.3399 132.719 48.6225 132.953 48.8541C133.195 49.0814 133.443 49.2395 133.697 49.3283C133.959 49.4128 134.203 49.4009 134.429 49.2925C134.699 49.1624 134.89 48.9708 135.001 48.7175C135.112 48.4643 135.151 48.1406 135.116 47.7465C135.091 47.348 134.991 46.8747 134.816 46.3263C134.654 45.805 134.556 45.325 134.522 44.8861C134.498 44.443 134.538 44.041 134.641 43.6803C134.759 43.3243 134.94 43.0095 135.186 42.7359C135.44 42.458 135.762 42.2259 136.149 42.0394C136.735 41.7576 137.306 41.6657 137.864 41.7636C138.426 41.8706 138.939 42.1288 139.402 42.5384C139.865 42.948 140.247 43.4637 140.546 44.0855C140.828 44.6712 140.998 45.2552 141.056 45.8375C141.127 46.4246 141.104 46.9408 140.985 47.3862C140.904 47.7473 140.728 47.9928 140.458 48.1229C140.259 48.2183 140.042 48.2284 139.806 48.1533C139.57 48.0781 139.403 47.9369 139.303 47.7297C139.238 47.5945 139.22 47.4533 139.249 47.3062C139.306 47.1013 139.33 46.8512 139.321 46.5559C139.321 46.2562 139.292 45.9538 139.234 45.6488C139.185 45.3395 139.104 45.0676 138.991 44.8333C138.805 44.4459 138.597 44.1408 138.368 43.9182C138.143 43.7045 137.913 43.5713 137.676 43.5185C137.44 43.4657 137.209 43.4935 136.984 43.6019C136.714 43.732 136.525 43.917 136.419 44.1569C136.326 44.4014 136.296 44.6984 136.331 45.0478C136.375 45.3929 136.456 45.7922 136.575 46.2457C136.736 46.8341 136.846 47.3636 136.906 47.8341C136.971 48.3136 136.96 48.7406 136.873 49.115C136.796 49.4851 136.628 49.8157 136.368 50.107C136.118 50.3939 135.763 50.6479 135.304 50.869C134.718 51.1508 134.135 51.2314 133.556 51.1108C132.976 50.9902 132.446 50.7182 131.965 50.2949C131.488 49.8807 131.102 49.3672 130.807 48.7544ZM134.686 54.855C134.443 54.9487 134.208 54.9488 133.978 54.8552C133.758 54.7579 133.602 54.5881 133.508 54.3456C133.414 54.1031 133.416 53.8719 133.513 53.652C133.62 53.4285 133.794 53.2699 134.037 53.1761L139.815 50.9418C140.057 50.848 140.288 50.8497 140.508 50.947C140.737 51.0406 140.899 51.2087 140.993 51.4512C141.086 51.6937 141.08 51.9266 140.974 52.1501C140.876 52.37 140.706 52.5268 140.464 52.6206L134.686 54.855ZM141.897 51.0855C141.774 50.7684 141.739 50.5247 141.791 50.3545C141.843 50.1842 142 50.0486 142.261 49.9476L142.527 49.8448C142.797 49.7402 143.006 49.7398 143.153 49.8437C143.314 49.9532 143.452 50.1572 143.567 50.4557C143.693 50.7821 143.73 51.0305 143.678 51.2007C143.626 51.371 143.469 51.5066 143.208 51.6076L142.942 51.7104C142.672 51.815 142.458 51.8172 142.302 51.7169C142.154 51.6131 142.019 51.4026 141.897 51.0855ZM146.91 60.1559C146.982 60.4056 146.96 60.6357 146.845 60.8464C146.729 61.057 146.541 61.1999 146.282 61.2751L137.378 63.8566C137.129 63.929 136.894 63.9086 136.673 63.7955C136.463 63.6795 136.321 63.4967 136.249 63.247C136.177 62.9973 136.198 62.7671 136.314 62.5565C136.44 62.3431 136.627 62.2002 136.877 62.1278L137.583 61.9231L137.545 62.2776C137.42 62.3138 137.247 62.2912 137.026 62.2096C136.814 62.1253 136.588 61.9929 136.348 61.8125C136.109 61.6322 135.88 61.4016 135.664 61.1209C135.459 60.8469 135.304 60.5275 135.198 60.1625C135.006 59.4998 135 58.8508 135.181 58.2155C135.37 57.5774 135.717 57.0135 136.221 56.5239C136.737 56.0412 137.384 55.687 138.161 55.4614C138.949 55.2331 139.685 55.1862 140.37 55.3209C141.067 55.4624 141.66 55.7485 142.149 56.1793C142.648 56.6073 142.991 57.143 143.177 57.7865C143.297 58.1995 143.345 58.597 143.32 58.979C143.296 59.3609 143.223 59.7046 143.104 60.01C142.987 60.325 142.847 60.579 142.684 60.772C142.534 60.9717 142.392 61.0911 142.257 61.1301L141.919 60.6658L145.78 59.5463C146.03 59.4739 146.26 59.4956 146.471 59.6116C146.691 59.7247 146.837 59.9061 146.91 60.1559ZM136.846 59.9191C136.968 60.3417 137.181 60.6809 137.484 60.9365C137.788 61.1922 138.147 61.3536 138.562 61.4206C138.98 61.4973 139.414 61.4702 139.866 61.3393C140.327 61.2056 140.713 60.9947 141.025 60.7063C141.34 60.4276 141.557 60.0992 141.677 59.721C141.796 59.3428 141.795 58.9424 141.672 58.5198C141.552 58.1068 141.341 57.7724 141.038 57.5168C140.734 57.2611 140.374 57.0949 139.956 57.0182C139.541 56.9512 139.103 56.9845 138.642 57.1182C138.19 57.2491 137.807 57.4538 137.492 57.7326C137.18 58.0209 136.965 58.3541 136.845 58.7323C136.726 59.1105 136.726 59.5061 136.846 59.9191ZM137.337 69.7623C137.209 68.922 137.27 68.1641 137.521 67.4885C137.784 66.8214 138.191 66.2737 138.743 65.8457C139.296 65.4275 139.953 65.1604 140.714 65.0444C141.604 64.9088 142.388 64.9714 143.065 65.2324C143.753 65.5017 144.31 65.9024 144.735 66.4344C145.16 66.9664 145.422 67.5587 145.522 68.2111C145.598 68.7153 145.567 69.2056 145.427 69.6822C145.289 70.1685 145.063 70.6126 144.75 71.0144C144.447 71.4146 144.073 71.7498 143.629 72.0198C143.186 72.2998 142.698 72.4804 142.164 72.5618C141.925 72.5881 141.718 72.5236 141.543 72.3682C141.367 72.2129 141.261 72.0166 141.225 71.7793L140.362 66.1148L141.777 65.4439L142.606 70.886L142.26 70.605L142.66 70.5439C142.944 70.4805 143.185 70.3375 143.384 70.115C143.584 69.9024 143.728 69.6479 143.814 69.3515C143.912 69.0635 143.937 68.7662 143.89 68.4598C143.845 68.1632 143.763 67.8924 143.645 67.6475C143.527 67.4025 143.36 67.2004 143.143 67.0412C142.927 66.882 142.652 66.7721 142.319 66.7116C141.986 66.6511 141.577 66.6578 141.093 66.7316C140.559 66.813 140.121 66.9911 139.779 67.2658C139.447 67.5489 139.209 67.8786 139.064 68.2547C138.931 68.6392 138.894 69.0292 138.954 69.4247C139.01 69.7904 139.084 70.0775 139.177 70.286C139.269 70.4944 139.365 70.6569 139.463 70.7733C139.574 70.8982 139.667 71.0105 139.742 71.1102C139.859 71.2745 139.929 71.4358 139.953 71.594C139.986 71.8115 139.939 72.0007 139.812 72.1617C139.686 72.3326 139.524 72.4331 139.327 72.4633C139.06 72.504 138.796 72.4025 138.537 72.1588C138.28 71.935 138.032 71.6035 137.793 71.1645C137.564 70.724 137.412 70.2566 137.337 69.7623ZM146.335 78.9479C146.344 79.6878 146.195 80.2495 145.89 80.6331C145.584 81.0266 145.172 81.2963 144.654 81.4423C144.145 81.5981 143.576 81.6796 142.946 81.6868L139.107 81.7308C138.847 81.7338 138.626 81.6513 138.444 81.4834C138.272 81.3153 138.184 81.1013 138.181 80.8413C138.178 80.5813 138.261 80.3654 138.429 80.1934C138.607 80.0214 138.826 79.9339 139.086 79.9309L142.926 79.8869C143.256 79.8832 143.55 79.8348 143.809 79.7418C144.078 79.6587 144.292 79.5063 144.449 79.2845C144.606 79.0627 144.683 78.7468 144.678 78.3368C144.674 77.9368 144.59 77.5978 144.427 77.3196C144.263 77.0515 144.046 76.8439 143.774 76.697C143.513 76.56 143.217 76.4934 142.887 76.4972L139.047 76.5411C138.787 76.5441 138.566 76.4616 138.384 76.2937C138.212 76.1257 138.125 75.9116 138.122 75.6517C138.119 75.3917 138.202 75.1757 138.37 75.0038C138.548 74.8317 138.767 74.7442 139.027 74.7412L145.221 74.6703C145.481 74.6674 145.697 74.7499 145.869 74.9179C146.051 75.0859 146.144 75.2998 146.146 75.5598C146.149 75.8198 146.062 76.0358 145.884 76.2078C145.716 76.3798 145.502 76.4672 145.242 76.4702L144.597 76.4776L144.639 76.2521C144.81 76.3401 144.992 76.4681 145.184 76.6359C145.386 76.8036 145.573 77.0015 145.746 77.2295C145.918 77.4575 146.056 77.716 146.159 78.0048C146.273 78.2935 146.331 78.6079 146.335 78.9479Z" fill="#797B88"/>
<path d="M96.3409 53.3177C98.0752 53.0224 114.238 50.6481 122.768 65.3122C123.877 67.2191 129.411 77.233 126.579 88.4156C123.228 101.69 110.923 105.343 107.926 106.229C97.3673 109.366 88.684 104.088 85.1682 101.468C81.6642 98.86 76.8507 95.2678 74.845 88.0588C71.3528 75.4492 79.7766 63.6145 80.3547 62.8272C86.0885 55.0154 93.5684 53.7606 96.3291 53.3054L96.3409 53.3177Z" fill="#FFEBCD" stroke="#B6AFAF" stroke-width="2" stroke-linecap="round" stroke-linejoin="round"/>
</svg>
