<svg width="529" height="195" viewBox="0 0 529 195" fill="none" xmlns="http://www.w3.org/2000/svg">
<path d="M54.8041 128.886C29.0703 100.073 33.7029 58.5801 65.1512 36.2079C96.5996 13.8358 142.955 19.0568 168.689 47.8694C194.423 76.6821 189.79 118.176 158.342 140.548C126.893 162.92 80.538 157.699 54.8041 128.886Z" fill="#FCD993"/>
<path d="M95.4271 108.284C70.6246 80.5145 75.6075 40.1542 106.557 18.1372C137.506 -3.87984 182.702 0.783778 207.504 28.5536C232.307 56.3235 227.324 96.6838 196.375 118.701C165.425 140.718 120.23 136.054 95.4271 108.284Z" fill="#FFFBF5"/>
<path d="M118.187 44.2467C119.079 44.3411 121.32 44.606 123.634 46.3001C124.487 46.9245 125.813 47.9196 126.8 49.852C127.839 51.8853 127.903 53.7793 127.912 54.2178C127.92 54.6744 127.928 56.7831 126.777 59.0407C125.668 61.2154 124.113 62.292 123.095 62.9783C122.617 63.3003 120.25 64.8449 116.852 64.9542C115.819 64.9872 113.296 65.0342 110.618 63.4128C109.675 62.8423 107.946 61.7628 106.731 59.4568C106.395 58.8176 105.567 57.2014 105.54 54.8953C105.534 54.332 105.56 52.5522 106.465 50.5957C107.114 49.19 107.917 48.3398 108.428 47.8095C109.818 46.3638 111.216 45.7051 112.123 45.2897C113.297 44.7506 114.239 44.5272 114.533 44.4613C115.227 44.3058 116.55 44.077 118.187 44.2493L118.187 44.2467Z" fill="#FFD278" fill-opacity="0.78" stroke="white" stroke-width="0.25" stroke-linecap="round" stroke-linejoin="round"/>
<path d="M135.62 100.827C135.788 100.827 135.928 100.883 136.04 100.995C136.16 101.107 136.22 101.247 136.219 101.415C136.219 101.583 136.159 101.723 136.039 101.835C135.927 101.947 135.787 102.003 135.619 102.003L131.587 102.001C131.411 102.001 131.263 101.945 131.143 101.833C131.031 101.713 130.975 101.564 130.975 101.388L130.979 94.2125C130.979 94.0365 131.039 93.8925 131.159 93.7806C131.279 93.6606 131.435 93.6007 131.627 93.6008C131.787 93.6009 131.927 93.661 132.047 93.781C132.175 93.8931 132.239 94.0371 132.239 94.2131L132.236 101.029L131.984 100.825L135.62 100.827ZM138.593 101.392C138.592 101.568 138.536 101.716 138.424 101.836C138.312 101.948 138.168 102.004 137.992 102.004C137.824 102.004 137.68 101.948 137.56 101.836C137.448 101.716 137.392 101.568 137.393 101.392L137.395 96.2558C137.395 96.0798 137.451 95.9358 137.563 95.8238C137.683 95.7039 137.828 95.644 137.996 95.6441C138.172 95.6441 138.315 95.7042 138.427 95.8243C138.539 95.9363 138.595 96.0804 138.595 96.2564L138.593 101.392ZM137.984 94.8521C137.752 94.8519 137.584 94.8118 137.48 94.7318C137.376 94.6437 137.324 94.4997 137.324 94.2997L137.324 94.1077C137.324 93.9077 137.38 93.7677 137.492 93.6878C137.605 93.6079 137.773 93.5679 137.997 93.5681C138.237 93.5682 138.409 93.6123 138.512 93.7003C138.616 93.7804 138.668 93.9164 138.668 94.1084L138.668 94.3004C138.668 94.5084 138.612 94.6524 138.5 94.7323C138.396 94.8123 138.224 94.8522 137.984 94.8521ZM143.462 95.5508C144.03 95.5511 144.47 95.6713 144.782 95.9115C145.093 96.1437 145.309 96.4598 145.429 96.8598C145.557 97.2519 145.621 97.6919 145.62 98.1799L145.619 101.396C145.619 101.572 145.559 101.72 145.439 101.84C145.326 101.952 145.186 102.008 145.018 102.008C144.842 102.008 144.698 101.951 144.587 101.839C144.475 101.719 144.419 101.571 144.419 101.395L144.42 98.1913C144.421 97.9033 144.381 97.6473 144.301 97.4233C144.221 97.1912 144.081 97.0072 143.881 96.871C143.689 96.727 143.417 96.6548 143.065 96.6546C142.737 96.6545 142.449 96.7263 142.201 96.8702C141.953 97.0061 141.757 97.19 141.613 97.4219C141.477 97.6458 141.409 97.9018 141.408 98.1898L141.407 101.394C141.407 101.57 141.347 101.718 141.227 101.838C141.114 101.95 140.974 102.006 140.806 102.005C140.63 102.005 140.486 101.949 140.375 101.837C140.263 101.717 140.207 101.569 140.207 101.393L140.209 96.3052C140.209 96.1292 140.266 95.9852 140.378 95.8733C140.49 95.7533 140.634 95.6934 140.81 95.6935C140.978 95.6936 141.118 95.7536 141.23 95.8737C141.35 95.9858 141.409 96.1298 141.409 96.3058L141.409 96.9778L141.193 97.0977C141.249 96.9217 141.345 96.7458 141.481 96.5698C141.625 96.3859 141.797 96.218 141.997 96.0661C142.198 95.9062 142.422 95.7823 142.67 95.6944C142.918 95.5986 143.182 95.5507 143.462 95.5508ZM147.981 102.009C147.813 102.009 147.669 101.953 147.549 101.841C147.437 101.721 147.381 101.573 147.381 101.397L147.385 93.7408C147.385 93.5648 147.441 93.4209 147.553 93.3089C147.673 93.189 147.817 93.1291 147.985 93.1291C148.161 93.1292 148.305 93.1893 148.417 93.3094C148.529 93.4214 148.585 93.5654 148.585 93.7414L148.581 101.397C148.581 101.573 148.525 101.721 148.413 101.841C148.301 101.953 148.157 102.009 147.981 102.009ZM151.896 95.6751C152.048 95.6752 152.18 95.7393 152.292 95.8673C152.404 95.9954 152.46 96.1234 152.46 96.2514C152.459 96.4114 152.383 96.5594 152.231 96.6953L148.474 100.053L148.426 98.6734L151.452 95.8669C151.58 95.739 151.728 95.675 151.896 95.6751ZM152.037 101.999C151.869 101.999 151.725 101.931 151.605 101.795L149.206 99.2618L150.118 98.4222L152.457 100.955C152.585 101.091 152.649 101.244 152.649 101.412C152.649 101.588 152.577 101.731 152.433 101.843C152.297 101.947 152.165 101.999 152.037 101.999ZM160.184 102.015C159.992 102.015 159.836 101.959 159.716 101.847C159.604 101.727 159.548 101.579 159.548 101.403L159.552 94.215L160.836 94.2157L160.832 101.404C160.832 101.58 160.768 101.728 160.64 101.848C160.52 101.96 160.368 102.015 160.184 102.015ZM157.464 94.766C157.296 94.7659 157.152 94.7138 157.032 94.6097C156.912 94.4977 156.852 94.3536 156.852 94.1776C156.852 94.0096 156.912 93.8737 157.032 93.7697C157.152 93.6658 157.296 93.6139 157.464 93.614L162.924 93.6167C163.092 93.6168 163.232 93.6729 163.344 93.7849C163.464 93.889 163.524 94.025 163.524 94.193C163.524 94.369 163.464 94.509 163.344 94.6129C163.232 94.7169 163.092 94.7688 162.924 94.7687L157.464 94.766ZM165.874 101.406C165.874 101.582 165.818 101.73 165.706 101.85C165.594 101.962 165.45 102.018 165.274 102.018C165.106 102.018 164.962 101.962 164.842 101.85C164.73 101.73 164.674 101.582 164.674 101.406L164.676 96.2696C164.677 96.0936 164.733 95.9496 164.845 95.8377C164.965 95.7178 165.109 95.6578 165.277 95.6579C165.453 95.658 165.597 95.7181 165.709 95.8381C165.821 95.9502 165.877 96.0942 165.876 96.2702L165.874 101.406ZM165.265 94.8659C165.033 94.8658 164.865 94.8257 164.761 94.7457C164.657 94.6576 164.605 94.5136 164.605 94.3136L164.606 94.1216C164.606 93.9216 164.662 93.7816 164.774 93.7017C164.886 93.6217 165.054 93.5818 165.278 93.5819C165.518 93.582 165.69 93.6261 165.794 93.7142C165.898 93.7942 165.95 93.9303 165.95 94.1223L165.949 94.3143C165.949 94.5223 165.893 94.6662 165.781 94.7462C165.677 94.8261 165.505 94.866 165.265 94.8659ZM168.784 101.408C168.784 101.584 168.724 101.732 168.604 101.852C168.492 101.964 168.352 102.019 168.184 102.019C168.016 102.019 167.872 101.963 167.752 101.851C167.64 101.731 167.584 101.583 167.584 101.407L167.588 93.7511C167.588 93.5751 167.648 93.4311 167.768 93.3192C167.888 93.1993 168.032 93.1393 168.2 93.1394C168.376 93.1395 168.516 93.1996 168.62 93.3196C168.732 93.4317 168.788 93.5757 168.788 93.7517L168.784 101.408ZM174.694 93.6227C174.854 93.6228 174.994 93.6829 175.114 93.8029C175.242 93.915 175.306 94.059 175.306 94.235L175.302 101.411C175.294 101.587 175.226 101.735 175.098 101.855C174.978 101.967 174.834 102.023 174.666 102.023C174.482 102.023 174.33 101.967 174.21 101.854C174.098 101.734 174.042 101.586 174.042 101.41L174.046 94.2344C174.046 94.0584 174.106 93.9144 174.226 93.8025C174.346 93.6825 174.502 93.6226 174.694 93.6227ZM180.106 93.6255C180.298 93.6256 180.45 93.6856 180.562 93.8057C180.674 93.9177 180.73 94.0618 180.73 94.2378L180.726 101.414C180.726 101.59 180.666 101.738 180.546 101.858C180.434 101.97 180.282 102.026 180.09 102.025C179.922 102.025 179.778 101.969 179.658 101.857C179.538 101.737 179.478 101.589 179.478 101.413L179.482 94.2371C179.482 94.0611 179.542 93.9172 179.662 93.8052C179.79 93.6853 179.938 93.6254 180.106 93.6255ZM174.644 97.1987L180.116 97.2015L180.103 98.3535L174.631 98.3507L174.644 97.1987ZM183.902 102.291C183.902 102.723 183.814 103.095 183.638 103.407C183.462 103.719 183.23 103.959 182.942 104.127C182.653 104.295 182.345 104.379 182.017 104.378C181.849 104.378 181.713 104.322 181.609 104.21C181.506 104.106 181.454 103.978 181.454 103.826L181.454 103.718C181.454 103.574 181.506 103.458 181.61 103.37C181.706 103.282 181.826 103.214 181.97 103.166C182.154 103.111 182.298 103.027 182.402 102.915C182.514 102.811 182.59 102.675 182.63 102.507C182.678 102.347 182.702 102.171 182.703 101.979L182.705 96.3148C182.706 96.1468 182.762 96.0068 182.874 95.8949C182.986 95.7749 183.13 95.715 183.306 95.7151C183.482 95.7152 183.626 95.7752 183.738 95.8953C183.85 96.0074 183.906 96.1474 183.905 96.3154L183.902 102.291ZM183.282 94.8751C183.05 94.875 182.882 94.8349 182.778 94.7548C182.674 94.6668 182.622 94.5227 182.622 94.3227L182.623 94.1307C182.623 93.9307 182.679 93.7908 182.791 93.7108C182.903 93.6309 183.071 93.591 183.295 93.5911C183.535 93.5912 183.707 93.6353 183.811 93.7233C183.915 93.8034 183.967 93.9394 183.967 94.1314L183.966 94.3234C183.966 94.5314 183.91 94.6754 183.798 94.7553C183.694 94.8353 183.522 94.8752 183.282 94.8751ZM188.756 102.15C188.092 102.15 187.516 102.013 187.028 101.741C186.54 101.461 186.16 101.081 185.889 100.6C185.625 100.112 185.493 99.5562 185.493 98.9322C185.494 98.2282 185.634 97.6283 185.914 97.1324C186.203 96.6286 186.575 96.2447 187.031 95.981C187.487 95.7092 187.971 95.5735 188.483 95.5737C188.875 95.5739 189.247 95.6541 189.599 95.8143C189.951 95.9665 190.263 96.1826 190.535 96.4628C190.815 96.7349 191.034 97.059 191.194 97.4351C191.354 97.8032 191.438 98.2072 191.446 98.6472C191.437 98.8072 191.373 98.9392 191.253 99.0431C191.133 99.1471 190.993 99.199 190.833 99.1989L186.165 99.1965L185.878 98.1764L190.39 98.1787L190.162 98.3946L190.162 98.0946C190.146 97.8146 190.054 97.5705 189.886 97.3624C189.718 97.1463 189.51 96.9822 189.262 96.8701C189.015 96.75 188.755 96.6899 188.483 96.6897C188.243 96.6896 188.011 96.7295 187.786 96.8094C187.57 96.8813 187.374 97.0012 187.198 97.1691C187.03 97.337 186.894 97.5609 186.79 97.8409C186.694 98.1128 186.646 98.4528 186.645 98.8608C186.645 99.3008 186.737 99.6848 186.921 100.013C187.105 100.341 187.353 100.597 187.664 100.781C187.976 100.957 188.32 101.046 188.696 101.046C188.992 101.046 189.236 101.018 189.428 100.962C189.62 100.898 189.78 100.822 189.908 100.734C190.037 100.647 190.149 100.563 190.245 100.483C190.365 100.411 190.485 100.375 190.605 100.375C190.749 100.375 190.869 100.427 190.965 100.531C191.061 100.627 191.108 100.743 191.108 100.879C191.108 101.055 191.02 101.215 190.844 101.359C190.628 101.567 190.328 101.751 189.944 101.91C189.568 102.07 189.172 102.15 188.756 102.15ZM195.971 95.6135C196.563 95.6138 197.019 95.7621 197.339 96.0582C197.659 96.3464 197.871 96.7385 197.975 97.2345L197.783 97.1744L197.867 96.9825C197.971 96.7745 198.127 96.5666 198.335 96.3587C198.551 96.1428 198.807 95.967 199.103 95.8311C199.399 95.6873 199.715 95.6154 200.051 95.6156C200.603 95.6159 201.031 95.7361 201.335 95.9762C201.639 96.2084 201.851 96.5245 201.971 96.9246C202.091 97.3166 202.15 97.7567 202.15 98.2447L202.149 101.425C202.148 101.601 202.092 101.749 201.98 101.869C201.868 101.981 201.724 102.036 201.548 102.036C201.38 102.036 201.236 101.98 201.116 101.868C201.004 101.748 200.948 101.6 200.949 101.424L200.95 98.2561C200.95 97.9761 200.91 97.72 200.831 97.488C200.759 97.256 200.627 97.0719 200.435 96.9358C200.251 96.7917 199.995 96.7196 199.667 96.7194C199.355 96.7192 199.075 96.7911 198.827 96.935C198.587 97.0709 198.399 97.2548 198.263 97.4867C198.126 97.7186 198.058 97.9746 198.058 98.2546L198.057 101.423C198.056 101.599 198 101.747 197.888 101.866C197.776 101.978 197.632 102.034 197.456 102.034C197.28 102.034 197.136 101.978 197.024 101.866C196.912 101.746 196.856 101.598 196.857 101.422L196.858 98.242C196.858 97.962 196.818 97.706 196.739 97.4739C196.667 97.2419 196.539 97.0578 196.355 96.9217C196.171 96.7856 195.915 96.7175 195.587 96.7173C195.275 96.7172 194.999 96.785 194.759 96.9209C194.519 97.0568 194.331 97.2407 194.195 97.4726C194.066 97.7046 194.002 97.9605 194.002 98.2405L194.001 101.421C194 101.597 193.94 101.744 193.82 101.864C193.708 101.976 193.568 102.032 193.4 102.032C193.224 102.032 193.08 101.976 192.968 101.864C192.856 101.744 192.8 101.596 192.801 101.42L192.803 96.3319C192.803 96.1559 192.859 96.0119 192.971 95.9C193.083 95.7801 193.227 95.7201 193.403 95.7202C193.571 95.7203 193.711 95.7804 193.823 95.9004C193.943 96.0125 194.003 96.1565 194.003 96.3325L194.003 97.0405L193.775 97.1724C193.831 96.9964 193.923 96.8165 194.051 96.6325C194.179 96.4486 194.339 96.2807 194.531 96.1288C194.731 95.9769 194.951 95.853 195.191 95.7571C195.431 95.6612 195.691 95.6134 195.971 95.6135ZM206.999 95.6191C207.591 95.6194 208.047 95.7677 208.367 96.0638C208.686 96.352 208.898 96.7441 209.002 97.2401L208.81 97.18L208.894 96.9881C208.998 96.7801 209.154 96.5722 209.362 96.3643C209.579 96.1484 209.835 95.9726 210.131 95.8367C210.427 95.6929 210.743 95.621 211.079 95.6212C211.631 95.6215 212.059 95.7417 212.363 95.9819C212.666 96.214 212.878 96.5301 212.998 96.9302C213.118 97.3222 213.178 97.7623 213.177 98.2503L213.176 101.43C213.176 101.606 213.12 101.754 213.008 101.874C212.896 101.986 212.752 102.042 212.576 102.042C212.408 102.042 212.264 101.986 212.144 101.874C212.032 101.754 211.976 101.606 211.976 101.43L211.977 98.2617C211.978 97.9817 211.938 97.7256 211.858 97.4936C211.786 97.2616 211.654 97.0775 211.462 96.9414C211.278 96.7973 211.022 96.7252 210.694 96.725C210.382 96.7248 210.102 96.7967 209.854 96.9406C209.614 97.0765 209.426 97.2604 209.29 97.4923C209.154 97.7242 209.086 97.9802 209.085 98.2602L209.084 101.428C209.084 101.604 209.028 101.752 208.916 101.872C208.804 101.984 208.66 102.04 208.484 102.04C208.308 102.04 208.164 101.984 208.052 101.872C207.94 101.752 207.884 101.604 207.884 101.428L207.885 98.2476C207.886 97.9676 207.846 97.7116 207.766 97.4795C207.694 97.2475 207.566 97.0634 207.382 96.9273C207.198 96.7912 206.942 96.7231 206.614 96.7229C206.302 96.7228 206.026 96.7906 205.786 96.9265C205.546 97.0624 205.358 97.2463 205.222 97.4782C205.094 97.7102 205.03 97.9661 205.029 98.2461L205.028 101.426C205.028 101.602 204.968 101.75 204.848 101.87C204.736 101.982 204.596 102.038 204.428 102.038C204.252 102.038 204.108 101.982 203.996 101.87C203.884 101.75 203.828 101.602 203.828 101.426L203.83 96.3375C203.831 96.1615 203.887 96.0175 203.999 95.9056C204.111 95.7857 204.255 95.7257 204.431 95.7258C204.599 95.7259 204.739 95.786 204.851 95.906C204.971 96.0181 205.031 96.1621 205.03 96.3381L205.03 97.0461L204.802 97.178C204.858 97.002 204.95 96.8221 205.078 96.6382C205.206 96.4542 205.366 96.2863 205.559 96.1344C205.759 95.9825 205.979 95.8586 206.219 95.7627C206.459 95.6669 206.719 95.619 206.999 95.6191ZM217.795 102.165C217.131 102.164 216.555 102.028 216.067 101.756C215.579 101.475 215.199 101.095 214.928 100.615C214.664 100.127 214.532 99.571 214.532 98.947C214.533 98.243 214.673 97.643 214.953 97.1472C215.242 96.6433 215.614 96.2595 216.07 95.9957C216.526 95.724 217.01 95.5882 217.522 95.5885C217.914 95.5887 218.286 95.6689 218.638 95.829C218.99 95.9812 219.302 96.1974 219.574 96.4775C219.854 96.7497 220.073 97.0738 220.233 97.4499C220.393 97.8179 220.477 98.222 220.485 98.662C220.477 98.822 220.412 98.9539 220.292 99.0579C220.172 99.1618 220.032 99.2138 219.872 99.2137L215.204 99.2113L214.917 98.1912L219.429 98.1934L219.201 98.4093L219.201 98.1093C219.185 97.8293 219.093 97.5853 218.925 97.3772C218.757 97.1611 218.549 96.997 218.301 96.8849C218.054 96.7647 217.794 96.7046 217.522 96.7045C217.282 96.7044 217.05 96.7442 216.826 96.8241C216.609 96.896 216.413 97.0159 216.237 97.1838C216.069 97.3517 215.933 97.5757 215.829 97.8556C215.733 98.1276 215.685 98.4675 215.684 98.8755C215.684 99.3155 215.776 99.6996 215.96 100.028C216.144 100.356 216.392 100.612 216.704 100.796C217.015 100.972 217.359 101.06 217.735 101.061C218.031 101.061 218.275 101.033 218.467 100.977C218.659 100.913 218.819 100.837 218.948 100.749C219.076 100.661 219.188 100.577 219.284 100.497C219.404 100.425 219.524 100.389 219.644 100.39C219.788 100.39 219.908 100.442 220.004 100.546C220.1 100.642 220.148 100.758 220.147 100.894C220.147 101.07 220.059 101.23 219.883 101.374C219.667 101.582 219.367 101.765 218.983 101.925C218.607 102.085 218.211 102.165 217.795 102.165ZM221.468 101.062C221.396 100.95 221.364 100.822 221.372 100.678C221.38 100.526 221.464 100.398 221.624 100.295C221.736 100.223 221.852 100.195 221.972 100.211C222.1 100.219 222.22 100.279 222.332 100.391C222.556 100.639 222.804 100.835 223.076 100.979C223.356 101.123 223.692 101.196 224.084 101.196C224.244 101.188 224.408 101.164 224.576 101.124C224.744 101.076 224.888 100.996 225.008 100.884C225.128 100.764 225.188 100.592 225.188 100.368C225.188 100.168 225.124 100.008 224.996 99.8883C224.868 99.7682 224.7 99.6721 224.492 99.6C224.285 99.5199 224.061 99.4478 223.821 99.3837C223.565 99.3115 223.305 99.2314 223.041 99.1433C222.785 99.0552 222.553 98.943 222.345 98.8069C222.137 98.6628 221.965 98.4787 221.829 98.2547C221.701 98.0306 221.637 97.7546 221.638 97.4266C221.638 97.0506 221.742 96.7266 221.95 96.4547C222.166 96.1828 222.442 95.971 222.778 95.8191C223.122 95.6673 223.495 95.5915 223.895 95.5917C224.127 95.5918 224.371 95.624 224.626 95.6881C224.882 95.7442 225.13 95.8363 225.37 95.9645C225.61 96.0926 225.818 96.2607 225.994 96.4688C226.074 96.5728 226.118 96.6968 226.126 96.8408C226.142 96.9849 226.078 97.1128 225.934 97.2248C225.838 97.3047 225.722 97.3406 225.586 97.3326C225.45 97.3245 225.338 97.2804 225.25 97.2004C225.098 97.0083 224.902 96.8602 224.662 96.7561C224.422 96.644 224.15 96.5878 223.846 96.5877C223.694 96.5876 223.534 96.6115 223.366 96.6594C223.206 96.6994 223.07 96.7753 222.958 96.8872C222.846 96.9992 222.79 97.1632 222.79 97.3792C222.79 97.5792 222.853 97.7392 222.981 97.8593C223.117 97.9793 223.293 98.0794 223.509 98.1595C223.725 98.2396 223.961 98.3117 224.217 98.3759C224.465 98.44 224.709 98.5161 224.949 98.6043C225.197 98.6924 225.417 98.8085 225.609 98.9526C225.809 99.0887 225.969 99.2688 226.089 99.4928C226.216 99.7089 226.28 99.9849 226.28 100.321C226.28 100.713 226.164 101.049 225.932 101.329C225.707 101.601 225.419 101.808 225.067 101.952C224.723 102.096 224.359 102.168 223.975 102.168C223.519 102.168 223.063 102.087 222.607 101.927C222.159 101.759 221.78 101.471 221.468 101.062ZM228.698 101.438C228.698 101.614 228.642 101.762 228.53 101.882C228.418 101.994 228.274 102.05 228.098 102.05C227.93 102.05 227.786 101.994 227.666 101.882C227.554 101.762 227.498 101.614 227.498 101.438L227.501 96.3015C227.501 96.1255 227.557 95.9816 227.669 95.8696C227.789 95.7497 227.933 95.6898 228.101 95.6899C228.277 95.6899 228.421 95.75 228.533 95.8701C228.645 95.9821 228.701 96.1262 228.701 96.3022L228.698 101.438ZM228.089 94.8978C227.857 94.8977 227.689 94.8576 227.585 94.7776C227.481 94.6895 227.43 94.5455 227.43 94.3455L227.43 94.1535C227.43 93.9535 227.486 93.8135 227.598 93.7336C227.71 93.6537 227.878 93.6137 228.102 93.6139C228.342 93.614 228.514 93.6581 228.618 93.7461C228.722 93.8262 228.774 93.9622 228.774 94.1542L228.774 94.3462C228.774 94.5542 228.717 94.6982 228.605 94.7781C228.501 94.8581 228.329 94.898 228.089 94.8978ZM235.488 93.1736C235.664 93.1737 235.808 93.2298 235.92 93.3418C236.032 93.4539 236.088 93.6019 236.088 93.7859L236.084 101.442C236.084 101.618 236.028 101.766 235.916 101.886C235.804 101.998 235.66 102.054 235.484 102.054C235.316 102.054 235.172 101.997 235.052 101.885C234.94 101.765 234.884 101.617 234.884 101.441L234.885 100.577L235.137 100.589C235.137 100.733 235.076 100.897 234.956 101.081C234.844 101.257 234.688 101.429 234.488 101.597C234.288 101.765 234.052 101.905 233.78 102.017C233.508 102.121 233.216 102.172 232.904 102.172C232.352 102.172 231.856 102.032 231.416 101.752C230.976 101.463 230.628 101.075 230.373 100.587C230.117 100.091 229.989 99.5228 229.99 98.8828C229.99 98.2428 230.118 97.6789 230.374 97.191C230.631 96.6951 230.975 96.3073 231.407 96.0275C231.847 95.7398 232.335 95.596 232.871 95.5963C233.207 95.5964 233.519 95.6526 233.807 95.7648C234.103 95.8769 234.359 96.021 234.575 96.1971C234.791 96.3733 234.959 96.5613 235.079 96.7614C235.198 96.9535 235.258 97.1375 235.258 97.3135L234.886 97.3493L234.888 93.7853C234.888 93.6093 234.944 93.4653 235.056 93.3534C235.176 93.2334 235.32 93.1735 235.488 93.1736ZM233.036 101.068C233.42 101.069 233.752 100.973 234.033 100.781C234.321 100.589 234.545 100.329 234.705 100.001C234.865 99.6733 234.945 99.3013 234.946 98.8853C234.946 98.4693 234.866 98.0973 234.706 97.7692C234.546 97.4411 234.322 97.181 234.034 96.9889C233.747 96.7967 233.415 96.7006 233.039 96.7004C232.671 96.7002 232.343 96.796 232.054 96.9879C231.774 97.1797 231.55 97.4396 231.382 97.7675C231.222 98.0954 231.142 98.4674 231.142 98.8834C231.141 99.2994 231.221 99.6714 231.381 99.9995C231.549 100.328 231.773 100.588 232.053 100.78C232.34 100.972 232.668 101.068 233.036 101.068ZM240.705 102.176C240.041 102.176 239.465 102.04 238.977 101.767C238.489 101.487 238.11 101.107 237.838 100.627C237.574 100.139 237.442 99.5826 237.443 98.9586C237.443 98.2546 237.583 97.6547 237.864 97.1588C238.152 96.655 238.524 96.2711 238.98 96.0074C239.436 95.7356 239.92 95.5999 240.432 95.6001C240.824 95.6003 241.196 95.6805 241.548 95.8407C241.9 95.9929 242.212 96.209 242.484 96.4892C242.764 96.7613 242.984 97.0854 243.143 97.4615C243.303 97.8296 243.387 98.2336 243.395 98.6736C243.387 98.8336 243.323 98.9656 243.203 99.0695C243.082 99.1735 242.942 99.2254 242.782 99.2253L238.114 99.2229L237.827 98.2028L242.339 98.2051L242.111 98.421L242.111 98.121C242.095 97.841 242.003 97.5969 241.835 97.3888C241.668 97.1727 241.46 97.0086 241.212 96.8965C240.964 96.7764 240.704 96.7163 240.432 96.7161C240.192 96.716 239.96 96.7559 239.736 96.8358C239.52 96.9077 239.324 97.0276 239.147 97.1955C238.979 97.3634 238.843 97.5873 238.739 97.8673C238.643 98.1392 238.595 98.4792 238.595 98.8872C238.594 99.3272 238.686 99.7112 238.87 100.039C239.054 100.367 239.302 100.624 239.614 100.808C239.926 100.984 240.27 101.072 240.646 101.072C240.942 101.072 241.186 101.045 241.378 100.989C241.57 100.925 241.73 100.849 241.858 100.761C241.986 100.673 242.098 100.589 242.194 100.509C242.314 100.437 242.434 100.401 242.554 100.401C242.698 100.401 242.818 100.453 242.914 100.557C243.01 100.653 243.058 100.769 243.058 100.905C243.058 101.081 242.969 101.241 242.793 101.385C242.577 101.593 242.277 101.777 241.893 101.937C241.517 102.097 241.121 102.176 240.705 102.176ZM250.957 102.061C250.765 102.061 250.609 102.005 250.489 101.893C250.377 101.773 250.321 101.625 250.322 101.449L250.325 94.2611L251.609 94.2618L251.606 101.45C251.605 101.626 251.541 101.774 251.413 101.894C251.293 102.006 251.141 102.062 250.957 102.061ZM248.237 94.8121C248.069 94.812 247.925 94.7599 247.805 94.6559C247.685 94.5438 247.625 94.3998 247.625 94.2238C247.625 94.0558 247.685 93.9198 247.805 93.8159C247.925 93.7119 248.07 93.66 248.238 93.6601L253.698 93.6629C253.866 93.6629 254.005 93.719 254.117 93.8311C254.237 93.9351 254.297 94.0712 254.297 94.2392C254.297 94.4152 254.237 94.5551 254.117 94.6591C254.005 94.763 253.865 94.8149 253.697 94.8149L248.237 94.8121ZM257.017 102.185C256.353 102.184 255.778 102.048 255.29 101.776C254.802 101.495 254.422 101.115 254.15 100.635C253.886 100.147 253.755 99.5909 253.755 98.9669C253.755 98.2629 253.896 97.663 254.176 97.1671C254.464 96.6633 254.836 96.2794 255.293 96.0157C255.749 95.7439 256.233 95.6081 256.745 95.6084C257.137 95.6086 257.509 95.6888 257.861 95.849C258.213 96.0012 258.524 96.2173 258.796 96.4975C259.076 96.7696 259.296 97.0937 259.456 97.4698C259.616 97.8379 259.699 98.2419 259.707 98.6819C259.699 98.8419 259.635 98.9739 259.515 99.0778C259.395 99.1818 259.255 99.2337 259.095 99.2336L254.427 99.2312L254.139 98.2111L258.651 98.2134L258.423 98.4293L258.424 98.1293C258.408 97.8493 258.316 97.6052 258.148 97.3971C257.98 97.181 257.772 97.0169 257.524 96.9048C257.276 96.7847 257.016 96.7245 256.744 96.7244C256.504 96.7243 256.272 96.7642 256.048 96.8441C255.832 96.9159 255.636 97.0358 255.46 97.2038C255.292 97.3717 255.156 97.5956 255.052 97.8755C254.956 98.1475 254.907 98.4875 254.907 98.8955C254.907 99.3355 254.999 99.7195 255.183 100.048C255.366 100.376 255.614 100.632 255.926 100.816C256.238 100.992 256.582 101.08 256.958 101.081C257.254 101.081 257.498 101.053 257.69 100.997C257.882 100.933 258.042 100.857 258.17 100.769C258.298 100.681 258.41 100.597 258.506 100.517C258.626 100.445 258.746 100.409 258.866 100.409C259.01 100.41 259.13 100.462 259.226 100.566C259.322 100.662 259.37 100.778 259.37 100.914C259.37 101.09 259.282 101.25 259.106 101.394C258.89 101.601 258.59 101.785 258.206 101.945C257.83 102.105 257.433 102.185 257.017 102.185ZM264.233 95.6482C264.825 95.6485 265.281 95.7967 265.601 96.0929C265.921 96.3811 266.133 96.7732 266.236 97.2692L266.044 97.2091L266.128 97.0172C266.233 96.8092 266.389 96.6013 266.597 96.3934C266.813 96.1775 267.069 96.0017 267.365 95.8658C267.661 95.722 267.977 95.6501 268.313 95.6503C268.865 95.6506 269.293 95.7708 269.597 96.0109C269.901 96.2431 270.113 96.5592 270.232 96.9593C270.352 97.3513 270.412 97.7914 270.412 98.2794L270.41 101.459C270.41 101.635 270.354 101.783 270.242 101.903C270.13 102.015 269.986 102.071 269.81 102.071C269.642 102.071 269.498 102.015 269.378 101.903C269.266 101.783 269.21 101.635 269.21 101.459L269.212 98.2907C269.212 98.0107 269.172 97.7547 269.092 97.5227C269.02 97.2906 268.888 97.1066 268.696 96.9705C268.513 96.8264 268.257 96.7543 267.929 96.7541C267.617 96.7539 267.337 96.8258 267.088 96.9697C266.848 97.1055 266.66 97.2894 266.524 97.5214C266.388 97.7533 266.32 98.0093 266.32 98.2893L266.318 101.457C266.318 101.633 266.262 101.781 266.15 101.901C266.038 102.013 265.894 102.069 265.718 102.069C265.542 102.069 265.398 102.013 265.286 101.901C265.174 101.781 265.118 101.633 265.118 101.457L265.12 98.2767C265.12 97.9967 265.08 97.7406 265 97.5086C264.928 97.2766 264.8 97.0925 264.616 96.9564C264.433 96.8203 264.177 96.7522 263.849 96.752C263.537 96.7519 263.261 96.8197 263.02 96.9556C262.78 97.0915 262.592 97.2754 262.456 97.5073C262.328 97.7392 262.264 97.9952 262.264 98.2752L262.262 101.455C262.262 101.631 262.202 101.779 262.082 101.899C261.97 102.011 261.83 102.067 261.662 102.067C261.486 102.067 261.342 102.011 261.23 101.899C261.118 101.779 261.062 101.631 261.062 101.455L261.065 96.3666C261.065 96.1906 261.121 96.0466 261.233 95.9347C261.345 95.8147 261.489 95.7548 261.665 95.7549C261.833 95.755 261.973 95.8151 262.085 95.9351C262.205 96.0472 262.265 96.1912 262.265 96.3672L262.264 97.0752L262.036 97.2071C262.092 97.0311 262.185 96.8512 262.313 96.6672C262.441 96.4833 262.601 96.3154 262.793 96.1635C262.993 96.0116 263.213 95.8877 263.453 95.7918C263.693 95.6959 263.953 95.6481 264.233 95.6482ZM277.264 95.6668C277.44 95.6669 277.584 95.727 277.696 95.8471C277.808 95.9591 277.864 96.1031 277.864 96.2791L277.862 101.463C277.861 101.639 277.805 101.787 277.693 101.907C277.581 102.019 277.437 102.075 277.261 102.075C277.093 102.075 276.949 102.019 276.829 101.907C276.717 101.787 276.661 101.639 276.662 101.463L276.662 100.599L276.914 100.635C276.914 100.779 276.854 100.939 276.734 101.115C276.622 101.291 276.466 101.462 276.265 101.63C276.065 101.79 275.829 101.926 275.557 102.038C275.285 102.142 274.993 102.194 274.681 102.194C274.129 102.193 273.633 102.053 273.193 101.773C272.754 101.485 272.406 101.092 272.15 100.596C271.894 100.1 271.767 99.536 271.767 98.904C271.767 98.256 271.895 97.6881 272.152 97.2002C272.408 96.7044 272.752 96.3165 273.184 96.0368C273.624 95.757 274.113 95.6172 274.649 95.6175C274.993 95.6177 275.308 95.6738 275.596 95.786C275.892 95.8981 276.148 96.0423 276.364 96.2184C276.58 96.3945 276.744 96.5826 276.856 96.7826C276.976 96.9747 277.036 97.1587 277.036 97.3347L276.664 97.3705L276.664 96.2785C276.664 96.1105 276.72 95.9666 276.832 95.8466C276.952 95.7267 277.096 95.6668 277.264 95.6668ZM274.814 101.09C275.19 101.09 275.522 100.994 275.81 100.802C276.098 100.61 276.322 100.35 276.482 100.022C276.642 99.6865 276.723 99.3146 276.723 98.9066C276.723 98.4906 276.643 98.1185 276.483 97.7904C276.324 97.4624 276.1 97.2022 275.812 97.0101C275.524 96.818 275.192 96.7218 274.816 96.7216C274.448 96.7214 274.12 96.8172 273.832 97.0091C273.552 97.201 273.328 97.4608 273.159 97.7888C272.999 98.1167 272.919 98.4886 272.919 98.9046C272.919 99.3126 272.998 99.6847 273.158 100.021C273.326 100.349 273.55 100.609 273.83 100.801C274.118 100.993 274.446 101.089 274.814 101.09ZM287.599 100.964C287.759 100.964 287.891 101.02 287.995 101.132C288.107 101.236 288.163 101.368 288.162 101.528C288.162 101.688 288.106 101.82 287.994 101.924C287.89 102.028 287.758 102.08 287.598 102.08L283.386 102.078C283.21 102.078 283.07 102.026 282.966 101.922C282.862 101.818 282.81 101.678 282.81 101.502C282.811 101.342 282.867 101.198 282.979 101.07L285.656 98.1791C286 97.8113 286.265 97.4474 286.449 97.0875C286.641 96.7276 286.737 96.4117 286.737 96.1397C286.737 95.6997 286.606 95.3436 286.342 95.0715C286.078 94.7993 285.73 94.6631 285.298 94.6629C285.114 94.6628 284.926 94.7067 284.734 94.7946C284.55 94.8745 284.374 94.9865 284.206 95.1304C284.046 95.2663 283.906 95.4262 283.785 95.6102C283.705 95.7221 283.625 95.7941 283.545 95.826C283.465 95.858 283.389 95.874 283.317 95.8739C283.165 95.8738 283.025 95.8218 282.897 95.7177C282.777 95.6056 282.718 95.4776 282.718 95.3336C282.718 95.2216 282.754 95.1136 282.826 95.0097C282.898 94.9057 282.99 94.7977 283.102 94.6858C283.278 94.4699 283.49 94.278 283.738 94.1101C283.994 93.9343 284.262 93.7984 284.542 93.7025C284.823 93.6067 285.099 93.5588 285.371 93.559C285.899 93.5592 286.354 93.6635 286.738 93.8717C287.13 94.0799 287.43 94.372 287.638 94.7481C287.854 95.1242 287.962 95.5683 287.961 96.0803C287.961 96.5123 287.829 96.9922 287.565 97.5201C287.308 98.0399 286.948 98.5518 286.484 99.0555L284.623 101.083L284.491 100.963L287.599 100.964ZM290.222 97.2814C290.022 97.2813 289.866 97.2292 289.754 97.1252C289.65 97.0131 289.598 96.8571 289.598 96.6571L289.599 96.4291C289.599 96.2291 289.651 96.0731 289.755 95.9612C289.867 95.8492 290.023 95.7933 290.223 95.7934L290.355 95.7935C290.555 95.7936 290.707 95.8497 290.811 95.9617C290.915 96.0738 290.967 96.2298 290.967 96.4298L290.966 96.6578C290.966 96.8578 290.914 97.0138 290.81 97.1257C290.706 97.2297 290.554 97.2816 290.354 97.2815L290.222 97.2814ZM290.22 102.081C290.02 102.081 289.864 102.025 289.752 101.913C289.648 101.801 289.596 101.645 289.596 101.445L289.596 101.229C289.596 101.021 289.648 100.865 289.752 100.761C289.864 100.649 290.02 100.593 290.22 100.593L290.352 100.593C290.552 100.594 290.704 100.65 290.808 100.762C290.912 100.866 290.964 101.022 290.964 101.23L290.964 101.446C290.964 101.646 290.912 101.802 290.808 101.914C290.704 102.026 290.552 102.082 290.352 102.081L290.22 102.081ZM296.709 93.6847C296.869 93.6848 297.009 93.7449 297.129 93.8649C297.257 93.977 297.321 94.121 297.321 94.297L297.317 101.473C297.309 101.649 297.241 101.797 297.113 101.917C296.993 102.029 296.849 102.085 296.681 102.085C296.497 102.085 296.345 102.029 296.225 101.916C296.113 101.796 296.057 101.648 296.057 101.472L296.061 94.2964C296.061 94.1204 296.121 93.9764 296.241 93.8645C296.361 93.7445 296.517 93.6846 296.709 93.6847ZM302.121 93.6875C302.313 93.6876 302.465 93.7476 302.577 93.8677C302.689 93.9798 302.745 94.1238 302.745 94.2998L302.741 101.476C302.741 101.652 302.681 101.8 302.561 101.92C302.449 102.032 302.297 102.088 302.105 102.087C301.937 102.087 301.793 102.031 301.673 101.919C301.553 101.799 301.493 101.651 301.493 101.475L301.497 94.2992C301.497 94.1232 301.557 93.9792 301.677 93.8672C301.805 93.7473 301.953 93.6874 302.121 93.6875ZM296.66 97.2607L302.132 97.2635L302.119 98.4155L296.647 98.4127L296.66 97.2607ZM304.469 95.8487L307.289 95.8501C307.449 95.8502 307.581 95.9062 307.685 96.0183C307.797 96.1224 307.853 96.2544 307.853 96.4144C307.853 96.5664 307.797 96.6944 307.685 96.7983C307.581 96.9022 307.449 96.9542 307.289 96.9541L304.469 96.9527C304.309 96.9526 304.173 96.9005 304.061 96.7965C303.957 96.6844 303.905 96.5524 303.905 96.4004C303.905 96.2404 303.957 96.1084 304.061 96.0045C304.173 95.9005 304.309 95.8486 304.469 95.8487ZM305.73 94.2893C305.906 94.2894 306.05 94.3495 306.162 94.4695C306.274 94.5816 306.33 94.7256 306.33 94.9016L306.327 100.47C306.327 100.614 306.351 100.73 306.399 100.818C306.447 100.906 306.511 100.966 306.591 100.998C306.679 101.03 306.767 101.046 306.855 101.046C306.943 101.046 307.019 101.03 307.083 100.998C307.155 100.966 307.239 100.95 307.335 100.95C307.431 100.95 307.519 100.994 307.599 101.082C307.679 101.17 307.719 101.29 307.718 101.442C307.718 101.634 307.614 101.79 307.406 101.91C307.198 102.03 306.974 102.09 306.734 102.09C306.598 102.09 306.438 102.078 306.254 102.054C306.07 102.029 305.89 101.969 305.714 101.873C305.546 101.777 305.406 101.625 305.295 101.417C305.183 101.201 305.127 100.901 305.127 100.517L305.13 94.901C305.13 94.725 305.186 94.581 305.298 94.4691C305.418 94.3491 305.562 94.2892 305.73 94.2893ZM309.098 95.851L311.918 95.8525C312.078 95.8525 312.21 95.9086 312.314 96.0207C312.426 96.1247 312.482 96.2567 312.482 96.4167C312.482 96.5687 312.426 96.6967 312.314 96.8007C312.21 96.9046 312.078 96.9565 311.918 96.9565L309.098 96.955C308.938 96.9549 308.802 96.9029 308.69 96.7988C308.586 96.6868 308.534 96.5547 308.534 96.4027C308.534 96.2427 308.586 96.1108 308.69 96.0068C308.802 95.9029 308.938 95.8509 309.098 95.851ZM310.359 94.2917C310.535 94.2917 310.679 94.3518 310.791 94.4719C310.903 94.5839 310.959 94.728 310.959 94.904L310.956 100.472C310.956 100.616 310.98 100.732 311.028 100.82C311.076 100.908 311.14 100.968 311.22 101C311.308 101.032 311.396 101.048 311.484 101.048C311.572 101.048 311.648 101.032 311.712 101C311.784 100.968 311.868 100.952 311.964 100.952C312.06 100.953 312.148 100.997 312.228 101.085C312.308 101.173 312.347 101.293 312.347 101.445C312.347 101.637 312.243 101.793 312.035 101.913C311.827 102.032 311.603 102.092 311.363 102.092C311.227 102.092 311.067 102.08 310.883 102.056C310.699 102.032 310.519 101.972 310.343 101.876C310.175 101.78 310.035 101.627 309.923 101.419C309.812 101.203 309.756 100.903 309.756 100.519L309.759 94.9034C309.759 94.7274 309.815 94.5834 309.927 94.4714C310.047 94.3515 310.191 94.2916 310.359 94.2917ZM316.991 95.675C317.551 95.6753 318.047 95.8156 318.479 96.0958C318.919 96.376 319.267 96.7602 319.522 97.2483C319.778 97.7284 319.906 98.2885 319.906 98.9285C319.905 99.5685 319.777 100.136 319.521 100.632C319.264 101.12 318.92 101.504 318.488 101.784C318.056 102.064 317.568 102.203 317.024 102.203C316.72 102.203 316.432 102.155 316.16 102.059C315.888 101.962 315.648 101.838 315.44 101.686C315.232 101.526 315.06 101.358 314.924 101.182C314.797 101.006 314.717 100.842 314.685 100.69L315.009 100.534L315.007 103.882C315.007 104.058 314.947 104.202 314.827 104.314C314.715 104.434 314.575 104.494 314.407 104.494C314.231 104.494 314.087 104.434 313.975 104.313C313.863 104.201 313.807 104.057 313.807 103.881L313.811 96.3694C313.811 96.2014 313.867 96.0574 313.979 95.9375C314.091 95.8176 314.235 95.7576 314.411 95.7577C314.579 95.7578 314.719 95.8179 314.831 95.9379C314.951 96.058 315.011 96.202 315.011 96.37L315.01 97.198L314.819 97.0899C314.843 96.9379 314.919 96.782 315.047 96.622C315.175 96.4541 315.335 96.2982 315.527 96.1543C315.727 96.0104 315.951 95.8945 316.199 95.8066C316.455 95.7188 316.719 95.6749 316.991 95.675ZM316.859 96.779C316.475 96.7788 316.139 96.8746 315.851 97.0664C315.57 97.2503 315.35 97.5022 315.19 97.8221C315.03 98.142 314.95 98.51 314.95 98.926C314.949 99.334 315.029 99.706 315.189 100.042C315.349 100.37 315.569 100.63 315.849 100.822C316.137 101.007 316.472 101.099 316.856 101.099C317.232 101.099 317.561 101.007 317.841 100.823C318.121 100.632 318.341 100.372 318.501 100.044C318.669 99.7079 318.753 99.3359 318.754 98.9279C318.754 98.5199 318.67 98.1559 318.502 97.8358C318.342 97.5077 318.122 97.2516 317.843 97.0675C317.563 96.8753 317.235 96.7792 316.859 96.779ZM320.89 101.113C320.818 101.001 320.786 100.873 320.794 100.729C320.802 100.577 320.886 100.449 321.046 100.345C321.158 100.273 321.274 100.245 321.394 100.261C321.522 100.269 321.642 100.329 321.754 100.441C321.978 100.69 322.226 100.886 322.498 101.03C322.778 101.174 323.114 101.246 323.506 101.246C323.666 101.238 323.83 101.215 323.998 101.175C324.166 101.127 324.31 101.047 324.43 100.935C324.55 100.815 324.61 100.643 324.61 100.419C324.61 100.219 324.546 100.059 324.418 99.9388C324.29 99.8187 324.122 99.7227 323.914 99.6505C323.706 99.5704 323.482 99.4983 323.242 99.4342C322.986 99.3621 322.727 99.2819 322.463 99.1938C322.207 99.1057 321.975 98.9936 321.767 98.8575C321.559 98.7134 321.387 98.5293 321.251 98.3052C321.123 98.0811 321.059 97.8051 321.059 97.4771C321.06 97.1011 321.164 96.7771 321.372 96.5053C321.588 96.2334 321.864 96.0215 322.2 95.8697C322.544 95.7179 322.916 95.642 323.316 95.6422C323.548 95.6424 323.792 95.6745 324.048 95.7386C324.304 95.7947 324.552 95.8869 324.792 96.015C325.032 96.1431 325.24 96.3112 325.416 96.5193C325.496 96.6234 325.54 96.7474 325.548 96.8914C325.564 97.0354 325.5 97.1634 325.356 97.2753C325.26 97.3552 325.143 97.3912 325.007 97.3831C324.872 97.375 324.76 97.331 324.672 97.2509C324.52 97.0589 324.324 96.9108 324.084 96.8066C323.844 96.6945 323.572 96.6384 323.268 96.6382C323.116 96.6381 322.956 96.6621 322.788 96.71C322.628 96.7499 322.492 96.8258 322.38 96.9378C322.268 97.0497 322.212 97.2137 322.211 97.4297C322.211 97.6297 322.275 97.7897 322.403 97.9098C322.539 98.0298 322.715 98.1299 322.931 98.21C323.147 98.2902 323.383 98.3623 323.639 98.4264C323.887 98.4905 324.131 98.5667 324.371 98.6548C324.619 98.7429 324.839 98.859 325.031 99.0031C325.231 99.1392 325.391 99.3193 325.51 99.5434C325.638 99.7594 325.702 100.035 325.702 100.371C325.702 100.763 325.586 101.099 325.353 101.379C325.129 101.651 324.841 101.859 324.489 102.003C324.145 102.147 323.781 102.218 323.397 102.218C322.941 102.218 322.485 102.138 322.029 101.978C321.581 101.809 321.201 101.521 320.89 101.113ZM327.558 97.3004C327.358 97.3003 327.202 97.2482 327.09 97.1442C326.986 97.0321 326.934 96.8761 326.934 96.6761L326.934 96.4481C326.935 96.2481 326.987 96.0921 327.091 95.9802C327.203 95.8682 327.359 95.8123 327.559 95.8124L327.691 95.8125C327.891 95.8126 328.043 95.8686 328.147 95.9807C328.251 96.0928 328.303 96.2488 328.302 96.4488L328.302 96.6768C328.302 96.8768 328.25 97.0328 328.146 97.1447C328.042 97.2486 327.89 97.3006 327.69 97.3005L327.558 97.3004ZM327.556 102.1C327.356 102.1 327.2 102.044 327.088 101.932C326.984 101.82 326.932 101.664 326.932 101.464L326.932 101.248C326.932 101.04 326.984 100.884 327.088 100.78C327.2 100.668 327.356 100.612 327.556 100.612L327.688 100.612C327.888 100.613 328.04 100.669 328.144 100.781C328.248 100.885 328.3 101.041 328.3 101.249L328.3 101.465C328.3 101.665 328.248 101.821 328.144 101.933C328.04 102.045 327.888 102.101 327.688 102.1L327.556 102.1ZM329.896 103.686C329.776 103.686 329.656 103.637 329.537 103.541C329.417 103.445 329.357 103.325 329.357 103.181C329.357 103.093 329.381 103.009 329.429 102.929L334.414 92.8399C334.47 92.7279 334.538 92.6439 334.618 92.588C334.706 92.532 334.802 92.5041 334.906 92.5041C335.018 92.5042 335.13 92.5482 335.242 92.6363C335.362 92.7244 335.422 92.8484 335.422 93.0084C335.422 93.0964 335.402 93.1844 335.362 93.2724L330.377 103.362C330.321 103.466 330.253 103.546 330.172 103.602C330.092 103.658 330 103.686 329.896 103.686ZM335.428 103.688C335.308 103.688 335.188 103.64 335.068 103.544C334.948 103.448 334.888 103.328 334.888 103.184C334.888 103.096 334.912 103.012 334.96 102.932L339.945 92.8427C340.001 92.7307 340.069 92.6468 340.149 92.5908C340.237 92.5348 340.333 92.5069 340.437 92.5069C340.549 92.507 340.661 92.5511 340.773 92.6391C340.893 92.7272 340.953 92.8512 340.953 93.0112C340.953 93.0992 340.933 93.1872 340.893 93.2752L335.908 103.365C335.852 103.469 335.784 103.549 335.704 103.605C335.624 103.66 335.532 103.688 335.428 103.688ZM342.846 93.6962C342.942 93.6962 343.042 93.7203 343.146 93.7683C343.25 93.8164 343.329 93.8844 343.385 93.9724L346.431 98.618L345.915 98.5937L349.025 93.9753C349.154 93.7914 349.318 93.6995 349.518 93.6996C349.678 93.6996 349.818 93.7597 349.937 93.8798C350.065 93.9918 350.129 94.1359 350.129 94.3119L350.126 101.5C350.126 101.676 350.069 101.824 349.957 101.944C349.845 102.056 349.697 102.112 349.513 102.112C349.321 102.111 349.165 102.055 349.045 101.943C348.933 101.823 348.878 101.675 348.878 101.499L348.881 95.4152L349.265 95.4994L346.623 99.5181C346.567 99.5901 346.495 99.654 346.407 99.71C346.319 99.7579 346.226 99.7779 346.131 99.7698C346.043 99.7778 345.951 99.7577 345.855 99.7097C345.767 99.6537 345.695 99.5896 345.639 99.5176L343.097 95.5563L343.385 95.0764L343.382 101.496C343.382 101.672 343.325 101.82 343.213 101.94C343.109 102.052 342.969 102.108 342.793 102.108C342.625 102.108 342.485 102.052 342.373 101.94C342.269 101.82 342.218 101.672 342.218 101.496L342.221 94.3079C342.221 94.1399 342.281 93.9959 342.401 93.8759C342.53 93.756 342.678 93.6961 342.846 93.6962ZM353.081 101.501C353.081 101.677 353.025 101.825 352.913 101.945C352.801 102.057 352.657 102.113 352.481 102.113C352.313 102.113 352.169 102.057 352.049 101.945C351.937 101.825 351.881 101.677 351.881 101.501L351.883 96.3648C351.884 96.1888 351.94 96.0448 352.052 95.9328C352.172 95.8129 352.316 95.753 352.484 95.7531C352.66 95.7532 352.804 95.8132 352.916 95.9333C353.028 96.0453 353.084 96.1894 353.083 96.3654L353.081 101.501ZM352.472 94.9611C352.24 94.9609 352.072 94.9209 351.968 94.8408C351.864 94.7528 351.812 94.6087 351.812 94.4087L351.813 94.2167C351.813 94.0167 351.869 93.8768 351.981 93.7968C352.093 93.7169 352.261 93.677 352.485 93.6771C352.725 93.6772 352.897 93.7213 353.001 93.8093C353.105 93.8894 353.157 94.0254 353.157 94.2174L353.156 94.4094C353.156 94.6174 353.1 94.7614 352.988 94.8413C352.884 94.9213 352.712 94.9612 352.472 94.9611ZM355.991 101.503C355.991 101.679 355.931 101.827 355.811 101.947C355.699 102.059 355.559 102.115 355.391 102.115C355.223 102.114 355.079 102.058 354.959 101.946C354.847 101.826 354.791 101.678 354.791 101.502L354.795 93.8462C354.795 93.6702 354.855 93.5263 354.975 93.4143C355.095 93.2944 355.239 93.2345 355.407 93.2346C355.583 93.2346 355.723 93.2947 355.827 93.4148C355.939 93.5268 355.995 93.6709 355.995 93.8469L355.991 101.503ZM360.599 102.237C359.935 102.237 359.36 102.101 358.872 101.828C358.384 101.548 358.004 101.168 357.732 100.688C357.469 100.2 357.337 99.6435 357.337 99.0195C357.337 98.3155 357.478 97.7156 357.758 97.2197C358.046 96.7159 358.418 96.3321 358.875 96.0683C359.331 95.7965 359.815 95.6608 360.327 95.6611C360.719 95.6613 361.091 95.7414 361.443 95.9016C361.795 96.0538 362.107 96.27 362.378 96.5501C362.658 96.8222 362.878 97.1464 363.038 97.5224C363.198 97.8905 363.281 98.2946 363.289 98.7346C363.281 98.8946 363.217 99.0265 363.097 99.1305C362.977 99.2344 362.837 99.2863 362.677 99.2862L358.009 99.2839L357.721 98.2637L362.233 98.266L362.005 98.4819L362.006 98.1819C361.99 97.9019 361.898 97.6579 361.73 97.4498C361.562 97.2337 361.354 97.0696 361.106 96.9574C360.858 96.8373 360.598 96.7772 360.326 96.7771C360.086 96.7769 359.854 96.8168 359.63 96.8967C359.414 96.9686 359.218 97.0885 359.042 97.2564C358.874 97.4243 358.738 97.6482 358.634 97.9282C358.538 98.2001 358.489 98.5401 358.489 98.9481C358.489 99.3881 358.581 99.7722 358.765 100.1C358.948 100.428 359.196 100.684 359.508 100.869C359.82 101.045 360.164 101.133 360.54 101.133C360.836 101.133 361.08 101.105 361.272 101.05C361.464 100.986 361.624 100.91 361.752 100.822C361.88 100.734 361.992 100.65 362.088 100.57C362.208 100.498 362.328 100.462 362.448 100.462C362.592 100.462 362.712 100.514 362.808 100.618C362.904 100.714 362.952 100.83 362.952 100.966C362.952 101.142 362.864 101.302 362.688 101.446C362.472 101.654 362.172 101.838 361.788 101.998C361.412 102.158 361.015 102.237 360.599 102.237ZM367.899 95.6649C368.467 95.6652 368.907 95.7854 369.219 96.0256C369.531 96.2577 369.747 96.5738 369.867 96.9739C369.994 97.366 370.058 97.806 370.058 98.294L370.056 101.51C370.056 101.686 369.996 101.834 369.876 101.954C369.764 102.066 369.624 102.122 369.456 102.122C369.28 102.122 369.136 102.066 369.024 101.953C368.912 101.833 368.856 101.685 368.856 101.509L368.858 98.3054C368.858 98.0174 368.818 97.7614 368.738 97.5373C368.658 97.3053 368.518 97.1212 368.319 96.9851C368.127 96.841 367.855 96.7689 367.503 96.7687C367.175 96.7685 366.887 96.8404 366.639 96.9843C366.39 97.1201 366.194 97.304 366.05 97.536C365.914 97.7599 365.846 98.0159 365.846 98.3039L365.844 101.508C365.844 101.684 365.784 101.832 365.664 101.952C365.552 102.064 365.412 102.12 365.244 102.12C365.068 102.119 364.924 102.063 364.812 101.951C364.7 101.831 364.644 101.683 364.644 101.507L364.647 96.4192C364.647 96.2432 364.703 96.0993 364.815 95.9873C364.927 95.8674 365.071 95.8075 365.247 95.8076C365.415 95.8076 365.555 95.8677 365.667 95.9878C365.787 96.0998 365.847 96.2439 365.847 96.4199L365.846 97.0919L365.63 97.2117C365.686 97.0358 365.783 96.8598 365.919 96.6839C366.063 96.5 366.235 96.3321 366.435 96.1802C366.635 96.0203 366.859 95.8964 367.107 95.8085C367.355 95.7126 367.619 95.6648 367.899 95.6649ZM374.662 102.244C373.998 102.244 373.422 102.108 372.934 101.835C372.446 101.555 372.067 101.175 371.795 100.695C371.531 100.207 371.399 99.6507 371.4 99.0267C371.4 98.3227 371.54 97.7228 371.821 97.2269C372.109 96.723 372.481 96.3392 372.937 96.0755C373.393 95.8037 373.877 95.6679 374.389 95.6682C374.781 95.6684 375.153 95.7486 375.505 95.9088C375.857 96.0609 376.169 96.2771 376.441 96.5572C376.721 96.8294 376.941 97.1535 377.1 97.5296C377.26 97.8977 377.344 98.3017 377.352 98.7417C377.344 98.9017 377.28 99.0337 377.16 99.1376C377.039 99.2415 376.899 99.2935 376.739 99.2934L372.071 99.291L371.784 98.2709L376.296 98.2732L376.068 98.4891L376.068 98.1891C376.052 97.909 375.96 97.665 375.792 97.4569C375.625 97.2408 375.417 97.0767 375.169 96.9646C374.921 96.8445 374.661 96.7843 374.389 96.7842C374.149 96.7841 373.917 96.824 373.693 96.9038C373.477 96.9757 373.281 97.0956 373.104 97.2635C372.936 97.4315 372.8 97.6554 372.696 97.9353C372.6 98.2073 372.552 98.5473 372.552 98.9553C372.551 99.3953 372.643 99.7793 372.827 100.107C373.011 100.435 373.259 100.692 373.571 100.876C373.883 101.052 374.227 101.14 374.603 101.14C374.899 101.14 375.143 101.113 375.335 101.057C375.527 100.993 375.687 100.917 375.815 100.829C375.943 100.741 376.055 100.657 376.151 100.577C376.271 100.505 376.391 100.469 376.511 100.469C376.655 100.469 376.775 100.521 376.871 100.625C376.967 100.722 377.015 100.838 377.015 100.974C377.015 101.15 376.926 101.309 376.75 101.453C376.534 101.661 376.234 101.845 375.85 102.005C375.474 102.165 375.078 102.245 374.662 102.244ZM381.878 95.708C382.47 95.7083 382.926 95.8565 383.245 96.1527C383.565 96.4409 383.777 96.833 383.881 97.329L383.689 97.2689L383.773 97.077C383.877 96.869 384.033 96.6611 384.241 96.4532C384.457 96.2373 384.713 96.0614 385.01 95.9256C385.306 95.7817 385.622 95.7099 385.958 95.7101C386.51 95.7104 386.938 95.8306 387.241 96.0707C387.545 96.3029 387.757 96.619 387.877 97.0191C387.997 97.4111 388.057 97.8511 388.056 98.3391L388.055 101.519C388.055 101.695 387.999 101.843 387.886 101.963C387.774 102.075 387.63 102.131 387.454 102.131C387.286 102.131 387.142 102.075 387.022 101.963C386.911 101.843 386.855 101.695 386.855 101.519L386.856 98.3505C386.856 98.0705 386.817 97.8145 386.737 97.5825C386.665 97.3504 386.533 97.1664 386.341 97.0303C386.157 96.8862 385.901 96.8141 385.573 96.8139C385.261 96.8137 384.981 96.8856 384.733 97.0295C384.493 97.1653 384.305 97.3492 384.169 97.5812C384.033 97.8131 383.964 98.0691 383.964 98.3491L383.963 101.517C383.963 101.693 383.907 101.841 383.794 101.961C383.682 102.073 383.538 102.129 383.362 102.129C383.186 102.129 383.042 102.073 382.93 101.961C382.819 101.84 382.763 101.692 382.763 101.516L382.764 98.3365C382.764 98.0565 382.725 97.8004 382.645 97.5684C382.573 97.3364 382.445 97.1523 382.261 97.0162C382.077 96.8801 381.821 96.812 381.493 96.8118C381.181 96.8117 380.905 96.8795 380.665 97.0154C380.425 97.1513 380.237 97.3352 380.101 97.5671C379.973 97.799 379.908 98.055 379.908 98.335L379.907 101.515C379.907 101.691 379.847 101.839 379.726 101.959C379.614 102.071 379.474 102.127 379.306 102.127C379.13 102.127 378.986 102.071 378.874 101.958C378.763 101.838 378.707 101.69 378.707 101.514L378.709 96.4264C378.709 96.2504 378.765 96.1064 378.878 95.9945C378.99 95.8745 379.134 95.8146 379.31 95.8147C379.478 95.8148 379.618 95.8749 379.73 95.9949C379.849 96.107 379.909 96.251 379.909 96.427L379.909 97.135L379.681 97.2669C379.737 97.0909 379.829 96.911 379.957 96.727C380.085 96.5431 380.245 96.3752 380.437 96.2233C380.637 96.0714 380.858 95.9475 381.098 95.8516C381.338 95.7557 381.598 95.7079 381.878 95.708ZM390.862 101.521C390.862 101.697 390.806 101.845 390.694 101.964C390.582 102.076 390.438 102.132 390.262 102.132C390.094 102.132 389.95 102.076 389.83 101.964C389.718 101.844 389.662 101.696 389.662 101.52L389.665 96.384C389.665 96.208 389.721 96.064 389.833 95.952C389.953 95.8321 390.097 95.7722 390.265 95.7723C390.441 95.7724 390.585 95.8324 390.697 95.9525C390.809 96.0645 390.865 96.2086 390.865 96.3846L390.862 101.521ZM390.253 94.9803C390.021 94.9801 389.853 94.9401 389.749 94.86C389.645 94.772 389.594 94.6279 389.594 94.4279L389.594 94.2359C389.594 94.0359 389.65 93.896 389.762 93.816C389.874 93.7361 390.042 93.6962 390.266 93.6963C390.506 93.6964 390.678 93.7405 390.782 93.8285C390.886 93.9086 390.938 94.0446 390.938 94.2366L390.938 94.4286C390.938 94.6366 390.881 94.7806 390.769 94.8605C390.665 94.9405 390.493 94.9804 390.253 94.9803ZM395.731 95.679C396.299 95.6793 396.739 95.7996 397.051 96.0397C397.363 96.2719 397.579 96.588 397.699 96.988C397.826 97.3801 397.89 97.8201 397.89 98.3081L397.888 101.524C397.888 101.7 397.828 101.848 397.708 101.968C397.596 102.08 397.456 102.136 397.288 102.136C397.112 102.136 396.968 102.08 396.856 101.968C396.744 101.848 396.688 101.7 396.688 101.524L396.69 98.3195C396.69 98.0315 396.65 97.7755 396.57 97.5515C396.49 97.3194 396.35 97.1354 396.151 96.9993C395.959 96.8552 395.687 96.783 395.335 96.7828C395.007 96.7827 394.719 96.8545 394.471 96.9984C394.222 97.1343 394.026 97.3182 393.882 97.5501C393.746 97.774 393.678 98.03 393.678 98.318L393.676 101.522C393.676 101.698 393.616 101.846 393.496 101.966C393.384 102.078 393.244 102.134 393.076 102.134C392.9 102.134 392.756 102.078 392.644 101.965C392.532 101.845 392.476 101.697 392.476 101.521L392.479 96.4334C392.479 96.2574 392.535 96.1134 392.647 96.0015C392.759 95.8815 392.903 95.8216 393.079 95.8217C393.247 95.8218 393.387 95.8819 393.499 96.0019C393.619 96.114 393.679 96.258 393.679 96.434L393.678 97.106L393.462 97.2259C393.519 97.0499 393.615 96.874 393.751 96.698C393.895 96.5141 394.067 96.3462 394.267 96.1943C394.467 96.0344 394.691 95.9105 394.939 95.8226C395.187 95.7268 395.451 95.6789 395.731 95.679ZM400.01 102.125C399.81 102.125 399.654 102.069 399.542 101.957C399.438 101.845 399.386 101.689 399.386 101.489L399.386 101.273C399.387 101.073 399.439 100.917 399.543 100.805C399.655 100.693 399.811 100.637 400.011 100.637L400.143 100.637C400.343 100.637 400.495 100.693 400.599 100.806C400.703 100.918 400.755 101.074 400.754 101.274L400.754 101.49C400.754 101.69 400.702 101.846 400.598 101.958C400.494 102.069 400.342 102.125 400.142 102.125L400.01 102.125ZM405.937 93.7402C406.521 93.7405 407.037 93.8528 407.485 94.077C407.933 94.2932 408.305 94.5974 408.601 94.9896C408.905 95.3737 409.132 95.8219 409.284 96.3339C409.436 96.838 409.512 97.3741 409.511 97.9421C409.511 98.7181 409.374 99.426 409.102 100.066C408.83 100.698 408.43 101.202 407.901 101.577C407.373 101.953 406.717 102.141 405.933 102.14L403.005 102.139C402.837 102.139 402.693 102.083 402.573 101.971C402.453 101.85 402.393 101.702 402.393 101.526L402.397 94.3504C402.397 94.1744 402.457 94.0305 402.577 93.9185C402.697 93.7986 402.841 93.7387 403.009 93.7387L405.937 93.7402ZM405.814 100.988C406.382 100.988 406.842 100.849 407.194 100.569C407.546 100.289 407.802 99.9212 407.962 99.4653C408.131 99.0013 408.215 98.4934 408.215 97.9414C408.215 97.5334 408.168 97.1494 408.072 96.7893C407.984 96.4213 407.84 96.0972 407.64 95.8171C407.448 95.529 407.201 95.3049 406.897 95.1447C406.601 94.9766 406.241 94.8924 405.817 94.8922L403.549 94.891L403.657 94.7831L403.654 101.107L403.582 100.987L405.814 100.988ZM411.547 102.143C411.379 102.143 411.235 102.087 411.115 101.975C411.003 101.855 410.947 101.707 410.947 101.531L410.951 93.8748C410.951 93.6988 411.007 93.5548 411.119 93.4429C411.239 93.3229 411.383 93.263 411.551 93.2631C411.727 93.2632 411.871 93.3233 411.983 93.4433C412.095 93.5554 412.151 93.6994 412.151 93.8754L412.147 101.531C412.147 101.707 412.091 101.855 411.979 101.975C411.867 102.087 411.723 102.143 411.547 102.143ZM415.462 95.8091C415.614 95.8092 415.746 95.8732 415.858 96.0013C415.97 96.1293 416.026 96.2574 416.026 96.3854C416.026 96.5454 415.95 96.6933 415.798 96.8292L412.04 100.187L411.993 98.8073L415.018 96.0008C415.146 95.8729 415.294 95.809 415.462 95.8091ZM415.603 102.133C415.435 102.133 415.291 102.065 415.171 101.929L412.772 99.3957L413.685 98.5562L416.023 101.089C416.151 101.225 416.215 101.377 416.215 101.545C416.215 101.721 416.143 101.865 415.999 101.977C415.863 102.081 415.731 102.133 415.603 102.133ZM417.518 103.73C417.398 103.73 417.278 103.682 417.158 103.586C417.038 103.49 416.978 103.37 416.978 103.226C416.978 103.138 417.002 103.054 417.05 102.974L422.035 92.8844C422.091 92.7724 422.159 92.6885 422.239 92.6325C422.327 92.5766 422.423 92.5486 422.527 92.5487C422.639 92.5487 422.751 92.5928 422.863 92.6808C422.983 92.7689 423.043 92.8929 423.043 93.0529C423.043 93.1409 423.023 93.2289 422.983 93.3169L417.998 103.406C417.942 103.51 417.874 103.59 417.794 103.646C417.714 103.702 417.622 103.73 417.518 103.73ZM433.851 93.7184C434.011 93.7185 434.159 93.7786 434.295 93.8986C434.431 94.0107 434.499 94.1668 434.499 94.3668C434.499 94.4228 434.487 94.4907 434.463 94.5707L431.999 101.769C431.959 101.889 431.887 101.981 431.783 102.045C431.679 102.109 431.571 102.145 431.459 102.153C431.347 102.153 431.235 102.121 431.123 102.057C431.011 101.993 430.927 101.897 430.871 101.769L428.978 97.3279L429.086 97.376L427.211 101.767C427.147 101.895 427.059 101.991 426.947 102.055C426.843 102.119 426.731 102.151 426.611 102.151C426.507 102.143 426.403 102.107 426.299 102.043C426.195 101.979 426.123 101.886 426.083 101.766L423.627 94.5652C423.603 94.4852 423.591 94.4172 423.591 94.3612C423.591 94.1612 423.663 94.0052 423.807 93.8933C423.951 93.7734 424.099 93.7135 424.251 93.7135C424.379 93.7136 424.495 93.7497 424.599 93.8217C424.711 93.8858 424.787 93.9818 424.827 94.1098L426.9 100.303L426.684 100.303L428.51 95.8397C428.566 95.7197 428.642 95.6238 428.738 95.5518C428.843 95.4799 428.959 95.4479 429.087 95.456C429.215 95.4481 429.327 95.4801 429.422 95.5522C429.526 95.6242 429.602 95.7203 429.65 95.8403L431.376 100.173L431.196 100.269L433.263 94.1141C433.303 93.9861 433.379 93.8902 433.491 93.8262C433.603 93.7543 433.723 93.7184 433.851 93.7184ZM438.353 102.277C437.689 102.276 437.113 102.14 436.626 101.868C436.138 101.588 435.758 101.207 435.486 100.727C435.222 100.239 435.091 99.6831 435.091 99.0591C435.091 98.3551 435.232 97.7551 435.512 97.2593C435.8 96.7554 436.172 96.3716 436.628 96.1078C437.085 95.8361 437.569 95.7003 438.081 95.7006C438.473 95.7008 438.845 95.781 439.197 95.9411C439.548 96.0933 439.86 96.3095 440.132 96.5896C440.412 96.8618 440.632 97.1859 440.792 97.5619C440.952 97.93 441.035 98.3341 441.043 98.7741C441.035 98.9341 440.971 99.066 440.851 99.17C440.731 99.2739 440.591 99.3258 440.431 99.3258L435.763 99.3234L435.475 98.3032L439.987 98.3055L439.759 98.5214L439.759 98.2214C439.744 97.9414 439.652 97.6974 439.484 97.4893C439.316 97.2732 439.108 97.1091 438.86 96.997C438.612 96.8768 438.352 96.8167 438.08 96.8166C437.84 96.8164 437.608 96.8563 437.384 96.9362C437.168 97.0081 436.972 97.128 436.796 97.2959C436.628 97.4638 436.492 97.6878 436.388 97.9677C436.291 98.2397 436.243 98.5796 436.243 98.9876C436.243 99.4276 436.335 99.8117 436.518 100.14C436.702 100.468 436.95 100.724 437.262 100.908C437.574 101.084 437.918 101.172 438.294 101.173C438.59 101.173 438.834 101.145 439.026 101.089C439.218 101.025 439.378 100.949 439.506 100.861C439.634 100.773 439.746 100.689 439.842 100.609C439.962 100.538 440.082 100.502 440.202 100.502C440.346 100.502 440.466 100.554 440.562 100.658C440.658 100.754 440.706 100.87 440.706 101.006C440.706 101.182 440.618 101.342 440.442 101.486C440.226 101.694 439.926 101.878 439.541 102.037C439.165 102.197 438.769 102.277 438.353 102.277ZM445.581 95.7044C446.141 95.7047 446.637 95.8449 447.069 96.1251C447.509 96.4054 447.857 96.7935 448.112 97.2897C448.368 97.7778 448.496 98.3419 448.495 98.9819C448.495 99.6219 448.367 100.19 448.111 100.686C447.854 101.182 447.51 101.573 447.078 101.861C446.646 102.141 446.158 102.281 445.614 102.28C445.31 102.28 445.022 102.232 444.75 102.136C444.478 102.032 444.238 101.904 444.03 101.752C443.822 101.591 443.65 101.423 443.514 101.247C443.386 101.071 443.306 100.907 443.275 100.755L443.599 100.599L443.598 101.643C443.598 101.811 443.538 101.955 443.418 102.075C443.306 102.187 443.166 102.243 442.998 102.243C442.822 102.243 442.678 102.187 442.566 102.075C442.454 101.963 442.398 101.819 442.398 101.643L442.402 93.8908C442.402 93.7148 442.458 93.5708 442.57 93.4589C442.682 93.3389 442.826 93.279 443.002 93.2791C443.17 93.2792 443.31 93.3392 443.422 93.4593C443.542 93.5713 443.602 93.7154 443.602 93.8914L443.6 97.2634L443.408 97.1553C443.432 97.0033 443.508 96.8473 443.637 96.6874C443.765 96.5195 443.925 96.3595 444.117 96.2076C444.317 96.0557 444.541 95.9359 444.789 95.848C445.045 95.7521 445.309 95.7042 445.581 95.7044ZM445.449 96.8083C445.065 96.8081 444.728 96.9039 444.44 97.0958C444.16 97.2877 443.94 97.5475 443.78 97.8755C443.62 98.1954 443.54 98.5633 443.539 98.9793C443.539 99.3953 443.619 99.7714 443.779 100.107C443.939 100.436 444.159 100.696 444.438 100.888C444.726 101.08 445.062 101.176 445.446 101.176C445.822 101.177 446.15 101.081 446.43 100.889C446.711 100.697 446.931 100.433 447.091 100.097C447.259 99.7612 447.343 99.3893 447.343 98.9813C447.344 98.5653 447.26 98.1972 447.092 97.8772C446.932 97.5491 446.712 97.289 446.432 97.0968C446.152 96.9047 445.825 96.8085 445.449 96.8083ZM449.479 101.178C449.407 101.066 449.376 100.938 449.384 100.794C449.392 100.642 449.476 100.514 449.636 100.41C449.748 100.338 449.864 100.311 449.984 100.327C450.112 100.335 450.232 100.395 450.344 100.507C450.568 100.755 450.816 100.951 451.087 101.095C451.367 101.239 451.703 101.311 452.095 101.312C452.255 101.304 452.419 101.28 452.587 101.24C452.755 101.192 452.899 101.112 453.02 101C453.14 100.88 453.2 100.708 453.2 100.484C453.2 100.284 453.136 100.124 453.008 100.004C452.88 99.8841 452.712 99.788 452.504 99.7159C452.296 99.6358 452.072 99.5637 451.832 99.4996C451.576 99.4274 451.316 99.3473 451.052 99.2592C450.796 99.171 450.564 99.0589 450.357 98.9228C450.149 98.7787 449.977 98.5946 449.841 98.3705C449.713 98.1465 449.649 97.8704 449.649 97.5424C449.649 97.1665 449.754 96.8425 449.962 96.5706C450.178 96.2987 450.454 96.0869 450.79 95.935C451.134 95.7832 451.506 95.7074 451.906 95.7076C452.138 95.7077 452.382 95.7398 452.638 95.804C452.894 95.8601 453.142 95.9522 453.382 96.0803C453.622 96.2085 453.83 96.3766 454.006 96.5847C454.086 96.6887 454.13 96.8127 454.138 96.9567C454.153 97.1007 454.089 97.2287 453.945 97.3406C453.849 97.4206 453.733 97.4565 453.597 97.4485C453.461 97.4404 453.349 97.3963 453.261 97.3163C453.109 97.1242 452.914 96.9761 452.674 96.872C452.434 96.7599 452.162 96.7037 451.858 96.7036C451.706 96.7035 451.546 96.7274 451.378 96.7753C451.218 96.8152 451.082 96.8912 450.97 97.0031C450.857 97.1151 450.801 97.279 450.801 97.495C450.801 97.695 450.865 97.8551 450.993 97.9751C451.129 98.0952 451.305 98.1953 451.521 98.2754C451.737 98.3555 451.973 98.4276 452.229 98.4918C452.477 98.5559 452.721 98.632 452.961 98.7201C453.209 98.8083 453.429 98.9244 453.62 99.0685C453.82 99.2046 453.98 99.3847 454.1 99.6087C454.228 99.8248 454.292 100.101 454.292 100.437C454.292 100.829 454.175 101.165 453.943 101.445C453.719 101.717 453.431 101.924 453.079 102.068C452.735 102.212 452.371 102.284 451.987 102.284C451.531 102.283 451.075 102.203 450.619 102.043C450.171 101.875 449.791 101.587 449.479 101.178ZM456.71 101.554C456.71 101.73 456.654 101.878 456.541 101.998C456.429 102.11 456.285 102.166 456.109 102.166C455.941 102.166 455.797 102.11 455.677 101.998C455.566 101.877 455.51 101.729 455.51 101.553L455.512 96.4174C455.512 96.2414 455.568 96.0975 455.681 95.9855C455.801 95.8656 455.945 95.8056 456.113 95.8057C456.289 95.8058 456.433 95.8659 456.545 95.986C456.656 96.098 456.712 96.242 456.712 96.418L456.71 101.554ZM456.101 95.0137C455.869 95.0136 455.701 94.9735 455.597 94.8935C455.493 94.8054 455.441 94.6614 455.441 94.4614L455.441 94.2694C455.441 94.0694 455.498 93.9294 455.61 93.8495C455.722 93.7695 455.89 93.7296 456.114 93.7297C456.354 93.7299 456.526 93.7739 456.63 93.862C456.734 93.9421 456.785 94.0781 456.785 94.2701L456.785 94.4621C456.785 94.6701 456.729 94.814 456.617 94.894C456.513 94.9739 456.341 95.0139 456.101 95.0137ZM458.243 95.9268L461.063 95.9283C461.223 95.9283 461.355 95.9844 461.459 96.0965C461.571 96.2005 461.627 96.3325 461.626 96.4925C461.626 96.6445 461.57 96.7725 461.458 96.8765C461.354 96.9804 461.222 97.0323 461.062 97.0323L458.242 97.0308C458.082 97.0307 457.946 96.9787 457.834 96.8746C457.73 96.7626 457.678 96.6305 457.678 96.4785C457.679 96.3185 457.731 96.1866 457.835 96.0826C457.947 95.9787 458.083 95.9267 458.243 95.9268ZM459.504 94.3675C459.68 94.3675 459.824 94.4276 459.935 94.5477C460.047 94.6597 460.103 94.8038 460.103 94.9798L460.1 100.548C460.1 100.692 460.124 100.808 460.172 100.896C460.22 100.984 460.284 101.044 460.364 101.076C460.452 101.108 460.54 101.124 460.628 101.124C460.716 101.124 460.792 101.108 460.856 101.076C460.928 101.044 461.012 101.028 461.108 101.028C461.204 101.028 461.292 101.072 461.372 101.16C461.452 101.248 461.492 101.368 461.492 101.52C461.492 101.712 461.388 101.868 461.18 101.988C460.972 102.108 460.748 102.168 460.508 102.168C460.372 102.168 460.212 102.156 460.028 102.132C459.844 102.108 459.664 102.048 459.488 101.951C459.32 101.855 459.18 101.703 459.068 101.495C458.956 101.279 458.9 100.979 458.9 100.595L458.903 94.9792C458.903 94.8032 458.959 94.6592 459.071 94.5472C459.192 94.4273 459.336 94.3674 459.504 94.3675ZM465.834 102.291C465.17 102.29 464.594 102.154 464.106 101.882C463.618 101.602 463.238 101.221 462.967 100.741C462.703 100.253 462.571 99.697 462.571 99.073C462.572 98.369 462.712 97.7691 462.992 97.2732C463.281 96.7694 463.653 96.3856 464.109 96.1218C464.565 95.85 465.049 95.7143 465.561 95.7145C465.953 95.7147 466.325 95.7949 466.677 95.9551C467.029 96.1073 467.341 96.3234 467.613 96.6036C467.893 96.8757 468.112 97.1998 468.272 97.5759C468.432 97.944 468.516 98.348 468.524 98.788C468.516 98.948 468.451 99.08 468.331 99.1839C468.211 99.2879 468.071 99.3398 467.911 99.3397L463.243 99.3374L462.956 98.3172L467.468 98.3195L467.24 98.5354L467.24 98.2354C467.224 97.9554 467.132 97.7113 466.964 97.5032C466.796 97.2872 466.588 97.1231 466.341 97.0109C466.093 96.8908 465.833 96.8307 465.561 96.8305C465.321 96.8304 465.089 96.8703 464.865 96.9502C464.648 97.0221 464.452 97.142 464.276 97.3099C464.108 97.4778 463.972 97.7017 463.868 97.9817C463.772 98.2536 463.724 98.5936 463.723 99.0016C463.723 99.4416 463.815 99.8256 463.999 100.154C464.183 100.482 464.431 100.738 464.743 100.922C465.054 101.098 465.398 101.186 465.774 101.187C466.07 101.187 466.314 101.159 466.506 101.103C466.698 101.039 466.858 100.963 466.987 100.875C467.115 100.787 467.227 100.703 467.323 100.623C467.443 100.551 467.563 100.516 467.683 100.516C467.827 100.516 467.947 100.568 468.043 100.672C468.139 100.768 468.187 100.884 468.186 101.02C468.186 101.196 468.098 101.356 467.922 101.5C467.706 101.708 467.406 101.891 467.022 102.051C466.646 102.211 466.25 102.291 465.834 102.291ZM469.853 103.757C469.733 103.757 469.613 103.709 469.494 103.613C469.374 103.516 469.314 103.396 469.314 103.252C469.314 103.164 469.338 103.08 469.386 103L474.371 92.911C474.427 92.799 474.495 92.7151 474.575 92.6591C474.663 92.6032 474.759 92.5752 474.863 92.5753C474.975 92.5753 475.087 92.6194 475.199 92.7074C475.319 92.7955 475.379 92.9195 475.379 93.0795C475.379 93.1675 475.359 93.2555 475.319 93.3435L470.334 103.433C470.278 103.537 470.21 103.617 470.129 103.673C470.049 103.729 469.957 103.757 469.853 103.757Z" fill="#4F5057"/>
</svg>
