<svg width="654" height="226" viewBox="0 0 654 226" fill="none" xmlns="http://www.w3.org/2000/svg">
<path d="M53.8041 163.886C28.0703 135.073 32.7028 93.5801 64.1512 71.2079C95.5996 48.8358 141.955 54.0568 167.689 82.8694C193.423 111.682 188.79 153.176 157.342 175.548C125.893 197.92 79.538 192.699 53.8041 163.886Z" fill="#FCD993"/>
<path d="M94.4271 143.284C69.6246 115.514 74.6075 75.1542 105.557 53.1372C136.506 31.1202 181.702 35.7838 206.504 63.5536C231.307 91.3235 226.324 131.684 195.375 153.701C164.425 175.718 119.23 171.054 94.4271 143.284Z" fill="#FFFBF5"/>
<path d="M117.187 79.2467C118.079 79.3411 120.32 79.606 122.634 81.3001C123.487 81.9245 124.813 82.9196 125.8 84.852C126.839 86.8853 126.903 88.7793 126.912 89.2178C126.92 89.6744 126.928 91.7831 125.777 94.0407C124.668 96.2154 123.113 97.292 122.095 97.9783C121.617 98.3003 119.25 99.8449 115.852 99.9542C114.819 99.9872 112.296 100.034 109.618 98.4128C108.675 97.8423 106.946 96.7628 105.731 94.4568C105.395 93.8176 104.567 92.2014 104.54 89.8953C104.534 89.332 104.56 87.5522 105.465 85.5957C106.114 84.19 106.917 83.3398 107.428 82.8095C108.818 81.3638 110.216 80.7051 111.123 80.2897C112.297 79.7506 113.239 79.5272 113.533 79.4613C114.227 79.3058 115.55 79.077 117.187 79.2493L117.187 79.2467Z" fill="#FFD278" fill-opacity="0.78" stroke="white" stroke-width="0.25" stroke-linecap="round" stroke-linejoin="round"/>
<path d="M136.959 137.338C137.197 137.338 137.395 137.418 137.554 137.576C137.724 137.735 137.809 137.933 137.809 138.171C137.808 138.409 137.723 138.608 137.553 138.766C137.394 138.925 137.196 139.004 136.958 139.004L131.246 139.001C130.997 139.001 130.787 138.922 130.617 138.763C130.459 138.593 130.379 138.383 130.38 138.134L130.385 127.968C130.385 127.718 130.47 127.514 130.64 127.356C130.81 127.186 131.031 127.101 131.303 127.101C131.53 127.101 131.728 127.186 131.898 127.356C132.079 127.515 132.17 127.719 132.17 127.969L132.165 137.625L131.808 137.335L136.959 137.338ZM141.17 138.139C141.17 138.389 141.091 138.598 140.932 138.768C140.773 138.927 140.569 139.006 140.32 139.006C140.082 139.006 139.878 138.926 139.708 138.767C139.55 138.597 139.47 138.388 139.47 138.138L139.474 130.862C139.474 130.613 139.554 130.409 139.712 130.25C139.883 130.081 140.087 129.996 140.325 129.996C140.574 129.996 140.778 130.081 140.936 130.251C141.095 130.41 141.174 130.614 141.174 130.863L141.17 138.139ZM140.308 128.874C139.979 128.874 139.741 128.817 139.594 128.703C139.447 128.579 139.373 128.375 139.374 128.091L139.374 127.819C139.374 127.536 139.453 127.338 139.612 127.224C139.771 127.111 140.009 127.055 140.326 127.055C140.666 127.055 140.91 127.117 141.057 127.242C141.204 127.356 141.278 127.548 141.278 127.82L141.278 128.092C141.277 128.387 141.198 128.591 141.039 128.704C140.892 128.817 140.648 128.874 140.308 128.874ZM148.068 129.864C148.873 129.864 149.496 130.034 149.938 130.375C150.38 130.704 150.686 131.151 150.855 131.718C151.037 132.274 151.127 132.897 151.127 133.588L151.124 138.144C151.124 138.394 151.039 138.603 150.869 138.773C150.71 138.932 150.512 139.011 150.274 139.011C150.024 139.011 149.82 138.931 149.662 138.772C149.503 138.602 149.424 138.393 149.424 138.143L149.426 133.604C149.427 133.196 149.37 132.834 149.257 132.516C149.144 132.188 148.946 131.927 148.662 131.734C148.391 131.53 148.005 131.428 147.507 131.427C147.042 131.427 146.634 131.529 146.282 131.733C145.931 131.925 145.653 132.186 145.449 132.514C145.256 132.832 145.16 133.194 145.159 133.602L145.157 138.141C145.157 138.391 145.072 138.6 144.902 138.77C144.743 138.929 144.545 139.008 144.307 139.008C144.057 139.008 143.853 138.928 143.695 138.769C143.536 138.599 143.457 138.39 143.457 138.14L143.461 130.932C143.461 130.683 143.54 130.479 143.699 130.32C143.858 130.151 144.062 130.066 144.311 130.066C144.549 130.066 144.748 130.151 144.906 130.321C145.076 130.48 145.161 130.684 145.161 130.933L145.16 131.885L144.854 132.055C144.934 131.806 145.07 131.556 145.263 131.307C145.467 131.047 145.711 130.809 145.994 130.594C146.277 130.367 146.595 130.192 146.946 130.067C147.298 129.931 147.672 129.863 148.068 129.864ZM154.47 139.013C154.232 139.013 154.028 138.933 153.858 138.775C153.7 138.605 153.62 138.395 153.621 138.146L153.626 127.3C153.626 127.05 153.706 126.846 153.864 126.688C154.034 126.518 154.238 126.433 154.476 126.433C154.726 126.433 154.93 126.518 155.088 126.688C155.247 126.847 155.326 127.051 155.326 127.3L155.321 138.146C155.32 138.396 155.241 138.605 155.082 138.775C154.923 138.934 154.719 139.013 154.47 139.013ZM160.017 130.04C160.232 130.04 160.419 130.131 160.578 130.312C160.736 130.493 160.815 130.675 160.815 130.856C160.815 131.083 160.707 131.292 160.492 131.485L155.168 136.242L155.101 134.287L159.388 130.311C159.569 130.13 159.779 130.04 160.017 130.04ZM160.216 138.999C159.978 138.999 159.774 138.902 159.604 138.71L156.206 135.121L157.499 133.931L160.812 137.52C160.993 137.713 161.084 137.928 161.084 138.166C161.083 138.416 160.981 138.62 160.777 138.778C160.584 138.925 160.397 138.999 160.216 138.999ZM171.758 139.022C171.486 139.022 171.265 138.942 171.095 138.783C170.937 138.613 170.857 138.404 170.857 138.154L170.863 127.971L172.682 127.972L172.676 138.155C172.676 138.405 172.586 138.614 172.404 138.784C172.234 138.943 172.019 139.022 171.758 139.022ZM167.904 128.752C167.666 128.752 167.462 128.678 167.292 128.53C167.122 128.372 167.038 128.168 167.038 127.918C167.038 127.68 167.123 127.488 167.293 127.34C167.463 127.193 167.667 127.12 167.905 127.12L175.64 127.124C175.878 127.124 176.076 127.203 176.235 127.362C176.405 127.509 176.49 127.702 176.49 127.94C176.49 128.189 176.404 128.388 176.234 128.535C176.076 128.682 175.877 128.756 175.639 128.756L167.904 128.752ZM179.819 138.159C179.819 138.408 179.739 138.618 179.581 138.788C179.422 138.946 179.218 139.026 178.968 139.025C178.73 139.025 178.526 138.946 178.357 138.787C178.198 138.617 178.119 138.407 178.119 138.158L178.123 130.882C178.123 130.633 178.202 130.429 178.361 130.27C178.531 130.1 178.735 130.015 178.973 130.015C179.222 130.016 179.426 130.101 179.585 130.271C179.743 130.429 179.823 130.633 179.823 130.883L179.819 138.159ZM178.957 128.893C178.628 128.893 178.39 128.836 178.243 128.723C178.095 128.598 178.022 128.394 178.022 128.111L178.022 127.839C178.022 127.556 178.102 127.357 178.26 127.244C178.419 127.131 178.657 127.074 178.974 127.074C179.314 127.075 179.558 127.137 179.705 127.262C179.853 127.375 179.926 127.568 179.926 127.84L179.926 128.112C179.926 128.407 179.846 128.611 179.688 128.724C179.54 128.837 179.297 128.894 178.957 128.893ZM183.942 138.161C183.941 138.41 183.856 138.62 183.686 138.79C183.528 138.948 183.329 139.028 183.091 139.027C182.853 139.027 182.649 138.948 182.479 138.789C182.321 138.619 182.241 138.409 182.242 138.16L182.247 127.314C182.247 127.065 182.332 126.861 182.502 126.702C182.673 126.532 182.877 126.447 183.115 126.447C183.364 126.448 183.562 126.533 183.709 126.703C183.868 126.862 183.947 127.066 183.947 127.315L183.942 138.161ZM192.314 127.132C192.541 127.132 192.739 127.217 192.909 127.387C193.09 127.546 193.181 127.75 193.18 128L193.175 138.166C193.164 138.415 193.067 138.625 192.886 138.794C192.716 138.953 192.512 139.032 192.274 139.032C192.013 139.032 191.798 138.953 191.628 138.794C191.469 138.624 191.39 138.414 191.39 138.165L191.395 127.999C191.396 127.749 191.481 127.545 191.651 127.387C191.821 127.217 192.042 127.132 192.314 127.132ZM199.981 127.136C200.253 127.136 200.468 127.221 200.627 127.391C200.785 127.55 200.865 127.754 200.864 128.004L200.859 138.17C200.859 138.419 200.774 138.628 200.604 138.798C200.445 138.957 200.23 139.036 199.958 139.036C199.72 139.036 199.516 138.956 199.346 138.798C199.176 138.628 199.091 138.418 199.091 138.169L199.096 128.003C199.097 127.753 199.182 127.549 199.352 127.391C199.533 127.221 199.743 127.136 199.981 127.136ZM192.243 132.198L199.995 132.202L199.977 133.834L192.225 133.83L192.243 132.198ZM205.359 139.413C205.359 140.025 205.234 140.552 204.985 140.994C204.735 141.435 204.406 141.775 203.998 142.013C203.59 142.251 203.154 142.37 202.689 142.369C202.451 142.369 202.258 142.29 202.111 142.131C201.964 141.984 201.89 141.802 201.89 141.587L201.89 141.434C201.89 141.23 201.964 141.066 202.112 140.941C202.248 140.817 202.418 140.72 202.622 140.652C202.882 140.573 203.087 140.454 203.234 140.296C203.393 140.148 203.5 139.956 203.557 139.718C203.625 139.491 203.659 139.242 203.66 138.97L203.664 130.946C203.664 130.708 203.743 130.51 203.902 130.351C204.061 130.181 204.265 130.096 204.514 130.096C204.763 130.096 204.967 130.182 205.126 130.352C205.285 130.51 205.364 130.709 205.364 130.947L205.359 139.413ZM204.481 128.906C204.152 128.906 203.914 128.849 203.767 128.736C203.62 128.611 203.546 128.407 203.546 128.124L203.546 127.852C203.546 127.569 203.626 127.37 203.785 127.257C203.943 127.144 204.181 127.087 204.499 127.087C204.839 127.088 205.082 127.15 205.23 127.275C205.377 127.388 205.45 127.581 205.45 127.853L205.45 128.125C205.45 128.42 205.371 128.623 205.212 128.737C205.064 128.85 204.821 128.907 204.481 128.906ZM212.235 139.212C211.294 139.212 210.478 139.019 209.787 138.633C209.096 138.236 208.558 137.697 208.173 137.017C207.799 136.326 207.613 135.538 207.613 134.654C207.614 133.657 207.813 132.807 208.21 132.104C208.618 131.39 209.145 130.847 209.791 130.473C210.438 130.088 211.123 129.896 211.849 129.896C212.404 129.896 212.931 130.01 213.429 130.237C213.928 130.452 214.37 130.759 214.755 131.156C215.151 131.541 215.463 132 215.689 132.533C215.916 133.054 216.034 133.627 216.045 134.25C216.034 134.477 215.943 134.664 215.773 134.811C215.603 134.958 215.405 135.032 215.178 135.032L208.565 135.028L208.158 133.583L214.55 133.586L214.227 133.892L214.227 133.467C214.204 133.071 214.074 132.725 213.836 132.43C213.599 132.124 213.304 131.892 212.953 131.733C212.601 131.562 212.233 131.477 211.848 131.477C211.508 131.477 211.179 131.533 210.862 131.647C210.556 131.748 210.278 131.918 210.029 132.156C209.79 132.394 209.598 132.711 209.45 133.108C209.314 133.493 209.246 133.975 209.245 134.553C209.245 135.176 209.375 135.72 209.635 136.185C209.896 136.65 210.247 137.013 210.689 137.274C211.131 137.523 211.618 137.648 212.151 137.648C212.57 137.648 212.916 137.609 213.188 137.53C213.46 137.439 213.687 137.332 213.868 137.207C214.049 137.083 214.208 136.964 214.344 136.85C214.514 136.748 214.684 136.698 214.854 136.698C215.058 136.698 215.228 136.771 215.364 136.919C215.5 137.055 215.568 137.219 215.568 137.412C215.568 137.661 215.443 137.888 215.193 138.092C214.887 138.386 214.462 138.647 213.918 138.873C213.385 139.1 212.824 139.213 212.235 139.212ZM222.457 129.952C223.296 129.953 223.942 130.163 224.395 130.582C224.848 130.991 225.148 131.546 225.295 132.249L225.023 132.164L225.142 131.892C225.29 131.597 225.511 131.303 225.806 131.008C226.112 130.702 226.475 130.453 226.894 130.261C227.313 130.057 227.761 129.955 228.237 129.955C229.019 129.956 229.625 130.126 230.056 130.466C230.486 130.795 230.787 131.243 230.956 131.81C231.126 132.365 231.211 132.989 231.21 133.68L231.208 138.185C231.208 138.434 231.128 138.644 230.97 138.814C230.811 138.972 230.607 139.052 230.358 139.052C230.12 139.051 229.916 138.972 229.746 138.813C229.587 138.643 229.508 138.433 229.508 138.184L229.51 133.696C229.51 133.299 229.454 132.937 229.341 132.608C229.239 132.279 229.052 132.019 228.78 131.826C228.52 131.622 228.157 131.519 227.692 131.519C227.25 131.519 226.854 131.621 226.502 131.825C226.162 132.017 225.896 132.278 225.703 132.606C225.51 132.935 225.413 133.297 225.413 133.694L225.411 138.182C225.411 138.431 225.331 138.641 225.173 138.811C225.014 138.969 224.81 139.049 224.561 139.049C224.311 139.048 224.107 138.969 223.949 138.81C223.79 138.64 223.711 138.43 223.711 138.181L223.713 133.676C223.713 133.279 223.657 132.917 223.544 132.588C223.442 132.259 223.261 131.999 223 131.806C222.74 131.613 222.377 131.516 221.912 131.516C221.47 131.516 221.079 131.612 220.739 131.805C220.399 131.997 220.133 132.258 219.94 132.586C219.758 132.915 219.667 133.277 219.667 133.674L219.665 138.179C219.665 138.428 219.58 138.638 219.41 138.808C219.251 138.967 219.053 139.046 218.815 139.046C218.565 139.046 218.361 138.966 218.203 138.807C218.044 138.637 217.965 138.428 217.965 138.178L217.969 130.97C217.969 130.721 218.048 130.517 218.207 130.358C218.366 130.188 218.57 130.104 218.819 130.104C219.057 130.104 219.255 130.189 219.414 130.359C219.584 130.518 219.669 130.722 219.669 130.971L219.668 131.974L219.345 132.161C219.425 131.912 219.555 131.657 219.736 131.396C219.918 131.136 220.145 130.898 220.417 130.682C220.7 130.467 221.012 130.292 221.352 130.156C221.692 130.02 222.06 129.952 222.457 129.952ZM238.079 129.96C238.918 129.961 239.564 130.171 240.017 130.59C240.47 130.999 240.77 131.554 240.917 132.257L240.645 132.172L240.764 131.9C240.912 131.605 241.133 131.311 241.428 131.016C241.734 130.71 242.097 130.461 242.516 130.269C242.936 130.065 243.383 129.963 243.859 129.963C244.641 129.964 245.247 130.134 245.678 130.474C246.108 130.803 246.409 131.251 246.578 131.818C246.748 132.373 246.833 132.997 246.832 133.688L246.83 138.193C246.83 138.442 246.75 138.652 246.592 138.822C246.433 138.98 246.229 139.06 245.98 139.059C245.742 139.059 245.538 138.98 245.368 138.821C245.209 138.651 245.13 138.441 245.13 138.192L245.132 133.704C245.133 133.307 245.076 132.945 244.963 132.616C244.861 132.287 244.674 132.026 244.402 131.834C244.142 131.63 243.779 131.527 243.314 131.527C242.872 131.527 242.476 131.629 242.124 131.832C241.784 132.025 241.518 132.286 241.325 132.614C241.132 132.943 241.036 133.305 241.035 133.702L241.033 138.19C241.033 138.439 240.953 138.649 240.795 138.819C240.636 138.977 240.432 139.057 240.183 139.056C239.933 139.056 239.729 138.977 239.571 138.818C239.412 138.648 239.333 138.438 239.333 138.189L239.335 133.684C239.336 133.287 239.279 132.925 239.166 132.596C239.064 132.267 238.883 132.007 238.622 131.814C238.362 131.621 237.999 131.524 237.534 131.524C237.092 131.524 236.701 131.62 236.361 131.813C236.021 132.005 235.755 132.266 235.562 132.594C235.38 132.923 235.29 133.285 235.289 133.682L235.287 138.187C235.287 138.436 235.202 138.646 235.032 138.816C234.873 138.974 234.675 139.054 234.437 139.054C234.187 139.053 233.983 138.974 233.825 138.815C233.666 138.645 233.587 138.435 233.587 138.186L233.591 130.978C233.591 130.729 233.67 130.525 233.829 130.366C233.988 130.196 234.192 130.111 234.441 130.112C234.679 130.112 234.877 130.197 235.036 130.367C235.206 130.526 235.291 130.73 235.291 130.979L235.29 131.982L234.967 132.169C235.047 131.92 235.177 131.665 235.358 131.404C235.54 131.143 235.767 130.906 236.039 130.69C236.322 130.475 236.634 130.3 236.974 130.164C237.314 130.028 237.683 129.96 238.079 129.96ZM253.374 139.233C252.433 139.233 251.617 139.04 250.926 138.654C250.235 138.257 249.697 137.718 249.312 137.038C248.938 136.347 248.751 135.559 248.752 134.675C248.752 133.678 248.951 132.828 249.348 132.125C249.757 131.411 250.284 130.868 250.93 130.494C251.576 130.109 252.262 129.917 252.987 129.917C253.543 129.917 254.07 130.031 254.568 130.258C255.067 130.473 255.509 130.78 255.894 131.176C256.29 131.562 256.602 132.021 256.828 132.554C257.054 133.075 257.173 133.648 257.184 134.271C257.173 134.498 257.082 134.685 256.912 134.832C256.742 134.979 256.543 135.053 256.317 135.053L249.704 135.049L249.296 133.604L255.688 133.607L255.365 133.913L255.366 133.488C255.343 133.092 255.213 132.746 254.975 132.451C254.737 132.145 254.443 131.912 254.091 131.754C253.74 131.583 253.372 131.498 252.987 131.498C252.647 131.498 252.318 131.554 252 131.668C251.694 131.769 251.417 131.939 251.167 132.177C250.929 132.415 250.736 132.732 250.589 133.129C250.452 133.514 250.384 133.996 250.384 134.574C250.384 135.197 250.514 135.741 250.774 136.206C251.035 136.671 251.386 137.034 251.828 137.294C252.269 137.544 252.757 137.669 253.289 137.669C253.709 137.669 254.054 137.63 254.326 137.551C254.598 137.46 254.825 137.353 255.007 137.228C255.188 137.103 255.347 136.985 255.483 136.871C255.653 136.769 255.823 136.718 255.993 136.719C256.197 136.719 256.367 136.792 256.503 136.94C256.639 137.076 256.707 137.24 256.707 137.433C256.706 137.682 256.582 137.909 256.332 138.113C256.026 138.407 255.601 138.668 255.057 138.894C254.524 139.12 253.963 139.234 253.374 139.233ZM258.577 137.672C258.475 137.513 258.43 137.332 258.441 137.128C258.453 136.912 258.572 136.731 258.798 136.584C258.957 136.482 259.122 136.442 259.292 136.465C259.473 136.477 259.643 136.562 259.801 136.72C260.119 137.072 260.47 137.35 260.855 137.554C261.252 137.758 261.727 137.86 262.283 137.861C262.509 137.85 262.742 137.816 262.98 137.759C263.218 137.691 263.422 137.578 263.592 137.419C263.762 137.249 263.847 137.006 263.847 136.689C263.848 136.405 263.757 136.178 263.576 136.008C263.395 135.838 263.157 135.702 262.862 135.6C262.567 135.487 262.25 135.384 261.91 135.294C261.548 135.191 261.179 135.078 260.805 134.953C260.443 134.828 260.114 134.669 259.82 134.476C259.525 134.272 259.281 134.012 259.089 133.694C258.908 133.377 258.817 132.986 258.818 132.521C258.818 131.988 258.965 131.529 259.26 131.144C259.566 130.759 259.958 130.459 260.434 130.244C260.921 130.029 261.448 129.921 262.015 129.922C262.344 129.922 262.689 129.967 263.052 130.058C263.414 130.138 263.766 130.268 264.106 130.45C264.445 130.631 264.74 130.869 264.989 131.164C265.102 131.311 265.165 131.487 265.176 131.691C265.199 131.895 265.108 132.077 264.904 132.235C264.768 132.348 264.603 132.399 264.411 132.388C264.218 132.376 264.059 132.314 263.935 132.201C263.719 131.928 263.442 131.719 263.102 131.571C262.762 131.412 262.377 131.333 261.946 131.333C261.731 131.332 261.504 131.366 261.266 131.434C261.039 131.491 260.847 131.598 260.688 131.757C260.529 131.916 260.45 132.148 260.45 132.454C260.449 132.737 260.54 132.964 260.721 133.134C260.914 133.304 261.163 133.446 261.469 133.559C261.775 133.673 262.109 133.775 262.472 133.866C262.823 133.957 263.169 134.065 263.509 134.189C263.86 134.314 264.172 134.479 264.443 134.683C264.727 134.876 264.953 135.131 265.123 135.448C265.304 135.754 265.395 136.145 265.394 136.621C265.394 137.177 265.23 137.653 264.901 138.049C264.583 138.434 264.175 138.729 263.676 138.932C263.189 139.136 262.673 139.238 262.129 139.238C261.483 139.237 260.837 139.124 260.191 138.897C259.557 138.658 259.019 138.25 258.577 137.672ZM268.82 138.204C268.82 138.453 268.74 138.663 268.581 138.833C268.423 138.992 268.219 139.071 267.969 139.071C267.731 139.071 267.527 138.991 267.357 138.832C267.199 138.662 267.12 138.453 267.12 138.203L267.124 130.927C267.124 130.678 267.203 130.474 267.362 130.315C267.532 130.145 267.736 130.061 267.974 130.061C268.223 130.061 268.427 130.146 268.586 130.316C268.744 130.475 268.824 130.679 268.824 130.928L268.82 138.204ZM267.958 128.939C267.629 128.938 267.391 128.882 267.244 128.768C267.096 128.644 267.023 128.439 267.023 128.156L267.023 127.884C267.023 127.601 267.103 127.403 267.261 127.289C267.42 127.176 267.658 127.119 267.975 127.12C268.315 127.12 268.559 127.182 268.706 127.307C268.854 127.42 268.927 127.613 268.927 127.885L268.927 128.157C268.927 128.452 268.847 128.656 268.689 128.769C268.541 128.882 268.298 128.939 267.958 128.939ZM278.44 126.496C278.689 126.496 278.893 126.576 279.051 126.734C279.21 126.893 279.289 127.103 279.289 127.363L279.284 138.209C279.283 138.459 279.204 138.668 279.045 138.838C278.887 138.997 278.682 139.076 278.433 139.076C278.195 139.076 277.991 138.996 277.821 138.838C277.663 138.668 277.583 138.458 277.584 138.209L277.584 136.985L277.941 137.002C277.941 137.206 277.856 137.438 277.686 137.699C277.527 137.948 277.306 138.191 277.022 138.429C276.739 138.667 276.405 138.865 276.019 139.024C275.634 139.171 275.22 139.244 274.778 139.244C273.996 139.244 273.293 139.045 272.67 138.648C272.047 138.24 271.555 137.69 271.192 136.998C270.83 136.295 270.649 135.491 270.649 134.584C270.65 133.677 270.832 132.878 271.195 132.187C271.558 131.485 272.045 130.935 272.657 130.539C273.281 130.131 273.972 129.928 274.732 129.928C275.208 129.928 275.65 130.008 276.058 130.167C276.477 130.326 276.839 130.53 277.145 130.779C277.451 131.029 277.689 131.295 277.859 131.579C278.029 131.851 278.114 132.111 278.114 132.361L277.587 132.412L277.589 127.363C277.589 127.113 277.669 126.909 277.827 126.751C277.997 126.581 278.202 126.496 278.44 126.496ZM274.966 137.68C275.51 137.68 275.98 137.545 276.377 137.273C276.785 137.001 277.103 136.633 277.33 136.168C277.557 135.704 277.67 135.177 277.67 134.588C277.671 133.998 277.558 133.471 277.331 133.006C277.105 132.542 276.788 132.173 276.38 131.901C275.972 131.629 275.502 131.492 274.969 131.492C274.448 131.492 273.983 131.628 273.575 131.899C273.178 132.171 272.86 132.539 272.622 133.004C272.395 133.469 272.282 133.995 272.281 134.585C272.281 135.174 272.394 135.701 272.621 136.166C272.858 136.631 273.176 136.999 273.572 137.271C273.98 137.544 274.445 137.68 274.966 137.68ZM285.83 139.25C284.889 139.249 284.073 139.056 283.382 138.67C282.691 138.273 282.153 137.735 281.768 137.055C281.394 136.363 281.208 135.575 281.208 134.691C281.208 133.694 281.407 132.844 281.804 132.142C282.213 131.428 282.74 130.884 283.386 130.51C284.032 130.125 284.718 129.933 285.443 129.934C285.999 129.934 286.526 130.047 287.024 130.274C287.523 130.49 287.965 130.796 288.35 131.193C288.746 131.579 289.058 132.038 289.284 132.57C289.51 133.092 289.629 133.664 289.64 134.288C289.629 134.514 289.538 134.701 289.368 134.848C289.198 134.996 288.999 135.069 288.773 135.069L282.16 135.066L281.752 133.621L288.144 133.624L287.821 133.93L287.822 133.505C287.799 133.108 287.669 132.762 287.431 132.468C287.193 132.161 286.899 131.929 286.547 131.77C286.196 131.6 285.828 131.515 285.443 131.515C285.103 131.514 284.774 131.571 284.456 131.684C284.15 131.786 283.873 131.956 283.623 132.194C283.385 132.431 283.192 132.749 283.045 133.145C282.909 133.531 282.84 134.012 282.84 134.59C282.84 135.214 282.97 135.758 283.23 136.222C283.491 136.687 283.842 137.05 284.284 137.311C284.725 137.56 285.213 137.685 285.745 137.686C286.165 137.686 286.51 137.646 286.782 137.567C287.055 137.477 287.281 137.369 287.463 137.245C287.644 137.12 287.803 137.001 287.939 136.888C288.109 136.786 288.279 136.735 288.449 136.735C288.653 136.735 288.823 136.809 288.959 136.956C289.095 137.092 289.163 137.257 289.163 137.449C289.162 137.699 289.038 137.925 288.788 138.129C288.482 138.424 288.057 138.684 287.513 138.911C286.98 139.137 286.419 139.25 285.83 139.25ZM300.354 139.087C300.082 139.087 299.861 139.007 299.691 138.849C299.532 138.679 299.453 138.469 299.453 138.22L299.458 128.037L301.277 128.038L301.272 138.221C301.272 138.47 301.181 138.68 301 138.849C300.83 139.008 300.614 139.087 300.354 139.087ZM296.5 128.817C296.262 128.817 296.058 128.743 295.888 128.596C295.718 128.437 295.633 128.233 295.633 127.984C295.633 127.746 295.719 127.553 295.889 127.406C296.059 127.259 296.263 127.185 296.501 127.185L304.236 127.189C304.474 127.189 304.672 127.269 304.831 127.427C305.001 127.575 305.085 127.767 305.085 128.005C305.085 128.255 305 128.453 304.83 128.6C304.671 128.748 304.473 128.821 304.235 128.821L296.5 128.817ZM308.939 139.261C307.998 139.261 307.182 139.068 306.491 138.682C305.8 138.285 305.262 137.747 304.877 137.066C304.503 136.375 304.317 135.587 304.317 134.703C304.318 133.706 304.517 132.856 304.914 132.153C305.322 131.44 305.849 130.896 306.495 130.522C307.142 130.137 307.827 129.945 308.553 129.945C309.108 129.946 309.635 130.059 310.134 130.286C310.632 130.502 311.074 130.808 311.459 131.205C311.856 131.59 312.167 132.049 312.393 132.582C312.62 133.104 312.739 133.676 312.75 134.299C312.738 134.526 312.647 134.713 312.477 134.86C312.307 135.007 312.109 135.081 311.882 135.081L305.269 135.078L304.862 133.632L311.254 133.636L310.931 133.941L310.931 133.516C310.908 133.12 310.778 132.774 310.54 132.479C310.303 132.173 310.008 131.941 309.657 131.782C309.306 131.612 308.937 131.526 308.552 131.526C308.212 131.526 307.883 131.583 307.566 131.696C307.26 131.798 306.982 131.967 306.733 132.205C306.494 132.443 306.302 132.76 306.154 133.157C306.018 133.542 305.95 134.024 305.949 134.602C305.949 135.225 306.079 135.769 306.34 136.234C306.6 136.699 306.951 137.062 307.393 137.323C307.835 137.572 308.322 137.697 308.855 137.697C309.274 137.698 309.62 137.658 309.892 137.579C310.164 137.488 310.391 137.381 310.572 137.256C310.753 137.132 310.912 137.013 311.048 136.9C311.218 136.798 311.388 136.747 311.558 136.747C311.762 136.747 311.932 136.821 312.068 136.968C312.204 137.104 312.272 137.268 312.272 137.461C312.272 137.71 312.147 137.937 311.898 138.141C311.591 138.435 311.166 138.696 310.622 138.922C310.089 139.149 309.528 139.262 308.939 139.261ZM319.161 130.002C320 130.002 320.646 130.212 321.099 130.632C321.552 131.04 321.852 131.595 321.999 132.298L321.727 132.213L321.846 131.941C321.994 131.646 322.215 131.352 322.51 131.057C322.816 130.751 323.179 130.502 323.598 130.31C324.018 130.106 324.465 130.004 324.941 130.005C325.723 130.005 326.329 130.175 326.76 130.516C327.19 130.844 327.491 131.292 327.66 131.859C327.83 132.414 327.915 133.038 327.914 133.729L327.912 138.234C327.912 138.483 327.832 138.693 327.674 138.863C327.515 139.022 327.311 139.101 327.062 139.101C326.824 139.101 326.62 139.021 326.45 138.862C326.291 138.692 326.212 138.483 326.212 138.233L326.214 133.745C326.215 133.349 326.158 132.986 326.045 132.657C325.943 132.328 325.756 132.068 325.484 131.875C325.224 131.671 324.861 131.569 324.396 131.568C323.954 131.568 323.558 131.67 323.206 131.874C322.866 132.066 322.6 132.327 322.407 132.655C322.214 132.984 322.118 133.346 322.117 133.743L322.115 138.231C322.115 138.48 322.035 138.69 321.877 138.86C321.718 139.019 321.514 139.098 321.265 139.098C321.015 139.098 320.811 139.018 320.653 138.859C320.494 138.689 320.415 138.48 320.415 138.23L320.417 133.725C320.418 133.329 320.361 132.966 320.248 132.637C320.146 132.308 319.965 132.048 319.704 131.855C319.444 131.662 319.081 131.566 318.616 131.565C318.174 131.565 317.783 131.661 317.443 131.854C317.103 132.046 316.837 132.307 316.644 132.635C316.462 132.964 316.372 133.327 316.371 133.723L316.369 138.228C316.369 138.478 316.284 138.687 316.114 138.857C315.955 139.016 315.757 139.095 315.519 139.095C315.269 139.095 315.065 139.015 314.907 138.856C314.748 138.686 314.669 138.477 314.669 138.227L314.673 131.019C314.673 130.77 314.752 130.566 314.911 130.407C315.07 130.238 315.274 130.153 315.523 130.153C315.761 130.153 315.959 130.238 316.118 130.408C316.288 130.567 316.373 130.771 316.373 131.02L316.372 132.023L316.049 132.21C316.129 131.961 316.259 131.706 316.441 131.445C316.622 131.185 316.849 130.947 317.121 130.732C317.404 130.516 317.716 130.341 318.056 130.205C318.396 130.069 318.765 130.001 319.161 130.002ZM337.622 130.028C337.872 130.028 338.076 130.113 338.234 130.283C338.393 130.442 338.472 130.646 338.472 130.895L338.468 138.239C338.468 138.489 338.389 138.698 338.23 138.868C338.071 139.027 337.867 139.106 337.618 139.106C337.38 139.106 337.176 139.026 337.006 138.868C336.847 138.698 336.768 138.488 336.768 138.239L336.769 137.015L337.126 137.066C337.126 137.27 337.041 137.496 336.87 137.746C336.712 137.995 336.49 138.238 336.207 138.476C335.924 138.703 335.589 138.895 335.204 139.054C334.818 139.201 334.405 139.274 333.963 139.274C333.181 139.274 332.478 139.075 331.855 138.678C331.232 138.27 330.739 137.714 330.377 137.011C330.014 136.308 329.834 135.509 329.834 134.614C329.834 133.696 330.016 132.891 330.379 132.2C330.742 131.498 331.23 130.948 331.842 130.552C332.466 130.156 333.157 129.958 333.916 129.958C334.404 129.958 334.851 130.038 335.259 130.197C335.678 130.356 336.041 130.56 336.347 130.809C336.653 131.059 336.885 131.325 337.043 131.609C337.213 131.881 337.298 132.142 337.298 132.391L336.771 132.442L336.772 130.895C336.772 130.657 336.851 130.453 337.01 130.283C337.18 130.113 337.384 130.028 337.622 130.028ZM334.15 137.71C334.683 137.711 335.153 137.575 335.562 137.303C335.97 137.031 336.287 136.663 336.514 136.198C336.741 135.723 336.855 135.196 336.855 134.618C336.855 134.028 336.742 133.501 336.516 133.036C336.289 132.572 335.972 132.203 335.564 131.931C335.156 131.659 334.686 131.523 334.154 131.522C333.632 131.522 333.167 131.658 332.759 131.93C332.363 132.201 332.045 132.57 331.807 133.034C331.58 133.499 331.466 134.026 331.466 134.615C331.466 135.193 331.579 135.72 331.805 136.196C332.043 136.661 332.36 137.029 332.757 137.302C333.164 137.574 333.629 137.71 334.15 137.71ZM350.885 139.113C350.647 139.113 350.448 139.033 350.29 138.874C350.131 138.704 350.052 138.495 350.052 138.245L350.057 129.592L350.363 129.694L346.688 134.385L346.603 134.164L352.791 134.167C353.018 134.167 353.205 134.246 353.352 134.405C353.511 134.552 353.59 134.739 353.59 134.966C353.59 135.181 353.51 135.363 353.352 135.51C353.204 135.657 353.017 135.731 352.79 135.731L345.429 135.727C345.225 135.727 345.033 135.647 344.852 135.489C344.67 135.319 344.58 135.12 344.58 134.894C344.58 134.678 344.654 134.486 344.801 134.316L350.211 127.552C350.29 127.439 350.392 127.354 350.517 127.298C350.641 127.241 350.772 127.213 350.908 127.213C351.157 127.213 351.361 127.298 351.52 127.468C351.678 127.627 351.757 127.831 351.757 128.08L351.752 138.246C351.752 138.496 351.667 138.705 351.497 138.875C351.327 139.034 351.123 139.113 350.885 139.113ZM356.045 132.315C355.762 132.315 355.541 132.241 355.382 132.094C355.235 131.935 355.162 131.714 355.162 131.431L355.162 131.108C355.162 130.825 355.236 130.604 355.383 130.445C355.542 130.286 355.763 130.207 356.046 130.207L356.233 130.207C356.517 130.208 356.732 130.287 356.879 130.446C357.026 130.605 357.1 130.826 357.1 131.109L357.1 131.432C357.1 131.715 357.026 131.936 356.878 132.095C356.731 132.242 356.516 132.316 356.232 132.315L356.045 132.315ZM356.042 139.115C355.758 139.115 355.538 139.036 355.379 138.877C355.232 138.718 355.158 138.497 355.158 138.214L355.158 137.908C355.159 137.613 355.232 137.392 355.38 137.245C355.539 137.086 355.76 137.007 356.043 137.007L356.23 137.007C356.513 137.008 356.729 137.087 356.876 137.246C357.023 137.393 357.097 137.614 357.096 137.909L357.096 138.215C357.096 138.498 357.022 138.719 356.875 138.878C356.728 139.036 356.512 139.116 356.229 139.115L356.042 139.115ZM365.236 127.22C365.462 127.22 365.661 127.305 365.831 127.475C366.012 127.634 366.102 127.838 366.102 128.087L366.097 138.253C366.086 138.503 365.989 138.712 365.808 138.882C365.638 139.041 365.434 139.12 365.196 139.12C364.935 139.12 364.72 139.04 364.55 138.882C364.391 138.712 364.312 138.502 364.312 138.253L364.317 128.087C364.317 127.837 364.403 127.633 364.573 127.475C364.743 127.305 364.964 127.22 365.236 127.22ZM372.903 127.224C373.175 127.224 373.39 127.309 373.549 127.479C373.707 127.638 373.786 127.842 373.786 128.091L373.781 138.257C373.781 138.507 373.696 138.716 373.526 138.886C373.367 139.045 373.152 139.124 372.88 139.124C372.642 139.124 372.438 139.044 372.268 138.886C372.098 138.716 372.013 138.506 372.013 138.256L372.018 128.091C372.018 127.841 372.103 127.637 372.274 127.479C372.455 127.309 372.665 127.224 372.903 127.224ZM365.165 132.286L372.917 132.29L372.899 133.922L365.147 133.918L365.165 132.286ZM376.229 130.286L380.224 130.288C380.451 130.288 380.638 130.367 380.785 130.526C380.943 130.673 381.023 130.86 381.022 131.087C381.022 131.302 380.943 131.484 380.784 131.631C380.637 131.778 380.45 131.852 380.223 131.852L376.228 131.85C376.001 131.85 375.809 131.776 375.65 131.628C375.503 131.47 375.429 131.283 375.43 131.067C375.43 130.841 375.503 130.654 375.651 130.506C375.81 130.359 376.002 130.286 376.229 130.286ZM378.015 128.077C378.264 128.077 378.468 128.162 378.627 128.332C378.785 128.491 378.865 128.695 378.865 128.944L378.861 136.832C378.86 137.036 378.894 137.2 378.962 137.325C379.03 137.45 379.121 137.535 379.234 137.58C379.359 137.626 379.483 137.648 379.608 137.648C379.733 137.648 379.841 137.626 379.931 137.581C380.033 137.535 380.152 137.513 380.288 137.513C380.424 137.513 380.549 137.575 380.662 137.7C380.775 137.825 380.832 137.995 380.832 138.21C380.832 138.482 380.684 138.703 380.39 138.873C380.095 139.043 379.777 139.127 379.437 139.127C379.245 139.127 379.018 139.11 378.757 139.076C378.497 139.042 378.242 138.957 377.993 138.821C377.755 138.684 377.556 138.469 377.398 138.174C377.239 137.868 377.16 137.443 377.161 136.899L377.165 128.943C377.165 128.694 377.244 128.49 377.403 128.331C377.573 128.161 377.777 128.076 378.015 128.077ZM382.787 130.289L386.782 130.291C387.008 130.291 387.195 130.371 387.342 130.529C387.501 130.677 387.58 130.864 387.58 131.09C387.58 131.306 387.501 131.487 387.342 131.634C387.194 131.782 387.007 131.855 386.781 131.855L382.786 131.853C382.559 131.853 382.366 131.779 382.208 131.632C382.061 131.473 381.987 131.286 381.987 131.071C381.987 130.844 382.061 130.657 382.208 130.51C382.367 130.362 382.56 130.289 382.787 130.289ZM384.573 128.08C384.822 128.08 385.026 128.165 385.185 128.335C385.343 128.494 385.422 128.698 385.422 128.947L385.418 136.835C385.418 137.039 385.452 137.204 385.52 137.328C385.588 137.453 385.679 137.538 385.792 137.584C385.916 137.629 386.041 137.652 386.166 137.652C386.29 137.652 386.398 137.629 386.489 137.584C386.591 137.539 386.71 137.516 386.846 137.516C386.982 137.516 387.106 137.579 387.22 137.703C387.333 137.828 387.39 137.998 387.389 138.213C387.389 138.485 387.242 138.706 386.947 138.876C386.652 139.046 386.335 139.131 385.995 139.131C385.802 139.131 385.576 139.113 385.315 139.079C385.054 139.045 384.799 138.96 384.55 138.824C384.312 138.688 384.114 138.472 383.956 138.178C383.797 137.871 383.718 137.446 383.718 136.902L383.722 128.946C383.722 128.697 383.802 128.493 383.961 128.335C384.131 128.165 384.335 128.08 384.573 128.08ZM393.968 130.04C394.762 130.04 395.464 130.239 396.076 130.636C396.699 131.033 397.192 131.577 397.554 132.268C397.916 132.949 398.097 133.742 398.097 134.649C398.096 135.555 397.915 136.36 397.552 137.062C397.189 137.754 396.701 138.297 396.089 138.694C395.477 139.09 394.785 139.288 394.015 139.288C393.584 139.287 393.176 139.219 392.791 139.083C392.405 138.947 392.065 138.771 391.771 138.556C391.476 138.329 391.233 138.091 391.04 137.841C390.859 137.592 390.746 137.359 390.701 137.144L391.16 136.923L391.157 141.666C391.157 141.916 391.072 142.12 390.902 142.278C390.743 142.448 390.545 142.533 390.307 142.533C390.058 142.533 389.854 142.448 389.695 142.277C389.536 142.119 389.457 141.915 389.457 141.665L389.463 131.023C389.463 130.785 389.542 130.581 389.701 130.411C389.86 130.242 390.064 130.157 390.313 130.157C390.551 130.157 390.749 130.242 390.908 130.412C391.078 130.582 391.163 130.786 391.163 131.024L391.162 132.197L390.89 132.044C390.924 131.829 391.032 131.608 391.214 131.381C391.395 131.143 391.622 130.922 391.894 130.719C392.177 130.515 392.495 130.351 392.846 130.226C393.209 130.102 393.583 130.039 393.968 130.04ZM393.78 131.604C393.236 131.603 392.76 131.739 392.352 132.011C391.955 132.271 391.644 132.628 391.417 133.081C391.19 133.535 391.076 134.056 391.076 134.645C391.076 135.223 391.189 135.75 391.415 136.226C391.642 136.691 391.953 137.06 392.35 137.332C392.757 137.593 393.233 137.723 393.777 137.724C394.31 137.724 394.775 137.594 395.172 137.333C395.568 137.061 395.88 136.693 396.107 136.229C396.345 135.753 396.465 135.226 396.465 134.648C396.465 134.07 396.346 133.554 396.109 133.101C395.882 132.636 395.571 132.273 395.174 132.012C394.778 131.74 394.313 131.604 393.78 131.604ZM399.491 137.743C399.389 137.585 399.344 137.403 399.355 137.199C399.367 136.984 399.486 136.803 399.712 136.656C399.871 136.554 400.036 136.514 400.206 136.537C400.387 136.548 400.557 136.633 400.715 136.792C401.033 137.144 401.384 137.421 401.769 137.626C402.166 137.83 402.642 137.932 403.197 137.932C403.424 137.921 403.656 137.887 403.894 137.831C404.132 137.763 404.336 137.65 404.506 137.491C404.676 137.321 404.761 137.077 404.761 136.76C404.762 136.477 404.671 136.25 404.49 136.08C404.309 135.91 404.071 135.774 403.776 135.672C403.481 135.558 403.164 135.456 402.824 135.365C402.462 135.263 402.093 135.149 401.719 135.025C401.357 134.9 401.028 134.741 400.734 134.548C400.439 134.344 400.195 134.083 400.003 133.766C399.822 133.448 399.731 133.057 399.732 132.593C399.732 132.06 399.879 131.601 400.174 131.216C400.48 130.831 400.872 130.531 401.348 130.315C401.835 130.1 402.362 129.993 402.929 129.993C403.258 129.993 403.603 130.039 403.966 130.13C404.328 130.209 404.68 130.34 405.02 130.521C405.36 130.703 405.654 130.941 405.903 131.236C406.017 131.383 406.079 131.559 406.09 131.763C406.113 131.967 406.022 132.148 405.818 132.307C405.682 132.42 405.517 132.471 405.325 132.459C405.132 132.448 404.973 132.386 404.849 132.272C404.634 132 404.356 131.79 404.016 131.643C403.676 131.484 403.291 131.404 402.86 131.404C402.645 131.404 402.418 131.438 402.18 131.506C401.953 131.562 401.761 131.67 401.602 131.829C401.443 131.987 401.364 132.219 401.364 132.525C401.363 132.809 401.454 133.035 401.635 133.206C401.828 133.376 402.077 133.517 402.383 133.631C402.689 133.744 403.023 133.847 403.386 133.937C403.737 134.028 404.083 134.136 404.423 134.261C404.774 134.386 405.086 134.55 405.357 134.754C405.641 134.947 405.867 135.202 406.037 135.52C406.218 135.826 406.309 136.217 406.308 136.693C406.308 137.248 406.144 137.724 405.815 138.121C405.497 138.506 405.089 138.8 404.59 139.004C404.103 139.208 403.587 139.31 403.043 139.309C402.397 139.309 401.751 139.195 401.105 138.968C400.471 138.73 399.933 138.322 399.491 137.743ZM408.938 132.342C408.655 132.342 408.434 132.268 408.275 132.121C408.128 131.962 408.054 131.741 408.054 131.458L408.054 131.135C408.055 130.851 408.128 130.631 408.276 130.472C408.435 130.313 408.656 130.234 408.939 130.234L409.126 130.234C409.409 130.235 409.625 130.314 409.772 130.473C409.919 130.631 409.993 130.852 409.992 131.136L409.992 131.459C409.992 131.742 409.918 131.963 409.771 132.122C409.624 132.269 409.408 132.343 409.125 132.342L408.938 132.342ZM408.934 139.142C408.651 139.142 408.43 139.063 408.272 138.904C408.124 138.745 408.051 138.524 408.051 138.241L408.051 137.935C408.051 137.64 408.125 137.419 408.272 137.272C408.431 137.113 408.652 137.034 408.935 137.034L409.122 137.034C409.406 137.035 409.621 137.114 409.768 137.273C409.916 137.42 409.989 137.641 409.989 137.936L409.989 138.242C409.989 138.525 409.915 138.746 409.768 138.905C409.62 139.063 409.405 139.143 409.121 139.142L408.934 139.142ZM412.251 141.388C412.081 141.388 411.911 141.32 411.741 141.184C411.571 141.048 411.486 140.878 411.486 140.674C411.486 140.549 411.52 140.43 411.588 140.317L418.65 126.023C418.73 125.865 418.826 125.746 418.94 125.666C419.064 125.587 419.2 125.547 419.348 125.548C419.506 125.548 419.665 125.61 419.824 125.735C419.994 125.86 420.078 126.035 420.078 126.262C420.078 126.387 420.05 126.511 419.993 126.636L412.931 140.929C412.851 141.077 412.755 141.19 412.642 141.269C412.528 141.348 412.398 141.388 412.251 141.388ZM420.087 141.392C419.917 141.392 419.747 141.324 419.577 141.188C419.407 141.052 419.322 140.882 419.322 140.678C419.322 140.553 419.356 140.434 419.424 140.321L426.486 126.027C426.566 125.869 426.662 125.75 426.776 125.67C426.9 125.591 427.036 125.551 427.184 125.552C427.342 125.552 427.501 125.614 427.66 125.739C427.829 125.864 427.914 126.039 427.914 126.266C427.914 126.391 427.886 126.515 427.829 126.64L420.767 140.933C420.687 141.081 420.591 141.194 420.478 141.273C420.364 141.352 420.234 141.392 420.087 141.392ZM430.595 127.236C430.731 127.236 430.873 127.27 431.02 127.338C431.168 127.407 431.281 127.503 431.36 127.628L435.675 134.209L434.944 134.174L439.35 127.632C439.532 127.371 439.764 127.241 440.047 127.241C440.274 127.241 440.472 127.326 440.642 127.496C440.823 127.655 440.914 127.859 440.914 128.109L440.909 138.292C440.909 138.541 440.829 138.75 440.67 138.92C440.512 139.079 440.302 139.158 440.041 139.158C439.769 139.158 439.548 139.078 439.378 138.92C439.22 138.75 439.141 138.54 439.141 138.291L439.145 129.672L439.689 129.791L435.946 135.484C435.867 135.586 435.765 135.677 435.64 135.756C435.515 135.824 435.385 135.852 435.249 135.841C435.124 135.852 434.994 135.824 434.858 135.755C434.733 135.676 434.631 135.585 434.552 135.483L430.951 129.871L431.359 129.192L431.355 138.287C431.355 138.536 431.275 138.746 431.116 138.916C430.969 139.074 430.771 139.153 430.521 139.153C430.283 139.153 430.085 139.074 429.926 138.915C429.779 138.745 429.706 138.535 429.706 138.286L429.711 128.103C429.711 127.865 429.796 127.661 429.966 127.491C430.148 127.321 430.357 127.236 430.595 127.236ZM445.095 138.294C445.095 138.543 445.016 138.753 444.857 138.923C444.698 139.081 444.494 139.16 444.245 139.16C444.007 139.16 443.803 139.081 443.633 138.922C443.474 138.752 443.395 138.542 443.395 138.293L443.399 131.017C443.399 130.767 443.478 130.563 443.637 130.405C443.807 130.235 444.011 130.15 444.249 130.15C444.499 130.15 444.703 130.235 444.861 130.406C445.02 130.564 445.099 130.768 445.099 131.018L445.095 138.294ZM444.233 129.028C443.904 129.028 443.666 128.971 443.519 128.858C443.372 128.733 443.298 128.529 443.298 128.246L443.298 127.974C443.299 127.69 443.378 127.492 443.537 127.379C443.695 127.266 443.933 127.209 444.251 127.209C444.591 127.209 444.834 127.272 444.982 127.397C445.129 127.51 445.203 127.703 445.202 127.975L445.202 128.247C445.202 128.541 445.123 128.745 444.964 128.859C444.817 128.972 444.573 129.028 444.233 129.028ZM449.218 138.296C449.218 138.545 449.133 138.755 448.963 138.925C448.804 139.083 448.605 139.162 448.367 139.162C448.129 139.162 447.926 139.083 447.756 138.924C447.597 138.754 447.518 138.544 447.518 138.295L447.523 127.449C447.524 127.2 447.609 126.996 447.779 126.837C447.949 126.667 448.153 126.582 448.391 126.582C448.64 126.582 448.838 126.668 448.986 126.838C449.144 126.996 449.224 127.2 449.223 127.45L449.218 138.296ZM455.747 139.336C454.806 139.336 453.99 139.142 453.299 138.757C452.608 138.36 452.07 137.821 451.685 137.141C451.311 136.449 451.124 135.662 451.125 134.778C451.125 133.78 451.324 132.93 451.721 132.228C452.13 131.514 452.657 130.97 453.303 130.597C453.949 130.212 454.635 130.019 455.36 130.02C455.916 130.02 456.443 130.134 456.941 130.361C457.44 130.576 457.882 130.882 458.267 131.279C458.663 131.665 458.975 132.124 459.201 132.657C459.427 133.178 459.546 133.751 459.557 134.374C459.546 134.601 459.455 134.788 459.285 134.935C459.115 135.082 458.916 135.156 458.69 135.156L452.077 135.152L451.669 133.707L458.061 133.71L457.738 134.016L457.739 133.591C457.716 133.194 457.586 132.849 457.348 132.554C457.11 132.248 456.816 132.015 456.464 131.856C456.113 131.686 455.745 131.601 455.36 131.601C455.02 131.601 454.691 131.657 454.373 131.77C454.067 131.872 453.79 132.042 453.54 132.28C453.302 132.518 453.109 132.835 452.962 133.232C452.825 133.617 452.757 134.099 452.757 134.677C452.757 135.3 452.887 135.844 453.147 136.309C453.408 136.774 453.759 137.136 454.201 137.397C454.642 137.647 455.13 137.772 455.662 137.772C456.082 137.772 456.427 137.733 456.699 137.654C456.971 137.563 457.198 137.455 457.38 137.331C457.561 137.206 457.72 137.087 457.856 136.974C458.026 136.872 458.196 136.821 458.366 136.821C458.57 136.821 458.74 136.895 458.876 137.043C459.012 137.179 459.08 137.343 459.08 137.536C459.079 137.785 458.955 138.012 458.705 138.216C458.399 138.51 457.974 138.771 457.43 138.997C456.897 139.223 456.336 139.336 455.747 139.336ZM466.088 130.025C466.893 130.026 467.516 130.196 467.958 130.536C468.399 130.865 468.705 131.313 468.875 131.88C469.056 132.435 469.146 133.059 469.146 133.75L469.144 138.306C469.144 138.555 469.058 138.765 468.888 138.935C468.73 139.093 468.531 139.173 468.293 139.172C468.044 139.172 467.84 139.093 467.681 138.934C467.523 138.764 467.444 138.554 467.444 138.305L467.446 133.766C467.446 133.358 467.39 132.995 467.277 132.678C467.163 132.349 466.965 132.088 466.682 131.896C466.41 131.691 466.025 131.589 465.526 131.589C465.061 131.589 464.653 131.691 464.302 131.894C463.95 132.087 463.673 132.347 463.469 132.676C463.276 132.993 463.179 133.356 463.179 133.764L463.177 138.303C463.177 138.552 463.091 138.762 462.921 138.932C462.763 139.09 462.564 139.17 462.326 139.169C462.077 139.169 461.873 139.09 461.714 138.931C461.556 138.761 461.477 138.551 461.477 138.302L461.48 131.094C461.48 130.845 461.56 130.641 461.719 130.482C461.877 130.312 462.081 130.227 462.331 130.227C462.569 130.228 462.767 130.313 462.926 130.483C463.096 130.641 463.18 130.846 463.18 131.095L463.18 132.047L462.874 132.217C462.953 131.967 463.089 131.718 463.282 131.469C463.486 131.208 463.73 130.97 464.013 130.755C464.297 130.529 464.614 130.353 464.966 130.229C465.317 130.093 465.691 130.025 466.088 130.025ZM475.668 139.346C474.728 139.346 473.912 139.153 473.221 138.767C472.53 138.37 471.992 137.831 471.607 137.151C471.233 136.46 471.046 135.672 471.047 134.788C471.047 133.79 471.246 132.941 471.643 132.238C472.051 131.524 472.579 130.981 473.225 130.607C473.871 130.222 474.557 130.03 475.282 130.03C475.838 130.03 476.364 130.144 476.863 130.371C477.362 130.586 477.803 130.893 478.189 131.289C478.585 131.675 478.896 132.134 479.123 132.667C479.349 133.188 479.468 133.761 479.479 134.384C479.468 134.611 479.377 134.798 479.207 134.945C479.037 135.092 478.838 135.166 478.612 135.166L471.999 135.162L471.591 133.717L477.983 133.72L477.66 134.026L477.66 133.601C477.638 133.205 477.508 132.859 477.27 132.564C477.032 132.258 476.738 132.025 476.386 131.867C476.035 131.696 475.667 131.611 475.281 131.611C474.941 131.611 474.613 131.667 474.295 131.78C473.989 131.882 473.711 132.052 473.462 132.29C473.224 132.528 473.031 132.845 472.884 133.242C472.747 133.627 472.679 134.109 472.679 134.687C472.679 135.31 472.809 135.854 473.069 136.319C473.329 136.784 473.681 137.147 474.122 137.407C474.564 137.657 475.052 137.782 475.584 137.782C476.004 137.782 476.349 137.743 476.621 137.664C476.893 137.573 477.12 137.466 477.301 137.341C477.483 137.216 477.642 137.098 477.778 136.984C477.948 136.882 478.118 136.831 478.288 136.832C478.492 136.832 478.662 136.905 478.798 137.053C478.934 137.189 479.001 137.353 479.001 137.546C479.001 137.795 478.876 138.022 478.627 138.226C478.321 138.52 477.896 138.781 477.352 139.007C476.819 139.233 476.258 139.346 475.668 139.346ZM485.891 130.086C486.729 130.087 487.375 130.297 487.828 130.716C488.282 131.125 488.582 131.68 488.729 132.383L488.457 132.298L488.576 132.026C488.723 131.731 488.944 131.437 489.239 131.142C489.545 130.836 489.908 130.587 490.328 130.395C490.747 130.191 491.195 130.089 491.671 130.089C492.453 130.09 493.059 130.26 493.489 130.6C493.92 130.929 494.22 131.377 494.39 131.944C494.559 132.499 494.644 133.122 494.644 133.814L494.642 138.319C494.641 138.568 494.562 138.778 494.403 138.948C494.244 139.106 494.04 139.186 493.791 139.185C493.553 139.185 493.349 139.106 493.179 138.947C493.021 138.777 492.941 138.567 492.942 138.318L492.944 133.83C492.944 133.433 492.888 133.071 492.774 132.742C492.673 132.413 492.486 132.152 492.214 131.96C491.953 131.755 491.591 131.653 491.126 131.653C490.684 131.653 490.287 131.755 489.936 131.958C489.596 132.151 489.329 132.411 489.136 132.74C488.944 133.069 488.847 133.431 488.847 133.828L488.845 138.316C488.844 138.565 488.765 138.775 488.606 138.945C488.447 139.103 488.243 139.183 487.994 139.182C487.745 139.182 487.541 139.103 487.382 138.944C487.224 138.774 487.144 138.564 487.145 138.315L487.147 133.81C487.147 133.413 487.091 133.051 486.977 132.722C486.876 132.393 486.694 132.132 486.434 131.94C486.173 131.747 485.811 131.65 485.346 131.65C484.904 131.65 484.513 131.746 484.173 131.939C483.833 132.131 483.566 132.392 483.373 132.72C483.192 133.049 483.101 133.411 483.101 133.808L483.099 138.313C483.098 138.562 483.013 138.772 482.843 138.942C482.684 139.1 482.486 139.18 482.248 139.18C481.999 139.179 481.795 139.1 481.636 138.941C481.478 138.771 481.398 138.561 481.399 138.312L481.402 131.104C481.402 130.855 481.482 130.651 481.64 130.492C481.799 130.322 482.003 130.237 482.253 130.238C482.491 130.238 482.689 130.323 482.847 130.493C483.017 130.652 483.102 130.856 483.102 131.105L483.102 132.108L482.779 132.295C482.858 132.046 482.988 131.791 483.17 131.53C483.351 131.269 483.578 131.032 483.85 130.816C484.134 130.601 484.446 130.426 484.786 130.29C485.126 130.154 485.494 130.086 485.891 130.086ZM498.619 138.321C498.618 138.57 498.539 138.78 498.38 138.95C498.222 139.108 498.017 139.188 497.768 139.187C497.53 139.187 497.326 139.108 497.156 138.949C496.998 138.779 496.918 138.569 496.919 138.32L496.922 131.044C496.922 130.795 497.002 130.591 497.161 130.432C497.331 130.262 497.535 130.177 497.773 130.177C498.022 130.178 498.226 130.263 498.385 130.433C498.543 130.591 498.622 130.796 498.622 131.045L498.619 138.321ZM497.756 129.055C497.428 129.055 497.19 128.998 497.042 128.885C496.895 128.76 496.822 128.556 496.822 128.273L496.822 128.001C496.822 127.718 496.901 127.519 497.06 127.406C497.219 127.293 497.457 127.236 497.774 127.236C498.114 127.237 498.358 127.299 498.505 127.424C498.652 127.537 498.726 127.73 498.726 128.002L498.726 128.274C498.726 128.569 498.646 128.773 498.487 128.886C498.34 128.999 498.096 129.056 497.756 129.055ZM505.517 130.045C506.321 130.046 506.944 130.216 507.386 130.556C507.828 130.885 508.134 131.333 508.304 131.9C508.485 132.455 508.575 133.079 508.575 133.77L508.572 138.326C508.572 138.575 508.487 138.785 508.317 138.955C508.158 139.113 507.96 139.193 507.722 139.192C507.473 139.192 507.269 139.113 507.11 138.954C506.951 138.784 506.872 138.574 506.872 138.325L506.875 133.786C506.875 133.378 506.818 133.015 506.705 132.698C506.592 132.369 506.394 132.108 506.111 131.916C505.839 131.712 505.453 131.609 504.955 131.609C504.49 131.609 504.082 131.711 503.731 131.914C503.379 132.107 503.101 132.367 502.897 132.696C502.704 133.013 502.608 133.376 502.608 133.784L502.605 138.323C502.605 138.572 502.52 138.782 502.35 138.952C502.191 139.11 501.993 139.19 501.755 139.189C501.506 139.189 501.302 139.11 501.143 138.951C500.984 138.781 500.905 138.571 500.905 138.322L500.909 131.114C500.909 130.865 500.989 130.661 501.147 130.502C501.306 130.332 501.51 130.247 501.759 130.247C501.997 130.248 502.196 130.333 502.354 130.503C502.524 130.661 502.609 130.866 502.609 131.115L502.609 132.067L502.302 132.237C502.382 131.987 502.518 131.738 502.711 131.489C502.915 131.228 503.159 130.99 503.442 130.775C503.726 130.549 504.043 130.373 504.394 130.249C504.746 130.113 505.12 130.045 505.517 130.045ZM511.578 139.177C511.295 139.177 511.074 139.098 510.915 138.939C510.768 138.78 510.695 138.559 510.695 138.276L510.695 137.97C510.695 137.687 510.769 137.466 510.916 137.307C511.075 137.149 511.296 137.069 511.579 137.069L511.766 137.07C512.05 137.07 512.265 137.149 512.412 137.308C512.559 137.467 512.633 137.688 512.633 137.971L512.633 138.277C512.633 138.56 512.559 138.781 512.411 138.94C512.264 139.098 512.049 139.178 511.765 139.178L511.578 139.177ZM519.975 127.299C520.803 127.299 521.534 127.458 522.168 127.776C522.803 128.082 523.329 128.513 523.748 129.069C524.179 129.613 524.501 130.248 524.716 130.973C524.931 131.687 525.039 132.447 525.038 133.251C525.038 134.351 524.844 135.354 524.459 136.26C524.073 137.155 523.506 137.869 522.758 138.401C522.009 138.933 521.08 139.199 519.969 139.199L515.821 139.197C515.583 139.196 515.379 139.117 515.209 138.958C515.039 138.788 514.955 138.578 514.955 138.329L514.96 128.163C514.96 127.914 515.045 127.71 515.215 127.551C515.385 127.381 515.589 127.296 515.827 127.297L519.975 127.299ZM519.8 137.567C520.605 137.567 521.256 137.369 521.755 136.973C522.254 136.576 522.617 136.055 522.844 135.409C523.082 134.752 523.202 134.032 523.202 133.25C523.203 132.672 523.135 132.128 522.999 131.618C522.875 131.097 522.671 130.638 522.388 130.241C522.116 129.833 521.765 129.515 521.334 129.288C520.915 129.05 520.405 128.931 519.804 128.931L516.591 128.929L516.745 128.776L516.74 137.735L516.638 137.565L519.8 137.567ZM527.922 139.203C527.684 139.203 527.48 139.123 527.31 138.964C527.152 138.794 527.072 138.585 527.073 138.335L527.078 127.489C527.078 127.24 527.158 127.036 527.316 126.877C527.486 126.708 527.691 126.623 527.929 126.623C528.178 126.623 528.382 126.708 528.54 126.878C528.699 127.037 528.778 127.241 528.778 127.49L528.773 138.336C528.772 138.586 528.693 138.795 528.534 138.965C528.376 139.124 528.171 139.203 527.922 139.203ZM533.469 130.23C533.684 130.23 533.871 130.32 534.03 130.502C534.188 130.683 534.267 130.865 534.267 131.046C534.267 131.273 534.159 131.482 533.944 131.675L528.621 136.432L528.554 134.477L532.84 130.501C533.021 130.32 533.231 130.229 533.469 130.23ZM533.668 139.189C533.43 139.189 533.226 139.092 533.056 138.899L529.658 135.311L530.951 134.121L534.264 137.71C534.445 137.903 534.536 138.118 534.536 138.356C534.535 138.605 534.433 138.809 534.229 138.968C534.037 139.115 533.849 139.189 533.668 139.189ZM536.38 141.451C536.21 141.451 536.041 141.383 535.871 141.247C535.701 141.111 535.616 140.941 535.616 140.737C535.616 140.612 535.65 140.493 535.718 140.38L542.78 126.086C542.86 125.928 542.956 125.809 543.069 125.729C543.194 125.65 543.33 125.611 543.478 125.611C543.636 125.611 543.795 125.673 543.953 125.798C544.123 125.923 544.208 126.098 544.208 126.325C544.208 126.45 544.18 126.574 544.123 126.699L537.061 140.992C536.981 141.14 536.885 141.253 536.772 141.332C536.658 141.412 536.528 141.451 536.38 141.451ZM549.654 139.384C548.838 139.383 548.113 139.27 547.478 139.043C546.844 138.816 546.238 138.441 545.66 137.92C545.535 137.829 545.439 137.721 545.371 137.597C545.314 137.461 545.286 137.325 545.286 137.189C545.286 136.973 545.366 136.781 545.524 136.611C545.683 136.441 545.882 136.356 546.12 136.356C546.301 136.356 546.471 136.418 546.629 136.543C547.06 136.94 547.507 137.241 547.972 137.445C548.448 137.649 549.003 137.751 549.638 137.752C550.091 137.752 550.505 137.679 550.879 137.531C551.264 137.384 551.57 137.186 551.797 136.937C552.024 136.688 552.138 136.399 552.138 136.07C552.138 135.662 552.019 135.328 551.781 135.067C551.555 134.795 551.22 134.574 550.779 134.403C550.348 134.222 549.827 134.069 549.215 133.944C548.648 133.841 548.138 133.699 547.685 133.518C547.243 133.336 546.864 133.109 546.546 132.837C546.229 132.554 545.986 132.219 545.816 131.834C545.646 131.448 545.561 131.001 545.562 130.491C545.562 129.799 545.744 129.204 546.106 128.706C546.469 128.207 546.963 127.822 547.586 127.551C548.21 127.279 548.912 127.143 549.694 127.144C550.408 127.144 551.077 127.258 551.7 127.485C552.323 127.7 552.827 127.995 553.213 128.37C553.485 128.608 553.62 128.863 553.62 129.135C553.62 129.339 553.535 129.531 553.365 129.713C553.206 129.883 553.019 129.967 552.804 129.967C552.645 129.967 552.509 129.922 552.396 129.831C552.215 129.638 551.971 129.468 551.665 129.321C551.359 129.162 551.031 129.031 550.679 128.929C550.339 128.827 550.011 128.776 549.693 128.776C549.183 128.776 548.747 128.849 548.384 128.996C548.022 129.132 547.744 129.324 547.551 129.574C547.358 129.812 547.262 130.095 547.262 130.424C547.261 130.809 547.369 131.126 547.584 131.376C547.811 131.625 548.122 131.829 548.519 131.988C548.915 132.136 549.369 132.272 549.879 132.397C550.502 132.533 551.057 132.686 551.544 132.857C552.043 133.027 552.462 133.248 552.802 133.52C553.142 133.781 553.402 134.11 553.584 134.507C553.765 134.904 553.855 135.397 553.855 135.986C553.854 136.666 553.661 137.261 553.276 137.771C552.89 138.28 552.38 138.677 551.745 138.96C551.122 139.243 550.425 139.384 549.654 139.384ZM560.368 130.073C561.173 130.074 561.796 130.244 562.238 130.584C562.68 130.913 562.985 131.361 563.155 131.928C563.336 132.483 563.427 133.106 563.426 133.798L563.424 138.354C563.424 138.603 563.339 138.813 563.169 138.983C563.01 139.141 562.811 139.22 562.573 139.22C562.324 139.22 562.12 139.141 561.962 138.982C561.803 138.812 561.724 138.602 561.724 138.353L561.726 133.814C561.726 133.406 561.67 133.043 561.557 132.726C561.444 132.397 561.245 132.136 560.962 131.944C560.69 131.739 560.305 131.637 559.806 131.637C559.342 131.637 558.934 131.738 558.582 131.942C558.231 132.135 557.953 132.395 557.749 132.724C557.556 133.041 557.459 133.404 557.459 133.812L557.457 138.351C557.457 138.6 557.372 138.81 557.202 138.98C557.043 139.138 556.844 139.217 556.606 139.217C556.357 139.217 556.153 139.138 555.995 138.979C555.836 138.809 555.757 138.599 555.757 138.35L555.761 131.142C555.761 130.893 555.84 130.689 555.999 130.53C556.158 130.36 556.362 130.275 556.611 130.275C556.849 130.275 557.047 130.361 557.206 130.531C557.376 130.689 557.461 130.893 557.461 131.143L557.46 132.095L557.154 132.265C557.233 132.015 557.37 131.766 557.562 131.517C557.766 131.256 558.01 131.018 558.294 130.803C558.577 130.577 558.895 130.401 559.246 130.277C559.597 130.141 559.971 130.073 560.368 130.073ZM573.115 130.148C573.365 130.148 573.569 130.233 573.727 130.403C573.886 130.562 573.965 130.766 573.965 131.015L573.961 138.359C573.961 138.608 573.882 138.818 573.723 138.988C573.564 139.147 573.36 139.226 573.111 139.226C572.873 139.226 572.669 139.146 572.499 138.987C572.34 138.817 572.261 138.608 572.261 138.358L572.262 137.134L572.619 137.185C572.619 137.389 572.534 137.616 572.363 137.865C572.205 138.115 571.984 138.358 571.7 138.596C571.417 138.823 571.082 139.015 570.697 139.173C570.311 139.321 569.898 139.394 569.456 139.394C568.674 139.393 567.971 139.195 567.348 138.798C566.725 138.389 566.232 137.834 565.87 137.131C565.508 136.428 565.327 135.629 565.327 134.734C565.328 133.816 565.509 133.011 565.872 132.32C566.235 131.618 566.723 131.068 567.335 130.672C567.959 130.275 568.65 130.077 569.409 130.078C569.897 130.078 570.344 130.158 570.752 130.317C571.172 130.475 571.534 130.68 571.84 130.929C572.146 131.179 572.378 131.445 572.537 131.728C572.706 132 572.791 132.261 572.791 132.511L572.264 132.561L572.265 131.014C572.265 130.776 572.345 130.572 572.503 130.402C572.673 130.232 572.877 130.148 573.115 130.148ZM569.644 137.83C570.176 137.83 570.647 137.694 571.055 137.423C571.463 137.151 571.78 136.783 572.007 136.318C572.234 135.842 572.348 135.315 572.348 134.737C572.348 134.148 572.235 133.621 572.009 133.156C571.782 132.691 571.465 132.323 571.057 132.051C570.65 131.778 570.179 131.642 569.647 131.642C569.125 131.642 568.661 131.777 568.252 132.049C567.856 132.321 567.538 132.689 567.3 133.154C567.073 133.618 566.959 134.145 566.959 134.735C566.959 135.313 567.072 135.84 567.298 136.316C567.536 136.781 567.853 137.149 568.25 137.421C568.658 137.693 569.122 137.83 569.644 137.83ZM577.941 138.361C577.941 138.61 577.861 138.82 577.703 138.99C577.544 139.149 577.34 139.228 577.09 139.228C576.852 139.228 576.648 139.148 576.479 138.989C576.32 138.819 576.241 138.61 576.241 138.36L576.245 131.084C576.245 130.835 576.324 130.631 576.483 130.472C576.653 130.303 576.857 130.218 577.095 130.218C577.344 130.218 577.548 130.303 577.707 130.473C577.865 130.632 577.945 130.836 577.945 131.085L577.941 138.361ZM577.079 129.096C576.75 129.096 576.512 129.039 576.365 128.925C576.217 128.801 576.144 128.597 576.144 128.313L576.144 128.041C576.144 127.758 576.224 127.56 576.382 127.446C576.541 127.333 576.779 127.277 577.096 127.277C577.436 127.277 577.68 127.339 577.827 127.464C577.975 127.578 578.048 127.77 578.048 128.042L578.048 128.314C578.048 128.609 577.968 128.813 577.81 128.926C577.662 129.039 577.419 129.096 577.079 129.096ZM582.064 138.363C582.063 138.613 581.978 138.822 581.808 138.992C581.65 139.151 581.451 139.23 581.213 139.23C580.975 139.23 580.771 139.15 580.601 138.992C580.443 138.821 580.363 138.612 580.364 138.362L580.369 127.516C580.369 127.267 580.454 127.063 580.624 126.905C580.795 126.735 580.999 126.65 581.237 126.65C581.486 126.65 581.684 126.735 581.831 126.905C581.99 127.064 582.069 127.268 582.069 127.517L582.064 138.363ZM585.157 134.829C584.919 134.829 584.715 134.749 584.545 134.591C584.386 134.42 584.307 134.216 584.307 133.978C584.307 133.729 584.387 133.531 584.545 133.384C584.715 133.225 584.919 133.146 585.157 133.146L588.353 133.147C588.591 133.148 588.795 133.233 588.965 133.403C589.135 133.562 589.22 133.766 589.22 134.015C589.22 134.242 589.135 134.434 588.965 134.593C588.795 134.751 588.591 134.831 588.353 134.83L585.157 134.829ZM595.726 129.547L591.896 138.725C591.828 138.907 591.726 139.048 591.59 139.15C591.454 139.252 591.301 139.303 591.131 139.303C590.881 139.303 590.694 139.235 590.57 139.099C590.445 138.951 590.377 138.77 590.366 138.554C590.366 138.475 590.383 138.384 590.417 138.282L594.741 127.847C594.82 127.654 594.933 127.507 595.081 127.405C595.24 127.303 595.41 127.258 595.591 127.269C595.761 127.269 595.92 127.32 596.067 127.422C596.214 127.524 596.322 127.666 596.39 127.848L600.651 138.135C600.697 138.248 600.719 138.361 600.719 138.475C600.719 138.724 600.634 138.928 600.464 139.087C600.305 139.234 600.124 139.307 599.92 139.307C599.75 139.307 599.591 139.256 599.444 139.154C599.308 139.041 599.206 138.899 599.138 138.729L595.284 129.598L595.726 129.547ZM592.577 136.312L593.343 134.68L598.154 134.682L598.442 136.315L592.577 136.312ZM601.993 130.4L605.988 130.402C606.215 130.403 606.402 130.482 606.549 130.641C606.708 130.788 606.787 130.975 606.787 131.202C606.787 131.417 606.708 131.598 606.549 131.746C606.401 131.893 606.214 131.967 605.988 131.966L601.993 131.964C601.766 131.964 601.573 131.891 601.415 131.743C601.268 131.584 601.194 131.397 601.194 131.182C601.194 130.955 601.268 130.768 601.415 130.621C601.574 130.474 601.767 130.4 601.993 130.4ZM603.78 128.191C604.029 128.191 604.233 128.277 604.391 128.447C604.55 128.605 604.629 128.809 604.629 129.059L604.625 136.947C604.625 137.151 604.659 137.315 604.727 137.44C604.795 137.564 604.885 137.65 604.999 137.695C605.123 137.74 605.248 137.763 605.373 137.763C605.497 137.763 605.605 137.741 605.696 137.695C605.798 137.65 605.917 137.627 606.053 137.627C606.189 137.628 606.313 137.69 606.427 137.815C606.54 137.939 606.597 138.109 606.596 138.325C606.596 138.597 606.449 138.818 606.154 138.987C605.859 139.157 605.542 139.242 605.202 139.242C605.009 139.242 604.783 139.225 604.522 139.191C604.261 139.157 604.006 139.071 603.757 138.935C603.519 138.799 603.321 138.584 603.162 138.289C603.004 137.983 602.925 137.558 602.925 137.014L602.929 129.058C602.929 128.809 603.009 128.605 603.167 128.446C603.338 128.276 603.542 128.191 603.78 128.191ZM608.551 130.404L612.546 130.406C612.773 130.406 612.96 130.485 613.107 130.644C613.266 130.791 613.345 130.978 613.345 131.205C613.345 131.42 613.265 131.602 613.106 131.749C612.959 131.896 612.772 131.97 612.545 131.97L608.55 131.968C608.324 131.968 608.131 131.894 607.972 131.746C607.825 131.588 607.752 131.401 607.752 131.185C607.752 130.959 607.826 130.772 607.973 130.624C608.132 130.477 608.324 130.404 608.551 130.404ZM610.337 128.195C610.587 128.195 610.791 128.28 610.949 128.45C611.108 128.609 611.187 128.813 611.187 129.062L611.183 136.95C611.183 137.154 611.217 137.318 611.285 137.443C611.352 137.568 611.443 137.653 611.556 137.698C611.681 137.744 611.806 137.766 611.93 137.766C612.055 137.766 612.163 137.744 612.253 137.699C612.355 137.653 612.474 137.631 612.61 137.631C612.746 137.631 612.871 137.693 612.984 137.818C613.098 137.943 613.154 138.113 613.154 138.328C613.154 138.6 613.007 138.821 612.712 138.991C612.417 139.161 612.1 139.246 611.76 139.245C611.567 139.245 611.34 139.228 611.08 139.194C610.819 139.16 610.564 139.075 610.315 138.939C610.077 138.802 609.879 138.587 609.72 138.292C609.562 137.986 609.482 137.561 609.483 137.017L609.487 129.061C609.487 128.812 609.566 128.608 609.725 128.449C609.895 128.279 610.099 128.195 610.337 128.195ZM622.555 130.173C622.804 130.173 623.008 130.258 623.167 130.428C623.325 130.587 623.405 130.791 623.404 131.04L623.401 138.384C623.401 138.634 623.321 138.843 623.162 139.013C623.004 139.172 622.8 139.251 622.55 139.251C622.312 139.251 622.108 139.171 621.938 139.013C621.78 138.842 621.701 138.633 621.701 138.383L621.701 137.159L622.058 137.211C622.058 137.415 621.973 137.641 621.803 137.89C621.644 138.14 621.423 138.383 621.14 138.621C620.856 138.848 620.522 139.04 620.136 139.199C619.751 139.346 619.337 139.419 618.895 139.419C618.113 139.419 617.411 139.22 616.787 138.823C616.164 138.415 615.672 137.859 615.309 137.156C614.947 136.453 614.766 135.654 614.767 134.759C614.767 133.841 614.949 133.036 615.312 132.345C615.675 131.643 616.162 131.093 616.775 130.697C617.398 130.301 618.09 130.103 618.849 130.103C619.336 130.103 619.784 130.183 620.192 130.342C620.611 130.501 620.974 130.705 621.279 130.954C621.585 131.204 621.818 131.47 621.976 131.754C622.146 132.026 622.231 132.286 622.231 132.536L621.704 132.586L621.704 131.039C621.705 130.801 621.784 130.597 621.943 130.428C622.113 130.258 622.317 130.173 622.555 130.173ZM619.083 137.855C619.616 137.855 620.086 137.72 620.494 137.448C620.902 137.176 621.22 136.808 621.447 136.343C621.674 135.867 621.787 135.34 621.788 134.762C621.788 134.173 621.675 133.646 621.448 133.181C621.222 132.716 620.905 132.348 620.497 132.076C620.089 131.804 619.619 131.667 619.086 131.667C618.565 131.667 618.1 131.803 617.692 132.074C617.295 132.346 616.978 132.714 616.739 133.179C616.512 133.643 616.399 134.17 616.399 134.76C616.398 135.338 616.511 135.865 616.738 136.341C616.975 136.806 617.293 137.174 617.689 137.446C618.097 137.719 618.562 137.855 619.083 137.855ZM629.747 130.108C630.359 130.109 630.903 130.177 631.379 130.313C631.855 130.438 632.224 130.62 632.484 130.858C632.756 131.085 632.892 131.351 632.892 131.657C632.892 131.85 632.835 132.031 632.721 132.201C632.608 132.36 632.438 132.439 632.211 132.439C632.053 132.439 631.917 132.41 631.803 132.354C631.701 132.297 631.605 132.229 631.514 132.149C631.424 132.07 631.311 131.991 631.175 131.911C631.05 131.843 630.863 131.786 630.614 131.741C630.376 131.695 630.16 131.673 629.968 131.673C629.367 131.672 628.846 131.808 628.403 132.08C627.973 132.352 627.632 132.72 627.383 133.184C627.145 133.649 627.025 134.176 627.025 134.765C627.025 135.354 627.144 135.881 627.381 136.346C627.63 136.811 627.965 137.18 628.384 137.452C628.814 137.724 629.313 137.86 629.88 137.861C630.22 137.861 630.497 137.838 630.713 137.793C630.928 137.736 631.115 137.669 631.274 137.589C631.444 137.487 631.585 137.385 631.699 137.283C631.824 137.17 631.994 137.114 632.209 137.114C632.458 137.114 632.645 137.193 632.77 137.352C632.906 137.499 632.974 137.686 632.974 137.913C632.973 138.162 632.82 138.406 632.514 138.644C632.219 138.87 631.823 139.057 631.324 139.204C630.825 139.351 630.275 139.425 629.675 139.424C628.791 139.424 628.02 139.22 627.363 138.811C626.717 138.403 626.213 137.847 625.851 137.145C625.5 136.442 625.325 135.648 625.325 134.764C625.326 133.869 625.513 133.076 625.887 132.385C626.262 131.682 626.783 131.127 627.452 130.719C628.121 130.312 628.886 130.108 629.747 130.108ZM635.583 139.257C635.345 139.257 635.141 139.178 634.971 139.019C634.813 138.849 634.734 138.639 634.734 138.39L634.739 127.544C634.739 127.295 634.819 127.091 634.978 126.932C635.148 126.762 635.352 126.677 635.59 126.677C635.839 126.678 636.043 126.763 636.202 126.933C636.36 127.092 636.439 127.296 636.439 127.545L636.434 138.391C636.434 138.64 636.354 138.85 636.195 139.02C636.037 139.178 635.833 139.258 635.583 139.257ZM641.13 130.284C641.345 130.284 641.532 130.375 641.691 130.557C641.849 130.738 641.928 130.919 641.928 131.101C641.928 131.327 641.821 131.537 641.605 131.73L636.282 136.487L636.215 134.532L640.501 130.556C640.682 130.375 640.892 130.284 641.13 130.284ZM641.329 139.243C641.091 139.243 640.887 139.147 640.717 138.954L637.319 135.365L638.612 134.176L641.925 137.765C642.106 137.957 642.197 138.173 642.197 138.411C642.197 138.66 642.094 138.864 641.89 139.023C641.698 139.17 641.511 139.243 641.329 139.243ZM644.042 141.506C643.872 141.506 643.702 141.438 643.532 141.301C643.362 141.165 643.277 140.995 643.277 140.791C643.277 140.667 643.311 140.548 643.379 140.434L650.441 126.141C650.521 125.982 650.617 125.863 650.731 125.784C650.855 125.705 650.991 125.665 651.139 125.665C651.297 125.665 651.456 125.728 651.615 125.853C651.784 125.977 651.869 126.153 651.869 126.38C651.869 126.504 651.841 126.629 651.784 126.754L644.722 141.047C644.642 141.194 644.546 141.308 644.433 141.387C644.319 141.466 644.189 141.506 644.042 141.506Z" fill="#4F5057"/>
</svg>
