<svg width="1450" height="546" viewBox="0 0 1450 546" fill="none" xmlns="http://www.w3.org/2000/svg">
<path d="M96.9844 396.987C43.4214 319.548 63.8738 212.591 142.666 158.092C221.458 103.593 328.754 122.189 382.317 199.629C435.88 277.068 415.427 384.025 336.635 438.524C257.843 493.023 150.547 474.426 96.9844 396.987Z" fill="#FCD993"/>
<path d="M196.842 348.077C145.217 273.441 166.227 169.457 243.769 115.823C321.311 62.1891 426.02 79.2153 477.645 153.852C529.27 228.489 508.26 332.472 430.718 386.106C353.176 439.74 248.466 422.714 196.842 348.077Z" fill="#FFFBF5"/>
<path d="M290.602 157.157C293.635 157.707 301.247 159.181 308.818 165.551C311.608 167.899 315.941 171.632 318.925 178.478C322.066 185.68 321.9 192.159 321.839 193.657C321.773 195.217 321.374 202.415 316.976 209.824C312.739 216.962 307.2 220.239 303.578 222.322C301.878 223.299 293.463 227.966 281.818 227.473C278.277 227.322 269.637 226.84 260.805 220.625C257.696 218.439 252 214.314 248.313 206.137C247.291 203.87 244.791 198.144 245.166 190.269C245.259 188.345 245.714 182.279 249.205 175.834C251.713 171.203 254.633 168.507 256.489 166.827C261.539 162.249 266.456 160.357 269.642 159.171C273.768 157.63 277.037 157.108 278.058 156.958C280.462 156.605 285.034 156.161 290.599 157.166L290.602 157.157Z" fill="#FFD278" fill-opacity="0.78" stroke="white" stroke-width="0.25" stroke-linecap="round" stroke-linejoin="round"/>
<path d="M259.656 353.884C260.244 353.884 260.734 354.08 261.126 354.472C261.546 354.864 261.756 355.354 261.756 355.942C261.756 356.53 261.546 357.02 261.126 357.412C260.734 357.804 260.244 358 259.656 358H245.544C244.928 358 244.41 357.804 243.99 357.412C243.598 356.992 243.402 356.474 243.402 355.858V330.742C243.402 330.126 243.612 329.622 244.032 329.23C244.452 328.81 244.998 328.6 245.67 328.6C246.23 328.6 246.72 328.81 247.14 329.23C247.588 329.622 247.812 330.126 247.812 330.742V354.598L246.93 353.884H259.656ZM270.062 355.858C270.062 356.474 269.866 356.992 269.474 357.412C269.082 357.804 268.578 358 267.962 358C267.374 358 266.87 357.804 266.45 357.412C266.058 356.992 265.862 356.474 265.862 355.858V337.882C265.862 337.266 266.058 336.762 266.45 336.37C266.87 335.95 267.374 335.74 267.962 335.74C268.578 335.74 269.082 335.95 269.474 336.37C269.866 336.762 270.062 337.266 270.062 337.882V355.858ZM267.92 332.968C267.108 332.968 266.52 332.828 266.156 332.548C265.792 332.24 265.61 331.736 265.61 331.036V330.364C265.61 329.664 265.806 329.174 266.198 328.894C266.59 328.614 267.178 328.474 267.962 328.474C268.802 328.474 269.404 328.628 269.768 328.936C270.132 329.216 270.314 329.692 270.314 330.364V331.036C270.314 331.764 270.118 332.268 269.726 332.548C269.362 332.828 268.76 332.968 267.92 332.968ZM287.093 335.404C289.081 335.404 290.621 335.824 291.713 336.664C292.805 337.476 293.561 338.582 293.981 339.982C294.429 341.354 294.653 342.894 294.653 344.602V355.858C294.653 356.474 294.443 356.992 294.023 357.412C293.631 357.804 293.141 358 292.553 358C291.937 358 291.433 357.804 291.041 357.412C290.649 356.992 290.453 356.474 290.453 355.858V344.644C290.453 343.636 290.313 342.74 290.033 341.956C289.753 341.144 289.263 340.5 288.563 340.024C287.891 339.52 286.939 339.268 285.707 339.268C284.559 339.268 283.551 339.52 282.683 340.024C281.815 340.5 281.129 341.144 280.625 341.956C280.149 342.74 279.911 343.636 279.911 344.644V355.858C279.911 356.474 279.701 356.992 279.281 357.412C278.889 357.804 278.399 358 277.811 358C277.195 358 276.691 357.804 276.299 357.412C275.907 356.992 275.711 356.474 275.711 355.858V338.05C275.711 337.434 275.907 336.93 276.299 336.538C276.691 336.118 277.195 335.908 277.811 335.908C278.399 335.908 278.889 336.118 279.281 336.538C279.701 336.93 279.911 337.434 279.911 338.05V340.402L279.155 340.822C279.351 340.206 279.687 339.59 280.163 338.974C280.667 338.33 281.269 337.742 281.969 337.21C282.669 336.65 283.453 336.216 284.321 335.908C285.189 335.572 286.113 335.404 287.093 335.404ZM302.921 358C302.333 358 301.829 357.804 301.409 357.412C301.017 356.992 300.821 356.474 300.821 355.858V329.062C300.821 328.446 301.017 327.942 301.409 327.55C301.829 327.13 302.333 326.92 302.921 326.92C303.537 326.92 304.041 327.13 304.433 327.55C304.825 327.942 305.021 328.446 305.021 329.062V355.858C305.021 356.474 304.825 356.992 304.433 357.412C304.041 357.804 303.537 358 302.921 358ZM316.613 335.824C317.145 335.824 317.607 336.048 317.999 336.496C318.391 336.944 318.587 337.392 318.587 337.84C318.587 338.4 318.321 338.918 317.789 339.394L304.643 351.154L304.475 346.324L315.059 336.496C315.507 336.048 316.025 335.824 316.613 335.824ZM317.117 357.958C316.529 357.958 316.025 357.72 315.605 357.244L307.205 348.382L310.397 345.442L318.587 354.304C319.035 354.78 319.259 355.312 319.259 355.9C319.259 356.516 319.007 357.02 318.503 357.412C318.027 357.776 317.565 357.958 317.117 357.958ZM345.632 358C344.96 358 344.414 357.804 343.994 357.412C343.602 356.992 343.406 356.474 343.406 355.858V330.7H347.9V355.858C347.9 356.474 347.676 356.992 347.228 357.412C346.808 357.804 346.276 358 345.632 358ZM336.098 332.632C335.51 332.632 335.006 332.45 334.586 332.086C334.166 331.694 333.956 331.19 333.956 330.574C333.956 329.986 334.166 329.51 334.586 329.146C335.006 328.782 335.51 328.6 336.098 328.6H355.208C355.796 328.6 356.286 328.796 356.678 329.188C357.098 329.552 357.308 330.028 357.308 330.616C357.308 331.232 357.098 331.722 356.678 332.086C356.286 332.45 355.796 332.632 355.208 332.632H336.098ZM365.546 355.858C365.546 356.474 365.35 356.992 364.958 357.412C364.566 357.804 364.062 358 363.446 358C362.858 358 362.354 357.804 361.934 357.412C361.542 356.992 361.346 356.474 361.346 355.858V337.882C361.346 337.266 361.542 336.762 361.934 336.37C362.354 335.95 362.858 335.74 363.446 335.74C364.062 335.74 364.566 335.95 364.958 336.37C365.35 336.762 365.546 337.266 365.546 337.882V355.858ZM363.404 332.968C362.592 332.968 362.004 332.828 361.64 332.548C361.276 332.24 361.094 331.736 361.094 331.036V330.364C361.094 329.664 361.29 329.174 361.682 328.894C362.074 328.614 362.662 328.474 363.446 328.474C364.286 328.474 364.888 328.628 365.252 328.936C365.616 329.216 365.798 329.692 365.798 330.364V331.036C365.798 331.764 365.602 332.268 365.21 332.548C364.846 332.828 364.244 332.968 363.404 332.968ZM375.732 355.858C375.732 356.474 375.522 356.992 375.102 357.412C374.71 357.804 374.22 358 373.632 358C373.044 358 372.54 357.804 372.12 357.412C371.728 356.992 371.532 356.474 371.532 355.858V329.062C371.532 328.446 371.742 327.942 372.162 327.55C372.582 327.13 373.086 326.92 373.674 326.92C374.29 326.92 374.78 327.13 375.144 327.55C375.536 327.942 375.732 328.446 375.732 329.062V355.858ZM396.402 328.6C396.962 328.6 397.452 328.81 397.872 329.23C398.32 329.622 398.544 330.126 398.544 330.742V355.858C398.516 356.474 398.278 356.992 397.83 357.412C397.41 357.804 396.906 358 396.318 358C395.674 358 395.142 357.804 394.722 357.412C394.33 356.992 394.134 356.474 394.134 355.858V330.742C394.134 330.126 394.344 329.622 394.764 329.23C395.184 328.81 395.73 328.6 396.402 328.6ZM415.344 328.6C416.016 328.6 416.548 328.81 416.94 329.23C417.332 329.622 417.528 330.126 417.528 330.742V355.858C417.528 356.474 417.318 356.992 416.898 357.412C416.506 357.804 415.974 358 415.302 358C414.714 358 414.21 357.804 413.79 357.412C413.37 356.992 413.16 356.474 413.16 355.858V330.742C413.16 330.126 413.37 329.622 413.79 329.23C414.238 328.81 414.756 328.6 415.344 328.6ZM396.234 341.116H415.386L415.344 345.148H396.192L396.234 341.116ZM428.648 358.924C428.648 360.436 428.34 361.738 427.724 362.83C427.108 363.922 426.296 364.762 425.288 365.35C424.28 365.938 423.202 366.232 422.054 366.232C421.466 366.232 420.99 366.036 420.626 365.644C420.262 365.28 420.08 364.832 420.08 364.3V363.922C420.08 363.418 420.262 363.012 420.626 362.704C420.962 362.396 421.382 362.158 421.886 361.99C422.53 361.794 423.034 361.5 423.398 361.108C423.79 360.744 424.056 360.268 424.196 359.68C424.364 359.12 424.448 358.504 424.448 357.832V338.008C424.448 337.42 424.644 336.93 425.036 336.538C425.428 336.118 425.932 335.908 426.548 335.908C427.164 335.908 427.668 336.118 428.06 336.538C428.452 336.93 428.648 337.42 428.648 338.008V358.924ZM426.464 332.968C425.652 332.968 425.064 332.828 424.7 332.548C424.336 332.24 424.154 331.736 424.154 331.036V330.364C424.154 329.664 424.35 329.174 424.742 328.894C425.134 328.614 425.722 328.474 426.506 328.474C427.346 328.474 427.948 328.628 428.312 328.936C428.676 329.216 428.858 329.692 428.858 330.364V331.036C428.858 331.764 428.662 332.268 428.27 332.548C427.906 332.828 427.304 332.968 426.464 332.968ZM445.634 358.42C443.31 358.42 441.294 357.944 439.586 356.992C437.878 356.012 436.548 354.682 435.596 353.002C434.672 351.294 434.21 349.348 434.21 347.164C434.21 344.7 434.7 342.6 435.68 340.864C436.688 339.1 437.99 337.756 439.586 336.832C441.182 335.88 442.876 335.404 444.668 335.404C446.04 335.404 447.342 335.684 448.574 336.244C449.806 336.776 450.898 337.532 451.85 338.512C452.83 339.464 453.6 340.598 454.16 341.914C454.72 343.202 455.014 344.616 455.042 346.156C455.014 346.716 454.79 347.178 454.37 347.542C453.95 347.906 453.46 348.088 452.9 348.088H436.562L435.554 344.518H451.346L450.548 345.274V344.224C450.492 343.244 450.17 342.39 449.582 341.662C448.994 340.906 448.266 340.332 447.398 339.94C446.53 339.52 445.62 339.31 444.668 339.31C443.828 339.31 443.016 339.45 442.232 339.73C441.476 339.982 440.79 340.402 440.174 340.99C439.586 341.578 439.11 342.362 438.746 343.342C438.41 344.294 438.242 345.484 438.242 346.912C438.242 348.452 438.564 349.796 439.208 350.944C439.852 352.092 440.72 352.988 441.812 353.632C442.904 354.248 444.108 354.556 445.424 354.556C446.46 354.556 447.314 354.458 447.986 354.262C448.658 354.038 449.218 353.772 449.666 353.464C450.114 353.156 450.506 352.862 450.842 352.582C451.262 352.33 451.682 352.204 452.102 352.204C452.606 352.204 453.026 352.386 453.362 352.75C453.698 353.086 453.866 353.492 453.866 353.968C453.866 354.584 453.558 355.144 452.942 355.648C452.186 356.376 451.136 357.02 449.792 357.58C448.476 358.14 447.09 358.42 445.634 358.42ZM470.878 335.53C472.95 335.53 474.546 336.048 475.666 337.084C476.786 338.092 477.528 339.464 477.892 341.2L477.22 340.99L477.514 340.318C477.878 339.59 478.424 338.862 479.152 338.134C479.908 337.378 480.804 336.762 481.84 336.286C482.876 335.782 483.982 335.53 485.158 335.53C487.09 335.53 488.588 335.95 489.652 336.79C490.716 337.602 491.458 338.708 491.878 340.108C492.298 341.48 492.508 343.02 492.508 344.728V355.858C492.508 356.474 492.312 356.992 491.92 357.412C491.528 357.804 491.024 358 490.408 358C489.82 358 489.316 357.804 488.896 357.412C488.504 356.992 488.308 356.474 488.308 355.858V344.77C488.308 343.79 488.168 342.894 487.888 342.082C487.636 341.27 487.174 340.626 486.502 340.15C485.858 339.646 484.962 339.394 483.814 339.394C482.722 339.394 481.742 339.646 480.874 340.15C480.034 340.626 479.376 341.27 478.9 342.082C478.424 342.894 478.186 343.79 478.186 344.77V355.858C478.186 356.474 477.99 356.992 477.598 357.412C477.206 357.804 476.702 358 476.086 358C475.47 358 474.966 357.804 474.574 357.412C474.182 356.992 473.986 356.474 473.986 355.858V344.728C473.986 343.748 473.846 342.852 473.566 342.04C473.314 341.228 472.866 340.584 472.222 340.108C471.578 339.632 470.682 339.394 469.534 339.394C468.442 339.394 467.476 339.632 466.636 340.108C465.796 340.584 465.138 341.228 464.662 342.04C464.214 342.852 463.99 343.748 463.99 344.728V355.858C463.99 356.474 463.78 356.992 463.36 357.412C462.968 357.804 462.478 358 461.89 358C461.274 358 460.77 357.804 460.378 357.412C459.986 356.992 459.79 356.474 459.79 355.858V338.05C459.79 337.434 459.986 336.93 460.378 336.538C460.77 336.118 461.274 335.908 461.89 335.908C462.478 335.908 462.968 336.118 463.36 336.538C463.78 336.93 463.99 337.434 463.99 338.05V340.528L463.192 340.99C463.388 340.374 463.71 339.744 464.158 339.1C464.606 338.456 465.166 337.868 465.838 337.336C466.538 336.804 467.308 336.37 468.148 336.034C468.988 335.698 469.898 335.53 470.878 335.53ZM509.473 335.53C511.545 335.53 513.141 336.048 514.261 337.084C515.381 338.092 516.123 339.464 516.487 341.2L515.815 340.99L516.109 340.318C516.473 339.59 517.019 338.862 517.747 338.134C518.503 337.378 519.399 336.762 520.435 336.286C521.471 335.782 522.577 335.53 523.753 335.53C525.685 335.53 527.183 335.95 528.247 336.79C529.311 337.602 530.053 338.708 530.473 340.108C530.893 341.48 531.103 343.02 531.103 344.728V355.858C531.103 356.474 530.907 356.992 530.515 357.412C530.123 357.804 529.619 358 529.003 358C528.415 358 527.911 357.804 527.491 357.412C527.099 356.992 526.903 356.474 526.903 355.858V344.77C526.903 343.79 526.763 342.894 526.483 342.082C526.231 341.27 525.769 340.626 525.097 340.15C524.453 339.646 523.557 339.394 522.409 339.394C521.317 339.394 520.337 339.646 519.469 340.15C518.629 340.626 517.971 341.27 517.495 342.082C517.019 342.894 516.781 343.79 516.781 344.77V355.858C516.781 356.474 516.585 356.992 516.193 357.412C515.801 357.804 515.297 358 514.681 358C514.065 358 513.561 357.804 513.169 357.412C512.777 356.992 512.581 356.474 512.581 355.858V344.728C512.581 343.748 512.441 342.852 512.161 342.04C511.909 341.228 511.461 340.584 510.817 340.108C510.173 339.632 509.277 339.394 508.129 339.394C507.037 339.394 506.071 339.632 505.231 340.108C504.391 340.584 503.733 341.228 503.257 342.04C502.809 342.852 502.585 343.748 502.585 344.728V355.858C502.585 356.474 502.375 356.992 501.955 357.412C501.563 357.804 501.073 358 500.485 358C499.869 358 499.365 357.804 498.973 357.412C498.581 356.992 498.385 356.474 498.385 355.858V338.05C498.385 337.434 498.581 336.93 498.973 336.538C499.365 336.118 499.869 335.908 500.485 335.908C501.073 335.908 501.563 336.118 501.955 336.538C502.375 336.93 502.585 337.434 502.585 338.05V340.528L501.787 340.99C501.983 340.374 502.305 339.744 502.753 339.1C503.201 338.456 503.761 337.868 504.433 337.336C505.133 336.804 505.903 336.37 506.743 336.034C507.583 335.698 508.493 335.53 509.473 335.53ZM547.271 358.42C544.947 358.42 542.931 357.944 541.223 356.992C539.515 356.012 538.185 354.682 537.233 353.002C536.309 351.294 535.847 349.348 535.847 347.164C535.847 344.7 536.337 342.6 537.317 340.864C538.325 339.1 539.627 337.756 541.223 336.832C542.819 335.88 544.513 335.404 546.305 335.404C547.677 335.404 548.979 335.684 550.211 336.244C551.443 336.776 552.535 337.532 553.487 338.512C554.467 339.464 555.237 340.598 555.797 341.914C556.357 343.202 556.651 344.616 556.679 346.156C556.651 346.716 556.427 347.178 556.007 347.542C555.587 347.906 555.097 348.088 554.537 348.088H538.199L537.191 344.518H552.983L552.185 345.274V344.224C552.129 343.244 551.807 342.39 551.219 341.662C550.631 340.906 549.903 340.332 549.035 339.94C548.167 339.52 547.257 339.31 546.305 339.31C545.465 339.31 544.653 339.45 543.869 339.73C543.113 339.982 542.427 340.402 541.811 340.99C541.223 341.578 540.747 342.362 540.383 343.342C540.047 344.294 539.879 345.484 539.879 346.912C539.879 348.452 540.201 349.796 540.845 350.944C541.489 352.092 542.357 352.988 543.449 353.632C544.541 354.248 545.745 354.556 547.061 354.556C548.097 354.556 548.951 354.458 549.623 354.262C550.295 354.038 550.855 353.772 551.303 353.464C551.751 353.156 552.143 352.862 552.479 352.582C552.899 352.33 553.319 352.204 553.739 352.204C554.243 352.204 554.663 352.386 554.999 352.75C555.335 353.086 555.503 353.492 555.503 353.968C555.503 354.584 555.195 355.144 554.579 355.648C553.823 356.376 552.773 357.02 551.429 357.58C550.113 358.14 548.727 358.42 547.271 358.42ZM560.124 354.556C559.872 354.164 559.76 353.716 559.788 353.212C559.816 352.68 560.11 352.232 560.67 351.868C561.062 351.616 561.468 351.518 561.888 351.574C562.336 351.602 562.756 351.812 563.148 352.204C563.932 353.072 564.8 353.758 565.752 354.262C566.732 354.766 567.908 355.018 569.28 355.018C569.84 354.99 570.414 354.906 571.002 354.766C571.59 354.598 572.094 354.318 572.514 353.926C572.934 353.506 573.144 352.904 573.144 352.12C573.144 351.42 572.92 350.86 572.472 350.44C572.024 350.02 571.436 349.684 570.708 349.432C569.98 349.152 569.196 348.9 568.356 348.676C567.46 348.424 566.55 348.144 565.626 347.836C564.73 347.528 563.918 347.136 563.19 346.66C562.462 346.156 561.86 345.512 561.384 344.728C560.936 343.944 560.712 342.978 560.712 341.83C560.712 340.514 561.076 339.38 561.804 338.428C562.56 337.476 563.526 336.734 564.702 336.202C565.906 335.67 567.208 335.404 568.608 335.404C569.42 335.404 570.274 335.516 571.17 335.74C572.066 335.936 572.934 336.258 573.774 336.706C574.614 337.154 575.342 337.742 575.958 338.47C576.238 338.834 576.392 339.268 576.42 339.772C576.476 340.276 576.252 340.724 575.748 341.116C575.412 341.396 575.006 341.522 574.53 341.494C574.054 341.466 573.662 341.312 573.354 341.032C572.822 340.36 572.136 339.842 571.296 339.478C570.456 339.086 569.504 338.89 568.44 338.89C567.908 338.89 567.348 338.974 566.76 339.142C566.2 339.282 565.724 339.548 565.332 339.94C564.94 340.332 564.744 340.906 564.744 341.662C564.744 342.362 564.968 342.922 565.416 343.342C565.892 343.762 566.508 344.112 567.264 344.392C568.02 344.672 568.846 344.924 569.742 345.148C570.61 345.372 571.464 345.638 572.304 345.946C573.172 346.254 573.942 346.66 574.614 347.164C575.314 347.64 575.874 348.27 576.294 349.054C576.742 349.81 576.966 350.776 576.966 351.952C576.966 353.324 576.56 354.5 575.748 355.48C574.964 356.432 573.956 357.16 572.724 357.664C571.52 358.168 570.246 358.42 568.902 358.42C567.306 358.42 565.71 358.14 564.114 357.58C562.546 356.992 561.216 355.984 560.124 354.556ZM585.431 355.858C585.431 356.474 585.235 356.992 584.843 357.412C584.451 357.804 583.947 358 583.331 358C582.743 358 582.239 357.804 581.819 357.412C581.427 356.992 581.231 356.474 581.231 355.858V337.882C581.231 337.266 581.427 336.762 581.819 336.37C582.239 335.95 582.743 335.74 583.331 335.74C583.947 335.74 584.451 335.95 584.843 336.37C585.235 336.762 585.431 337.266 585.431 337.882V355.858ZM583.289 332.968C582.477 332.968 581.889 332.828 581.525 332.548C581.161 332.24 580.979 331.736 580.979 331.036V330.364C580.979 329.664 581.175 329.174 581.567 328.894C581.959 328.614 582.547 328.474 583.331 328.474C584.171 328.474 584.773 328.628 585.137 328.936C585.501 329.216 585.683 329.692 585.683 330.364V331.036C585.683 331.764 585.487 332.268 585.095 332.548C584.731 332.828 584.129 332.968 583.289 332.968ZM609.183 326.92C609.799 326.92 610.303 327.116 610.695 327.508C611.087 327.9 611.283 328.418 611.283 329.062V355.858C611.283 356.474 611.087 356.992 610.695 357.412C610.303 357.804 609.799 358 609.183 358C608.595 358 608.091 357.804 607.671 357.412C607.279 356.992 607.083 356.474 607.083 355.858V352.834L607.965 352.876C607.965 353.38 607.755 353.954 607.335 354.598C606.943 355.214 606.397 355.816 605.697 356.404C604.997 356.992 604.171 357.482 603.219 357.874C602.267 358.238 601.245 358.42 600.153 358.42C598.221 358.42 596.485 357.93 594.945 356.95C593.405 355.942 592.187 354.584 591.291 352.876C590.395 351.14 589.947 349.152 589.947 346.912C589.947 344.672 590.395 342.698 591.291 340.99C592.187 339.254 593.391 337.896 594.903 336.916C596.443 335.908 598.151 335.404 600.027 335.404C601.203 335.404 602.295 335.6 603.303 335.992C604.339 336.384 605.235 336.888 605.991 337.504C606.747 338.12 607.335 338.778 607.755 339.478C608.175 340.15 608.385 340.794 608.385 341.41L607.083 341.536V329.062C607.083 328.446 607.279 327.942 607.671 327.55C608.091 327.13 608.595 326.92 609.183 326.92ZM600.615 354.556C601.959 354.556 603.121 354.22 604.101 353.548C605.109 352.876 605.893 351.966 606.453 350.818C607.013 349.67 607.293 348.368 607.293 346.912C607.293 345.456 607.013 344.154 606.453 343.006C605.893 341.858 605.109 340.948 604.101 340.276C603.093 339.604 601.931 339.268 600.615 339.268C599.327 339.268 598.179 339.604 597.171 340.276C596.191 340.948 595.407 341.858 594.819 343.006C594.259 344.154 593.979 345.456 593.979 346.912C593.979 348.368 594.259 349.67 594.819 350.818C595.407 351.966 596.191 352.876 597.171 353.548C598.179 354.22 599.327 354.556 600.615 354.556ZM627.457 358.42C625.133 358.42 623.117 357.944 621.409 356.992C619.701 356.012 618.371 354.682 617.419 353.002C616.495 351.294 616.033 349.348 616.033 347.164C616.033 344.7 616.523 342.6 617.503 340.864C618.511 339.1 619.813 337.756 621.409 336.832C623.005 335.88 624.699 335.404 626.491 335.404C627.863 335.404 629.165 335.684 630.397 336.244C631.629 336.776 632.721 337.532 633.673 338.512C634.653 339.464 635.423 340.598 635.983 341.914C636.543 343.202 636.837 344.616 636.865 346.156C636.837 346.716 636.613 347.178 636.193 347.542C635.773 347.906 635.283 348.088 634.723 348.088H618.385L617.377 344.518H633.169L632.371 345.274V344.224C632.315 343.244 631.993 342.39 631.405 341.662C630.817 340.906 630.089 340.332 629.221 339.94C628.353 339.52 627.443 339.31 626.491 339.31C625.651 339.31 624.839 339.45 624.055 339.73C623.299 339.982 622.613 340.402 621.997 340.99C621.409 341.578 620.933 342.362 620.569 343.342C620.233 344.294 620.065 345.484 620.065 346.912C620.065 348.452 620.387 349.796 621.031 350.944C621.675 352.092 622.543 352.988 623.635 353.632C624.727 354.248 625.931 354.556 627.247 354.556C628.283 354.556 629.137 354.458 629.809 354.262C630.481 354.038 631.041 353.772 631.489 353.464C631.937 353.156 632.329 352.862 632.665 352.582C633.085 352.33 633.505 352.204 633.925 352.204C634.429 352.204 634.849 352.386 635.185 352.75C635.521 353.086 635.689 353.492 635.689 353.968C635.689 354.584 635.381 355.144 634.765 355.648C634.009 356.376 632.959 357.02 631.615 357.58C630.299 358.14 628.913 358.42 627.457 358.42ZM663.339 358C662.667 358 662.121 357.804 661.701 357.412C661.309 356.992 661.113 356.474 661.113 355.858V330.7H665.607V355.858C665.607 356.474 665.383 356.992 664.935 357.412C664.515 357.804 663.983 358 663.339 358ZM653.805 332.632C653.217 332.632 652.713 332.45 652.293 332.086C651.873 331.694 651.663 331.19 651.663 330.574C651.663 329.986 651.873 329.51 652.293 329.146C652.713 328.782 653.217 328.6 653.805 328.6H672.915C673.503 328.6 673.993 328.796 674.385 329.188C674.805 329.552 675.015 330.028 675.015 330.616C675.015 331.232 674.805 331.722 674.385 332.086C673.993 332.45 673.503 332.632 672.915 332.632H653.805ZM684.55 358.42C682.226 358.42 680.21 357.944 678.502 356.992C676.794 356.012 675.464 354.682 674.512 353.002C673.588 351.294 673.126 349.348 673.126 347.164C673.126 344.7 673.616 342.6 674.596 340.864C675.604 339.1 676.906 337.756 678.502 336.832C680.098 335.88 681.792 335.404 683.584 335.404C684.956 335.404 686.258 335.684 687.49 336.244C688.722 336.776 689.814 337.532 690.766 338.512C691.746 339.464 692.516 340.598 693.076 341.914C693.636 343.202 693.93 344.616 693.958 346.156C693.93 346.716 693.706 347.178 693.286 347.542C692.866 347.906 692.376 348.088 691.816 348.088H675.478L674.47 344.518H690.262L689.464 345.274V344.224C689.408 343.244 689.086 342.39 688.498 341.662C687.91 340.906 687.182 340.332 686.314 339.94C685.446 339.52 684.536 339.31 683.584 339.31C682.744 339.31 681.932 339.45 681.148 339.73C680.392 339.982 679.706 340.402 679.09 340.99C678.502 341.578 678.026 342.362 677.662 343.342C677.326 344.294 677.158 345.484 677.158 346.912C677.158 348.452 677.48 349.796 678.124 350.944C678.768 352.092 679.636 352.988 680.728 353.632C681.82 354.248 683.024 354.556 684.34 354.556C685.376 354.556 686.23 354.458 686.902 354.262C687.574 354.038 688.134 353.772 688.582 353.464C689.03 353.156 689.422 352.862 689.758 352.582C690.178 352.33 690.598 352.204 691.018 352.204C691.522 352.204 691.942 352.386 692.278 352.75C692.614 353.086 692.782 353.492 692.782 353.968C692.782 354.584 692.474 355.144 691.858 355.648C691.102 356.376 690.052 357.02 688.708 357.58C687.392 358.14 686.006 358.42 684.55 358.42ZM709.794 335.53C711.866 335.53 713.462 336.048 714.582 337.084C715.702 338.092 716.444 339.464 716.808 341.2L716.136 340.99L716.43 340.318C716.794 339.59 717.34 338.862 718.068 338.134C718.824 337.378 719.72 336.762 720.756 336.286C721.792 335.782 722.898 335.53 724.074 335.53C726.006 335.53 727.504 335.95 728.568 336.79C729.632 337.602 730.374 338.708 730.794 340.108C731.214 341.48 731.424 343.02 731.424 344.728V355.858C731.424 356.474 731.228 356.992 730.836 357.412C730.444 357.804 729.94 358 729.324 358C728.736 358 728.232 357.804 727.812 357.412C727.42 356.992 727.224 356.474 727.224 355.858V344.77C727.224 343.79 727.084 342.894 726.804 342.082C726.552 341.27 726.09 340.626 725.418 340.15C724.774 339.646 723.878 339.394 722.73 339.394C721.638 339.394 720.658 339.646 719.79 340.15C718.95 340.626 718.292 341.27 717.816 342.082C717.34 342.894 717.102 343.79 717.102 344.77V355.858C717.102 356.474 716.906 356.992 716.514 357.412C716.122 357.804 715.618 358 715.002 358C714.386 358 713.882 357.804 713.49 357.412C713.098 356.992 712.902 356.474 712.902 355.858V344.728C712.902 343.748 712.762 342.852 712.482 342.04C712.23 341.228 711.782 340.584 711.138 340.108C710.494 339.632 709.598 339.394 708.45 339.394C707.358 339.394 706.392 339.632 705.552 340.108C704.712 340.584 704.054 341.228 703.578 342.04C703.13 342.852 702.906 343.748 702.906 344.728V355.858C702.906 356.474 702.696 356.992 702.276 357.412C701.884 357.804 701.394 358 700.806 358C700.19 358 699.686 357.804 699.294 357.412C698.902 356.992 698.706 356.474 698.706 355.858V338.05C698.706 337.434 698.902 336.93 699.294 336.538C699.686 336.118 700.19 335.908 700.806 335.908C701.394 335.908 701.884 336.118 702.276 336.538C702.696 336.93 702.906 337.434 702.906 338.05V340.528L702.108 340.99C702.304 340.374 702.626 339.744 703.074 339.1C703.522 338.456 704.082 337.868 704.754 337.336C705.454 336.804 706.224 336.37 707.064 336.034C707.904 335.698 708.814 335.53 709.794 335.53ZM755.403 335.572C756.019 335.572 756.523 335.782 756.915 336.202C757.307 336.594 757.503 337.098 757.503 337.714V355.858C757.503 356.474 757.307 356.992 756.915 357.412C756.523 357.804 756.019 358 755.403 358C754.815 358 754.311 357.804 753.891 357.412C753.499 356.992 753.303 356.474 753.303 355.858V352.834L754.185 352.96C754.185 353.464 753.975 354.024 753.555 354.64C753.163 355.256 752.617 355.858 751.917 356.446C751.217 357.006 750.391 357.482 749.439 357.874C748.487 358.238 747.465 358.42 746.373 358.42C744.441 358.42 742.705 357.93 741.165 356.95C739.625 355.942 738.407 354.57 737.511 352.834C736.615 351.098 736.167 349.124 736.167 346.912C736.167 344.644 736.615 342.656 737.511 340.948C738.407 339.212 739.611 337.854 741.123 336.874C742.663 335.894 744.371 335.404 746.247 335.404C747.451 335.404 748.557 335.6 749.565 335.992C750.601 336.384 751.497 336.888 752.253 337.504C753.009 338.12 753.583 338.778 753.975 339.478C754.395 340.15 754.605 340.794 754.605 341.41L753.303 341.536V337.714C753.303 337.126 753.499 336.622 753.891 336.202C754.311 335.782 754.815 335.572 755.403 335.572ZM746.835 354.556C748.151 354.556 749.313 354.22 750.321 353.548C751.329 352.876 752.113 351.966 752.673 350.818C753.233 349.642 753.513 348.34 753.513 346.912C753.513 345.456 753.233 344.154 752.673 343.006C752.113 341.858 751.329 340.948 750.321 340.276C749.313 339.604 748.151 339.268 746.835 339.268C745.547 339.268 744.399 339.604 743.391 340.276C742.411 340.948 741.627 341.858 741.039 343.006C740.479 344.154 740.199 345.456 740.199 346.912C740.199 348.34 740.479 349.642 741.039 350.818C741.627 351.966 742.411 352.876 743.391 353.548C744.399 354.22 745.547 354.556 746.835 354.556ZM791.583 354.094C792.143 354.094 792.605 354.29 792.969 354.682C793.361 355.046 793.557 355.508 793.557 356.068C793.557 356.628 793.361 357.09 792.969 357.454C792.605 357.818 792.143 358 791.583 358H776.841C776.225 358 775.735 357.818 775.371 357.454C775.007 357.09 774.825 356.6 774.825 355.984C774.825 355.424 775.021 354.92 775.413 354.472L784.779 344.35C785.983 343.062 786.907 341.788 787.551 340.528C788.223 339.268 788.559 338.162 788.559 337.21C788.559 335.67 788.097 334.424 787.173 333.472C786.249 332.52 785.031 332.044 783.519 332.044C782.875 332.044 782.217 332.198 781.545 332.506C780.901 332.786 780.285 333.178 779.697 333.682C779.137 334.158 778.647 334.718 778.227 335.362C777.947 335.754 777.667 336.006 777.387 336.118C777.107 336.23 776.841 336.286 776.589 336.286C776.057 336.286 775.567 336.104 775.119 335.74C774.699 335.348 774.489 334.9 774.489 334.396C774.489 334.004 774.615 333.626 774.867 333.262C775.119 332.898 775.441 332.52 775.833 332.128C776.449 331.372 777.191 330.7 778.059 330.112C778.955 329.496 779.893 329.02 780.873 328.684C781.853 328.348 782.819 328.18 783.771 328.18C785.619 328.18 787.215 328.544 788.559 329.272C789.931 330 790.981 331.022 791.709 332.338C792.465 333.654 792.843 335.208 792.843 337C792.843 338.512 792.381 340.192 791.457 342.04C790.561 343.86 789.301 345.652 787.677 347.416L781.167 354.514L780.705 354.094H791.583ZM800.758 341.2C800.058 341.2 799.512 341.018 799.12 340.654C798.756 340.262 798.574 339.716 798.574 339.016V338.218C798.574 337.518 798.756 336.972 799.12 336.58C799.512 336.188 800.058 335.992 800.758 335.992H801.22C801.92 335.992 802.452 336.188 802.816 336.58C803.18 336.972 803.362 337.518 803.362 338.218V339.016C803.362 339.716 803.18 340.262 802.816 340.654C802.452 341.018 801.92 341.2 801.22 341.2H800.758ZM800.758 358C800.058 358 799.512 357.804 799.12 357.412C798.756 357.02 798.574 356.474 798.574 355.774V355.018C798.574 354.29 798.756 353.744 799.12 353.38C799.512 352.988 800.058 352.792 800.758 352.792H801.22C801.92 352.792 802.452 352.988 802.816 353.38C803.18 353.744 803.362 354.29 803.362 355.018V355.774C803.362 356.474 803.18 357.02 802.816 357.412C802.452 357.804 801.92 358 801.22 358H800.758ZM823.457 328.6C824.017 328.6 824.507 328.81 824.927 329.23C825.375 329.622 825.599 330.126 825.599 330.742V355.858C825.571 356.474 825.333 356.992 824.885 357.412C824.465 357.804 823.961 358 823.373 358C822.729 358 822.197 357.804 821.777 357.412C821.385 356.992 821.189 356.474 821.189 355.858V330.742C821.189 330.126 821.399 329.622 821.819 329.23C822.239 328.81 822.785 328.6 823.457 328.6ZM842.399 328.6C843.071 328.6 843.603 328.81 843.995 329.23C844.387 329.622 844.583 330.126 844.583 330.742V355.858C844.583 356.474 844.373 356.992 843.953 357.412C843.561 357.804 843.029 358 842.357 358C841.769 358 841.265 357.804 840.845 357.412C840.425 356.992 840.215 356.474 840.215 355.858V330.742C840.215 330.126 840.425 329.622 840.845 329.23C841.293 328.81 841.811 328.6 842.399 328.6ZM823.289 341.116H842.441L842.399 345.148H823.247L823.289 341.116ZM850.621 336.16H860.491C861.051 336.16 861.513 336.356 861.877 336.748C862.269 337.112 862.465 337.574 862.465 338.134C862.465 338.666 862.269 339.114 861.877 339.478C861.513 339.842 861.051 340.024 860.491 340.024H850.621C850.061 340.024 849.585 339.842 849.193 339.478C848.829 339.086 848.647 338.624 848.647 338.092C848.647 337.532 848.829 337.07 849.193 336.706C849.585 336.342 850.061 336.16 850.621 336.16ZM855.031 330.7C855.647 330.7 856.151 330.91 856.543 331.33C856.935 331.722 857.131 332.226 857.131 332.842V352.33C857.131 352.834 857.215 353.24 857.383 353.548C857.551 353.856 857.775 354.066 858.055 354.178C858.363 354.29 858.671 354.346 858.979 354.346C859.287 354.346 859.553 354.29 859.777 354.178C860.029 354.066 860.323 354.01 860.659 354.01C860.995 354.01 861.303 354.164 861.583 354.472C861.863 354.78 862.003 355.2 862.003 355.732C862.003 356.404 861.639 356.95 860.911 357.37C860.183 357.79 859.399 358 858.559 358C858.083 358 857.523 357.958 856.879 357.874C856.235 357.79 855.605 357.58 854.989 357.244C854.401 356.908 853.911 356.376 853.519 355.648C853.127 354.892 852.931 353.842 852.931 352.498V332.842C852.931 332.226 853.127 331.722 853.519 331.33C853.939 330.91 854.443 330.7 855.031 330.7ZM866.822 336.16H876.692C877.252 336.16 877.714 336.356 878.078 336.748C878.47 337.112 878.666 337.574 878.666 338.134C878.666 338.666 878.47 339.114 878.078 339.478C877.714 339.842 877.252 340.024 876.692 340.024H866.822C866.262 340.024 865.786 339.842 865.394 339.478C865.03 339.086 864.848 338.624 864.848 338.092C864.848 337.532 865.03 337.07 865.394 336.706C865.786 336.342 866.262 336.16 866.822 336.16ZM871.232 330.7C871.848 330.7 872.352 330.91 872.744 331.33C873.136 331.722 873.332 332.226 873.332 332.842V352.33C873.332 352.834 873.416 353.24 873.584 353.548C873.752 353.856 873.976 354.066 874.256 354.178C874.564 354.29 874.872 354.346 875.18 354.346C875.488 354.346 875.754 354.29 875.978 354.178C876.23 354.066 876.524 354.01 876.86 354.01C877.196 354.01 877.504 354.164 877.784 354.472C878.064 354.78 878.204 355.2 878.204 355.732C878.204 356.404 877.84 356.95 877.112 357.37C876.384 357.79 875.6 358 874.76 358C874.284 358 873.724 357.958 873.08 357.874C872.436 357.79 871.806 357.58 871.19 357.244C870.602 356.908 870.112 356.376 869.72 355.648C869.328 354.892 869.132 353.842 869.132 352.498V332.842C869.132 332.226 869.328 331.722 869.72 331.33C870.14 330.91 870.644 330.7 871.232 330.7ZM894.447 335.53C896.407 335.53 898.143 336.02 899.655 337C901.195 337.98 902.413 339.324 903.309 341.032C904.205 342.712 904.653 344.672 904.653 346.912C904.653 349.152 904.205 351.14 903.309 352.876C902.413 354.584 901.209 355.928 899.697 356.908C898.185 357.888 896.477 358.378 894.573 358.378C893.509 358.378 892.501 358.21 891.549 357.874C890.597 357.538 889.757 357.104 889.029 356.572C888.301 356.012 887.699 355.424 887.223 354.808C886.775 354.192 886.495 353.618 886.383 353.086L887.517 352.54V364.258C887.517 364.874 887.307 365.378 886.887 365.77C886.495 366.19 886.005 366.4 885.417 366.4C884.801 366.4 884.297 366.19 883.905 365.77C883.513 365.378 883.317 364.874 883.317 364.258V337.966C883.317 337.378 883.513 336.874 883.905 336.454C884.297 336.034 884.801 335.824 885.417 335.824C886.005 335.824 886.495 336.034 886.887 336.454C887.307 336.874 887.517 337.378 887.517 337.966V340.864L886.845 340.486C886.929 339.954 887.195 339.408 887.643 338.848C888.091 338.26 888.651 337.714 889.323 337.21C890.023 336.706 890.807 336.3 891.675 335.992C892.571 335.684 893.495 335.53 894.447 335.53ZM893.985 339.394C892.641 339.394 891.465 339.73 890.457 340.402C889.477 341.046 888.707 341.928 888.147 343.048C887.587 344.168 887.307 345.456 887.307 346.912C887.307 348.34 887.587 349.642 888.147 350.818C888.707 351.966 889.477 352.876 890.457 353.548C891.465 354.192 892.641 354.514 893.985 354.514C895.301 354.514 896.449 354.192 897.429 353.548C898.409 352.876 899.179 351.966 899.739 350.818C900.327 349.642 900.621 348.34 900.621 346.912C900.621 345.484 900.327 344.21 899.739 343.09C899.179 341.942 898.409 341.046 897.429 340.402C896.449 339.73 895.301 339.394 893.985 339.394ZM908.101 354.556C907.849 354.164 907.737 353.716 907.765 353.212C907.793 352.68 908.087 352.232 908.647 351.868C909.039 351.616 909.445 351.518 909.865 351.574C910.313 351.602 910.733 351.812 911.125 352.204C911.909 353.072 912.777 353.758 913.729 354.262C914.709 354.766 915.885 355.018 917.257 355.018C917.817 354.99 918.391 354.906 918.979 354.766C919.567 354.598 920.071 354.318 920.491 353.926C920.911 353.506 921.121 352.904 921.121 352.12C921.121 351.42 920.897 350.86 920.449 350.44C920.001 350.02 919.413 349.684 918.685 349.432C917.957 349.152 917.173 348.9 916.333 348.676C915.437 348.424 914.527 348.144 913.603 347.836C912.707 347.528 911.895 347.136 911.167 346.66C910.439 346.156 909.837 345.512 909.361 344.728C908.913 343.944 908.689 342.978 908.689 341.83C908.689 340.514 909.053 339.38 909.781 338.428C910.537 337.476 911.503 336.734 912.679 336.202C913.883 335.67 915.185 335.404 916.585 335.404C917.397 335.404 918.251 335.516 919.147 335.74C920.043 335.936 920.911 336.258 921.751 336.706C922.591 337.154 923.319 337.742 923.935 338.47C924.215 338.834 924.369 339.268 924.397 339.772C924.453 340.276 924.229 340.724 923.725 341.116C923.389 341.396 922.983 341.522 922.507 341.494C922.031 341.466 921.639 341.312 921.331 341.032C920.799 340.36 920.113 339.842 919.273 339.478C918.433 339.086 917.481 338.89 916.417 338.89C915.885 338.89 915.325 338.974 914.737 339.142C914.177 339.282 913.701 339.548 913.309 339.94C912.917 340.332 912.721 340.906 912.721 341.662C912.721 342.362 912.945 342.922 913.393 343.342C913.869 343.762 914.485 344.112 915.241 344.392C915.997 344.672 916.823 344.924 917.719 345.148C918.587 345.372 919.441 345.638 920.281 345.946C921.149 346.254 921.919 346.66 922.591 347.164C923.291 347.64 923.851 348.27 924.271 349.054C924.719 349.81 924.943 350.776 924.943 351.952C924.943 353.324 924.537 354.5 923.725 355.48C922.941 356.432 921.933 357.16 920.701 357.664C919.497 358.168 918.223 358.42 916.879 358.42C915.283 358.42 913.687 358.14 912.091 357.58C910.523 356.992 909.193 355.984 908.101 354.556ZM931.434 341.2C930.734 341.2 930.188 341.018 929.796 340.654C929.432 340.262 929.25 339.716 929.25 339.016V338.218C929.25 337.518 929.432 336.972 929.796 336.58C930.188 336.188 930.734 335.992 931.434 335.992H931.896C932.596 335.992 933.128 336.188 933.492 336.58C933.856 336.972 934.038 337.518 934.038 338.218V339.016C934.038 339.716 933.856 340.262 933.492 340.654C933.128 341.018 932.596 341.2 931.896 341.2H931.434ZM931.434 358C930.734 358 930.188 357.804 929.796 357.412C929.432 357.02 929.25 356.474 929.25 355.774V355.018C929.25 354.29 929.432 353.744 929.796 353.38C930.188 352.988 930.734 352.792 931.434 352.792H931.896C932.596 352.792 933.128 352.988 933.492 353.38C933.856 353.744 934.038 354.29 934.038 355.018V355.774C934.038 356.474 933.856 357.02 933.492 357.412C933.128 357.804 932.596 358 931.896 358H931.434ZM939.629 363.544C939.209 363.544 938.789 363.376 938.369 363.04C937.949 362.704 937.739 362.284 937.739 361.78C937.739 361.472 937.823 361.178 937.991 360.898L955.421 325.576C955.617 325.184 955.855 324.89 956.135 324.694C956.443 324.498 956.779 324.4 957.143 324.4C957.535 324.4 957.927 324.554 958.319 324.862C958.739 325.17 958.949 325.604 958.949 326.164C958.949 326.472 958.879 326.78 958.739 327.088L941.309 362.41C941.113 362.774 940.875 363.054 940.595 363.25C940.315 363.446 939.993 363.544 939.629 363.544ZM958.989 363.544C958.569 363.544 958.149 363.376 957.729 363.04C957.309 362.704 957.099 362.284 957.099 361.78C957.099 361.472 957.183 361.178 957.351 360.898L974.781 325.576C974.977 325.184 975.215 324.89 975.495 324.694C975.803 324.498 976.139 324.4 976.503 324.4C976.895 324.4 977.287 324.554 977.679 324.862C978.099 325.17 978.309 325.604 978.309 326.164C978.309 326.472 978.239 326.78 978.099 327.088L960.669 362.41C960.473 362.774 960.235 363.054 959.955 363.25C959.675 363.446 959.353 363.544 958.989 363.544ZM984.934 328.558C985.27 328.558 985.62 328.642 985.984 328.81C986.348 328.978 986.628 329.216 986.824 329.524L997.492 345.778L995.686 345.694L1006.56 329.524C1007.01 328.88 1007.59 328.558 1008.29 328.558C1008.85 328.558 1009.34 328.768 1009.76 329.188C1010.2 329.58 1010.43 330.084 1010.43 330.7V355.858C1010.43 356.474 1010.23 356.992 1009.84 357.412C1009.45 357.804 1008.93 358 1008.29 358C1007.61 358 1007.07 357.804 1006.65 357.412C1006.26 356.992 1006.06 356.474 1006.06 355.858V334.564L1007.4 334.858L998.164 348.928C997.968 349.18 997.716 349.404 997.408 349.6C997.1 349.768 996.778 349.838 996.442 349.81C996.134 349.838 995.812 349.768 995.476 349.6C995.168 349.404 994.916 349.18 994.72 348.928L985.816 335.068L986.824 333.388V355.858C986.824 356.474 986.628 356.992 986.236 357.412C985.872 357.804 985.382 358 984.766 358C984.178 358 983.688 357.804 983.296 357.412C982.932 356.992 982.75 356.474 982.75 355.858V330.7C982.75 330.112 982.96 329.608 983.38 329.188C983.828 328.768 984.346 328.558 984.934 328.558ZM1020.77 355.858C1020.77 356.474 1020.57 356.992 1020.18 357.412C1019.79 357.804 1019.29 358 1018.67 358C1018.08 358 1017.58 357.804 1017.16 357.412C1016.77 356.992 1016.57 356.474 1016.57 355.858V337.882C1016.57 337.266 1016.77 336.762 1017.16 336.37C1017.58 335.95 1018.08 335.74 1018.67 335.74C1019.29 335.74 1019.79 335.95 1020.18 336.37C1020.57 336.762 1020.77 337.266 1020.77 337.882V355.858ZM1018.63 332.968C1017.82 332.968 1017.23 332.828 1016.86 332.548C1016.5 332.24 1016.32 331.736 1016.32 331.036V330.364C1016.32 329.664 1016.51 329.174 1016.91 328.894C1017.3 328.614 1017.89 328.474 1018.67 328.474C1019.51 328.474 1020.11 328.628 1020.48 328.936C1020.84 329.216 1021.02 329.692 1021.02 330.364V331.036C1021.02 331.764 1020.83 332.268 1020.43 332.548C1020.07 332.828 1019.47 332.968 1018.63 332.968ZM1030.96 355.858C1030.96 356.474 1030.75 356.992 1030.33 357.412C1029.93 357.804 1029.44 358 1028.86 358C1028.27 358 1027.76 357.804 1027.34 357.412C1026.95 356.992 1026.76 356.474 1026.76 355.858V329.062C1026.76 328.446 1026.97 327.942 1027.39 327.55C1027.81 327.13 1028.31 326.92 1028.9 326.92C1029.51 326.92 1030 327.13 1030.37 327.55C1030.76 327.942 1030.96 328.446 1030.96 329.062V355.858ZM1047.09 358.42C1044.76 358.42 1042.75 357.944 1041.04 356.992C1039.33 356.012 1038 354.682 1037.05 353.002C1036.13 351.294 1035.66 349.348 1035.66 347.164C1035.66 344.7 1036.15 342.6 1037.13 340.864C1038.14 339.1 1039.44 337.756 1041.04 336.832C1042.64 335.88 1044.33 335.404 1046.12 335.404C1047.49 335.404 1048.8 335.684 1050.03 336.244C1051.26 336.776 1052.35 337.532 1053.3 338.512C1054.28 339.464 1055.05 340.598 1055.61 341.914C1056.17 343.202 1056.47 344.616 1056.5 346.156C1056.47 346.716 1056.24 347.178 1055.82 347.542C1055.4 347.906 1054.91 348.088 1054.35 348.088H1038.02L1037.01 344.518H1052.8L1052 345.274V344.224C1051.95 343.244 1051.62 342.39 1051.04 341.662C1050.45 340.906 1049.72 340.332 1048.85 339.94C1047.98 339.52 1047.07 339.31 1046.12 339.31C1045.28 339.31 1044.47 339.45 1043.69 339.73C1042.93 339.982 1042.24 340.402 1041.63 340.99C1041.04 341.578 1040.56 342.362 1040.2 343.342C1039.86 344.294 1039.7 345.484 1039.7 346.912C1039.7 348.452 1040.02 349.796 1040.66 350.944C1041.31 352.092 1042.17 352.988 1043.27 353.632C1044.36 354.248 1045.56 354.556 1046.88 354.556C1047.91 354.556 1048.77 354.458 1049.44 354.262C1050.11 354.038 1050.67 353.772 1051.12 353.464C1051.57 353.156 1051.96 352.862 1052.3 352.582C1052.72 352.33 1053.14 352.204 1053.56 352.204C1054.06 352.204 1054.48 352.386 1054.82 352.75C1055.15 353.086 1055.32 353.492 1055.32 353.968C1055.32 354.584 1055.01 355.144 1054.4 355.648C1053.64 356.376 1052.59 357.02 1051.25 357.58C1049.93 358.14 1048.54 358.42 1047.09 358.42ZM1072.62 335.404C1074.61 335.404 1076.15 335.824 1077.24 336.664C1078.34 337.476 1079.09 338.582 1079.51 339.982C1079.96 341.354 1080.18 342.894 1080.18 344.602V355.858C1080.18 356.474 1079.97 356.992 1079.55 357.412C1079.16 357.804 1078.67 358 1078.08 358C1077.47 358 1076.96 357.804 1076.57 357.412C1076.18 356.992 1075.98 356.474 1075.98 355.858V344.644C1075.98 343.636 1075.84 342.74 1075.56 341.956C1075.28 341.144 1074.79 340.5 1074.09 340.024C1073.42 339.52 1072.47 339.268 1071.24 339.268C1070.09 339.268 1069.08 339.52 1068.21 340.024C1067.35 340.5 1066.66 341.144 1066.16 341.956C1065.68 342.74 1065.44 343.636 1065.44 344.644V355.858C1065.44 356.474 1065.23 356.992 1064.81 357.412C1064.42 357.804 1063.93 358 1063.34 358C1062.73 358 1062.22 357.804 1061.83 357.412C1061.44 356.992 1061.24 356.474 1061.24 355.858V338.05C1061.24 337.434 1061.44 336.93 1061.83 336.538C1062.22 336.118 1062.73 335.908 1063.34 335.908C1063.93 335.908 1064.42 336.118 1064.81 336.538C1065.23 336.93 1065.44 337.434 1065.44 338.05V340.402L1064.69 340.822C1064.88 340.206 1065.22 339.59 1065.69 338.974C1066.2 338.33 1066.8 337.742 1067.5 337.21C1068.2 336.65 1068.98 336.216 1069.85 335.908C1070.72 335.572 1071.64 335.404 1072.62 335.404ZM1096.31 358.42C1093.98 358.42 1091.97 357.944 1090.26 356.992C1088.55 356.012 1087.22 354.682 1086.27 353.002C1085.34 351.294 1084.88 349.348 1084.88 347.164C1084.88 344.7 1085.37 342.6 1086.35 340.864C1087.36 339.1 1088.66 337.756 1090.26 336.832C1091.85 335.88 1093.55 335.404 1095.34 335.404C1096.71 335.404 1098.01 335.684 1099.25 336.244C1100.48 336.776 1101.57 337.532 1102.52 338.512C1103.5 339.464 1104.27 340.598 1104.83 341.914C1105.39 343.202 1105.69 344.616 1105.71 346.156C1105.69 346.716 1105.46 347.178 1105.04 347.542C1104.62 347.906 1104.13 348.088 1103.57 348.088H1087.23L1086.23 344.518H1102.02L1101.22 345.274V344.224C1101.16 343.244 1100.84 342.39 1100.25 341.662C1099.67 340.906 1098.94 340.332 1098.07 339.94C1097.2 339.52 1096.29 339.31 1095.34 339.31C1094.5 339.31 1093.69 339.45 1092.9 339.73C1092.15 339.982 1091.46 340.402 1090.85 340.99C1090.26 341.578 1089.78 342.362 1089.42 343.342C1089.08 344.294 1088.91 345.484 1088.91 346.912C1088.91 348.452 1089.24 349.796 1089.88 350.944C1090.52 352.092 1091.39 352.988 1092.48 353.632C1093.58 354.248 1094.78 354.556 1096.1 354.556C1097.13 354.556 1097.99 354.458 1098.66 354.262C1099.33 354.038 1099.89 353.772 1100.34 353.464C1100.79 353.156 1101.18 352.862 1101.51 352.582C1101.93 352.33 1102.35 352.204 1102.77 352.204C1103.28 352.204 1103.7 352.386 1104.03 352.75C1104.37 353.086 1104.54 353.492 1104.54 353.968C1104.54 354.584 1104.23 355.144 1103.61 355.648C1102.86 356.376 1101.81 357.02 1100.46 357.58C1099.15 358.14 1097.76 358.42 1096.31 358.42ZM1121.55 335.53C1123.62 335.53 1125.22 336.048 1126.34 337.084C1127.46 338.092 1128.2 339.464 1128.56 341.2L1127.89 340.99L1128.19 340.318C1128.55 339.59 1129.1 338.862 1129.82 338.134C1130.58 337.378 1131.48 336.762 1132.51 336.286C1133.55 335.782 1134.65 335.53 1135.83 335.53C1137.76 335.53 1139.26 335.95 1140.32 336.79C1141.39 337.602 1142.13 338.708 1142.55 340.108C1142.97 341.48 1143.18 343.02 1143.18 344.728V355.858C1143.18 356.474 1142.98 356.992 1142.59 357.412C1142.2 357.804 1141.7 358 1141.08 358C1140.49 358 1139.99 357.804 1139.57 357.412C1139.18 356.992 1138.98 356.474 1138.98 355.858V344.77C1138.98 343.79 1138.84 342.894 1138.56 342.082C1138.31 341.27 1137.85 340.626 1137.17 340.15C1136.53 339.646 1135.63 339.394 1134.49 339.394C1133.39 339.394 1132.41 339.646 1131.55 340.15C1130.71 340.626 1130.05 341.27 1129.57 342.082C1129.1 342.894 1128.86 343.79 1128.86 344.77V355.858C1128.86 356.474 1128.66 356.992 1128.27 357.412C1127.88 357.804 1127.37 358 1126.76 358C1126.14 358 1125.64 357.804 1125.25 357.412C1124.85 356.992 1124.66 356.474 1124.66 355.858V344.728C1124.66 343.748 1124.52 342.852 1124.24 342.04C1123.99 341.228 1123.54 340.584 1122.89 340.108C1122.25 339.632 1121.35 339.394 1120.21 339.394C1119.11 339.394 1118.15 339.632 1117.31 340.108C1116.47 340.584 1115.81 341.228 1115.33 342.04C1114.89 342.852 1114.66 343.748 1114.66 344.728V355.858C1114.66 356.474 1114.45 356.992 1114.03 357.412C1113.64 357.804 1113.15 358 1112.56 358C1111.95 358 1111.44 357.804 1111.05 357.412C1110.66 356.992 1110.46 356.474 1110.46 355.858V338.05C1110.46 337.434 1110.66 336.93 1111.05 336.538C1111.44 336.118 1111.95 335.908 1112.56 335.908C1113.15 335.908 1113.64 336.118 1114.03 336.538C1114.45 336.93 1114.66 337.434 1114.66 338.05V340.528L1113.86 340.99C1114.06 340.374 1114.38 339.744 1114.83 339.1C1115.28 338.456 1115.84 337.868 1116.51 337.336C1117.21 336.804 1117.98 336.37 1118.82 336.034C1119.66 335.698 1120.57 335.53 1121.55 335.53ZM1153.01 355.858C1153.01 356.474 1152.81 356.992 1152.42 357.412C1152.03 357.804 1151.52 358 1150.91 358C1150.32 358 1149.81 357.804 1149.39 357.412C1149 356.992 1148.81 356.474 1148.81 355.858V337.882C1148.81 337.266 1149 336.762 1149.39 336.37C1149.81 335.95 1150.32 335.74 1150.91 335.74C1151.52 335.74 1152.03 335.95 1152.42 336.37C1152.81 336.762 1153.01 337.266 1153.01 337.882V355.858ZM1150.86 332.968C1150.05 332.968 1149.46 332.828 1149.1 332.548C1148.74 332.24 1148.55 331.736 1148.55 331.036V330.364C1148.55 329.664 1148.75 329.174 1149.14 328.894C1149.53 328.614 1150.12 328.474 1150.91 328.474C1151.75 328.474 1152.35 328.628 1152.71 328.936C1153.08 329.216 1153.26 329.692 1153.26 330.364V331.036C1153.26 331.764 1153.06 332.268 1152.67 332.548C1152.31 332.828 1151.7 332.968 1150.86 332.968ZM1170.04 335.404C1172.02 335.404 1173.56 335.824 1174.66 336.664C1175.75 337.476 1176.5 338.582 1176.92 339.982C1177.37 341.354 1177.6 342.894 1177.6 344.602V355.858C1177.6 356.474 1177.39 356.992 1176.97 357.412C1176.57 357.804 1176.08 358 1175.5 358C1174.88 358 1174.38 357.804 1173.98 357.412C1173.59 356.992 1173.4 356.474 1173.4 355.858V344.644C1173.4 343.636 1173.26 342.74 1172.98 341.956C1172.7 341.144 1172.21 340.5 1171.51 340.024C1170.83 339.52 1169.88 339.268 1168.65 339.268C1167.5 339.268 1166.49 339.52 1165.63 340.024C1164.76 340.5 1164.07 341.144 1163.57 341.956C1163.09 342.74 1162.85 343.636 1162.85 344.644V355.858C1162.85 356.474 1162.64 356.992 1162.22 357.412C1161.83 357.804 1161.34 358 1160.75 358C1160.14 358 1159.63 357.804 1159.24 357.412C1158.85 356.992 1158.65 356.474 1158.65 355.858V338.05C1158.65 337.434 1158.85 336.93 1159.24 336.538C1159.63 336.118 1160.14 335.908 1160.75 335.908C1161.34 335.908 1161.83 336.118 1162.22 336.538C1162.64 336.93 1162.85 337.434 1162.85 338.05V340.402L1162.1 340.822C1162.29 340.206 1162.63 339.59 1163.11 338.974C1163.61 338.33 1164.21 337.742 1164.91 337.21C1165.61 336.65 1166.4 336.216 1167.26 335.908C1168.13 335.572 1169.06 335.404 1170.04 335.404ZM1185.02 357.958C1184.32 357.958 1183.78 357.762 1183.39 357.37C1183.02 356.978 1182.84 356.432 1182.84 355.732V354.976C1182.84 354.276 1183.02 353.73 1183.39 353.338C1183.78 352.946 1184.32 352.75 1185.02 352.75H1185.49C1186.19 352.75 1186.72 352.946 1187.08 353.338C1187.45 353.73 1187.63 354.276 1187.63 354.976V355.732C1187.63 356.432 1187.45 356.978 1187.08 357.37C1186.72 357.762 1186.19 357.958 1185.49 357.958H1185.02ZM1205.75 328.6C1207.8 328.6 1209.6 328.992 1211.17 329.776C1212.74 330.532 1214.04 331.596 1215.08 332.968C1216.14 334.312 1216.94 335.88 1217.47 337.672C1218 339.436 1218.27 341.312 1218.27 343.3C1218.27 346.016 1217.79 348.494 1216.84 350.734C1215.89 352.946 1214.49 354.71 1212.64 356.026C1210.79 357.342 1208.5 358 1205.75 358H1195.51C1194.92 358 1194.41 357.804 1193.99 357.412C1193.57 356.992 1193.36 356.474 1193.36 355.858V330.742C1193.36 330.126 1193.57 329.622 1193.99 329.23C1194.41 328.81 1194.92 328.6 1195.51 328.6H1205.75ZM1205.33 353.968C1207.32 353.968 1208.93 353.478 1210.16 352.498C1211.4 351.518 1212.29 350.23 1212.85 348.634C1213.44 347.01 1213.73 345.232 1213.73 343.3C1213.73 341.872 1213.57 340.528 1213.23 339.268C1212.92 337.98 1212.42 336.846 1211.72 335.866C1211.05 334.858 1210.18 334.074 1209.11 333.514C1208.08 332.926 1206.82 332.632 1205.33 332.632H1197.4L1197.77 332.254V354.388L1197.52 353.968H1205.33ZM1225.4 358C1224.82 358 1224.31 357.804 1223.89 357.412C1223.5 356.992 1223.3 356.474 1223.3 355.858V329.062C1223.3 328.446 1223.5 327.942 1223.89 327.55C1224.31 327.13 1224.82 326.92 1225.4 326.92C1226.02 326.92 1226.52 327.13 1226.92 327.55C1227.31 327.942 1227.5 328.446 1227.5 329.062V355.858C1227.5 356.474 1227.31 356.992 1226.92 357.412C1226.52 357.804 1226.02 358 1225.4 358ZM1239.1 335.824C1239.63 335.824 1240.09 336.048 1240.48 336.496C1240.87 336.944 1241.07 337.392 1241.07 337.84C1241.07 338.4 1240.8 338.918 1240.27 339.394L1227.13 351.154L1226.96 346.324L1237.54 336.496C1237.99 336.048 1238.51 335.824 1239.1 335.824ZM1239.6 357.958C1239.01 357.958 1238.51 357.72 1238.09 357.244L1229.69 348.382L1232.88 345.442L1241.07 354.304C1241.52 354.78 1241.74 355.312 1241.74 355.9C1241.74 356.516 1241.49 357.02 1240.99 357.412C1240.51 357.776 1240.05 357.958 1239.6 357.958ZM1246.3 363.544C1245.88 363.544 1245.46 363.376 1245.04 363.04C1244.62 362.704 1244.41 362.284 1244.41 361.78C1244.41 361.472 1244.5 361.178 1244.67 360.898L1262.1 325.576C1262.29 325.184 1262.53 324.89 1262.81 324.694C1263.12 324.498 1263.45 324.4 1263.82 324.4C1264.21 324.4 1264.6 324.554 1264.99 324.862C1265.41 325.17 1265.62 325.604 1265.62 326.164C1265.62 326.472 1265.55 326.78 1265.41 327.088L1247.98 362.41C1247.79 362.774 1247.55 363.054 1247.27 363.25C1246.99 363.446 1246.67 363.544 1246.3 363.544ZM1303.45 328.474C1304.01 328.474 1304.53 328.684 1305.01 329.104C1305.48 329.496 1305.72 330.042 1305.72 330.742C1305.72 330.938 1305.68 331.176 1305.6 331.456L1296.99 356.656C1296.85 357.076 1296.59 357.398 1296.23 357.622C1295.87 357.846 1295.49 357.972 1295.1 358C1294.7 358 1294.31 357.888 1293.92 357.664C1293.53 357.44 1293.23 357.104 1293.04 356.656L1286.4 341.116L1286.78 341.284L1280.23 356.656C1280 357.104 1279.7 357.44 1279.3 357.664C1278.94 357.888 1278.55 358 1278.13 358C1277.76 357.972 1277.4 357.846 1277.04 357.622C1276.67 357.398 1276.42 357.076 1276.28 356.656L1267.67 331.456C1267.59 331.176 1267.54 330.938 1267.54 330.742C1267.54 330.042 1267.8 329.496 1268.3 329.104C1268.8 328.684 1269.32 328.474 1269.85 328.474C1270.3 328.474 1270.71 328.6 1271.07 328.852C1271.46 329.076 1271.73 329.412 1271.87 329.86L1279.14 351.532H1278.38L1284.76 335.908C1284.96 335.488 1285.23 335.152 1285.56 334.9C1285.93 334.648 1286.33 334.536 1286.78 334.564C1287.23 334.536 1287.62 334.648 1287.96 334.9C1288.32 335.152 1288.59 335.488 1288.75 335.908L1294.8 351.07L1294.17 351.406L1301.4 329.86C1301.54 329.412 1301.8 329.076 1302.19 328.852C1302.59 328.6 1303.01 328.474 1303.45 328.474ZM1319.23 358.42C1316.9 358.42 1314.89 357.944 1313.18 356.992C1311.47 356.012 1310.14 354.682 1309.19 353.002C1308.26 351.294 1307.8 349.348 1307.8 347.164C1307.8 344.7 1308.29 342.6 1309.27 340.864C1310.28 339.1 1311.58 337.756 1313.18 336.832C1314.77 335.88 1316.47 335.404 1318.26 335.404C1319.63 335.404 1320.93 335.684 1322.17 336.244C1323.4 336.776 1324.49 337.532 1325.44 338.512C1326.42 339.464 1327.19 340.598 1327.75 341.914C1328.31 343.202 1328.61 344.616 1328.63 346.156C1328.61 346.716 1328.38 347.178 1327.96 347.542C1327.54 347.906 1327.05 348.088 1326.49 348.088H1310.15L1309.15 344.518H1324.94L1324.14 345.274V344.224C1324.08 343.244 1323.76 342.39 1323.17 341.662C1322.59 340.906 1321.86 340.332 1320.99 339.94C1320.12 339.52 1319.21 339.31 1318.26 339.31C1317.42 339.31 1316.61 339.45 1315.82 339.73C1315.07 339.982 1314.38 340.402 1313.77 340.99C1313.18 341.578 1312.7 342.362 1312.34 343.342C1312 344.294 1311.83 345.484 1311.83 346.912C1311.83 348.452 1312.16 349.796 1312.8 350.944C1313.44 352.092 1314.31 352.988 1315.4 353.632C1316.5 354.248 1317.7 354.556 1319.02 354.556C1320.05 354.556 1320.91 354.458 1321.58 354.262C1322.25 354.038 1322.81 353.772 1323.26 353.464C1323.71 353.156 1324.1 352.862 1324.43 352.582C1324.85 352.33 1325.27 352.204 1325.69 352.204C1326.2 352.204 1326.62 352.386 1326.95 352.75C1327.29 353.086 1327.46 353.492 1327.46 353.968C1327.46 354.584 1327.15 355.144 1326.53 355.648C1325.78 356.376 1324.73 357.02 1323.38 357.58C1322.07 358.14 1320.68 358.42 1319.23 358.42ZM1344.51 335.404C1346.47 335.404 1348.21 335.894 1349.72 336.874C1351.26 337.854 1352.48 339.212 1353.37 340.948C1354.27 342.656 1354.72 344.63 1354.72 346.87C1354.72 349.11 1354.27 351.098 1353.37 352.834C1352.48 354.57 1351.27 355.942 1349.76 356.95C1348.25 357.93 1346.54 358.42 1344.64 358.42C1343.57 358.42 1342.57 358.252 1341.61 357.916C1340.66 357.552 1339.82 357.104 1339.09 356.572C1338.37 356.012 1337.76 355.424 1337.29 354.808C1336.84 354.192 1336.56 353.618 1336.45 353.086L1337.58 352.54V356.194C1337.58 356.782 1337.37 357.286 1336.95 357.706C1336.56 358.098 1336.07 358.294 1335.48 358.294C1334.87 358.294 1334.36 358.098 1333.97 357.706C1333.58 357.314 1333.38 356.81 1333.38 356.194V329.062C1333.38 328.446 1333.58 327.942 1333.97 327.55C1334.36 327.13 1334.87 326.92 1335.48 326.92C1336.07 326.92 1336.56 327.13 1336.95 327.55C1337.37 327.942 1337.58 328.446 1337.58 329.062V340.864L1336.91 340.486C1336.99 339.954 1337.26 339.408 1337.71 338.848C1338.16 338.26 1338.72 337.7 1339.39 337.168C1340.09 336.636 1340.87 336.216 1341.74 335.908C1342.64 335.572 1343.56 335.404 1344.51 335.404ZM1344.05 339.268C1342.71 339.268 1341.53 339.604 1340.52 340.276C1339.54 340.948 1338.77 341.858 1338.21 343.006C1337.65 344.126 1337.37 345.414 1337.37 346.87C1337.37 348.326 1337.65 349.642 1338.21 350.818C1338.77 351.966 1339.54 352.876 1340.52 353.548C1341.53 354.22 1342.71 354.556 1344.05 354.556C1345.37 354.556 1346.51 354.22 1347.49 353.548C1348.47 352.876 1349.24 351.952 1349.8 350.776C1350.39 349.6 1350.69 348.298 1350.69 346.87C1350.69 345.414 1350.39 344.126 1349.8 343.006C1349.24 341.858 1348.47 340.948 1347.49 340.276C1346.51 339.604 1345.37 339.268 1344.05 339.268ZM1358.17 354.556C1357.91 354.164 1357.8 353.716 1357.83 353.212C1357.86 352.68 1358.15 352.232 1358.71 351.868C1359.1 351.616 1359.51 351.518 1359.93 351.574C1360.38 351.602 1360.8 351.812 1361.19 352.204C1361.97 353.072 1362.84 353.758 1363.79 354.262C1364.77 354.766 1365.95 355.018 1367.32 355.018C1367.88 354.99 1368.46 354.906 1369.04 354.766C1369.63 354.598 1370.14 354.318 1370.56 353.926C1370.98 353.506 1371.19 352.904 1371.19 352.12C1371.19 351.42 1370.96 350.86 1370.51 350.44C1370.07 350.02 1369.48 349.684 1368.75 349.432C1368.02 349.152 1367.24 348.9 1366.4 348.676C1365.5 348.424 1364.59 348.144 1363.67 347.836C1362.77 347.528 1361.96 347.136 1361.23 346.66C1360.5 346.156 1359.9 345.512 1359.43 344.728C1358.98 343.944 1358.75 342.978 1358.75 341.83C1358.75 340.514 1359.12 339.38 1359.85 338.428C1360.6 337.476 1361.57 336.734 1362.74 336.202C1363.95 335.67 1365.25 335.404 1366.65 335.404C1367.46 335.404 1368.32 335.516 1369.21 335.74C1370.11 335.936 1370.98 336.258 1371.82 336.706C1372.66 337.154 1373.38 337.742 1374 338.47C1374.28 338.834 1374.43 339.268 1374.46 339.772C1374.52 340.276 1374.29 340.724 1373.79 341.116C1373.45 341.396 1373.05 341.522 1372.57 341.494C1372.1 341.466 1371.7 341.312 1371.4 341.032C1370.86 340.36 1370.18 339.842 1369.34 339.478C1368.5 339.086 1367.55 338.89 1366.48 338.89C1365.95 338.89 1365.39 338.974 1364.8 339.142C1364.24 339.282 1363.77 339.548 1363.37 339.94C1362.98 340.332 1362.79 340.906 1362.79 341.662C1362.79 342.362 1363.01 342.922 1363.46 343.342C1363.93 343.762 1364.55 344.112 1365.31 344.392C1366.06 344.672 1366.89 344.924 1367.78 345.148C1368.65 345.372 1369.51 345.638 1370.35 345.946C1371.21 346.254 1371.98 346.66 1372.66 347.164C1373.36 347.64 1373.92 348.27 1374.34 349.054C1374.78 349.81 1375.01 350.776 1375.01 351.952C1375.01 353.324 1374.6 354.5 1373.79 355.48C1373.01 356.432 1372 357.16 1370.77 357.664C1369.56 358.168 1368.29 358.42 1366.94 358.42C1365.35 358.42 1363.75 358.14 1362.16 357.58C1360.59 356.992 1359.26 355.984 1358.17 354.556ZM1383.47 355.858C1383.47 356.474 1383.28 356.992 1382.88 357.412C1382.49 357.804 1381.99 358 1381.37 358C1380.78 358 1380.28 357.804 1379.86 357.412C1379.47 356.992 1379.27 356.474 1379.27 355.858V337.882C1379.27 337.266 1379.47 336.762 1379.86 336.37C1380.28 335.95 1380.78 335.74 1381.37 335.74C1381.99 335.74 1382.49 335.95 1382.88 336.37C1383.28 336.762 1383.47 337.266 1383.47 337.882V355.858ZM1381.33 332.968C1380.52 332.968 1379.93 332.828 1379.57 332.548C1379.2 332.24 1379.02 331.736 1379.02 331.036V330.364C1379.02 329.664 1379.22 329.174 1379.61 328.894C1380 328.614 1380.59 328.474 1381.37 328.474C1382.21 328.474 1382.81 328.628 1383.18 328.936C1383.54 329.216 1383.72 329.692 1383.72 330.364V331.036C1383.72 331.764 1383.53 332.268 1383.14 332.548C1382.77 332.828 1382.17 332.968 1381.33 332.968ZM1388.83 336.16H1398.7C1399.26 336.16 1399.72 336.356 1400.08 336.748C1400.48 337.112 1400.67 337.574 1400.67 338.134C1400.67 338.666 1400.48 339.114 1400.08 339.478C1399.72 339.842 1399.26 340.024 1398.7 340.024H1388.83C1388.27 340.024 1387.79 339.842 1387.4 339.478C1387.04 339.086 1386.85 338.624 1386.85 338.092C1386.85 337.532 1387.04 337.07 1387.4 336.706C1387.79 336.342 1388.27 336.16 1388.83 336.16ZM1393.24 330.7C1393.85 330.7 1394.36 330.91 1394.75 331.33C1395.14 331.722 1395.34 332.226 1395.34 332.842V352.33C1395.34 352.834 1395.42 353.24 1395.59 353.548C1395.76 353.856 1395.98 354.066 1396.26 354.178C1396.57 354.29 1396.88 354.346 1397.19 354.346C1397.49 354.346 1397.76 354.29 1397.98 354.178C1398.24 354.066 1398.53 354.01 1398.87 354.01C1399.2 354.01 1399.51 354.164 1399.79 354.472C1400.07 354.78 1400.21 355.2 1400.21 355.732C1400.21 356.404 1399.85 356.95 1399.12 357.37C1398.39 357.79 1397.61 358 1396.77 358C1396.29 358 1395.73 357.958 1395.09 357.874C1394.44 357.79 1393.81 357.58 1393.2 357.244C1392.61 356.908 1392.12 356.376 1391.73 355.648C1391.33 354.892 1391.14 353.842 1391.14 352.498V332.842C1391.14 332.226 1391.33 331.722 1391.73 331.33C1392.15 330.91 1392.65 330.7 1393.24 330.7ZM1415.41 358.42C1413.08 358.42 1411.07 357.944 1409.36 356.992C1407.65 356.012 1406.32 354.682 1405.37 353.002C1404.45 351.294 1403.98 349.348 1403.98 347.164C1403.98 344.7 1404.47 342.6 1405.45 340.864C1406.46 339.1 1407.76 337.756 1409.36 336.832C1410.96 335.88 1412.65 335.404 1414.44 335.404C1415.81 335.404 1417.12 335.684 1418.35 336.244C1419.58 336.776 1420.67 337.532 1421.62 338.512C1422.6 339.464 1423.37 340.598 1423.93 341.914C1424.49 343.202 1424.79 344.616 1424.82 346.156C1424.79 346.716 1424.56 347.178 1424.14 347.542C1423.72 347.906 1423.23 348.088 1422.67 348.088H1406.34L1405.33 344.518H1421.12L1420.32 345.274V344.224C1420.27 343.244 1419.94 342.39 1419.36 341.662C1418.77 340.906 1418.04 340.332 1417.17 339.94C1416.3 339.52 1415.39 339.31 1414.44 339.31C1413.6 339.31 1412.79 339.45 1412.01 339.73C1411.25 339.982 1410.56 340.402 1409.95 340.99C1409.36 341.578 1408.88 342.362 1408.52 343.342C1408.18 344.294 1408.02 345.484 1408.02 346.912C1408.02 348.452 1408.34 349.796 1408.98 350.944C1409.63 352.092 1410.49 352.988 1411.59 353.632C1412.68 354.248 1413.88 354.556 1415.2 354.556C1416.23 354.556 1417.09 354.458 1417.76 354.262C1418.43 354.038 1418.99 353.772 1419.44 353.464C1419.89 353.156 1420.28 352.862 1420.62 352.582C1421.04 352.33 1421.46 352.204 1421.88 352.204C1422.38 352.204 1422.8 352.386 1423.14 352.75C1423.47 353.086 1423.64 353.492 1423.64 353.968C1423.64 354.584 1423.33 355.144 1422.72 355.648C1421.96 356.376 1420.91 357.02 1419.57 357.58C1418.25 358.14 1416.86 358.42 1415.41 358.42ZM1429.48 363.544C1429.06 363.544 1428.64 363.376 1428.22 363.04C1427.8 362.704 1427.59 362.284 1427.59 361.78C1427.59 361.472 1427.67 361.178 1427.84 360.898L1445.27 325.576C1445.47 325.184 1445.71 324.89 1445.99 324.694C1446.29 324.498 1446.63 324.4 1446.99 324.4C1447.39 324.4 1447.78 324.554 1448.17 324.862C1448.59 325.17 1448.8 325.604 1448.8 326.164C1448.8 326.472 1448.73 326.78 1448.59 327.088L1431.16 362.41C1430.96 362.774 1430.73 363.054 1430.45 363.25C1430.17 363.446 1429.84 363.544 1429.48 363.544Z" fill="black"/>
</svg>
