<svg width="529" height="190" viewBox="0 0 529 190" fill="none" xmlns="http://www.w3.org/2000/svg">
<path d="M54.8042 129.886C29.0703 101.073 33.7029 59.5801 65.1512 37.2079C96.5996 14.8358 142.955 20.0568 168.689 48.8694C194.423 77.6821 189.79 119.176 158.342 141.548C126.893 163.92 80.538 158.699 54.8042 129.886Z" fill="#FCD993"/>
<path d="M95.4271 109.284C70.6246 81.5145 75.6075 41.1542 106.557 19.1372C137.506 -2.87984 182.702 1.78377 207.504 29.5536C232.307 57.3235 227.324 97.6838 196.375 119.701C165.425 141.718 120.23 137.054 95.4271 109.284Z" fill="#FFFBF5"/>
<path d="M118.187 45.2467C119.079 45.3411 121.32 45.606 123.634 47.3001C124.487 47.9245 125.813 48.9196 126.8 50.852C127.839 52.8853 127.903 54.7793 127.912 55.2178C127.92 55.6744 127.928 57.7831 126.777 60.0407C125.668 62.2154 124.113 63.292 123.095 63.9783C122.617 64.3003 120.25 65.8449 116.852 65.9542C115.819 65.9872 113.296 66.0342 110.618 64.4128C109.675 63.8423 107.946 62.7628 106.731 60.4568C106.395 59.8176 105.567 58.2014 105.54 55.8953C105.534 55.332 105.56 53.5522 106.465 51.5957C107.114 50.19 107.917 49.3398 108.428 48.8095C109.818 47.3638 111.216 46.7051 112.123 46.2897C113.297 45.7506 114.239 45.5272 114.533 45.4613C115.227 45.3058 116.55 45.077 118.187 45.2493L118.187 45.2467Z" fill="#FFD278" fill-opacity="0.78" stroke="white" stroke-width="0.25" stroke-linecap="round" stroke-linejoin="round"/>
<path d="M135.692 102.055C135.828 102.055 135.944 102.103 136.04 102.199C136.136 102.287 136.183 102.399 136.183 102.535C136.183 102.671 136.135 102.783 136.039 102.871C135.943 102.959 135.827 103.003 135.691 103.003L131.539 103.001C131.403 103.001 131.287 102.953 131.191 102.857C131.103 102.761 131.059 102.645 131.059 102.509L131.063 95.0805C131.063 94.9445 131.111 94.8326 131.207 94.7446C131.303 94.6487 131.423 94.6007 131.567 94.6008C131.703 94.6009 131.819 94.6489 131.915 94.745C132.011 94.833 132.059 94.945 132.059 95.081L132.056 102.269L131.816 102.053L135.692 102.055ZM138.319 102.512C138.319 102.648 138.271 102.764 138.175 102.86C138.087 102.956 137.975 103.004 137.839 103.004C137.695 103.004 137.579 102.956 137.491 102.86C137.403 102.764 137.359 102.648 137.359 102.512L137.362 97.1837C137.362 97.0477 137.406 96.9358 137.494 96.8478C137.59 96.7519 137.706 96.7039 137.842 96.704C137.978 96.704 138.09 96.7521 138.178 96.8482C138.274 96.9362 138.322 97.0482 138.322 97.1842L138.319 102.512ZM137.843 95.9C137.643 95.8999 137.495 95.8598 137.399 95.7798C137.303 95.6997 137.255 95.5757 137.255 95.4077L137.255 95.2397C137.255 95.0717 137.307 94.9477 137.411 94.8678C137.515 94.7878 137.663 94.7479 137.855 94.748C138.047 94.7481 138.191 94.7882 138.287 94.8682C138.383 94.9483 138.431 95.0723 138.431 95.2403L138.431 95.4083C138.431 95.5763 138.379 95.7003 138.275 95.7802C138.179 95.8602 138.035 95.9001 137.843 95.9ZM143.131 96.6467C143.675 96.6469 144.103 96.7592 144.415 96.9833C144.726 97.2075 144.946 97.5076 145.074 97.8837C145.21 98.2597 145.278 98.6798 145.277 99.1438L145.276 102.516C145.276 102.652 145.228 102.768 145.132 102.864C145.044 102.96 144.932 103.008 144.796 103.008C144.66 103.007 144.544 102.959 144.448 102.863C144.36 102.767 144.316 102.651 144.316 102.515L144.317 99.1673C144.318 98.8633 144.27 98.5912 144.174 98.3512C144.086 98.1032 143.934 97.9071 143.718 97.763C143.51 97.6109 143.222 97.5347 142.854 97.5345C142.518 97.5344 142.21 97.6102 141.93 97.7621C141.65 97.9059 141.426 98.1018 141.258 98.3497C141.09 98.5896 141.006 98.8616 141.005 99.1656L141.004 102.514C141.004 102.65 140.956 102.766 140.86 102.862C140.772 102.957 140.66 103.005 140.524 103.005C140.388 103.005 140.272 102.957 140.176 102.861C140.088 102.765 140.044 102.649 140.044 102.513L140.046 97.2811C140.046 97.1451 140.091 97.0331 140.179 96.9452C140.275 96.8492 140.391 96.8013 140.527 96.8013C140.671 96.8014 140.787 96.8495 140.875 96.9455C140.963 97.0336 141.006 97.1456 141.006 97.2816L141.006 98.1336L140.766 98.3975C140.806 98.1895 140.898 97.9815 141.042 97.7736C141.186 97.5577 141.366 97.3658 141.582 97.1979C141.799 97.03 142.039 96.8981 142.303 96.8022C142.567 96.6984 142.843 96.6465 143.131 96.6467ZM147.627 103.009C147.483 103.009 147.367 102.961 147.279 102.865C147.191 102.769 147.148 102.653 147.148 102.517L147.152 94.6087C147.152 94.4727 147.196 94.3607 147.284 94.2728C147.372 94.1768 147.488 94.1289 147.632 94.129C147.768 94.129 147.88 94.1771 147.968 94.2731C148.064 94.3612 148.112 94.4732 148.112 94.6092L148.108 102.517C148.108 102.653 148.059 102.769 147.963 102.865C147.875 102.961 147.763 103.009 147.627 103.009ZM151.615 96.771C151.743 96.771 151.85 96.8231 151.938 96.9271C152.034 97.0232 152.082 97.1232 152.082 97.2272C152.082 97.3632 152.018 97.4832 151.89 97.5871L148 100.981L147.965 99.8651L151.278 96.9148C151.374 96.8189 151.487 96.7709 151.615 96.771ZM151.743 102.999C151.607 102.999 151.487 102.947 151.383 102.843L148.829 100.118L149.549 99.4579L152.08 102.171C152.176 102.275 152.224 102.395 152.224 102.531C152.223 102.675 152.167 102.791 152.055 102.879C151.943 102.959 151.839 102.999 151.743 102.999ZM159.691 103.015C159.547 103.015 159.427 102.967 159.331 102.871C159.235 102.775 159.187 102.659 159.187 102.523L159.191 95.1068L160.211 95.1073L160.207 102.523C160.207 102.659 160.159 102.775 160.063 102.871C159.967 102.967 159.843 103.015 159.691 103.015ZM156.91 95.5257C156.774 95.5256 156.658 95.4855 156.562 95.4055C156.474 95.3174 156.43 95.2054 156.431 95.0694C156.431 94.9334 156.475 94.8255 156.563 94.7455C156.659 94.6575 156.775 94.6136 156.911 94.6137L162.491 94.6165C162.627 94.6166 162.743 94.6606 162.839 94.7487C162.935 94.8287 162.983 94.9368 162.983 95.0728C162.982 95.2168 162.934 95.3287 162.838 95.4087C162.742 95.4886 162.626 95.5286 162.49 95.5285L156.91 95.5257ZM165.179 102.526C165.179 102.662 165.131 102.778 165.035 102.874C164.946 102.97 164.834 103.018 164.698 103.018C164.554 103.018 164.438 102.969 164.351 102.873C164.263 102.777 164.219 102.661 164.219 102.525L164.221 97.1974C164.221 97.0614 164.266 96.9494 164.354 96.8615C164.45 96.7655 164.566 96.7176 164.702 96.7176C164.838 96.7177 164.95 96.7658 165.038 96.8618C165.134 96.9499 165.181 97.0619 165.181 97.1979L165.179 102.526ZM164.702 95.9136C164.502 95.9135 164.354 95.8735 164.258 95.7934C164.162 95.7134 164.114 95.5893 164.114 95.4213L164.114 95.2533C164.114 95.0853 164.167 94.9614 164.271 94.8814C164.375 94.8015 164.523 94.7615 164.715 94.7616C164.907 94.7617 165.051 94.8018 165.147 94.8819C165.243 94.9619 165.29 95.0859 165.29 95.2539L165.29 95.4219C165.29 95.5899 165.238 95.7139 165.134 95.7939C165.038 95.8738 164.894 95.9137 164.702 95.9136ZM167.959 102.527C167.959 102.663 167.911 102.779 167.815 102.875C167.719 102.971 167.603 103.019 167.467 103.019C167.331 103.019 167.219 102.971 167.131 102.875C167.043 102.779 166.999 102.663 166.999 102.527L167.003 94.6188C167.003 94.4828 167.047 94.3708 167.135 94.2829C167.231 94.1869 167.347 94.139 167.483 94.139C167.627 94.1391 167.743 94.1872 167.831 94.2832C167.919 94.3713 167.963 94.4833 167.963 94.6193L167.959 102.527ZM173.802 94.6223C173.938 94.6223 174.054 94.6704 174.15 94.7664C174.246 94.8545 174.294 94.9705 174.294 95.1145L174.29 102.531C174.29 102.667 174.238 102.782 174.134 102.878C174.038 102.974 173.922 103.022 173.786 103.022C173.634 103.022 173.514 102.974 173.426 102.878C173.338 102.782 173.294 102.666 173.294 102.53L173.298 95.114C173.298 94.97 173.346 94.854 173.442 94.7661C173.538 94.6701 173.658 94.6222 173.802 94.6223ZM179.334 94.6251C179.478 94.6251 179.594 94.6732 179.682 94.7692C179.778 94.8573 179.826 94.9733 179.826 95.1173L179.822 102.533C179.822 102.669 179.774 102.785 179.678 102.881C179.582 102.977 179.462 103.025 179.318 103.025C179.182 103.025 179.066 102.977 178.97 102.881C178.874 102.785 178.826 102.669 178.826 102.533L178.83 95.1168C178.83 94.9728 178.878 94.8568 178.974 94.7689C179.078 94.6729 179.198 94.625 179.334 94.6251ZM173.752 98.2822L179.344 98.2851L179.331 99.2211L173.715 99.2182L173.752 98.2822ZM182.89 103.435C182.89 103.843 182.798 104.191 182.614 104.479C182.437 104.767 182.213 104.991 181.941 105.15C181.669 105.31 181.385 105.39 181.089 105.39C180.953 105.39 180.845 105.346 180.765 105.258C180.677 105.17 180.633 105.066 180.633 104.946L180.633 104.862C180.633 104.742 180.673 104.646 180.753 104.574C180.834 104.502 180.934 104.45 181.054 104.418C181.238 104.37 181.394 104.294 181.522 104.19C181.65 104.094 181.75 103.962 181.822 103.794C181.894 103.634 181.93 103.442 181.93 103.218L181.933 97.3024C181.933 97.1664 181.977 97.0504 182.065 96.9545C182.161 96.8585 182.277 96.8106 182.413 96.8106C182.557 96.8107 182.673 96.8588 182.761 96.9548C182.849 97.0509 182.893 97.1669 182.893 97.3029L182.89 103.435ZM182.414 95.9226C182.214 95.9225 182.066 95.8825 181.97 95.8024C181.874 95.7224 181.826 95.5983 181.826 95.4303L181.826 95.2623C181.826 95.0943 181.878 94.9704 181.982 94.8904C182.086 94.8105 182.234 94.7705 182.426 94.7706C182.618 94.7707 182.762 94.8108 182.858 94.8909C182.954 94.9709 183.002 95.0949 183.002 95.2629L183.002 95.4309C183.002 95.5989 182.95 95.7229 182.846 95.8029C182.75 95.8828 182.606 95.9227 182.414 95.9226ZM187.9 103.149C187.26 103.149 186.7 103.013 186.22 102.741C185.74 102.468 185.364 102.096 185.093 101.624C184.829 101.144 184.697 100.592 184.697 99.9678C184.698 99.2718 184.834 98.6799 185.106 98.192C185.386 97.6961 185.747 97.3203 186.187 97.0646C186.635 96.8008 187.107 96.669 187.603 96.6693C187.971 96.6695 188.327 96.7376 188.671 96.8738C189.015 97.01 189.319 97.2101 189.583 97.4743C189.846 97.7304 190.058 98.0425 190.218 98.4106C190.378 98.7707 190.462 99.1747 190.47 99.6227C190.469 99.7507 190.421 99.8587 190.325 99.9467C190.229 100.035 190.117 100.079 189.989 100.078L185.249 100.076L185.034 99.248L189.654 99.2503L189.462 99.4182L189.462 99.1542C189.43 98.8262 189.318 98.5461 189.126 98.314C188.942 98.074 188.714 97.8898 188.442 97.7617C188.179 97.6336 187.899 97.5694 187.603 97.5693C187.363 97.5691 187.123 97.613 186.882 97.7009C186.65 97.7808 186.438 97.9167 186.246 98.1086C186.062 98.2925 185.91 98.5324 185.79 98.8283C185.678 99.1243 185.622 99.4803 185.621 99.8963C185.621 100.36 185.713 100.768 185.897 101.12C186.089 101.473 186.352 101.753 186.688 101.961C187.024 102.161 187.416 102.261 187.864 102.261C188.144 102.262 188.388 102.226 188.596 102.154C188.804 102.082 188.984 101.994 189.136 101.89C189.288 101.778 189.416 101.666 189.521 101.554C189.625 101.482 189.725 101.446 189.821 101.446C189.941 101.446 190.037 101.487 190.109 101.567C190.188 101.647 190.228 101.743 190.228 101.855C190.228 101.991 190.164 102.111 190.036 102.215C189.812 102.462 189.508 102.682 189.124 102.874C188.74 103.058 188.332 103.15 187.9 103.149ZM194.878 96.733C195.422 96.7332 195.862 96.8735 196.198 97.1536C196.542 97.4258 196.769 97.8139 196.881 98.318L196.701 98.3179L196.785 98.1019C196.881 97.878 197.045 97.6621 197.278 97.4542C197.51 97.2463 197.778 97.0744 198.082 96.9386C198.386 96.8028 198.702 96.7349 199.03 96.7351C199.558 96.7353 199.974 96.8516 200.278 97.0837C200.582 97.3079 200.797 97.612 200.925 97.996C201.061 98.3721 201.129 98.7961 201.129 99.2681L201.127 102.544C201.127 102.68 201.079 102.796 200.983 102.892C200.895 102.988 200.783 103.036 200.647 103.036C200.503 103.036 200.387 102.988 200.299 102.892C200.211 102.796 200.167 102.68 200.167 102.544L200.169 99.2917C200.169 98.9797 200.121 98.6996 200.025 98.4516C199.937 98.1955 199.789 97.9955 199.581 97.8514C199.381 97.6993 199.105 97.6231 198.753 97.6229C198.425 97.6228 198.125 97.6986 197.853 97.8505C197.581 97.9943 197.365 98.1942 197.205 98.4502C197.045 98.6981 196.965 98.978 196.965 99.29L196.963 102.542C196.963 102.678 196.919 102.794 196.831 102.89C196.743 102.986 196.627 103.034 196.483 103.034C196.347 103.034 196.231 102.986 196.135 102.89C196.047 102.794 196.003 102.678 196.003 102.542L196.005 99.2535C196.005 98.9495 195.961 98.6775 195.873 98.4375C195.793 98.1894 195.653 97.9934 195.453 97.8493C195.253 97.6972 194.977 97.621 194.625 97.6208C194.305 97.6207 194.013 97.6965 193.749 97.8484C193.485 97.9923 193.273 98.1882 193.113 98.4361C192.953 98.676 192.873 98.9479 192.873 99.2519L192.871 102.54C192.871 102.676 192.823 102.792 192.727 102.888C192.639 102.984 192.527 103.032 192.391 103.032C192.255 103.032 192.139 102.984 192.043 102.888C191.955 102.791 191.911 102.675 191.911 102.539L191.914 97.3075C191.914 97.1715 191.958 97.0595 192.046 96.9715C192.142 96.8756 192.258 96.8276 192.394 96.8277C192.538 96.8278 192.654 96.8758 192.742 96.9719C192.83 97.0599 192.874 97.1719 192.874 97.3079L192.873 98.2199L192.609 98.5078C192.641 98.2998 192.721 98.0919 192.849 97.8839C192.985 97.676 193.158 97.4841 193.366 97.3082C193.574 97.1323 193.806 96.9924 194.062 96.8886C194.318 96.7847 194.59 96.7328 194.878 96.733ZM205.87 96.7386C206.414 96.7388 206.854 96.8791 207.19 97.1592C207.534 97.4314 207.762 97.8195 207.873 98.3236L207.693 98.3235L207.777 98.1075C207.873 97.8836 208.038 97.6677 208.27 97.4598C208.502 97.2519 208.77 97.08 209.074 96.9442C209.378 96.8083 209.694 96.7405 210.022 96.7407C210.55 96.7409 210.966 96.8571 211.27 97.0893C211.574 97.3135 211.79 97.6176 211.917 98.0016C212.053 98.3777 212.121 98.8017 212.121 99.2737L212.119 102.55C212.119 102.686 212.071 102.802 211.975 102.898C211.887 102.994 211.775 103.042 211.639 103.041C211.495 103.041 211.379 102.993 211.291 102.897C211.203 102.801 211.159 102.685 211.159 102.549L211.161 99.2972C211.161 98.9852 211.113 98.7052 211.017 98.4572C210.929 98.2011 210.781 98.0011 210.574 97.8569C210.374 97.7048 210.098 97.6287 209.746 97.6285C209.418 97.6284 209.118 97.7042 208.846 97.8561C208.573 97.9999 208.357 98.1998 208.197 98.4557C208.037 98.7037 207.957 98.9836 207.957 99.2956L207.955 102.548C207.955 102.684 207.911 102.8 207.823 102.896C207.735 102.992 207.619 103.039 207.475 103.039C207.339 103.039 207.223 102.991 207.127 102.895C207.039 102.799 206.995 102.683 206.995 102.547L206.997 99.2591C206.997 98.9551 206.953 98.6831 206.865 98.4431C206.785 98.195 206.645 97.9989 206.446 97.8548C206.246 97.7027 205.97 97.6266 205.618 97.6264C205.298 97.6263 205.006 97.7021 204.742 97.854C204.477 97.9978 204.265 98.1937 204.105 98.4417C203.945 98.6816 203.865 98.9535 203.865 99.2575L203.863 102.546C203.863 102.682 203.815 102.798 203.719 102.893C203.631 102.989 203.519 103.037 203.383 103.037C203.247 103.037 203.131 102.989 203.035 102.893C202.947 102.797 202.903 102.681 202.903 102.545L202.906 97.313C202.906 97.177 202.95 97.0651 203.038 96.9771C203.134 96.8812 203.25 96.8332 203.386 96.8333C203.53 96.8334 203.646 96.8814 203.734 96.9775C203.822 97.0655 203.866 97.1775 203.866 97.3135L203.865 98.2255L203.601 98.5134C203.633 98.3054 203.713 98.0975 203.841 97.8895C203.978 97.6816 204.15 97.4897 204.358 97.3138C204.566 97.1379 204.798 96.998 205.054 96.8941C205.31 96.7903 205.582 96.7384 205.87 96.7386ZM216.763 103.164C216.123 103.164 215.563 103.027 215.083 102.755C214.603 102.483 214.228 102.111 213.956 101.639C213.692 101.159 213.56 100.606 213.561 99.9825C213.561 99.2865 213.697 98.6945 213.97 98.2067C214.25 97.7108 214.61 97.335 215.05 97.0792C215.498 96.8154 215.97 96.6837 216.466 96.6839C216.834 96.6841 217.19 96.7523 217.534 96.8885C217.878 97.0247 218.182 97.2248 218.446 97.4889C218.71 97.7451 218.922 98.0572 219.081 98.4253C219.241 98.7853 219.325 99.1894 219.333 99.6374C219.333 99.7654 219.285 99.8734 219.189 99.9613C219.093 100.049 218.981 100.093 218.853 100.093L214.113 100.091L213.897 99.2626L218.517 99.265L218.325 99.4329L218.325 99.1689C218.293 98.8409 218.181 98.5608 217.989 98.3287C217.806 98.0886 217.578 97.9045 217.306 97.7764C217.042 97.6482 216.762 97.5841 216.466 97.5839C216.226 97.5838 215.986 97.6277 215.746 97.7156C215.514 97.7955 215.302 97.9313 215.11 98.1232C214.925 98.3072 214.773 98.5471 214.653 98.843C214.541 99.139 214.485 99.4949 214.485 99.9109C214.484 100.375 214.576 100.783 214.76 101.135C214.952 101.487 215.216 101.767 215.552 101.975C215.888 102.176 216.279 102.276 216.727 102.276C217.007 102.276 217.251 102.24 217.46 102.168C217.668 102.097 217.848 102.009 218 101.905C218.152 101.793 218.28 101.681 218.384 101.569C218.488 101.497 218.588 101.461 218.684 101.461C218.804 101.461 218.9 101.501 218.972 101.581C219.052 101.661 219.092 101.757 219.092 101.869C219.092 102.005 219.028 102.125 218.899 102.229C218.675 102.477 218.371 102.697 217.987 102.889C217.603 103.073 217.195 103.164 216.763 103.164ZM220.426 102.062C220.355 101.958 220.323 101.85 220.331 101.738C220.339 101.618 220.407 101.514 220.535 101.426C220.615 101.37 220.707 101.346 220.811 101.354C220.923 101.362 221.023 101.414 221.111 101.51C221.335 101.774 221.591 101.987 221.878 102.147C222.166 102.299 222.518 102.375 222.934 102.375C223.126 102.367 223.318 102.335 223.51 102.28C223.702 102.224 223.862 102.128 223.99 101.992C224.127 101.848 224.195 101.66 224.195 101.428C224.195 101.204 224.127 101.028 223.991 100.9C223.855 100.764 223.679 100.656 223.463 100.575C223.247 100.487 223.011 100.411 222.755 100.347C222.491 100.275 222.231 100.195 221.975 100.107C221.72 100.011 221.488 99.8945 221.28 99.7584C221.08 99.6143 220.916 99.4382 220.788 99.2301C220.668 99.0141 220.608 98.754 220.608 98.45C220.608 98.09 220.705 97.7781 220.897 97.5142C221.097 97.2503 221.361 97.0464 221.689 96.9026C222.025 96.7588 222.389 96.6869 222.781 96.6871C223.005 96.6873 223.237 96.7154 223.477 96.7715C223.725 96.8196 223.965 96.9078 224.197 97.0359C224.429 97.156 224.633 97.3241 224.809 97.5402C224.881 97.6202 224.921 97.7202 224.929 97.8402C224.937 97.9602 224.884 98.0682 224.772 98.1642C224.684 98.2281 224.584 98.2561 224.472 98.248C224.368 98.24 224.28 98.1999 224.208 98.1279C224.041 97.9278 223.829 97.7757 223.573 97.6716C223.325 97.5594 223.049 97.5033 222.745 97.5031C222.553 97.503 222.365 97.5309 222.181 97.5868C221.997 97.6428 221.841 97.7387 221.713 97.8746C221.593 98.0025 221.532 98.1825 221.532 98.4145C221.54 98.6305 221.612 98.8066 221.748 98.9426C221.884 99.0787 222.068 99.1908 222.3 99.2789C222.532 99.359 222.788 99.4392 223.068 99.5193C223.324 99.5834 223.568 99.6595 223.8 99.7477C224.04 99.8278 224.256 99.9359 224.447 100.072C224.639 100.208 224.791 100.384 224.903 100.6C225.015 100.808 225.071 101.072 225.071 101.392C225.071 101.76 224.966 102.08 224.758 102.352C224.55 102.616 224.274 102.82 223.93 102.964C223.594 103.1 223.23 103.167 222.838 103.167C222.398 103.167 221.962 103.083 221.53 102.915C221.106 102.746 220.738 102.462 220.426 102.062ZM227.382 102.557C227.382 102.693 227.334 102.809 227.238 102.905C227.15 103.001 227.038 103.049 226.902 103.049C226.758 103.049 226.642 103.001 226.554 102.905C226.466 102.809 226.422 102.693 226.422 102.557L226.425 97.229C226.425 97.093 226.469 96.981 226.557 96.8931C226.653 96.7971 226.769 96.7492 226.905 96.7492C227.041 96.7493 227.153 96.7974 227.241 96.8934C227.337 96.9815 227.385 97.0935 227.385 97.2295L227.382 102.557ZM226.905 95.9452C226.705 95.9451 226.557 95.9051 226.461 95.825C226.365 95.745 226.317 95.6209 226.317 95.4529L226.318 95.2849C226.318 95.1169 226.37 94.993 226.474 94.913C226.578 94.8331 226.726 94.7932 226.918 94.7933C227.11 94.7933 227.254 94.8334 227.35 94.9135C227.446 94.9935 227.494 95.1175 227.494 95.2855L227.493 95.4535C227.493 95.6215 227.441 95.7455 227.337 95.8255C227.241 95.9054 227.097 95.9453 226.905 95.9452ZM234.223 94.173C234.359 94.173 234.47 94.2211 234.558 94.3171C234.654 94.4052 234.702 94.5172 234.702 94.6532L234.698 102.561C234.698 102.697 234.65 102.813 234.554 102.909C234.466 103.005 234.354 103.053 234.218 103.053C234.074 103.053 233.958 103.005 233.87 102.909C233.782 102.813 233.738 102.697 233.738 102.561L233.739 101.421L233.967 101.337C233.967 101.529 233.907 101.733 233.787 101.949C233.666 102.157 233.502 102.353 233.294 102.536C233.086 102.72 232.838 102.872 232.55 102.992C232.27 103.112 231.966 103.172 231.638 103.172C231.102 103.171 230.614 103.031 230.174 102.751C229.742 102.471 229.398 102.087 229.143 101.598C228.895 101.11 228.771 100.554 228.772 99.9302C228.772 99.2982 228.896 98.7383 229.144 98.2504C229.401 97.7625 229.745 97.3827 230.177 97.1109C230.609 96.8311 231.089 96.6914 231.617 96.6916C231.953 96.6918 232.269 96.748 232.565 96.8601C232.861 96.9723 233.117 97.1244 233.333 97.3165C233.557 97.5086 233.733 97.7207 233.861 97.9528C233.988 98.1848 234.052 98.4169 234.052 98.6489L233.74 98.5767L233.742 94.6527C233.742 94.5167 233.786 94.4047 233.874 94.3168C233.962 94.2208 234.079 94.1729 234.223 94.173ZM231.746 102.284C232.146 102.284 232.498 102.184 232.803 101.984C233.115 101.776 233.355 101.497 233.523 101.145C233.699 100.785 233.787 100.381 233.788 99.9327C233.788 99.4767 233.7 99.0727 233.524 98.7206C233.356 98.3685 233.117 98.0924 232.805 97.8922C232.501 97.6841 232.149 97.5799 231.749 97.5797C231.357 97.5795 231.005 97.6833 230.693 97.8912C230.389 98.091 230.148 98.3669 229.972 98.7188C229.796 99.0707 229.708 99.4747 229.708 99.9307C229.707 100.371 229.795 100.771 229.971 101.131C230.147 101.483 230.387 101.763 230.691 101.971C231.002 102.179 231.354 102.284 231.746 102.284ZM239.345 103.176C238.705 103.175 238.145 103.039 237.665 102.767C237.185 102.494 236.81 102.122 236.538 101.65C236.274 101.17 236.142 100.618 236.143 99.9939C236.143 99.2979 236.279 98.706 236.552 98.2181C236.832 97.7223 237.192 97.3465 237.632 97.0907C238.08 96.8269 238.552 96.6952 239.048 96.6954C239.416 96.6956 239.772 96.7638 240.116 96.9C240.46 97.0361 240.764 97.2363 241.028 97.5004C241.292 97.7566 241.504 98.0687 241.663 98.4367C241.823 98.7968 241.907 99.2009 241.915 99.6489C241.915 99.7769 241.867 99.8848 241.771 99.9728C241.675 100.061 241.563 100.105 241.435 100.105L236.695 100.102L236.479 99.2741L241.099 99.2765L240.907 99.4444L240.907 99.1804C240.875 98.8523 240.763 98.5723 240.571 98.3402C240.388 98.1001 240.16 97.916 239.888 97.7878C239.624 97.6597 239.344 97.5956 239.048 97.5954C238.808 97.5953 238.568 97.6392 238.328 97.7271C238.096 97.8069 237.884 97.9428 237.692 98.1347C237.507 98.3186 237.355 98.5586 237.235 98.8545C237.123 99.1504 237.067 99.5064 237.067 99.9224C237.066 100.386 237.158 100.794 237.342 101.147C237.534 101.499 237.798 101.779 238.134 101.987C238.47 102.187 238.861 102.287 239.309 102.288C239.589 102.288 239.833 102.252 240.042 102.18C240.25 102.108 240.43 102.02 240.582 101.916C240.734 101.804 240.862 101.692 240.966 101.58C241.07 101.508 241.17 101.472 241.266 101.473C241.386 101.473 241.482 101.513 241.554 101.593C241.634 101.673 241.674 101.769 241.674 101.881C241.674 102.017 241.61 102.137 241.481 102.241C241.257 102.489 240.953 102.708 240.569 102.9C240.185 103.084 239.777 103.176 239.345 103.176ZM249.433 103.061C249.289 103.061 249.169 103.013 249.073 102.917C248.977 102.82 248.929 102.704 248.929 102.568L248.933 95.1524L249.953 95.153L249.949 102.569C249.949 102.705 249.901 102.821 249.805 102.917C249.709 103.013 249.585 103.061 249.433 103.061ZM246.652 95.5713C246.516 95.5712 246.401 95.5312 246.305 95.4511C246.217 95.3631 246.173 95.251 246.173 95.115C246.173 94.979 246.217 94.8711 246.305 94.7911C246.401 94.7032 246.517 94.6592 246.653 94.6593L252.233 94.6621C252.369 94.6622 252.485 94.7062 252.581 94.7943C252.677 94.8743 252.725 94.9824 252.725 95.1184C252.725 95.2624 252.677 95.3743 252.581 95.4543C252.484 95.5342 252.368 95.5742 252.232 95.5741L246.652 95.5713ZM255.423 103.184C254.783 103.183 254.223 103.047 253.743 102.775C253.263 102.503 252.888 102.13 252.616 101.658C252.352 101.178 252.22 100.626 252.221 100.002C252.221 99.3061 252.357 98.7142 252.63 98.2263C252.91 97.7305 253.27 97.3546 253.71 97.0989C254.158 96.8351 254.63 96.7033 255.126 96.7036C255.494 96.7038 255.85 96.772 256.194 96.9081C256.538 97.0443 256.842 97.2445 257.106 97.5086C257.37 97.7647 257.582 98.0768 257.742 98.4449C257.901 98.805 257.985 99.209 257.993 99.657C257.993 99.785 257.945 99.893 257.849 99.981C257.753 100.069 257.641 100.113 257.513 100.113L252.773 100.11L252.557 99.2823L257.177 99.2846L256.985 99.4525L256.985 99.1885C256.953 98.8605 256.841 98.5805 256.65 98.3484C256.466 98.1083 256.238 97.9242 255.966 97.796C255.702 97.6679 255.422 97.6037 255.126 97.6036C254.886 97.6035 254.646 97.6473 254.406 97.7352C254.174 97.8151 253.962 97.951 253.77 98.1429C253.586 98.3268 253.433 98.5667 253.313 98.8627C253.201 99.1586 253.145 99.5146 253.145 99.9306C253.145 100.395 253.236 100.803 253.42 101.155C253.612 101.507 253.876 101.787 254.212 101.995C254.548 102.195 254.94 102.295 255.388 102.296C255.668 102.296 255.912 102.26 256.12 102.188C256.328 102.116 256.508 102.028 256.66 101.924C256.812 101.812 256.94 101.701 257.044 101.589C257.148 101.517 257.248 101.481 257.344 101.481C257.464 101.481 257.56 101.521 257.632 101.601C257.712 101.681 257.752 101.777 257.752 101.889C257.752 102.025 257.688 102.145 257.56 102.249C257.335 102.497 257.031 102.717 256.647 102.908C256.263 103.092 255.855 103.184 255.423 103.184ZM262.401 96.7673C262.945 96.7676 263.385 96.9078 263.721 97.188C264.065 97.4601 264.293 97.8482 264.405 98.3523L264.225 98.3522L264.309 98.1363C264.405 97.9123 264.569 97.6964 264.801 97.4885C265.033 97.2806 265.301 97.1088 265.605 96.9729C265.909 96.8371 266.225 96.7692 266.553 96.7694C267.081 96.7697 267.497 96.8859 267.801 97.118C268.105 97.3422 268.321 97.6463 268.449 98.0304C268.584 98.4064 268.652 98.8305 268.652 99.3025L268.65 102.578C268.65 102.714 268.602 102.83 268.506 102.926C268.418 103.022 268.306 103.07 268.17 103.07C268.026 103.07 267.91 103.022 267.822 102.926C267.734 102.83 267.69 102.714 267.69 102.578L267.692 99.326C267.692 99.014 267.644 98.7339 267.548 98.4859C267.461 98.2299 267.313 98.0298 267.105 97.8857C266.905 97.7336 266.629 97.6574 266.277 97.6573C265.949 97.6571 265.649 97.7329 265.377 97.8848C265.105 98.0287 264.889 98.2285 264.728 98.4845C264.568 98.7324 264.488 99.0123 264.488 99.3243L264.486 102.576C264.486 102.712 264.442 102.828 264.354 102.924C264.266 103.02 264.15 103.068 264.006 103.068C263.87 103.068 263.754 103.02 263.658 102.924C263.57 102.828 263.526 102.712 263.526 102.576L263.528 99.2879C263.528 98.9839 263.484 98.7118 263.396 98.4718C263.317 98.2238 263.177 98.0277 262.977 97.8836C262.777 97.7315 262.501 97.6553 262.149 97.6552C261.829 97.655 261.537 97.7308 261.273 97.8827C261.009 98.0266 260.797 98.2225 260.636 98.4704C260.476 98.7103 260.396 98.9823 260.396 99.2863L260.394 102.574C260.394 102.71 260.346 102.826 260.25 102.922C260.162 103.018 260.05 103.066 259.914 103.066C259.778 103.066 259.662 103.018 259.566 102.922C259.478 102.826 259.434 102.71 259.434 102.574L259.437 97.3418C259.437 97.2058 259.481 97.0938 259.569 97.0058C259.665 96.9099 259.781 96.862 259.917 96.862C260.061 96.8621 260.177 96.9102 260.265 97.0062C260.353 97.0942 260.397 97.2063 260.397 97.3423L260.397 98.2543L260.132 98.5421C260.165 98.3341 260.245 98.1262 260.373 97.9183C260.509 97.7103 260.681 97.5184 260.889 97.3425C261.097 97.1666 261.329 97.0267 261.585 96.9229C261.841 96.819 262.113 96.7671 262.401 96.7673ZM275.541 96.81C275.677 96.81 275.789 96.8581 275.877 96.9541C275.973 97.0422 276.021 97.1542 276.021 97.2902L276.019 102.582C276.018 102.718 275.97 102.834 275.874 102.93C275.786 103.026 275.674 103.074 275.538 103.074C275.394 103.074 275.278 103.026 275.19 102.93C275.102 102.834 275.058 102.718 275.059 102.582L275.059 101.442L275.287 101.418C275.287 101.594 275.227 101.786 275.107 101.994C274.987 102.202 274.823 102.398 274.615 102.581C274.406 102.757 274.158 102.905 273.87 103.025C273.59 103.137 273.286 103.193 272.958 103.193C272.414 103.192 271.926 103.052 271.494 102.772C271.063 102.484 270.719 102.096 270.463 101.607C270.215 101.119 270.092 100.563 270.092 99.9392C270.092 99.3072 270.216 98.7513 270.465 98.2714C270.721 97.7835 271.065 97.4037 271.497 97.1319C271.929 96.8521 272.41 96.7124 272.938 96.7126C273.282 96.7128 273.601 96.769 273.897 96.8811C274.193 96.9933 274.449 97.1454 274.665 97.3375C274.889 97.5296 275.061 97.7417 275.181 97.9738C275.309 98.2058 275.373 98.4379 275.373 98.6699L275.061 98.5977L275.061 97.2897C275.061 97.1537 275.105 97.0417 275.193 96.9538C275.281 96.8578 275.397 96.8099 275.541 96.81ZM273.067 102.305C273.467 102.305 273.819 102.201 274.123 101.993C274.435 101.785 274.675 101.506 274.843 101.154C275.019 100.794 275.108 100.39 275.108 99.9417C275.108 99.5017 275.02 99.1057 274.844 98.7536C274.677 98.3935 274.437 98.1134 274.125 97.9132C273.821 97.7051 273.469 97.6009 273.069 97.6007C272.677 97.6005 272.325 97.7003 272.013 97.9002C271.709 98.1 271.469 98.3759 271.293 98.7278C271.116 99.0797 271.028 99.4837 271.028 99.9397C271.028 100.388 271.111 100.792 271.279 101.152C271.455 101.504 271.695 101.784 271.999 101.992C272.311 102.2 272.667 102.305 273.067 102.305ZM285.843 102.179C285.971 102.179 286.079 102.223 286.166 102.311C286.254 102.399 286.298 102.507 286.298 102.635C286.298 102.763 286.254 102.871 286.166 102.959C286.078 103.039 285.97 103.079 285.842 103.079L281.486 103.077C281.342 103.077 281.222 103.037 281.126 102.957C281.038 102.869 280.994 102.753 280.994 102.609C280.994 102.481 281.042 102.365 281.138 102.261L283.852 99.2982C284.252 98.8664 284.552 98.4625 284.753 98.0866C284.961 97.7028 285.065 97.3628 285.065 97.0668C285.065 96.5788 284.918 96.1907 284.622 95.9026C284.334 95.6064 283.946 95.4582 283.458 95.458C283.242 95.4579 283.026 95.5058 282.81 95.6017C282.594 95.6895 282.398 95.8134 282.222 95.9734C282.046 96.1253 281.902 96.2972 281.789 96.4891C281.725 96.5931 281.657 96.6611 281.585 96.693C281.521 96.717 281.453 96.729 281.381 96.7289C281.261 96.7289 281.153 96.6888 281.057 96.6088C280.961 96.5207 280.913 96.4207 280.914 96.3087C280.914 96.2207 280.938 96.1407 280.986 96.0687C281.034 95.9888 281.098 95.9008 281.178 95.8048C281.346 95.5729 281.554 95.365 281.802 95.1811C282.058 94.9893 282.334 94.8374 282.63 94.7256C282.934 94.6137 283.23 94.5579 283.518 94.558C284.03 94.5583 284.474 94.6585 284.85 94.8587C285.234 95.0589 285.53 95.343 285.738 95.7111C285.946 96.0793 286.049 96.5113 286.049 97.0073C286.049 97.4313 285.921 97.8992 285.664 98.4111C285.408 98.923 285.032 99.4428 284.536 99.9705L282.434 102.297L282.315 102.177L285.843 102.179ZM288.168 98.1844C288 98.1843 287.868 98.1362 287.772 98.0402C287.684 97.9361 287.64 97.8001 287.64 97.6321L287.64 97.3921C287.64 97.2241 287.684 97.0921 287.772 96.9962C287.868 96.9002 288 96.8523 288.168 96.8524L288.264 96.8524C288.44 96.8525 288.572 96.9006 288.66 96.9966C288.748 97.0927 288.792 97.2247 288.792 97.3927L288.792 97.6327C288.792 97.8007 288.748 97.9367 288.66 98.0406C288.572 98.1366 288.44 98.1845 288.264 98.1844L288.168 98.1844ZM288.165 103.08C287.997 103.08 287.865 103.032 287.769 102.936C287.681 102.832 287.637 102.696 287.637 102.528L287.638 102.288C287.638 102.12 287.682 101.988 287.77 101.892C287.866 101.796 287.998 101.748 288.166 101.748L288.262 101.748C288.438 101.749 288.57 101.797 288.658 101.893C288.746 101.989 288.79 102.121 288.79 102.289L288.789 102.529C288.789 102.697 288.745 102.833 288.657 102.937C288.569 103.033 288.437 103.081 288.261 103.08L288.165 103.08ZM294.376 94.6835C294.512 94.6836 294.628 94.7317 294.724 94.8277C294.82 94.9158 294.868 95.0318 294.868 95.1758L294.864 102.592C294.864 102.728 294.812 102.844 294.708 102.94C294.612 103.036 294.496 103.084 294.36 103.084C294.208 103.083 294.088 103.035 294 102.939C293.912 102.843 293.868 102.727 293.868 102.591L293.872 95.1753C293.872 95.0313 293.92 94.9153 294.016 94.8274C294.112 94.7314 294.232 94.6835 294.376 94.6835ZM299.908 94.6863C300.052 94.6864 300.168 94.7345 300.256 94.8305C300.352 94.9186 300.4 95.0346 300.4 95.1786L300.396 102.595C300.396 102.731 300.348 102.847 300.252 102.943C300.156 103.038 300.036 103.086 299.892 103.086C299.756 103.086 299.64 103.038 299.544 102.942C299.448 102.846 299.4 102.73 299.4 102.594L299.404 95.1781C299.404 95.0341 299.452 94.9181 299.548 94.8302C299.652 94.7342 299.772 94.6863 299.908 94.6863ZM294.326 98.3435L299.918 98.3464L299.906 99.2823L294.29 99.2795L294.326 98.3435ZM302.1 96.9195L304.92 96.9209C305.048 96.921 305.152 96.965 305.232 97.0531C305.319 97.1411 305.363 97.2451 305.363 97.3651C305.363 97.4931 305.319 97.6011 305.231 97.6891C305.151 97.769 305.047 97.809 304.919 97.8089L302.099 97.8075C301.979 97.8074 301.875 97.7633 301.787 97.6753C301.699 97.5873 301.655 97.4792 301.655 97.3512C301.655 97.2312 301.699 97.1313 301.788 97.0513C301.876 96.9633 301.98 96.9194 302.1 96.9195ZM303.36 95.2881C303.496 95.2882 303.608 95.3362 303.696 95.4323C303.784 95.5203 303.828 95.6323 303.828 95.7683L303.825 101.564C303.825 101.756 303.853 101.9 303.909 101.996C303.965 102.092 304.037 102.16 304.125 102.2C304.221 102.233 304.313 102.249 304.401 102.249C304.481 102.249 304.549 102.237 304.605 102.213C304.669 102.181 304.741 102.165 304.821 102.165C304.901 102.165 304.973 102.205 305.037 102.285C305.109 102.357 305.145 102.453 305.145 102.573C305.145 102.717 305.061 102.841 304.893 102.945C304.724 103.041 304.536 103.089 304.328 103.089C304.216 103.089 304.076 103.08 303.908 103.064C303.748 103.048 303.588 102.996 303.429 102.908C303.269 102.82 303.133 102.676 303.021 102.476C302.917 102.268 302.865 101.98 302.865 101.612L302.868 95.7679C302.868 95.6319 302.916 95.5199 303.012 95.4319C303.108 95.336 303.224 95.288 303.36 95.2881ZM306.459 96.9217L309.279 96.9231C309.407 96.9232 309.511 96.9672 309.591 97.0553C309.679 97.1433 309.723 97.2473 309.723 97.3673C309.723 97.4953 309.679 97.6033 309.591 97.6913C309.511 97.7712 309.406 97.8112 309.278 97.8111L306.458 97.8097C306.338 97.8096 306.235 97.7656 306.147 97.6775C306.059 97.5895 306.015 97.4815 306.015 97.3535C306.015 97.2335 306.059 97.1335 306.147 97.0535C306.235 96.9656 306.339 96.9216 306.459 96.9217ZM307.72 95.2903C307.856 95.2904 307.968 95.3384 308.056 95.4345C308.144 95.5225 308.188 95.6346 308.188 95.7706L308.185 101.567C308.184 101.759 308.212 101.903 308.268 101.999C308.324 102.095 308.396 102.163 308.484 102.203C308.58 102.235 308.672 102.251 308.76 102.251C308.84 102.251 308.908 102.239 308.964 102.215C309.028 102.183 309.1 102.167 309.18 102.167C309.26 102.167 309.332 102.207 309.396 102.287C309.468 102.359 309.504 102.455 309.504 102.575C309.504 102.719 309.42 102.843 309.252 102.947C309.084 103.043 308.896 103.091 308.688 103.091C308.576 103.091 308.436 103.083 308.268 103.067C308.108 103.051 307.948 102.998 307.788 102.91C307.628 102.822 307.492 102.678 307.38 102.478C307.276 102.27 307.224 101.982 307.225 101.614L307.228 95.7701C307.228 95.6341 307.276 95.5221 307.372 95.4341C307.468 95.3382 307.584 95.2902 307.72 95.2903ZM314.118 96.7936C314.662 96.7938 315.15 96.9301 315.582 97.2023C316.014 97.4745 316.354 97.8507 316.602 98.3308C316.857 98.811 316.985 99.363 316.985 99.987C316.984 100.603 316.856 101.155 316.6 101.643C316.352 102.123 316.011 102.503 315.579 102.782C315.155 103.054 314.675 103.19 314.139 103.19C313.843 103.189 313.563 103.145 313.299 103.057C313.043 102.961 312.807 102.841 312.591 102.697C312.383 102.545 312.208 102.377 312.064 102.193C311.92 102 311.816 101.812 311.752 101.628L312.016 101.461L312.014 105.001C312.014 105.137 311.97 105.252 311.882 105.348C311.794 105.444 311.678 105.492 311.534 105.492C311.398 105.492 311.282 105.444 311.186 105.348C311.098 105.26 311.054 105.144 311.054 105L311.058 97.332C311.058 97.196 311.102 97.084 311.19 96.9961C311.286 96.9001 311.402 96.8522 311.538 96.8523C311.682 96.8523 311.798 96.9004 311.886 96.9964C311.974 97.0845 312.018 97.1965 312.018 97.3325L312.018 98.4005L311.838 98.3044C311.894 98.1044 311.99 97.9125 312.126 97.7286C312.27 97.5446 312.442 97.3847 312.642 97.2488C312.85 97.1049 313.078 96.993 313.326 96.9132C313.582 96.8333 313.846 96.7934 314.118 96.7936ZM314.01 97.6815C313.61 97.6813 313.254 97.7811 312.942 97.981C312.638 98.1808 312.398 98.4527 312.221 98.7966C312.053 99.1405 311.969 99.5365 311.969 99.9845C311.969 100.424 312.052 100.821 312.22 101.173C312.396 101.525 312.636 101.801 312.94 102.001C313.252 102.201 313.608 102.301 314.008 102.302C314.408 102.302 314.76 102.202 315.064 102.002C315.368 101.802 315.608 101.526 315.784 101.174C315.96 100.823 316.049 100.427 316.049 99.9866C316.049 99.5386 315.961 99.1425 315.785 98.7984C315.61 98.4543 315.37 98.1822 315.066 97.9821C314.762 97.7819 314.41 97.6817 314.01 97.6815ZM318.079 102.112C318.007 102.008 317.975 101.9 317.983 101.788C317.991 101.668 318.059 101.564 318.187 101.476C318.267 101.42 318.359 101.396 318.463 101.404C318.575 101.412 318.675 101.464 318.763 101.56C318.987 101.824 319.243 102.036 319.531 102.196C319.819 102.348 320.171 102.425 320.587 102.425C320.779 102.417 320.971 102.385 321.163 102.329C321.355 102.273 321.515 102.177 321.643 102.041C321.779 101.897 321.847 101.709 321.847 101.477C321.847 101.253 321.779 101.077 321.643 100.949C321.507 100.813 321.331 100.705 321.116 100.625C320.9 100.537 320.664 100.461 320.408 100.397C320.144 100.325 319.884 100.244 319.628 100.156C319.372 100.06 319.14 99.9441 318.932 99.808C318.732 99.6639 318.568 99.4878 318.44 99.2798C318.32 99.0637 318.26 98.8037 318.261 98.4997C318.261 98.1397 318.357 97.8277 318.549 97.5638C318.749 97.2999 319.013 97.0961 319.341 96.9522C319.677 96.8084 320.042 96.7366 320.434 96.7368C320.658 96.7369 320.889 96.765 321.129 96.8211C321.377 96.8693 321.617 96.9574 321.849 97.0855C322.081 97.2056 322.285 97.3737 322.461 97.5898C322.533 97.6698 322.573 97.7699 322.581 97.8899C322.589 98.0099 322.537 98.1178 322.425 98.2138C322.337 98.2777 322.237 98.3057 322.125 98.2976C322.021 98.2896 321.933 98.2495 321.861 98.1775C321.693 97.9774 321.481 97.8253 321.225 97.7212C320.977 97.6091 320.701 97.5529 320.397 97.5528C320.205 97.5527 320.017 97.5806 319.833 97.6365C319.649 97.6924 319.493 97.7883 319.365 97.9242C319.245 98.0522 319.185 98.2321 319.185 98.4641C319.193 98.6801 319.264 98.8562 319.4 98.9923C319.536 99.1283 319.72 99.2404 319.952 99.3285C320.184 99.4087 320.44 99.4888 320.72 99.5689C320.976 99.6331 321.22 99.7092 321.452 99.7973C321.692 99.8774 321.908 99.9855 322.1 100.122C322.292 100.258 322.444 100.434 322.556 100.65C322.667 100.858 322.723 101.122 322.723 101.442C322.723 101.81 322.619 102.13 322.411 102.402C322.202 102.666 321.926 102.87 321.582 103.013C321.246 103.149 320.882 103.217 320.49 103.217C320.05 103.217 319.614 103.132 319.182 102.964C318.758 102.796 318.391 102.512 318.079 102.112ZM324.472 98.2028C324.304 98.2027 324.172 98.1547 324.076 98.0586C323.988 97.9546 323.945 97.8186 323.945 97.6506L323.945 97.4106C323.945 97.2426 323.989 97.1106 324.077 97.0146C324.173 96.9187 324.305 96.8707 324.473 96.8708L324.569 96.8709C324.745 96.871 324.877 96.919 324.965 97.0151C325.053 97.1111 325.097 97.2431 325.097 97.4111L325.097 97.6511C325.097 97.8191 325.052 97.9551 324.964 98.0591C324.876 98.155 324.744 98.203 324.568 98.2029L324.472 98.2028ZM324.47 103.099C324.302 103.099 324.17 103.051 324.074 102.955C323.986 102.851 323.942 102.715 323.942 102.547L323.942 102.307C323.942 102.139 323.986 102.007 324.074 101.911C324.171 101.815 324.303 101.767 324.471 101.767L324.567 101.767C324.743 101.767 324.875 101.815 324.962 101.911C325.05 102.007 325.094 102.139 325.094 102.307L325.094 102.547C325.094 102.715 325.05 102.851 324.962 102.955C324.874 103.051 324.742 103.099 324.566 103.099L324.47 103.099ZM326.435 104.672C326.331 104.672 326.231 104.628 326.135 104.54C326.047 104.46 326.003 104.36 326.003 104.24C326.003 104.168 326.019 104.096 326.051 104.024L331.168 93.8142C331.224 93.7023 331.289 93.6223 331.361 93.5743C331.433 93.5264 331.513 93.5024 331.601 93.5025C331.697 93.5025 331.789 93.5426 331.877 93.6226C331.972 93.6946 332.02 93.7947 332.02 93.9227C332.02 94.0027 332 94.0827 331.96 94.1626L326.855 104.372C326.807 104.476 326.747 104.552 326.675 104.6C326.603 104.648 326.523 104.672 326.435 104.672ZM331.79 104.675C331.686 104.674 331.586 104.63 331.49 104.542C331.402 104.462 331.359 104.362 331.359 104.242C331.359 104.17 331.375 104.098 331.407 104.026L336.524 93.817C336.58 93.705 336.644 93.625 336.716 93.5771C336.788 93.5291 336.868 93.5051 336.956 93.5052C337.052 93.5052 337.144 93.5453 337.232 93.6253C337.328 93.6974 337.376 93.7974 337.376 93.9254C337.376 94.0054 337.356 94.0854 337.316 94.1654L332.211 104.375C332.162 104.479 332.102 104.555 332.03 104.603C331.958 104.651 331.878 104.675 331.79 104.675ZM339.176 94.6943C339.248 94.6943 339.324 94.7144 339.404 94.7544C339.492 94.7945 339.56 94.8465 339.608 94.9105L342.786 99.7241L342.366 99.7119L345.584 94.9136C345.688 94.7616 345.824 94.6897 345.992 94.6978C346.12 94.7058 346.232 94.7539 346.328 94.8419C346.424 94.93 346.472 95.046 346.472 95.19L346.468 102.618C346.468 102.754 346.42 102.87 346.324 102.966C346.228 103.062 346.108 103.11 345.964 103.11C345.82 103.11 345.7 103.062 345.604 102.966C345.508 102.87 345.46 102.753 345.46 102.617L345.464 96.1015L345.764 96.1617L342.93 100.468C342.882 100.524 342.821 100.572 342.749 100.612C342.685 100.652 342.617 100.672 342.545 100.672C342.473 100.672 342.401 100.652 342.329 100.612C342.257 100.572 342.198 100.524 342.15 100.468L339.356 96.1584L339.608 95.8465L339.604 102.615C339.604 102.751 339.56 102.866 339.472 102.962C339.384 103.058 339.272 103.106 339.136 103.106C339 103.106 338.888 103.058 338.8 102.962C338.72 102.866 338.68 102.75 338.68 102.614L338.684 95.1861C338.684 95.0581 338.728 94.9461 338.816 94.8501C338.912 94.7462 339.032 94.6942 339.176 94.6943ZM349.327 102.619C349.327 102.755 349.279 102.871 349.183 102.967C349.095 103.063 348.983 103.111 348.847 103.111C348.703 103.111 348.587 103.063 348.499 102.967C348.411 102.871 348.367 102.755 348.367 102.619L348.37 97.291C348.37 97.155 348.414 97.043 348.502 96.955C348.598 96.8591 348.714 96.8112 348.85 96.8112C348.986 96.8113 349.098 96.8593 349.186 96.9554C349.282 97.0434 349.33 97.1555 349.33 97.2915L349.327 102.619ZM348.85 96.0072C348.65 96.0071 348.502 95.967 348.407 95.887C348.311 95.8069 348.263 95.6829 348.263 95.5149L348.263 95.3469C348.263 95.1789 348.315 95.0549 348.419 94.975C348.523 94.8951 348.671 94.8551 348.863 94.8552C349.055 94.8553 349.199 94.8954 349.295 94.9754C349.391 95.0555 349.439 95.1795 349.439 95.3475L349.439 95.5155C349.439 95.6835 349.387 95.8075 349.283 95.8874C349.186 95.9674 349.042 96.0073 348.85 96.0072ZM352.108 102.621C352.107 102.757 352.059 102.873 351.963 102.969C351.867 103.065 351.751 103.113 351.615 103.113C351.479 103.113 351.367 103.065 351.279 102.968C351.191 102.872 351.147 102.756 351.148 102.62L351.152 94.7124C351.152 94.5764 351.196 94.4644 351.284 94.3765C351.38 94.2805 351.496 94.2326 351.632 94.2326C351.776 94.2327 351.892 94.2808 351.98 94.3768C352.068 94.4649 352.112 94.5769 352.112 94.7129L352.108 102.621ZM356.72 103.235C356.08 103.235 355.52 103.099 355.04 102.826C354.56 102.554 354.185 102.182 353.913 101.71C353.649 101.23 353.517 100.678 353.518 100.054C353.518 99.3576 353.654 98.7657 353.927 98.2778C354.207 97.7819 354.567 97.4061 355.007 97.1504C355.455 96.8866 355.927 96.7548 356.423 96.7551C356.791 96.7553 357.147 96.8234 357.491 96.9596C357.835 97.0958 358.139 97.2959 358.403 97.5601C358.667 97.8162 358.879 98.1283 359.038 98.4964C359.198 98.8565 359.282 99.2605 359.29 99.7085C359.29 99.8365 359.242 99.9445 359.146 100.032C359.05 100.12 358.938 100.164 358.81 100.164L354.07 100.162L353.854 99.3338L358.474 99.3361L358.282 99.504L358.282 99.24C358.25 98.912 358.138 98.6319 357.946 98.3998C357.763 98.1598 357.535 97.9756 357.263 97.8475C356.999 97.7194 356.719 97.6552 356.423 97.6551C356.183 97.6549 355.943 97.6988 355.703 97.7867C355.471 97.8666 355.259 98.0025 355.067 98.1944C354.882 98.3783 354.73 98.6182 354.61 98.9141C354.498 99.2101 354.442 99.5661 354.442 99.9821C354.441 100.446 354.533 100.854 354.717 101.206C354.909 101.558 355.173 101.838 355.509 102.047C355.844 102.247 356.236 102.347 356.684 102.347C356.964 102.347 357.208 102.311 357.416 102.24C357.625 102.168 357.805 102.08 357.957 101.976C358.109 101.864 358.237 101.752 358.341 101.64C358.445 101.568 358.545 101.532 358.641 101.532C358.761 101.532 358.857 101.572 358.929 101.652C359.009 101.732 359.049 101.828 359.049 101.94C359.049 102.076 358.985 102.196 358.856 102.3C358.632 102.548 358.328 102.768 357.944 102.96C357.56 103.144 357.152 103.235 356.72 103.235ZM363.818 96.7588C364.362 96.7591 364.79 96.8713 365.102 97.0955C365.414 97.3196 365.634 97.6198 365.762 97.9958C365.897 98.3719 365.965 98.7919 365.965 99.2559L365.963 102.628C365.963 102.764 365.915 102.88 365.819 102.976C365.731 103.072 365.619 103.12 365.483 103.12C365.347 103.12 365.231 103.072 365.135 102.975C365.047 102.879 365.003 102.763 365.003 102.627L365.005 99.2794C365.005 98.9754 364.957 98.7034 364.861 98.4634C364.773 98.2153 364.622 98.0192 364.406 97.8751C364.198 97.723 363.91 97.6469 363.542 97.6467C363.206 97.6465 362.898 97.7224 362.618 97.8742C362.338 98.0181 362.113 98.214 361.945 98.4619C361.777 98.7018 361.693 98.9737 361.693 99.2777L361.691 102.626C361.691 102.762 361.643 102.878 361.547 102.974C361.459 103.07 361.347 103.118 361.211 103.118C361.075 103.117 360.959 103.069 360.863 102.973C360.775 102.877 360.731 102.761 360.731 102.625L360.734 97.3933C360.734 97.2573 360.778 97.1453 360.866 97.0573C360.962 96.9614 361.078 96.9134 361.214 96.9135C361.358 96.9136 361.474 96.9616 361.562 97.0577C361.65 97.1457 361.694 97.2577 361.694 97.3937L361.693 98.2457L361.453 98.5096C361.493 98.3016 361.586 98.0937 361.73 97.8858C361.874 97.6698 362.054 97.4779 362.27 97.31C362.486 97.1422 362.726 97.0103 362.99 96.9144C363.254 96.8105 363.53 96.7587 363.818 96.7588ZM370.607 103.242C369.967 103.242 369.407 103.106 368.927 102.833C368.447 102.561 368.071 102.189 367.799 101.717C367.536 101.237 367.404 100.685 367.404 100.061C367.405 99.3647 367.541 98.7727 367.813 98.2849C368.093 97.789 368.454 97.4132 368.894 97.1574C369.342 96.8936 369.814 96.7619 370.31 96.7621C370.678 96.7623 371.034 96.8305 371.378 96.9667C371.722 97.1028 372.026 97.303 372.29 97.5671C372.553 97.8233 372.765 98.1354 372.925 98.5035C373.085 98.8635 373.169 99.2676 373.176 99.7156C373.176 99.8436 373.128 99.9516 373.032 100.04C372.936 100.127 372.824 100.171 372.696 100.171L367.956 100.169L367.741 99.3408L372.361 99.3432L372.169 99.5111L372.169 99.2471C372.137 98.9191 372.025 98.639 371.833 98.4069C371.649 98.1668 371.421 97.9827 371.149 97.8546C370.886 97.7264 370.606 97.6623 370.31 97.6621C370.07 97.662 369.83 97.7059 369.589 97.7938C369.357 97.8736 369.145 98.0095 368.953 98.2014C368.769 98.3853 368.617 98.6253 368.497 98.9212C368.385 99.2171 368.329 99.5731 368.328 99.9891C368.328 100.453 368.42 100.861 368.604 101.213C368.796 101.565 369.059 101.845 369.395 102.054C369.731 102.254 370.123 102.354 370.571 102.354C370.851 102.354 371.095 102.319 371.303 102.247C371.511 102.175 371.691 102.087 371.843 101.983C371.995 101.871 372.123 101.759 372.228 101.647C372.332 101.575 372.432 101.539 372.528 101.539C372.648 101.539 372.744 101.579 372.816 101.659C372.895 101.739 372.935 101.835 372.935 101.947C372.935 102.083 372.871 102.203 372.743 102.307C372.519 102.555 372.215 102.775 371.831 102.967C371.447 103.151 371.039 103.242 370.607 103.242ZM377.585 96.8258C378.129 96.8261 378.569 96.9663 378.905 97.2465C379.249 97.5187 379.476 97.9068 379.588 98.4108L379.408 98.4108L379.492 98.1948C379.588 97.9708 379.752 97.7549 379.985 97.547C380.217 97.3392 380.485 97.1673 380.789 97.0315C381.093 96.8956 381.409 96.8278 381.737 96.8279C382.265 96.8282 382.681 96.9444 382.985 97.1766C383.289 97.4007 383.504 97.7048 383.632 98.0889C383.768 98.465 383.836 98.889 383.836 99.361L383.834 102.637C383.834 102.773 383.786 102.889 383.69 102.985C383.602 103.081 383.49 103.129 383.354 103.129C383.21 103.129 383.094 103.081 383.006 102.985C382.918 102.889 382.874 102.773 382.874 102.637L382.876 99.3845C382.876 99.0725 382.828 98.7925 382.732 98.5444C382.644 98.2884 382.496 98.0883 382.288 97.9442C382.088 97.7921 381.812 97.716 381.46 97.7158C381.132 97.7156 380.832 97.7915 380.56 97.9433C380.288 98.0872 380.072 98.2871 379.912 98.543C379.752 98.7909 379.672 99.0709 379.672 99.3829L379.67 102.635C379.67 102.771 379.626 102.887 379.538 102.983C379.45 103.079 379.334 103.127 379.19 103.127C379.054 103.127 378.938 103.079 378.842 102.982C378.754 102.886 378.71 102.77 378.71 102.634L378.712 99.3464C378.712 99.0424 378.668 98.7704 378.58 98.5303C378.5 98.2823 378.36 98.0862 378.16 97.9421C377.96 97.79 377.684 97.7139 377.332 97.7137C377.012 97.7135 376.72 97.7894 376.456 97.9413C376.192 98.0851 375.98 98.281 375.82 98.5289C375.66 98.7688 375.58 99.0408 375.58 99.3448L375.578 102.633C375.578 102.769 375.53 102.885 375.434 102.981C375.346 103.077 375.234 103.125 375.098 103.125C374.962 103.124 374.846 103.076 374.75 102.98C374.662 102.884 374.618 102.768 374.618 102.632L374.621 97.4003C374.621 97.2643 374.665 97.1523 374.753 97.0644C374.849 96.9684 374.965 96.9205 375.101 96.9206C375.245 96.9206 375.361 96.9687 375.449 97.0647C375.537 97.1528 375.581 97.2648 375.581 97.4008L375.58 98.3128L375.316 98.6007C375.348 98.3927 375.428 98.1847 375.556 97.9768C375.692 97.7689 375.864 97.577 376.073 97.4011C376.281 97.2252 376.513 97.0853 376.769 96.9814C377.025 96.8775 377.297 96.8257 377.585 96.8258ZM386.534 102.638C386.534 102.774 386.486 102.89 386.39 102.986C386.302 103.082 386.19 103.13 386.054 103.13C385.91 103.13 385.794 103.082 385.706 102.986C385.618 102.89 385.574 102.774 385.574 102.638L385.577 97.3099C385.577 97.1739 385.621 97.0619 385.709 96.974C385.805 96.878 385.921 96.8301 386.057 96.8301C386.193 96.8302 386.305 96.8783 386.393 96.9743C386.489 97.0624 386.537 97.1744 386.537 97.3104L386.534 102.638ZM386.057 96.0261C385.857 96.026 385.709 95.986 385.614 95.9059C385.518 95.8259 385.47 95.7018 385.47 95.5338L385.47 95.3658C385.47 95.1978 385.522 95.0739 385.626 94.9939C385.73 94.914 385.878 94.874 386.07 94.8741C386.262 94.8742 386.406 94.9143 386.502 94.9944C386.598 95.0744 386.646 95.1984 386.646 95.3664L386.646 95.5344C386.646 95.7024 386.594 95.8264 386.49 95.9064C386.393 95.9863 386.249 96.0262 386.057 96.0261ZM391.346 96.7728C391.89 96.7731 392.317 96.8853 392.629 97.1095C392.941 97.3336 393.161 97.6337 393.289 98.0098C393.425 98.3859 393.492 98.8059 393.492 99.2699L393.491 102.642C393.49 102.778 393.442 102.894 393.346 102.99C393.258 103.086 393.146 103.134 393.01 103.134C392.874 103.134 392.758 103.086 392.662 102.989C392.574 102.893 392.53 102.777 392.531 102.641L392.532 99.2934C392.532 98.9894 392.485 98.7174 392.389 98.4773C392.301 98.2293 392.149 98.0332 391.933 97.8891C391.725 97.737 391.437 97.6609 391.069 97.6607C390.733 97.6605 390.425 97.7364 390.145 97.8882C389.865 98.0321 389.641 98.228 389.473 98.4759C389.305 98.7158 389.22 98.9877 389.22 99.2917L389.219 102.64C389.218 102.776 389.17 102.892 389.074 102.988C388.986 103.084 388.874 103.132 388.738 103.131C388.602 103.131 388.486 103.083 388.39 102.987C388.302 102.891 388.258 102.775 388.259 102.639L388.261 97.4073C388.261 97.2713 388.305 97.1593 388.393 97.0713C388.489 96.9754 388.605 96.9274 388.741 96.9275C388.885 96.9276 389.001 96.9756 389.089 97.0717C389.177 97.1597 389.221 97.2717 389.221 97.4077L389.221 98.2597L388.981 98.5236C389.021 98.3156 389.113 98.1077 389.257 97.8998C389.401 97.6838 389.581 97.4919 389.797 97.324C390.013 97.1561 390.253 97.0243 390.517 96.9284C390.781 96.8245 391.058 96.7727 391.346 96.7728ZM395.554 103.123C395.386 103.123 395.254 103.075 395.158 102.979C395.07 102.883 395.026 102.751 395.026 102.583L395.027 102.343C395.027 102.167 395.071 102.031 395.159 101.935C395.255 101.839 395.387 101.791 395.555 101.791L395.651 101.791C395.827 101.791 395.959 101.839 396.047 101.935C396.135 102.031 396.179 102.167 396.179 102.343L396.178 102.583C396.178 102.751 396.134 102.883 396.046 102.979C395.958 103.075 395.826 103.123 395.65 103.123L395.554 103.123ZM401.368 94.7379C401.952 94.7382 402.464 94.8505 402.903 95.0747C403.351 95.2909 403.723 95.5951 404.019 95.9873C404.315 96.3794 404.535 96.8315 404.678 97.3436C404.83 97.8477 404.906 98.3797 404.905 98.9397C404.905 99.7077 404.773 100.412 404.508 101.052C404.244 101.683 403.852 102.191 403.332 102.575C402.811 102.951 402.155 103.138 401.363 103.138L398.363 103.136C398.227 103.136 398.111 103.088 398.015 102.992C397.927 102.896 397.883 102.78 397.884 102.644L397.887 95.2161C397.887 95.0801 397.931 94.9682 398.02 94.8802C398.116 94.7843 398.232 94.7363 398.368 94.7364L401.368 94.7379ZM401.244 102.202C401.86 102.202 402.36 102.054 402.744 101.759C403.136 101.463 403.42 101.067 403.597 100.571C403.781 100.075 403.873 99.5312 403.873 98.9392C403.874 98.5072 403.822 98.0952 403.718 97.7031C403.622 97.3031 403.466 96.951 403.251 96.6469C403.043 96.3428 402.771 96.1026 402.435 95.9265C402.107 95.7503 401.711 95.6621 401.247 95.6619L398.787 95.6606L398.883 95.5646L398.88 102.321L398.808 102.201L401.244 102.202ZM406.905 103.141C406.761 103.141 406.645 103.093 406.557 102.997C406.469 102.901 406.425 102.784 406.425 102.648L406.429 94.7405C406.429 94.6045 406.473 94.4925 406.561 94.4046C406.649 94.3086 406.765 94.2607 406.909 94.2607C407.045 94.2608 407.157 94.3089 407.245 94.4049C407.341 94.4929 407.389 94.605 407.389 94.741L407.385 102.649C407.385 102.785 407.337 102.901 407.241 102.997C407.153 103.093 407.041 103.141 406.905 103.141ZM410.892 96.9028C411.02 96.9028 411.128 96.9549 411.216 97.0589C411.312 97.155 411.36 97.255 411.36 97.359C411.359 97.495 411.295 97.615 411.167 97.7189L407.278 101.113L407.242 99.9969L410.556 97.0466C410.652 96.9506 410.764 96.9027 410.892 96.9028ZM411.021 103.131C410.885 103.131 410.765 103.079 410.661 102.975L408.106 100.249L408.826 99.5897L411.357 102.303C411.453 102.407 411.501 102.527 411.501 102.663C411.501 102.807 411.445 102.923 411.333 103.011C411.221 103.091 411.117 103.131 411.021 103.131ZM412.626 104.716C412.522 104.716 412.422 104.672 412.326 104.583C412.238 104.503 412.194 104.403 412.195 104.283C412.195 104.211 412.211 104.139 412.243 104.067L417.36 93.858C417.416 93.7461 417.48 93.6661 417.552 93.6181C417.624 93.5702 417.704 93.5462 417.792 93.5463C417.888 93.5463 417.98 93.5864 418.068 93.6664C418.164 93.7384 418.212 93.8385 418.212 93.9665C418.212 94.0465 418.192 94.1265 418.152 94.2064L413.046 104.416C412.998 104.52 412.938 104.596 412.866 104.644C412.794 104.692 412.714 104.716 412.626 104.716ZM429.144 94.716C429.272 94.7161 429.388 94.7602 429.492 94.8482C429.604 94.9363 429.66 95.0603 429.66 95.2203C429.66 95.2763 429.652 95.3363 429.636 95.4003L427.076 102.839C427.044 102.935 426.984 103.011 426.896 103.067C426.816 103.115 426.732 103.143 426.644 103.151C426.548 103.151 426.456 103.127 426.368 103.079C426.28 103.023 426.212 102.943 426.164 102.839L424.163 97.9895L424.259 98.0255L422.264 102.837C422.216 102.941 422.148 103.02 422.06 103.076C421.972 103.124 421.88 103.148 421.784 103.148C421.696 103.14 421.608 103.112 421.52 103.064C421.44 103.008 421.384 102.932 421.352 102.836L418.8 95.3948C418.784 95.3308 418.776 95.2748 418.776 95.2268C418.776 95.0668 418.832 94.9428 418.944 94.8548C419.064 94.7589 419.184 94.711 419.304 94.711C419.4 94.7111 419.492 94.7391 419.58 94.7952C419.668 94.8512 419.728 94.9272 419.76 95.0233L422.001 101.648L421.833 101.648L423.791 96.8133C423.831 96.7173 423.891 96.6414 423.971 96.5854C424.051 96.5294 424.144 96.5015 424.248 96.5015C424.344 96.5016 424.431 96.5296 424.511 96.5857C424.599 96.6417 424.659 96.7177 424.691 96.8138L426.585 101.579L426.441 101.639L428.676 95.0278C428.708 94.9318 428.768 94.8558 428.856 94.7999C428.944 94.7439 429.04 94.716 429.144 94.716ZM433.548 103.274C432.908 103.274 432.348 103.138 431.868 102.865C431.388 102.593 431.013 102.221 430.741 101.749C430.477 101.269 430.345 100.717 430.346 100.093C430.346 99.3966 430.482 98.8047 430.755 98.3168C431.035 97.821 431.395 97.4452 431.835 97.1894C432.283 96.9256 432.755 96.7939 433.251 96.7941C433.619 96.7943 433.975 96.8625 434.319 96.9987C434.663 97.1348 434.967 97.335 435.231 97.5991C435.495 97.8553 435.707 98.1674 435.866 98.5354C436.026 98.8955 436.11 99.2996 436.118 99.7476C436.118 99.8756 436.07 99.9835 435.974 100.072C435.878 100.159 435.766 100.203 435.638 100.203L430.898 100.201L430.682 99.3728L435.302 99.3752L435.11 99.5431L435.11 99.2791C435.078 98.951 434.966 98.671 434.775 98.4389C434.591 98.1988 434.363 98.0147 434.091 97.8865C433.827 97.7584 433.547 97.6943 433.251 97.6941C433.011 97.694 432.771 97.7379 432.531 97.8257C432.299 97.9056 432.087 98.0415 431.895 98.2334C431.711 98.4173 431.558 98.6573 431.438 98.9532C431.326 99.2491 431.27 99.6051 431.27 100.021C431.27 100.485 431.361 100.893 431.545 101.245C431.737 101.597 432.001 101.877 432.337 102.086C432.673 102.286 433.065 102.386 433.513 102.386C433.793 102.386 434.037 102.351 434.245 102.279C434.453 102.207 434.633 102.119 434.785 102.015C434.937 101.903 435.065 101.791 435.169 101.679C435.273 101.607 435.373 101.571 435.469 101.571C435.589 101.571 435.685 101.611 435.757 101.691C435.837 101.771 435.877 101.867 435.877 101.979C435.877 102.115 435.813 102.235 435.685 102.339C435.46 102.587 435.156 102.807 434.772 102.999C434.388 103.183 433.98 103.274 433.548 103.274ZM440.622 96.7979C441.166 96.7981 441.654 96.9384 442.086 97.2186C442.518 97.4908 442.858 97.867 443.105 98.3471C443.361 98.8273 443.489 99.3833 443.489 100.015C443.488 100.647 443.36 101.207 443.104 101.695C442.856 102.183 442.515 102.571 442.083 102.859C441.659 103.138 441.179 103.278 440.643 103.278C440.347 103.278 440.067 103.234 439.803 103.145C439.547 103.049 439.311 102.925 439.095 102.773C438.887 102.613 438.711 102.441 438.568 102.257C438.424 102.065 438.32 101.877 438.256 101.693L438.52 101.525L438.519 102.725C438.519 102.861 438.475 102.977 438.387 103.073C438.299 103.169 438.183 103.217 438.039 103.217C437.903 103.216 437.787 103.172 437.691 103.084C437.603 102.988 437.559 102.868 437.559 102.724L437.563 94.7683C437.563 94.6323 437.607 94.5163 437.695 94.4204C437.792 94.3244 437.908 94.2765 438.044 94.2766C438.188 94.2766 438.304 94.3247 438.391 94.4207C438.479 94.5168 438.523 94.6328 438.523 94.7688L438.521 98.4648L438.341 98.3687C438.398 98.1687 438.494 97.9768 438.63 97.7928C438.774 97.6009 438.946 97.433 439.146 97.2891C439.354 97.1372 439.582 97.0173 439.83 96.9295C440.086 96.8416 440.35 96.7977 440.622 96.7979ZM440.514 97.6858C440.114 97.6856 439.758 97.7854 439.446 97.9853C439.142 98.1851 438.901 98.461 438.725 98.8129C438.557 99.1648 438.473 99.5648 438.473 100.013C438.472 100.461 438.556 100.865 438.724 101.225C438.9 101.585 439.14 101.869 439.444 102.077C439.755 102.285 440.111 102.39 440.511 102.39C440.911 102.39 441.263 102.286 441.568 102.078C441.872 101.87 442.112 101.587 442.288 101.227C442.464 100.867 442.552 100.463 442.553 100.015C442.553 99.5668 442.465 99.1668 442.289 98.8147C442.113 98.4626 441.874 98.1865 441.57 97.9863C441.266 97.7862 440.914 97.686 440.514 97.6858ZM444.583 102.176C444.511 102.072 444.479 101.964 444.487 101.852C444.495 101.732 444.563 101.628 444.691 101.54C444.771 101.484 444.863 101.46 444.967 101.468C445.079 101.476 445.179 101.528 445.267 101.624C445.491 101.888 445.747 102.1 446.035 102.261C446.323 102.413 446.674 102.489 447.09 102.489C447.282 102.481 447.475 102.449 447.667 102.393C447.859 102.338 448.019 102.242 448.147 102.106C448.283 101.962 448.351 101.774 448.351 101.542C448.351 101.318 448.283 101.142 448.147 101.014C448.011 100.878 447.835 100.77 447.619 100.689C447.403 100.601 447.167 100.525 446.912 100.461C446.648 100.389 446.388 100.309 446.132 100.221C445.876 100.125 445.644 100.008 445.436 99.8723C445.236 99.7282 445.072 99.5521 444.944 99.3441C444.824 99.128 444.764 98.868 444.764 98.564C444.765 98.204 444.861 97.892 445.053 97.6281C445.253 97.3642 445.517 97.1604 445.845 97.0165C446.181 96.8727 446.545 96.8009 446.937 96.8011C447.161 96.8012 447.393 96.8293 447.633 96.8854C447.881 96.9336 448.121 97.0217 448.353 97.1498C448.585 97.2699 448.789 97.438 448.965 97.6541C449.037 97.7341 449.077 97.8342 449.085 97.9542C449.093 98.0742 449.041 98.1821 448.929 98.2781C448.841 98.342 448.741 98.37 448.629 98.3619C448.525 98.3539 448.437 98.3138 448.365 98.2418C448.197 98.0417 447.985 97.8896 447.729 97.7855C447.481 97.6733 447.205 97.6172 446.901 97.6171C446.709 97.617 446.521 97.6449 446.337 97.7008C446.153 97.7567 445.997 97.8526 445.869 97.9885C445.749 98.1165 445.689 98.2964 445.689 98.5284C445.696 98.7444 445.768 98.9205 445.904 99.0565C446.04 99.1926 446.224 99.3047 446.456 99.3928C446.688 99.4729 446.944 99.5531 447.224 99.6332C447.48 99.6973 447.724 99.7735 447.956 99.8616C448.196 99.9417 448.412 100.05 448.604 100.186C448.796 100.322 448.948 100.498 449.059 100.714C449.171 100.922 449.227 101.186 449.227 101.506C449.227 101.874 449.123 102.194 448.914 102.466C448.706 102.73 448.43 102.934 448.086 103.078C447.75 103.213 447.386 103.281 446.994 103.281C446.554 103.281 446.118 103.197 445.686 103.028C445.262 102.86 444.894 102.576 444.583 102.176ZM451.538 102.671C451.538 102.807 451.49 102.923 451.394 103.019C451.306 103.115 451.194 103.163 451.058 103.163C450.914 103.163 450.798 103.115 450.71 103.019C450.622 102.923 450.578 102.807 450.578 102.671L450.581 97.3429C450.581 97.2069 450.625 97.0949 450.713 97.007C450.809 96.911 450.925 96.8631 451.061 96.8632C451.197 96.8632 451.309 96.9113 451.397 97.0073C451.493 97.0954 451.541 97.2074 451.541 97.3434L451.538 102.671ZM451.061 96.0592C450.861 96.0591 450.713 96.019 450.617 95.9389C450.521 95.8589 450.474 95.7349 450.474 95.5669L450.474 95.3989C450.474 95.2309 450.526 95.1069 450.63 95.0269C450.734 94.947 450.882 94.9071 451.074 94.9072C451.266 94.9073 451.41 94.9473 451.506 95.0274C451.602 95.1074 451.65 95.2315 451.65 95.3995L451.65 95.5675C451.65 95.7355 451.597 95.8594 451.493 95.9394C451.397 96.0193 451.253 96.0593 451.061 96.0592ZM453.025 96.9962L455.845 96.9976C455.973 96.9977 456.077 97.0417 456.157 97.1298C456.245 97.2178 456.289 97.3218 456.289 97.4418C456.289 97.5698 456.245 97.6778 456.157 97.7658C456.077 97.8457 455.973 97.8857 455.845 97.8856L453.025 97.8842C452.905 97.8841 452.801 97.8401 452.713 97.752C452.625 97.664 452.581 97.5559 452.581 97.4279C452.581 97.3079 452.625 97.208 452.713 97.128C452.801 97.0401 452.905 96.9961 453.025 96.9962ZM454.286 95.3648C454.422 95.3649 454.534 95.4129 454.622 95.509C454.71 95.597 454.754 95.709 454.754 95.845L454.751 101.641C454.751 101.833 454.779 101.977 454.835 102.073C454.891 102.169 454.963 102.237 455.051 102.277C455.147 102.309 455.239 102.325 455.327 102.325C455.407 102.325 455.475 102.313 455.531 102.289C455.595 102.257 455.667 102.242 455.747 102.242C455.827 102.242 455.899 102.282 455.963 102.362C456.035 102.434 456.07 102.53 456.07 102.65C456.07 102.794 455.986 102.918 455.818 103.022C455.65 103.118 455.462 103.165 455.254 103.165C455.142 103.165 455.002 103.157 454.834 103.141C454.674 103.125 454.514 103.073 454.354 102.985C454.194 102.897 454.058 102.753 453.946 102.553C453.843 102.345 453.791 102.057 453.791 101.689L453.794 95.8446C453.794 95.7086 453.842 95.5966 453.938 95.5086C454.034 95.4127 454.15 95.3647 454.286 95.3648ZM460.431 103.288C459.791 103.288 459.231 103.151 458.751 102.879C458.271 102.607 457.895 102.235 457.624 101.763C457.36 101.282 457.228 100.73 457.229 100.106C457.229 99.4103 457.365 98.8184 457.637 98.3305C457.918 97.8347 458.278 97.4588 458.718 97.2031C459.166 96.9393 459.638 96.8075 460.134 96.8078C460.502 96.808 460.858 96.8761 461.202 97.0123C461.546 97.1485 461.85 97.3487 462.114 97.6128C462.378 97.8689 462.589 98.181 462.749 98.5491C462.909 98.9092 462.993 99.3132 463.001 99.7612C463.001 99.8892 462.953 99.9972 462.857 100.085C462.76 100.173 462.648 100.217 462.52 100.217L457.78 100.215L457.565 99.3865L462.185 99.3888L461.993 99.5567L461.993 99.2927C461.961 98.9647 461.849 98.6847 461.657 98.4526C461.473 98.2125 461.246 98.0283 460.974 97.9002C460.71 97.7721 460.43 97.7079 460.134 97.7078C459.894 97.7077 459.654 97.7515 459.414 97.8394C459.182 97.9193 458.97 98.0552 458.777 98.2471C458.593 98.431 458.441 98.6709 458.321 98.9669C458.209 99.2628 458.153 99.6188 458.153 100.035C458.152 100.499 458.244 100.907 458.428 101.259C458.62 101.611 458.884 101.891 459.219 102.099C459.555 102.299 459.947 102.4 460.395 102.4C460.675 102.4 460.919 102.364 461.127 102.292C461.335 102.22 461.515 102.132 461.668 102.029C461.82 101.917 461.948 101.805 462.052 101.693C462.156 101.621 462.256 101.585 462.352 101.585C462.472 101.585 462.568 101.625 462.64 101.705C462.72 101.785 462.76 101.881 462.76 101.993C462.759 102.129 462.695 102.249 462.567 102.353C462.343 102.601 462.039 102.821 461.655 103.013C461.271 103.196 460.863 103.288 460.431 103.288ZM464.177 104.742C464.073 104.742 463.973 104.698 463.877 104.61C463.789 104.53 463.745 104.43 463.745 104.31C463.745 104.238 463.761 104.166 463.793 104.094L468.911 93.8842C468.967 93.7723 469.031 93.6923 469.103 93.6443C469.175 93.5964 469.255 93.5724 469.343 93.5725C469.439 93.5725 469.531 93.6126 469.619 93.6926C469.715 93.7646 469.763 93.8647 469.763 93.9927C469.762 94.0727 469.742 94.1527 469.702 94.2326L464.597 104.442C464.549 104.546 464.489 104.622 464.417 104.67C464.345 104.718 464.265 104.742 464.177 104.742Z" fill="black"/>
</svg>
