<svg width="1287" height="546" viewBox="0 0 1287 546" fill="none" xmlns="http://www.w3.org/2000/svg">
<path d="M96.9844 396.987C43.4214 319.548 63.8738 212.591 142.666 158.092C221.458 103.593 328.754 122.189 382.317 199.629C435.88 277.068 415.427 384.025 336.635 438.524C257.843 493.023 150.547 474.426 96.9844 396.987Z" fill="#FCD993"/>
<path d="M196.842 348.077C145.217 273.441 166.227 169.457 243.769 115.823C321.311 62.1891 426.02 79.2153 477.645 153.852C529.27 228.489 508.26 332.472 430.718 386.106C353.176 439.74 248.466 422.714 196.842 348.077Z" fill="#FFFBF5"/>
<path d="M290.602 157.157C293.635 157.707 301.247 159.181 308.818 165.551C311.608 167.899 315.941 171.632 318.925 178.478C322.066 185.68 321.9 192.159 321.839 193.657C321.773 195.217 321.374 202.415 316.976 209.824C312.739 216.962 307.2 220.239 303.578 222.322C301.878 223.299 293.463 227.966 281.818 227.473C278.277 227.322 269.637 226.84 260.805 220.625C257.696 218.439 252 214.314 248.313 206.137C247.291 203.87 244.791 198.144 245.166 190.269C245.259 188.345 245.714 182.279 249.205 175.834C251.713 171.203 254.633 168.507 256.489 166.827C261.539 162.249 266.456 160.357 269.642 159.171C273.768 157.63 277.037 157.108 278.058 156.958C280.462 156.605 285.034 156.161 290.599 157.166L290.602 157.157Z" fill="#FFD278" fill-opacity="0.78" stroke="white" stroke-width="0.25" stroke-linecap="round" stroke-linejoin="round"/>
<path d="M255.912 351.668C256.388 351.668 256.785 351.827 257.102 352.144C257.442 352.461 257.612 352.858 257.612 353.334C257.612 353.81 257.442 354.207 257.102 354.524C256.785 354.841 256.388 355 255.912 355H244.488C243.989 355 243.57 354.841 243.23 354.524C242.913 354.184 242.754 353.765 242.754 353.266V332.934C242.754 332.435 242.924 332.027 243.264 331.71C243.604 331.37 244.046 331.2 244.59 331.2C245.043 331.2 245.44 331.37 245.78 331.71C246.143 332.027 246.324 332.435 246.324 332.934V352.246L245.61 351.668H255.912ZM264.336 353.266C264.336 353.765 264.177 354.184 263.86 354.524C263.542 354.841 263.134 355 262.636 355C262.16 355 261.752 354.841 261.412 354.524C261.094 354.184 260.936 353.765 260.936 353.266V338.714C260.936 338.215 261.094 337.807 261.412 337.49C261.752 337.15 262.16 336.98 262.636 336.98C263.134 336.98 263.542 337.15 263.86 337.49C264.177 337.807 264.336 338.215 264.336 338.714V353.266ZM262.602 334.736C261.944 334.736 261.468 334.623 261.174 334.396C260.879 334.147 260.732 333.739 260.732 333.172V332.628C260.732 332.061 260.89 331.665 261.208 331.438C261.525 331.211 262.001 331.098 262.636 331.098C263.316 331.098 263.803 331.223 264.098 331.472C264.392 331.699 264.54 332.084 264.54 332.628V333.172C264.54 333.761 264.381 334.169 264.064 334.396C263.769 334.623 263.282 334.736 262.602 334.736ZM278.123 336.708C279.733 336.708 280.979 337.048 281.863 337.728C282.747 338.385 283.359 339.281 283.699 340.414C284.062 341.525 284.243 342.771 284.243 344.154V353.266C284.243 353.765 284.073 354.184 283.733 354.524C283.416 354.841 283.019 355 282.543 355C282.045 355 281.637 354.841 281.319 354.524C281.002 354.184 280.843 353.765 280.843 353.266V344.188C280.843 343.372 280.73 342.647 280.503 342.012C280.277 341.355 279.88 340.833 279.313 340.448C278.769 340.04 277.999 339.836 277.001 339.836C276.072 339.836 275.256 340.04 274.553 340.448C273.851 340.833 273.295 341.355 272.887 342.012C272.502 342.647 272.309 343.372 272.309 344.188V353.266C272.309 353.765 272.139 354.184 271.799 354.524C271.482 354.841 271.085 355 270.609 355C270.111 355 269.703 354.841 269.385 354.524C269.068 354.184 268.909 353.765 268.909 353.266V338.85C268.909 338.351 269.068 337.943 269.385 337.626C269.703 337.286 270.111 337.116 270.609 337.116C271.085 337.116 271.482 337.286 271.799 337.626C272.139 337.943 272.309 338.351 272.309 338.85V340.754L271.697 341.094C271.856 340.595 272.128 340.097 272.513 339.598C272.921 339.077 273.409 338.601 273.975 338.17C274.542 337.717 275.177 337.365 275.879 337.116C276.582 336.844 277.33 336.708 278.123 336.708ZM290.936 355C290.46 355 290.052 354.841 289.712 354.524C289.395 354.184 289.236 353.765 289.236 353.266V331.574C289.236 331.075 289.395 330.667 289.712 330.35C290.052 330.01 290.46 329.84 290.936 329.84C291.435 329.84 291.843 330.01 292.16 330.35C292.477 330.667 292.636 331.075 292.636 331.574V353.266C292.636 353.765 292.477 354.184 292.16 354.524C291.843 354.841 291.435 355 290.936 355ZM302.02 337.048C302.451 337.048 302.825 337.229 303.142 337.592C303.459 337.955 303.618 338.317 303.618 338.68C303.618 339.133 303.403 339.553 302.972 339.938L292.33 349.458L292.194 345.548L300.762 337.592C301.125 337.229 301.544 337.048 302.02 337.048ZM302.428 354.966C301.952 354.966 301.544 354.773 301.204 354.388L294.404 347.214L296.988 344.834L303.618 352.008C303.981 352.393 304.162 352.824 304.162 353.3C304.162 353.799 303.958 354.207 303.55 354.524C303.165 354.819 302.791 354.966 302.428 354.966ZM325.512 355C324.968 355 324.526 354.841 324.186 354.524C323.869 354.184 323.71 353.765 323.71 353.266V332.9H327.348V353.266C327.348 353.765 327.167 354.184 326.804 354.524C326.464 354.841 326.033 355 325.512 355ZM317.794 334.464C317.318 334.464 316.91 334.317 316.57 334.022C316.23 333.705 316.06 333.297 316.06 332.798C316.06 332.322 316.23 331.937 316.57 331.642C316.91 331.347 317.318 331.2 317.794 331.2H333.264C333.74 331.2 334.137 331.359 334.454 331.676C334.794 331.971 334.964 332.356 334.964 332.832C334.964 333.331 334.794 333.727 334.454 334.022C334.137 334.317 333.74 334.464 333.264 334.464H317.794ZM341.633 353.266C341.633 353.765 341.474 354.184 341.157 354.524C340.839 354.841 340.431 355 339.933 355C339.457 355 339.049 354.841 338.709 354.524C338.391 354.184 338.233 353.765 338.233 353.266V338.714C338.233 338.215 338.391 337.807 338.709 337.49C339.049 337.15 339.457 336.98 339.933 336.98C340.431 336.98 340.839 337.15 341.157 337.49C341.474 337.807 341.633 338.215 341.633 338.714V353.266ZM339.899 334.736C339.241 334.736 338.765 334.623 338.471 334.396C338.176 334.147 338.029 333.739 338.029 333.172V332.628C338.029 332.061 338.187 331.665 338.505 331.438C338.822 331.211 339.298 331.098 339.933 331.098C340.613 331.098 341.1 331.223 341.395 331.472C341.689 331.699 341.837 332.084 341.837 332.628V333.172C341.837 333.761 341.678 334.169 341.361 334.396C341.066 334.623 340.579 334.736 339.899 334.736ZM349.878 353.266C349.878 353.765 349.708 354.184 349.368 354.524C349.051 354.841 348.654 355 348.178 355C347.702 355 347.294 354.841 346.954 354.524C346.637 354.184 346.478 353.765 346.478 353.266V331.574C346.478 331.075 346.648 330.667 346.988 330.35C347.328 330.01 347.736 329.84 348.212 329.84C348.711 329.84 349.108 330.01 349.402 330.35C349.72 330.667 349.878 331.075 349.878 331.574V353.266ZM366.611 331.2C367.065 331.2 367.461 331.37 367.801 331.71C368.164 332.027 368.345 332.435 368.345 332.934V353.266C368.323 353.765 368.13 354.184 367.767 354.524C367.427 354.841 367.019 355 366.543 355C366.022 355 365.591 354.841 365.251 354.524C364.934 354.184 364.775 353.765 364.775 353.266V332.934C364.775 332.435 364.945 332.027 365.285 331.71C365.625 331.37 366.067 331.2 366.611 331.2ZM381.945 331.2C382.489 331.2 382.92 331.37 383.237 331.71C383.555 332.027 383.713 332.435 383.713 332.934V353.266C383.713 353.765 383.543 354.184 383.203 354.524C382.886 354.841 382.455 355 381.911 355C381.435 355 381.027 354.841 380.687 354.524C380.347 354.184 380.177 353.765 380.177 353.266V332.934C380.177 332.435 380.347 332.027 380.687 331.71C381.05 331.37 381.469 331.2 381.945 331.2ZM366.475 341.332H381.979L381.945 344.596H366.441L366.475 341.332ZM392.715 355.748C392.715 356.972 392.466 358.026 391.967 358.91C391.468 359.794 390.811 360.474 389.995 360.95C389.179 361.426 388.306 361.664 387.377 361.664C386.901 361.664 386.516 361.505 386.221 361.188C385.926 360.893 385.779 360.531 385.779 360.1V359.794C385.779 359.386 385.926 359.057 386.221 358.808C386.493 358.559 386.833 358.366 387.241 358.23C387.762 358.071 388.17 357.833 388.465 357.516C388.782 357.221 388.998 356.836 389.111 356.36C389.247 355.907 389.315 355.408 389.315 354.864V338.816C389.315 338.34 389.474 337.943 389.791 337.626C390.108 337.286 390.516 337.116 391.015 337.116C391.514 337.116 391.922 337.286 392.239 337.626C392.556 337.943 392.715 338.34 392.715 338.816V355.748ZM390.947 334.736C390.29 334.736 389.814 334.623 389.519 334.396C389.224 334.147 389.077 333.739 389.077 333.172V332.628C389.077 332.061 389.236 331.665 389.553 331.438C389.87 331.211 390.346 331.098 390.981 331.098C391.661 331.098 392.148 331.223 392.443 331.472C392.738 331.699 392.885 332.084 392.885 332.628V333.172C392.885 333.761 392.726 334.169 392.409 334.396C392.114 334.623 391.627 334.736 390.947 334.736ZM406.466 355.34C404.585 355.34 402.953 354.955 401.57 354.184C400.187 353.391 399.111 352.314 398.34 350.954C397.592 349.571 397.218 347.996 397.218 346.228C397.218 344.233 397.615 342.533 398.408 341.128C399.224 339.7 400.278 338.612 401.57 337.864C402.862 337.093 404.233 336.708 405.684 336.708C406.795 336.708 407.849 336.935 408.846 337.388C409.843 337.819 410.727 338.431 411.498 339.224C412.291 339.995 412.915 340.913 413.368 341.978C413.821 343.021 414.059 344.165 414.082 345.412C414.059 345.865 413.878 346.239 413.538 346.534C413.198 346.829 412.801 346.976 412.348 346.976H399.122L398.306 344.086H411.09L410.444 344.698V343.848C410.399 343.055 410.138 342.363 409.662 341.774C409.186 341.162 408.597 340.697 407.894 340.38C407.191 340.04 406.455 339.87 405.684 339.87C405.004 339.87 404.347 339.983 403.712 340.21C403.1 340.414 402.545 340.754 402.046 341.23C401.57 341.706 401.185 342.341 400.89 343.134C400.618 343.905 400.482 344.868 400.482 346.024C400.482 347.271 400.743 348.359 401.264 349.288C401.785 350.217 402.488 350.943 403.372 351.464C404.256 351.963 405.231 352.212 406.296 352.212C407.135 352.212 407.826 352.133 408.37 351.974C408.914 351.793 409.367 351.577 409.73 351.328C410.093 351.079 410.41 350.841 410.682 350.614C411.022 350.41 411.362 350.308 411.702 350.308C412.11 350.308 412.45 350.455 412.722 350.75C412.994 351.022 413.13 351.351 413.13 351.736C413.13 352.235 412.881 352.688 412.382 353.096C411.77 353.685 410.92 354.207 409.832 354.66C408.767 355.113 407.645 355.34 406.466 355.34ZM426.901 336.81C428.578 336.81 429.87 337.229 430.777 338.068C431.684 338.884 432.284 339.995 432.579 341.4L432.035 341.23L432.273 340.686C432.568 340.097 433.01 339.507 433.599 338.918C434.211 338.306 434.936 337.807 435.775 337.422C436.614 337.014 437.509 336.81 438.461 336.81C440.025 336.81 441.238 337.15 442.099 337.83C442.96 338.487 443.561 339.383 443.901 340.516C444.241 341.627 444.411 342.873 444.411 344.256V353.266C444.411 353.765 444.252 354.184 443.935 354.524C443.618 354.841 443.21 355 442.711 355C442.235 355 441.827 354.841 441.487 354.524C441.17 354.184 441.011 353.765 441.011 353.266V344.29C441.011 343.497 440.898 342.771 440.671 342.114C440.467 341.457 440.093 340.935 439.549 340.55C439.028 340.142 438.302 339.938 437.373 339.938C436.489 339.938 435.696 340.142 434.993 340.55C434.313 340.935 433.78 341.457 433.395 342.114C433.01 342.771 432.817 343.497 432.817 344.29V353.266C432.817 353.765 432.658 354.184 432.341 354.524C432.024 354.841 431.616 355 431.117 355C430.618 355 430.21 354.841 429.893 354.524C429.576 354.184 429.417 353.765 429.417 353.266V344.256C429.417 343.463 429.304 342.737 429.077 342.08C428.873 341.423 428.51 340.901 427.989 340.516C427.468 340.131 426.742 339.938 425.813 339.938C424.929 339.938 424.147 340.131 423.467 340.516C422.787 340.901 422.254 341.423 421.869 342.08C421.506 342.737 421.325 343.463 421.325 344.256V353.266C421.325 353.765 421.155 354.184 420.815 354.524C420.498 354.841 420.101 355 419.625 355C419.126 355 418.718 354.841 418.401 354.524C418.084 354.184 417.925 353.765 417.925 353.266V338.85C417.925 338.351 418.084 337.943 418.401 337.626C418.718 337.286 419.126 337.116 419.625 337.116C420.101 337.116 420.498 337.286 420.815 337.626C421.155 337.943 421.325 338.351 421.325 338.85V340.856L420.679 341.23C420.838 340.731 421.098 340.221 421.461 339.7C421.824 339.179 422.277 338.703 422.821 338.272C423.388 337.841 424.011 337.49 424.691 337.218C425.371 336.946 426.108 336.81 426.901 336.81ZM458.145 336.81C459.822 336.81 461.114 337.229 462.021 338.068C462.928 338.884 463.528 339.995 463.823 341.4L463.279 341.23L463.517 340.686C463.812 340.097 464.254 339.507 464.843 338.918C465.455 338.306 466.18 337.807 467.019 337.422C467.858 337.014 468.753 336.81 469.705 336.81C471.269 336.81 472.482 337.15 473.343 337.83C474.204 338.487 474.805 339.383 475.145 340.516C475.485 341.627 475.655 342.873 475.655 344.256V353.266C475.655 353.765 475.496 354.184 475.179 354.524C474.862 354.841 474.454 355 473.955 355C473.479 355 473.071 354.841 472.731 354.524C472.414 354.184 472.255 353.765 472.255 353.266V344.29C472.255 343.497 472.142 342.771 471.915 342.114C471.711 341.457 471.337 340.935 470.793 340.55C470.272 340.142 469.546 339.938 468.617 339.938C467.733 339.938 466.94 340.142 466.237 340.55C465.557 340.935 465.024 341.457 464.639 342.114C464.254 342.771 464.061 343.497 464.061 344.29V353.266C464.061 353.765 463.902 354.184 463.585 354.524C463.268 354.841 462.86 355 462.361 355C461.862 355 461.454 354.841 461.137 354.524C460.82 354.184 460.661 353.765 460.661 353.266V344.256C460.661 343.463 460.548 342.737 460.321 342.08C460.117 341.423 459.754 340.901 459.233 340.516C458.712 340.131 457.986 339.938 457.057 339.938C456.173 339.938 455.391 340.131 454.711 340.516C454.031 340.901 453.498 341.423 453.113 342.08C452.75 342.737 452.569 343.463 452.569 344.256V353.266C452.569 353.765 452.399 354.184 452.059 354.524C451.742 354.841 451.345 355 450.869 355C450.37 355 449.962 354.841 449.645 354.524C449.328 354.184 449.169 353.765 449.169 353.266V338.85C449.169 338.351 449.328 337.943 449.645 337.626C449.962 337.286 450.37 337.116 450.869 337.116C451.345 337.116 451.742 337.286 452.059 337.626C452.399 337.943 452.569 338.351 452.569 338.85V340.856L451.923 341.23C452.082 340.731 452.342 340.221 452.705 339.7C453.068 339.179 453.521 338.703 454.065 338.272C454.632 337.841 455.255 337.49 455.935 337.218C456.615 336.946 457.352 336.81 458.145 336.81ZM488.743 355.34C486.862 355.34 485.23 354.955 483.847 354.184C482.465 353.391 481.388 352.314 480.617 350.954C479.869 349.571 479.495 347.996 479.495 346.228C479.495 344.233 479.892 342.533 480.685 341.128C481.501 339.7 482.555 338.612 483.847 337.864C485.139 337.093 486.511 336.708 487.961 336.708C489.072 336.708 490.126 336.935 491.123 337.388C492.121 337.819 493.005 338.431 493.775 339.224C494.569 339.995 495.192 340.913 495.645 341.978C496.099 343.021 496.337 344.165 496.359 345.412C496.337 345.865 496.155 346.239 495.815 346.534C495.475 346.829 495.079 346.976 494.625 346.976H481.399L480.583 344.086H493.367L492.721 344.698V343.848C492.676 343.055 492.415 342.363 491.939 341.774C491.463 341.162 490.874 340.697 490.171 340.38C489.469 340.04 488.732 339.87 487.961 339.87C487.281 339.87 486.624 339.983 485.989 340.21C485.377 340.414 484.822 340.754 484.323 341.23C483.847 341.706 483.462 342.341 483.167 343.134C482.895 343.905 482.759 344.868 482.759 346.024C482.759 347.271 483.02 348.359 483.541 349.288C484.063 350.217 484.765 350.943 485.649 351.464C486.533 351.963 487.508 352.212 488.573 352.212C489.412 352.212 490.103 352.133 490.647 351.974C491.191 351.793 491.645 351.577 492.007 351.328C492.37 351.079 492.687 350.841 492.959 350.614C493.299 350.41 493.639 350.308 493.979 350.308C494.387 350.308 494.727 350.455 494.999 350.75C495.271 351.022 495.407 351.351 495.407 351.736C495.407 352.235 495.158 352.688 494.659 353.096C494.047 353.685 493.197 354.207 492.109 354.66C491.044 355.113 489.922 355.34 488.743 355.34ZM499.148 352.212C498.944 351.895 498.854 351.532 498.876 351.124C498.899 350.693 499.137 350.331 499.59 350.036C499.908 349.832 500.236 349.753 500.576 349.798C500.939 349.821 501.279 349.991 501.596 350.308C502.231 351.011 502.934 351.566 503.704 351.974C504.498 352.382 505.45 352.586 506.56 352.586C507.014 352.563 507.478 352.495 507.954 352.382C508.43 352.246 508.838 352.019 509.178 351.702C509.518 351.362 509.688 350.875 509.688 350.24C509.688 349.673 509.507 349.22 509.144 348.88C508.782 348.54 508.306 348.268 507.716 348.064C507.127 347.837 506.492 347.633 505.812 347.452C505.087 347.248 504.35 347.021 503.602 346.772C502.877 346.523 502.22 346.205 501.63 345.82C501.041 345.412 500.554 344.891 500.168 344.256C499.806 343.621 499.624 342.839 499.624 341.91C499.624 340.845 499.919 339.927 500.508 339.156C501.12 338.385 501.902 337.785 502.854 337.354C503.829 336.923 504.883 336.708 506.016 336.708C506.674 336.708 507.365 336.799 508.09 336.98C508.816 337.139 509.518 337.399 510.198 337.762C510.878 338.125 511.468 338.601 511.966 339.19C512.193 339.485 512.318 339.836 512.34 340.244C512.386 340.652 512.204 341.015 511.796 341.332C511.524 341.559 511.196 341.661 510.81 341.638C510.425 341.615 510.108 341.491 509.858 341.264C509.428 340.72 508.872 340.301 508.192 340.006C507.512 339.689 506.742 339.53 505.88 339.53C505.45 339.53 504.996 339.598 504.52 339.734C504.067 339.847 503.682 340.063 503.364 340.38C503.047 340.697 502.888 341.162 502.888 341.774C502.888 342.341 503.07 342.794 503.432 343.134C503.818 343.474 504.316 343.757 504.928 343.984C505.54 344.211 506.209 344.415 506.934 344.596C507.637 344.777 508.328 344.993 509.008 345.242C509.711 345.491 510.334 345.82 510.878 346.228C511.445 346.613 511.898 347.123 512.238 347.758C512.601 348.37 512.782 349.152 512.782 350.104C512.782 351.215 512.454 352.167 511.796 352.96C511.162 353.731 510.346 354.32 509.348 354.728C508.374 355.136 507.342 355.34 506.254 355.34C504.962 355.34 503.67 355.113 502.378 354.66C501.109 354.184 500.032 353.368 499.148 352.212ZM519.635 353.266C519.635 353.765 519.476 354.184 519.159 354.524C518.841 354.841 518.433 355 517.935 355C517.459 355 517.051 354.841 516.711 354.524C516.393 354.184 516.235 353.765 516.235 353.266V338.714C516.235 338.215 516.393 337.807 516.711 337.49C517.051 337.15 517.459 336.98 517.935 336.98C518.433 336.98 518.841 337.15 519.159 337.49C519.476 337.807 519.635 338.215 519.635 338.714V353.266ZM517.901 334.736C517.243 334.736 516.767 334.623 516.473 334.396C516.178 334.147 516.031 333.739 516.031 333.172V332.628C516.031 332.061 516.189 331.665 516.507 331.438C516.824 331.211 517.3 331.098 517.935 331.098C518.615 331.098 519.102 331.223 519.397 331.472C519.691 331.699 519.839 332.084 519.839 332.628V333.172C519.839 333.761 519.68 334.169 519.363 334.396C519.068 334.623 518.581 334.736 517.901 334.736ZM538.862 329.84C539.361 329.84 539.769 329.999 540.086 330.316C540.403 330.633 540.562 331.053 540.562 331.574V353.266C540.562 353.765 540.403 354.184 540.086 354.524C539.769 354.841 539.361 355 538.862 355C538.386 355 537.978 354.841 537.638 354.524C537.321 354.184 537.162 353.765 537.162 353.266V350.818L537.876 350.852C537.876 351.26 537.706 351.725 537.366 352.246C537.049 352.745 536.607 353.232 536.04 353.708C535.473 354.184 534.805 354.581 534.034 354.898C533.263 355.193 532.436 355.34 531.552 355.34C529.988 355.34 528.583 354.943 527.336 354.15C526.089 353.334 525.103 352.235 524.378 350.852C523.653 349.447 523.29 347.837 523.29 346.024C523.29 344.211 523.653 342.613 524.378 341.23C525.103 339.825 526.078 338.725 527.302 337.932C528.549 337.116 529.931 336.708 531.45 336.708C532.402 336.708 533.286 336.867 534.102 337.184C534.941 337.501 535.666 337.909 536.278 338.408C536.89 338.907 537.366 339.439 537.706 340.006C538.046 340.55 538.216 341.071 538.216 341.57L537.162 341.672V331.574C537.162 331.075 537.321 330.667 537.638 330.35C537.978 330.01 538.386 329.84 538.862 329.84ZM531.926 352.212C533.014 352.212 533.955 351.94 534.748 351.396C535.564 350.852 536.199 350.115 536.652 349.186C537.105 348.257 537.332 347.203 537.332 346.024C537.332 344.845 537.105 343.791 536.652 342.862C536.199 341.933 535.564 341.196 534.748 340.652C533.932 340.108 532.991 339.836 531.926 339.836C530.883 339.836 529.954 340.108 529.138 340.652C528.345 341.196 527.71 341.933 527.234 342.862C526.781 343.791 526.554 344.845 526.554 346.024C526.554 347.203 526.781 348.257 527.234 349.186C527.71 350.115 528.345 350.852 529.138 351.396C529.954 351.94 530.883 352.212 531.926 352.212ZM553.655 355.34C551.774 355.34 550.142 354.955 548.759 354.184C547.377 353.391 546.3 352.314 545.529 350.954C544.781 349.571 544.407 347.996 544.407 346.228C544.407 344.233 544.804 342.533 545.597 341.128C546.413 339.7 547.467 338.612 548.759 337.864C550.051 337.093 551.423 336.708 552.873 336.708C553.984 336.708 555.038 336.935 556.035 337.388C557.033 337.819 557.917 338.431 558.687 339.224C559.481 339.995 560.104 340.913 560.557 341.978C561.011 343.021 561.249 344.165 561.271 345.412C561.249 345.865 561.067 346.239 560.727 346.534C560.387 346.829 559.991 346.976 559.537 346.976H546.311L545.495 344.086H558.279L557.633 344.698V343.848C557.588 343.055 557.327 342.363 556.851 341.774C556.375 341.162 555.786 340.697 555.083 340.38C554.381 340.04 553.644 339.87 552.873 339.87C552.193 339.87 551.536 339.983 550.901 340.21C550.289 340.414 549.734 340.754 549.235 341.23C548.759 341.706 548.374 342.341 548.079 343.134C547.807 343.905 547.671 344.868 547.671 346.024C547.671 347.271 547.932 348.359 548.453 349.288C548.975 350.217 549.677 350.943 550.561 351.464C551.445 351.963 552.42 352.212 553.485 352.212C554.324 352.212 555.015 352.133 555.559 351.974C556.103 351.793 556.557 351.577 556.919 351.328C557.282 351.079 557.599 350.841 557.871 350.614C558.211 350.41 558.551 350.308 558.891 350.308C559.299 350.308 559.639 350.455 559.911 350.75C560.183 351.022 560.319 351.351 560.319 351.736C560.319 352.235 560.07 352.688 559.571 353.096C558.959 353.685 558.109 354.207 557.021 354.66C555.956 355.113 554.834 355.34 553.655 355.34ZM582.703 355C582.159 355 581.717 354.841 581.377 354.524C581.06 354.184 580.901 353.765 580.901 353.266V332.9H584.539V353.266C584.539 353.765 584.358 354.184 583.995 354.524C583.655 354.841 583.225 355 582.703 355ZM574.985 334.464C574.509 334.464 574.101 334.317 573.761 334.022C573.421 333.705 573.251 333.297 573.251 332.798C573.251 332.322 573.421 331.937 573.761 331.642C574.101 331.347 574.509 331.2 574.985 331.2H590.455C590.931 331.2 591.328 331.359 591.645 331.676C591.985 331.971 592.155 332.356 592.155 332.832C592.155 333.331 591.985 333.727 591.645 334.022C591.328 334.317 590.931 334.464 590.455 334.464H574.985ZM599.874 355.34C597.993 355.34 596.361 354.955 594.978 354.184C593.595 353.391 592.519 352.314 591.748 350.954C591 349.571 590.626 347.996 590.626 346.228C590.626 344.233 591.023 342.533 591.816 341.128C592.632 339.7 593.686 338.612 594.978 337.864C596.27 337.093 597.641 336.708 599.092 336.708C600.203 336.708 601.257 336.935 602.254 337.388C603.251 337.819 604.135 338.431 604.906 339.224C605.699 339.995 606.323 340.913 606.776 341.978C607.229 343.021 607.467 344.165 607.49 345.412C607.467 345.865 607.286 346.239 606.946 346.534C606.606 346.829 606.209 346.976 605.756 346.976H592.53L591.714 344.086H604.498L603.852 344.698V343.848C603.807 343.055 603.546 342.363 603.07 341.774C602.594 341.162 602.005 340.697 601.302 340.38C600.599 340.04 599.863 339.87 599.092 339.87C598.412 339.87 597.755 339.983 597.12 340.21C596.508 340.414 595.953 340.754 595.454 341.23C594.978 341.706 594.593 342.341 594.298 343.134C594.026 343.905 593.89 344.868 593.89 346.024C593.89 347.271 594.151 348.359 594.672 349.288C595.193 350.217 595.896 350.943 596.78 351.464C597.664 351.963 598.639 352.212 599.704 352.212C600.543 352.212 601.234 352.133 601.778 351.974C602.322 351.793 602.775 351.577 603.138 351.328C603.501 351.079 603.818 350.841 604.09 350.614C604.43 350.41 604.77 350.308 605.11 350.308C605.518 350.308 605.858 350.455 606.13 350.75C606.402 351.022 606.538 351.351 606.538 351.736C606.538 352.235 606.289 352.688 605.79 353.096C605.178 353.685 604.328 354.207 603.24 354.66C602.175 355.113 601.053 355.34 599.874 355.34ZM620.309 336.81C621.986 336.81 623.278 337.229 624.185 338.068C625.092 338.884 625.692 339.995 625.987 341.4L625.443 341.23L625.681 340.686C625.976 340.097 626.418 339.507 627.007 338.918C627.619 338.306 628.344 337.807 629.183 337.422C630.022 337.014 630.917 336.81 631.869 336.81C633.433 336.81 634.646 337.15 635.507 337.83C636.368 338.487 636.969 339.383 637.309 340.516C637.649 341.627 637.819 342.873 637.819 344.256V353.266C637.819 353.765 637.66 354.184 637.343 354.524C637.026 354.841 636.618 355 636.119 355C635.643 355 635.235 354.841 634.895 354.524C634.578 354.184 634.419 353.765 634.419 353.266V344.29C634.419 343.497 634.306 342.771 634.079 342.114C633.875 341.457 633.501 340.935 632.957 340.55C632.436 340.142 631.71 339.938 630.781 339.938C629.897 339.938 629.104 340.142 628.401 340.55C627.721 340.935 627.188 341.457 626.803 342.114C626.418 342.771 626.225 343.497 626.225 344.29V353.266C626.225 353.765 626.066 354.184 625.749 354.524C625.432 354.841 625.024 355 624.525 355C624.026 355 623.618 354.841 623.301 354.524C622.984 354.184 622.825 353.765 622.825 353.266V344.256C622.825 343.463 622.712 342.737 622.485 342.08C622.281 341.423 621.918 340.901 621.397 340.516C620.876 340.131 620.15 339.938 619.221 339.938C618.337 339.938 617.555 340.131 616.875 340.516C616.195 340.901 615.662 341.423 615.277 342.08C614.914 342.737 614.733 343.463 614.733 344.256V353.266C614.733 353.765 614.563 354.184 614.223 354.524C613.906 354.841 613.509 355 613.033 355C612.534 355 612.126 354.841 611.809 354.524C611.492 354.184 611.333 353.765 611.333 353.266V338.85C611.333 338.351 611.492 337.943 611.809 337.626C612.126 337.286 612.534 337.116 613.033 337.116C613.509 337.116 613.906 337.286 614.223 337.626C614.563 337.943 614.733 338.351 614.733 338.85V340.856L614.087 341.23C614.246 340.731 614.506 340.221 614.869 339.7C615.232 339.179 615.685 338.703 616.229 338.272C616.796 337.841 617.419 337.49 618.099 337.218C618.779 336.946 619.516 336.81 620.309 336.81ZM657.231 336.844C657.73 336.844 658.138 337.014 658.455 337.354C658.773 337.671 658.931 338.079 658.931 338.578V353.266C658.931 353.765 658.773 354.184 658.455 354.524C658.138 354.841 657.73 355 657.231 355C656.755 355 656.347 354.841 656.007 354.524C655.69 354.184 655.531 353.765 655.531 353.266V350.818L656.245 350.92C656.245 351.328 656.075 351.781 655.735 352.28C655.418 352.779 654.976 353.266 654.409 353.742C653.843 354.195 653.174 354.581 652.403 354.898C651.633 355.193 650.805 355.34 649.921 355.34C648.357 355.34 646.952 354.943 645.705 354.15C644.459 353.334 643.473 352.223 642.747 350.818C642.022 349.413 641.659 347.815 641.659 346.024C641.659 344.188 642.022 342.579 642.747 341.196C643.473 339.791 644.447 338.691 645.671 337.898C646.918 337.105 648.301 336.708 649.819 336.708C650.794 336.708 651.689 336.867 652.505 337.184C653.344 337.501 654.069 337.909 654.681 338.408C655.293 338.907 655.758 339.439 656.075 340.006C656.415 340.55 656.585 341.071 656.585 341.57L655.531 341.672V338.578C655.531 338.102 655.69 337.694 656.007 337.354C656.347 337.014 656.755 336.844 657.231 336.844ZM650.295 352.212C651.361 352.212 652.301 351.94 653.117 351.396C653.933 350.852 654.568 350.115 655.021 349.186C655.475 348.234 655.701 347.18 655.701 346.024C655.701 344.845 655.475 343.791 655.021 342.862C654.568 341.933 653.933 341.196 653.117 340.652C652.301 340.108 651.361 339.836 650.295 339.836C649.253 339.836 648.323 340.108 647.507 340.652C646.714 341.196 646.079 341.933 645.603 342.862C645.15 343.791 644.923 344.845 644.923 346.024C644.923 347.18 645.15 348.234 645.603 349.186C646.079 350.115 646.714 350.852 647.507 351.396C648.323 351.94 649.253 352.212 650.295 352.212ZM683.765 355C683.289 355 682.893 354.841 682.575 354.524C682.258 354.184 682.099 353.765 682.099 353.266V335.96L682.711 336.164L675.367 345.548L675.197 345.106H687.573C688.027 345.106 688.401 345.265 688.695 345.582C689.013 345.877 689.171 346.251 689.171 346.704C689.171 347.135 689.013 347.497 688.695 347.792C688.401 348.087 688.027 348.234 687.573 348.234H672.851C672.443 348.234 672.058 348.075 671.695 347.758C671.333 347.418 671.151 347.021 671.151 346.568C671.151 346.137 671.299 345.752 671.593 345.412L682.405 331.88C682.564 331.653 682.768 331.483 683.017 331.37C683.267 331.257 683.527 331.2 683.799 331.2C684.298 331.2 684.706 331.37 685.023 331.71C685.341 332.027 685.499 332.435 685.499 332.934V353.266C685.499 353.765 685.329 354.184 684.989 354.524C684.649 354.841 684.241 355 683.765 355ZM694.08 341.4C693.513 341.4 693.071 341.253 692.754 340.958C692.459 340.641 692.312 340.199 692.312 339.632V338.986C692.312 338.419 692.459 337.977 692.754 337.66C693.071 337.343 693.513 337.184 694.08 337.184H694.454C695.02 337.184 695.451 337.343 695.746 337.66C696.04 337.977 696.188 338.419 696.188 338.986V339.632C696.188 340.199 696.04 340.641 695.746 340.958C695.451 341.253 695.02 341.4 694.454 341.4H694.08ZM694.08 355C693.513 355 693.071 354.841 692.754 354.524C692.459 354.207 692.312 353.765 692.312 353.198V352.586C692.312 351.997 692.459 351.555 692.754 351.26C693.071 350.943 693.513 350.784 694.08 350.784H694.454C695.02 350.784 695.451 350.943 695.746 351.26C696.04 351.555 696.188 351.997 696.188 352.586V353.198C696.188 353.765 696.04 354.207 695.746 354.524C695.451 354.841 695.02 355 694.454 355H694.08ZM712.455 331.2C712.909 331.2 713.305 331.37 713.645 331.71C714.008 332.027 714.189 332.435 714.189 332.934V353.266C714.167 353.765 713.974 354.184 713.611 354.524C713.271 354.841 712.863 355 712.387 355C711.866 355 711.435 354.841 711.095 354.524C710.778 354.184 710.619 353.765 710.619 353.266V332.934C710.619 332.435 710.789 332.027 711.129 331.71C711.469 331.37 711.911 331.2 712.455 331.2ZM727.789 331.2C728.333 331.2 728.764 331.37 729.081 331.71C729.399 332.027 729.557 332.435 729.557 332.934V353.266C729.557 353.765 729.387 354.184 729.047 354.524C728.73 354.841 728.299 355 727.755 355C727.279 355 726.871 354.841 726.531 354.524C726.191 354.184 726.021 353.765 726.021 353.266V332.934C726.021 332.435 726.191 332.027 726.531 331.71C726.894 331.37 727.313 331.2 727.789 331.2ZM712.319 341.332H727.823L727.789 344.596H712.285L712.319 341.332ZM734.445 337.32H742.435C742.888 337.32 743.262 337.479 743.557 337.796C743.874 338.091 744.033 338.465 744.033 338.918C744.033 339.349 743.874 339.711 743.557 340.006C743.262 340.301 742.888 340.448 742.435 340.448H734.445C733.991 340.448 733.606 340.301 733.289 340.006C732.994 339.689 732.847 339.315 732.847 338.884C732.847 338.431 732.994 338.057 733.289 337.762C733.606 337.467 733.991 337.32 734.445 337.32ZM738.015 332.9C738.513 332.9 738.921 333.07 739.239 333.41C739.556 333.727 739.715 334.135 739.715 334.634V350.41C739.715 350.818 739.783 351.147 739.919 351.396C740.055 351.645 740.236 351.815 740.463 351.906C740.712 351.997 740.961 352.042 741.211 352.042C741.46 352.042 741.675 351.997 741.857 351.906C742.061 351.815 742.299 351.77 742.571 351.77C742.843 351.77 743.092 351.895 743.319 352.144C743.545 352.393 743.659 352.733 743.659 353.164C743.659 353.708 743.364 354.15 742.775 354.49C742.185 354.83 741.551 355 740.871 355C740.485 355 740.032 354.966 739.511 354.898C738.989 354.83 738.479 354.66 737.981 354.388C737.505 354.116 737.108 353.685 736.791 353.096C736.473 352.484 736.315 351.634 736.315 350.546V334.634C736.315 334.135 736.473 333.727 736.791 333.41C737.131 333.07 737.539 332.9 738.015 332.9ZM747.56 337.32H755.55C756.003 337.32 756.377 337.479 756.672 337.796C756.989 338.091 757.148 338.465 757.148 338.918C757.148 339.349 756.989 339.711 756.672 340.006C756.377 340.301 756.003 340.448 755.55 340.448H747.56C747.107 340.448 746.721 340.301 746.404 340.006C746.109 339.689 745.962 339.315 745.962 338.884C745.962 338.431 746.109 338.057 746.404 337.762C746.721 337.467 747.107 337.32 747.56 337.32ZM751.13 332.9C751.629 332.9 752.037 333.07 752.354 333.41C752.671 333.727 752.83 334.135 752.83 334.634V350.41C752.83 350.818 752.898 351.147 753.034 351.396C753.17 351.645 753.351 351.815 753.578 351.906C753.827 351.997 754.077 352.042 754.326 352.042C754.575 352.042 754.791 351.997 754.972 351.906C755.176 351.815 755.414 351.77 755.686 351.77C755.958 351.77 756.207 351.895 756.434 352.144C756.661 352.393 756.774 352.733 756.774 353.164C756.774 353.708 756.479 354.15 755.89 354.49C755.301 354.83 754.666 355 753.986 355C753.601 355 753.147 354.966 752.626 354.898C752.105 354.83 751.595 354.66 751.096 354.388C750.62 354.116 750.223 353.685 749.906 353.096C749.589 352.484 749.43 351.634 749.43 350.546V334.634C749.43 334.135 749.589 333.727 749.906 333.41C750.246 333.07 750.654 332.9 751.13 332.9ZM769.923 336.81C771.51 336.81 772.915 337.207 774.139 338C775.386 338.793 776.372 339.881 777.097 341.264C777.823 342.624 778.185 344.211 778.185 346.024C778.185 347.837 777.823 349.447 777.097 350.852C776.372 352.235 775.397 353.323 774.173 354.116C772.949 354.909 771.567 355.306 770.025 355.306C769.164 355.306 768.348 355.17 767.577 354.898C766.807 354.626 766.127 354.275 765.537 353.844C764.948 353.391 764.461 352.915 764.075 352.416C763.713 351.917 763.486 351.453 763.395 351.022L764.313 350.58V360.066C764.313 360.565 764.143 360.973 763.803 361.29C763.486 361.63 763.089 361.8 762.613 361.8C762.115 361.8 761.707 361.63 761.389 361.29C761.072 360.973 760.913 360.565 760.913 360.066V338.782C760.913 338.306 761.072 337.898 761.389 337.558C761.707 337.218 762.115 337.048 762.613 337.048C763.089 337.048 763.486 337.218 763.803 337.558C764.143 337.898 764.313 338.306 764.313 338.782V341.128L763.769 340.822C763.837 340.391 764.053 339.949 764.415 339.496C764.778 339.02 765.231 338.578 765.775 338.17C766.342 337.762 766.977 337.433 767.679 337.184C768.405 336.935 769.153 336.81 769.923 336.81ZM769.549 339.938C768.461 339.938 767.509 340.21 766.693 340.754C765.9 341.275 765.277 341.989 764.823 342.896C764.37 343.803 764.143 344.845 764.143 346.024C764.143 347.18 764.37 348.234 764.823 349.186C765.277 350.115 765.9 350.852 766.693 351.396C767.509 351.917 768.461 352.178 769.549 352.178C770.615 352.178 771.544 351.917 772.337 351.396C773.131 350.852 773.754 350.115 774.207 349.186C774.683 348.234 774.921 347.18 774.921 346.024C774.921 344.868 774.683 343.837 774.207 342.93C773.754 342.001 773.131 341.275 772.337 340.754C771.544 340.21 770.615 339.938 769.549 339.938ZM780.976 352.212C780.772 351.895 780.682 351.532 780.704 351.124C780.727 350.693 780.965 350.331 781.418 350.036C781.736 349.832 782.064 349.753 782.404 349.798C782.767 349.821 783.107 349.991 783.424 350.308C784.059 351.011 784.762 351.566 785.532 351.974C786.326 352.382 787.278 352.586 788.388 352.586C788.842 352.563 789.306 352.495 789.782 352.382C790.258 352.246 790.666 352.019 791.006 351.702C791.346 351.362 791.516 350.875 791.516 350.24C791.516 349.673 791.335 349.22 790.972 348.88C790.61 348.54 790.134 348.268 789.544 348.064C788.955 347.837 788.32 347.633 787.64 347.452C786.915 347.248 786.178 347.021 785.43 346.772C784.705 346.523 784.048 346.205 783.458 345.82C782.869 345.412 782.382 344.891 781.996 344.256C781.634 343.621 781.452 342.839 781.452 341.91C781.452 340.845 781.747 339.927 782.336 339.156C782.948 338.385 783.73 337.785 784.682 337.354C785.657 336.923 786.711 336.708 787.844 336.708C788.502 336.708 789.193 336.799 789.918 336.98C790.644 337.139 791.346 337.399 792.026 337.762C792.706 338.125 793.296 338.601 793.794 339.19C794.021 339.485 794.146 339.836 794.168 340.244C794.214 340.652 794.032 341.015 793.624 341.332C793.352 341.559 793.024 341.661 792.638 341.638C792.253 341.615 791.936 341.491 791.686 341.264C791.256 340.72 790.7 340.301 790.02 340.006C789.34 339.689 788.57 339.53 787.708 339.53C787.278 339.53 786.824 339.598 786.348 339.734C785.895 339.847 785.51 340.063 785.192 340.38C784.875 340.697 784.716 341.162 784.716 341.774C784.716 342.341 784.898 342.794 785.26 343.134C785.646 343.474 786.144 343.757 786.756 343.984C787.368 344.211 788.037 344.415 788.762 344.596C789.465 344.777 790.156 344.993 790.836 345.242C791.539 345.491 792.162 345.82 792.706 346.228C793.273 346.613 793.726 347.123 794.066 347.758C794.429 348.37 794.61 349.152 794.61 350.104C794.61 351.215 794.282 352.167 793.624 352.96C792.99 353.731 792.174 354.32 791.176 354.728C790.202 355.136 789.17 355.34 788.082 355.34C786.79 355.34 785.498 355.113 784.206 354.66C782.937 354.184 781.86 353.368 780.976 352.212ZM799.865 341.4C799.298 341.4 798.856 341.253 798.539 340.958C798.244 340.641 798.097 340.199 798.097 339.632V338.986C798.097 338.419 798.244 337.977 798.539 337.66C798.856 337.343 799.298 337.184 799.865 337.184H800.239C800.805 337.184 801.236 337.343 801.531 337.66C801.825 337.977 801.973 338.419 801.973 338.986V339.632C801.973 340.199 801.825 340.641 801.531 340.958C801.236 341.253 800.805 341.4 800.239 341.4H799.865ZM799.865 355C799.298 355 798.856 354.841 798.539 354.524C798.244 354.207 798.097 353.765 798.097 353.198V352.586C798.097 351.997 798.244 351.555 798.539 351.26C798.856 350.943 799.298 350.784 799.865 350.784H800.239C800.805 350.784 801.236 350.943 801.531 351.26C801.825 351.555 801.973 351.997 801.973 352.586V353.198C801.973 353.765 801.825 354.207 801.531 354.524C801.236 354.841 800.805 355 800.239 355H799.865ZM806.5 359.488C806.16 359.488 805.82 359.352 805.48 359.08C805.14 358.808 804.97 358.468 804.97 358.06C804.97 357.811 805.038 357.573 805.174 357.346L819.284 328.752C819.442 328.435 819.635 328.197 819.862 328.038C820.111 327.879 820.383 327.8 820.678 327.8C820.995 327.8 821.312 327.925 821.63 328.174C821.97 328.423 822.139 328.775 822.139 329.228C822.139 329.477 822.083 329.727 821.97 329.976L807.86 358.57C807.701 358.865 807.508 359.091 807.282 359.25C807.055 359.409 806.794 359.488 806.5 359.488ZM822.171 359.488C821.831 359.488 821.491 359.352 821.151 359.08C820.811 358.808 820.641 358.468 820.641 358.06C820.641 357.811 820.709 357.573 820.845 357.346L834.955 328.752C835.114 328.435 835.307 328.197 835.533 328.038C835.783 327.879 836.055 327.8 836.349 327.8C836.667 327.8 836.984 327.925 837.301 328.174C837.641 328.423 837.811 328.775 837.811 329.228C837.811 329.477 837.755 329.727 837.641 329.976L823.531 358.57C823.373 358.865 823.18 359.091 822.953 359.25C822.727 359.409 822.466 359.488 822.171 359.488ZM843.174 331.166C843.446 331.166 843.73 331.234 844.024 331.37C844.319 331.506 844.546 331.699 844.704 331.948L853.34 345.106L851.878 345.038L860.684 331.948C861.047 331.427 861.512 331.166 862.078 331.166C862.532 331.166 862.928 331.336 863.268 331.676C863.631 331.993 863.812 332.401 863.812 332.9V353.266C863.812 353.765 863.654 354.184 863.336 354.524C863.019 354.841 862.6 355 862.078 355C861.534 355 861.092 354.841 860.752 354.524C860.435 354.184 860.276 353.765 860.276 353.266V336.028L861.364 336.266L853.884 347.656C853.726 347.86 853.522 348.041 853.272 348.2C853.023 348.336 852.762 348.393 852.49 348.37C852.241 348.393 851.98 348.336 851.708 348.2C851.459 348.041 851.255 347.86 851.096 347.656L843.888 336.436L844.704 335.076V353.266C844.704 353.765 844.546 354.184 844.228 354.524C843.934 354.841 843.537 355 843.038 355C842.562 355 842.166 354.841 841.848 354.524C841.554 354.184 841.406 353.765 841.406 353.266V332.9C841.406 332.424 841.576 332.016 841.916 331.676C842.279 331.336 842.698 331.166 843.174 331.166ZM872.185 353.266C872.185 353.765 872.027 354.184 871.709 354.524C871.392 354.841 870.984 355 870.485 355C870.009 355 869.601 354.841 869.261 354.524C868.944 354.184 868.785 353.765 868.785 353.266V338.714C868.785 338.215 868.944 337.807 869.261 337.49C869.601 337.15 870.009 336.98 870.485 336.98C870.984 336.98 871.392 337.15 871.709 337.49C872.027 337.807 872.185 338.215 872.185 338.714V353.266ZM870.451 334.736C869.794 334.736 869.318 334.623 869.023 334.396C868.729 334.147 868.581 333.739 868.581 333.172V332.628C868.581 332.061 868.74 331.665 869.057 331.438C869.375 331.211 869.851 331.098 870.485 331.098C871.165 331.098 871.653 331.223 871.947 331.472C872.242 331.699 872.389 332.084 872.389 332.628V333.172C872.389 333.761 872.231 334.169 871.913 334.396C871.619 334.623 871.131 334.736 870.451 334.736ZM880.431 353.266C880.431 353.765 880.261 354.184 879.921 354.524C879.604 354.841 879.207 355 878.731 355C878.255 355 877.847 354.841 877.507 354.524C877.19 354.184 877.031 353.765 877.031 353.266V331.574C877.031 331.075 877.201 330.667 877.541 330.35C877.881 330.01 878.289 329.84 878.765 329.84C879.264 329.84 879.66 330.01 879.955 330.35C880.272 330.667 880.431 331.075 880.431 331.574V353.266ZM893.489 355.34C891.608 355.34 889.976 354.955 888.593 354.184C887.211 353.391 886.134 352.314 885.363 350.954C884.615 349.571 884.241 347.996 884.241 346.228C884.241 344.233 884.638 342.533 885.431 341.128C886.247 339.7 887.301 338.612 888.593 337.864C889.885 337.093 891.257 336.708 892.707 336.708C893.818 336.708 894.872 336.935 895.869 337.388C896.867 337.819 897.751 338.431 898.521 339.224C899.315 339.995 899.938 340.913 900.391 341.978C900.845 343.021 901.083 344.165 901.105 345.412C901.083 345.865 900.901 346.239 900.561 346.534C900.221 346.829 899.825 346.976 899.371 346.976H886.145L885.329 344.086H898.113L897.467 344.698V343.848C897.422 343.055 897.161 342.363 896.685 341.774C896.209 341.162 895.62 340.697 894.917 340.38C894.215 340.04 893.478 339.87 892.707 339.87C892.027 339.87 891.37 339.983 890.735 340.21C890.123 340.414 889.568 340.754 889.069 341.23C888.593 341.706 888.208 342.341 887.913 343.134C887.641 343.905 887.505 344.868 887.505 346.024C887.505 347.271 887.766 348.359 888.287 349.288C888.809 350.217 889.511 350.943 890.395 351.464C891.279 351.963 892.254 352.212 893.319 352.212C894.158 352.212 894.849 352.133 895.393 351.974C895.937 351.793 896.391 351.577 896.753 351.328C897.116 351.079 897.433 350.841 897.705 350.614C898.045 350.41 898.385 350.308 898.725 350.308C899.133 350.308 899.473 350.455 899.745 350.75C900.017 351.022 900.153 351.351 900.153 351.736C900.153 352.235 899.904 352.688 899.405 353.096C898.793 353.685 897.943 354.207 896.855 354.66C895.79 355.113 894.668 355.34 893.489 355.34ZM914.162 336.708C915.772 336.708 917.018 337.048 917.902 337.728C918.786 338.385 919.398 339.281 919.738 340.414C920.101 341.525 920.282 342.771 920.282 344.154V353.266C920.282 353.765 920.112 354.184 919.772 354.524C919.455 354.841 919.058 355 918.582 355C918.084 355 917.676 354.841 917.358 354.524C917.041 354.184 916.882 353.765 916.882 353.266V344.188C916.882 343.372 916.769 342.647 916.542 342.012C916.316 341.355 915.919 340.833 915.352 340.448C914.808 340.04 914.038 339.836 913.04 339.836C912.111 339.836 911.295 340.04 910.592 340.448C909.89 340.833 909.334 341.355 908.926 342.012C908.541 342.647 908.348 343.372 908.348 344.188V353.266C908.348 353.765 908.178 354.184 907.838 354.524C907.521 354.841 907.124 355 906.648 355C906.15 355 905.742 354.841 905.424 354.524C905.107 354.184 904.948 353.765 904.948 353.266V338.85C904.948 338.351 905.107 337.943 905.424 337.626C905.742 337.286 906.15 337.116 906.648 337.116C907.124 337.116 907.521 337.286 907.838 337.626C908.178 337.943 908.348 338.351 908.348 338.85V340.754L907.736 341.094C907.895 340.595 908.167 340.097 908.552 339.598C908.96 339.077 909.448 338.601 910.014 338.17C910.581 337.717 911.216 337.365 911.918 337.116C912.621 336.844 913.369 336.708 914.162 336.708ZM933.333 355.34C931.452 355.34 929.82 354.955 928.437 354.184C927.054 353.391 925.978 352.314 925.207 350.954C924.459 349.571 924.085 347.996 924.085 346.228C924.085 344.233 924.482 342.533 925.275 341.128C926.091 339.7 927.145 338.612 928.437 337.864C929.729 337.093 931.1 336.708 932.551 336.708C933.662 336.708 934.716 336.935 935.713 337.388C936.71 337.819 937.594 338.431 938.365 339.224C939.158 339.995 939.782 340.913 940.235 341.978C940.688 343.021 940.926 344.165 940.949 345.412C940.926 345.865 940.745 346.239 940.405 346.534C940.065 346.829 939.668 346.976 939.215 346.976H925.989L925.173 344.086H937.957L937.311 344.698V343.848C937.266 343.055 937.005 342.363 936.529 341.774C936.053 341.162 935.464 340.697 934.761 340.38C934.058 340.04 933.322 339.87 932.551 339.87C931.871 339.87 931.214 339.983 930.579 340.21C929.967 340.414 929.412 340.754 928.913 341.23C928.437 341.706 928.052 342.341 927.757 343.134C927.485 343.905 927.349 344.868 927.349 346.024C927.349 347.271 927.61 348.359 928.131 349.288C928.652 350.217 929.355 350.943 930.239 351.464C931.123 351.963 932.098 352.212 933.163 352.212C934.002 352.212 934.693 352.133 935.237 351.974C935.781 351.793 936.234 351.577 936.597 351.328C936.96 351.079 937.277 350.841 937.549 350.614C937.889 350.41 938.229 350.308 938.569 350.308C938.977 350.308 939.317 350.455 939.589 350.75C939.861 351.022 939.997 351.351 939.997 351.736C939.997 352.235 939.748 352.688 939.249 353.096C938.637 353.685 937.787 354.207 936.699 354.66C935.634 355.113 934.512 355.34 933.333 355.34ZM953.768 336.81C955.445 336.81 956.737 337.229 957.644 338.068C958.551 338.884 959.151 339.995 959.446 341.4L958.902 341.23L959.14 340.686C959.435 340.097 959.877 339.507 960.466 338.918C961.078 338.306 961.803 337.807 962.642 337.422C963.481 337.014 964.376 336.81 965.328 336.81C966.892 336.81 968.105 337.15 968.966 337.83C969.827 338.487 970.428 339.383 970.768 340.516C971.108 341.627 971.278 342.873 971.278 344.256V353.266C971.278 353.765 971.119 354.184 970.802 354.524C970.485 354.841 970.077 355 969.578 355C969.102 355 968.694 354.841 968.354 354.524C968.037 354.184 967.878 353.765 967.878 353.266V344.29C967.878 343.497 967.765 342.771 967.538 342.114C967.334 341.457 966.96 340.935 966.416 340.55C965.895 340.142 965.169 339.938 964.24 339.938C963.356 339.938 962.563 340.142 961.86 340.55C961.18 340.935 960.647 341.457 960.262 342.114C959.877 342.771 959.684 343.497 959.684 344.29V353.266C959.684 353.765 959.525 354.184 959.208 354.524C958.891 354.841 958.483 355 957.984 355C957.485 355 957.077 354.841 956.76 354.524C956.443 354.184 956.284 353.765 956.284 353.266V344.256C956.284 343.463 956.171 342.737 955.944 342.08C955.74 341.423 955.377 340.901 954.856 340.516C954.335 340.131 953.609 339.938 952.68 339.938C951.796 339.938 951.014 340.131 950.334 340.516C949.654 340.901 949.121 341.423 948.736 342.08C948.373 342.737 948.192 343.463 948.192 344.256V353.266C948.192 353.765 948.022 354.184 947.682 354.524C947.365 354.841 946.968 355 946.492 355C945.993 355 945.585 354.841 945.268 354.524C944.951 354.184 944.792 353.765 944.792 353.266V338.85C944.792 338.351 944.951 337.943 945.268 337.626C945.585 337.286 945.993 337.116 946.492 337.116C946.968 337.116 947.365 337.286 947.682 337.626C948.022 337.943 948.192 338.351 948.192 338.85V340.856L947.546 341.23C947.705 340.731 947.965 340.221 948.328 339.7C948.691 339.179 949.144 338.703 949.688 338.272C950.255 337.841 950.878 337.49 951.558 337.218C952.238 336.946 952.975 336.81 953.768 336.81ZM979.232 353.266C979.232 353.765 979.074 354.184 978.756 354.524C978.439 354.841 978.031 355 977.532 355C977.056 355 976.648 354.841 976.308 354.524C975.991 354.184 975.832 353.765 975.832 353.266V338.714C975.832 338.215 975.991 337.807 976.308 337.49C976.648 337.15 977.056 336.98 977.532 336.98C978.031 336.98 978.439 337.15 978.756 337.49C979.074 337.807 979.232 338.215 979.232 338.714V353.266ZM977.498 334.736C976.841 334.736 976.365 334.623 976.07 334.396C975.776 334.147 975.628 333.739 975.628 333.172V332.628C975.628 332.061 975.787 331.665 976.104 331.438C976.422 331.211 976.898 331.098 977.532 331.098C978.212 331.098 978.7 331.223 978.994 331.472C979.289 331.699 979.436 332.084 979.436 332.628V333.172C979.436 333.761 979.278 334.169 978.96 334.396C978.666 334.623 978.178 334.736 977.498 334.736ZM993.02 336.708C994.629 336.708 995.876 337.048 996.76 337.728C997.644 338.385 998.256 339.281 998.596 340.414C998.958 341.525 999.14 342.771 999.14 344.154V353.266C999.14 353.765 998.97 354.184 998.63 354.524C998.312 354.841 997.916 355 997.44 355C996.941 355 996.533 354.841 996.216 354.524C995.898 354.184 995.74 353.765 995.74 353.266V344.188C995.74 343.372 995.626 342.647 995.4 342.012C995.173 341.355 994.776 340.833 994.21 340.448C993.666 340.04 992.895 339.836 991.898 339.836C990.968 339.836 990.152 340.04 989.45 340.448C988.747 340.833 988.192 341.355 987.784 342.012C987.398 342.647 987.206 343.372 987.206 344.188V353.266C987.206 353.765 987.036 354.184 986.696 354.524C986.378 354.841 985.982 355 985.506 355C985.007 355 984.599 354.841 984.282 354.524C983.964 354.184 983.806 353.765 983.806 353.266V338.85C983.806 338.351 983.964 337.943 984.282 337.626C984.599 337.286 985.007 337.116 985.506 337.116C985.982 337.116 986.378 337.286 986.696 337.626C987.036 337.943 987.206 338.351 987.206 338.85V340.754L986.594 341.094C986.752 340.595 987.024 340.097 987.41 339.598C987.818 339.077 988.305 338.601 988.872 338.17C989.438 337.717 990.073 337.365 990.776 337.116C991.478 336.844 992.226 336.708 993.02 336.708ZM1005.15 354.966C1004.59 354.966 1004.14 354.807 1003.83 354.49C1003.53 354.173 1003.38 353.731 1003.38 353.164V352.552C1003.38 351.985 1003.53 351.543 1003.83 351.226C1004.14 350.909 1004.59 350.75 1005.15 350.75H1005.53C1006.09 350.75 1006.52 350.909 1006.82 351.226C1007.11 351.543 1007.26 351.985 1007.26 352.552V353.164C1007.26 353.731 1007.11 354.173 1006.82 354.49C1006.52 354.807 1006.09 354.966 1005.53 354.966H1005.15ZM1021.93 331.2C1023.59 331.2 1025.05 331.517 1026.32 332.152C1027.59 332.764 1028.64 333.625 1029.48 334.736C1030.34 335.824 1030.99 337.093 1031.42 338.544C1031.85 339.972 1032.07 341.491 1032.07 343.1C1032.07 345.299 1031.68 347.305 1030.91 349.118C1030.14 350.909 1029.01 352.337 1027.51 353.402C1026.01 354.467 1024.16 355 1021.93 355H1013.64C1013.16 355 1012.75 354.841 1012.41 354.524C1012.07 354.184 1011.9 353.765 1011.9 353.266V332.934C1011.9 332.435 1012.07 332.027 1012.41 331.71C1012.75 331.37 1013.16 331.2 1013.64 331.2H1021.93ZM1021.59 351.736C1023.2 351.736 1024.51 351.339 1025.5 350.546C1026.5 349.753 1027.23 348.71 1027.68 347.418C1028.16 346.103 1028.39 344.664 1028.39 343.1C1028.39 341.944 1028.26 340.856 1027.99 339.836C1027.74 338.793 1027.33 337.875 1026.76 337.082C1026.22 336.266 1025.52 335.631 1024.65 335.178C1023.82 334.702 1022.8 334.464 1021.59 334.464H1015.17L1015.47 334.158V352.076L1015.27 351.736H1021.59ZM1037.84 355C1037.36 355 1036.96 354.841 1036.62 354.524C1036.3 354.184 1036.14 353.765 1036.14 353.266V331.574C1036.14 331.075 1036.3 330.667 1036.62 330.35C1036.96 330.01 1037.36 329.84 1037.84 329.84C1038.34 329.84 1038.75 330.01 1039.06 330.35C1039.38 330.667 1039.54 331.075 1039.54 331.574V353.266C1039.54 353.765 1039.38 354.184 1039.06 354.524C1038.75 354.841 1038.34 355 1037.84 355ZM1048.92 337.048C1049.35 337.048 1049.73 337.229 1050.05 337.592C1050.36 337.955 1050.52 338.317 1050.52 338.68C1050.52 339.133 1050.31 339.553 1049.88 339.938L1039.23 349.458L1039.1 345.548L1047.67 337.592C1048.03 337.229 1048.45 337.048 1048.92 337.048ZM1049.33 354.966C1048.86 354.966 1048.45 354.773 1048.11 354.388L1041.31 347.214L1043.89 344.834L1050.52 352.008C1050.88 352.393 1051.07 352.824 1051.07 353.3C1051.07 353.799 1050.86 354.207 1050.45 354.524C1050.07 354.819 1049.69 354.966 1049.33 354.966ZM1054.76 359.488C1054.42 359.488 1054.08 359.352 1053.74 359.08C1053.4 358.808 1053.23 358.468 1053.23 358.06C1053.23 357.811 1053.3 357.573 1053.43 357.346L1067.54 328.752C1067.7 328.435 1067.89 328.197 1068.12 328.038C1068.37 327.879 1068.64 327.8 1068.94 327.8C1069.25 327.8 1069.57 327.925 1069.89 328.174C1070.23 328.423 1070.4 328.775 1070.4 329.228C1070.4 329.477 1070.34 329.727 1070.23 329.976L1056.12 358.57C1055.96 358.865 1055.77 359.091 1055.54 359.25C1055.31 359.409 1055.05 359.488 1054.76 359.488ZM1081.3 355.34C1079.67 355.34 1078.22 355.113 1076.95 354.66C1075.68 354.207 1074.47 353.459 1073.31 352.416C1073.06 352.235 1072.87 352.019 1072.74 351.77C1072.62 351.498 1072.57 351.226 1072.57 350.954C1072.57 350.523 1072.72 350.138 1073.04 349.798C1073.36 349.458 1073.76 349.288 1074.23 349.288C1074.59 349.288 1074.93 349.413 1075.25 349.662C1076.11 350.455 1077.01 351.056 1077.94 351.464C1078.89 351.872 1080 352.076 1081.27 352.076C1082.18 352.076 1083 351.929 1083.75 351.634C1084.52 351.339 1085.13 350.943 1085.59 350.444C1086.04 349.945 1086.27 349.367 1086.27 348.71C1086.27 347.894 1086.03 347.225 1085.55 346.704C1085.1 346.16 1084.43 345.718 1083.55 345.378C1082.69 345.015 1081.64 344.709 1080.42 344.46C1079.29 344.256 1078.27 343.973 1077.36 343.61C1076.48 343.247 1075.72 342.794 1075.08 342.25C1074.45 341.683 1073.96 341.015 1073.62 340.244C1073.28 339.473 1073.11 338.578 1073.11 337.558C1073.11 336.175 1073.47 334.985 1074.2 333.988C1074.92 332.991 1075.91 332.22 1077.16 331.676C1078.4 331.132 1079.81 330.86 1081.37 330.86C1082.8 330.86 1084.14 331.087 1085.38 331.54C1086.63 331.971 1087.64 332.56 1088.41 333.308C1088.95 333.784 1089.23 334.294 1089.23 334.838C1089.23 335.246 1089.06 335.631 1088.72 335.994C1088.4 336.334 1088.02 336.504 1087.59 336.504C1087.28 336.504 1087 336.413 1086.78 336.232C1086.42 335.847 1085.93 335.507 1085.32 335.212C1084.7 334.895 1084.05 334.634 1083.34 334.43C1082.66 334.226 1082.01 334.124 1081.37 334.124C1080.35 334.124 1079.48 334.271 1078.75 334.566C1078.03 334.838 1077.47 335.223 1077.09 335.722C1076.7 336.198 1076.51 336.765 1076.51 337.422C1076.51 338.193 1076.73 338.827 1077.16 339.326C1077.61 339.825 1078.23 340.233 1079.03 340.55C1079.82 340.845 1080.73 341.117 1081.75 341.366C1082.99 341.638 1084.1 341.944 1085.08 342.284C1086.08 342.624 1086.91 343.066 1087.59 343.61C1088.27 344.131 1088.8 344.789 1089.16 345.582C1089.52 346.375 1089.7 347.361 1089.7 348.54C1089.7 349.9 1089.32 351.09 1088.55 352.11C1087.78 353.13 1086.76 353.923 1085.49 354.49C1084.24 355.057 1082.85 355.34 1081.3 355.34ZM1102.72 336.708C1104.33 336.708 1105.58 337.048 1106.46 337.728C1107.35 338.385 1107.96 339.281 1108.3 340.414C1108.66 341.525 1108.84 342.771 1108.84 344.154V353.266C1108.84 353.765 1108.67 354.184 1108.33 354.524C1108.02 354.841 1107.62 355 1107.14 355C1106.64 355 1106.24 354.841 1105.92 354.524C1105.6 354.184 1105.44 353.765 1105.44 353.266V344.188C1105.44 343.372 1105.33 342.647 1105.1 342.012C1104.88 341.355 1104.48 340.833 1103.91 340.448C1103.37 340.04 1102.6 339.836 1101.6 339.836C1100.67 339.836 1099.86 340.04 1099.15 340.448C1098.45 340.833 1097.89 341.355 1097.49 342.012C1097.1 342.647 1096.91 343.372 1096.91 344.188V353.266C1096.91 353.765 1096.74 354.184 1096.4 354.524C1096.08 354.841 1095.68 355 1095.21 355C1094.71 355 1094.3 354.841 1093.98 354.524C1093.67 354.184 1093.51 353.765 1093.51 353.266V338.85C1093.51 338.351 1093.67 337.943 1093.98 337.626C1094.3 337.286 1094.71 337.116 1095.21 337.116C1095.68 337.116 1096.08 337.286 1096.4 337.626C1096.74 337.943 1096.91 338.351 1096.91 338.85V340.754L1096.3 341.094C1096.46 340.595 1096.73 340.097 1097.11 339.598C1097.52 339.077 1098.01 338.601 1098.57 338.17C1099.14 337.717 1099.78 337.365 1100.48 337.116C1101.18 336.844 1101.93 336.708 1102.72 336.708ZM1128.22 336.844C1128.72 336.844 1129.12 337.014 1129.44 337.354C1129.76 337.671 1129.92 338.079 1129.92 338.578V353.266C1129.92 353.765 1129.76 354.184 1129.44 354.524C1129.12 354.841 1128.72 355 1128.22 355C1127.74 355 1127.33 354.841 1126.99 354.524C1126.68 354.184 1126.52 353.765 1126.52 353.266V350.818L1127.23 350.92C1127.23 351.328 1127.06 351.781 1126.72 352.28C1126.4 352.779 1125.96 353.266 1125.4 353.742C1124.83 354.195 1124.16 354.581 1123.39 354.898C1122.62 355.193 1121.79 355.34 1120.91 355.34C1119.34 355.34 1117.94 354.943 1116.69 354.15C1115.44 353.334 1114.46 352.223 1113.73 350.818C1113.01 349.413 1112.65 347.815 1112.65 346.024C1112.65 344.188 1113.01 342.579 1113.73 341.196C1114.46 339.791 1115.43 338.691 1116.66 337.898C1117.9 337.105 1119.29 336.708 1120.81 336.708C1121.78 336.708 1122.68 336.867 1123.49 337.184C1124.33 337.501 1125.06 337.909 1125.67 338.408C1126.28 338.907 1126.74 339.439 1127.06 340.006C1127.4 340.55 1127.57 341.071 1127.57 341.57L1126.52 341.672V338.578C1126.52 338.102 1126.68 337.694 1126.99 337.354C1127.33 337.014 1127.74 336.844 1128.22 336.844ZM1121.28 352.212C1122.35 352.212 1123.29 351.94 1124.1 351.396C1124.92 350.852 1125.55 350.115 1126.01 349.186C1126.46 348.234 1126.69 347.18 1126.69 346.024C1126.69 344.845 1126.46 343.791 1126.01 342.862C1125.55 341.933 1124.92 341.196 1124.1 340.652C1123.29 340.108 1122.35 339.836 1121.28 339.836C1120.24 339.836 1119.31 340.108 1118.49 340.652C1117.7 341.196 1117.07 341.933 1116.59 342.862C1116.14 343.791 1115.91 344.845 1115.91 346.024C1115.91 347.18 1116.14 348.234 1116.59 349.186C1117.07 350.115 1117.7 350.852 1118.49 351.396C1119.31 351.94 1120.24 352.212 1121.28 352.212ZM1137.88 353.266C1137.88 353.765 1137.72 354.184 1137.4 354.524C1137.08 354.841 1136.68 355 1136.18 355C1135.7 355 1135.29 354.841 1134.95 354.524C1134.64 354.184 1134.48 353.765 1134.48 353.266V338.714C1134.48 338.215 1134.64 337.807 1134.95 337.49C1135.29 337.15 1135.7 336.98 1136.18 336.98C1136.68 336.98 1137.08 337.15 1137.4 337.49C1137.72 337.807 1137.88 338.215 1137.88 338.714V353.266ZM1136.14 334.736C1135.49 334.736 1135.01 334.623 1134.71 334.396C1134.42 334.147 1134.27 333.739 1134.27 333.172V332.628C1134.27 332.061 1134.43 331.665 1134.75 331.438C1135.07 331.211 1135.54 331.098 1136.18 331.098C1136.86 331.098 1137.34 331.223 1137.64 331.472C1137.93 331.699 1138.08 332.084 1138.08 332.628V333.172C1138.08 333.761 1137.92 334.169 1137.6 334.396C1137.31 334.623 1136.82 334.736 1136.14 334.736ZM1146.12 353.266C1146.12 353.765 1145.95 354.184 1145.61 354.524C1145.29 354.841 1144.9 355 1144.42 355C1143.95 355 1143.54 354.841 1143.2 354.524C1142.88 354.184 1142.72 353.765 1142.72 353.266V331.574C1142.72 331.075 1142.89 330.667 1143.23 330.35C1143.57 330.01 1143.98 329.84 1144.46 329.84C1144.95 329.84 1145.35 330.01 1145.65 330.35C1145.96 330.667 1146.12 331.075 1146.12 331.574V353.266ZM1152.3 346.194C1151.83 346.194 1151.42 346.035 1151.08 345.718C1150.76 345.378 1150.6 344.97 1150.6 344.494C1150.6 343.995 1150.76 343.599 1151.08 343.304C1151.42 342.987 1151.83 342.828 1152.3 342.828H1158.7C1159.17 342.828 1159.58 342.998 1159.92 343.338C1160.26 343.655 1160.43 344.063 1160.43 344.562C1160.43 345.015 1160.26 345.401 1159.92 345.718C1159.58 346.035 1159.17 346.194 1158.7 346.194H1152.3ZM1173.44 335.62L1165.79 353.98C1165.65 354.343 1165.45 354.626 1165.18 354.83C1164.9 355.034 1164.6 355.136 1164.26 355.136C1163.76 355.136 1163.38 355 1163.14 354.728C1162.89 354.433 1162.75 354.071 1162.73 353.64C1162.73 353.481 1162.76 353.3 1162.83 353.096L1171.47 332.22C1171.62 331.835 1171.85 331.54 1172.15 331.336C1172.46 331.132 1172.8 331.041 1173.17 331.064C1173.51 331.064 1173.82 331.166 1174.12 331.37C1174.41 331.574 1174.63 331.857 1174.76 332.22L1183.3 352.79C1183.39 353.017 1183.43 353.243 1183.43 353.47C1183.43 353.969 1183.26 354.377 1182.92 354.694C1182.61 354.989 1182.24 355.136 1181.84 355.136C1181.5 355.136 1181.18 355.034 1180.88 354.83C1180.61 354.603 1180.41 354.32 1180.27 353.98L1172.55 335.722L1173.44 335.62ZM1167.15 349.152L1168.68 345.888H1178.3L1178.88 349.152H1167.15ZM1185.97 337.32H1193.96C1194.42 337.32 1194.79 337.479 1195.09 337.796C1195.4 338.091 1195.56 338.465 1195.56 338.918C1195.56 339.349 1195.4 339.711 1195.09 340.006C1194.79 340.301 1194.42 340.448 1193.96 340.448H1185.97C1185.52 340.448 1185.14 340.301 1184.82 340.006C1184.52 339.689 1184.38 339.315 1184.38 338.884C1184.38 338.431 1184.52 338.057 1184.82 337.762C1185.14 337.467 1185.52 337.32 1185.97 337.32ZM1189.54 332.9C1190.04 332.9 1190.45 333.07 1190.77 333.41C1191.09 333.727 1191.24 334.135 1191.24 334.634V350.41C1191.24 350.818 1191.31 351.147 1191.45 351.396C1191.58 351.645 1191.77 351.815 1191.99 351.906C1192.24 351.997 1192.49 352.042 1192.74 352.042C1192.99 352.042 1193.2 351.997 1193.39 351.906C1193.59 351.815 1193.83 351.77 1194.1 351.77C1194.37 351.77 1194.62 351.895 1194.85 352.144C1195.07 352.393 1195.19 352.733 1195.19 353.164C1195.19 353.708 1194.89 354.15 1194.3 354.49C1193.71 354.83 1193.08 355 1192.4 355C1192.01 355 1191.56 354.966 1191.04 354.898C1190.52 354.83 1190.01 354.66 1189.51 354.388C1189.03 354.116 1188.64 353.685 1188.32 353.096C1188 352.484 1187.84 351.634 1187.84 350.546V334.634C1187.84 334.135 1188 333.727 1188.32 333.41C1188.66 333.07 1189.07 332.9 1189.54 332.9ZM1199.09 337.32H1207.08C1207.53 337.32 1207.91 337.479 1208.2 337.796C1208.52 338.091 1208.68 338.465 1208.68 338.918C1208.68 339.349 1208.52 339.711 1208.2 340.006C1207.91 340.301 1207.53 340.448 1207.08 340.448H1199.09C1198.64 340.448 1198.25 340.301 1197.93 340.006C1197.64 339.689 1197.49 339.315 1197.49 338.884C1197.49 338.431 1197.64 338.057 1197.93 337.762C1198.25 337.467 1198.64 337.32 1199.09 337.32ZM1202.66 332.9C1203.16 332.9 1203.57 333.07 1203.88 333.41C1204.2 333.727 1204.36 334.135 1204.36 334.634V350.41C1204.36 350.818 1204.43 351.147 1204.56 351.396C1204.7 351.645 1204.88 351.815 1205.11 351.906C1205.36 351.997 1205.61 352.042 1205.86 352.042C1206.1 352.042 1206.32 351.997 1206.5 351.906C1206.71 351.815 1206.94 351.77 1207.22 351.77C1207.49 351.77 1207.74 351.895 1207.96 352.144C1208.19 352.393 1208.3 352.733 1208.3 353.164C1208.3 353.708 1208.01 354.15 1207.42 354.49C1206.83 354.83 1206.2 355 1205.52 355C1205.13 355 1204.68 354.966 1204.16 354.898C1203.63 354.83 1203.12 354.66 1202.63 354.388C1202.15 354.116 1201.75 353.685 1201.44 353.096C1201.12 352.484 1200.96 351.634 1200.96 350.546V334.634C1200.96 334.135 1201.12 333.727 1201.44 333.41C1201.78 333.07 1202.18 332.9 1202.66 332.9ZM1227.1 336.844C1227.6 336.844 1228 337.014 1228.32 337.354C1228.64 337.671 1228.8 338.079 1228.8 338.578V353.266C1228.8 353.765 1228.64 354.184 1228.32 354.524C1228 354.841 1227.6 355 1227.1 355C1226.62 355 1226.21 354.841 1225.87 354.524C1225.56 354.184 1225.4 353.765 1225.4 353.266V350.818L1226.11 350.92C1226.11 351.328 1225.94 351.781 1225.6 352.28C1225.28 352.779 1224.84 353.266 1224.27 353.742C1223.71 354.195 1223.04 354.581 1222.27 354.898C1221.5 355.193 1220.67 355.34 1219.79 355.34C1218.22 355.34 1216.82 354.943 1215.57 354.15C1214.32 353.334 1213.34 352.223 1212.61 350.818C1211.89 349.413 1211.52 347.815 1211.52 346.024C1211.52 344.188 1211.89 342.579 1212.61 341.196C1213.34 339.791 1214.31 338.691 1215.54 337.898C1216.78 337.105 1218.17 336.708 1219.68 336.708C1220.66 336.708 1221.55 336.867 1222.37 337.184C1223.21 337.501 1223.93 337.909 1224.55 338.408C1225.16 338.907 1225.62 339.439 1225.94 340.006C1226.28 340.55 1226.45 341.071 1226.45 341.57L1225.4 341.672V338.578C1225.4 338.102 1225.56 337.694 1225.87 337.354C1226.21 337.014 1226.62 336.844 1227.1 336.844ZM1220.16 352.212C1221.23 352.212 1222.17 351.94 1222.98 351.396C1223.8 350.852 1224.43 350.115 1224.89 349.186C1225.34 348.234 1225.57 347.18 1225.57 346.024C1225.57 344.845 1225.34 343.791 1224.89 342.862C1224.43 341.933 1223.8 341.196 1222.98 340.652C1222.17 340.108 1221.23 339.836 1220.16 339.836C1219.12 339.836 1218.19 340.108 1217.37 340.652C1216.58 341.196 1215.94 341.933 1215.47 342.862C1215.02 343.791 1214.79 344.845 1214.79 346.024C1214.79 347.18 1215.02 348.234 1215.47 349.186C1215.94 350.115 1216.58 350.852 1217.37 351.396C1218.19 351.94 1219.12 352.212 1220.16 352.212ZM1241.48 336.708C1242.71 336.708 1243.79 336.844 1244.75 337.116C1245.7 337.365 1246.43 337.728 1246.96 338.204C1247.5 338.657 1247.77 339.19 1247.77 339.802C1247.77 340.187 1247.66 340.55 1247.43 340.89C1247.21 341.207 1246.87 341.366 1246.41 341.366C1246.09 341.366 1245.82 341.309 1245.6 341.196C1245.39 341.083 1245.2 340.947 1245.02 340.788C1244.84 340.629 1244.61 340.471 1244.34 340.312C1244.09 340.176 1243.71 340.063 1243.22 339.972C1242.74 339.881 1242.31 339.836 1241.92 339.836C1240.72 339.836 1239.68 340.108 1238.8 340.652C1237.93 341.196 1237.25 341.933 1236.76 342.862C1236.28 343.791 1236.04 344.845 1236.04 346.024C1236.04 347.203 1236.28 348.257 1236.76 349.186C1237.25 350.115 1237.92 350.852 1238.76 351.396C1239.62 351.94 1240.62 352.212 1241.75 352.212C1242.43 352.212 1242.99 352.167 1243.42 352.076C1243.85 351.963 1244.22 351.827 1244.54 351.668C1244.88 351.464 1245.17 351.26 1245.39 351.056C1245.64 350.829 1245.98 350.716 1246.41 350.716C1246.91 350.716 1247.28 350.875 1247.53 351.192C1247.81 351.487 1247.94 351.861 1247.94 352.314C1247.94 352.813 1247.64 353.3 1247.02 353.776C1246.43 354.229 1245.64 354.603 1244.64 354.898C1243.65 355.193 1242.55 355.34 1241.35 355.34C1239.58 355.34 1238.04 354.932 1236.72 354.116C1235.43 353.3 1234.42 352.189 1233.7 350.784C1232.99 349.379 1232.64 347.792 1232.64 346.024C1232.64 344.233 1233.02 342.647 1233.76 341.264C1234.51 339.859 1235.55 338.748 1236.89 337.932C1238.23 337.116 1239.76 336.708 1241.48 336.708ZM1253.16 355C1252.69 355 1252.28 354.841 1251.94 354.524C1251.62 354.184 1251.46 353.765 1251.46 353.266V331.574C1251.46 331.075 1251.62 330.667 1251.94 330.35C1252.28 330.01 1252.69 329.84 1253.16 329.84C1253.66 329.84 1254.07 330.01 1254.39 330.35C1254.7 330.667 1254.86 331.075 1254.86 331.574V353.266C1254.86 353.765 1254.7 354.184 1254.39 354.524C1254.07 354.841 1253.66 355 1253.16 355ZM1264.25 337.048C1264.68 337.048 1265.05 337.229 1265.37 337.592C1265.69 337.955 1265.84 338.317 1265.84 338.68C1265.84 339.133 1265.63 339.553 1265.2 339.938L1254.56 349.458L1254.42 345.548L1262.99 337.592C1263.35 337.229 1263.77 337.048 1264.25 337.048ZM1264.65 354.966C1264.18 354.966 1263.77 354.773 1263.43 354.388L1256.63 347.214L1259.21 344.834L1265.84 352.008C1266.21 352.393 1266.39 352.824 1266.39 353.3C1266.39 353.799 1266.18 354.207 1265.78 354.524C1265.39 354.819 1265.02 354.966 1264.65 354.966ZM1270.08 359.488C1269.74 359.488 1269.4 359.352 1269.06 359.08C1268.72 358.808 1268.55 358.468 1268.55 358.06C1268.55 357.811 1268.62 357.573 1268.76 357.346L1282.87 328.752C1283.02 328.435 1283.22 328.197 1283.44 328.038C1283.69 327.879 1283.96 327.8 1284.26 327.8C1284.58 327.8 1284.89 327.925 1285.21 328.174C1285.55 328.423 1285.72 328.775 1285.72 329.228C1285.72 329.477 1285.66 329.727 1285.55 329.976L1271.44 358.57C1271.28 358.865 1271.09 359.091 1270.86 359.25C1270.64 359.409 1270.38 359.488 1270.08 359.488Z" fill="black"/>
</svg>
