<svg width="773" height="172" viewBox="0 0 773 172" fill="none" xmlns="http://www.w3.org/2000/svg">
<path d="M54.8044 124.886C29.0704 96.0738 33.7029 54.5804 65.1513 32.2083C96.5997 9.8361 142.955 15.057 168.689 43.8696C194.423 72.6821 189.79 114.176 158.342 136.548C126.894 158.92 80.5383 153.699 54.8044 124.886Z" fill="#FCD993"/>
<path d="M95.4273 104.285C70.6247 76.5147 75.6075 36.1545 106.557 14.1375C137.506 -7.87959 182.702 -3.21604 207.504 24.5538C232.307 52.3236 227.324 92.6838 196.375 114.701C165.426 136.718 120.23 132.054 95.4273 104.285Z" fill="#FFFBF5"/>
<path d="M118.187 40.2467C119.079 40.3411 121.32 40.606 123.634 42.3001C124.487 42.9245 125.813 43.9195 126.8 45.852C127.839 47.8853 127.903 49.7793 127.912 50.2178C127.92 50.6744 127.928 52.7831 126.777 55.0407C125.668 57.2154 124.113 58.292 123.095 58.9783C122.617 59.3003 120.25 60.8449 116.852 60.9542C115.819 60.9872 113.296 61.0342 110.618 59.4128C109.675 58.8423 107.946 57.7628 106.731 55.4568C106.395 54.8176 105.567 53.2014 105.54 50.8953C105.534 50.332 105.56 48.5522 106.465 46.5957C107.114 45.19 107.917 44.3398 108.428 43.8095C109.818 42.3638 111.216 41.7051 112.123 41.2897C113.297 40.7506 114.239 40.5272 114.533 40.4613C115.227 40.3058 116.55 40.077 118.187 40.2493L118.187 40.2467Z" fill="#FFD278" fill-opacity="0.78" stroke="white" stroke-width="0.25" stroke-linecap="round" stroke-linejoin="round"/>
<path d="M138.427 98.2403C138.679 98.2404 138.889 98.3245 139.057 98.4926C139.237 98.6607 139.327 98.8707 139.327 99.1227C139.326 99.3747 139.236 99.5847 139.056 99.7526C138.888 99.9205 138.678 100.004 138.426 100.004L132.378 100.001C132.114 100.001 131.892 99.9169 131.712 99.7489C131.544 99.5688 131.46 99.3467 131.461 99.0827L131.466 88.3187C131.466 88.0547 131.556 87.8388 131.736 87.6709C131.916 87.491 132.15 87.4011 132.438 87.4012C132.678 87.4014 132.888 87.4915 133.068 87.6716C133.26 87.8396 133.356 88.0557 133.356 88.3197L133.351 98.5437L132.973 98.2375L138.427 98.2403ZM142.886 99.0885C142.886 99.3525 142.802 99.5745 142.634 99.7544C142.466 99.9223 142.25 100.006 141.986 100.006C141.734 100.006 141.518 99.9218 141.338 99.7538C141.17 99.5737 141.086 99.3516 141.086 99.0876L141.09 91.3836C141.09 91.1196 141.174 90.9037 141.342 90.7358C141.523 90.5558 141.739 90.466 141.991 90.4661C142.255 90.4662 142.471 90.5563 142.638 90.7364C142.806 90.9045 142.89 91.1205 142.89 91.3845L142.886 99.0885ZM141.973 89.2781C141.625 89.2779 141.373 89.2178 141.217 89.0977C141.061 88.9656 140.983 88.7496 140.984 88.4496L140.984 88.1616C140.984 87.8616 141.068 87.6516 141.236 87.5317C141.404 87.4118 141.656 87.3519 141.992 87.3521C142.352 87.3523 142.61 87.4184 142.766 87.5505C142.922 87.6706 143 87.8746 143 88.1626L143 88.4506C142.999 88.7626 142.915 88.9786 142.747 89.0985C142.591 89.2184 142.333 89.2783 141.973 89.2781ZM150.19 90.3263C151.042 90.3267 151.702 90.507 152.17 90.8673C152.637 91.2155 152.961 91.6897 153.141 92.2898C153.333 92.8778 153.428 93.5379 153.428 94.2699L153.425 99.0939C153.425 99.3579 153.335 99.5798 153.155 99.7598C152.987 99.9277 152.777 100.012 152.525 100.011C152.261 100.011 152.045 99.9272 151.877 99.7591C151.709 99.579 151.625 99.357 151.625 99.093L151.628 94.287C151.628 93.855 151.568 93.471 151.448 93.1349C151.329 92.7868 151.119 92.5107 150.819 92.3066C150.531 92.0904 150.123 91.9822 149.595 91.9819C149.103 91.9817 148.671 92.0895 148.299 92.3053C147.927 92.5091 147.633 92.785 147.416 93.1328C147.212 93.4687 147.11 93.8527 147.11 94.2847L147.107 99.0907C147.107 99.3547 147.017 99.5766 146.837 99.7565C146.669 99.9245 146.459 100.008 146.207 100.008C145.943 100.008 145.727 99.924 145.559 99.7559C145.391 99.5758 145.307 99.3538 145.307 99.0898L145.311 91.4578C145.311 91.1938 145.396 90.9778 145.564 90.8099C145.732 90.63 145.948 90.5401 146.212 90.5402C146.464 90.5404 146.674 90.6305 146.842 90.8106C147.022 90.9786 147.111 91.1947 147.111 91.4587L147.111 92.4667L146.787 92.6465C146.871 92.3826 147.015 92.1186 147.219 91.8547C147.435 91.5789 147.693 91.327 147.994 91.0991C148.294 90.8593 148.63 90.6735 149.002 90.5416C149.374 90.3978 149.77 90.326 150.19 90.3263ZM156.968 100.014C156.716 100.014 156.5 99.9295 156.32 99.7614C156.152 99.5813 156.069 99.3592 156.069 99.0952L156.074 87.6112C156.075 87.3472 156.159 87.1313 156.327 86.9634C156.507 86.7835 156.723 86.6936 156.975 86.6937C157.239 86.6938 157.455 86.7839 157.623 86.964C157.791 87.1321 157.875 87.3482 157.874 87.6122L157.869 99.0962C157.869 99.3602 157.784 99.5821 157.616 99.762C157.448 99.9299 157.232 100.014 156.968 100.014ZM162.841 90.5127C163.069 90.5128 163.267 90.6089 163.435 90.801C163.603 90.9931 163.687 91.1851 163.687 91.3771C163.686 91.6171 163.572 91.8391 163.344 92.0429L157.708 97.0801L157.637 95.01L162.175 90.8003C162.367 90.6084 162.589 90.5126 162.841 90.5127ZM163.052 99.9988C162.8 99.9987 162.584 99.8965 162.404 99.6925L158.806 95.8926L160.175 94.6333L163.683 98.4331C163.875 98.6372 163.971 98.8653 163.971 99.1173C163.971 99.3813 163.862 99.5972 163.646 99.7651C163.442 99.921 163.244 99.9989 163.052 99.9988ZM175.273 100.023C174.985 100.023 174.751 99.9387 174.571 99.7706C174.403 99.5906 174.319 99.3685 174.32 99.1045L174.325 88.3225L176.251 88.3235L176.246 99.1055C176.245 99.3695 176.149 99.5914 175.957 99.7713C175.777 99.9393 175.549 100.023 175.273 100.023ZM171.193 89.1489C170.941 89.1488 170.725 89.0707 170.545 88.9146C170.365 88.7465 170.275 88.5305 170.275 88.2665C170.275 88.0145 170.365 87.8105 170.545 87.6546C170.725 87.4987 170.941 87.4208 171.193 87.4209L179.383 87.4251C179.635 87.4252 179.845 87.5093 180.013 87.6774C180.193 87.8335 180.283 88.0375 180.283 88.2895C180.283 88.5535 180.193 88.7635 180.013 88.9194C179.845 89.0753 179.635 89.1532 179.383 89.1531L171.193 89.1489ZM183.808 99.1093C183.808 99.3733 183.724 99.5953 183.556 99.7752C183.388 99.9431 183.172 100.027 182.908 100.027C182.656 100.027 182.44 99.9426 182.26 99.7745C182.092 99.5945 182.008 99.3724 182.008 99.1084L182.012 91.4044C182.012 91.1404 182.096 90.9245 182.264 90.7566C182.444 90.5766 182.66 90.4868 182.912 90.4869C183.176 90.487 183.392 90.5771 183.56 90.7572C183.728 90.9253 183.812 91.1413 183.812 91.4053L183.808 99.1093ZM182.895 89.2989C182.547 89.2987 182.295 89.2386 182.139 89.1185C181.983 88.9864 181.905 88.7704 181.905 88.4704L181.906 88.1824C181.906 87.8824 181.99 87.6724 182.158 87.5525C182.326 87.4326 182.578 87.3727 182.914 87.3729C183.274 87.3731 183.532 87.4392 183.688 87.5713C183.844 87.6914 183.922 87.8954 183.922 88.1834L183.921 88.4714C183.921 88.7834 183.837 88.9994 183.669 89.1193C183.513 89.2392 183.255 89.2991 182.895 89.2989ZM188.173 99.1116C188.173 99.3756 188.083 99.5975 187.903 99.7774C187.735 99.9453 187.525 100.029 187.273 100.029C187.021 100.029 186.805 99.9449 186.625 99.7768C186.457 99.5967 186.373 99.3746 186.373 99.1106L186.379 87.6266C186.379 87.3626 186.469 87.1467 186.649 86.9788C186.83 86.7989 187.046 86.709 187.298 86.7091C187.562 86.7092 187.772 86.7994 187.927 86.9794C188.095 87.1475 188.179 87.3636 188.179 87.6276L188.173 99.1116ZM197.038 87.4341C197.278 87.4342 197.488 87.5243 197.668 87.7044C197.86 87.8725 197.956 88.0885 197.956 88.3525L197.95 99.1165C197.938 99.3805 197.836 99.6025 197.644 99.7824C197.464 99.9503 197.248 100.034 196.996 100.034C196.72 100.034 196.492 99.9498 196.312 99.7817C196.144 99.6016 196.06 99.3796 196.06 99.1156L196.066 88.3516C196.066 88.0876 196.156 87.8716 196.336 87.7037C196.516 87.5238 196.75 87.4339 197.038 87.4341ZM205.156 87.4382C205.444 87.4383 205.672 87.5285 205.84 87.7085C206.008 87.8766 206.092 88.0927 206.092 88.3567L206.086 99.1207C206.086 99.3847 205.996 99.6066 205.816 99.7865C205.648 99.9544 205.42 100.038 205.132 100.038C204.88 100.038 204.664 99.9539 204.484 99.7858C204.304 99.6058 204.214 99.3837 204.214 99.1197L204.22 88.3557C204.22 88.0917 204.31 87.8758 204.49 87.7078C204.682 87.5279 204.904 87.4381 205.156 87.4382ZM196.963 92.798L205.171 92.8022L205.152 94.5302L196.944 94.526L196.963 92.798ZM210.851 100.437C210.851 101.085 210.718 101.643 210.454 102.111C210.19 102.579 209.842 102.939 209.41 103.19C208.977 103.442 208.515 103.568 208.023 103.568C207.771 103.568 207.567 103.483 207.411 103.315C207.256 103.159 207.178 102.967 207.178 102.739L207.178 102.577C207.178 102.361 207.256 102.187 207.412 102.055C207.556 101.923 207.736 101.821 207.952 101.75C208.228 101.666 208.444 101.54 208.6 101.372C208.769 101.216 208.883 101.012 208.943 100.76C209.015 100.52 209.051 100.256 209.051 99.9682L209.056 91.4722C209.056 91.2202 209.14 91.0102 209.308 90.8423C209.476 90.6624 209.692 90.5725 209.956 90.5726C210.22 90.5728 210.436 90.6629 210.604 90.843C210.772 91.011 210.856 91.2211 210.856 91.4731L210.851 100.437ZM209.921 89.3126C209.573 89.3124 209.321 89.2523 209.165 89.1322C209.009 89.0001 208.931 88.7841 208.931 88.4841L208.931 88.1961C208.931 87.8961 209.015 87.6861 209.184 87.5662C209.352 87.4463 209.604 87.3864 209.94 87.3866C210.3 87.3868 210.558 87.4529 210.713 87.585C210.869 87.7051 210.947 87.9091 210.947 88.1971L210.947 88.4851C210.947 88.7971 210.863 89.0131 210.695 89.133C210.539 89.2529 210.281 89.3128 209.921 89.3126ZM218.131 100.225C217.135 100.224 216.271 100.02 215.539 99.6115C214.807 99.1911 214.238 98.6208 213.83 97.9006C213.434 97.1684 213.237 96.3343 213.237 95.3983C213.238 94.3423 213.448 93.4424 213.869 92.6986C214.301 91.9428 214.859 91.3671 215.544 90.9715C216.228 90.5638 216.954 90.3602 217.722 90.3606C218.31 90.3609 218.868 90.4812 219.396 90.7214C219.924 90.9497 220.391 91.2739 220.799 91.6941C221.219 92.1024 221.549 92.5885 221.789 93.1526C222.028 93.7048 222.154 94.3108 222.166 94.9708C222.153 95.2108 222.057 95.4088 221.877 95.5647C221.697 95.7206 221.487 95.7985 221.247 95.7984L214.245 95.7948L213.814 94.2646L220.582 94.268L220.24 94.5919L220.24 94.1419C220.216 93.7218 220.078 93.3558 219.827 93.0436C219.575 92.7195 219.263 92.4734 218.891 92.3052C218.519 92.125 218.129 92.0348 217.721 92.0346C217.361 92.0344 217.013 92.0942 216.677 92.214C216.353 92.3219 216.059 92.5017 215.795 92.7536C215.543 93.0055 215.338 93.3414 215.182 93.7613C215.038 94.1692 214.966 94.6792 214.965 95.2912C214.965 95.9512 215.103 96.5272 215.379 97.0194C215.654 97.5115 216.026 97.8957 216.494 98.1719C216.962 98.4362 217.478 98.5684 218.042 98.5687C218.486 98.569 218.852 98.5271 219.14 98.4433C219.428 98.3474 219.668 98.2336 219.86 98.1017C220.052 97.9698 220.22 97.8438 220.364 97.7239C220.544 97.616 220.724 97.5621 220.904 97.5622C221.12 97.5623 221.3 97.6404 221.444 97.7965C221.588 97.9405 221.66 98.1146 221.66 98.3186C221.66 98.5826 221.528 98.8225 221.264 99.0384C220.939 99.3502 220.489 99.626 219.913 99.8657C219.349 100.105 218.755 100.225 218.131 100.225ZM228.954 90.4203C229.842 90.4207 230.526 90.6431 231.006 91.0873C231.486 91.5196 231.804 92.1077 231.959 92.8518L231.671 92.7617L231.797 92.4737C231.954 92.1618 232.188 91.8499 232.5 91.5381C232.824 91.2142 233.208 90.9504 233.652 90.7467C234.096 90.5309 234.57 90.4231 235.074 90.4234C235.902 90.4238 236.544 90.6041 237 90.9644C237.456 91.3126 237.774 91.7868 237.953 92.3869C238.133 92.9749 238.223 93.635 238.222 94.367L238.22 99.137C238.22 99.401 238.136 99.6229 237.968 99.8029C237.8 99.9708 237.584 100.055 237.32 100.055C237.068 100.054 236.852 99.9703 236.672 99.8022C236.504 99.6221 236.42 99.4001 236.42 99.1361L236.422 94.3841C236.423 93.9641 236.363 93.58 236.243 93.232C236.135 92.8839 235.937 92.6078 235.649 92.4037C235.374 92.1875 234.99 92.0793 234.498 92.0791C234.03 92.0789 233.61 92.1866 233.237 92.4025C232.877 92.6063 232.595 92.8821 232.391 93.23C232.187 93.5779 232.085 93.9619 232.084 94.3819L232.082 99.1339C232.082 99.3979 231.998 99.6198 231.83 99.7997C231.662 99.9677 231.446 100.052 231.182 100.051C230.918 100.051 230.702 99.9672 230.534 99.7991C230.366 99.619 230.282 99.397 230.282 99.133L230.284 94.363C230.285 93.943 230.225 93.5589 230.105 93.2109C229.997 92.8628 229.805 92.5867 229.529 92.3826C229.254 92.1784 228.87 92.0762 228.378 92.076C227.91 92.0758 227.496 92.1775 227.135 92.3814C226.775 92.5852 226.493 92.861 226.289 93.2089C226.097 93.5568 226.001 93.9408 226 94.3608L225.998 99.1308C225.998 99.3948 225.908 99.6167 225.728 99.7966C225.56 99.9646 225.35 100.048 225.098 100.048C224.834 100.048 224.618 99.9641 224.45 99.796C224.282 99.6159 224.198 99.3939 224.198 99.1299L224.202 91.4979C224.202 91.2339 224.286 91.0179 224.454 90.85C224.622 90.6701 224.838 90.5802 225.102 90.5803C225.354 90.5805 225.564 90.6706 225.732 90.8506C225.912 91.0187 226.002 91.2348 226.002 91.4988L226.001 92.5608L225.659 92.7586C225.743 92.4947 225.882 92.2247 226.074 91.9488C226.266 91.6729 226.506 91.421 226.794 91.1932C227.094 90.9653 227.424 90.7795 227.784 90.6357C228.144 90.4919 228.534 90.4201 228.954 90.4203ZM245.495 90.4287C246.383 90.4291 247.067 90.6515 247.547 91.0957C248.027 91.528 248.345 92.1161 248.5 92.8602L248.212 92.7701L248.338 92.4821C248.495 92.1702 248.729 91.8583 249.041 91.5465C249.365 91.2227 249.749 90.9589 250.193 90.7551C250.637 90.5393 251.111 90.4315 251.615 90.4318C252.443 90.4322 253.085 90.6125 253.541 90.9728C253.997 91.321 254.315 91.7952 254.494 92.3953C254.674 92.9834 254.764 93.6434 254.763 94.3754L254.761 99.1454C254.761 99.4094 254.677 99.6314 254.509 99.8113C254.341 99.9792 254.125 100.063 253.861 100.063C253.609 100.063 253.393 99.9787 253.213 99.8106C253.045 99.6305 252.961 99.4085 252.961 99.1445L252.963 94.3925C252.964 93.9725 252.904 93.5885 252.784 93.2404C252.676 92.8923 252.478 92.6162 252.19 92.4121C251.915 92.196 251.531 92.0878 251.039 92.0875C250.571 92.0873 250.151 92.1951 249.778 92.4109C249.418 92.6147 249.136 92.8905 248.932 93.2384C248.728 93.5863 248.626 93.9703 248.625 94.3903L248.623 99.1423C248.623 99.4063 248.539 99.6282 248.371 99.8081C248.203 99.9761 247.987 100.06 247.723 100.06C247.459 100.06 247.243 99.9756 247.075 99.8075C246.907 99.6274 246.823 99.4054 246.823 99.1414L246.825 94.3714C246.826 93.9514 246.766 93.5673 246.646 93.2193C246.538 92.8712 246.346 92.5951 246.071 92.391C245.795 92.1868 245.411 92.0846 244.919 92.0844C244.451 92.0842 244.037 92.1859 243.677 92.3898C243.316 92.5936 243.034 92.8694 242.83 93.2173C242.638 93.5652 242.542 93.9492 242.541 94.3692L242.539 99.1392C242.539 99.4032 242.449 99.6251 242.269 99.805C242.101 99.973 241.891 100.057 241.639 100.057C241.375 100.057 241.159 99.9725 240.991 99.8044C240.823 99.6243 240.739 99.4023 240.739 99.1383L240.743 91.5063C240.743 91.2423 240.827 91.0263 240.995 90.8584C241.163 90.6785 241.379 90.5886 241.643 90.5887C241.895 90.5889 242.105 90.679 242.273 90.8591C242.453 91.0271 242.543 91.2432 242.543 91.5072L242.542 92.5692L242.2 92.767C242.284 92.5031 242.423 92.2331 242.615 91.9572C242.807 91.6813 243.047 91.4294 243.335 91.2016C243.635 90.9737 243.965 90.7879 244.325 90.6441C244.685 90.5003 245.075 90.4285 245.495 90.4287ZM261.69 100.247C260.694 100.246 259.83 100.042 259.098 99.6336C258.366 99.2132 257.796 98.6429 257.389 97.9227C256.993 97.1905 256.795 96.3564 256.796 95.4204C256.797 94.3644 257.007 93.4645 257.427 92.7208C257.86 91.965 258.418 91.3893 259.102 90.9936C259.786 90.586 260.513 90.3823 261.281 90.3827C261.869 90.383 262.426 90.5033 262.954 90.7436C263.482 90.9718 263.95 91.2961 264.358 91.7163C264.778 92.1245 265.107 92.6107 265.347 93.1748C265.587 93.7269 265.713 94.333 265.724 94.993C265.712 95.233 265.616 95.4309 265.436 95.5868C265.256 95.7427 265.046 95.8206 264.806 95.8205L257.804 95.8169L257.373 94.2867L264.141 94.2902L263.798 94.614L263.799 94.164C263.775 93.744 263.637 93.3779 263.385 93.0658C263.133 92.7417 262.821 92.4955 262.45 92.3273C262.078 92.1471 261.688 92.0569 261.28 92.0567C260.92 92.0565 260.572 92.1164 260.236 92.2362C259.912 92.344 259.617 92.5239 259.353 92.7757C259.101 93.0276 258.897 93.3635 258.741 93.7834C258.597 94.1913 258.524 94.7013 258.524 95.3133C258.524 95.9733 258.661 96.5494 258.937 97.0415C259.213 97.5337 259.585 97.9178 260.053 98.1941C260.52 98.4583 261.036 98.5906 261.6 98.5909C262.044 98.5911 262.41 98.5493 262.698 98.4654C262.986 98.3696 263.227 98.2557 263.419 98.1238C263.611 97.9919 263.779 97.866 263.923 97.7461C264.103 97.6381 264.283 97.5842 264.463 97.5843C264.679 97.5844 264.859 97.6625 265.003 97.8186C265.147 97.9627 265.219 98.1367 265.218 98.3407C265.218 98.6047 265.086 98.8446 264.822 99.0605C264.498 99.3723 264.048 99.6481 263.472 99.8878C262.908 100.128 262.314 100.247 261.69 100.247ZM267.199 98.5937C267.091 98.4257 267.043 98.2336 267.055 98.0176C267.067 97.7897 267.193 97.5977 267.434 97.4418C267.602 97.3339 267.776 97.292 267.956 97.3161C268.148 97.3282 268.328 97.4183 268.495 97.5864C268.831 97.9585 269.203 98.2527 269.611 98.4689C270.031 98.6852 270.535 98.7934 271.123 98.7937C271.363 98.7818 271.609 98.746 271.861 98.6861C272.113 98.6142 272.329 98.4943 272.509 98.3264C272.689 98.1465 272.779 97.8886 272.779 97.5526C272.78 97.2526 272.684 97.0125 272.492 96.8324C272.3 96.6523 272.048 96.5082 271.736 96.4C271.424 96.2799 271.088 96.1717 270.728 96.0755C270.344 95.9673 269.954 95.8471 269.558 95.7149C269.174 95.5827 268.827 95.4145 268.515 95.2104C268.203 94.9942 267.945 94.7181 267.741 94.382C267.549 94.0459 267.453 93.6318 267.454 93.1398C267.454 92.5758 267.61 92.0899 267.922 91.6821C268.247 91.2743 268.661 90.9565 269.165 90.7287C269.681 90.501 270.239 90.3873 270.839 90.3876C271.187 90.3877 271.553 90.4359 271.937 90.5321C272.321 90.6163 272.693 90.7545 273.053 90.9467C273.413 91.1389 273.725 91.391 273.988 91.7032C274.108 91.8592 274.174 92.0453 274.186 92.2613C274.21 92.4773 274.114 92.6692 273.898 92.8371C273.754 92.9571 273.58 93.011 273.376 92.9989C273.172 92.9868 273.004 92.9207 272.872 92.8006C272.644 92.5125 272.35 92.2903 271.99 92.1342C271.63 91.966 271.222 91.8818 270.766 91.8815C270.538 91.8814 270.298 91.9173 270.046 91.9892C269.806 92.049 269.602 92.1629 269.434 92.3309C269.266 92.4988 269.182 92.7447 269.182 93.0687C269.182 93.3687 269.277 93.6088 269.469 93.7889C269.673 93.969 269.937 94.1191 270.261 94.2393C270.585 94.3594 270.939 94.4676 271.323 94.5638C271.695 94.66 272.061 94.7742 272.421 94.9064C272.793 95.0386 273.123 95.2127 273.411 95.4289C273.71 95.633 273.95 95.9031 274.13 96.2392C274.322 96.5633 274.418 96.9774 274.417 97.4814C274.417 98.0694 274.243 98.5733 273.895 98.9931C273.559 99.4009 273.126 99.7127 272.598 99.9285C272.082 100.144 271.536 100.252 270.96 100.252C270.276 100.251 269.592 100.131 268.908 99.8906C268.236 99.6382 267.667 99.206 267.199 98.5937ZM278.044 99.1572C278.044 99.4212 277.96 99.6432 277.792 99.8231C277.624 99.991 277.408 100.075 277.144 100.075C276.892 100.075 276.676 99.9905 276.496 99.8224C276.328 99.6424 276.244 99.4203 276.244 99.1563L276.248 91.4523C276.248 91.1883 276.332 90.9724 276.501 90.8044C276.681 90.6245 276.897 90.5346 277.149 90.5348C277.413 90.5349 277.629 90.625 277.797 90.8051C277.964 90.9732 278.048 91.1892 278.048 91.4532L278.044 99.1572ZM277.131 89.3468C276.783 89.3466 276.531 89.2865 276.375 89.1664C276.219 89.0343 276.142 88.8183 276.142 88.5183L276.142 88.2303C276.142 87.9303 276.226 87.7203 276.394 87.6004C276.562 87.4805 276.814 87.4206 277.15 87.4208C277.51 87.421 277.768 87.4871 277.924 87.6192C278.08 87.7393 278.158 87.9433 278.158 88.2313L278.158 88.5193C278.158 88.8313 278.073 89.0472 277.905 89.1672C277.749 89.2871 277.491 89.347 277.131 89.3468ZM288.23 86.7604C288.494 86.7605 288.71 86.8447 288.878 87.0127C289.046 87.1808 289.13 87.4029 289.129 87.6789L289.124 99.1629C289.123 99.4269 289.039 99.6488 288.871 99.8287C288.703 99.9966 288.487 100.081 288.223 100.08C287.971 100.08 287.755 99.9962 287.575 99.8281C287.407 99.648 287.323 99.4259 287.324 99.1619L287.324 97.8659L287.702 97.8841C287.702 98.1001 287.612 98.3461 287.432 98.622C287.264 98.8859 287.03 99.1438 286.729 99.3956C286.429 99.6475 286.075 99.8573 285.667 100.025C285.259 100.181 284.821 100.259 284.353 100.258C283.525 100.258 282.781 100.048 282.121 99.6273C281.462 99.195 280.94 98.6127 280.556 97.8805C280.173 97.1363 279.981 96.2842 279.982 95.3242C279.982 94.3642 280.174 93.5183 280.559 92.7865C280.943 92.0427 281.46 91.461 282.108 91.0413C282.768 90.6096 283.5 90.394 284.304 90.3944C284.808 90.3947 285.276 90.4789 285.708 90.6471C286.152 90.8154 286.536 91.0315 286.86 91.2957C287.183 91.5599 287.435 91.842 287.615 92.1421C287.795 92.4302 287.885 92.7062 287.885 92.9702L287.327 93.0239L287.329 87.678C287.33 87.414 287.414 87.198 287.582 87.0301C287.762 86.8502 287.978 86.7603 288.23 86.7604ZM284.552 98.6025C285.128 98.6028 285.626 98.4591 286.046 98.1713C286.478 97.8835 286.814 97.4937 287.055 97.0018C287.295 96.5099 287.415 95.952 287.416 95.328C287.416 94.704 287.296 94.1459 287.056 93.6538C286.817 93.1617 286.481 92.7715 286.049 92.4833C285.617 92.1951 285.119 92.0508 284.555 92.0505C284.003 92.0503 283.511 92.194 283.079 92.4818C282.659 92.7696 282.323 93.1594 282.07 93.6513C281.83 94.1432 281.71 94.7011 281.71 95.3251C281.709 95.9491 281.829 96.5072 282.069 96.9993C282.32 97.4914 282.656 97.8816 283.076 98.1698C283.508 98.458 284 98.6023 284.552 98.6025ZM296.055 100.264C295.059 100.264 294.195 100.059 293.463 99.6511C292.731 99.2307 292.162 98.6604 291.754 97.9402C291.358 97.208 291.161 96.3739 291.161 95.4379C291.162 94.3819 291.372 93.482 291.793 92.7382C292.225 91.9824 292.783 91.4067 293.467 91.0111C294.152 90.6034 294.878 90.3998 295.646 90.4002C296.234 90.4005 296.792 90.5208 297.32 90.761C297.847 90.9893 298.315 91.3135 298.723 91.7337C299.143 92.142 299.473 92.6281 299.712 93.1922C299.952 93.7444 300.078 94.3504 300.089 95.0104C300.077 95.2504 299.981 95.4484 299.801 95.6043C299.621 95.7602 299.411 95.8381 299.171 95.838L292.169 95.8344L291.738 94.3042L298.506 94.3076L298.164 94.6315L298.164 94.1815C298.14 93.7614 298.002 93.3954 297.75 93.0832C297.499 92.7591 297.187 92.513 296.815 92.3448C296.443 92.1646 296.053 92.0744 295.645 92.0742C295.285 92.074 294.937 92.1338 294.601 92.2536C294.277 92.3615 293.983 92.5413 293.719 92.7932C293.466 93.0451 293.262 93.381 293.106 93.8009C292.962 94.2088 292.89 94.7188 292.889 95.3308C292.889 95.9908 293.027 96.5668 293.302 97.059C293.578 97.5511 293.95 97.9353 294.418 98.2116C294.886 98.4758 295.402 98.6081 295.966 98.6083C296.41 98.6086 296.776 98.5667 297.064 98.4829C297.352 98.387 297.592 98.2732 297.784 98.1413C297.976 98.0094 298.144 97.8834 298.288 97.7635C298.468 97.6556 298.648 97.6017 298.828 97.6018C299.044 97.6019 299.224 97.68 299.368 97.8361C299.512 97.9801 299.584 98.1542 299.584 98.3582C299.584 98.6222 299.451 98.8621 299.187 99.078C298.863 99.3898 298.413 99.6656 297.837 99.9053C297.273 100.145 296.679 100.265 296.055 100.264ZM311.433 100.092C311.145 100.092 310.911 100.008 310.731 99.8398C310.563 99.6598 310.479 99.4377 310.48 99.1737L310.485 88.3917L312.411 88.3927L312.406 99.1747C312.405 99.4387 312.309 99.6606 312.117 99.8405C311.937 100.008 311.709 100.092 311.433 100.092ZM307.353 89.2181C307.101 89.218 306.885 89.1399 306.705 88.9838C306.525 88.8157 306.435 88.5997 306.435 88.3357C306.435 88.0837 306.525 87.8797 306.705 87.7238C306.886 87.5679 307.102 87.49 307.354 87.4901L315.544 87.4943C315.796 87.4944 316.006 87.5785 316.173 87.7466C316.353 87.9027 316.443 88.1067 316.443 88.3587C316.443 88.6227 316.353 88.8327 316.173 88.9886C316.005 89.1445 315.795 89.2224 315.543 89.2223L307.353 89.2181ZM320.523 100.277C319.527 100.276 318.664 100.072 317.932 99.6635C317.2 99.2431 316.63 98.6728 316.223 97.9526C315.827 97.2204 315.629 96.3863 315.63 95.4503C315.63 94.3943 315.841 93.4944 316.261 92.7507C316.694 91.9949 317.252 91.4192 317.936 91.0235C318.62 90.6159 319.346 90.4122 320.114 90.4126C320.702 90.4129 321.26 90.5332 321.788 90.7735C322.316 91.0017 322.784 91.326 323.192 91.7462C323.612 92.1544 323.941 92.6406 324.181 93.2047C324.421 93.7568 324.546 94.3629 324.558 95.0229C324.546 95.2629 324.45 95.4608 324.27 95.6167C324.09 95.7726 323.88 95.8505 323.64 95.8504L316.638 95.8468L316.207 94.3166L322.975 94.3201L322.632 94.6439L322.633 94.1939C322.609 93.7739 322.471 93.4078 322.219 93.0957C321.967 92.7716 321.655 92.5254 321.284 92.3572C320.912 92.177 320.522 92.0868 320.114 92.0866C319.754 92.0864 319.406 92.1463 319.07 92.2661C318.746 92.3739 318.451 92.5538 318.187 92.8056C317.935 93.0575 317.731 93.3934 317.575 93.8133C317.431 94.2212 317.358 94.7312 317.358 95.3432C317.358 96.0032 317.495 96.5793 317.771 97.0714C318.047 97.5636 318.419 97.9477 318.887 98.224C319.354 98.4882 319.87 98.6205 320.434 98.6208C320.878 98.621 321.244 98.5792 321.532 98.4953C321.82 98.3995 322.06 98.2856 322.253 98.1537C322.445 98.0218 322.613 97.8959 322.757 97.776C322.937 97.668 323.117 97.6141 323.297 97.6142C323.513 97.6143 323.693 97.6924 323.837 97.8485C323.981 97.9926 324.053 98.1666 324.052 98.3706C324.052 98.6346 323.92 98.8745 323.656 99.0904C323.332 99.4022 322.882 99.678 322.306 99.9177C321.742 100.157 321.147 100.277 320.523 100.277ZM331.347 90.4723C332.235 90.4728 332.919 90.6951 333.399 91.1394C333.878 91.5716 334.196 92.1598 334.352 92.9038L334.064 92.8137L334.19 92.5258C334.346 92.2138 334.58 91.902 334.892 91.5901C335.217 91.2663 335.601 91.0025 336.045 90.7987C336.489 90.5829 336.963 90.4752 337.467 90.4754C338.295 90.4759 338.937 90.6562 339.393 91.0164C339.849 91.3646 340.166 91.8388 340.346 92.4389C340.526 93.027 340.615 93.687 340.615 94.419L340.613 99.189C340.612 99.453 340.528 99.675 340.36 99.8549C340.192 100.023 339.976 100.107 339.712 100.107C339.46 100.106 339.244 100.022 339.064 99.8542C338.896 99.6742 338.812 99.4521 338.813 99.1881L338.815 94.4361C338.815 94.0161 338.755 93.6321 338.636 93.284C338.528 92.936 338.33 92.6599 338.042 92.4557C337.766 92.2396 337.382 92.1314 336.89 92.1311C336.422 92.1309 336.002 92.2387 335.63 92.4545C335.27 92.6583 334.988 92.9342 334.784 93.2821C334.579 93.63 334.477 94.0139 334.477 94.4339L334.475 99.1859C334.474 99.4499 334.39 99.6719 334.222 99.8518C334.054 100.02 333.838 100.104 333.574 100.103C333.31 100.103 333.094 100.019 332.926 99.8511C332.758 99.671 332.674 99.449 332.675 99.185L332.677 94.415C332.677 93.995 332.617 93.611 332.498 93.2629C332.39 92.9149 332.198 92.6388 331.922 92.4346C331.646 92.2305 331.262 92.1283 330.77 92.128C330.302 92.1278 329.888 92.2296 329.528 92.4334C329.168 92.6372 328.886 92.9131 328.682 93.261C328.489 93.6089 328.393 93.9928 328.393 94.4128L328.391 99.1828C328.39 99.4468 328.3 99.6688 328.12 99.8487C327.952 100.017 327.742 100.1 327.49 100.1C327.226 100.1 327.01 100.016 326.842 99.848C326.674 99.6679 326.59 99.4459 326.591 99.1819L326.594 91.5499C326.595 91.2859 326.679 91.0699 326.847 90.902C327.015 90.7221 327.231 90.6322 327.495 90.6324C327.747 90.6325 327.957 90.7226 328.125 90.9027C328.305 91.0708 328.395 91.2868 328.394 91.5508L328.394 92.6128L328.052 92.8106C328.136 92.5467 328.274 92.2768 328.466 92.0009C328.658 91.725 328.899 91.4731 329.187 91.2452C329.487 91.0174 329.817 90.8315 330.177 90.6877C330.537 90.5439 330.927 90.4721 331.347 90.4723ZM350.894 90.5003C351.158 90.5004 351.374 90.5905 351.542 90.7706C351.71 90.9387 351.794 91.1547 351.794 91.4187L351.79 99.1947C351.789 99.4587 351.705 99.6807 351.537 99.8606C351.369 100.028 351.153 100.112 350.889 100.112C350.637 100.112 350.421 100.028 350.241 99.8599C350.073 99.6798 349.989 99.4578 349.99 99.1938L349.99 97.8978L350.368 97.952C350.368 98.168 350.278 98.4079 350.098 98.6718C349.93 98.9358 349.696 99.1936 349.395 99.4455C349.095 99.6853 348.741 99.8892 348.333 100.057C347.925 100.213 347.487 100.291 347.019 100.29C346.191 100.29 345.447 100.079 344.787 99.6591C344.128 99.2268 343.606 98.6385 343.222 97.8944C342.839 97.1502 342.647 96.3041 342.648 95.3561C342.648 94.3841 342.84 93.5322 343.225 92.8004C343.609 92.0566 344.126 91.4748 344.774 91.0551C345.434 90.6355 346.166 90.4259 346.97 90.4263C347.486 90.4265 347.96 90.5108 348.392 90.679C348.836 90.8472 349.22 91.0634 349.544 91.3276C349.867 91.5917 350.113 91.8739 350.281 92.1739C350.461 92.462 350.551 92.7381 350.551 93.0021L349.993 93.0558L349.994 91.4178C349.994 91.1658 350.078 90.9498 350.246 90.7699C350.426 90.59 350.642 90.5001 350.894 90.5003ZM347.218 98.6344C347.782 98.6347 348.28 98.4909 348.712 98.2031C349.144 97.9154 349.48 97.5255 349.721 97.0337C349.961 96.5298 350.081 95.9718 350.082 95.3598C350.082 94.7358 349.962 94.1778 349.722 93.6857C349.483 93.1935 349.147 92.8034 348.715 92.5151C348.283 92.2269 347.785 92.0827 347.221 92.0824C346.669 92.0821 346.177 92.2259 345.745 92.5136C345.325 92.8014 344.989 93.1913 344.736 93.6831C344.496 94.175 344.376 94.7329 344.376 95.3569C344.375 95.9689 344.495 96.527 344.735 97.0311C344.986 97.5233 345.322 97.9134 345.742 98.2016C346.174 98.4899 346.666 98.6341 347.218 98.6344ZM362.363 100.244C361.895 100.244 361.409 100.172 360.905 100.027C360.413 99.8831 359.993 99.6669 359.645 99.3787C359.513 99.2706 359.411 99.1326 359.339 98.9645C359.267 98.7965 359.231 98.6345 359.231 98.4785C359.232 98.3105 359.304 98.1485 359.448 97.9926C359.604 97.8247 359.814 97.7408 360.078 97.7409C360.27 97.741 360.492 97.8371 360.744 98.0293C360.984 98.1854 361.236 98.3175 361.499 98.4256C361.775 98.5338 362.057 98.5879 362.345 98.5881C362.969 98.5884 363.509 98.4747 363.966 98.2469C364.422 98.0191 364.77 97.7013 365.01 97.2934C365.262 96.8736 365.388 96.3876 365.389 95.8356C365.389 95.3196 365.275 94.8816 365.047 94.5214C364.82 94.1493 364.508 93.8612 364.112 93.657C363.728 93.4528 363.296 93.3506 362.816 93.3503C362.42 93.3501 362.072 93.4159 361.772 93.5478C361.472 93.6676 361.202 93.7935 360.962 93.9254C360.722 94.0452 360.5 94.1051 360.296 94.105C359.984 94.1049 359.75 94.0388 359.594 93.9067C359.438 93.7626 359.336 93.5945 359.288 93.4025C359.252 93.1985 359.246 93.0125 359.27 92.8445L359.903 88.3268C359.939 88.1229 360.035 87.9549 360.191 87.823C360.359 87.6791 360.563 87.6072 360.803 87.6073L366.077 87.61C366.317 87.6101 366.515 87.6942 366.671 87.8623C366.839 88.0184 366.923 88.2164 366.923 88.4564C366.922 88.6964 366.838 88.8944 366.67 89.0503C366.514 89.2062 366.316 89.2841 366.076 89.284L361.252 89.2815L361.45 89.1196L360.872 92.9893L360.602 92.4492C360.711 92.3292 360.891 92.2153 361.143 92.1075C361.407 91.9876 361.701 91.8917 362.025 91.8199C362.361 91.7361 362.697 91.6943 363.033 91.6944C363.825 91.6948 364.533 91.8752 365.157 92.2355C365.792 92.5838 366.29 93.0701 366.65 93.6943C367.01 94.3184 367.189 95.0265 367.189 95.8185C367.188 96.7065 366.99 97.4864 366.594 98.1582C366.197 98.818 365.639 99.3337 364.919 99.7054C364.199 100.065 363.347 100.245 362.363 100.244ZM370.366 92.9222C370.066 92.922 369.832 92.8439 369.664 92.6878C369.508 92.5197 369.43 92.2857 369.43 91.9857L369.43 91.6437C369.43 91.3437 369.508 91.1097 369.665 90.9418C369.833 90.7739 370.067 90.69 370.367 90.6902L370.565 90.6903C370.865 90.6904 371.093 90.7745 371.249 90.9426C371.404 91.1107 371.482 91.3447 371.482 91.6447L371.482 91.9867C371.482 92.2867 371.404 92.5207 371.248 92.6886C371.092 92.8445 370.864 92.9224 370.564 92.9223L370.366 92.9222ZM370.362 100.122C370.062 100.122 369.828 100.038 369.66 99.8698C369.504 99.7017 369.426 99.4677 369.426 99.1677L369.427 98.8437C369.427 98.5317 369.505 98.2977 369.661 98.1418C369.829 97.9739 370.063 97.89 370.363 97.8901L370.561 97.8902C370.861 97.8904 371.089 97.9745 371.245 98.1426C371.401 98.2987 371.479 98.5327 371.479 98.8447L371.478 99.1687C371.478 99.4687 371.4 99.7027 371.244 99.8706C371.088 100.039 370.86 100.122 370.56 100.122L370.362 100.122ZM380.097 87.5271C380.337 87.5272 380.547 87.6173 380.726 87.7974C380.918 87.9655 381.014 88.1816 381.014 88.4456L381.009 99.2096C380.997 99.4736 380.894 99.6955 380.702 99.8754C380.522 100.043 380.306 100.127 380.054 100.127C379.778 100.127 379.55 100.043 379.37 99.8747C379.202 99.6946 379.119 99.4726 379.119 99.2086L379.124 88.4446C379.124 88.1806 379.214 87.9647 379.394 87.7967C379.575 87.6168 379.809 87.527 380.097 87.5271ZM388.215 87.5312C388.503 87.5314 388.731 87.6215 388.898 87.8016C389.066 87.9697 389.15 88.1857 389.15 88.4497L389.145 99.2137C389.145 99.4777 389.054 99.6996 388.874 99.8796C388.706 100.047 388.478 100.131 388.19 100.131C387.938 100.131 387.722 100.047 387.542 99.8789C387.362 99.6988 387.273 99.4767 387.273 99.2127L387.278 88.4487C387.278 88.1847 387.368 87.9688 387.548 87.8009C387.741 87.621 387.963 87.5311 388.215 87.5312ZM380.022 92.8911L388.23 92.8952L388.211 94.6232L380.003 94.619L380.022 92.8911ZM391.736 90.773L395.966 90.7752C396.206 90.7753 396.404 90.8594 396.56 91.0275C396.728 91.1836 396.812 91.3816 396.812 91.6216C396.812 91.8496 396.728 92.0415 396.56 92.1975C396.404 92.3534 396.206 92.4313 395.966 92.4312L391.736 92.429C391.496 92.4289 391.292 92.3508 391.124 92.1947C390.968 92.0266 390.89 91.8286 390.89 91.6006C390.89 91.3606 390.968 91.1626 391.124 91.0067C391.292 90.8508 391.496 90.7729 391.736 90.773ZM393.628 88.434C393.892 88.4341 394.108 88.5242 394.276 88.7043C394.443 88.8724 394.527 89.0884 394.527 89.3524L394.523 97.7044C394.523 97.9204 394.559 98.0944 394.631 98.2265C394.703 98.3585 394.799 98.4486 394.919 98.4966C395.05 98.5447 395.182 98.5688 395.314 98.5688C395.446 98.5689 395.56 98.545 395.657 98.497C395.765 98.4491 395.891 98.4251 396.035 98.4252C396.179 98.4253 396.311 98.4913 396.43 98.6234C396.55 98.7555 396.61 98.9355 396.61 99.1635C396.61 99.4515 396.454 99.6854 396.142 99.8652C395.83 100.045 395.494 100.135 395.134 100.135C394.93 100.135 394.69 100.117 394.414 100.08C394.138 100.044 393.868 99.9541 393.604 99.81C393.352 99.6658 393.142 99.4377 392.974 99.1256C392.806 98.8016 392.723 98.3515 392.723 97.7755L392.727 89.3515C392.727 89.0875 392.811 88.8716 392.98 88.7036C393.16 88.5237 393.376 88.4338 393.628 88.434ZM398.68 90.7765L402.91 90.7787C403.15 90.7788 403.348 90.8629 403.504 91.031C403.672 91.1871 403.755 91.3851 403.755 91.6251C403.755 91.8531 403.671 92.0451 403.503 92.201C403.347 92.3569 403.149 92.4348 402.909 92.4347L398.679 92.4325C398.439 92.4324 398.235 92.3543 398.067 92.1982C397.911 92.0302 397.833 91.8321 397.833 91.6041C397.834 91.3641 397.912 91.1662 398.068 91.0102C398.236 90.8543 398.44 90.7764 398.68 90.7765ZM400.571 88.4375C400.835 88.4376 401.051 88.5277 401.219 88.7078C401.387 88.8759 401.471 89.092 401.471 89.356L401.466 97.708C401.466 97.924 401.502 98.098 401.574 98.23C401.646 98.362 401.742 98.4521 401.862 98.5002C401.994 98.5482 402.126 98.5723 402.258 98.5724C402.39 98.5724 402.504 98.5485 402.6 98.5005C402.708 98.4526 402.834 98.4287 402.978 98.4287C403.122 98.4288 403.254 98.4949 403.374 98.6269C403.494 98.759 403.554 98.939 403.554 99.167C403.553 99.455 403.397 99.6889 403.085 99.8688C402.773 100.049 402.437 100.138 402.077 100.138C401.873 100.138 401.633 100.12 401.357 100.084C401.081 100.048 400.811 99.9576 400.547 99.8135C400.295 99.6694 400.085 99.4413 399.918 99.1292C399.75 98.8051 399.666 98.355 399.666 97.779L399.671 89.355C399.671 89.091 399.755 88.8751 399.923 88.7072C400.103 88.5273 400.319 88.4374 400.571 88.4375ZM410.519 90.5126C411.359 90.513 412.103 90.7234 412.751 91.1437C413.411 91.564 413.932 92.1403 414.316 92.8725C414.7 93.5927 414.891 94.4328 414.891 95.3928C414.89 96.3528 414.698 97.2047 414.314 97.9485C413.929 98.6803 413.413 99.256 412.765 99.6757C412.116 100.095 411.384 100.305 410.568 100.305C410.112 100.304 409.68 100.232 409.272 100.088C408.865 99.9437 408.505 99.7575 408.193 99.5294C407.881 99.2892 407.623 99.0371 407.419 98.773C407.227 98.5089 407.107 98.2628 407.059 98.0348L407.546 97.801L407.543 102.823C407.543 103.087 407.453 103.303 407.273 103.471C407.105 103.651 406.895 103.741 406.643 103.741C406.379 103.74 406.163 103.65 405.995 103.47C405.827 103.302 405.743 103.086 405.743 102.822L405.749 91.5541C405.749 91.3021 405.833 91.0862 406.001 90.9063C406.169 90.7263 406.385 90.6365 406.649 90.6366C406.901 90.6367 407.111 90.7268 407.279 90.9069C407.459 91.087 407.549 91.303 407.549 91.555L407.548 92.797L407.26 92.6349C407.296 92.4069 407.41 92.173 407.603 91.9331C407.795 91.6812 408.035 91.4473 408.323 91.2314C408.623 91.0156 408.959 90.8418 409.331 90.71C409.715 90.5782 410.111 90.5124 410.519 90.5126ZM410.32 92.1685C409.744 92.1682 409.24 92.3119 408.808 92.5997C408.388 92.8755 408.058 93.2533 407.818 93.7332C407.577 94.2131 407.457 94.765 407.457 95.389C407.457 96.001 407.576 96.5591 407.816 97.0632C408.056 97.5553 408.386 97.9455 408.805 98.2337C409.237 98.5099 409.741 98.6482 410.317 98.6485C410.881 98.6487 411.373 98.511 411.793 98.2352C412.214 97.9474 412.544 97.5576 412.784 97.0657C413.036 96.5618 413.163 96.0039 413.163 95.3919C413.163 94.7799 413.037 94.2338 412.786 93.7537C412.546 93.2616 412.216 92.8774 411.796 92.6012C411.376 92.313 410.884 92.1687 410.32 92.1685ZM416.367 98.6695C416.259 98.5015 416.211 98.3094 416.223 98.0935C416.235 97.8655 416.361 97.6735 416.601 97.5176C416.769 97.4097 416.944 97.3678 417.123 97.3919C417.315 97.404 417.495 97.4941 417.663 97.6622C417.999 98.0344 418.371 98.3285 418.779 98.5448C419.199 98.761 419.703 98.8692 420.291 98.8695C420.531 98.8576 420.777 98.8218 421.029 98.7619C421.281 98.69 421.497 98.5701 421.677 98.4022C421.857 98.2223 421.947 97.9644 421.947 97.6284C421.948 97.3284 421.852 97.0883 421.66 96.9082C421.468 96.7281 421.216 96.584 420.904 96.4758C420.592 96.3557 420.256 96.2475 419.896 96.1513C419.512 96.0431 419.122 95.9229 418.726 95.7907C418.342 95.6585 417.994 95.4904 417.683 95.2862C417.371 95.07 417.113 94.7939 416.909 94.4578C416.717 94.1217 416.621 93.7077 416.622 93.2157C416.622 92.6517 416.778 92.1657 417.09 91.7579C417.415 91.3501 417.829 91.0323 418.333 90.8045C418.849 90.5768 419.407 90.4631 420.007 90.4634C420.355 90.4636 420.721 90.5117 421.105 90.6079C421.489 90.6921 421.861 90.8303 422.221 91.0225C422.581 91.2147 422.892 91.4668 423.156 91.779C423.276 91.935 423.342 92.1211 423.354 92.3371C423.378 92.5531 423.282 92.745 423.066 92.9129C422.922 93.0329 422.748 93.0868 422.544 93.0747C422.34 93.0626 422.172 92.9965 422.04 92.8764C421.812 92.5883 421.518 92.3661 421.158 92.21C420.798 92.0418 420.39 91.9576 419.934 91.9573C419.706 91.9572 419.466 91.9931 419.214 92.065C418.974 92.1249 418.77 92.2388 418.602 92.4067C418.434 92.5746 418.35 92.8205 418.35 93.1445C418.349 93.4445 418.445 93.6846 418.637 93.8647C418.841 94.0448 419.105 94.1949 419.429 94.3151C419.753 94.4353 420.107 94.5434 420.491 94.6396C420.863 94.7358 421.229 94.85 421.589 94.9822C421.961 95.1144 422.291 95.2885 422.578 95.5047C422.878 95.7088 423.118 95.979 423.298 96.3151C423.49 96.6391 423.586 97.0532 423.585 97.5572C423.585 98.1452 423.411 98.6491 423.063 99.0689C422.726 99.4768 422.294 99.7885 421.766 100.004C421.25 100.22 420.704 100.328 420.128 100.327C419.444 100.327 418.76 100.207 418.076 99.9664C417.404 99.7141 416.835 99.2818 416.367 98.6695ZM426.369 92.9506C426.069 92.9505 425.835 92.8723 425.668 92.7163C425.512 92.5482 425.434 92.3141 425.434 92.0141L425.434 91.6721C425.434 91.3721 425.512 91.1382 425.668 90.9703C425.837 90.8023 426.071 90.7185 426.371 90.7186L426.569 90.7187C426.869 90.7189 427.097 90.803 427.252 90.9711C427.408 91.1391 427.486 91.3732 427.486 91.6732L427.486 92.0152C427.486 92.3152 427.408 92.5491 427.252 92.7171C427.095 92.873 426.867 92.9509 426.567 92.9507L426.369 92.9506ZM426.366 100.151C426.066 100.15 425.832 100.066 425.664 99.8983C425.508 99.7302 425.43 99.4961 425.43 99.1961L425.43 98.8721C425.431 98.5601 425.509 98.3262 425.665 98.1703C425.833 98.0023 426.067 97.9185 426.367 97.9186L426.565 97.9187C426.865 97.9189 427.093 98.003 427.249 98.1711C427.405 98.3271 427.483 98.5612 427.482 98.8732L427.482 99.1972C427.482 99.4972 427.404 99.7311 427.248 99.8991C427.092 100.067 426.864 100.151 426.564 100.151L426.366 100.151ZM429.877 102.528C429.697 102.528 429.517 102.456 429.337 102.312C429.157 102.168 429.067 101.988 429.067 101.772C429.068 101.64 429.104 101.514 429.176 101.394L436.653 86.2598C436.737 86.0919 436.84 85.9659 436.96 85.882C437.092 85.7981 437.236 85.7561 437.392 85.7562C437.56 85.7563 437.728 85.8224 437.896 85.9545C438.075 86.0866 438.165 86.2726 438.165 86.5126C438.165 86.6446 438.135 86.7766 438.075 86.9086L430.597 102.043C430.513 102.199 430.411 102.319 430.291 102.403C430.171 102.487 430.033 102.528 429.877 102.528ZM438.174 102.533C437.994 102.533 437.814 102.46 437.634 102.316C437.454 102.172 437.364 101.992 437.364 101.776C437.364 101.644 437.4 101.518 437.473 101.398L444.95 86.2641C445.034 86.0961 445.136 85.9702 445.256 85.8862C445.388 85.8023 445.533 85.7604 445.689 85.7604C445.857 85.7605 446.024 85.8266 446.192 85.9587C446.372 86.0908 446.462 86.2768 446.462 86.5168C446.462 86.6488 446.432 86.7808 446.372 86.9128L438.894 102.047C438.81 102.203 438.708 102.323 438.588 102.407C438.468 102.491 438.33 102.533 438.174 102.533ZM449.301 87.5443C449.445 87.5443 449.595 87.5804 449.751 87.6525C449.907 87.7246 450.027 87.8266 450.111 87.9587L454.679 94.927L453.905 94.8906L458.571 87.963C458.763 87.6871 459.009 87.5492 459.309 87.5494C459.549 87.5495 459.759 87.6396 459.939 87.8197C460.131 87.9878 460.226 88.2038 460.226 88.4678L460.221 99.2498C460.221 99.5138 460.137 99.7358 459.969 99.9157C459.8 100.084 459.578 100.167 459.302 100.167C459.014 100.167 458.78 100.083 458.601 99.915C458.433 99.7349 458.349 99.5129 458.349 99.2489L458.354 90.1229L458.929 90.2492L454.966 96.2771C454.882 96.3851 454.774 96.481 454.642 96.565C454.51 96.6369 454.372 96.6668 454.228 96.6548C454.096 96.6667 453.958 96.6366 453.814 96.5646C453.682 96.4805 453.574 96.3844 453.49 96.2764L449.677 90.3345L450.11 89.6147L450.105 99.2447C450.105 99.5087 450.021 99.7306 449.853 99.9105C449.696 100.078 449.486 100.162 449.222 100.162C448.97 100.162 448.76 100.078 448.593 99.9099C448.437 99.7298 448.359 99.5078 448.359 99.2438L448.364 88.4618C448.364 88.2098 448.455 87.9938 448.635 87.8139C448.827 87.634 449.049 87.5441 449.301 87.5443ZM464.654 99.2521C464.654 99.5161 464.569 99.738 464.401 99.9179C464.233 100.086 464.017 100.17 463.753 100.17C463.501 100.169 463.285 100.085 463.105 99.9173C462.937 99.7372 462.854 99.5152 462.854 99.2512L462.858 91.5472C462.858 91.2832 462.942 91.0672 463.11 90.8993C463.29 90.7194 463.506 90.6295 463.758 90.6296C464.022 90.6298 464.238 90.7199 464.406 90.8999C464.574 91.068 464.658 91.2841 464.658 91.5481L464.654 99.2521ZM463.741 89.4416C463.393 89.4414 463.141 89.3813 462.985 89.2612C462.829 89.1291 462.751 88.9131 462.751 88.6131L462.751 88.3251C462.751 88.0251 462.835 87.8151 463.004 87.6952C463.172 87.5753 463.424 87.5154 463.76 87.5156C464.12 87.5158 464.378 87.5819 464.534 87.714C464.689 87.8341 464.767 88.0381 464.767 88.3261L464.767 88.6141C464.767 88.9261 464.683 89.1421 464.515 89.262C464.359 89.3819 464.101 89.4418 463.741 89.4416ZM469.019 99.2543C469.019 99.5183 468.929 99.7402 468.749 99.9202C468.581 100.088 468.37 100.172 468.118 100.172C467.866 100.172 467.651 100.088 467.471 99.9195C467.303 99.7394 467.219 99.5174 467.219 99.2534L467.225 87.7694C467.225 87.5054 467.315 87.2894 467.495 87.1215C467.675 86.9416 467.891 86.8517 468.143 86.8518C468.407 86.852 468.617 86.9421 468.773 87.1222C468.941 87.2903 469.025 87.5063 469.025 87.7703L469.019 99.2543ZM475.932 100.356C474.936 100.355 474.072 100.151 473.34 99.7425C472.608 99.3221 472.038 98.7518 471.631 98.0316C471.235 97.2994 471.038 96.4653 471.038 95.5293C471.039 94.4733 471.249 93.5734 471.669 92.8296C472.102 92.0739 472.66 91.4981 473.344 91.1025C474.029 90.6948 474.755 90.4912 475.523 90.4916C476.111 90.4919 476.669 90.6122 477.196 90.8524C477.724 91.0807 478.192 91.405 478.6 91.8252C479.02 92.2334 479.35 92.7195 479.589 93.2837C479.829 93.8358 479.955 94.4418 479.966 95.1019C479.954 95.3418 479.858 95.5398 479.678 95.6957C479.498 95.8516 479.288 95.9295 479.048 95.9294L472.046 95.9258L471.615 94.3956L478.383 94.399L478.04 94.7229L478.041 94.2729C478.017 93.8529 477.879 93.4868 477.627 93.1747C477.375 92.8505 477.064 92.6044 476.692 92.4362C476.32 92.256 475.93 92.1658 475.522 92.1656C475.162 92.1654 474.814 92.2252 474.478 92.3451C474.154 92.4529 473.86 92.6328 473.595 92.8846C473.343 93.1365 473.139 93.4724 472.983 93.8923C472.839 94.3002 472.766 94.8102 472.766 95.4222C472.766 96.0822 472.904 96.6583 473.179 97.1504C473.455 97.6425 473.827 98.0267 474.295 98.303C474.763 98.5672 475.278 98.6995 475.842 98.6998C476.286 98.7 476.652 98.6582 476.941 98.5743C477.229 98.4785 477.469 98.3646 477.661 98.2327C477.853 98.1008 478.021 97.9749 478.165 97.8549C478.345 97.747 478.525 97.6931 478.705 97.6932C478.921 97.6933 479.101 97.7714 479.245 97.9275C479.389 98.0716 479.461 98.2456 479.461 98.4496C479.46 98.7136 479.328 98.9535 479.064 99.1694C478.74 99.4812 478.29 99.757 477.714 99.9967C477.15 100.236 476.556 100.356 475.932 100.356ZM486.881 90.4974C487.733 90.4978 488.393 90.6781 488.861 91.0384C489.329 91.3866 489.653 91.8608 489.832 92.4609C490.024 93.049 490.12 93.709 490.119 94.441L490.117 99.265C490.117 99.529 490.027 99.751 489.846 99.9309C489.678 100.099 489.468 100.183 489.216 100.183C488.952 100.182 488.736 100.098 488.568 99.9302C488.401 99.7501 488.317 99.5281 488.317 99.2641L488.319 94.4581C488.319 94.0261 488.26 93.6421 488.14 93.306C488.02 92.9579 487.81 92.6818 487.51 92.4777C487.222 92.2615 486.814 92.1533 486.286 92.1531C485.794 92.1528 485.362 92.2606 484.99 92.4764C484.618 92.6802 484.324 92.9561 484.108 93.304C483.904 93.6399 483.801 94.0238 483.801 94.4558L483.799 99.2618C483.799 99.5258 483.709 99.7478 483.528 99.9277C483.36 100.096 483.15 100.179 482.898 100.179C482.634 100.179 482.418 100.095 482.25 99.927C482.083 99.7469 481.999 99.5249 481.999 99.2609L482.003 91.6289C482.003 91.3649 482.087 91.1489 482.255 90.981C482.423 90.8011 482.639 90.7112 482.903 90.7113C483.155 90.7115 483.365 90.8016 483.533 90.9817C483.713 91.1498 483.803 91.3658 483.803 91.6298L483.802 92.6378L483.478 92.8176C483.562 92.5537 483.706 92.2898 483.91 92.0259C484.127 91.75 484.385 91.4981 484.685 91.2703C484.985 91.0304 485.321 90.8446 485.693 90.7128C486.065 90.569 486.461 90.4972 486.881 90.4974ZM497.025 100.367C496.029 100.366 495.165 100.162 494.434 99.7532C493.702 99.3328 493.132 98.7625 492.725 98.0423C492.329 97.3101 492.131 96.476 492.132 95.54C492.132 94.484 492.343 93.5841 492.763 92.8404C493.196 92.0846 493.754 91.5089 494.438 91.1132C495.122 90.7056 495.848 90.5019 496.616 90.5023C497.204 90.5026 497.762 90.6229 498.29 90.8632C498.818 91.0914 499.286 91.4157 499.694 91.8359C500.114 92.2441 500.443 92.7303 500.683 93.2944C500.923 93.8465 501.048 94.4526 501.06 95.1126C501.048 95.3526 500.952 95.5505 500.772 95.7064C500.592 95.8623 500.382 95.9402 500.142 95.9401L493.14 95.9365L492.708 94.4063L499.476 94.4098L499.134 94.7336L499.134 94.2836C499.111 93.8636 498.973 93.4975 498.721 93.1854C498.469 92.8613 498.157 92.6151 497.785 92.4469C497.413 92.2667 497.024 92.1765 496.616 92.1763C496.256 92.1761 495.908 92.236 495.571 92.3558C495.247 92.4636 494.953 92.6435 494.689 92.8953C494.437 93.1472 494.233 93.4831 494.077 93.903C493.932 94.311 493.86 94.8209 493.86 95.4329C493.86 96.0929 493.997 96.669 494.273 97.1611C494.549 97.6533 494.921 98.0375 495.388 98.3137C495.856 98.5779 496.372 98.7102 496.936 98.7105C497.38 98.7107 497.746 98.6689 498.034 98.585C498.322 98.4892 498.562 98.3753 498.754 98.2434C498.947 98.1115 499.115 97.9856 499.259 97.8657C499.439 97.7577 499.619 97.7038 499.799 97.7039C500.015 97.704 500.195 97.7821 500.339 97.9382C500.483 98.0823 500.554 98.2563 500.554 98.4603C500.554 98.7243 500.422 98.9642 500.158 99.1801C499.834 99.4919 499.384 99.7677 498.808 100.007C498.243 100.247 497.649 100.367 497.025 100.367ZM507.849 90.562C508.737 90.5625 509.421 90.7848 509.901 91.2291C510.38 91.6613 510.698 92.2495 510.854 92.9936L510.566 92.9034L510.692 92.6155C510.848 92.3035 511.082 91.9917 511.394 91.6798C511.719 91.356 512.103 91.0922 512.547 90.8884C512.991 90.6726 513.465 90.5649 513.969 90.5651C514.797 90.5656 515.439 90.7459 515.895 91.1061C516.35 91.4543 516.668 91.9285 516.848 92.5286C517.028 93.1167 517.117 93.7767 517.117 94.5087L517.114 99.2787C517.114 99.5427 517.03 99.7647 516.862 99.9446C516.694 100.113 516.478 100.196 516.214 100.196C515.962 100.196 515.746 100.112 515.566 99.9439C515.398 99.7639 515.314 99.5418 515.314 99.2778L515.317 94.5258C515.317 94.1058 515.257 93.7218 515.137 93.3737C515.03 93.0257 514.832 92.7496 514.544 92.5454C514.268 92.3293 513.884 92.2211 513.392 92.2208C512.924 92.2206 512.504 92.3284 512.132 92.5442C511.772 92.748 511.49 93.0239 511.285 93.3718C511.081 93.7197 510.979 94.1036 510.979 94.5236L510.976 99.2756C510.976 99.5396 510.892 99.7616 510.724 99.9415C510.556 100.109 510.34 100.193 510.076 100.193C509.812 100.193 509.596 100.109 509.428 99.9408C509.26 99.7607 509.176 99.5387 509.176 99.2747L509.179 94.5047C509.179 94.0847 509.119 93.7007 509 93.3526C508.892 93.0046 508.7 92.7285 508.424 92.5243C508.148 92.3202 507.764 92.218 507.272 92.2177C506.804 92.2175 506.39 92.3193 506.03 92.5231C505.67 92.7269 505.388 93.0028 505.184 93.3507C504.991 93.6986 504.895 94.0825 504.895 94.5025L504.892 99.2725C504.892 99.5365 504.802 99.7585 504.622 99.9384C504.454 100.106 504.244 100.19 503.992 100.19C503.728 100.19 503.512 100.106 503.344 99.9377C503.176 99.7576 503.092 99.5356 503.092 99.2716L503.096 91.6396C503.097 91.3756 503.181 91.1597 503.349 90.9917C503.517 90.8118 503.733 90.7219 503.997 90.7221C504.249 90.7222 504.459 90.8123 504.627 90.9924C504.807 91.1605 504.897 91.3765 504.896 91.6405L504.896 92.7025L504.554 92.9003C504.638 92.6364 504.776 92.3665 504.968 92.0906C505.16 91.8147 505.4 91.5628 505.689 91.3349C505.989 91.1071 506.319 90.9212 506.679 90.7774C507.039 90.6336 507.429 90.5618 507.849 90.562ZM521.326 99.2809C521.325 99.5449 521.241 99.7668 521.073 99.9467C520.905 100.115 520.689 100.199 520.425 100.198C520.173 100.198 519.957 100.114 519.777 99.9461C519.609 99.766 519.525 99.544 519.526 99.28L519.529 91.576C519.53 91.312 519.614 91.096 519.782 90.9281C519.962 90.7482 520.178 90.6583 520.43 90.6584C520.694 90.6586 520.91 90.7487 521.078 90.9287C521.246 91.0968 521.33 91.3129 521.329 91.5769L521.326 99.2809ZM520.412 89.4704C520.064 89.4702 519.813 89.4101 519.657 89.29C519.501 89.1579 519.423 88.9419 519.423 88.6419L519.423 88.3539C519.423 88.0539 519.507 87.844 519.675 87.724C519.843 87.6041 520.095 87.5443 520.431 87.5444C520.791 87.5446 521.049 87.6107 521.205 87.7428C521.361 87.8629 521.439 88.0669 521.439 88.3549L521.439 88.6429C521.439 88.9549 521.355 89.1709 521.187 89.2908C521.031 89.4107 520.772 89.4706 520.412 89.4704ZM528.629 90.5186C529.481 90.519 530.141 90.6994 530.609 91.0596C531.077 91.4078 531.401 91.882 531.58 92.4821C531.772 93.0702 531.868 93.7302 531.867 94.4622L531.865 99.2862C531.865 99.5502 531.775 99.7722 531.594 99.9521C531.426 100.12 531.216 100.204 530.964 100.204C530.7 100.204 530.484 100.12 530.316 99.9514C530.149 99.7714 530.065 99.5493 530.065 99.2853L530.067 94.4793C530.067 94.0473 530.008 93.6633 529.888 93.3272C529.768 92.9792 529.558 92.7031 529.258 92.4989C528.97 92.2828 528.562 92.1746 528.034 92.1743C527.542 92.174 527.11 92.2818 526.738 92.4976C526.366 92.7014 526.072 92.9773 525.856 93.3252C525.652 93.6611 525.549 94.045 525.549 94.477L525.547 99.283C525.547 99.547 525.457 99.769 525.276 99.9489C525.108 100.117 524.898 100.201 524.646 100.201C524.382 100.2 524.166 100.116 523.998 99.9482C523.831 99.7681 523.747 99.5461 523.747 99.2821L523.751 91.6501C523.751 91.3861 523.835 91.1701 524.003 91.0022C524.171 90.8223 524.387 90.7324 524.651 90.7326C524.903 90.7327 525.113 90.8228 525.281 91.0029C525.461 91.171 525.551 91.387 525.551 91.651L525.55 92.659L525.226 92.8389C525.31 92.5749 525.454 92.311 525.658 92.0471C525.875 91.7712 526.133 91.5193 526.433 91.2915C526.733 91.0516 527.069 90.8658 527.441 90.734C527.813 90.5902 528.209 90.5184 528.629 90.5186ZM535.048 100.188C534.748 100.188 534.514 100.104 534.346 99.9355C534.19 99.7674 534.112 99.5334 534.112 99.2334L534.112 98.9094C534.112 98.6094 534.19 98.3754 534.347 98.2075C534.515 98.0396 534.749 97.9557 535.049 97.9558L535.247 97.9559C535.547 97.9561 535.775 98.0402 535.931 98.2083C536.086 98.3764 536.164 98.6104 536.164 98.9104L536.164 99.2344C536.164 99.5344 536.086 99.7684 535.93 99.9363C535.774 100.104 535.546 100.188 535.246 100.188L535.048 100.188ZM543.938 87.6104C544.814 87.6108 545.588 87.7792 546.26 88.1155C546.932 88.4399 547.49 88.8962 547.933 89.4844C548.389 90.0606 548.731 90.7328 548.958 91.5009C549.186 92.257 549.3 93.0611 549.299 93.9131C549.299 95.0771 549.094 96.139 548.686 97.0988C548.277 98.0466 547.677 98.8023 546.884 99.3659C546.092 99.9295 545.108 100.211 543.932 100.21L539.54 100.208C539.288 100.208 539.072 100.124 538.892 99.9558C538.712 99.7757 538.622 99.5537 538.623 99.2897L538.628 88.5257C538.628 88.2617 538.718 88.0457 538.898 87.8778C539.078 87.6979 539.294 87.608 539.546 87.6081L543.938 87.6104ZM543.753 98.4823C544.605 98.4827 545.295 98.2731 545.823 97.8533C546.351 97.4336 546.736 96.8818 546.976 96.1979C547.228 95.502 547.355 94.7401 547.355 93.9121C547.356 93.3001 547.284 92.7241 547.14 92.184C547.008 91.6319 546.793 91.1458 546.493 90.7257C546.205 90.2935 545.833 89.9573 545.377 89.7171C544.934 89.4649 544.394 89.3386 543.758 89.3383L540.356 89.3365L540.518 89.1746L540.513 98.6606L540.405 98.4806L543.753 98.4823ZM552.353 100.215C552.101 100.215 551.885 100.13 551.705 99.9623C551.537 99.7822 551.453 99.5602 551.453 99.2962L551.459 87.8122C551.459 87.5482 551.543 87.3322 551.711 87.1643C551.892 86.9844 552.108 86.8945 552.36 86.8946C552.624 86.8948 552.84 86.9849 553.007 87.165C553.175 87.3331 553.259 87.5491 553.259 87.8131L553.253 99.2971C553.253 99.5611 553.169 99.7831 553.001 99.963C552.833 100.131 552.617 100.215 552.353 100.215ZM558.226 90.7136C558.454 90.7137 558.652 90.8098 558.819 91.0019C558.987 91.194 559.071 91.3861 559.071 91.5781C559.071 91.8181 558.957 92.04 558.729 92.2439L553.092 97.281L553.021 95.211L557.559 91.0013C557.752 90.8094 557.974 90.7135 558.226 90.7136ZM558.437 100.2C558.185 100.2 557.969 100.097 557.789 99.8934L554.191 96.0936L555.56 94.8343L559.068 98.6341C559.26 98.8382 559.355 99.0662 559.355 99.3182C559.355 99.5822 559.247 99.7981 559.031 99.966C558.827 100.122 558.629 100.2 558.437 100.2ZM561.309 102.595C561.129 102.595 560.949 102.523 560.769 102.379C560.589 102.235 560.499 102.055 560.499 101.839C560.499 101.707 560.535 101.581 560.607 101.461L568.085 86.3266C568.169 86.1587 568.271 86.0327 568.391 85.9488C568.523 85.8649 568.667 85.8229 568.823 85.823C568.991 85.8231 569.159 85.8892 569.327 86.0213C569.507 86.1534 569.597 86.3394 569.597 86.5794C569.597 86.7114 569.567 86.8434 569.507 86.9754L562.029 102.11C561.945 102.266 561.843 102.385 561.723 102.469C561.603 102.553 561.465 102.595 561.309 102.595ZM575.363 100.406C574.499 100.406 573.731 100.286 573.059 100.045C572.387 99.8048 571.746 99.4085 571.134 98.8562C571.002 98.7601 570.9 98.6461 570.828 98.514C570.768 98.37 570.738 98.226 570.738 98.082C570.738 97.854 570.822 97.65 570.991 97.4701C571.159 97.2902 571.369 97.2003 571.621 97.2004C571.813 97.2005 571.993 97.2666 572.161 97.3987C572.616 97.8189 573.09 98.1372 573.582 98.3534C574.086 98.5697 574.674 98.678 575.346 98.6783C575.826 98.6786 576.264 98.6008 576.66 98.445C577.068 98.2892 577.392 98.0794 577.632 97.8155C577.872 97.5516 577.993 97.2457 577.993 96.8977C577.993 96.4657 577.867 96.1116 577.615 95.8355C577.376 95.5474 577.022 95.3132 576.554 95.1329C576.098 94.9407 575.546 94.7784 574.898 94.6461C574.298 94.5378 573.758 94.3875 573.278 94.1953C572.81 94.003 572.408 93.7628 572.073 93.4747C571.737 93.1745 571.479 92.8204 571.299 92.4123C571.119 92.0042 571.03 91.5301 571.03 90.9901C571.03 90.2581 571.223 89.6282 571.607 89.1004C571.991 88.5726 572.513 88.1649 573.173 87.8772C573.834 87.5896 574.578 87.4459 575.406 87.4464C576.162 87.4467 576.87 87.5671 577.529 87.8074C578.189 88.0358 578.723 88.348 579.131 88.7443C579.419 88.9964 579.563 89.2665 579.563 89.5545C579.562 89.7705 579.472 89.9744 579.292 90.1663C579.124 90.3462 578.926 90.4361 578.698 90.436C578.53 90.4359 578.386 90.3879 578.266 90.2918C578.074 90.0877 577.816 89.9076 577.492 89.7514C577.169 89.5833 576.821 89.4451 576.449 89.3369C576.089 89.2287 575.741 89.1745 575.405 89.1744C574.865 89.1741 574.403 89.2519 574.019 89.4077C573.635 89.5515 573.34 89.7553 573.136 90.0192C572.932 90.2711 572.83 90.5711 572.83 90.9191C572.83 91.3271 572.943 91.6631 573.171 91.9272C573.411 92.1913 573.741 92.4075 574.161 92.5757C574.581 92.7319 575.061 92.8762 575.601 93.0085C576.261 93.1528 576.849 93.3151 577.365 93.4954C577.892 93.6756 578.336 93.9098 578.696 94.198C579.056 94.4742 579.332 94.8224 579.524 95.2425C579.715 95.6625 579.811 96.1846 579.811 96.8086C579.81 97.5286 579.606 98.1585 579.198 98.6983C578.79 99.2381 578.249 99.6578 577.577 99.9575C576.917 100.257 576.179 100.407 575.363 100.406ZM581.703 90.8696L585.933 90.8717C586.173 90.8718 586.371 90.9559 586.527 91.124C586.695 91.2801 586.779 91.4781 586.779 91.7181C586.779 91.9461 586.695 92.1381 586.526 92.294C586.37 92.4499 586.172 92.5278 585.932 92.5277L581.702 92.5256C581.462 92.5254 581.258 92.4473 581.09 92.2912C580.935 92.1232 580.857 91.9251 580.857 91.6971C580.857 91.4571 580.935 91.2592 581.091 91.1032C581.259 90.9473 581.463 90.8694 581.703 90.8696ZM583.594 88.5305C583.858 88.5307 584.074 88.6208 584.242 88.8009C584.41 88.9689 584.494 89.185 584.494 89.449L584.49 97.801C584.49 98.017 584.525 98.191 584.597 98.323C584.669 98.4551 584.765 98.5451 584.885 98.5932C585.017 98.6412 585.149 98.6653 585.281 98.6654C585.413 98.6654 585.527 98.6415 585.623 98.5936C585.731 98.5456 585.857 98.5217 586.001 98.5217C586.145 98.5218 586.277 98.5879 586.397 98.7199C586.517 98.852 586.577 99.032 586.577 99.26C586.577 99.548 586.421 99.782 586.109 99.9618C585.796 100.142 585.46 100.231 585.1 100.231C584.896 100.231 584.656 100.213 584.38 100.177C584.104 100.141 583.835 100.051 583.571 99.9065C583.319 99.7624 583.109 99.5343 582.941 99.2222C582.773 98.8981 582.689 98.4481 582.69 97.8721L582.694 89.4481C582.694 89.1841 582.778 88.9681 582.946 88.8002C583.126 88.6203 583.342 88.5304 583.594 88.5305ZM595.829 90.7687C596.081 90.7689 596.291 90.859 596.458 91.0391C596.638 91.2072 596.728 91.4232 596.728 91.6872L596.726 96.4212C596.725 97.6692 596.377 98.647 595.68 99.3547C594.984 100.05 594 100.398 592.728 100.397C591.468 100.397 590.49 100.048 589.794 99.3517C589.111 98.6433 588.769 97.6651 588.77 96.4172L588.772 91.6832C588.772 91.4192 588.856 91.2032 589.024 91.0353C589.193 90.8554 589.409 90.7655 589.673 90.7656C589.925 90.7657 590.135 90.8558 590.302 91.0359C590.482 91.204 590.572 91.4201 590.572 91.6841L590.57 96.4181C590.569 97.1981 590.749 97.7802 591.109 98.1643C591.481 98.5485 592.021 98.7408 592.729 98.7412C593.449 98.7415 593.995 98.5498 594.367 98.166C594.739 97.7822 594.925 97.2003 594.926 96.4203L594.928 91.6863C594.928 91.4223 595.012 91.2063 595.18 91.0384C595.349 90.8585 595.565 90.7686 595.829 90.7687ZM603.637 100.421C602.641 100.42 601.777 100.216 601.045 99.8074C600.313 99.387 599.743 98.8167 599.336 98.0965C598.94 97.3643 598.743 96.5302 598.743 95.5942C598.744 94.5382 598.954 93.6383 599.374 92.8945C599.807 92.1388 600.365 91.563 601.049 91.1674C601.734 90.7597 602.46 90.5561 603.228 90.5565C603.816 90.5568 604.374 90.6771 604.901 90.9174C605.429 91.1456 605.897 91.4699 606.305 91.8901C606.725 92.2983 607.055 92.7844 607.294 93.3486C607.534 93.9007 607.66 94.5068 607.671 95.1668C607.659 95.4068 607.563 95.6047 607.383 95.7606C607.203 95.9165 606.993 95.9944 606.753 95.9943L599.751 95.9907L599.32 94.4605L606.088 94.464L605.746 94.7878L605.746 94.3378C605.722 93.9178 605.584 93.5517 605.332 93.2396C605.08 92.9154 604.769 92.6693 604.397 92.5011C604.025 92.3209 603.635 92.2307 603.227 92.2305C602.867 92.2303 602.519 92.2901 602.183 92.41C601.859 92.5178 601.565 92.6977 601.3 92.9495C601.048 93.2014 600.844 93.5373 600.688 93.9572C600.544 94.3651 600.471 94.8751 600.471 95.4871C600.471 96.1471 600.609 96.7232 600.884 97.2153C601.16 97.7074 601.532 98.0916 602 98.3679C602.468 98.6321 602.984 98.7644 603.548 98.7647C603.992 98.7649 604.358 98.7231 604.646 98.6392C604.934 98.5434 605.174 98.4295 605.366 98.2976C605.558 98.1657 605.726 98.0398 605.87 97.9198C606.05 97.8119 606.23 97.758 606.41 97.7581C606.626 97.7582 606.806 97.8363 606.95 97.9924C607.094 98.1365 607.166 98.3105 607.166 98.5145C607.166 98.7785 607.033 99.0184 606.769 99.2343C606.445 99.5461 605.995 99.8219 605.419 100.062C604.855 100.301 604.261 100.421 603.637 100.421ZM614.586 90.5623C615.438 90.5627 616.098 90.743 616.566 91.1033C617.034 91.4515 617.358 91.9257 617.537 92.5258C617.729 93.1139 617.825 93.7739 617.824 94.5059L617.822 99.3299C617.822 99.5939 617.732 99.8159 617.551 99.9958C617.383 100.164 617.173 100.248 616.921 100.247C616.657 100.247 616.441 100.163 616.273 99.9951C616.106 99.815 616.022 99.593 616.022 99.329L616.024 94.523C616.024 94.091 615.965 93.707 615.845 93.3709C615.725 93.0229 615.515 92.7467 615.215 92.5426C614.927 92.3264 614.519 92.2182 613.991 92.218C613.499 92.2177 613.067 92.3255 612.695 92.5413C612.323 92.7451 612.029 93.021 611.813 93.3689C611.609 93.7048 611.506 94.0887 611.506 94.5207L611.504 99.3267C611.504 99.5907 611.414 99.8127 611.233 99.9926C611.065 100.16 610.855 100.244 610.603 100.244C610.339 100.244 610.123 100.16 609.955 99.9919C609.788 99.8118 609.704 99.5898 609.704 99.3258L609.708 91.6938C609.708 91.4298 609.792 91.2138 609.96 91.0459C610.128 90.866 610.344 90.7761 610.608 90.7763C610.86 90.7764 611.07 90.8665 611.238 91.0466C611.418 91.2147 611.508 91.4307 611.508 91.6947L611.507 92.7027L611.183 92.8825C611.267 92.6186 611.411 92.3547 611.615 92.0908C611.832 91.8149 612.09 91.563 612.39 91.3352C612.69 91.0953 613.026 90.9095 613.398 90.7777C613.77 90.6339 614.166 90.5621 614.586 90.5623ZM623.272 100.251C622.996 100.251 622.769 100.166 622.589 99.9983C622.409 99.8182 622.319 99.5962 622.319 99.3322L622.324 89.6842L622.558 90.0083L620.883 91.1775C620.739 91.2974 620.565 91.3573 620.361 91.3572C620.121 91.3571 619.905 91.267 619.713 91.0869C619.533 90.8948 619.443 90.6727 619.443 90.4207C619.444 90.1087 619.6 89.8508 619.912 89.647L622.649 87.8304C622.757 87.7584 622.871 87.7105 622.991 87.6865C623.123 87.6626 623.243 87.6507 623.351 87.6507C623.627 87.6509 623.849 87.741 624.017 87.9211C624.185 88.0892 624.269 88.3052 624.268 88.5692L624.263 99.3332C624.263 99.5972 624.167 99.8191 623.975 99.999C623.795 100.167 623.56 100.251 623.272 100.251ZM627.174 102.629C626.994 102.629 626.814 102.556 626.634 102.412C626.454 102.268 626.364 102.088 626.364 101.872C626.364 101.74 626.4 101.614 626.472 101.494L633.95 86.3601C634.034 86.1922 634.136 86.0662 634.256 85.9823C634.388 85.8983 634.532 85.8564 634.688 85.8565C634.856 85.8566 635.024 85.9227 635.192 86.0547C635.372 86.1868 635.462 86.3729 635.462 86.6129C635.462 86.7449 635.432 86.8769 635.372 87.0088L627.894 102.143C627.81 102.299 627.708 102.419 627.588 102.503C627.468 102.587 627.33 102.629 627.174 102.629ZM639.249 99.3408C639.237 99.6048 639.135 99.8267 638.942 100.007C638.762 100.175 638.546 100.258 638.294 100.258C638.018 100.258 637.79 100.174 637.61 100.006C637.443 99.8259 637.359 99.6038 637.359 99.3398L637.364 88.5758C637.364 88.3118 637.455 88.0959 637.635 87.928C637.815 87.7481 638.049 87.6582 638.337 87.6583C638.577 87.6585 638.787 87.7486 638.967 87.9287C639.159 88.0968 639.254 88.3128 639.254 88.5768L639.249 99.3408ZM646.842 90.5787C647.694 90.5791 648.354 90.7594 648.822 91.1197C649.29 91.4679 649.613 91.9421 649.793 92.5422C649.985 93.1303 650.08 93.7903 650.08 94.5223L650.078 99.3463C650.077 99.6103 649.987 99.8323 649.807 100.012C649.639 100.18 649.429 100.264 649.177 100.264C648.913 100.264 648.697 100.18 648.529 100.012C648.361 99.8314 648.277 99.6094 648.278 99.3454L648.28 94.5394C648.28 94.1074 648.22 93.7234 648.101 93.3873C647.981 93.0392 647.771 92.7631 647.471 92.559C647.183 92.3428 646.775 92.2346 646.247 92.2344C645.755 92.2341 645.323 92.3419 644.951 92.5577C644.579 92.7615 644.285 93.0374 644.069 93.3853C643.864 93.7212 643.762 94.1051 643.762 94.5371L643.76 99.3431C643.759 99.6071 643.669 99.8291 643.489 100.009C643.321 100.177 643.111 100.261 642.859 100.261C642.595 100.261 642.379 100.176 642.211 100.008C642.043 99.8282 641.959 99.6062 641.96 99.3422L641.964 91.7102C641.964 91.4462 642.048 91.2302 642.216 91.0623C642.384 90.8824 642.6 90.7925 642.864 90.7926C643.116 90.7928 643.326 90.8829 643.494 91.063C643.674 91.2311 643.764 91.4471 643.764 91.7111L643.763 92.7191L643.439 92.8989C643.523 92.635 643.667 92.3711 643.871 92.1072C644.087 91.8313 644.346 91.5794 644.646 91.3515C644.946 91.1117 645.282 90.9259 645.654 90.7941C646.026 90.6503 646.422 90.5785 646.842 90.5787ZM660.341 86.9495C660.605 86.9497 660.821 87.0338 660.989 87.2019C661.157 87.3699 661.241 87.592 661.241 87.868L661.235 99.352C661.235 99.616 661.151 99.8379 660.982 100.018C660.814 100.186 660.598 100.27 660.334 100.27C660.082 100.269 659.866 100.185 659.686 100.017C659.519 99.8371 659.435 99.6151 659.435 99.3511L659.435 98.0551L659.813 98.0733C659.813 98.2893 659.723 98.5352 659.543 98.8111C659.375 99.075 659.141 99.3329 658.841 99.5848C658.541 99.8366 658.186 100.046 657.778 100.214C657.37 100.37 656.932 100.448 656.464 100.448C655.636 100.447 654.892 100.237 654.233 99.8164C653.573 99.3841 653.051 98.8018 652.667 98.0696C652.284 97.3254 652.092 96.4733 652.093 95.5133C652.093 94.5533 652.286 93.7074 652.67 92.9756C653.054 92.2318 653.571 91.6501 654.219 91.2304C654.879 90.7988 655.611 90.5831 656.415 90.5835C656.919 90.5838 657.387 90.668 657.819 90.8362C658.263 91.0045 658.647 91.2207 658.971 91.4848C659.295 91.749 659.547 92.0311 659.726 92.3312C659.906 92.6193 659.996 92.8954 659.996 93.1594L659.438 93.2131L659.441 87.8671C659.441 87.6031 659.525 87.3871 659.693 87.2192C659.873 87.0393 660.089 86.9494 660.341 86.9495ZM656.663 98.7917C657.239 98.7919 657.737 98.6482 658.157 98.3604C658.589 98.0726 658.926 97.6828 659.166 97.1909C659.406 96.699 659.526 96.1411 659.527 95.5171C659.527 94.8931 659.407 94.3351 659.168 93.8429C658.928 93.3508 658.592 92.9606 658.16 92.6724C657.728 92.3842 657.23 92.2399 656.666 92.2397C656.114 92.2394 655.622 92.3831 655.19 92.6709C654.77 92.9587 654.434 93.3485 654.182 93.8404C653.941 94.3323 653.821 94.8902 653.821 95.5142C653.82 96.1382 653.94 96.6963 654.18 97.1884C654.432 97.6805 654.767 98.0707 655.187 98.3589C655.619 98.6471 656.111 98.7914 656.663 98.7917ZM668.166 100.454C667.17 100.453 666.306 100.249 665.574 99.8402C664.842 99.4198 664.273 98.8495 663.865 98.1293C663.469 97.3971 663.272 96.563 663.272 95.627C663.273 94.571 663.483 93.6711 663.904 92.9273C664.336 92.1716 664.894 91.5958 665.579 91.2002C666.263 90.7925 666.989 90.5889 667.757 90.5893C668.345 90.5896 668.903 90.7099 669.431 90.9501C669.959 91.1784 670.426 91.5027 670.834 91.9229C671.254 92.3311 671.584 92.8172 671.824 93.3814C672.063 93.9335 672.189 94.5395 672.201 95.1996C672.188 95.4395 672.092 95.6375 671.912 95.7934C671.732 95.9493 671.522 96.0272 671.282 96.0271L664.28 96.0235L663.849 94.4933L670.617 94.4967L670.275 94.8206L670.275 94.3706C670.251 93.9506 670.113 93.5845 669.862 93.2724C669.61 92.9482 669.298 92.7021 668.926 92.5339C668.554 92.3537 668.164 92.2635 667.756 92.2633C667.396 92.2631 667.048 92.3229 666.712 92.4428C666.388 92.5506 666.094 92.7304 665.83 92.9823C665.578 93.2342 665.373 93.5701 665.217 93.99C665.073 94.3979 665.001 94.9079 665 95.5199C665 96.1799 665.138 96.756 665.414 97.2481C665.689 97.7402 666.061 98.1244 666.529 98.4007C666.997 98.6649 667.513 98.7972 668.077 98.7975C668.521 98.7977 668.887 98.7559 669.175 98.672C669.463 98.5762 669.703 98.4623 669.895 98.3304C670.087 98.1985 670.255 98.0726 670.399 97.9526C670.579 97.8447 670.759 97.7908 670.939 97.7909C671.155 97.791 671.335 97.8691 671.479 98.0252C671.623 98.1693 671.695 98.3433 671.695 98.5473C671.695 98.8113 671.563 99.0512 671.299 99.2671C670.974 99.5789 670.524 99.8547 669.948 100.094C669.384 100.334 668.79 100.454 668.166 100.454ZM674.238 90.7546C674.538 90.7547 674.784 90.8809 674.976 91.133L681.11 98.8761C681.242 99.0321 681.308 99.2122 681.308 99.4162C681.308 99.6562 681.212 99.8661 681.02 100.046C680.827 100.226 680.617 100.316 680.389 100.316C680.101 100.316 679.855 100.189 679.652 99.9373L673.518 92.1942C673.386 92.0382 673.32 91.8581 673.32 91.6541C673.32 91.4021 673.41 91.1922 673.59 91.0243C673.782 90.8444 673.998 90.7545 674.238 90.7546ZM674.251 100.313C674.047 100.312 673.849 100.234 673.658 100.078C673.466 99.9222 673.37 99.7301 673.37 99.5021C673.37 99.2981 673.442 99.1122 673.586 98.9443L676.45 95.3997L677.367 96.8762L674.972 99.935C674.779 100.187 674.539 100.313 674.251 100.313ZM680.376 90.7577C680.628 90.7578 680.832 90.8419 680.988 91.01C681.156 91.1661 681.24 91.3521 681.24 91.5681C681.24 91.6641 681.222 91.7661 681.186 91.8741C681.162 91.9701 681.108 92.0601 681.024 92.144L678.196 95.6886L677.26 94.3561L679.656 91.1713C679.86 90.8954 680.1 90.7576 680.376 90.7577ZM683.635 100.263C683.335 100.263 683.101 100.179 682.933 100.011C682.778 99.8429 682.7 99.6089 682.7 99.3089L682.7 98.9849C682.7 98.6849 682.778 98.4509 682.934 98.283C683.102 98.1151 683.336 98.0312 683.636 98.0314L683.834 98.0315C684.134 98.0316 684.362 98.1157 684.518 98.2838C684.674 98.4519 684.752 98.6859 684.752 98.9859L684.752 99.3099C684.752 99.6099 684.674 99.8439 684.517 100.012C684.361 100.18 684.133 100.264 683.833 100.263L683.635 100.263ZM688.188 87.6837C688.428 87.6838 688.638 87.7739 688.818 87.954C689.01 88.1221 689.106 88.3381 689.106 88.6021L689.1 99.3661C689.088 99.6301 688.986 99.8521 688.794 100.032C688.614 100.2 688.398 100.284 688.146 100.284C687.87 100.284 687.642 100.199 687.462 100.031C687.294 99.8512 687.21 99.6292 687.21 99.3652L687.216 88.6012C687.216 88.3372 687.306 88.1212 687.486 87.9533C687.666 87.7734 687.9 87.6835 688.188 87.6837ZM696.306 87.6878C696.594 87.688 696.822 87.7781 696.99 87.9582C697.158 88.1262 697.242 88.3423 697.242 88.6063L697.236 99.3703C697.236 99.6343 697.146 99.8562 696.966 100.036C696.798 100.204 696.57 100.288 696.282 100.288C696.03 100.288 695.814 100.204 695.634 100.035C695.454 99.8554 695.364 99.6333 695.364 99.3693L695.37 88.6053C695.37 88.3413 695.46 88.1254 695.64 87.9575C695.832 87.7776 696.054 87.6877 696.306 87.6878ZM688.114 93.0476L696.322 93.0518L696.303 94.7798L688.095 94.7756L688.114 93.0476ZM699.828 90.9296L704.058 90.9317C704.298 90.9319 704.496 91.016 704.652 91.184C704.82 91.3401 704.904 91.5382 704.904 91.7782C704.904 92.0062 704.819 92.1981 704.651 92.354C704.495 92.51 704.297 92.5879 704.057 92.5877L699.827 92.5856C699.587 92.5855 699.383 92.5074 699.215 92.3513C699.059 92.1832 698.982 91.9852 698.982 91.7572C698.982 91.5172 699.06 91.3192 699.216 91.1633C699.384 91.0074 699.588 90.9295 699.828 90.9296ZM701.719 88.5906C701.983 88.5907 702.199 88.6808 702.367 88.8609C702.535 89.029 702.619 89.245 702.619 89.509L702.615 97.861C702.615 98.077 702.65 98.251 702.722 98.3831C702.794 98.5151 702.89 98.6051 703.01 98.6532C703.142 98.7013 703.274 98.7253 703.406 98.7254C703.538 98.7255 703.652 98.7015 703.748 98.6536C703.856 98.6056 703.982 98.5817 704.126 98.5818C704.27 98.5819 704.402 98.6479 704.522 98.78C704.642 98.912 704.702 99.0921 704.702 99.3201C704.702 99.6081 704.546 99.842 704.234 100.022C703.921 100.202 703.585 100.292 703.225 100.291C703.021 100.291 702.781 100.273 702.505 100.237C702.229 100.201 701.959 100.111 701.696 99.9665C701.444 99.8224 701.234 99.5943 701.066 99.2822C700.898 98.9581 700.814 98.5081 700.815 97.9321L700.819 89.5081C700.819 89.2441 700.903 89.0281 701.071 88.8602C701.251 88.6803 701.467 88.5904 701.719 88.5906ZM711.65 90.6656C712.538 90.6661 713.222 90.8884 713.701 91.3326C714.181 91.7649 714.499 92.3531 714.654 93.0971L714.366 93.007L714.493 92.719C714.649 92.4071 714.883 92.0952 715.195 91.7834C715.519 91.4596 715.903 91.1958 716.347 90.992C716.792 90.7762 717.266 90.6685 717.77 90.6687C718.598 90.6691 719.24 90.8495 719.695 91.2097C720.151 91.5579 720.469 92.0321 720.649 92.6322C720.828 93.2203 720.918 93.8803 720.918 94.6123L720.915 99.3823C720.915 99.6463 720.831 99.8683 720.663 100.048C720.495 100.216 720.279 100.3 720.015 100.3C719.763 100.3 719.547 100.216 719.367 100.048C719.199 99.8674 719.115 99.6454 719.115 99.3814L719.118 94.6294C719.118 94.2094 719.058 93.8254 718.938 93.4773C718.83 93.1293 718.633 92.8532 718.345 92.649C718.069 92.4329 717.685 92.3247 717.193 92.3244C716.725 92.3242 716.305 92.432 715.933 92.6478C715.573 92.8516 715.29 93.1275 715.086 93.4753C714.882 93.8232 714.78 94.2072 714.78 94.6272L714.777 99.3792C714.777 99.6432 714.693 99.8651 714.525 100.045C714.357 100.213 714.141 100.297 713.877 100.297C713.613 100.297 713.397 100.212 713.229 100.044C713.061 99.8643 712.977 99.6423 712.977 99.3783L712.98 94.6083C712.98 94.1883 712.92 93.8042 712.8 93.4562C712.692 93.1081 712.501 92.832 712.225 92.6279C711.949 92.4238 711.565 92.3216 711.073 92.3213C710.605 92.3211 710.191 92.4229 709.831 92.6267C709.471 92.8305 709.188 93.1064 708.984 93.4542C708.792 93.8021 708.696 94.1861 708.696 94.6061L708.693 99.3761C708.693 99.6401 708.603 99.8621 708.423 100.042C708.255 100.21 708.045 100.294 707.793 100.294C707.529 100.294 707.313 100.209 707.145 100.041C706.977 99.8612 706.893 99.6392 706.893 99.3752L706.897 91.7432C706.897 91.4792 706.981 91.2632 707.149 91.0953C707.318 90.9154 707.534 90.8255 707.798 90.8256C708.05 90.8258 708.26 90.9159 708.427 91.096C708.607 91.2641 708.697 91.4801 708.697 91.7441L708.697 92.8061L708.354 93.0039C708.439 92.74 708.577 92.47 708.769 92.1941C708.961 91.9182 709.201 91.6664 709.489 91.4385C709.789 91.2107 710.119 91.0248 710.48 90.881C710.84 90.7372 711.23 90.6654 711.65 90.6656ZM725.378 99.3846C725.378 99.6486 725.288 99.8705 725.108 100.05C724.94 100.218 724.73 100.302 724.478 100.302C724.226 100.302 724.01 100.218 723.83 100.05C723.662 99.8697 723.578 99.6477 723.578 99.3837L723.584 87.8997C723.584 87.6357 723.674 87.4197 723.854 87.2518C724.034 87.0719 724.251 86.982 724.503 86.9821C724.767 86.9823 724.976 87.0724 725.132 87.2525C725.3 87.4205 725.384 87.6366 725.384 87.9006L725.378 99.3846Z" fill="black"/>
</svg>
