<svg width="774" height="352" viewBox="0 0 774 352" fill="none" xmlns="http://www.w3.org/2000/svg">
<path d="M49.5858 268.472C20.1026 236.189 26.5924 187.888 64.0812 160.588C101.57 133.288 155.861 137.328 185.345 169.611C214.828 201.894 208.338 250.196 170.849 277.496C133.361 304.796 79.069 300.756 49.5858 268.472Z" fill="#FCD993"/>
<path d="M97.8012 242.827C69.3851 211.712 76.2574 164.709 113.151 137.842C150.045 110.976 202.989 114.42 231.405 145.535C259.821 176.649 252.949 223.653 216.055 250.519C179.162 277.386 126.217 273.941 97.8012 242.827Z" fill="#FFFBF5"/>
<path d="M132.657 160.419C133.81 160.522 136.707 160.816 139.718 162.876C140.828 163.635 142.553 164.845 143.855 167.22C145.224 169.718 145.333 172.059 145.35 172.601C145.367 173.165 145.407 175.772 143.952 178.58C142.55 181.286 140.558 182.64 139.253 183.504C138.64 183.909 135.605 185.854 131.22 186.04C129.886 186.096 126.629 186.192 123.149 184.227C121.924 183.536 119.676 182.227 118.076 179.395C117.632 178.609 116.542 176.624 116.474 173.773C116.458 173.077 116.469 170.876 117.609 168.443C118.428 166.696 119.453 165.633 120.105 164.969C121.88 163.161 123.676 162.326 124.841 161.799C126.349 161.115 127.563 160.824 127.942 160.739C128.835 160.536 130.54 160.233 132.656 160.422L132.657 160.419Z" fill="#FFD278" fill-opacity="0.78" stroke="white" stroke-width="0.25" stroke-linecap="round" stroke-linejoin="round"/>
<path d="M134.422 239.159C134.702 239.159 134.935 239.253 135.122 239.439C135.322 239.626 135.422 239.86 135.422 240.14C135.421 240.42 135.321 240.653 135.121 240.839C134.935 241.026 134.701 241.119 134.421 241.119L127.701 241.116C127.408 241.115 127.161 241.022 126.961 240.835C126.775 240.635 126.681 240.388 126.682 240.095L126.688 228.135C126.688 227.842 126.788 227.602 126.988 227.415C127.188 227.215 127.448 227.115 127.768 227.116C128.035 227.116 128.268 227.216 128.468 227.416C128.681 227.603 128.788 227.843 128.788 228.136L128.782 239.496L128.362 239.156L134.422 239.159ZM139.377 240.102C139.377 240.395 139.283 240.641 139.096 240.841C138.91 241.028 138.67 241.121 138.376 241.121C138.096 241.121 137.856 241.027 137.656 240.841C137.47 240.641 137.377 240.394 137.377 240.101L137.381 231.541C137.381 231.247 137.475 231.007 137.662 230.821C137.862 230.621 138.102 230.521 138.382 230.521C138.675 230.521 138.915 230.621 139.102 230.821C139.288 231.008 139.381 231.248 139.381 231.542L139.377 240.102ZM138.362 229.201C137.976 229.201 137.696 229.134 137.522 229.001C137.349 228.854 137.263 228.614 137.263 228.28L137.263 227.96C137.263 227.627 137.357 227.394 137.543 227.261C137.73 227.127 138.01 227.061 138.383 227.061C138.783 227.061 139.07 227.135 139.243 227.281C139.417 227.415 139.503 227.642 139.503 227.962L139.503 228.282C139.503 228.628 139.409 228.868 139.222 229.001C139.049 229.135 138.762 229.201 138.362 229.201ZM147.492 230.366C148.439 230.366 149.172 230.567 149.692 230.967C150.212 231.354 150.571 231.881 150.771 232.547C150.984 233.201 151.09 233.934 151.09 234.747L151.087 240.107C151.087 240.401 150.987 240.647 150.787 240.847C150.6 241.034 150.367 241.127 150.087 241.127C149.793 241.127 149.553 241.033 149.367 240.847C149.18 240.647 149.087 240.4 149.087 240.106L149.09 234.766C149.09 234.286 149.024 233.86 148.89 233.486C148.757 233.1 148.524 232.793 148.191 232.566C147.871 232.326 147.418 232.206 146.831 232.205C146.284 232.205 145.804 232.325 145.391 232.565C144.977 232.791 144.651 233.098 144.41 233.484C144.184 233.857 144.07 234.284 144.07 234.764L144.067 240.104C144.067 240.397 143.967 240.644 143.767 240.844C143.58 241.03 143.347 241.124 143.067 241.123C142.773 241.123 142.533 241.03 142.347 240.843C142.16 240.643 142.067 240.396 142.067 240.103L142.071 231.623C142.072 231.33 142.165 231.09 142.352 230.903C142.539 230.703 142.779 230.603 143.072 230.603C143.352 230.604 143.585 230.704 143.772 230.904C143.972 231.091 144.072 231.331 144.071 231.624L144.071 232.744L143.711 232.944C143.804 232.65 143.964 232.357 144.191 232.064C144.431 231.757 144.718 231.478 145.052 231.224C145.385 230.958 145.759 230.751 146.172 230.605C146.585 230.445 147.025 230.365 147.492 230.366ZM155.023 241.129C154.743 241.129 154.504 241.036 154.304 240.849C154.117 240.649 154.024 240.402 154.024 240.109L154.03 227.349C154.031 227.056 154.124 226.816 154.311 226.629C154.511 226.429 154.751 226.329 155.031 226.329C155.324 226.33 155.564 226.43 155.751 226.63C155.937 226.817 156.031 227.057 156.03 227.35L156.024 240.11C156.024 240.403 155.93 240.65 155.744 240.85C155.557 241.036 155.317 241.13 155.023 241.129ZM161.549 230.573C161.802 230.573 162.022 230.68 162.209 230.893C162.395 231.107 162.488 231.32 162.488 231.533C162.488 231.8 162.361 232.047 162.108 232.273L155.845 237.87L155.766 235.57L160.809 230.892C161.022 230.679 161.269 230.573 161.549 230.573ZM161.783 241.113C161.503 241.113 161.264 240.999 161.064 240.773L157.066 236.551L158.587 235.151L162.484 239.373C162.698 239.6 162.804 239.853 162.804 240.133C162.804 240.427 162.684 240.667 162.444 240.853C162.217 241.026 161.997 241.113 161.783 241.113ZM175.362 241.14C175.042 241.14 174.782 241.046 174.582 240.859C174.396 240.659 174.303 240.413 174.303 240.119L174.309 228.139L176.449 228.14L176.443 240.12C176.443 240.414 176.336 240.66 176.122 240.86C175.922 241.047 175.669 241.14 175.362 241.14ZM170.828 229.058C170.548 229.057 170.308 228.971 170.108 228.797C169.909 228.61 169.809 228.37 169.809 228.077C169.809 227.797 169.909 227.57 170.109 227.397C170.309 227.224 170.549 227.137 170.829 227.138L179.929 227.142C180.209 227.142 180.443 227.236 180.629 227.422C180.829 227.596 180.929 227.823 180.929 228.103C180.929 228.396 180.829 228.629 180.628 228.802C180.442 228.976 180.208 229.062 179.928 229.062L170.828 229.058ZM184.846 240.125C184.845 240.418 184.752 240.665 184.565 240.864C184.378 241.051 184.138 241.144 183.845 241.144C183.565 241.144 183.325 241.051 183.125 240.864C182.939 240.664 182.845 240.417 182.846 240.124L182.85 231.564C182.85 231.27 182.943 231.03 183.13 230.844C183.33 230.644 183.57 230.544 183.85 230.544C184.144 230.544 184.384 230.644 184.57 230.844C184.757 231.031 184.85 231.271 184.85 231.565L184.846 240.125ZM183.831 229.224C183.444 229.224 183.164 229.157 182.991 229.024C182.818 228.877 182.731 228.637 182.732 228.304L182.732 227.984C182.732 227.65 182.825 227.417 183.012 227.284C183.199 227.15 183.479 227.084 183.852 227.084C184.252 227.084 184.539 227.158 184.712 227.305C184.885 227.438 184.972 227.665 184.972 227.985L184.972 228.305C184.971 228.651 184.878 228.891 184.691 229.025C184.518 229.158 184.231 229.224 183.831 229.224ZM189.696 240.127C189.696 240.42 189.596 240.667 189.395 240.867C189.209 241.054 188.975 241.147 188.695 241.147C188.415 241.146 188.175 241.053 187.975 240.866C187.789 240.666 187.696 240.419 187.696 240.126L187.702 227.366C187.702 227.073 187.803 226.833 188.003 226.646C188.203 226.446 188.443 226.346 188.723 226.347C189.016 226.347 189.249 226.447 189.423 226.647C189.609 226.834 189.702 227.074 189.702 227.367L189.696 240.127ZM199.546 227.152C199.812 227.152 200.046 227.252 200.245 227.452C200.459 227.639 200.565 227.879 200.565 228.173L200.559 240.133C200.545 240.426 200.432 240.673 200.219 240.872C200.019 241.059 199.778 241.152 199.498 241.152C199.192 241.152 198.939 241.058 198.739 240.872C198.552 240.672 198.459 240.425 198.459 240.132L198.465 228.172C198.465 227.878 198.565 227.638 198.765 227.452C198.966 227.252 199.226 227.152 199.546 227.152ZM208.566 227.157C208.886 227.157 209.139 227.257 209.325 227.457C209.512 227.644 209.605 227.884 209.605 228.177L209.599 240.137C209.599 240.431 209.499 240.677 209.299 240.877C209.112 241.064 208.858 241.157 208.538 241.157C208.258 241.157 208.019 241.063 207.819 240.876C207.619 240.676 207.519 240.429 207.519 240.136L207.525 228.176C207.525 227.883 207.625 227.643 207.825 227.456C208.039 227.256 208.286 227.157 208.566 227.157ZM199.463 233.112L208.583 233.117L208.562 235.037L199.442 235.032L199.463 233.112ZM214.893 241.6C214.893 242.32 214.746 242.94 214.452 243.46C214.159 243.98 213.772 244.379 213.292 244.659C212.812 244.939 212.298 245.079 211.751 245.078C211.471 245.078 211.245 244.985 211.072 244.798C210.898 244.625 210.812 244.411 210.812 244.158L210.812 243.978C210.812 243.738 210.899 243.545 211.072 243.398C211.232 243.251 211.432 243.138 211.672 243.058C211.979 242.965 212.219 242.825 212.393 242.639C212.579 242.465 212.706 242.239 212.773 241.959C212.853 241.692 212.893 241.399 212.893 241.079L212.898 231.639C212.898 231.359 212.992 231.126 213.179 230.939C213.365 230.739 213.605 230.639 213.899 230.639C214.192 230.64 214.432 230.74 214.619 230.94C214.805 231.127 214.898 231.36 214.898 231.64L214.893 241.6ZM213.86 229.239C213.473 229.239 213.193 229.172 213.02 229.039C212.846 228.892 212.76 228.652 212.76 228.319L212.76 227.999C212.76 227.665 212.854 227.432 213.041 227.299C213.227 227.166 213.507 227.099 213.881 227.099C214.281 227.1 214.567 227.173 214.74 227.32C214.914 227.453 215 227.68 215 228L215 228.32C215 228.667 214.906 228.907 214.72 229.04C214.546 229.173 214.26 229.24 213.86 229.239ZM222.982 241.364C221.875 241.363 220.916 241.136 220.102 240.683C219.289 240.215 218.656 239.582 218.203 238.782C217.764 237.968 217.544 237.041 217.545 236.001C217.545 234.828 217.779 233.828 218.246 233.002C218.727 232.162 219.347 231.522 220.107 231.083C220.868 230.63 221.674 230.403 222.528 230.404C223.181 230.404 223.801 230.538 224.387 230.805C224.974 231.058 225.494 231.419 225.947 231.886C226.413 232.339 226.78 232.879 227.046 233.506C227.312 234.12 227.452 234.793 227.465 235.526C227.452 235.793 227.345 236.013 227.145 236.186C226.945 236.359 226.711 236.446 226.445 236.446L218.665 236.442L218.185 234.742L225.705 234.745L225.325 235.105L225.326 234.605C225.299 234.139 225.146 233.732 224.866 233.385C224.586 233.025 224.24 232.751 223.827 232.564C223.413 232.364 222.98 232.264 222.527 232.264C222.127 232.264 221.74 232.33 221.367 232.463C221.007 232.583 220.68 232.783 220.386 233.063C220.106 233.343 219.879 233.716 219.706 234.182C219.546 234.636 219.465 235.202 219.465 235.882C219.465 236.616 219.618 237.256 219.924 237.802C220.23 238.349 220.643 238.776 221.163 239.083C221.683 239.377 222.256 239.524 222.883 239.524C223.376 239.524 223.783 239.478 224.103 239.385C224.423 239.278 224.69 239.152 224.903 239.005C225.117 238.858 225.303 238.719 225.464 238.585C225.664 238.465 225.864 238.405 226.064 238.406C226.304 238.406 226.504 238.492 226.663 238.666C226.823 238.826 226.903 239.019 226.903 239.246C226.903 239.539 226.756 239.806 226.463 240.046C226.103 240.392 225.602 240.699 224.962 240.965C224.336 241.231 223.675 241.364 222.982 241.364ZM235.008 230.47C235.995 230.471 236.755 230.718 237.288 231.211C237.821 231.692 238.174 232.345 238.347 233.172L238.027 233.072L238.167 232.752C238.341 232.405 238.601 232.059 238.948 231.712C239.308 231.352 239.735 231.059 240.228 230.833C240.722 230.593 241.248 230.473 241.808 230.474C242.728 230.474 243.441 230.674 243.948 231.075C244.454 231.462 244.807 231.988 245.007 232.655C245.207 233.309 245.306 234.042 245.306 234.855L245.303 240.155C245.303 240.449 245.21 240.695 245.023 240.895C244.836 241.082 244.596 241.175 244.303 241.175C244.023 241.175 243.783 241.081 243.583 240.894C243.396 240.694 243.303 240.448 243.303 240.154L243.306 234.874C243.306 234.408 243.24 233.981 243.107 233.594C242.987 233.208 242.767 232.901 242.447 232.674C242.141 232.434 241.714 232.314 241.167 232.313C240.647 232.313 240.181 232.433 239.767 232.673C239.367 232.899 239.054 233.206 238.827 233.592C238.6 233.979 238.486 234.405 238.486 234.872L238.483 240.152C238.483 240.445 238.39 240.692 238.203 240.892C238.016 241.078 237.776 241.172 237.483 241.171C237.189 241.171 236.95 241.078 236.763 240.891C236.576 240.691 236.483 240.444 236.483 240.151L236.486 234.851C236.486 234.384 236.42 233.958 236.287 233.571C236.167 233.184 235.954 232.877 235.647 232.65C235.341 232.424 234.914 232.31 234.367 232.31C233.847 232.31 233.387 232.423 232.987 232.649C232.587 232.876 232.274 233.182 232.047 233.569C231.833 233.955 231.726 234.382 231.726 234.848L231.723 240.148C231.723 240.442 231.623 240.688 231.423 240.888C231.236 241.075 231.003 241.168 230.723 241.168C230.429 241.168 230.19 241.074 230.003 240.888C229.816 240.687 229.723 240.441 229.723 240.147L229.728 231.667C229.728 231.374 229.821 231.134 230.008 230.948C230.195 230.748 230.435 230.648 230.728 230.648C231.008 230.648 231.241 230.748 231.428 230.948C231.628 231.135 231.728 231.375 231.728 231.668L231.727 232.848L231.347 233.068C231.44 232.775 231.594 232.475 231.807 232.169C232.021 231.862 232.288 231.582 232.608 231.329C232.941 231.076 233.308 230.869 233.708 230.709C234.108 230.55 234.542 230.47 235.008 230.47ZM253.387 230.479C254.374 230.48 255.134 230.727 255.667 231.221C256.2 231.701 256.553 232.354 256.726 233.181L256.406 233.081L256.546 232.761C256.72 232.414 256.98 232.068 257.327 231.721C257.687 231.362 258.114 231.069 258.607 230.842C259.1 230.602 259.627 230.483 260.187 230.483C261.107 230.483 261.82 230.684 262.327 231.084C262.833 231.471 263.186 231.998 263.386 232.665C263.586 233.318 263.685 234.051 263.685 234.865L263.682 240.165C263.682 240.458 263.589 240.705 263.402 240.905C263.215 241.091 262.975 241.184 262.682 241.184C262.402 241.184 262.162 241.091 261.962 240.904C261.775 240.704 261.682 240.457 261.682 240.164L261.685 234.884C261.685 234.417 261.619 233.99 261.486 233.604C261.366 233.217 261.146 232.91 260.826 232.683C260.52 232.443 260.093 232.323 259.546 232.323C259.026 232.322 258.56 232.442 258.146 232.682C257.746 232.908 257.432 233.215 257.206 233.601C256.979 233.988 256.865 234.415 256.865 234.881L256.862 240.161C256.862 240.455 256.769 240.701 256.582 240.901C256.395 241.088 256.155 241.181 255.862 241.181C255.568 241.181 255.328 241.087 255.142 240.9C254.955 240.7 254.862 240.454 254.862 240.16L254.865 234.86C254.865 234.394 254.799 233.967 254.666 233.58C254.546 233.193 254.333 232.887 254.026 232.66C253.72 232.433 253.293 232.319 252.746 232.319C252.226 232.319 251.766 232.432 251.366 232.658C250.966 232.885 250.652 233.191 250.426 233.578C250.212 233.965 250.105 234.391 250.105 234.858L250.102 240.158C250.102 240.451 250.002 240.698 249.802 240.898C249.615 241.084 249.382 241.177 249.102 241.177C248.808 241.177 248.568 241.084 248.382 240.897C248.195 240.697 248.102 240.45 248.102 240.157L248.107 231.677C248.107 231.383 248.2 231.144 248.387 230.957C248.574 230.757 248.814 230.657 249.107 230.657C249.387 230.657 249.62 230.758 249.807 230.958C250.007 231.144 250.107 231.384 250.107 231.678L250.106 232.858L249.726 233.078C249.819 232.784 249.973 232.484 250.186 232.178C250.4 231.871 250.667 231.591 250.987 231.338C251.32 231.085 251.687 230.879 252.087 230.719C252.487 230.559 252.921 230.479 253.387 230.479ZM271.381 241.389C270.274 241.388 269.314 241.161 268.501 240.707C267.688 240.24 267.055 239.606 266.602 238.806C266.162 237.993 265.943 237.066 265.943 236.026C265.944 234.853 266.178 233.853 266.645 233.026C267.125 232.186 267.746 231.547 268.506 231.107C269.266 230.654 270.073 230.428 270.926 230.428C271.579 230.429 272.199 230.562 272.786 230.829C273.372 231.083 273.892 231.443 274.345 231.91C274.812 232.364 275.178 232.904 275.445 233.531C275.711 234.144 275.851 234.818 275.864 235.551C275.85 235.818 275.743 236.038 275.543 236.211C275.343 236.384 275.11 236.471 274.843 236.47L267.063 236.466L266.584 234.766L274.104 234.77L273.724 235.13L273.724 234.63C273.698 234.163 273.544 233.756 273.265 233.41C272.985 233.049 272.638 232.776 272.225 232.589C271.812 232.389 271.378 232.289 270.925 232.288C270.525 232.288 270.138 232.355 269.765 232.488C269.405 232.608 269.078 232.807 268.785 233.087C268.505 233.367 268.278 233.74 268.104 234.207C267.944 234.66 267.864 235.227 267.863 235.907C267.863 236.64 268.016 237.28 268.322 237.827C268.629 238.374 269.042 238.801 269.562 239.108C270.082 239.401 270.655 239.548 271.281 239.549C271.775 239.549 272.181 239.502 272.502 239.409C272.822 239.303 273.088 239.176 273.302 239.03C273.515 238.883 273.702 238.743 273.862 238.61C274.062 238.49 274.262 238.43 274.462 238.43C274.702 238.43 274.902 238.517 275.062 238.69C275.222 238.851 275.302 239.044 275.302 239.271C275.301 239.564 275.155 239.831 274.861 240.07C274.501 240.417 274.001 240.723 273.361 240.99C272.734 241.256 272.074 241.389 271.381 241.389ZM277.502 239.552C277.382 239.365 277.329 239.152 277.342 238.912C277.356 238.658 277.496 238.445 277.763 238.272C277.949 238.152 278.143 238.105 278.343 238.132C278.556 238.146 278.756 238.246 278.943 238.432C279.316 238.846 279.729 239.173 280.182 239.413C280.649 239.653 281.209 239.774 281.862 239.774C282.129 239.761 282.402 239.721 282.682 239.654C282.962 239.575 283.202 239.441 283.402 239.255C283.602 239.055 283.702 238.768 283.703 238.395C283.703 238.062 283.596 237.795 283.383 237.595C283.17 237.395 282.89 237.234 282.543 237.114C282.197 236.981 281.823 236.861 281.424 236.754C280.997 236.634 280.564 236.5 280.124 236.353C279.697 236.206 279.311 236.019 278.964 235.792C278.617 235.552 278.331 235.245 278.104 234.872C277.891 234.499 277.785 234.039 277.785 233.492C277.785 232.865 277.959 232.325 278.306 231.872C278.666 231.419 279.126 231.066 279.687 230.813C280.26 230.56 280.88 230.433 281.547 230.434C281.933 230.434 282.34 230.488 282.767 230.594C283.193 230.688 283.607 230.841 284.006 231.055C284.406 231.269 284.753 231.549 285.046 231.896C285.179 232.069 285.252 232.276 285.266 232.516C285.292 232.756 285.185 232.969 284.945 233.156C284.785 233.289 284.592 233.349 284.365 233.335C284.139 233.322 283.952 233.248 283.805 233.115C283.552 232.795 283.226 232.548 282.826 232.374C282.426 232.188 281.973 232.094 281.466 232.094C281.213 232.094 280.946 232.133 280.666 232.213C280.399 232.28 280.172 232.406 279.986 232.593C279.799 232.78 279.705 233.053 279.705 233.413C279.705 233.746 279.812 234.013 280.025 234.213C280.251 234.413 280.545 234.58 280.905 234.713C281.264 234.847 281.658 234.967 282.084 235.074C282.498 235.181 282.904 235.308 283.304 235.455C283.717 235.602 284.084 235.795 284.404 236.035C284.737 236.262 285.004 236.562 285.203 236.936C285.417 237.296 285.523 237.756 285.523 238.316C285.522 238.969 285.329 239.529 284.942 239.996C284.568 240.449 284.088 240.795 283.501 241.035C282.928 241.274 282.321 241.394 281.681 241.394C280.921 241.393 280.161 241.26 279.401 240.993C278.655 240.712 278.022 240.232 277.502 239.552ZM289.553 240.178C289.552 240.471 289.459 240.718 289.272 240.918C289.085 241.104 288.845 241.197 288.552 241.197C288.272 241.197 288.032 241.104 287.832 240.917C287.646 240.717 287.552 240.47 287.553 240.177L287.557 231.617C287.557 231.324 287.651 231.084 287.837 230.897C288.037 230.697 288.277 230.597 288.557 230.597C288.851 230.597 289.091 230.698 289.277 230.898C289.464 231.084 289.557 231.325 289.557 231.618L289.553 240.178ZM288.538 229.277C288.151 229.277 287.871 229.21 287.698 229.077C287.525 228.93 287.438 228.69 287.439 228.357L287.439 228.037C287.439 227.703 287.532 227.47 287.719 227.337C287.906 227.204 288.186 227.137 288.559 227.137C288.959 227.138 289.246 227.211 289.419 227.358C289.592 227.491 289.679 227.718 289.679 228.038L289.679 228.358C289.678 228.705 289.585 228.945 289.398 229.078C289.225 229.211 288.938 229.278 288.538 229.277ZM300.87 226.404C301.163 226.404 301.403 226.497 301.59 226.684C301.776 226.871 301.87 227.117 301.869 227.424L301.863 240.184C301.863 240.477 301.769 240.724 301.582 240.924C301.396 241.111 301.156 241.204 300.862 241.204C300.582 241.203 300.342 241.11 300.142 240.923C299.956 240.723 299.863 240.476 299.863 240.183L299.864 238.743L300.284 238.763C300.283 239.003 300.183 239.277 299.983 239.583C299.796 239.876 299.536 240.163 299.203 240.443C298.869 240.723 298.476 240.956 298.022 241.142C297.569 241.315 297.082 241.402 296.562 241.401C295.642 241.401 294.816 241.167 294.083 240.7C293.35 240.22 292.77 239.573 292.344 238.759C291.917 237.932 291.704 236.986 291.705 235.919C291.706 234.852 291.919 233.912 292.346 233.099C292.774 232.273 293.347 231.626 294.067 231.16C294.801 230.681 295.614 230.441 296.508 230.441C297.068 230.442 297.588 230.535 298.068 230.722C298.561 230.909 298.987 231.149 299.347 231.443C299.707 231.736 299.987 232.05 300.187 232.383C300.387 232.703 300.487 233.01 300.486 233.303L299.866 233.363L299.869 227.423C299.87 227.13 299.963 226.89 300.15 226.703C300.35 226.503 300.59 226.403 300.87 226.404ZM296.783 239.562C297.423 239.562 297.977 239.402 298.443 239.082C298.924 238.763 299.297 238.329 299.564 237.783C299.831 237.236 299.965 236.616 299.965 235.923C299.965 235.23 299.832 234.61 299.566 234.063C299.3 233.516 298.926 233.083 298.447 232.762C297.967 232.442 297.414 232.282 296.787 232.282C296.174 232.281 295.627 232.441 295.147 232.761C294.68 233.08 294.306 233.514 294.026 234.06C293.759 234.607 293.625 235.227 293.625 235.92C293.625 236.613 293.758 237.233 294.024 237.78C294.304 238.327 294.677 238.76 295.143 239.081C295.623 239.401 296.17 239.561 296.783 239.562ZM309.564 241.408C308.457 241.407 307.498 241.18 306.684 240.727C305.871 240.259 305.238 239.626 304.785 238.826C304.346 238.012 304.126 237.085 304.127 236.045C304.127 234.872 304.361 233.872 304.828 233.046C305.309 232.206 305.929 231.566 306.689 231.127C307.45 230.674 308.256 230.447 309.11 230.448C309.763 230.448 310.383 230.582 310.969 230.849C311.556 231.102 312.076 231.463 312.529 231.93C312.995 232.383 313.362 232.923 313.628 233.55C313.894 234.164 314.034 234.837 314.047 235.57C314.034 235.837 313.927 236.057 313.727 236.23C313.527 236.403 313.293 236.49 313.027 236.49L305.247 236.486L304.767 234.786L312.287 234.789L311.907 235.149L311.908 234.649C311.881 234.183 311.728 233.776 311.448 233.429C311.168 233.069 310.822 232.795 310.409 232.608C309.995 232.408 309.562 232.308 309.109 232.308C308.709 232.308 308.322 232.374 307.949 232.507C307.589 232.627 307.262 232.827 306.968 233.107C306.688 233.387 306.461 233.76 306.288 234.226C306.128 234.68 306.047 235.246 306.047 235.926C306.047 236.66 306.2 237.3 306.506 237.846C306.812 238.393 307.225 238.82 307.745 239.127C308.265 239.421 308.838 239.568 309.465 239.568C309.958 239.568 310.365 239.522 310.685 239.429C311.005 239.322 311.272 239.196 311.485 239.049C311.699 238.902 311.885 238.763 312.046 238.629C312.246 238.509 312.446 238.449 312.646 238.45C312.886 238.45 313.086 238.536 313.245 238.71C313.405 238.87 313.485 239.063 313.485 239.29C313.485 239.583 313.338 239.85 313.045 240.09C312.685 240.436 312.184 240.743 311.544 241.009C310.918 241.275 310.257 241.408 309.564 241.408ZM326.651 241.217C326.331 241.217 326.071 241.123 325.871 240.936C325.685 240.736 325.592 240.49 325.592 240.196L325.598 228.216L327.738 228.217L327.732 240.197C327.732 240.491 327.625 240.737 327.411 240.937C327.211 241.124 326.958 241.217 326.651 241.217ZM322.117 229.134C321.837 229.134 321.597 229.047 321.398 228.874C321.198 228.687 321.098 228.447 321.098 228.154C321.098 227.874 321.198 227.647 321.398 227.474C321.598 227.301 321.838 227.214 322.118 227.214L331.218 227.219C331.498 227.219 331.732 227.313 331.918 227.499C332.118 227.673 332.218 227.9 332.218 228.18C332.218 228.473 332.118 228.706 331.918 228.879C331.731 229.053 331.497 229.139 331.217 229.139L322.117 229.134ZM336.752 241.422C335.645 241.421 334.685 241.194 333.872 240.74C333.059 240.273 332.426 239.64 331.973 238.839C331.533 238.026 331.314 237.099 331.314 236.059C331.315 234.886 331.549 233.886 332.016 233.059C332.496 232.22 333.117 231.58 333.877 231.14C334.637 230.687 335.444 230.461 336.297 230.462C336.951 230.462 337.57 230.596 338.157 230.863C338.744 231.116 339.263 231.476 339.716 231.943C340.183 232.397 340.549 232.937 340.816 233.564C341.082 234.177 341.222 234.851 341.235 235.584C341.221 235.851 341.114 236.071 340.914 236.244C340.714 236.417 340.481 236.504 340.214 236.504L332.434 236.5L331.955 234.799L339.475 234.803L339.095 235.163L339.095 234.663C339.069 234.196 338.916 233.79 338.636 233.443C338.356 233.083 338.009 232.809 337.596 232.622C337.183 232.422 336.75 232.322 336.296 232.322C335.896 232.321 335.51 232.388 335.136 232.521C334.776 232.641 334.449 232.841 334.156 233.121C333.876 233.4 333.649 233.774 333.475 234.24C333.315 234.693 333.235 235.26 333.234 235.94C333.234 236.673 333.387 237.313 333.693 237.86C334 238.407 334.413 238.834 334.933 239.141C335.453 239.435 336.026 239.581 336.653 239.582C337.146 239.582 337.553 239.536 337.873 239.442C338.193 239.336 338.459 239.209 338.673 239.063C338.886 238.916 339.073 238.776 339.233 238.643C339.433 238.523 339.633 238.463 339.833 238.463C340.073 238.464 340.273 238.55 340.433 238.724C340.593 238.884 340.673 239.077 340.673 239.304C340.673 239.597 340.526 239.864 340.232 240.104C339.872 240.45 339.372 240.757 338.732 241.023C338.105 241.289 337.445 241.422 336.752 241.422ZM348.778 230.528C349.764 230.528 350.524 230.776 351.057 231.269C351.59 231.749 351.944 232.403 352.116 233.23L351.796 233.129L351.937 232.81C352.11 232.463 352.37 232.116 352.717 231.77C353.077 231.41 353.504 231.117 353.998 230.891C354.491 230.651 355.018 230.531 355.578 230.531C356.498 230.532 357.211 230.732 357.717 231.132C358.224 231.519 358.577 232.046 358.777 232.713C358.976 233.366 359.076 234.1 359.076 234.913L359.073 240.213C359.073 240.507 358.979 240.753 358.792 240.953C358.606 241.14 358.366 241.233 358.072 241.233C357.792 241.233 357.552 241.139 357.352 240.952C357.166 240.752 357.073 240.506 357.073 240.212L357.076 234.932C357.076 234.466 357.009 234.039 356.876 233.652C356.756 233.265 356.537 232.959 356.217 232.732C355.91 232.492 355.484 232.371 354.937 232.371C354.417 232.371 353.95 232.491 353.537 232.73C353.137 232.957 352.823 233.263 352.596 233.65C352.369 234.036 352.256 234.463 352.256 234.93L352.253 240.21C352.253 240.503 352.159 240.75 351.972 240.95C351.786 241.136 351.546 241.229 351.252 241.229C350.959 241.229 350.719 241.136 350.532 240.949C350.346 240.749 350.253 240.502 350.253 240.209L350.256 234.909C350.256 234.442 350.189 234.015 350.056 233.629C349.936 233.242 349.723 232.935 349.417 232.708C349.11 232.481 348.684 232.368 348.137 232.368C347.617 232.367 347.157 232.48 346.757 232.707C346.357 232.933 346.043 233.24 345.816 233.626C345.603 234.013 345.496 234.44 345.496 234.906L345.493 240.206C345.493 240.5 345.393 240.746 345.192 240.946C345.006 241.133 344.772 241.226 344.492 241.226C344.199 241.226 343.959 241.132 343.772 240.945C343.586 240.745 343.493 240.499 343.493 240.205L343.497 231.725C343.497 231.432 343.591 231.192 343.778 231.005C343.964 230.806 344.204 230.706 344.498 230.706C344.778 230.706 345.011 230.806 345.198 231.006C345.397 231.193 345.497 231.433 345.497 231.726L345.497 232.906L345.116 233.126C345.21 232.833 345.363 232.533 345.577 232.226C345.79 231.92 346.057 231.64 346.377 231.387C346.711 231.134 347.078 230.927 347.478 230.767C347.878 230.607 348.311 230.528 348.778 230.528ZM370.497 230.559C370.79 230.559 371.03 230.659 371.217 230.859C371.403 231.046 371.496 231.286 371.496 231.579L371.492 240.219C371.492 240.513 371.398 240.759 371.211 240.959C371.025 241.146 370.785 241.239 370.491 241.239C370.211 241.239 369.971 241.145 369.771 240.959C369.585 240.759 369.492 240.512 369.492 240.218L369.493 238.778L369.912 238.839C369.912 239.079 369.812 239.345 369.612 239.639C369.425 239.932 369.165 240.218 368.832 240.498C368.498 240.765 368.105 240.991 367.651 241.178C367.198 241.351 366.711 241.437 366.191 241.437C365.271 241.436 364.445 241.203 363.712 240.736C362.978 240.255 362.399 239.602 361.973 238.775C361.546 237.948 361.333 237.008 361.334 235.954C361.334 234.874 361.548 233.928 361.975 233.115C362.402 232.288 362.976 231.642 363.696 231.176C364.43 230.709 365.243 230.476 366.137 230.477C366.71 230.477 367.237 230.571 367.717 230.758C368.21 230.944 368.636 231.185 368.996 231.478C369.356 231.772 369.629 232.085 369.816 232.419C370.016 232.739 370.115 233.045 370.115 233.339L369.495 233.398L369.496 231.578C369.496 231.298 369.59 231.059 369.777 230.859C369.977 230.659 370.217 230.559 370.497 230.559ZM366.412 239.597C367.039 239.597 367.592 239.438 368.072 239.118C368.552 238.798 368.926 238.365 369.193 237.818C369.46 237.258 369.594 236.639 369.594 235.959C369.594 235.265 369.461 234.645 369.195 234.098C368.928 233.552 368.555 233.118 368.076 232.798C367.596 232.478 367.042 232.317 366.416 232.317C365.802 232.317 365.256 232.476 364.776 232.796C364.309 233.116 363.935 233.549 363.655 234.096C363.388 234.642 363.254 235.262 363.254 235.955C363.254 236.635 363.387 237.255 363.653 237.816C363.933 238.362 364.306 238.796 364.772 239.116C365.252 239.436 365.799 239.597 366.412 239.597ZM386.1 241.247C385.82 241.247 385.586 241.153 385.4 240.967C385.213 240.766 385.12 240.52 385.12 240.226L385.125 230.046L385.485 230.167L381.162 235.684L381.062 235.424L388.342 235.428C388.609 235.428 388.829 235.522 389.002 235.708C389.189 235.882 389.282 236.102 389.282 236.369C389.282 236.622 389.188 236.835 389.002 237.008C388.828 237.182 388.608 237.268 388.342 237.268L379.682 237.264C379.442 237.264 379.215 237.17 379.002 236.983C378.788 236.783 378.682 236.55 378.682 236.283C378.682 236.03 378.769 235.803 378.942 235.603L385.306 227.647C385.4 227.513 385.52 227.413 385.667 227.347C385.813 227.28 385.967 227.247 386.127 227.247C386.42 227.247 386.66 227.347 386.846 227.547C387.033 227.734 387.126 227.974 387.126 228.267L387.12 240.227C387.12 240.521 387.02 240.767 386.82 240.967C386.62 241.154 386.38 241.247 386.1 241.247ZM392.171 233.25C391.837 233.25 391.577 233.163 391.391 232.99C391.218 232.803 391.131 232.543 391.131 232.209L391.132 231.829C391.132 231.496 391.218 231.236 391.392 231.05C391.579 230.863 391.839 230.77 392.172 230.77L392.392 230.77C392.725 230.77 392.979 230.864 393.152 231.051C393.325 231.237 393.412 231.497 393.412 231.831L393.411 232.211C393.411 232.544 393.324 232.804 393.151 232.991C392.977 233.164 392.724 233.25 392.391 233.25L392.171 233.25ZM392.167 241.25C391.833 241.25 391.573 241.156 391.387 240.97C391.214 240.783 391.127 240.523 391.127 240.189L391.127 239.829C391.128 239.483 391.214 239.223 391.388 239.05C391.575 238.863 391.835 238.77 392.168 238.77L392.388 238.77C392.721 238.77 392.975 238.864 393.148 239.051C393.321 239.224 393.408 239.484 393.407 239.831L393.407 240.191C393.407 240.524 393.32 240.784 393.147 240.971C392.973 241.157 392.72 241.25 392.387 241.25L392.167 241.25ZM402.983 227.256C403.25 227.256 403.483 227.356 403.683 227.556C403.896 227.743 404.003 227.983 404.003 228.276L403.996 240.236C403.983 240.529 403.87 240.776 403.656 240.976C403.456 241.162 403.216 241.256 402.936 241.255C402.629 241.255 402.376 241.162 402.176 240.975C401.99 240.775 401.896 240.528 401.896 240.235L401.903 228.275C401.903 227.982 402.003 227.742 402.203 227.555C402.403 227.355 402.663 227.255 402.983 227.256ZM412.003 227.26C412.323 227.26 412.576 227.36 412.763 227.56C412.949 227.747 413.043 227.987 413.043 228.281L413.036 240.241C413.036 240.534 412.936 240.781 412.736 240.98C412.549 241.167 412.296 241.26 411.976 241.26C411.696 241.26 411.456 241.166 411.256 240.98C411.056 240.78 410.956 240.533 410.956 240.24L410.963 228.28C410.963 227.986 411.063 227.746 411.263 227.56C411.476 227.36 411.723 227.26 412.003 227.26ZM402.9 233.215L412.02 233.22L411.999 235.14L402.879 235.135L402.9 233.215ZM415.916 230.862L420.616 230.864C420.883 230.865 421.103 230.958 421.276 231.145C421.463 231.318 421.556 231.538 421.556 231.805C421.556 232.058 421.462 232.272 421.275 232.445C421.102 232.618 420.882 232.705 420.615 232.704L415.915 232.702C415.649 232.702 415.422 232.615 415.235 232.442C415.062 232.255 414.976 232.035 414.976 231.782C414.976 231.515 415.063 231.295 415.236 231.122C415.423 230.948 415.65 230.862 415.916 230.862ZM418.018 228.263C418.311 228.263 418.551 228.363 418.737 228.564C418.924 228.75 419.017 228.99 419.017 229.284L419.012 238.564C419.012 238.804 419.052 238.997 419.132 239.144C419.212 239.29 419.319 239.39 419.452 239.444C419.598 239.497 419.745 239.524 419.892 239.524C420.038 239.524 420.165 239.498 420.272 239.444C420.392 239.391 420.532 239.364 420.692 239.365C420.852 239.365 420.999 239.438 421.132 239.585C421.265 239.731 421.332 239.931 421.331 240.185C421.331 240.505 421.158 240.765 420.811 240.965C420.464 241.164 420.091 241.264 419.691 241.264C419.464 241.264 419.198 241.244 418.891 241.204C418.584 241.163 418.284 241.063 417.991 240.903C417.711 240.743 417.478 240.49 417.292 240.143C417.105 239.783 417.012 239.283 417.012 238.643L417.017 229.283C417.017 228.989 417.111 228.749 417.297 228.563C417.497 228.363 417.738 228.263 418.018 228.263ZM423.631 230.866L428.331 230.868C428.598 230.869 428.818 230.962 428.991 231.149C429.177 231.322 429.271 231.542 429.271 231.809C429.27 232.062 429.177 232.275 428.99 232.449C428.817 232.622 428.597 232.709 428.33 232.708L423.63 232.706C423.363 232.706 423.137 232.619 422.95 232.446C422.777 232.259 422.69 232.039 422.691 231.786C422.691 231.519 422.778 231.299 422.951 231.126C423.138 230.952 423.364 230.866 423.631 230.866ZM425.732 228.267C426.026 228.267 426.266 228.367 426.452 228.567C426.639 228.754 426.732 228.994 426.732 229.288L426.727 238.568C426.727 238.808 426.767 239.001 426.847 239.148C426.927 239.294 427.033 239.394 427.167 239.448C427.313 239.501 427.46 239.528 427.607 239.528C427.753 239.528 427.88 239.501 427.987 239.448C428.107 239.395 428.247 239.368 428.407 239.368C428.567 239.369 428.713 239.442 428.847 239.589C428.98 239.735 429.046 239.935 429.046 240.189C429.046 240.509 428.873 240.769 428.526 240.968C428.179 241.168 427.806 241.268 427.406 241.268C427.179 241.268 426.912 241.248 426.606 241.208C426.299 241.167 425.999 241.067 425.706 240.907C425.426 240.747 425.193 240.493 425.006 240.147C424.82 239.787 424.727 239.287 424.727 238.647L424.732 229.287C424.732 228.993 424.825 228.753 425.012 228.567C425.212 228.367 425.452 228.267 425.732 228.267ZM436.786 230.573C437.719 230.573 438.546 230.807 439.266 231.274C439.999 231.741 440.578 232.381 441.005 233.195C441.431 233.995 441.644 234.928 441.643 235.995C441.643 237.062 441.429 238.008 441.002 238.835C440.575 239.648 440.001 240.288 439.281 240.754C438.561 241.22 437.747 241.453 436.841 241.453C436.334 241.452 435.854 241.372 435.401 241.212C434.947 241.052 434.548 240.845 434.201 240.591C433.854 240.325 433.568 240.044 433.341 239.751C433.128 239.457 432.995 239.184 432.942 238.931L433.482 238.671L433.479 244.251C433.479 244.544 433.379 244.784 433.179 244.971C432.992 245.171 432.759 245.271 432.479 245.27C432.185 245.27 431.945 245.17 431.759 244.97C431.572 244.783 431.479 244.543 431.479 244.25L431.485 231.73C431.486 231.45 431.579 231.21 431.766 231.01C431.953 230.81 432.193 230.71 432.486 230.71C432.766 230.711 432.999 230.811 433.186 231.011C433.386 231.211 433.486 231.451 433.485 231.731L433.485 233.111L433.165 232.931C433.205 232.678 433.332 232.418 433.545 232.151C433.759 231.871 434.026 231.611 434.346 231.371C434.679 231.132 435.053 230.938 435.466 230.792C435.893 230.646 436.333 230.572 436.786 230.573ZM436.565 232.413C435.925 232.412 435.365 232.572 434.885 232.892C434.418 233.198 434.051 233.618 433.784 234.151C433.517 234.684 433.384 235.298 433.383 235.991C433.383 236.671 433.516 237.291 433.782 237.851C434.049 238.398 434.415 238.831 434.882 239.152C435.362 239.459 435.921 239.612 436.561 239.613C437.188 239.613 437.735 239.46 438.202 239.153C438.669 238.834 439.035 238.4 439.302 237.854C439.583 237.294 439.723 236.674 439.723 235.994C439.724 235.314 439.584 234.707 439.304 234.174C439.038 233.627 438.671 233.2 438.205 232.893C437.738 232.573 437.192 232.413 436.565 232.413ZM443.283 239.636C443.163 239.449 443.11 239.236 443.124 238.996C443.137 238.743 443.277 238.529 443.544 238.356C443.731 238.236 443.924 238.19 444.124 238.216C444.337 238.23 444.537 238.33 444.724 238.517C445.097 238.93 445.51 239.257 445.963 239.497C446.43 239.738 446.99 239.858 447.643 239.858C447.91 239.845 448.183 239.805 448.463 239.739C448.743 239.659 448.983 239.526 449.183 239.339C449.384 239.139 449.484 238.852 449.484 238.479C449.484 238.146 449.378 237.879 449.164 237.679C448.951 237.479 448.671 237.319 448.325 237.199C447.978 237.065 447.605 236.945 447.205 236.838C446.778 236.718 446.345 236.584 445.905 236.437C445.478 236.29 445.092 236.104 444.745 235.877C444.399 235.637 444.112 235.33 443.886 234.956C443.673 234.583 443.566 234.123 443.566 233.576C443.567 232.949 443.74 232.41 444.087 231.956C444.447 231.503 444.908 231.15 445.468 230.897C446.041 230.644 446.661 230.518 447.328 230.518C447.715 230.518 448.121 230.572 448.548 230.679C448.974 230.772 449.388 230.926 449.788 231.139C450.188 231.353 450.534 231.633 450.827 231.98C450.96 232.153 451.034 232.36 451.047 232.6C451.073 232.84 450.967 233.053 450.727 233.24C450.567 233.373 450.373 233.433 450.146 233.419C449.92 233.406 449.733 233.333 449.587 233.199C449.333 232.879 449.007 232.632 448.607 232.459C448.207 232.272 447.754 232.178 447.247 232.178C446.994 232.178 446.727 232.218 446.447 232.298C446.18 232.364 445.954 232.491 445.767 232.677C445.58 232.864 445.487 233.137 445.486 233.497C445.486 233.83 445.593 234.097 445.806 234.297C446.033 234.497 446.326 234.664 446.686 234.798C447.046 234.931 447.439 235.051 447.866 235.158C448.279 235.265 448.685 235.392 449.085 235.539C449.499 235.686 449.865 235.879 450.185 236.119C450.518 236.346 450.785 236.646 450.985 237.02C451.198 237.38 451.304 237.84 451.304 238.4C451.304 239.053 451.11 239.613 450.723 240.08C450.35 240.533 449.869 240.879 449.283 241.119C448.709 241.359 448.102 241.478 447.462 241.478C446.702 241.478 445.942 241.344 445.183 241.077C444.436 240.797 443.803 240.316 443.283 239.636ZM454.397 233.282C454.064 233.281 453.804 233.195 453.617 233.021C453.444 232.834 453.358 232.574 453.358 232.241L453.358 231.861C453.358 231.528 453.445 231.268 453.618 231.081C453.805 230.895 454.065 230.801 454.399 230.802L454.619 230.802C454.952 230.802 455.205 230.895 455.378 231.082C455.552 231.269 455.638 231.529 455.638 231.862L455.638 232.242C455.638 232.576 455.551 232.836 455.377 233.022C455.204 233.195 454.951 233.282 454.617 233.282L454.397 233.282ZM454.393 241.282C454.06 241.281 453.8 241.188 453.613 241.001C453.44 240.814 453.354 240.554 453.354 240.221L453.354 239.861C453.354 239.514 453.441 239.254 453.614 239.081C453.801 238.895 454.061 238.801 454.395 238.802L454.615 238.802C454.948 238.802 455.201 238.895 455.374 239.082C455.548 239.256 455.634 239.516 455.634 239.862L455.634 240.222C455.634 240.556 455.547 240.816 455.373 241.002C455.2 241.189 454.947 241.282 454.613 241.282L454.393 241.282ZM458.295 243.924C458.095 243.924 457.895 243.843 457.695 243.683C457.495 243.523 457.395 243.323 457.395 243.083C457.395 242.936 457.435 242.797 457.515 242.663L465.824 225.847C465.917 225.661 466.031 225.521 466.164 225.428C466.311 225.334 466.471 225.288 466.644 225.288C466.831 225.288 467.018 225.361 467.204 225.508C467.404 225.655 467.504 225.862 467.504 226.128C467.504 226.275 467.47 226.422 467.404 226.568L459.095 243.384C459.002 243.557 458.888 243.691 458.755 243.784C458.621 243.877 458.468 243.924 458.295 243.924ZM467.513 243.928C467.313 243.928 467.114 243.848 466.914 243.688C466.714 243.528 466.614 243.328 466.614 243.088C466.614 242.941 466.654 242.801 466.734 242.668L475.043 225.852C475.136 225.666 475.25 225.526 475.383 225.432C475.53 225.339 475.69 225.292 475.863 225.293C476.05 225.293 476.236 225.366 476.423 225.513C476.623 225.66 476.723 225.866 476.723 226.133C476.722 226.28 476.689 226.426 476.622 226.573L468.314 243.389C468.22 243.562 468.107 243.695 467.974 243.789C467.84 243.882 467.687 243.928 467.513 243.928ZM479.877 227.275C480.037 227.275 480.203 227.315 480.377 227.395C480.55 227.475 480.683 227.588 480.776 227.735L485.852 235.478L484.992 235.437L490.176 227.74C490.39 227.433 490.663 227.28 490.997 227.28C491.263 227.28 491.497 227.38 491.696 227.581C491.91 227.767 492.016 228.007 492.016 228.301L492.01 240.281C492.01 240.574 491.916 240.821 491.73 241.021C491.543 241.207 491.296 241.3 490.99 241.3C490.67 241.3 490.41 241.207 490.21 241.02C490.023 240.82 489.93 240.573 489.93 240.28L489.935 230.14L490.575 230.28L486.172 236.978C486.078 237.098 485.958 237.204 485.812 237.298C485.665 237.378 485.511 237.411 485.352 237.397C485.205 237.411 485.052 237.377 484.892 237.297C484.745 237.204 484.625 237.097 484.532 236.977L480.295 230.375L480.775 229.575L480.77 240.275C480.77 240.568 480.676 240.815 480.49 241.015C480.316 241.201 480.083 241.295 479.79 241.295C479.51 241.294 479.276 241.201 479.09 241.014C478.916 240.814 478.83 240.567 478.83 240.274L478.836 228.294C478.836 228.014 478.936 227.774 479.136 227.574C479.35 227.374 479.597 227.274 479.877 227.275ZM496.935 240.283C496.935 240.577 496.842 240.823 496.655 241.023C496.468 241.21 496.228 241.303 495.935 241.303C495.655 241.303 495.415 241.209 495.215 241.022C495.028 240.822 494.935 240.576 494.935 240.282L494.94 231.722C494.94 231.429 495.033 231.189 495.22 231.002C495.42 230.802 495.66 230.703 495.94 230.703C496.234 230.703 496.474 230.803 496.66 231.003C496.847 231.19 496.94 231.43 496.94 231.723L496.935 240.283ZM495.921 229.383C495.534 229.383 495.254 229.316 495.081 229.182C494.908 229.036 494.821 228.796 494.821 228.462L494.822 228.142C494.822 227.809 494.915 227.576 495.102 227.442C495.289 227.309 495.569 227.243 495.942 227.243C496.342 227.243 496.629 227.316 496.802 227.463C496.975 227.597 497.062 227.823 497.062 228.143L497.061 228.463C497.061 228.81 496.968 229.05 496.781 229.183C496.608 229.316 496.321 229.383 495.921 229.383ZM501.786 240.286C501.786 240.579 501.685 240.826 501.485 241.026C501.299 241.212 501.065 241.305 500.785 241.305C500.505 241.305 500.265 241.212 500.065 241.025C499.879 240.825 499.786 240.578 499.786 240.285L499.792 227.525C499.792 227.231 499.892 226.991 500.093 226.805C500.293 226.605 500.533 226.505 500.813 226.505C501.106 226.505 501.339 226.605 501.513 226.806C501.699 226.992 501.792 227.232 501.792 227.526L501.786 240.286ZM509.466 241.51C508.36 241.509 507.4 241.282 506.587 240.828C505.774 240.361 505.141 239.727 504.688 238.927C504.248 238.114 504.029 237.187 504.029 236.147C504.03 234.974 504.264 233.974 504.731 233.147C505.211 232.307 505.831 231.668 506.592 231.228C507.352 230.775 508.159 230.549 509.012 230.549C509.665 230.55 510.285 230.683 510.872 230.95C511.458 231.204 511.978 231.564 512.431 232.031C512.898 232.485 513.264 233.025 513.53 233.652C513.797 234.265 513.936 234.939 513.949 235.672C513.936 235.939 513.829 236.159 513.629 236.332C513.429 236.505 513.196 236.592 512.929 236.591L505.149 236.587L504.67 234.887L512.19 234.891L511.81 235.251L511.81 234.751C511.783 234.284 511.63 233.877 511.351 233.531C511.071 233.17 510.724 232.897 510.311 232.71C509.898 232.51 509.464 232.41 509.011 232.409C508.611 232.409 508.224 232.476 507.851 232.609C507.491 232.729 507.164 232.928 506.871 233.208C506.591 233.488 506.364 233.861 506.19 234.328C506.03 234.781 505.95 235.348 505.949 236.028C505.949 236.761 506.102 237.401 506.408 237.948C506.715 238.495 507.128 238.922 507.648 239.229C508.167 239.522 508.741 239.669 509.367 239.67C509.861 239.67 510.267 239.623 510.587 239.53C510.908 239.424 511.174 239.297 511.388 239.151C511.601 239.004 511.788 238.864 511.948 238.731C512.148 238.611 512.348 238.551 512.548 238.551C512.788 238.551 512.988 238.638 513.148 238.811C513.308 238.972 513.388 239.165 513.388 239.392C513.387 239.685 513.241 239.952 512.947 240.191C512.587 240.538 512.087 240.844 511.447 241.111C510.82 241.377 510.16 241.51 509.466 241.51ZM521.633 230.556C522.579 230.556 523.313 230.757 523.832 231.157C524.352 231.544 524.712 232.071 524.912 232.737C525.125 233.391 525.231 234.124 525.23 234.938L525.228 240.298C525.228 240.591 525.127 240.838 524.927 241.037C524.741 241.224 524.507 241.317 524.227 241.317C523.934 241.317 523.694 241.224 523.507 241.037C523.321 240.837 523.228 240.59 523.228 240.297L523.23 234.957C523.231 234.477 523.164 234.05 523.031 233.677C522.898 233.29 522.665 232.983 522.332 232.756C522.012 232.516 521.558 232.396 520.972 232.395C520.425 232.395 519.945 232.515 519.532 232.755C519.118 232.981 518.791 233.288 518.551 233.674C518.324 234.047 518.211 234.474 518.21 234.954L518.208 240.294C518.208 240.587 518.107 240.834 517.907 241.034C517.721 241.22 517.487 241.314 517.207 241.314C516.914 241.313 516.674 241.22 516.487 241.033C516.301 240.833 516.208 240.586 516.208 240.293L516.212 231.813C516.212 231.52 516.306 231.28 516.492 231.093C516.679 230.893 516.919 230.793 517.213 230.794C517.493 230.794 517.726 230.894 517.912 231.094C518.112 231.281 518.212 231.521 518.212 231.814L518.211 232.934L517.851 233.134C517.945 232.841 518.105 232.547 518.332 232.254C518.572 231.948 518.859 231.668 519.192 231.415C519.526 231.148 519.899 230.942 520.313 230.795C520.726 230.635 521.166 230.556 521.633 230.556ZM532.904 241.522C531.797 241.521 530.837 241.294 530.024 240.84C529.211 240.373 528.578 239.739 528.125 238.939C527.686 238.126 527.466 237.199 527.467 236.159C527.467 234.985 527.701 233.986 528.168 233.159C528.649 232.319 529.269 231.68 530.029 231.24C530.789 230.787 531.596 230.561 532.45 230.561C533.103 230.562 533.723 230.695 534.309 230.962C534.896 231.216 535.416 231.576 535.869 232.043C536.335 232.497 536.702 233.037 536.968 233.664C537.234 234.277 537.374 234.95 537.387 235.684C537.373 235.95 537.267 236.17 537.067 236.344C536.866 236.517 536.633 236.603 536.366 236.603L528.586 236.599L528.107 234.899L535.627 234.903L535.247 235.263L535.247 234.763C535.221 234.296 535.068 233.889 534.788 233.542C534.508 233.182 534.162 232.909 533.748 232.722C533.335 232.522 532.902 232.422 532.449 232.421C532.049 232.421 531.662 232.488 531.288 232.621C530.928 232.741 530.602 232.94 530.308 233.22C530.028 233.5 529.801 233.873 529.628 234.34C529.467 234.793 529.387 235.36 529.387 236.04C529.386 236.773 529.539 237.413 529.846 237.96C530.152 238.507 530.565 238.934 531.085 239.241C531.605 239.534 532.178 239.681 532.805 239.681C533.298 239.682 533.705 239.635 534.025 239.542C534.345 239.436 534.612 239.309 534.825 239.163C535.039 239.016 535.225 238.876 535.385 238.743C535.585 238.623 535.785 238.563 535.985 238.563C536.225 238.563 536.425 238.65 536.585 238.823C536.745 238.983 536.825 239.177 536.825 239.404C536.825 239.697 536.678 239.963 536.385 240.203C536.024 240.55 535.524 240.856 534.884 241.123C534.257 241.389 533.597 241.522 532.904 241.522ZM544.93 230.628C545.917 230.628 546.677 230.875 547.21 231.369C547.743 231.849 548.096 232.503 548.269 233.329L547.949 233.229L548.089 232.909C548.262 232.563 548.523 232.216 548.869 231.87C549.23 231.51 549.656 231.217 550.15 230.99C550.643 230.751 551.17 230.631 551.73 230.631C552.65 230.632 553.363 230.832 553.87 231.232C554.376 231.619 554.729 232.146 554.929 232.813C555.129 233.466 555.228 234.2 555.228 235.013L555.225 240.313C555.225 240.606 555.132 240.853 554.945 241.053C554.758 241.239 554.518 241.333 554.225 241.332C553.945 241.332 553.705 241.239 553.505 241.052C553.318 240.852 553.225 240.605 553.225 240.312L553.228 235.032C553.228 234.565 553.162 234.138 553.029 233.752C552.909 233.365 552.689 233.058 552.369 232.831C552.062 232.591 551.636 232.471 551.089 232.471C550.569 232.471 550.102 232.59 549.689 232.83C549.289 233.057 548.975 233.363 548.749 233.75C548.522 234.136 548.408 234.563 548.408 235.029L548.405 240.309C548.405 240.603 548.312 240.849 548.125 241.049C547.938 241.236 547.698 241.329 547.405 241.329C547.111 241.329 546.871 241.235 546.685 241.049C546.498 240.848 546.405 240.602 546.405 240.308L546.408 235.008C546.408 234.542 546.342 234.115 546.209 233.728C546.089 233.342 545.876 233.035 545.569 232.808C545.262 232.581 544.836 232.468 544.289 232.467C543.769 232.467 543.309 232.58 542.909 232.807C542.509 233.033 542.195 233.34 541.969 233.726C541.755 234.113 541.648 234.539 541.648 235.006L541.645 240.306C541.645 240.599 541.545 240.846 541.345 241.046C541.158 241.232 540.925 241.326 540.645 241.325C540.351 241.325 540.111 241.232 539.925 241.045C539.738 240.845 539.645 240.598 539.645 240.305L539.649 231.825C539.65 231.532 539.743 231.292 539.93 231.105C540.117 230.905 540.357 230.805 540.65 230.805C540.93 230.806 541.163 230.906 541.35 231.106C541.55 231.293 541.65 231.533 541.649 231.826L541.649 233.006L541.269 233.226C541.362 232.932 541.516 232.633 541.729 232.326C541.943 232.019 542.21 231.74 542.53 231.486C542.863 231.233 543.23 231.027 543.63 230.867C544.03 230.707 544.463 230.627 544.93 230.628ZM559.904 240.315C559.904 240.609 559.81 240.855 559.624 241.055C559.437 241.242 559.197 241.335 558.904 241.335C558.624 241.335 558.384 241.241 558.184 241.054C557.997 240.854 557.904 240.608 557.904 240.314L557.908 231.754C557.909 231.461 558.002 231.221 558.189 231.034C558.389 230.834 558.629 230.735 558.909 230.735C559.202 230.735 559.442 230.835 559.629 231.035C559.815 231.222 559.909 231.462 559.908 231.755L559.904 240.315ZM558.89 229.415C558.503 229.415 558.223 229.348 558.05 229.214C557.876 229.068 557.79 228.828 557.79 228.494L557.79 228.174C557.79 227.841 557.884 227.608 558.071 227.474C558.257 227.341 558.537 227.275 558.911 227.275C559.311 227.275 559.597 227.348 559.771 227.495C559.944 227.629 560.03 227.855 560.03 228.175L560.03 228.495C560.03 228.842 559.936 229.082 559.75 229.215C559.576 229.348 559.29 229.415 558.89 229.415ZM568.019 230.579C568.966 230.58 569.699 230.78 570.219 231.18C570.739 231.567 571.099 232.094 571.298 232.761C571.511 233.414 571.618 234.148 571.617 234.961L571.614 240.321C571.614 240.615 571.514 240.861 571.314 241.061C571.127 241.248 570.894 241.341 570.614 241.341C570.321 241.341 570.081 241.247 569.894 241.06C569.707 240.86 569.614 240.614 569.614 240.32L569.617 234.98C569.617 234.5 569.551 234.073 569.418 233.7C569.285 233.313 569.051 233.007 568.718 232.78C568.398 232.54 567.945 232.419 567.358 232.419C566.812 232.419 566.332 232.539 565.918 232.778C565.505 233.005 565.178 233.311 564.938 233.698C564.711 234.071 564.597 234.498 564.597 234.978L564.594 240.318C564.594 240.611 564.494 240.858 564.294 241.057C564.107 241.244 563.874 241.337 563.594 241.337C563.301 241.337 563.061 241.244 562.874 241.057C562.687 240.857 562.594 240.61 562.594 240.317L562.599 231.837C562.599 231.543 562.692 231.303 562.879 231.117C563.066 230.917 563.306 230.817 563.599 230.817C563.879 230.817 564.113 230.917 564.299 231.117C564.499 231.304 564.599 231.544 564.599 231.838L564.598 232.958L564.238 233.157C564.332 232.864 564.492 232.571 564.718 232.278C564.959 231.971 565.245 231.691 565.579 231.438C565.912 231.172 566.286 230.965 566.699 230.819C567.113 230.659 567.553 230.579 568.019 230.579ZM575.151 241.323C574.817 241.323 574.557 241.229 574.371 241.043C574.198 240.856 574.111 240.596 574.111 240.262L574.111 239.902C574.112 239.569 574.198 239.309 574.372 239.123C574.559 238.936 574.819 238.843 575.152 238.843L575.372 238.843C575.705 238.843 575.959 238.937 576.132 239.124C576.305 239.31 576.392 239.57 576.391 239.904L576.391 240.264C576.391 240.597 576.304 240.857 576.131 241.044C575.957 241.23 575.704 241.323 575.371 241.323L575.151 241.323ZM585.03 227.348C586.003 227.349 586.863 227.536 587.609 227.909C588.356 228.27 588.976 228.777 589.469 229.43C589.975 230.071 590.354 230.817 590.607 231.671C590.86 232.511 590.987 233.404 590.986 234.351C590.985 235.644 590.758 236.824 590.304 237.891C589.85 238.944 589.183 239.783 588.303 240.41C587.423 241.036 586.329 241.349 585.022 241.348L580.142 241.346C579.862 241.345 579.623 241.252 579.423 241.065C579.223 240.865 579.123 240.618 579.123 240.325L579.129 228.365C579.129 228.072 579.229 227.832 579.429 227.645C579.63 227.445 579.87 227.345 580.15 227.346L585.03 227.348ZM584.823 239.428C585.77 239.428 586.537 239.195 587.124 238.729C587.711 238.263 588.138 237.65 588.405 236.89C588.685 236.117 588.826 235.27 588.826 234.35C588.826 233.67 588.747 233.03 588.587 232.43C588.441 231.816 588.201 231.276 587.868 230.809C587.548 230.329 587.135 229.956 586.628 229.689C586.135 229.409 585.535 229.268 584.829 229.268L581.049 229.266L581.229 229.086L581.223 239.626L581.103 239.426L584.823 239.428ZM594.379 241.353C594.099 241.353 593.859 241.259 593.659 241.072C593.472 240.872 593.379 240.626 593.379 240.332L593.386 227.572C593.386 227.279 593.479 227.039 593.666 226.852C593.866 226.653 594.106 226.553 594.386 226.553C594.68 226.553 594.92 226.653 595.106 226.853C595.293 227.04 595.386 227.28 595.386 227.573L595.379 240.333C595.379 240.627 595.286 240.873 595.099 241.073C594.912 241.26 594.672 241.353 594.379 241.353ZM600.904 230.796C601.158 230.796 601.378 230.903 601.564 231.116C601.751 231.33 601.844 231.543 601.844 231.757C601.844 232.023 601.717 232.27 601.463 232.496L595.201 238.093L595.122 235.793L600.164 231.116C600.378 230.902 600.624 230.796 600.904 230.796ZM601.139 241.336C600.859 241.336 600.619 241.223 600.419 240.996L596.421 236.774L597.942 235.375L601.84 239.597C602.053 239.823 602.16 240.077 602.159 240.357C602.159 240.65 602.039 240.89 601.799 241.077C601.572 241.25 601.352 241.336 601.139 241.336ZM604.33 243.998C604.13 243.998 603.93 243.918 603.73 243.758C603.53 243.597 603.43 243.397 603.43 243.157C603.43 243.011 603.47 242.871 603.551 242.737L611.859 225.922C611.952 225.735 612.066 225.595 612.199 225.502C612.346 225.409 612.506 225.362 612.679 225.362C612.866 225.362 613.053 225.436 613.239 225.582C613.439 225.729 613.539 225.936 613.539 226.203C613.539 226.349 613.505 226.496 613.439 226.642L605.13 243.458C605.037 243.632 604.923 243.765 604.79 243.858C604.657 243.951 604.503 243.998 604.33 243.998ZM619.946 241.566C618.986 241.565 618.133 241.432 617.386 241.164C616.639 240.897 615.926 240.457 615.247 239.843C615.1 239.737 614.987 239.61 614.907 239.463C614.84 239.303 614.807 239.143 614.807 238.983C614.807 238.73 614.901 238.503 615.087 238.303C615.274 238.103 615.508 238.004 615.788 238.004C616.001 238.004 616.201 238.077 616.388 238.224C616.894 238.691 617.42 239.044 617.967 239.285C618.527 239.525 619.18 239.645 619.927 239.646C620.46 239.646 620.947 239.56 621.387 239.387C621.84 239.213 622.2 238.98 622.467 238.687C622.734 238.394 622.868 238.054 622.868 237.667C622.868 237.187 622.728 236.794 622.448 236.487C622.182 236.167 621.789 235.907 621.269 235.706C620.762 235.493 620.149 235.313 619.429 235.166C618.762 235.045 618.163 234.878 617.629 234.665C617.109 234.451 616.663 234.184 616.29 233.864C615.917 233.53 615.63 233.137 615.43 232.683C615.231 232.23 615.131 231.703 615.131 231.103C615.132 230.29 615.345 229.59 615.772 229.004C616.199 228.417 616.779 227.964 617.513 227.645C618.246 227.325 619.073 227.165 619.993 227.166C620.833 227.166 621.62 227.3 622.353 227.567C623.086 227.821 623.679 228.168 624.132 228.608C624.452 228.888 624.612 229.188 624.612 229.508C624.612 229.748 624.512 229.975 624.312 230.188C624.125 230.388 623.905 230.488 623.651 230.488C623.465 230.488 623.305 230.434 623.172 230.327C622.958 230.101 622.672 229.9 622.312 229.727C621.952 229.54 621.565 229.387 621.152 229.266C620.752 229.146 620.365 229.086 619.992 229.086C619.392 229.085 618.879 229.172 618.452 229.345C618.025 229.505 617.698 229.731 617.472 230.025C617.245 230.304 617.131 230.638 617.131 231.024C617.131 231.478 617.257 231.851 617.511 232.145C617.777 232.438 618.144 232.678 618.61 232.865C619.077 233.039 619.61 233.199 620.21 233.346C620.943 233.506 621.596 233.687 622.17 233.887C622.756 234.087 623.249 234.347 623.649 234.668C624.049 234.975 624.356 235.361 624.569 235.828C624.782 236.295 624.888 236.875 624.888 237.568C624.887 238.368 624.66 239.068 624.207 239.668C623.753 240.268 623.153 240.734 622.406 241.067C621.673 241.4 620.852 241.566 619.946 241.566ZM632.551 230.612C633.497 230.613 634.23 230.813 634.75 231.213C635.27 231.6 635.63 232.127 635.829 232.794C636.042 233.447 636.149 234.181 636.148 234.994L636.146 240.354C636.145 240.647 636.045 240.894 635.845 241.094C635.659 241.28 635.425 241.374 635.145 241.373C634.852 241.373 634.612 241.28 634.425 241.093C634.239 240.893 634.145 240.646 634.146 240.353L634.148 235.013C634.149 234.533 634.082 234.106 633.949 233.733C633.816 233.346 633.583 233.039 633.249 232.813C632.93 232.572 632.476 232.452 631.89 232.452C631.343 232.452 630.863 232.571 630.449 232.811C630.036 233.038 629.709 233.344 629.469 233.731C629.242 234.104 629.129 234.53 629.128 235.01L629.126 240.35C629.125 240.644 629.025 240.89 628.825 241.09C628.639 241.277 628.405 241.37 628.125 241.37C627.832 241.37 627.592 241.276 627.405 241.09C627.219 240.889 627.125 240.643 627.126 240.349L627.13 231.869C627.13 231.576 627.224 231.336 627.41 231.15C627.597 230.95 627.837 230.85 628.13 230.85C628.41 230.85 628.644 230.95 628.83 231.15C629.03 231.337 629.13 231.577 629.13 231.87L629.129 232.99L628.769 233.19C628.863 232.897 629.023 232.604 629.25 232.31C629.49 232.004 629.777 231.724 630.11 231.471C630.444 231.204 630.817 230.998 631.23 230.852C631.644 230.692 632.084 230.612 632.551 230.612ZM647.547 230.7C647.841 230.7 648.081 230.8 648.267 231C648.454 231.187 648.547 231.427 648.547 231.72L648.543 240.36C648.542 240.654 648.449 240.9 648.262 241.1C648.075 241.287 647.835 241.38 647.542 241.38C647.262 241.38 647.022 241.286 646.822 241.099C646.636 240.899 646.542 240.653 646.543 240.359L646.543 238.919L646.963 238.98C646.963 239.22 646.863 239.486 646.663 239.779C646.476 240.073 646.216 240.359 645.882 240.639C645.549 240.905 645.155 241.132 644.702 241.318C644.249 241.491 643.762 241.578 643.242 241.578C642.322 241.577 641.495 241.343 640.762 240.876C640.029 240.396 639.449 239.742 639.023 238.915C638.597 238.089 638.384 237.148 638.385 236.095C638.385 235.015 638.599 234.069 639.026 233.255C639.453 232.429 640.027 231.783 640.747 231.316C641.481 230.85 642.294 230.617 643.187 230.618C643.761 230.618 644.287 230.711 644.767 230.898C645.261 231.085 645.687 231.326 646.047 231.619C646.407 231.913 646.68 232.226 646.866 232.559C647.066 232.88 647.166 233.186 647.166 233.48L646.546 233.539L646.547 231.719C646.547 231.439 646.641 231.199 646.827 230.999C647.027 230.8 647.267 230.7 647.547 230.7ZM643.463 239.738C644.09 239.738 644.643 239.578 645.123 239.259C645.603 238.939 645.977 238.506 646.244 237.959C646.511 237.399 646.644 236.779 646.645 236.099C646.645 235.406 646.512 234.786 646.246 234.239C645.979 233.692 645.606 233.259 645.126 232.939C644.646 232.618 644.093 232.458 643.467 232.458C642.853 232.457 642.306 232.617 641.826 232.937C641.359 233.257 640.986 233.69 640.706 234.236C640.439 234.783 640.305 235.403 640.305 236.096C640.304 236.776 640.437 237.396 640.704 237.956C640.983 238.503 641.357 238.937 641.823 239.257C642.303 239.577 642.85 239.737 643.463 239.738ZM653.224 240.363C653.224 240.656 653.131 240.903 652.944 241.103C652.757 241.289 652.517 241.382 652.224 241.382C651.944 241.382 651.704 241.289 651.504 241.102C651.317 240.902 651.224 240.655 651.224 240.362L651.229 231.802C651.229 231.508 651.322 231.268 651.509 231.082C651.709 230.882 651.949 230.782 652.229 230.782C652.523 230.782 652.763 230.882 652.949 231.083C653.136 231.269 653.229 231.509 653.229 231.803L653.224 240.363ZM652.21 229.462C651.823 229.462 651.543 229.395 651.37 229.262C651.197 229.115 651.11 228.875 651.11 228.542L651.111 228.222C651.111 227.888 651.204 227.655 651.391 227.522C651.578 227.389 651.858 227.322 652.231 227.322C652.631 227.322 652.918 227.396 653.091 227.543C653.264 227.676 653.351 227.903 653.351 228.223L653.35 228.543C653.35 228.889 653.257 229.129 653.07 229.263C652.897 229.396 652.61 229.462 652.21 229.462ZM658.075 240.365C658.075 240.658 657.974 240.905 657.774 241.105C657.588 241.292 657.354 241.385 657.074 241.385C656.794 241.384 656.554 241.291 656.354 241.104C656.168 240.904 656.075 240.657 656.075 240.364L656.081 227.604C656.081 227.311 656.181 227.071 656.382 226.884C656.582 226.684 656.822 226.585 657.102 226.585C657.395 226.585 657.628 226.685 657.802 226.885C657.988 227.072 658.081 227.312 658.081 227.605L658.075 240.365ZM661.714 236.207C661.434 236.207 661.194 236.113 660.994 235.927C660.807 235.727 660.714 235.486 660.714 235.206C660.714 234.913 660.808 234.68 660.994 234.507C661.194 234.32 661.435 234.227 661.715 234.227L665.475 234.229C665.755 234.229 665.994 234.329 666.194 234.529C666.394 234.716 666.494 234.956 666.494 235.249C666.494 235.516 666.394 235.743 666.194 235.929C665.994 236.116 665.754 236.209 665.474 236.209L661.714 236.207ZM674.148 229.993L669.642 240.791C669.562 241.004 669.442 241.171 669.282 241.291C669.122 241.411 668.942 241.471 668.742 241.471C668.449 241.47 668.229 241.39 668.082 241.23C667.935 241.057 667.856 240.843 667.842 240.59C667.842 240.497 667.863 240.39 667.903 240.27L672.989 227.993C673.082 227.766 673.216 227.593 673.389 227.473C673.576 227.353 673.776 227.3 673.989 227.313C674.189 227.313 674.376 227.373 674.549 227.494C674.722 227.614 674.849 227.78 674.929 227.994L679.943 240.096C679.996 240.23 680.023 240.363 680.022 240.496C680.022 240.79 679.922 241.03 679.722 241.216C679.535 241.389 679.322 241.476 679.082 241.476C678.882 241.476 678.695 241.416 678.522 241.296C678.362 241.162 678.242 240.995 678.162 240.795L673.628 230.053L674.148 229.993ZM670.444 237.951L671.345 236.032L677.005 236.035L677.344 237.955L670.444 237.951ZM681.522 230.997L686.222 230.999C686.488 231 686.708 231.093 686.882 231.28C687.068 231.453 687.161 231.673 687.161 231.94C687.161 232.193 687.068 232.407 686.881 232.58C686.707 232.753 686.487 232.84 686.221 232.839L681.521 232.837C681.254 232.837 681.027 232.75 680.841 232.577C680.668 232.39 680.581 232.17 680.581 231.917C680.581 231.65 680.668 231.43 680.842 231.257C681.028 231.083 681.255 230.997 681.522 230.997ZM683.623 228.398C683.916 228.398 684.156 228.498 684.343 228.698C684.529 228.885 684.623 229.125 684.622 229.419L684.618 238.699C684.618 238.939 684.658 239.132 684.737 239.279C684.817 239.425 684.924 239.525 685.057 239.579C685.204 239.632 685.351 239.659 685.497 239.659C685.644 239.659 685.771 239.633 685.877 239.579C685.997 239.526 686.137 239.499 686.297 239.499C686.457 239.5 686.604 239.573 686.737 239.72C686.87 239.866 686.937 240.066 686.937 240.32C686.937 240.64 686.763 240.9 686.417 241.1C686.07 241.299 685.696 241.399 685.296 241.399C685.07 241.399 684.803 241.379 684.496 241.339C684.19 241.298 683.89 241.198 683.597 241.038C683.317 240.878 683.083 240.625 682.897 240.278C682.71 239.918 682.617 239.418 682.618 238.778L682.622 229.418C682.623 229.124 682.716 228.884 682.903 228.698C683.103 228.498 683.343 228.398 683.623 228.398ZM689.236 231.001L693.936 231.003C694.203 231.004 694.423 231.097 694.596 231.284C694.783 231.457 694.876 231.677 694.876 231.944C694.876 232.197 694.782 232.41 694.596 232.584C694.422 232.757 694.202 232.844 693.936 232.843L689.236 232.841C688.969 232.841 688.742 232.754 688.556 232.581C688.382 232.394 688.296 232.174 688.296 231.921C688.296 231.654 688.383 231.434 688.556 231.261C688.743 231.087 688.97 231.001 689.236 231.001ZM691.338 228.402C691.631 228.402 691.871 228.502 692.058 228.702C692.244 228.889 692.337 229.129 692.337 229.423L692.333 238.703C692.332 238.943 692.372 239.136 692.452 239.283C692.532 239.429 692.639 239.529 692.772 239.583C692.919 239.636 693.065 239.663 693.212 239.663C693.359 239.663 693.485 239.636 693.592 239.583C693.712 239.53 693.852 239.503 694.012 239.503C694.172 239.503 694.319 239.577 694.452 239.724C694.585 239.87 694.652 240.07 694.652 240.324C694.652 240.644 694.478 240.904 694.131 241.103C693.785 241.303 693.411 241.403 693.011 241.403C692.785 241.403 692.518 241.383 692.211 241.342C691.905 241.302 691.605 241.202 691.311 241.042C691.031 240.882 690.798 240.628 690.612 240.282C690.425 239.922 690.332 239.422 690.333 238.782L690.337 229.422C690.337 229.128 690.431 228.888 690.618 228.702C690.818 228.502 691.058 228.402 691.338 228.402ZM705.711 230.729C706.005 230.73 706.245 230.83 706.431 231.03C706.618 231.216 706.711 231.457 706.711 231.75L706.707 240.39C706.706 240.683 706.613 240.93 706.426 241.13C706.239 241.316 705.999 241.41 705.706 241.409C705.426 241.409 705.186 241.316 704.986 241.129C704.8 240.929 704.706 240.682 704.707 240.389L704.707 238.949L705.127 239.009C705.127 239.249 705.027 239.516 704.827 239.809C704.64 240.102 704.38 240.389 704.046 240.669C703.713 240.935 703.32 241.161 702.866 241.348C702.413 241.521 701.926 241.607 701.406 241.607C700.486 241.607 699.659 241.373 698.926 240.906C698.193 240.426 697.614 239.772 697.187 238.945C696.761 238.118 696.548 237.178 696.549 236.125C696.549 235.045 696.763 234.098 697.19 233.285C697.617 232.459 698.191 231.812 698.911 231.346C699.645 230.88 700.458 230.647 701.352 230.647C701.925 230.647 702.451 230.741 702.931 230.928C703.425 231.115 703.851 231.355 704.211 231.649C704.571 231.942 704.844 232.256 705.031 232.589C705.23 232.909 705.33 233.216 705.33 233.509L704.71 233.569L704.711 231.749C704.711 231.469 704.805 231.229 704.991 231.029C705.191 230.829 705.431 230.729 705.711 230.729ZM701.627 239.767C702.254 239.768 702.807 239.608 703.287 239.288C703.767 238.968 704.141 238.535 704.408 237.989C704.675 237.429 704.808 236.809 704.809 236.129C704.809 235.436 704.676 234.815 704.41 234.269C704.143 233.722 703.77 233.288 703.29 232.968C702.811 232.648 702.257 232.488 701.631 232.487C701.017 232.487 700.471 232.647 699.99 232.966C699.524 233.286 699.15 233.719 698.87 234.266C698.603 234.812 698.469 235.432 698.469 236.126C698.468 236.806 698.601 237.426 698.868 237.986C699.148 238.533 699.521 238.966 699.987 239.286C700.467 239.607 701.014 239.767 701.627 239.767ZM714.173 230.654C714.893 230.654 715.533 230.734 716.093 230.895C716.653 231.042 717.086 231.255 717.393 231.535C717.713 231.802 717.873 232.116 717.872 232.476C717.872 232.702 717.806 232.916 717.672 233.115C717.539 233.302 717.339 233.395 717.072 233.395C716.885 233.395 716.725 233.362 716.592 233.295C716.472 233.228 716.359 233.148 716.252 233.055C716.146 232.961 716.012 232.868 715.852 232.775C715.706 232.694 715.486 232.628 715.192 232.574C714.912 232.521 714.659 232.494 714.432 232.494C713.726 232.493 713.112 232.653 712.592 232.973C712.085 233.293 711.685 233.726 711.392 234.272C711.111 234.819 710.971 235.439 710.971 236.132C710.97 236.825 711.11 237.445 711.39 237.992C711.683 238.539 712.076 238.973 712.569 239.293C713.076 239.613 713.662 239.773 714.329 239.774C714.729 239.774 715.055 239.747 715.309 239.694C715.562 239.628 715.782 239.548 715.969 239.455C716.169 239.335 716.336 239.215 716.469 239.095C716.616 238.962 716.816 238.895 717.069 238.895C717.363 238.895 717.582 238.989 717.729 239.175C717.889 239.349 717.969 239.569 717.969 239.836C717.969 240.129 717.788 240.415 717.428 240.695C717.081 240.962 716.615 241.182 716.028 241.355C715.441 241.528 714.794 241.614 714.088 241.614C713.048 241.613 712.141 241.373 711.368 240.892C710.608 240.412 710.015 239.758 709.589 238.931C709.176 238.104 708.97 237.171 708.971 236.131C708.971 235.078 709.192 234.144 709.632 233.331C710.072 232.505 710.686 231.852 711.473 231.372C712.26 230.893 713.16 230.653 714.173 230.654ZM721.039 241.417C720.759 241.417 720.519 241.324 720.319 241.137C720.133 240.937 720.039 240.69 720.04 240.397L720.046 227.637C720.046 227.343 720.14 227.103 720.326 226.917C720.526 226.717 720.767 226.617 721.047 226.617C721.34 226.617 721.58 226.717 721.766 226.918C721.953 227.104 722.046 227.344 722.046 227.638L722.04 240.398C722.039 240.691 721.946 240.938 721.759 241.138C721.572 241.324 721.332 241.417 721.039 241.417ZM727.564 230.86C727.818 230.861 728.038 230.967 728.224 231.181C728.411 231.394 728.504 231.608 728.504 231.821C728.504 232.088 728.377 232.334 728.124 232.561L721.861 238.158L721.782 235.858L726.824 231.18C727.038 230.967 727.284 230.86 727.564 230.86ZM727.799 241.401C727.519 241.4 727.279 241.287 727.079 241.06L723.081 236.838L724.602 235.439L728.5 239.661C728.713 239.888 728.82 240.141 728.82 240.421C728.819 240.714 728.699 240.954 728.459 241.141C728.232 241.314 728.012 241.401 727.799 241.401ZM730.99 244.062C730.79 244.062 730.59 243.982 730.39 243.822C730.19 243.662 730.09 243.462 730.09 243.222C730.091 243.075 730.131 242.935 730.211 242.802L738.519 225.986C738.613 225.799 738.726 225.659 738.859 225.566C739.006 225.473 739.166 225.426 739.339 225.426C739.526 225.427 739.713 225.5 739.899 225.647C740.099 225.794 740.199 226 740.199 226.267C740.199 226.414 740.166 226.56 740.099 226.707L731.79 243.523C731.697 243.696 731.583 243.829 731.45 243.922C731.317 244.016 731.163 244.062 730.99 244.062Z" fill="black"/>
</svg>
