<svg width="1633" height="546" viewBox="0 0 1633 546" fill="none" xmlns="http://www.w3.org/2000/svg">
<path d="M96.9849 396.987C43.4218 319.548 63.8743 212.591 142.667 158.092C221.459 103.593 328.754 122.19 382.317 199.629C435.88 277.069 415.428 384.026 336.636 438.525C257.843 493.023 150.548 474.427 96.9849 396.987Z" fill="#FCD993"/>
<path d="M196.842 348.078C145.218 273.441 166.228 169.457 243.769 115.823C321.311 62.1896 426.021 79.2158 477.646 153.852C529.27 228.489 508.26 332.473 430.719 386.107C353.177 439.741 248.467 422.715 196.842 348.078Z" fill="#FFFBF5"/>
<path d="M291.312 183.809C293.899 184.176 300.394 185.166 306.81 189.605C309.175 191.241 312.846 193.843 315.336 198.646C317.956 203.699 317.755 208.264 317.689 209.32C317.62 210.419 317.213 215.492 313.386 220.739C309.699 225.794 304.934 228.138 301.819 229.628C300.356 230.328 293.119 233.669 283.168 233.397C280.141 233.313 272.758 233.029 265.263 228.708C262.624 227.187 257.792 224.319 254.713 218.582C253.86 216.991 251.774 212.974 252.166 207.424C252.263 206.068 252.706 201.793 255.749 197.23C257.935 193.952 260.456 192.034 262.058 190.839C266.417 187.581 270.638 186.218 273.373 185.361C276.914 184.25 279.714 183.861 280.588 183.749C282.647 183.484 286.56 183.143 291.309 183.815L291.312 183.809Z" fill="#FFD278" fill-opacity="0.78" stroke="white" stroke-width="0.25" stroke-linecap="round" stroke-linejoin="round"/>
<path d="M259.656 369.884C260.244 369.884 260.734 370.08 261.126 370.472C261.546 370.864 261.756 371.354 261.756 371.942C261.756 372.53 261.546 373.02 261.126 373.412C260.734 373.804 260.244 374 259.656 374H245.544C244.928 374 244.41 373.804 243.99 373.412C243.598 372.992 243.402 372.474 243.402 371.858V346.742C243.402 346.126 243.612 345.622 244.032 345.23C244.452 344.81 244.998 344.6 245.67 344.6C246.23 344.6 246.72 344.81 247.14 345.23C247.588 345.622 247.812 346.126 247.812 346.742V370.598L246.93 369.884H259.656ZM270.062 371.858C270.062 372.474 269.866 372.992 269.474 373.412C269.082 373.804 268.578 374 267.962 374C267.374 374 266.87 373.804 266.45 373.412C266.058 372.992 265.862 372.474 265.862 371.858V353.882C265.862 353.266 266.058 352.762 266.45 352.37C266.87 351.95 267.374 351.74 267.962 351.74C268.578 351.74 269.082 351.95 269.474 352.37C269.866 352.762 270.062 353.266 270.062 353.882V371.858ZM267.92 348.968C267.108 348.968 266.52 348.828 266.156 348.548C265.792 348.24 265.61 347.736 265.61 347.036V346.364C265.61 345.664 265.806 345.174 266.198 344.894C266.59 344.614 267.178 344.474 267.962 344.474C268.802 344.474 269.404 344.628 269.768 344.936C270.132 345.216 270.314 345.692 270.314 346.364V347.036C270.314 347.764 270.118 348.268 269.726 348.548C269.362 348.828 268.76 348.968 267.92 348.968ZM287.093 351.404C289.081 351.404 290.621 351.824 291.713 352.664C292.805 353.476 293.561 354.582 293.981 355.982C294.429 357.354 294.653 358.894 294.653 360.602V371.858C294.653 372.474 294.443 372.992 294.023 373.412C293.631 373.804 293.141 374 292.553 374C291.937 374 291.433 373.804 291.041 373.412C290.649 372.992 290.453 372.474 290.453 371.858V360.644C290.453 359.636 290.313 358.74 290.033 357.956C289.753 357.144 289.263 356.5 288.563 356.024C287.891 355.52 286.939 355.268 285.707 355.268C284.559 355.268 283.551 355.52 282.683 356.024C281.815 356.5 281.129 357.144 280.625 357.956C280.149 358.74 279.911 359.636 279.911 360.644V371.858C279.911 372.474 279.701 372.992 279.281 373.412C278.889 373.804 278.399 374 277.811 374C277.195 374 276.691 373.804 276.299 373.412C275.907 372.992 275.711 372.474 275.711 371.858V354.05C275.711 353.434 275.907 352.93 276.299 352.538C276.691 352.118 277.195 351.908 277.811 351.908C278.399 351.908 278.889 352.118 279.281 352.538C279.701 352.93 279.911 353.434 279.911 354.05V356.402L279.155 356.822C279.351 356.206 279.687 355.59 280.163 354.974C280.667 354.33 281.269 353.742 281.969 353.21C282.669 352.65 283.453 352.216 284.321 351.908C285.189 351.572 286.113 351.404 287.093 351.404ZM302.921 374C302.333 374 301.829 373.804 301.409 373.412C301.017 372.992 300.821 372.474 300.821 371.858V345.062C300.821 344.446 301.017 343.942 301.409 343.55C301.829 343.13 302.333 342.92 302.921 342.92C303.537 342.92 304.041 343.13 304.433 343.55C304.825 343.942 305.021 344.446 305.021 345.062V371.858C305.021 372.474 304.825 372.992 304.433 373.412C304.041 373.804 303.537 374 302.921 374ZM316.613 351.824C317.145 351.824 317.607 352.048 317.999 352.496C318.391 352.944 318.587 353.392 318.587 353.84C318.587 354.4 318.321 354.918 317.789 355.394L304.643 367.154L304.475 362.324L315.059 352.496C315.507 352.048 316.025 351.824 316.613 351.824ZM317.117 373.958C316.529 373.958 316.025 373.72 315.605 373.244L307.205 364.382L310.397 361.442L318.587 370.304C319.035 370.78 319.259 371.312 319.259 371.9C319.259 372.516 319.007 373.02 318.503 373.412C318.027 373.776 317.565 373.958 317.117 373.958ZM345.632 374C344.96 374 344.414 373.804 343.994 373.412C343.602 372.992 343.406 372.474 343.406 371.858V346.7H347.9V371.858C347.9 372.474 347.676 372.992 347.228 373.412C346.808 373.804 346.276 374 345.632 374ZM336.098 348.632C335.51 348.632 335.006 348.45 334.586 348.086C334.166 347.694 333.956 347.19 333.956 346.574C333.956 345.986 334.166 345.51 334.586 345.146C335.006 344.782 335.51 344.6 336.098 344.6H355.208C355.796 344.6 356.286 344.796 356.678 345.188C357.098 345.552 357.308 346.028 357.308 346.616C357.308 347.232 357.098 347.722 356.678 348.086C356.286 348.45 355.796 348.632 355.208 348.632H336.098ZM365.546 371.858C365.546 372.474 365.35 372.992 364.958 373.412C364.566 373.804 364.062 374 363.446 374C362.858 374 362.354 373.804 361.934 373.412C361.542 372.992 361.346 372.474 361.346 371.858V353.882C361.346 353.266 361.542 352.762 361.934 352.37C362.354 351.95 362.858 351.74 363.446 351.74C364.062 351.74 364.566 351.95 364.958 352.37C365.35 352.762 365.546 353.266 365.546 353.882V371.858ZM363.404 348.968C362.592 348.968 362.004 348.828 361.64 348.548C361.276 348.24 361.094 347.736 361.094 347.036V346.364C361.094 345.664 361.29 345.174 361.682 344.894C362.074 344.614 362.662 344.474 363.446 344.474C364.286 344.474 364.888 344.628 365.252 344.936C365.616 345.216 365.798 345.692 365.798 346.364V347.036C365.798 347.764 365.602 348.268 365.21 348.548C364.846 348.828 364.244 348.968 363.404 348.968ZM375.732 371.858C375.732 372.474 375.522 372.992 375.102 373.412C374.71 373.804 374.22 374 373.632 374C373.044 374 372.54 373.804 372.12 373.412C371.728 372.992 371.532 372.474 371.532 371.858V345.062C371.532 344.446 371.742 343.942 372.162 343.55C372.582 343.13 373.086 342.92 373.674 342.92C374.29 342.92 374.78 343.13 375.144 343.55C375.536 343.942 375.732 344.446 375.732 345.062V371.858ZM396.402 344.6C396.962 344.6 397.452 344.81 397.872 345.23C398.32 345.622 398.544 346.126 398.544 346.742V371.858C398.516 372.474 398.278 372.992 397.83 373.412C397.41 373.804 396.906 374 396.318 374C395.674 374 395.142 373.804 394.722 373.412C394.33 372.992 394.134 372.474 394.134 371.858V346.742C394.134 346.126 394.344 345.622 394.764 345.23C395.184 344.81 395.73 344.6 396.402 344.6ZM415.344 344.6C416.016 344.6 416.548 344.81 416.94 345.23C417.332 345.622 417.528 346.126 417.528 346.742V371.858C417.528 372.474 417.318 372.992 416.898 373.412C416.506 373.804 415.974 374 415.302 374C414.714 374 414.21 373.804 413.79 373.412C413.37 372.992 413.16 372.474 413.16 371.858V346.742C413.16 346.126 413.37 345.622 413.79 345.23C414.238 344.81 414.756 344.6 415.344 344.6ZM396.234 357.116H415.386L415.344 361.148H396.192L396.234 357.116ZM428.648 374.924C428.648 376.436 428.34 377.738 427.724 378.83C427.108 379.922 426.296 380.762 425.288 381.35C424.28 381.938 423.202 382.232 422.054 382.232C421.466 382.232 420.99 382.036 420.626 381.644C420.262 381.28 420.08 380.832 420.08 380.3V379.922C420.08 379.418 420.262 379.012 420.626 378.704C420.962 378.396 421.382 378.158 421.886 377.99C422.53 377.794 423.034 377.5 423.398 377.108C423.79 376.744 424.056 376.268 424.196 375.68C424.364 375.12 424.448 374.504 424.448 373.832V354.008C424.448 353.42 424.644 352.93 425.036 352.538C425.428 352.118 425.932 351.908 426.548 351.908C427.164 351.908 427.668 352.118 428.06 352.538C428.452 352.93 428.648 353.42 428.648 354.008V374.924ZM426.464 348.968C425.652 348.968 425.064 348.828 424.7 348.548C424.336 348.24 424.154 347.736 424.154 347.036V346.364C424.154 345.664 424.35 345.174 424.742 344.894C425.134 344.614 425.722 344.474 426.506 344.474C427.346 344.474 427.948 344.628 428.312 344.936C428.676 345.216 428.858 345.692 428.858 346.364V347.036C428.858 347.764 428.662 348.268 428.27 348.548C427.906 348.828 427.304 348.968 426.464 348.968ZM445.634 374.42C443.31 374.42 441.294 373.944 439.586 372.992C437.878 372.012 436.548 370.682 435.596 369.002C434.672 367.294 434.21 365.348 434.21 363.164C434.21 360.7 434.7 358.6 435.68 356.864C436.688 355.1 437.99 353.756 439.586 352.832C441.182 351.88 442.876 351.404 444.668 351.404C446.04 351.404 447.342 351.684 448.574 352.244C449.806 352.776 450.898 353.532 451.85 354.512C452.83 355.464 453.6 356.598 454.16 357.914C454.72 359.202 455.014 360.616 455.042 362.156C455.014 362.716 454.79 363.178 454.37 363.542C453.95 363.906 453.46 364.088 452.9 364.088H436.562L435.554 360.518H451.346L450.548 361.274V360.224C450.492 359.244 450.17 358.39 449.582 357.662C448.994 356.906 448.266 356.332 447.398 355.94C446.53 355.52 445.62 355.31 444.668 355.31C443.828 355.31 443.016 355.45 442.232 355.73C441.476 355.982 440.79 356.402 440.174 356.99C439.586 357.578 439.11 358.362 438.746 359.342C438.41 360.294 438.242 361.484 438.242 362.912C438.242 364.452 438.564 365.796 439.208 366.944C439.852 368.092 440.72 368.988 441.812 369.632C442.904 370.248 444.108 370.556 445.424 370.556C446.46 370.556 447.314 370.458 447.986 370.262C448.658 370.038 449.218 369.772 449.666 369.464C450.114 369.156 450.506 368.862 450.842 368.582C451.262 368.33 451.682 368.204 452.102 368.204C452.606 368.204 453.026 368.386 453.362 368.75C453.698 369.086 453.866 369.492 453.866 369.968C453.866 370.584 453.558 371.144 452.942 371.648C452.186 372.376 451.136 373.02 449.792 373.58C448.476 374.14 447.09 374.42 445.634 374.42ZM470.878 351.53C472.95 351.53 474.546 352.048 475.666 353.084C476.786 354.092 477.528 355.464 477.892 357.2L477.22 356.99L477.514 356.318C477.878 355.59 478.424 354.862 479.152 354.134C479.908 353.378 480.804 352.762 481.84 352.286C482.876 351.782 483.982 351.53 485.158 351.53C487.09 351.53 488.588 351.95 489.652 352.79C490.716 353.602 491.458 354.708 491.878 356.108C492.298 357.48 492.508 359.02 492.508 360.728V371.858C492.508 372.474 492.312 372.992 491.92 373.412C491.528 373.804 491.024 374 490.408 374C489.82 374 489.316 373.804 488.896 373.412C488.504 372.992 488.308 372.474 488.308 371.858V360.77C488.308 359.79 488.168 358.894 487.888 358.082C487.636 357.27 487.174 356.626 486.502 356.15C485.858 355.646 484.962 355.394 483.814 355.394C482.722 355.394 481.742 355.646 480.874 356.15C480.034 356.626 479.376 357.27 478.9 358.082C478.424 358.894 478.186 359.79 478.186 360.77V371.858C478.186 372.474 477.99 372.992 477.598 373.412C477.206 373.804 476.702 374 476.086 374C475.47 374 474.966 373.804 474.574 373.412C474.182 372.992 473.986 372.474 473.986 371.858V360.728C473.986 359.748 473.846 358.852 473.566 358.04C473.314 357.228 472.866 356.584 472.222 356.108C471.578 355.632 470.682 355.394 469.534 355.394C468.442 355.394 467.476 355.632 466.636 356.108C465.796 356.584 465.138 357.228 464.662 358.04C464.214 358.852 463.99 359.748 463.99 360.728V371.858C463.99 372.474 463.78 372.992 463.36 373.412C462.968 373.804 462.478 374 461.89 374C461.274 374 460.77 373.804 460.378 373.412C459.986 372.992 459.79 372.474 459.79 371.858V354.05C459.79 353.434 459.986 352.93 460.378 352.538C460.77 352.118 461.274 351.908 461.89 351.908C462.478 351.908 462.968 352.118 463.36 352.538C463.78 352.93 463.99 353.434 463.99 354.05V356.528L463.192 356.99C463.388 356.374 463.71 355.744 464.158 355.1C464.606 354.456 465.166 353.868 465.838 353.336C466.538 352.804 467.308 352.37 468.148 352.034C468.988 351.698 469.898 351.53 470.878 351.53ZM509.473 351.53C511.545 351.53 513.141 352.048 514.261 353.084C515.381 354.092 516.123 355.464 516.487 357.2L515.815 356.99L516.109 356.318C516.473 355.59 517.019 354.862 517.747 354.134C518.503 353.378 519.399 352.762 520.435 352.286C521.471 351.782 522.577 351.53 523.753 351.53C525.685 351.53 527.183 351.95 528.247 352.79C529.311 353.602 530.053 354.708 530.473 356.108C530.893 357.48 531.103 359.02 531.103 360.728V371.858C531.103 372.474 530.907 372.992 530.515 373.412C530.123 373.804 529.619 374 529.003 374C528.415 374 527.911 373.804 527.491 373.412C527.099 372.992 526.903 372.474 526.903 371.858V360.77C526.903 359.79 526.763 358.894 526.483 358.082C526.231 357.27 525.769 356.626 525.097 356.15C524.453 355.646 523.557 355.394 522.409 355.394C521.317 355.394 520.337 355.646 519.469 356.15C518.629 356.626 517.971 357.27 517.495 358.082C517.019 358.894 516.781 359.79 516.781 360.77V371.858C516.781 372.474 516.585 372.992 516.193 373.412C515.801 373.804 515.297 374 514.681 374C514.065 374 513.561 373.804 513.169 373.412C512.777 372.992 512.581 372.474 512.581 371.858V360.728C512.581 359.748 512.441 358.852 512.161 358.04C511.909 357.228 511.461 356.584 510.817 356.108C510.173 355.632 509.277 355.394 508.129 355.394C507.037 355.394 506.071 355.632 505.231 356.108C504.391 356.584 503.733 357.228 503.257 358.04C502.809 358.852 502.585 359.748 502.585 360.728V371.858C502.585 372.474 502.375 372.992 501.955 373.412C501.563 373.804 501.073 374 500.485 374C499.869 374 499.365 373.804 498.973 373.412C498.581 372.992 498.385 372.474 498.385 371.858V354.05C498.385 353.434 498.581 352.93 498.973 352.538C499.365 352.118 499.869 351.908 500.485 351.908C501.073 351.908 501.563 352.118 501.955 352.538C502.375 352.93 502.585 353.434 502.585 354.05V356.528L501.787 356.99C501.983 356.374 502.305 355.744 502.753 355.1C503.201 354.456 503.761 353.868 504.433 353.336C505.133 352.804 505.903 352.37 506.743 352.034C507.583 351.698 508.493 351.53 509.473 351.53ZM547.271 374.42C544.947 374.42 542.931 373.944 541.223 372.992C539.515 372.012 538.185 370.682 537.233 369.002C536.309 367.294 535.847 365.348 535.847 363.164C535.847 360.7 536.337 358.6 537.317 356.864C538.325 355.1 539.627 353.756 541.223 352.832C542.819 351.88 544.513 351.404 546.305 351.404C547.677 351.404 548.979 351.684 550.211 352.244C551.443 352.776 552.535 353.532 553.487 354.512C554.467 355.464 555.237 356.598 555.797 357.914C556.357 359.202 556.651 360.616 556.679 362.156C556.651 362.716 556.427 363.178 556.007 363.542C555.587 363.906 555.097 364.088 554.537 364.088H538.199L537.191 360.518H552.983L552.185 361.274V360.224C552.129 359.244 551.807 358.39 551.219 357.662C550.631 356.906 549.903 356.332 549.035 355.94C548.167 355.52 547.257 355.31 546.305 355.31C545.465 355.31 544.653 355.45 543.869 355.73C543.113 355.982 542.427 356.402 541.811 356.99C541.223 357.578 540.747 358.362 540.383 359.342C540.047 360.294 539.879 361.484 539.879 362.912C539.879 364.452 540.201 365.796 540.845 366.944C541.489 368.092 542.357 368.988 543.449 369.632C544.541 370.248 545.745 370.556 547.061 370.556C548.097 370.556 548.951 370.458 549.623 370.262C550.295 370.038 550.855 369.772 551.303 369.464C551.751 369.156 552.143 368.862 552.479 368.582C552.899 368.33 553.319 368.204 553.739 368.204C554.243 368.204 554.663 368.386 554.999 368.75C555.335 369.086 555.503 369.492 555.503 369.968C555.503 370.584 555.195 371.144 554.579 371.648C553.823 372.376 552.773 373.02 551.429 373.58C550.113 374.14 548.727 374.42 547.271 374.42ZM560.124 370.556C559.872 370.164 559.76 369.716 559.788 369.212C559.816 368.68 560.11 368.232 560.67 367.868C561.062 367.616 561.468 367.518 561.888 367.574C562.336 367.602 562.756 367.812 563.148 368.204C563.932 369.072 564.8 369.758 565.752 370.262C566.732 370.766 567.908 371.018 569.28 371.018C569.84 370.99 570.414 370.906 571.002 370.766C571.59 370.598 572.094 370.318 572.514 369.926C572.934 369.506 573.144 368.904 573.144 368.12C573.144 367.42 572.92 366.86 572.472 366.44C572.024 366.02 571.436 365.684 570.708 365.432C569.98 365.152 569.196 364.9 568.356 364.676C567.46 364.424 566.55 364.144 565.626 363.836C564.73 363.528 563.918 363.136 563.19 362.66C562.462 362.156 561.86 361.512 561.384 360.728C560.936 359.944 560.712 358.978 560.712 357.83C560.712 356.514 561.076 355.38 561.804 354.428C562.56 353.476 563.526 352.734 564.702 352.202C565.906 351.67 567.208 351.404 568.608 351.404C569.42 351.404 570.274 351.516 571.17 351.74C572.066 351.936 572.934 352.258 573.774 352.706C574.614 353.154 575.342 353.742 575.958 354.47C576.238 354.834 576.392 355.268 576.42 355.772C576.476 356.276 576.252 356.724 575.748 357.116C575.412 357.396 575.006 357.522 574.53 357.494C574.054 357.466 573.662 357.312 573.354 357.032C572.822 356.36 572.136 355.842 571.296 355.478C570.456 355.086 569.504 354.89 568.44 354.89C567.908 354.89 567.348 354.974 566.76 355.142C566.2 355.282 565.724 355.548 565.332 355.94C564.94 356.332 564.744 356.906 564.744 357.662C564.744 358.362 564.968 358.922 565.416 359.342C565.892 359.762 566.508 360.112 567.264 360.392C568.02 360.672 568.846 360.924 569.742 361.148C570.61 361.372 571.464 361.638 572.304 361.946C573.172 362.254 573.942 362.66 574.614 363.164C575.314 363.64 575.874 364.27 576.294 365.054C576.742 365.81 576.966 366.776 576.966 367.952C576.966 369.324 576.56 370.5 575.748 371.48C574.964 372.432 573.956 373.16 572.724 373.664C571.52 374.168 570.246 374.42 568.902 374.42C567.306 374.42 565.71 374.14 564.114 373.58C562.546 372.992 561.216 371.984 560.124 370.556ZM585.431 371.858C585.431 372.474 585.235 372.992 584.843 373.412C584.451 373.804 583.947 374 583.331 374C582.743 374 582.239 373.804 581.819 373.412C581.427 372.992 581.231 372.474 581.231 371.858V353.882C581.231 353.266 581.427 352.762 581.819 352.37C582.239 351.95 582.743 351.74 583.331 351.74C583.947 351.74 584.451 351.95 584.843 352.37C585.235 352.762 585.431 353.266 585.431 353.882V371.858ZM583.289 348.968C582.477 348.968 581.889 348.828 581.525 348.548C581.161 348.24 580.979 347.736 580.979 347.036V346.364C580.979 345.664 581.175 345.174 581.567 344.894C581.959 344.614 582.547 344.474 583.331 344.474C584.171 344.474 584.773 344.628 585.137 344.936C585.501 345.216 585.683 345.692 585.683 346.364V347.036C585.683 347.764 585.487 348.268 585.095 348.548C584.731 348.828 584.129 348.968 583.289 348.968ZM609.183 342.92C609.799 342.92 610.303 343.116 610.695 343.508C611.087 343.9 611.283 344.418 611.283 345.062V371.858C611.283 372.474 611.087 372.992 610.695 373.412C610.303 373.804 609.799 374 609.183 374C608.595 374 608.091 373.804 607.671 373.412C607.279 372.992 607.083 372.474 607.083 371.858V368.834L607.965 368.876C607.965 369.38 607.755 369.954 607.335 370.598C606.943 371.214 606.397 371.816 605.697 372.404C604.997 372.992 604.171 373.482 603.219 373.874C602.267 374.238 601.245 374.42 600.153 374.42C598.221 374.42 596.485 373.93 594.945 372.95C593.405 371.942 592.187 370.584 591.291 368.876C590.395 367.14 589.947 365.152 589.947 362.912C589.947 360.672 590.395 358.698 591.291 356.99C592.187 355.254 593.391 353.896 594.903 352.916C596.443 351.908 598.151 351.404 600.027 351.404C601.203 351.404 602.295 351.6 603.303 351.992C604.339 352.384 605.235 352.888 605.991 353.504C606.747 354.12 607.335 354.778 607.755 355.478C608.175 356.15 608.385 356.794 608.385 357.41L607.083 357.536V345.062C607.083 344.446 607.279 343.942 607.671 343.55C608.091 343.13 608.595 342.92 609.183 342.92ZM600.615 370.556C601.959 370.556 603.121 370.22 604.101 369.548C605.109 368.876 605.893 367.966 606.453 366.818C607.013 365.67 607.293 364.368 607.293 362.912C607.293 361.456 607.013 360.154 606.453 359.006C605.893 357.858 605.109 356.948 604.101 356.276C603.093 355.604 601.931 355.268 600.615 355.268C599.327 355.268 598.179 355.604 597.171 356.276C596.191 356.948 595.407 357.858 594.819 359.006C594.259 360.154 593.979 361.456 593.979 362.912C593.979 364.368 594.259 365.67 594.819 366.818C595.407 367.966 596.191 368.876 597.171 369.548C598.179 370.22 599.327 370.556 600.615 370.556ZM627.457 374.42C625.133 374.42 623.117 373.944 621.409 372.992C619.701 372.012 618.371 370.682 617.419 369.002C616.495 367.294 616.033 365.348 616.033 363.164C616.033 360.7 616.523 358.6 617.503 356.864C618.511 355.1 619.813 353.756 621.409 352.832C623.005 351.88 624.699 351.404 626.491 351.404C627.863 351.404 629.165 351.684 630.397 352.244C631.629 352.776 632.721 353.532 633.673 354.512C634.653 355.464 635.423 356.598 635.983 357.914C636.543 359.202 636.837 360.616 636.865 362.156C636.837 362.716 636.613 363.178 636.193 363.542C635.773 363.906 635.283 364.088 634.723 364.088H618.385L617.377 360.518H633.169L632.371 361.274V360.224C632.315 359.244 631.993 358.39 631.405 357.662C630.817 356.906 630.089 356.332 629.221 355.94C628.353 355.52 627.443 355.31 626.491 355.31C625.651 355.31 624.839 355.45 624.055 355.73C623.299 355.982 622.613 356.402 621.997 356.99C621.409 357.578 620.933 358.362 620.569 359.342C620.233 360.294 620.065 361.484 620.065 362.912C620.065 364.452 620.387 365.796 621.031 366.944C621.675 368.092 622.543 368.988 623.635 369.632C624.727 370.248 625.931 370.556 627.247 370.556C628.283 370.556 629.137 370.458 629.809 370.262C630.481 370.038 631.041 369.772 631.489 369.464C631.937 369.156 632.329 368.862 632.665 368.582C633.085 368.33 633.505 368.204 633.925 368.204C634.429 368.204 634.849 368.386 635.185 368.75C635.521 369.086 635.689 369.492 635.689 369.968C635.689 370.584 635.381 371.144 634.765 371.648C634.009 372.376 632.959 373.02 631.615 373.58C630.299 374.14 628.913 374.42 627.457 374.42ZM663.339 374C662.667 374 662.121 373.804 661.701 373.412C661.309 372.992 661.113 372.474 661.113 371.858V346.7H665.607V371.858C665.607 372.474 665.383 372.992 664.935 373.412C664.515 373.804 663.983 374 663.339 374ZM653.805 348.632C653.217 348.632 652.713 348.45 652.293 348.086C651.873 347.694 651.663 347.19 651.663 346.574C651.663 345.986 651.873 345.51 652.293 345.146C652.713 344.782 653.217 344.6 653.805 344.6H672.915C673.503 344.6 673.993 344.796 674.385 345.188C674.805 345.552 675.015 346.028 675.015 346.616C675.015 347.232 674.805 347.722 674.385 348.086C673.993 348.45 673.503 348.632 672.915 348.632H653.805ZM684.55 374.42C682.226 374.42 680.21 373.944 678.502 372.992C676.794 372.012 675.464 370.682 674.512 369.002C673.588 367.294 673.126 365.348 673.126 363.164C673.126 360.7 673.616 358.6 674.596 356.864C675.604 355.1 676.906 353.756 678.502 352.832C680.098 351.88 681.792 351.404 683.584 351.404C684.956 351.404 686.258 351.684 687.49 352.244C688.722 352.776 689.814 353.532 690.766 354.512C691.746 355.464 692.516 356.598 693.076 357.914C693.636 359.202 693.93 360.616 693.958 362.156C693.93 362.716 693.706 363.178 693.286 363.542C692.866 363.906 692.376 364.088 691.816 364.088H675.478L674.47 360.518H690.262L689.464 361.274V360.224C689.408 359.244 689.086 358.39 688.498 357.662C687.91 356.906 687.182 356.332 686.314 355.94C685.446 355.52 684.536 355.31 683.584 355.31C682.744 355.31 681.932 355.45 681.148 355.73C680.392 355.982 679.706 356.402 679.09 356.99C678.502 357.578 678.026 358.362 677.662 359.342C677.326 360.294 677.158 361.484 677.158 362.912C677.158 364.452 677.48 365.796 678.124 366.944C678.768 368.092 679.636 368.988 680.728 369.632C681.82 370.248 683.024 370.556 684.34 370.556C685.376 370.556 686.23 370.458 686.902 370.262C687.574 370.038 688.134 369.772 688.582 369.464C689.03 369.156 689.422 368.862 689.758 368.582C690.178 368.33 690.598 368.204 691.018 368.204C691.522 368.204 691.942 368.386 692.278 368.75C692.614 369.086 692.782 369.492 692.782 369.968C692.782 370.584 692.474 371.144 691.858 371.648C691.102 372.376 690.052 373.02 688.708 373.58C687.392 374.14 686.006 374.42 684.55 374.42ZM709.794 351.53C711.866 351.53 713.462 352.048 714.582 353.084C715.702 354.092 716.444 355.464 716.808 357.2L716.136 356.99L716.43 356.318C716.794 355.59 717.34 354.862 718.068 354.134C718.824 353.378 719.72 352.762 720.756 352.286C721.792 351.782 722.898 351.53 724.074 351.53C726.006 351.53 727.504 351.95 728.568 352.79C729.632 353.602 730.374 354.708 730.794 356.108C731.214 357.48 731.424 359.02 731.424 360.728V371.858C731.424 372.474 731.228 372.992 730.836 373.412C730.444 373.804 729.94 374 729.324 374C728.736 374 728.232 373.804 727.812 373.412C727.42 372.992 727.224 372.474 727.224 371.858V360.77C727.224 359.79 727.084 358.894 726.804 358.082C726.552 357.27 726.09 356.626 725.418 356.15C724.774 355.646 723.878 355.394 722.73 355.394C721.638 355.394 720.658 355.646 719.79 356.15C718.95 356.626 718.292 357.27 717.816 358.082C717.34 358.894 717.102 359.79 717.102 360.77V371.858C717.102 372.474 716.906 372.992 716.514 373.412C716.122 373.804 715.618 374 715.002 374C714.386 374 713.882 373.804 713.49 373.412C713.098 372.992 712.902 372.474 712.902 371.858V360.728C712.902 359.748 712.762 358.852 712.482 358.04C712.23 357.228 711.782 356.584 711.138 356.108C710.494 355.632 709.598 355.394 708.45 355.394C707.358 355.394 706.392 355.632 705.552 356.108C704.712 356.584 704.054 357.228 703.578 358.04C703.13 358.852 702.906 359.748 702.906 360.728V371.858C702.906 372.474 702.696 372.992 702.276 373.412C701.884 373.804 701.394 374 700.806 374C700.19 374 699.686 373.804 699.294 373.412C698.902 372.992 698.706 372.474 698.706 371.858V354.05C698.706 353.434 698.902 352.93 699.294 352.538C699.686 352.118 700.19 351.908 700.806 351.908C701.394 351.908 701.884 352.118 702.276 352.538C702.696 352.93 702.906 353.434 702.906 354.05V356.528L702.108 356.99C702.304 356.374 702.626 355.744 703.074 355.1C703.522 354.456 704.082 353.868 704.754 353.336C705.454 352.804 706.224 352.37 707.064 352.034C707.904 351.698 708.814 351.53 709.794 351.53ZM755.403 351.572C756.019 351.572 756.523 351.782 756.915 352.202C757.307 352.594 757.503 353.098 757.503 353.714V371.858C757.503 372.474 757.307 372.992 756.915 373.412C756.523 373.804 756.019 374 755.403 374C754.815 374 754.311 373.804 753.891 373.412C753.499 372.992 753.303 372.474 753.303 371.858V368.834L754.185 368.96C754.185 369.464 753.975 370.024 753.555 370.64C753.163 371.256 752.617 371.858 751.917 372.446C751.217 373.006 750.391 373.482 749.439 373.874C748.487 374.238 747.465 374.42 746.373 374.42C744.441 374.42 742.705 373.93 741.165 372.95C739.625 371.942 738.407 370.57 737.511 368.834C736.615 367.098 736.167 365.124 736.167 362.912C736.167 360.644 736.615 358.656 737.511 356.948C738.407 355.212 739.611 353.854 741.123 352.874C742.663 351.894 744.371 351.404 746.247 351.404C747.451 351.404 748.557 351.6 749.565 351.992C750.601 352.384 751.497 352.888 752.253 353.504C753.009 354.12 753.583 354.778 753.975 355.478C754.395 356.15 754.605 356.794 754.605 357.41L753.303 357.536V353.714C753.303 353.126 753.499 352.622 753.891 352.202C754.311 351.782 754.815 351.572 755.403 351.572ZM746.835 370.556C748.151 370.556 749.313 370.22 750.321 369.548C751.329 368.876 752.113 367.966 752.673 366.818C753.233 365.642 753.513 364.34 753.513 362.912C753.513 361.456 753.233 360.154 752.673 359.006C752.113 357.858 751.329 356.948 750.321 356.276C749.313 355.604 748.151 355.268 746.835 355.268C745.547 355.268 744.399 355.604 743.391 356.276C742.411 356.948 741.627 357.858 741.039 359.006C740.479 360.154 740.199 361.456 740.199 362.912C740.199 364.34 740.479 365.642 741.039 366.818C741.627 367.966 742.411 368.876 743.391 369.548C744.399 370.22 745.547 370.556 746.835 370.556ZM782.175 374.294C781.083 374.294 779.949 374.126 778.773 373.79C777.625 373.454 776.645 372.95 775.833 372.278C775.525 372.026 775.287 371.704 775.119 371.312C774.951 370.92 774.867 370.542 774.867 370.178C774.867 369.786 775.035 369.408 775.371 369.044C775.735 368.652 776.225 368.456 776.841 368.456C777.289 368.456 777.807 368.68 778.395 369.128C778.955 369.492 779.543 369.8 780.159 370.052C780.803 370.304 781.461 370.43 782.133 370.43C783.589 370.43 784.849 370.164 785.913 369.632C786.977 369.1 787.789 368.358 788.349 367.406C788.937 366.426 789.231 365.292 789.231 364.004C789.231 362.8 788.965 361.778 788.433 360.938C787.901 360.07 787.173 359.398 786.249 358.922C785.353 358.446 784.345 358.208 783.225 358.208C782.301 358.208 781.489 358.362 780.789 358.67C780.089 358.95 779.459 359.244 778.899 359.552C778.339 359.832 777.821 359.972 777.345 359.972C776.617 359.972 776.071 359.818 775.707 359.51C775.343 359.174 775.105 358.782 774.993 358.334C774.909 357.858 774.895 357.424 774.951 357.032L776.421 346.49C776.505 346.014 776.729 345.622 777.093 345.314C777.485 344.978 777.961 344.81 778.521 344.81H790.827C791.387 344.81 791.849 345.006 792.213 345.398C792.605 345.762 792.801 346.224 792.801 346.784C792.801 347.344 792.605 347.806 792.213 348.17C791.849 348.534 791.387 348.716 790.827 348.716H779.571L780.033 348.338L778.689 357.368L778.059 356.108C778.311 355.828 778.731 355.562 779.319 355.31C779.935 355.03 780.621 354.806 781.377 354.638C782.161 354.442 782.945 354.344 783.729 354.344C785.577 354.344 787.229 354.764 788.685 355.604C790.169 356.416 791.331 357.55 792.171 359.006C793.011 360.462 793.431 362.114 793.431 363.962C793.431 366.034 792.969 367.854 792.045 369.422C791.121 370.962 789.819 372.166 788.139 373.034C786.459 373.874 784.471 374.294 782.175 374.294ZM800.84 357.2C800.14 357.2 799.594 357.018 799.202 356.654C798.838 356.262 798.656 355.716 798.656 355.016V354.218C798.656 353.518 798.838 352.972 799.202 352.58C799.594 352.188 800.14 351.992 800.84 351.992H801.302C802.002 351.992 802.534 352.188 802.898 352.58C803.262 352.972 803.444 353.518 803.444 354.218V355.016C803.444 355.716 803.262 356.262 802.898 356.654C802.534 357.018 802.002 357.2 801.302 357.2H800.84ZM800.84 374C800.14 374 799.594 373.804 799.202 373.412C798.838 373.02 798.656 372.474 798.656 371.774V371.018C798.656 370.29 798.838 369.744 799.202 369.38C799.594 368.988 800.14 368.792 800.84 368.792H801.302C802.002 368.792 802.534 368.988 802.898 369.38C803.262 369.744 803.444 370.29 803.444 371.018V371.774C803.444 372.474 803.262 373.02 802.898 373.412C802.534 373.804 802.002 374 801.302 374H800.84ZM823.539 344.6C824.099 344.6 824.589 344.81 825.009 345.23C825.457 345.622 825.681 346.126 825.681 346.742V371.858C825.653 372.474 825.415 372.992 824.967 373.412C824.547 373.804 824.043 374 823.455 374C822.811 374 822.279 373.804 821.859 373.412C821.467 372.992 821.271 372.474 821.271 371.858V346.742C821.271 346.126 821.481 345.622 821.901 345.23C822.321 344.81 822.867 344.6 823.539 344.6ZM842.481 344.6C843.153 344.6 843.685 344.81 844.077 345.23C844.469 345.622 844.665 346.126 844.665 346.742V371.858C844.665 372.474 844.455 372.992 844.035 373.412C843.643 373.804 843.111 374 842.439 374C841.851 374 841.347 373.804 840.927 373.412C840.507 372.992 840.297 372.474 840.297 371.858V346.742C840.297 346.126 840.507 345.622 840.927 345.23C841.375 344.81 841.893 344.6 842.481 344.6ZM823.371 357.116H842.523L842.481 361.148H823.329L823.371 357.116ZM850.703 352.16H860.573C861.133 352.16 861.595 352.356 861.959 352.748C862.351 353.112 862.547 353.574 862.547 354.134C862.547 354.666 862.351 355.114 861.959 355.478C861.595 355.842 861.133 356.024 860.573 356.024H850.703C850.143 356.024 849.667 355.842 849.275 355.478C848.911 355.086 848.729 354.624 848.729 354.092C848.729 353.532 848.911 353.07 849.275 352.706C849.667 352.342 850.143 352.16 850.703 352.16ZM855.113 346.7C855.729 346.7 856.233 346.91 856.625 347.33C857.017 347.722 857.213 348.226 857.213 348.842V368.33C857.213 368.834 857.297 369.24 857.465 369.548C857.633 369.856 857.857 370.066 858.137 370.178C858.445 370.29 858.753 370.346 859.061 370.346C859.369 370.346 859.635 370.29 859.859 370.178C860.111 370.066 860.405 370.01 860.741 370.01C861.077 370.01 861.385 370.164 861.665 370.472C861.945 370.78 862.085 371.2 862.085 371.732C862.085 372.404 861.721 372.95 860.993 373.37C860.265 373.79 859.481 374 858.641 374C858.165 374 857.605 373.958 856.961 373.874C856.317 373.79 855.687 373.58 855.071 373.244C854.483 372.908 853.993 372.376 853.601 371.648C853.209 370.892 853.013 369.842 853.013 368.498V348.842C853.013 348.226 853.209 347.722 853.601 347.33C854.021 346.91 854.525 346.7 855.113 346.7ZM866.904 352.16H876.774C877.334 352.16 877.796 352.356 878.16 352.748C878.552 353.112 878.748 353.574 878.748 354.134C878.748 354.666 878.552 355.114 878.16 355.478C877.796 355.842 877.334 356.024 876.774 356.024H866.904C866.344 356.024 865.868 355.842 865.476 355.478C865.112 355.086 864.93 354.624 864.93 354.092C864.93 353.532 865.112 353.07 865.476 352.706C865.868 352.342 866.344 352.16 866.904 352.16ZM871.314 346.7C871.93 346.7 872.434 346.91 872.826 347.33C873.218 347.722 873.414 348.226 873.414 348.842V368.33C873.414 368.834 873.498 369.24 873.666 369.548C873.834 369.856 874.058 370.066 874.338 370.178C874.646 370.29 874.954 370.346 875.262 370.346C875.57 370.346 875.836 370.29 876.06 370.178C876.312 370.066 876.606 370.01 876.942 370.01C877.278 370.01 877.586 370.164 877.866 370.472C878.146 370.78 878.286 371.2 878.286 371.732C878.286 372.404 877.922 372.95 877.194 373.37C876.466 373.79 875.682 374 874.842 374C874.366 374 873.806 373.958 873.162 373.874C872.518 373.79 871.888 373.58 871.272 373.244C870.684 372.908 870.194 372.376 869.802 371.648C869.41 370.892 869.214 369.842 869.214 368.498V348.842C869.214 348.226 869.41 347.722 869.802 347.33C870.222 346.91 870.726 346.7 871.314 346.7ZM894.529 351.53C896.489 351.53 898.225 352.02 899.737 353C901.277 353.98 902.495 355.324 903.391 357.032C904.287 358.712 904.735 360.672 904.735 362.912C904.735 365.152 904.287 367.14 903.391 368.876C902.495 370.584 901.291 371.928 899.779 372.908C898.267 373.888 896.559 374.378 894.655 374.378C893.591 374.378 892.583 374.21 891.631 373.874C890.679 373.538 889.839 373.104 889.111 372.572C888.383 372.012 887.781 371.424 887.305 370.808C886.857 370.192 886.577 369.618 886.465 369.086L887.599 368.54V380.258C887.599 380.874 887.389 381.378 886.969 381.77C886.577 382.19 886.087 382.4 885.499 382.4C884.883 382.4 884.379 382.19 883.987 381.77C883.595 381.378 883.399 380.874 883.399 380.258V353.966C883.399 353.378 883.595 352.874 883.987 352.454C884.379 352.034 884.883 351.824 885.499 351.824C886.087 351.824 886.577 352.034 886.969 352.454C887.389 352.874 887.599 353.378 887.599 353.966V356.864L886.927 356.486C887.011 355.954 887.277 355.408 887.725 354.848C888.173 354.26 888.733 353.714 889.405 353.21C890.105 352.706 890.889 352.3 891.757 351.992C892.653 351.684 893.577 351.53 894.529 351.53ZM894.067 355.394C892.723 355.394 891.547 355.73 890.539 356.402C889.559 357.046 888.789 357.928 888.229 359.048C887.669 360.168 887.389 361.456 887.389 362.912C887.389 364.34 887.669 365.642 888.229 366.818C888.789 367.966 889.559 368.876 890.539 369.548C891.547 370.192 892.723 370.514 894.067 370.514C895.383 370.514 896.531 370.192 897.511 369.548C898.491 368.876 899.261 367.966 899.821 366.818C900.409 365.642 900.703 364.34 900.703 362.912C900.703 361.484 900.409 360.21 899.821 359.09C899.261 357.942 898.491 357.046 897.511 356.402C896.531 355.73 895.383 355.394 894.067 355.394ZM908.183 370.556C907.931 370.164 907.819 369.716 907.847 369.212C907.875 368.68 908.169 368.232 908.729 367.868C909.121 367.616 909.527 367.518 909.947 367.574C910.395 367.602 910.815 367.812 911.207 368.204C911.991 369.072 912.859 369.758 913.811 370.262C914.791 370.766 915.967 371.018 917.339 371.018C917.899 370.99 918.473 370.906 919.061 370.766C919.649 370.598 920.153 370.318 920.573 369.926C920.993 369.506 921.203 368.904 921.203 368.12C921.203 367.42 920.979 366.86 920.531 366.44C920.083 366.02 919.495 365.684 918.767 365.432C918.039 365.152 917.255 364.9 916.415 364.676C915.519 364.424 914.609 364.144 913.685 363.836C912.789 363.528 911.977 363.136 911.249 362.66C910.521 362.156 909.919 361.512 909.443 360.728C908.995 359.944 908.771 358.978 908.771 357.83C908.771 356.514 909.135 355.38 909.863 354.428C910.619 353.476 911.585 352.734 912.761 352.202C913.965 351.67 915.267 351.404 916.667 351.404C917.479 351.404 918.333 351.516 919.229 351.74C920.125 351.936 920.993 352.258 921.833 352.706C922.673 353.154 923.401 353.742 924.017 354.47C924.297 354.834 924.451 355.268 924.479 355.772C924.535 356.276 924.311 356.724 923.807 357.116C923.471 357.396 923.065 357.522 922.589 357.494C922.113 357.466 921.721 357.312 921.413 357.032C920.881 356.36 920.195 355.842 919.355 355.478C918.515 355.086 917.563 354.89 916.499 354.89C915.967 354.89 915.407 354.974 914.819 355.142C914.259 355.282 913.783 355.548 913.391 355.94C912.999 356.332 912.803 356.906 912.803 357.662C912.803 358.362 913.027 358.922 913.475 359.342C913.951 359.762 914.567 360.112 915.323 360.392C916.079 360.672 916.905 360.924 917.801 361.148C918.669 361.372 919.523 361.638 920.363 361.946C921.231 362.254 922.001 362.66 922.673 363.164C923.373 363.64 923.933 364.27 924.353 365.054C924.801 365.81 925.025 366.776 925.025 367.952C925.025 369.324 924.619 370.5 923.807 371.48C923.023 372.432 922.015 373.16 920.783 373.664C919.579 374.168 918.305 374.42 916.961 374.42C915.365 374.42 913.769 374.14 912.173 373.58C910.605 372.992 909.275 371.984 908.183 370.556ZM931.516 357.2C930.816 357.2 930.27 357.018 929.878 356.654C929.514 356.262 929.332 355.716 929.332 355.016V354.218C929.332 353.518 929.514 352.972 929.878 352.58C930.27 352.188 930.816 351.992 931.516 351.992H931.978C932.678 351.992 933.21 352.188 933.574 352.58C933.938 352.972 934.12 353.518 934.12 354.218V355.016C934.12 355.716 933.938 356.262 933.574 356.654C933.21 357.018 932.678 357.2 931.978 357.2H931.516ZM931.516 374C930.816 374 930.27 373.804 929.878 373.412C929.514 373.02 929.332 372.474 929.332 371.774V371.018C929.332 370.29 929.514 369.744 929.878 369.38C930.27 368.988 930.816 368.792 931.516 368.792H931.978C932.678 368.792 933.21 368.988 933.574 369.38C933.938 369.744 934.12 370.29 934.12 371.018V371.774C934.12 372.474 933.938 373.02 933.574 373.412C933.21 373.804 932.678 374 931.978 374H931.516ZM939.711 379.544C939.291 379.544 938.871 379.376 938.451 379.04C938.031 378.704 937.821 378.284 937.821 377.78C937.821 377.472 937.905 377.178 938.073 376.898L955.503 341.576C955.699 341.184 955.937 340.89 956.217 340.694C956.525 340.498 956.861 340.4 957.225 340.4C957.617 340.4 958.009 340.554 958.401 340.862C958.821 341.17 959.031 341.604 959.031 342.164C959.031 342.472 958.961 342.78 958.821 343.088L941.391 378.41C941.195 378.774 940.957 379.054 940.677 379.25C940.397 379.446 940.075 379.544 939.711 379.544ZM959.071 379.544C958.651 379.544 958.231 379.376 957.811 379.04C957.391 378.704 957.181 378.284 957.181 377.78C957.181 377.472 957.265 377.178 957.433 376.898L974.863 341.576C975.059 341.184 975.297 340.89 975.577 340.694C975.885 340.498 976.221 340.4 976.585 340.4C976.977 340.4 977.369 340.554 977.761 340.862C978.181 341.17 978.391 341.604 978.391 342.164C978.391 342.472 978.321 342.78 978.181 343.088L960.751 378.41C960.555 378.774 960.317 379.054 960.037 379.25C959.757 379.446 959.435 379.544 959.071 379.544ZM985.016 344.558C985.352 344.558 985.702 344.642 986.066 344.81C986.43 344.978 986.71 345.216 986.906 345.524L997.574 361.778L995.768 361.694L1006.65 345.524C1007.09 344.88 1007.67 344.558 1008.37 344.558C1008.93 344.558 1009.42 344.768 1009.84 345.188C1010.29 345.58 1010.51 346.084 1010.51 346.7V371.858C1010.51 372.474 1010.31 372.992 1009.92 373.412C1009.53 373.804 1009.01 374 1008.37 374C1007.7 374 1007.15 373.804 1006.73 373.412C1006.34 372.992 1006.14 372.474 1006.14 371.858V350.564L1007.49 350.858L998.246 364.928C998.05 365.18 997.798 365.404 997.49 365.6C997.182 365.768 996.86 365.838 996.524 365.81C996.216 365.838 995.894 365.768 995.558 365.6C995.25 365.404 994.998 365.18 994.802 364.928L985.898 351.068L986.906 349.388V371.858C986.906 372.474 986.71 372.992 986.318 373.412C985.954 373.804 985.464 374 984.848 374C984.26 374 983.77 373.804 983.378 373.412C983.014 372.992 982.832 372.474 982.832 371.858V346.7C982.832 346.112 983.042 345.608 983.462 345.188C983.91 344.768 984.428 344.558 985.016 344.558ZM1020.85 371.858C1020.85 372.474 1020.66 372.992 1020.26 373.412C1019.87 373.804 1019.37 374 1018.75 374C1018.16 374 1017.66 373.804 1017.24 373.412C1016.85 372.992 1016.65 372.474 1016.65 371.858V353.882C1016.65 353.266 1016.85 352.762 1017.24 352.37C1017.66 351.95 1018.16 351.74 1018.75 351.74C1019.37 351.74 1019.87 351.95 1020.26 352.37C1020.66 352.762 1020.85 353.266 1020.85 353.882V371.858ZM1018.71 348.968C1017.9 348.968 1017.31 348.828 1016.95 348.548C1016.58 348.24 1016.4 347.736 1016.4 347.036V346.364C1016.4 345.664 1016.6 345.174 1016.99 344.894C1017.38 344.614 1017.97 344.474 1018.75 344.474C1019.59 344.474 1020.19 344.628 1020.56 344.936C1020.92 345.216 1021.1 345.692 1021.1 346.364V347.036C1021.1 347.764 1020.91 348.268 1020.52 348.548C1020.15 348.828 1019.55 348.968 1018.71 348.968ZM1031.04 371.858C1031.04 372.474 1030.83 372.992 1030.41 373.412C1030.02 373.804 1029.53 374 1028.94 374C1028.35 374 1027.85 373.804 1027.43 373.412C1027.03 372.992 1026.84 372.474 1026.84 371.858V345.062C1026.84 344.446 1027.05 343.942 1027.47 343.55C1027.89 343.13 1028.39 342.92 1028.98 342.92C1029.6 342.92 1030.09 343.13 1030.45 343.55C1030.84 343.942 1031.04 344.446 1031.04 345.062V371.858ZM1047.17 374.42C1044.85 374.42 1042.83 373.944 1041.12 372.992C1039.41 372.012 1038.08 370.682 1037.13 369.002C1036.21 367.294 1035.75 365.348 1035.75 363.164C1035.75 360.7 1036.24 358.6 1037.22 356.864C1038.22 355.1 1039.53 353.756 1041.12 352.832C1042.72 351.88 1044.41 351.404 1046.2 351.404C1047.58 351.404 1048.88 351.684 1050.11 352.244C1051.34 352.776 1052.43 353.532 1053.39 354.512C1054.37 355.464 1055.14 356.598 1055.7 357.914C1056.26 359.202 1056.55 360.616 1056.58 362.156C1056.55 362.716 1056.33 363.178 1055.91 363.542C1055.49 363.906 1055 364.088 1054.44 364.088H1038.1L1037.09 360.518H1052.88L1052.08 361.274V360.224C1052.03 359.244 1051.71 358.39 1051.12 357.662C1050.53 356.906 1049.8 356.332 1048.93 355.94C1048.07 355.52 1047.16 355.31 1046.2 355.31C1045.36 355.31 1044.55 355.45 1043.77 355.73C1043.01 355.982 1042.33 356.402 1041.71 356.99C1041.12 357.578 1040.65 358.362 1040.28 359.342C1039.95 360.294 1039.78 361.484 1039.78 362.912C1039.78 364.452 1040.1 365.796 1040.74 366.944C1041.39 368.092 1042.26 368.988 1043.35 369.632C1044.44 370.248 1045.64 370.556 1046.96 370.556C1048 370.556 1048.85 370.458 1049.52 370.262C1050.19 370.038 1050.75 369.772 1051.2 369.464C1051.65 369.156 1052.04 368.862 1052.38 368.582C1052.8 368.33 1053.22 368.204 1053.64 368.204C1054.14 368.204 1054.56 368.386 1054.9 368.75C1055.23 369.086 1055.4 369.492 1055.4 369.968C1055.4 370.584 1055.09 371.144 1054.48 371.648C1053.72 372.376 1052.67 373.02 1051.33 373.58C1050.01 374.14 1048.63 374.42 1047.17 374.42ZM1072.71 351.404C1074.69 351.404 1076.23 351.824 1077.33 352.664C1078.42 353.476 1079.17 354.582 1079.59 355.982C1080.04 357.354 1080.27 358.894 1080.27 360.602V371.858C1080.27 372.474 1080.06 372.992 1079.64 373.412C1079.24 373.804 1078.75 374 1078.17 374C1077.55 374 1077.05 373.804 1076.65 373.412C1076.26 372.992 1076.07 372.474 1076.07 371.858V360.644C1076.07 359.636 1075.93 358.74 1075.65 357.956C1075.37 357.144 1074.88 356.5 1074.18 356.024C1073.5 355.52 1072.55 355.268 1071.32 355.268C1070.17 355.268 1069.16 355.52 1068.3 356.024C1067.43 356.5 1066.74 357.144 1066.24 357.956C1065.76 358.74 1065.52 359.636 1065.52 360.644V371.858C1065.52 372.474 1065.31 372.992 1064.89 373.412C1064.5 373.804 1064.01 374 1063.42 374C1062.81 374 1062.3 373.804 1061.91 373.412C1061.52 372.992 1061.32 372.474 1061.32 371.858V354.05C1061.32 353.434 1061.52 352.93 1061.91 352.538C1062.3 352.118 1062.81 351.908 1063.42 351.908C1064.01 351.908 1064.5 352.118 1064.89 352.538C1065.31 352.93 1065.52 353.434 1065.52 354.05V356.402L1064.77 356.822C1064.96 356.206 1065.3 355.59 1065.78 354.974C1066.28 354.33 1066.88 353.742 1067.58 353.21C1068.28 352.65 1069.07 352.216 1069.93 351.908C1070.8 351.572 1071.73 351.404 1072.71 351.404ZM1096.39 374.42C1094.06 374.42 1092.05 373.944 1090.34 372.992C1088.63 372.012 1087.3 370.682 1086.35 369.002C1085.43 367.294 1084.96 365.348 1084.96 363.164C1084.96 360.7 1085.45 358.6 1086.43 356.864C1087.44 355.1 1088.74 353.756 1090.34 352.832C1091.94 351.88 1093.63 351.404 1095.42 351.404C1096.79 351.404 1098.1 351.684 1099.33 352.244C1100.56 352.776 1101.65 353.532 1102.6 354.512C1103.58 355.464 1104.35 356.598 1104.91 357.914C1105.47 359.202 1105.77 360.616 1105.8 362.156C1105.77 362.716 1105.54 363.178 1105.12 363.542C1104.7 363.906 1104.21 364.088 1103.65 364.088H1087.32L1086.31 360.518H1102.1L1101.3 361.274V360.224C1101.25 359.244 1100.92 358.39 1100.34 357.662C1099.75 356.906 1099.02 356.332 1098.15 355.94C1097.28 355.52 1096.37 355.31 1095.42 355.31C1094.58 355.31 1093.77 355.45 1092.99 355.73C1092.23 355.982 1091.54 356.402 1090.93 356.99C1090.34 357.578 1089.86 358.362 1089.5 359.342C1089.16 360.294 1089 361.484 1089 362.912C1089 364.452 1089.32 365.796 1089.96 366.944C1090.61 368.092 1091.47 368.988 1092.57 369.632C1093.66 370.248 1094.86 370.556 1096.18 370.556C1097.21 370.556 1098.07 370.458 1098.74 370.262C1099.41 370.038 1099.97 369.772 1100.42 369.464C1100.87 369.156 1101.26 368.862 1101.6 368.582C1102.02 368.33 1102.44 368.204 1102.86 368.204C1103.36 368.204 1103.78 368.386 1104.12 368.75C1104.45 369.086 1104.62 369.492 1104.62 369.968C1104.62 370.584 1104.31 371.144 1103.7 371.648C1102.94 372.376 1101.89 373.02 1100.55 373.58C1099.23 374.14 1097.84 374.42 1096.39 374.42ZM1121.63 351.53C1123.7 351.53 1125.3 352.048 1126.42 353.084C1127.54 354.092 1128.28 355.464 1128.65 357.2L1127.97 356.99L1128.27 356.318C1128.63 355.59 1129.18 354.862 1129.91 354.134C1130.66 353.378 1131.56 352.762 1132.59 352.286C1133.63 351.782 1134.74 351.53 1135.91 351.53C1137.84 351.53 1139.34 351.95 1140.41 352.79C1141.47 353.602 1142.21 354.708 1142.63 356.108C1143.05 357.48 1143.26 359.02 1143.26 360.728V371.858C1143.26 372.474 1143.07 372.992 1142.67 373.412C1142.28 373.804 1141.78 374 1141.16 374C1140.57 374 1140.07 373.804 1139.65 373.412C1139.26 372.992 1139.06 372.474 1139.06 371.858V360.77C1139.06 359.79 1138.92 358.894 1138.64 358.082C1138.39 357.27 1137.93 356.626 1137.26 356.15C1136.61 355.646 1135.72 355.394 1134.57 355.394C1133.48 355.394 1132.5 355.646 1131.63 356.15C1130.79 356.626 1130.13 357.27 1129.65 358.082C1129.18 358.894 1128.94 359.79 1128.94 360.77V371.858C1128.94 372.474 1128.74 372.992 1128.35 373.412C1127.96 373.804 1127.46 374 1126.84 374C1126.22 374 1125.72 373.804 1125.33 373.412C1124.94 372.992 1124.74 372.474 1124.74 371.858V360.728C1124.74 359.748 1124.6 358.852 1124.32 358.04C1124.07 357.228 1123.62 356.584 1122.98 356.108C1122.33 355.632 1121.44 355.394 1120.29 355.394C1119.2 355.394 1118.23 355.632 1117.39 356.108C1116.55 356.584 1115.89 357.228 1115.42 358.04C1114.97 358.852 1114.74 359.748 1114.74 360.728V371.858C1114.74 372.474 1114.53 372.992 1114.11 373.412C1113.72 373.804 1113.23 374 1112.64 374C1112.03 374 1111.52 373.804 1111.13 373.412C1110.74 372.992 1110.54 372.474 1110.54 371.858V354.05C1110.54 353.434 1110.74 352.93 1111.13 352.538C1111.52 352.118 1112.03 351.908 1112.64 351.908C1113.23 351.908 1113.72 352.118 1114.11 352.538C1114.53 352.93 1114.74 353.434 1114.74 354.05V356.528L1113.95 356.99C1114.14 356.374 1114.46 355.744 1114.91 355.1C1115.36 354.456 1115.92 353.868 1116.59 353.336C1117.29 352.804 1118.06 352.37 1118.9 352.034C1119.74 351.698 1120.65 351.53 1121.63 351.53ZM1153.09 371.858C1153.09 372.474 1152.89 372.992 1152.5 373.412C1152.11 373.804 1151.6 374 1150.99 374C1150.4 374 1149.9 373.804 1149.48 373.412C1149.08 372.992 1148.89 372.474 1148.89 371.858V353.882C1148.89 353.266 1149.08 352.762 1149.48 352.37C1149.9 351.95 1150.4 351.74 1150.99 351.74C1151.6 351.74 1152.11 351.95 1152.5 352.37C1152.89 352.762 1153.09 353.266 1153.09 353.882V371.858ZM1150.95 348.968C1150.13 348.968 1149.55 348.828 1149.18 348.548C1148.82 348.24 1148.64 347.736 1148.64 347.036V346.364C1148.64 345.664 1148.83 345.174 1149.22 344.894C1149.62 344.614 1150.2 344.474 1150.99 344.474C1151.83 344.474 1152.43 344.628 1152.79 344.936C1153.16 345.216 1153.34 345.692 1153.34 346.364V347.036C1153.34 347.764 1153.14 348.268 1152.75 348.548C1152.39 348.828 1151.79 348.968 1150.95 348.968ZM1170.12 351.404C1172.11 351.404 1173.65 351.824 1174.74 352.664C1175.83 353.476 1176.59 354.582 1177.01 355.982C1177.45 357.354 1177.68 358.894 1177.68 360.602V371.858C1177.68 372.474 1177.47 372.992 1177.05 373.412C1176.66 373.804 1176.17 374 1175.58 374C1174.96 374 1174.46 373.804 1174.07 373.412C1173.67 372.992 1173.48 372.474 1173.48 371.858V360.644C1173.48 359.636 1173.34 358.74 1173.06 357.956C1172.78 357.144 1172.29 356.5 1171.59 356.024C1170.92 355.52 1169.96 355.268 1168.73 355.268C1167.58 355.268 1166.58 355.52 1165.71 356.024C1164.84 356.5 1164.15 357.144 1163.65 357.956C1163.17 358.74 1162.94 359.636 1162.94 360.644V371.858C1162.94 372.474 1162.73 372.992 1162.31 373.412C1161.91 373.804 1161.42 374 1160.84 374C1160.22 374 1159.72 373.804 1159.32 373.412C1158.93 372.992 1158.74 372.474 1158.74 371.858V354.05C1158.74 353.434 1158.93 352.93 1159.32 352.538C1159.72 352.118 1160.22 351.908 1160.84 351.908C1161.42 351.908 1161.91 352.118 1162.31 352.538C1162.73 352.93 1162.94 353.434 1162.94 354.05V356.402L1162.18 356.822C1162.38 356.206 1162.71 355.59 1163.19 354.974C1163.69 354.33 1164.29 353.742 1164.99 353.21C1165.69 352.65 1166.48 352.216 1167.35 351.908C1168.21 351.572 1169.14 351.404 1170.12 351.404ZM1185.11 373.958C1184.41 373.958 1183.86 373.762 1183.47 373.37C1183.1 372.978 1182.92 372.432 1182.92 371.732V370.976C1182.92 370.276 1183.1 369.73 1183.47 369.338C1183.86 368.946 1184.41 368.75 1185.11 368.75H1185.57C1186.27 368.75 1186.8 368.946 1187.16 369.338C1187.53 369.73 1187.71 370.276 1187.71 370.976V371.732C1187.71 372.432 1187.53 372.978 1187.16 373.37C1186.8 373.762 1186.27 373.958 1185.57 373.958H1185.11ZM1205.84 344.6C1207.88 344.6 1209.69 344.992 1211.25 345.776C1212.82 346.532 1214.12 347.596 1215.16 348.968C1216.22 350.312 1217.02 351.88 1217.55 353.672C1218.09 355.436 1218.35 357.312 1218.35 359.3C1218.35 362.016 1217.88 364.494 1216.92 366.734C1215.97 368.946 1214.57 370.71 1212.72 372.026C1210.88 373.342 1208.58 374 1205.84 374H1195.59C1195 374 1194.5 373.804 1194.08 373.412C1193.66 372.992 1193.45 372.474 1193.45 371.858V346.742C1193.45 346.126 1193.66 345.622 1194.08 345.23C1194.5 344.81 1195 344.6 1195.59 344.6H1205.84ZM1205.42 369.968C1207.4 369.968 1209.01 369.478 1210.25 368.498C1211.48 367.518 1212.37 366.23 1212.93 364.634C1213.52 363.01 1213.82 361.232 1213.82 359.3C1213.82 357.872 1213.65 356.528 1213.31 355.268C1213 353.98 1212.5 352.846 1211.8 351.866C1211.13 350.858 1210.26 350.074 1209.2 349.514C1208.16 348.926 1206.9 348.632 1205.42 348.632H1197.48L1197.86 348.254V370.388L1197.6 369.968H1205.42ZM1225.49 374C1224.9 374 1224.39 373.804 1223.97 373.412C1223.58 372.992 1223.39 372.474 1223.39 371.858V345.062C1223.39 344.446 1223.58 343.942 1223.97 343.55C1224.39 343.13 1224.9 342.92 1225.49 342.92C1226.1 342.92 1226.61 343.13 1227 343.55C1227.39 343.942 1227.59 344.446 1227.59 345.062V371.858C1227.59 372.474 1227.39 372.992 1227 373.412C1226.61 373.804 1226.1 374 1225.49 374ZM1239.18 351.824C1239.71 351.824 1240.17 352.048 1240.56 352.496C1240.96 352.944 1241.15 353.392 1241.15 353.84C1241.15 354.4 1240.89 354.918 1240.35 355.394L1227.21 367.154L1227.04 362.324L1237.62 352.496C1238.07 352.048 1238.59 351.824 1239.18 351.824ZM1239.68 373.958C1239.09 373.958 1238.59 373.72 1238.17 373.244L1229.77 364.382L1232.96 361.442L1241.15 370.304C1241.6 370.78 1241.82 371.312 1241.82 371.9C1241.82 372.516 1241.57 373.02 1241.07 373.412C1240.59 373.776 1240.13 373.958 1239.68 373.958ZM1246.39 379.544C1245.97 379.544 1245.55 379.376 1245.13 379.04C1244.71 378.704 1244.5 378.284 1244.5 377.78C1244.5 377.472 1244.58 377.178 1244.75 376.898L1262.18 341.576C1262.37 341.184 1262.61 340.89 1262.89 340.694C1263.2 340.498 1263.54 340.4 1263.9 340.4C1264.29 340.4 1264.68 340.554 1265.08 340.862C1265.5 341.17 1265.71 341.604 1265.71 342.164C1265.71 342.472 1265.64 342.78 1265.5 343.088L1248.07 378.41C1247.87 378.774 1247.63 379.054 1247.35 379.25C1247.07 379.446 1246.75 379.544 1246.39 379.544ZM1279.18 374.42C1277.16 374.42 1275.37 374.14 1273.8 373.58C1272.23 373.02 1270.73 372.096 1269.31 370.808C1269 370.584 1268.76 370.318 1268.59 370.01C1268.45 369.674 1268.38 369.338 1268.38 369.002C1268.38 368.47 1268.58 367.994 1268.97 367.574C1269.36 367.154 1269.85 366.944 1270.44 366.944C1270.89 366.944 1271.31 367.098 1271.7 367.406C1272.76 368.386 1273.87 369.128 1275.02 369.632C1276.19 370.136 1277.57 370.388 1279.13 370.388C1280.25 370.388 1281.28 370.206 1282.2 369.842C1283.15 369.478 1283.91 368.988 1284.47 368.372C1285.03 367.756 1285.31 367.042 1285.31 366.23C1285.31 365.222 1285.01 364.396 1284.43 363.752C1283.87 363.08 1283.04 362.534 1281.95 362.114C1280.88 361.666 1279.6 361.288 1278.08 360.98C1276.68 360.728 1275.42 360.378 1274.3 359.93C1273.21 359.482 1272.27 358.922 1271.49 358.25C1270.71 357.55 1270.1 356.724 1269.68 355.772C1269.26 354.82 1269.05 353.714 1269.05 352.454C1269.05 350.746 1269.5 349.276 1270.4 348.044C1271.29 346.812 1272.51 345.86 1274.05 345.188C1275.59 344.516 1277.33 344.18 1279.26 344.18C1281.02 344.18 1282.68 344.46 1284.22 345.02C1285.76 345.552 1287 346.28 1287.95 347.204C1288.63 347.792 1288.96 348.422 1288.96 349.094C1288.96 349.598 1288.75 350.074 1288.33 350.522C1287.94 350.942 1287.48 351.152 1286.95 351.152C1286.55 351.152 1286.22 351.04 1285.94 350.816C1285.49 350.34 1284.89 349.92 1284.13 349.556C1283.38 349.164 1282.56 348.842 1281.7 348.59C1280.86 348.338 1280.04 348.212 1279.26 348.212C1278 348.212 1276.92 348.394 1276.03 348.758C1275.13 349.094 1274.44 349.57 1273.97 350.186C1273.49 350.774 1273.25 351.474 1273.25 352.286C1273.25 353.238 1273.52 354.022 1274.05 354.638C1274.61 355.254 1275.38 355.758 1276.36 356.15C1277.34 356.514 1278.46 356.85 1279.72 357.158C1281.26 357.494 1282.63 357.872 1283.84 358.292C1285.07 358.712 1286.11 359.258 1286.95 359.93C1287.79 360.574 1288.43 361.386 1288.88 362.366C1289.33 363.346 1289.55 364.564 1289.55 366.02C1289.55 367.7 1289.07 369.17 1288.12 370.43C1287.17 371.69 1285.91 372.67 1284.34 373.37C1282.8 374.07 1281.08 374.42 1279.18 374.42ZM1293.96 352.16H1303.83C1304.39 352.16 1304.85 352.356 1305.21 352.748C1305.61 353.112 1305.8 353.574 1305.8 354.134C1305.8 354.666 1305.61 355.114 1305.21 355.478C1304.85 355.842 1304.39 356.024 1303.83 356.024H1293.96C1293.4 356.024 1292.92 355.842 1292.53 355.478C1292.17 355.086 1291.98 354.624 1291.98 354.092C1291.98 353.532 1292.17 353.07 1292.53 352.706C1292.92 352.342 1293.4 352.16 1293.96 352.16ZM1298.37 346.7C1298.98 346.7 1299.49 346.91 1299.88 347.33C1300.27 347.722 1300.47 348.226 1300.47 348.842V368.33C1300.47 368.834 1300.55 369.24 1300.72 369.548C1300.89 369.856 1301.11 370.066 1301.39 370.178C1301.7 370.29 1302.01 370.346 1302.32 370.346C1302.62 370.346 1302.89 370.29 1303.11 370.178C1303.37 370.066 1303.66 370.01 1304 370.01C1304.33 370.01 1304.64 370.164 1304.92 370.472C1305.2 370.78 1305.34 371.2 1305.34 371.732C1305.34 372.404 1304.98 372.95 1304.25 373.37C1303.52 373.79 1302.74 374 1301.9 374C1301.42 374 1300.86 373.958 1300.22 373.874C1299.57 373.79 1298.94 373.58 1298.33 373.244C1297.74 372.908 1297.25 372.376 1296.86 371.648C1296.46 370.892 1296.27 369.842 1296.27 368.498V348.842C1296.27 348.226 1296.46 347.722 1296.86 347.33C1297.28 346.91 1297.78 346.7 1298.37 346.7ZM1326.92 351.908C1327.51 351.908 1328 352.118 1328.39 352.538C1328.81 352.93 1329.02 353.434 1329.02 354.05V365.096C1329.02 368.008 1328.21 370.29 1326.58 371.942C1324.96 373.566 1322.66 374.378 1319.69 374.378C1316.75 374.378 1314.47 373.566 1312.85 371.942C1311.25 370.29 1310.45 368.008 1310.45 365.096V354.05C1310.45 353.434 1310.65 352.93 1311.04 352.538C1311.43 352.118 1311.94 351.908 1312.55 351.908C1313.14 351.908 1313.63 352.118 1314.02 352.538C1314.44 352.93 1314.65 353.434 1314.65 354.05V365.096C1314.65 366.916 1315.07 368.274 1315.91 369.17C1316.78 370.066 1318.04 370.514 1319.69 370.514C1321.37 370.514 1322.65 370.066 1323.52 369.17C1324.38 368.274 1324.82 366.916 1324.82 365.096V354.05C1324.82 353.434 1325.01 352.93 1325.41 352.538C1325.8 352.118 1326.3 351.908 1326.92 351.908ZM1345.15 374.42C1342.82 374.42 1340.81 373.944 1339.1 372.992C1337.39 372.012 1336.06 370.682 1335.11 369.002C1334.19 367.294 1333.72 365.348 1333.72 363.164C1333.72 360.7 1334.21 358.6 1335.19 356.864C1336.2 355.1 1337.5 353.756 1339.1 352.832C1340.7 351.88 1342.39 351.404 1344.18 351.404C1345.55 351.404 1346.86 351.684 1348.09 352.244C1349.32 352.776 1350.41 353.532 1351.36 354.512C1352.34 355.464 1353.11 356.598 1353.67 357.914C1354.23 359.202 1354.53 360.616 1354.56 362.156C1354.53 362.716 1354.3 363.178 1353.88 363.542C1353.46 363.906 1352.97 364.088 1352.41 364.088H1336.08L1335.07 360.518H1350.86L1350.06 361.274V360.224C1350.01 359.244 1349.68 358.39 1349.1 357.662C1348.51 356.906 1347.78 356.332 1346.91 355.94C1346.04 355.52 1345.13 355.31 1344.18 355.31C1343.34 355.31 1342.53 355.45 1341.75 355.73C1340.99 355.982 1340.3 356.402 1339.69 356.99C1339.1 357.578 1338.62 358.362 1338.26 359.342C1337.92 360.294 1337.76 361.484 1337.76 362.912C1337.76 364.452 1338.08 365.796 1338.72 366.944C1339.37 368.092 1340.23 368.988 1341.33 369.632C1342.42 370.248 1343.62 370.556 1344.94 370.556C1345.97 370.556 1346.83 370.458 1347.5 370.262C1348.17 370.038 1348.73 369.772 1349.18 369.464C1349.63 369.156 1350.02 368.862 1350.36 368.582C1350.78 368.33 1351.2 368.204 1351.62 368.204C1352.12 368.204 1352.54 368.386 1352.88 368.75C1353.21 369.086 1353.38 369.492 1353.38 369.968C1353.38 370.584 1353.07 371.144 1352.46 371.648C1351.7 372.376 1350.65 373.02 1349.31 373.58C1347.99 374.14 1346.6 374.42 1345.15 374.42ZM1370.69 351.404C1372.67 351.404 1374.21 351.824 1375.31 352.664C1376.4 353.476 1377.15 354.582 1377.57 355.982C1378.02 357.354 1378.25 358.894 1378.25 360.602V371.858C1378.25 372.474 1378.04 372.992 1377.62 373.412C1377.22 373.804 1376.73 374 1376.15 374C1375.53 374 1375.03 373.804 1374.63 373.412C1374.24 372.992 1374.05 372.474 1374.05 371.858V360.644C1374.05 359.636 1373.91 358.74 1373.63 357.956C1373.35 357.144 1372.86 356.5 1372.16 356.024C1371.48 355.52 1370.53 355.268 1369.3 355.268C1368.15 355.268 1367.14 355.52 1366.28 356.024C1365.41 356.5 1364.72 357.144 1364.22 357.956C1363.74 358.74 1363.5 359.636 1363.5 360.644V371.858C1363.5 372.474 1363.29 372.992 1362.87 373.412C1362.48 373.804 1361.99 374 1361.4 374C1360.79 374 1360.28 373.804 1359.89 373.412C1359.5 372.992 1359.3 372.474 1359.3 371.858V354.05C1359.3 353.434 1359.5 352.93 1359.89 352.538C1360.28 352.118 1360.79 351.908 1361.4 351.908C1361.99 351.908 1362.48 352.118 1362.87 352.538C1363.29 352.93 1363.5 353.434 1363.5 354.05V356.402L1362.75 356.822C1362.94 356.206 1363.28 355.59 1363.76 354.974C1364.26 354.33 1364.86 353.742 1365.56 353.21C1366.26 352.65 1367.05 352.216 1367.91 351.908C1368.78 351.572 1369.71 351.404 1370.69 351.404ZM1390.96 374C1390.32 374 1389.79 373.804 1389.37 373.412C1388.95 372.992 1388.74 372.474 1388.74 371.858V349.346L1389.28 350.102L1385.38 352.832C1385.04 353.112 1384.64 353.252 1384.16 353.252C1383.6 353.252 1383.1 353.042 1382.65 352.622C1382.23 352.174 1382.02 351.656 1382.02 351.068C1382.02 350.34 1382.38 349.738 1383.11 349.262L1389.49 345.02C1389.75 344.852 1390.01 344.74 1390.29 344.684C1390.6 344.628 1390.88 344.6 1391.13 344.6C1391.78 344.6 1392.29 344.81 1392.69 345.23C1393.08 345.622 1393.27 346.126 1393.27 346.742V371.858C1393.27 372.474 1393.05 372.992 1392.6 373.412C1392.18 373.804 1391.64 374 1390.96 374ZM1400.07 379.544C1399.65 379.544 1399.23 379.376 1398.81 379.04C1398.39 378.704 1398.18 378.284 1398.18 377.78C1398.18 377.472 1398.26 377.178 1398.43 376.898L1415.86 341.576C1416.06 341.184 1416.3 340.89 1416.58 340.694C1416.88 340.498 1417.22 340.4 1417.58 340.4C1417.98 340.4 1418.37 340.554 1418.76 340.862C1419.18 341.17 1419.39 341.604 1419.39 342.164C1419.39 342.472 1419.32 342.78 1419.18 343.088L1401.75 378.41C1401.55 378.774 1401.32 379.054 1401.04 379.25C1400.76 379.446 1400.43 379.544 1400.07 379.544ZM1428.24 371.858C1428.21 372.474 1427.98 372.992 1427.53 373.412C1427.11 373.804 1426.6 374 1426.02 374C1425.37 374 1424.84 373.804 1424.42 373.412C1424.03 372.992 1423.83 372.474 1423.83 371.858V346.742C1423.83 346.126 1424.04 345.622 1424.46 345.23C1424.88 344.81 1425.43 344.6 1426.1 344.6C1426.66 344.6 1427.15 344.81 1427.57 345.23C1428.02 345.622 1428.24 346.126 1428.24 346.742V371.858ZM1445.95 351.404C1447.94 351.404 1449.48 351.824 1450.57 352.664C1451.66 353.476 1452.42 354.582 1452.84 355.982C1453.28 357.354 1453.51 358.894 1453.51 360.602V371.858C1453.51 372.474 1453.3 372.992 1452.88 373.412C1452.49 373.804 1452 374 1451.41 374C1450.79 374 1450.29 373.804 1449.9 373.412C1449.5 372.992 1449.31 372.474 1449.31 371.858V360.644C1449.31 359.636 1449.17 358.74 1448.89 357.956C1448.61 357.144 1448.12 356.5 1447.42 356.024C1446.75 355.52 1445.79 355.268 1444.56 355.268C1443.41 355.268 1442.41 355.52 1441.54 356.024C1440.67 356.5 1439.98 357.144 1439.48 357.956C1439 358.74 1438.77 359.636 1438.77 360.644V371.858C1438.77 372.474 1438.56 372.992 1438.14 373.412C1437.74 373.804 1437.25 374 1436.67 374C1436.05 374 1435.55 373.804 1435.15 373.412C1434.76 372.992 1434.57 372.474 1434.57 371.858V354.05C1434.57 353.434 1434.76 352.93 1435.15 352.538C1435.55 352.118 1436.05 351.908 1436.67 351.908C1437.25 351.908 1437.74 352.118 1438.14 352.538C1438.56 352.93 1438.77 353.434 1438.77 354.05V356.402L1438.01 356.822C1438.21 356.206 1438.54 355.59 1439.02 354.974C1439.52 354.33 1440.12 353.742 1440.82 353.21C1441.52 352.65 1442.31 352.216 1443.18 351.908C1444.04 351.572 1444.97 351.404 1445.95 351.404ZM1477.44 342.92C1478.06 342.92 1478.56 343.116 1478.95 343.508C1479.35 343.9 1479.54 344.418 1479.54 345.062V371.858C1479.54 372.474 1479.35 372.992 1478.95 373.412C1478.56 373.804 1478.06 374 1477.44 374C1476.85 374 1476.35 373.804 1475.93 373.412C1475.54 372.992 1475.34 372.474 1475.34 371.858V368.834L1476.22 368.876C1476.22 369.38 1476.01 369.954 1475.59 370.598C1475.2 371.214 1474.66 371.816 1473.96 372.404C1473.26 372.992 1472.43 373.482 1471.48 373.874C1470.53 374.238 1469.5 374.42 1468.41 374.42C1466.48 374.42 1464.74 373.93 1463.2 372.95C1461.66 371.942 1460.45 370.584 1459.55 368.876C1458.65 367.14 1458.21 365.152 1458.21 362.912C1458.21 360.672 1458.65 358.698 1459.55 356.99C1460.45 355.254 1461.65 353.896 1463.16 352.916C1464.7 351.908 1466.41 351.404 1468.29 351.404C1469.46 351.404 1470.55 351.6 1471.56 351.992C1472.6 352.384 1473.49 352.888 1474.25 353.504C1475.01 354.12 1475.59 354.778 1476.01 355.478C1476.43 356.15 1476.64 356.794 1476.64 357.41L1475.34 357.536V345.062C1475.34 344.446 1475.54 343.942 1475.93 343.55C1476.35 343.13 1476.85 342.92 1477.44 342.92ZM1468.87 370.556C1470.22 370.556 1471.38 370.22 1472.36 369.548C1473.37 368.876 1474.15 367.966 1474.71 366.818C1475.27 365.67 1475.55 364.368 1475.55 362.912C1475.55 361.456 1475.27 360.154 1474.71 359.006C1474.15 357.858 1473.37 356.948 1472.36 356.276C1471.35 355.604 1470.19 355.268 1468.87 355.268C1467.59 355.268 1466.44 355.604 1465.43 356.276C1464.45 356.948 1463.67 357.858 1463.08 359.006C1462.52 360.154 1462.24 361.456 1462.24 362.912C1462.24 364.368 1462.52 365.67 1463.08 366.818C1463.67 367.966 1464.45 368.876 1465.43 369.548C1466.44 370.22 1467.59 370.556 1468.87 370.556ZM1495.72 374.42C1493.39 374.42 1491.38 373.944 1489.67 372.992C1487.96 372.012 1486.63 370.682 1485.68 369.002C1484.75 367.294 1484.29 365.348 1484.29 363.164C1484.29 360.7 1484.78 358.6 1485.76 356.864C1486.77 355.1 1488.07 353.756 1489.67 352.832C1491.26 351.88 1492.96 351.404 1494.75 351.404C1496.12 351.404 1497.42 351.684 1498.66 352.244C1499.89 352.776 1500.98 353.532 1501.93 354.512C1502.91 355.464 1503.68 356.598 1504.24 357.914C1504.8 359.202 1505.1 360.616 1505.12 362.156C1505.1 362.716 1504.87 363.178 1504.45 363.542C1504.03 363.906 1503.54 364.088 1502.98 364.088H1486.64L1485.64 360.518H1501.43L1500.63 361.274V360.224C1500.57 359.244 1500.25 358.39 1499.66 357.662C1499.08 356.906 1498.35 356.332 1497.48 355.94C1496.61 355.52 1495.7 355.31 1494.75 355.31C1493.91 355.31 1493.1 355.45 1492.31 355.73C1491.56 355.982 1490.87 356.402 1490.26 356.99C1489.67 357.578 1489.19 358.362 1488.83 359.342C1488.49 360.294 1488.32 361.484 1488.32 362.912C1488.32 364.452 1488.65 365.796 1489.29 366.944C1489.93 368.092 1490.8 368.988 1491.89 369.632C1492.99 370.248 1494.19 370.556 1495.51 370.556C1496.54 370.556 1497.4 370.458 1498.07 370.262C1498.74 370.038 1499.3 369.772 1499.75 369.464C1500.2 369.156 1500.59 368.862 1500.92 368.582C1501.34 368.33 1501.76 368.204 1502.18 368.204C1502.69 368.204 1503.11 368.386 1503.44 368.75C1503.78 369.086 1503.95 369.492 1503.95 369.968C1503.95 370.584 1503.64 371.144 1503.02 371.648C1502.27 372.376 1501.22 373.02 1499.87 373.58C1498.56 374.14 1497.17 374.42 1495.72 374.42ZM1509.87 351.782C1510.57 351.782 1511.15 352.076 1511.6 352.664L1525.92 370.724C1526.23 371.088 1526.38 371.508 1526.38 371.984C1526.38 372.544 1526.16 373.034 1525.71 373.454C1525.26 373.874 1524.77 374.084 1524.24 374.084C1523.57 374.084 1522.99 373.79 1522.52 373.202L1508.19 355.142C1507.89 354.778 1507.73 354.358 1507.73 353.882C1507.73 353.294 1507.94 352.804 1508.36 352.412C1508.81 351.992 1509.31 351.782 1509.87 351.782ZM1509.92 374.084C1509.44 374.084 1508.98 373.902 1508.53 373.538C1508.08 373.174 1507.86 372.726 1507.86 372.194C1507.86 371.718 1508.03 371.284 1508.36 370.892L1515.04 362.618L1517.18 366.062L1511.6 373.202C1511.15 373.79 1510.59 374.084 1509.92 374.084ZM1524.2 351.782C1524.78 351.782 1525.26 351.978 1525.62 352.37C1526.02 352.734 1526.21 353.168 1526.21 353.672C1526.21 353.896 1526.17 354.134 1526.09 354.386C1526.03 354.61 1525.9 354.82 1525.71 355.016L1519.11 363.29L1516.93 360.182L1522.52 352.748C1522.99 352.104 1523.55 351.782 1524.2 351.782ZM1531.81 373.958C1531.11 373.958 1530.57 373.762 1530.17 373.37C1529.81 372.978 1529.63 372.432 1529.63 371.732V370.976C1529.63 370.276 1529.81 369.73 1530.17 369.338C1530.57 368.946 1531.11 368.75 1531.81 368.75H1532.27C1532.97 368.75 1533.51 368.946 1533.87 369.338C1534.23 369.73 1534.42 370.276 1534.42 370.976V371.732C1534.42 372.432 1534.23 372.978 1533.87 373.37C1533.51 373.762 1532.97 373.958 1532.27 373.958H1531.81ZM1542.42 344.6C1542.98 344.6 1543.47 344.81 1543.89 345.23C1544.34 345.622 1544.56 346.126 1544.56 346.742V371.858C1544.53 372.474 1544.3 372.992 1543.85 373.412C1543.43 373.804 1542.92 374 1542.34 374C1541.69 374 1541.16 373.804 1540.74 373.412C1540.35 372.992 1540.15 372.474 1540.15 371.858V346.742C1540.15 346.126 1540.36 345.622 1540.78 345.23C1541.2 344.81 1541.75 344.6 1542.42 344.6ZM1561.36 344.6C1562.03 344.6 1562.57 344.81 1562.96 345.23C1563.35 345.622 1563.55 346.126 1563.55 346.742V371.858C1563.55 372.474 1563.34 372.992 1562.92 373.412C1562.52 373.804 1561.99 374 1561.32 374C1560.73 374 1560.23 373.804 1559.81 373.412C1559.39 372.992 1559.18 372.474 1559.18 371.858V346.742C1559.18 346.126 1559.39 345.622 1559.81 345.23C1560.26 344.81 1560.77 344.6 1561.36 344.6ZM1542.25 357.116H1561.4L1561.36 361.148H1542.21L1542.25 357.116ZM1569.58 352.16H1579.45C1580.01 352.16 1580.48 352.356 1580.84 352.748C1581.23 353.112 1581.43 353.574 1581.43 354.134C1581.43 354.666 1581.23 355.114 1580.84 355.478C1580.48 355.842 1580.01 356.024 1579.45 356.024H1569.58C1569.02 356.024 1568.55 355.842 1568.16 355.478C1567.79 355.086 1567.61 354.624 1567.61 354.092C1567.61 353.532 1567.79 353.07 1568.16 352.706C1568.55 352.342 1569.02 352.16 1569.58 352.16ZM1573.99 346.7C1574.61 346.7 1575.11 346.91 1575.51 347.33C1575.9 347.722 1576.09 348.226 1576.09 348.842V368.33C1576.09 368.834 1576.18 369.24 1576.35 369.548C1576.51 369.856 1576.74 370.066 1577.02 370.178C1577.33 370.29 1577.63 370.346 1577.94 370.346C1578.25 370.346 1578.52 370.29 1578.74 370.178C1578.99 370.066 1579.29 370.01 1579.62 370.01C1579.96 370.01 1580.27 370.164 1580.55 370.472C1580.83 370.78 1580.97 371.2 1580.97 371.732C1580.97 372.404 1580.6 372.95 1579.87 373.37C1579.15 373.79 1578.36 374 1577.52 374C1577.05 374 1576.49 373.958 1575.84 373.874C1575.2 373.79 1574.57 373.58 1573.95 373.244C1573.36 372.908 1572.87 372.376 1572.48 371.648C1572.09 370.892 1571.89 369.842 1571.89 368.498V348.842C1571.89 348.226 1572.09 347.722 1572.48 347.33C1572.9 346.91 1573.41 346.7 1573.99 346.7ZM1597.17 351.53C1599.24 351.53 1600.83 352.048 1601.95 353.084C1603.07 354.092 1603.82 355.464 1604.18 357.2L1603.51 356.99L1603.8 356.318C1604.17 355.59 1604.71 354.862 1605.44 354.134C1606.2 353.378 1607.09 352.762 1608.13 352.286C1609.16 351.782 1610.27 351.53 1611.45 351.53C1613.38 351.53 1614.88 351.95 1615.94 352.79C1617 353.602 1617.75 354.708 1618.17 356.108C1618.59 357.48 1618.8 359.02 1618.8 360.728V371.858C1618.8 372.474 1618.6 372.992 1618.21 373.412C1617.82 373.804 1617.31 374 1616.7 374C1616.11 374 1615.6 373.804 1615.18 373.412C1614.79 372.992 1614.6 372.474 1614.6 371.858V360.77C1614.6 359.79 1614.46 358.894 1614.18 358.082C1613.92 357.27 1613.46 356.626 1612.79 356.15C1612.15 355.646 1611.25 355.394 1610.1 355.394C1609.01 355.394 1608.03 355.646 1607.16 356.15C1606.32 356.626 1605.66 357.27 1605.19 358.082C1604.71 358.894 1604.47 359.79 1604.47 360.77V371.858C1604.47 372.474 1604.28 372.992 1603.89 373.412C1603.49 373.804 1602.99 374 1602.37 374C1601.76 374 1601.25 373.804 1600.86 373.412C1600.47 372.992 1600.27 372.474 1600.27 371.858V360.728C1600.27 359.748 1600.13 358.852 1599.85 358.04C1599.6 357.228 1599.15 356.584 1598.51 356.108C1597.87 355.632 1596.97 355.394 1595.82 355.394C1594.73 355.394 1593.76 355.632 1592.92 356.108C1592.08 356.584 1591.43 357.228 1590.95 358.04C1590.5 358.852 1590.28 359.748 1590.28 360.728V371.858C1590.28 372.474 1590.07 372.992 1589.65 373.412C1589.26 373.804 1588.77 374 1588.18 374C1587.56 374 1587.06 373.804 1586.67 373.412C1586.27 372.992 1586.08 372.474 1586.08 371.858V354.05C1586.08 353.434 1586.27 352.93 1586.67 352.538C1587.06 352.118 1587.56 351.908 1588.18 351.908C1588.77 351.908 1589.26 352.118 1589.65 352.538C1590.07 352.93 1590.28 353.434 1590.28 354.05V356.528L1589.48 356.99C1589.68 356.374 1590 355.744 1590.45 355.1C1590.89 354.456 1591.45 353.868 1592.13 353.336C1592.83 352.804 1593.6 352.37 1594.44 352.034C1595.28 351.698 1596.19 351.53 1597.17 351.53ZM1629.21 371.858C1629.21 372.474 1629 372.992 1628.58 373.412C1628.19 373.804 1627.7 374 1627.11 374C1626.52 374 1626.02 373.804 1625.6 373.412C1625.21 372.992 1625.01 372.474 1625.01 371.858V345.062C1625.01 344.446 1625.22 343.942 1625.64 343.55C1626.06 343.13 1626.56 342.92 1627.15 342.92C1627.77 342.92 1628.26 343.13 1628.62 343.55C1629.01 343.942 1629.21 344.446 1629.21 345.062V371.858Z" fill="black"/>
</svg>
