<svg width="738" height="172" viewBox="0 0 738 172" fill="none" xmlns="http://www.w3.org/2000/svg">
<path d="M54.8044 124.886C29.0704 96.0738 33.7029 54.5804 65.1513 32.2083C96.5997 9.8361 142.955 15.057 168.689 43.8696C194.423 72.6821 189.79 114.176 158.342 136.548C126.894 158.92 80.5383 153.699 54.8044 124.886Z" fill="#FCD993"/>
<path d="M95.4273 104.285C70.6247 76.5147 75.6075 36.1545 106.557 14.1375C137.506 -7.87959 182.702 -3.21604 207.504 24.5538C232.307 52.3236 227.324 92.6838 196.375 114.701C165.426 136.718 120.23 132.054 95.4273 104.285Z" fill="#FFFBF5"/>
<path d="M118.187 40.2467C119.079 40.3411 121.32 40.606 123.634 42.3001C124.487 42.9245 125.813 43.9195 126.8 45.852C127.839 47.8853 127.903 49.7793 127.912 50.2178C127.92 50.6744 127.928 52.7831 126.777 55.0407C125.668 57.2154 124.113 58.292 123.095 58.9783C122.617 59.3003 120.25 60.8449 116.852 60.9542C115.819 60.9872 113.296 61.0342 110.618 59.4128C109.675 58.8423 107.946 57.7628 106.731 55.4568C106.395 54.8176 105.567 53.2014 105.54 50.8953C105.534 50.332 105.56 48.5522 106.465 46.5957C107.114 45.19 107.917 44.3398 108.428 43.8095C109.818 42.3638 111.216 41.7051 112.123 41.2897C113.297 40.7506 114.239 40.5272 114.533 40.4613C115.227 40.3058 116.55 40.077 118.187 40.2493L118.187 40.2467Z" fill="#FFD278" fill-opacity="0.78" stroke="white" stroke-width="0.25" stroke-linecap="round" stroke-linejoin="round"/>
<path d="M138.427 98.2403C138.679 98.2404 138.889 98.3245 139.057 98.4926C139.237 98.6607 139.327 98.8707 139.327 99.1227C139.326 99.3747 139.236 99.5847 139.056 99.7526C138.888 99.9205 138.678 100.004 138.426 100.004L132.378 100.001C132.114 100.001 131.892 99.917 131.712 99.7489C131.544 99.5688 131.46 99.3467 131.461 99.0827L131.466 88.3187C131.466 88.0547 131.556 87.8388 131.736 87.6709C131.916 87.491 132.15 87.4011 132.438 87.4012C132.678 87.4014 132.888 87.4915 133.068 87.6716C133.26 87.8396 133.356 88.0557 133.356 88.3197L133.351 98.5437L132.973 98.2375L138.427 98.2403ZM142.886 99.0885C142.886 99.3525 142.802 99.5745 142.634 99.7544C142.466 99.9223 142.25 100.006 141.986 100.006C141.734 100.006 141.518 99.9218 141.338 99.7538C141.17 99.5737 141.086 99.3516 141.086 99.0876L141.09 91.3836C141.09 91.1196 141.174 90.9037 141.342 90.7358C141.523 90.5558 141.739 90.466 141.991 90.4661C142.255 90.4662 142.471 90.5563 142.638 90.7364C142.806 90.9045 142.89 91.1205 142.89 91.3845L142.886 99.0885ZM141.973 89.2781C141.625 89.2779 141.373 89.2178 141.217 89.0977C141.061 88.9656 140.983 88.7496 140.984 88.4496L140.984 88.1616C140.984 87.8616 141.068 87.6516 141.236 87.5317C141.404 87.4118 141.656 87.3519 141.992 87.3521C142.352 87.3523 142.61 87.4184 142.766 87.5505C142.922 87.6706 143 87.8746 143 88.1626L143 88.4506C142.999 88.7626 142.915 88.9786 142.747 89.0985C142.591 89.2184 142.333 89.2783 141.973 89.2781ZM150.19 90.3263C151.042 90.3267 151.702 90.507 152.17 90.8673C152.637 91.2155 152.961 91.6897 153.141 92.2898C153.333 92.8778 153.428 93.5379 153.428 94.2699L153.425 99.0939C153.425 99.3579 153.335 99.5798 153.155 99.7598C152.987 99.9277 152.777 100.012 152.525 100.011C152.261 100.011 152.045 99.9272 151.877 99.7591C151.709 99.579 151.625 99.357 151.625 99.093L151.628 94.287C151.628 93.855 151.568 93.471 151.448 93.1349C151.329 92.7868 151.119 92.5107 150.819 92.3066C150.531 92.0904 150.123 91.9822 149.595 91.982C149.103 91.9817 148.671 92.0895 148.299 92.3053C147.927 92.5091 147.633 92.785 147.416 93.1328C147.212 93.4687 147.11 93.8527 147.11 94.2847L147.107 99.0907C147.107 99.3547 147.017 99.5766 146.837 99.7565C146.669 99.9245 146.459 100.008 146.207 100.008C145.943 100.008 145.727 99.924 145.559 99.7559C145.391 99.5758 145.307 99.3538 145.307 99.0898L145.311 91.4578C145.311 91.1938 145.396 90.9778 145.564 90.8099C145.732 90.63 145.948 90.5401 146.212 90.5402C146.464 90.5404 146.674 90.6305 146.842 90.8106C147.022 90.9786 147.111 91.1947 147.111 91.4587L147.111 92.4667L146.787 92.6465C146.871 92.3826 147.015 92.1186 147.219 91.8547C147.435 91.5789 147.693 91.327 147.994 91.0991C148.294 90.8593 148.63 90.6735 149.002 90.5416C149.374 90.3978 149.77 90.326 150.19 90.3263ZM156.968 100.014C156.716 100.014 156.5 99.9295 156.32 99.7614C156.152 99.5813 156.069 99.3592 156.069 99.0952L156.074 87.6112C156.075 87.3472 156.159 87.1313 156.327 86.9634C156.507 86.7835 156.723 86.6936 156.975 86.6937C157.239 86.6938 157.455 86.7839 157.623 86.964C157.791 87.1321 157.875 87.3482 157.874 87.6122L157.869 99.0962C157.869 99.3602 157.784 99.5821 157.616 99.762C157.448 99.9299 157.232 100.014 156.968 100.014ZM162.841 90.5127C163.069 90.5128 163.267 90.6089 163.435 90.801C163.603 90.9931 163.687 91.1851 163.687 91.3771C163.686 91.6171 163.572 91.8391 163.344 92.0429L157.708 97.0801L157.637 95.01L162.175 90.8003C162.367 90.6084 162.589 90.5126 162.841 90.5127ZM163.052 99.9988C162.8 99.9987 162.584 99.8965 162.404 99.6925L158.806 95.8926L160.175 94.6333L163.683 98.4331C163.875 98.6372 163.971 98.8653 163.971 99.1173C163.971 99.3813 163.862 99.5972 163.646 99.7651C163.442 99.921 163.244 99.9989 163.052 99.9988ZM175.273 100.023C174.985 100.023 174.751 99.9387 174.571 99.7706C174.403 99.5906 174.319 99.3685 174.32 99.1045L174.325 88.3225L176.251 88.3235L176.246 99.1055C176.245 99.3695 176.149 99.5914 175.957 99.7713C175.777 99.9393 175.549 100.023 175.273 100.023ZM171.193 89.1489C170.941 89.1488 170.725 89.0707 170.545 88.9146C170.365 88.7465 170.275 88.5305 170.275 88.2665C170.275 88.0145 170.365 87.8105 170.545 87.6546C170.725 87.4987 170.941 87.4208 171.193 87.4209L179.383 87.4251C179.635 87.4252 179.845 87.5093 180.013 87.6774C180.193 87.8335 180.283 88.0375 180.283 88.2895C180.283 88.5535 180.193 88.7635 180.013 88.9194C179.845 89.0753 179.635 89.1532 179.383 89.1531L171.193 89.1489ZM183.808 99.1093C183.808 99.3733 183.724 99.5953 183.556 99.7752C183.388 99.9431 183.172 100.027 182.908 100.027C182.656 100.027 182.44 99.9426 182.26 99.7745C182.092 99.5945 182.008 99.3724 182.008 99.1084L182.012 91.4044C182.012 91.1404 182.096 90.9245 182.264 90.7566C182.444 90.5766 182.66 90.4868 182.912 90.4869C183.176 90.487 183.392 90.5771 183.56 90.7572C183.728 90.9253 183.812 91.1413 183.812 91.4053L183.808 99.1093ZM182.895 89.2989C182.547 89.2987 182.295 89.2386 182.139 89.1185C181.983 88.9864 181.905 88.7704 181.905 88.4704L181.906 88.1824C181.906 87.8824 181.99 87.6724 182.158 87.5525C182.326 87.4326 182.578 87.3727 182.914 87.3729C183.274 87.3731 183.532 87.4392 183.688 87.5713C183.844 87.6914 183.922 87.8954 183.922 88.1834L183.921 88.4714C183.921 88.7834 183.837 88.9994 183.669 89.1193C183.513 89.2392 183.255 89.2991 182.895 89.2989ZM188.173 99.1116C188.173 99.3756 188.083 99.5975 187.903 99.7774C187.735 99.9453 187.525 100.029 187.273 100.029C187.021 100.029 186.805 99.9449 186.625 99.7768C186.457 99.5967 186.373 99.3746 186.373 99.1106L186.379 87.6266C186.379 87.3626 186.469 87.1467 186.649 86.9788C186.83 86.7989 187.046 86.709 187.298 86.7091C187.562 86.7092 187.772 86.7994 187.927 86.9794C188.095 87.1475 188.179 87.3636 188.179 87.6276L188.173 99.1116ZM197.038 87.4341C197.278 87.4342 197.488 87.5243 197.668 87.7044C197.86 87.8725 197.956 88.0885 197.956 88.3525L197.95 99.1165C197.938 99.3805 197.836 99.6025 197.644 99.7824C197.464 99.9503 197.248 100.034 196.996 100.034C196.72 100.034 196.492 99.9498 196.312 99.7817C196.144 99.6016 196.06 99.3796 196.06 99.1156L196.066 88.3516C196.066 88.0876 196.156 87.8716 196.336 87.7037C196.516 87.5238 196.75 87.4339 197.038 87.4341ZM205.156 87.4382C205.444 87.4383 205.672 87.5285 205.84 87.7085C206.008 87.8766 206.092 88.0927 206.092 88.3567L206.086 99.1207C206.086 99.3847 205.996 99.6066 205.816 99.7865C205.648 99.9544 205.42 100.038 205.132 100.038C204.88 100.038 204.664 99.9539 204.484 99.7858C204.304 99.6058 204.214 99.3837 204.214 99.1197L204.22 88.3557C204.22 88.0917 204.31 87.8758 204.49 87.7078C204.682 87.5279 204.904 87.4381 205.156 87.4382ZM196.963 92.798L205.171 92.8022L205.152 94.5302L196.944 94.526L196.963 92.798ZM210.851 100.437C210.851 101.085 210.718 101.643 210.454 102.111C210.19 102.579 209.842 102.939 209.41 103.19C208.977 103.442 208.515 103.568 208.023 103.568C207.771 103.568 207.567 103.483 207.412 103.315C207.256 103.159 207.178 102.967 207.178 102.739L207.178 102.577C207.178 102.361 207.256 102.187 207.412 102.055C207.556 101.923 207.736 101.821 207.952 101.75C208.228 101.666 208.444 101.54 208.6 101.372C208.769 101.216 208.883 101.012 208.943 100.76C209.015 100.52 209.051 100.256 209.051 99.9682L209.056 91.4722C209.056 91.2202 209.14 91.0102 209.308 90.8423C209.476 90.6624 209.692 90.5725 209.956 90.5726C210.22 90.5728 210.436 90.6629 210.604 90.843C210.772 91.011 210.856 91.2211 210.856 91.4731L210.851 100.437ZM209.921 89.3126C209.573 89.3124 209.321 89.2523 209.165 89.1322C209.009 89.0001 208.931 88.7841 208.931 88.4841L208.931 88.1961C208.931 87.8961 209.015 87.6862 209.184 87.5662C209.352 87.4463 209.604 87.3864 209.94 87.3866C210.3 87.3868 210.558 87.4529 210.713 87.585C210.869 87.7051 210.947 87.9091 210.947 88.1971L210.947 88.4851C210.947 88.7971 210.863 89.0131 210.695 89.133C210.539 89.2529 210.281 89.3128 209.921 89.3126ZM218.131 100.225C217.135 100.224 216.271 100.02 215.539 99.6115C214.807 99.1911 214.238 98.6208 213.83 97.9006C213.435 97.1684 213.237 96.3343 213.237 95.3983C213.238 94.3423 213.448 93.4424 213.869 92.6986C214.301 91.9428 214.859 91.3671 215.544 90.9715C216.228 90.5638 216.954 90.3602 217.722 90.3606C218.31 90.3609 218.868 90.4812 219.396 90.7214C219.924 90.9497 220.391 91.2739 220.799 91.6941C221.219 92.1024 221.549 92.5885 221.789 93.1526C222.028 93.7048 222.154 94.3108 222.166 94.9708C222.153 95.2108 222.057 95.4088 221.877 95.5647C221.697 95.7206 221.487 95.7985 221.247 95.7984L214.245 95.7948L213.814 94.2646L220.582 94.268L220.24 94.5919L220.24 94.1419C220.216 93.7218 220.078 93.3558 219.827 93.0436C219.575 92.7195 219.263 92.4734 218.891 92.3052C218.519 92.125 218.129 92.0348 217.721 92.0346C217.361 92.0344 217.013 92.0942 216.677 92.214C216.353 92.3219 216.059 92.5017 215.795 92.7536C215.543 93.0055 215.338 93.3414 215.182 93.7613C215.038 94.1692 214.966 94.6792 214.965 95.2912C214.965 95.9512 215.103 96.5272 215.379 97.0194C215.654 97.5115 216.026 97.8957 216.494 98.1719C216.962 98.4362 217.478 98.5684 218.042 98.5687C218.486 98.569 218.852 98.5271 219.14 98.4433C219.428 98.3474 219.668 98.2336 219.86 98.1017C220.052 97.9698 220.22 97.8438 220.364 97.7239C220.544 97.616 220.724 97.5621 220.904 97.5622C221.12 97.5623 221.3 97.6404 221.444 97.7965C221.588 97.9405 221.66 98.1146 221.66 98.3186C221.66 98.5826 221.528 98.8225 221.264 99.0384C220.939 99.3502 220.489 99.626 219.913 99.8657C219.349 100.105 218.755 100.225 218.131 100.225ZM228.954 90.4203C229.842 90.4207 230.526 90.6431 231.006 91.0873C231.486 91.5196 231.804 92.1077 231.959 92.8518L231.671 92.7617L231.797 92.4737C231.954 92.1618 232.188 91.8499 232.5 91.5381C232.824 91.2142 233.208 90.9504 233.652 90.7467C234.096 90.5309 234.57 90.4231 235.074 90.4234C235.902 90.4238 236.544 90.6041 237 90.9644C237.456 91.3126 237.774 91.7868 237.953 92.3869C238.133 92.9749 238.223 93.635 238.222 94.367L238.22 99.137C238.22 99.401 238.136 99.6229 237.968 99.8029C237.8 99.9708 237.584 100.055 237.32 100.055C237.068 100.054 236.852 99.9703 236.672 99.8022C236.504 99.6221 236.42 99.4001 236.42 99.1361L236.422 94.3841C236.423 93.9641 236.363 93.58 236.243 93.232C236.135 92.8839 235.937 92.6078 235.649 92.4037C235.374 92.1875 234.99 92.0794 234.498 92.0791C234.03 92.0789 233.61 92.1866 233.237 92.4025C232.877 92.6063 232.595 92.8821 232.391 93.23C232.187 93.5779 232.085 93.9619 232.084 94.3819L232.082 99.1339C232.082 99.3979 231.998 99.6198 231.83 99.7997C231.662 99.9677 231.446 100.052 231.182 100.051C230.918 100.051 230.702 99.9672 230.534 99.7991C230.366 99.619 230.282 99.397 230.282 99.133L230.284 94.363C230.285 93.943 230.225 93.5589 230.105 93.2109C229.997 92.8628 229.805 92.5867 229.529 92.3826C229.254 92.1784 228.87 92.0762 228.378 92.076C227.91 92.0758 227.496 92.1775 227.135 92.3814C226.775 92.5852 226.493 92.861 226.289 93.2089C226.097 93.5568 226.001 93.9408 226 94.3608L225.998 99.1308C225.998 99.3948 225.908 99.6167 225.728 99.7966C225.56 99.9646 225.35 100.048 225.098 100.048C224.834 100.048 224.618 99.9641 224.45 99.796C224.282 99.6159 224.198 99.3939 224.198 99.1299L224.202 91.4979C224.202 91.2339 224.286 91.0179 224.454 90.85C224.622 90.6701 224.838 90.5802 225.102 90.5803C225.354 90.5805 225.564 90.6706 225.732 90.8506C225.912 91.0187 226.002 91.2348 226.002 91.4988L226.001 92.5608L225.659 92.7586C225.743 92.4947 225.882 92.2247 226.074 91.9488C226.266 91.6729 226.506 91.421 226.794 91.1932C227.094 90.9653 227.424 90.7795 227.784 90.6357C228.144 90.4919 228.534 90.4201 228.954 90.4203ZM245.496 90.4287C246.384 90.4291 247.067 90.6515 247.547 91.0957C248.027 91.528 248.345 92.1161 248.5 92.8602L248.212 92.7701L248.338 92.4821C248.495 92.1702 248.729 91.8583 249.041 91.5465C249.365 91.2227 249.749 90.9589 250.193 90.7551C250.637 90.5393 251.112 90.4315 251.616 90.4318C252.444 90.4322 253.085 90.6125 253.541 90.9728C253.997 91.321 254.315 91.7952 254.495 92.3953C254.674 92.9834 254.764 93.6434 254.763 94.3754L254.761 99.1454C254.761 99.4094 254.677 99.6314 254.509 99.8113C254.341 99.9792 254.125 100.063 253.861 100.063C253.609 100.063 253.393 99.9787 253.213 99.8106C253.045 99.6305 252.961 99.4085 252.961 99.1445L252.963 94.3925C252.964 93.9725 252.904 93.5885 252.784 93.2404C252.676 92.8923 252.478 92.6162 252.19 92.4121C251.915 92.196 251.531 92.0878 251.039 92.0875C250.571 92.0873 250.151 92.1951 249.778 92.4109C249.418 92.6147 249.136 92.8905 248.932 93.2384C248.728 93.5863 248.626 93.9703 248.625 94.3903L248.623 99.1423C248.623 99.4063 248.539 99.6282 248.371 99.8081C248.203 99.9761 247.987 100.06 247.723 100.06C247.459 100.06 247.243 99.9756 247.075 99.8075C246.907 99.6274 246.823 99.4054 246.823 99.1414L246.826 94.3714C246.826 93.9514 246.766 93.5673 246.646 93.2193C246.538 92.8712 246.346 92.5951 246.071 92.391C245.795 92.1868 245.411 92.0846 244.919 92.0844C244.451 92.0842 244.037 92.1859 243.677 92.3898C243.316 92.5936 243.034 92.8694 242.83 93.2173C242.638 93.5652 242.542 93.9492 242.542 94.3692L242.539 99.1392C242.539 99.4032 242.449 99.6251 242.269 99.805C242.101 99.973 241.891 100.057 241.639 100.057C241.375 100.057 241.159 99.9725 240.991 99.8044C240.823 99.6243 240.739 99.4023 240.739 99.1383L240.743 91.5063C240.743 91.2423 240.827 91.0263 240.995 90.8584C241.163 90.6785 241.379 90.5886 241.643 90.5887C241.895 90.5889 242.105 90.679 242.273 90.8591C242.453 91.0271 242.543 91.2432 242.543 91.5072L242.542 92.5692L242.2 92.767C242.284 92.5031 242.423 92.2331 242.615 91.9572C242.807 91.6813 243.047 91.4294 243.335 91.2016C243.635 90.9737 243.965 90.7879 244.325 90.6441C244.685 90.5003 245.076 90.4285 245.496 90.4287ZM261.69 100.247C260.694 100.246 259.83 100.042 259.098 99.6336C258.366 99.2132 257.796 98.6429 257.389 97.9227C256.993 97.1905 256.796 96.3564 256.796 95.4204C256.797 94.3644 257.007 93.4645 257.427 92.7208C257.86 91.965 258.418 91.3893 259.102 90.9936C259.786 90.586 260.513 90.3823 261.281 90.3827C261.869 90.383 262.426 90.5033 262.954 90.7436C263.482 90.9718 263.95 91.2961 264.358 91.7163C264.778 92.1245 265.107 92.6107 265.347 93.1748C265.587 93.7269 265.713 94.333 265.724 94.993C265.712 95.233 265.616 95.4309 265.436 95.5868C265.256 95.7427 265.046 95.8206 264.806 95.8205L257.804 95.8169L257.373 94.2867L264.141 94.2902L263.798 94.614L263.799 94.164C263.775 93.744 263.637 93.3779 263.385 93.0658C263.133 92.7417 262.821 92.4955 262.45 92.3273C262.078 92.1471 261.688 92.0569 261.28 92.0567C260.92 92.0565 260.572 92.1164 260.236 92.2362C259.912 92.344 259.617 92.5239 259.353 92.7757C259.101 93.0276 258.897 93.3635 258.741 93.7834C258.597 94.1913 258.524 94.7013 258.524 95.3133C258.524 95.9733 258.661 96.5494 258.937 97.0415C259.213 97.5337 259.585 97.9178 260.053 98.1941C260.52 98.4583 261.036 98.5906 261.6 98.5909C262.044 98.5911 262.41 98.5493 262.698 98.4654C262.986 98.3696 263.227 98.2557 263.419 98.1238C263.611 97.9919 263.779 97.866 263.923 97.7461C264.103 97.6381 264.283 97.5842 264.463 97.5843C264.679 97.5844 264.859 97.6625 265.003 97.8186C265.147 97.9627 265.219 98.1367 265.218 98.3407C265.218 98.6047 265.086 98.8446 264.822 99.0605C264.498 99.3723 264.048 99.6481 263.472 99.8878C262.908 100.128 262.314 100.247 261.69 100.247ZM267.199 98.5937C267.091 98.4257 267.043 98.2336 267.055 98.0176C267.067 97.7897 267.193 97.5977 267.434 97.4418C267.602 97.3339 267.776 97.292 267.956 97.3161C268.148 97.3282 268.328 97.4183 268.495 97.5864C268.831 97.9585 269.203 98.2527 269.611 98.4689C270.031 98.6852 270.535 98.7934 271.123 98.7937C271.363 98.7818 271.609 98.746 271.861 98.6861C272.113 98.6142 272.329 98.4943 272.509 98.3264C272.689 98.1465 272.779 97.8886 272.779 97.5526C272.78 97.2526 272.684 97.0125 272.492 96.8324C272.3 96.6523 272.048 96.5082 271.736 96.4C271.424 96.2799 271.088 96.1717 270.728 96.0755C270.344 95.9673 269.954 95.8471 269.558 95.7149C269.174 95.5827 268.827 95.4145 268.515 95.2104C268.203 94.9942 267.945 94.7181 267.741 94.382C267.549 94.0459 267.453 93.6318 267.454 93.1398C267.454 92.5758 267.61 92.0899 267.922 91.6821C268.247 91.2743 268.661 90.9565 269.165 90.7287C269.681 90.501 270.239 90.3873 270.839 90.3876C271.187 90.3877 271.553 90.4359 271.937 90.5321C272.321 90.6163 272.693 90.7545 273.053 90.9467C273.413 91.1389 273.725 91.391 273.988 91.7032C274.108 91.8592 274.174 92.0453 274.186 92.2613C274.21 92.4773 274.114 92.6692 273.898 92.8371C273.754 92.9571 273.58 93.011 273.376 92.9989C273.172 92.9868 273.004 92.9207 272.872 92.8006C272.644 92.5125 272.35 92.2903 271.99 92.1342C271.63 91.966 271.222 91.8818 270.766 91.8815C270.538 91.8814 270.298 91.9173 270.046 91.9892C269.806 92.049 269.602 92.1629 269.434 92.3309C269.266 92.4988 269.182 92.7447 269.182 93.0687C269.182 93.3687 269.277 93.6088 269.469 93.7889C269.673 93.969 269.937 94.1191 270.261 94.2393C270.585 94.3594 270.939 94.4676 271.323 94.5638C271.695 94.66 272.061 94.7742 272.421 94.9064C272.793 95.0386 273.123 95.2127 273.411 95.4289C273.71 95.633 273.95 95.9032 274.13 96.2392C274.322 96.5633 274.418 96.9774 274.417 97.4814C274.417 98.0694 274.243 98.5733 273.895 98.9931C273.559 99.401 273.126 99.7127 272.598 99.9285C272.082 100.144 271.536 100.252 270.96 100.252C270.276 100.251 269.592 100.131 268.908 99.8906C268.236 99.6382 267.667 99.206 267.199 98.5937ZM278.044 99.1572C278.044 99.4212 277.96 99.6432 277.792 99.8231C277.624 99.991 277.408 100.075 277.144 100.075C276.892 100.075 276.676 99.9905 276.496 99.8224C276.328 99.6424 276.244 99.4203 276.244 99.1563L276.248 91.4523C276.248 91.1883 276.333 90.9724 276.501 90.8044C276.681 90.6245 276.897 90.5346 277.149 90.5348C277.413 90.5349 277.629 90.625 277.797 90.8051C277.965 90.9732 278.048 91.1892 278.048 91.4532L278.044 99.1572ZM277.131 89.3468C276.783 89.3466 276.531 89.2865 276.375 89.1664C276.219 89.0343 276.142 88.8183 276.142 88.5183L276.142 88.2303C276.142 87.9303 276.226 87.7203 276.394 87.6004C276.562 87.4805 276.814 87.4206 277.15 87.4208C277.51 87.421 277.768 87.4871 277.924 87.6192C278.08 87.7393 278.158 87.9433 278.158 88.2313L278.158 88.5193C278.158 88.8313 278.073 89.0472 277.905 89.1672C277.749 89.2871 277.491 89.347 277.131 89.3468ZM288.23 86.7604C288.494 86.7605 288.71 86.8447 288.878 87.0127C289.046 87.1808 289.13 87.4029 289.129 87.6789L289.124 99.1629C289.123 99.4269 289.039 99.6488 288.871 99.8287C288.703 99.9966 288.487 100.081 288.223 100.08C287.971 100.08 287.755 99.9962 287.575 99.8281C287.407 99.648 287.323 99.4259 287.324 99.1619L287.324 97.8659L287.702 97.8841C287.702 98.1001 287.612 98.3461 287.432 98.622C287.264 98.8859 287.03 99.1438 286.73 99.3956C286.429 99.6475 286.075 99.8573 285.667 100.025C285.259 100.181 284.821 100.259 284.353 100.258C283.525 100.258 282.781 100.048 282.121 99.6273C281.462 99.195 280.94 98.6127 280.556 97.8805C280.173 97.1363 279.981 96.2842 279.982 95.3242C279.982 94.3642 280.174 93.5183 280.559 92.7865C280.943 92.0427 281.46 91.461 282.108 91.0413C282.768 90.6096 283.5 90.394 284.304 90.3944C284.808 90.3947 285.276 90.4789 285.708 90.6471C286.152 90.8154 286.536 91.0315 286.86 91.2957C287.183 91.5599 287.435 91.842 287.615 92.1421C287.795 92.4302 287.885 92.7062 287.885 92.9702L287.327 93.0239L287.329 87.678C287.33 87.414 287.414 87.198 287.582 87.0301C287.762 86.8502 287.978 86.7603 288.23 86.7604ZM284.552 98.6025C285.128 98.6028 285.626 98.4591 286.046 98.1713C286.478 97.8835 286.814 97.4937 287.055 97.0018C287.295 96.5099 287.415 95.952 287.416 95.328C287.416 94.704 287.296 94.1459 287.056 93.6538C286.817 93.1617 286.481 92.7715 286.049 92.4833C285.617 92.1951 285.119 92.0508 284.555 92.0505C284.003 92.0503 283.511 92.194 283.079 92.4818C282.659 92.7696 282.323 93.1594 282.07 93.6513C281.83 94.1432 281.71 94.7011 281.71 95.3251C281.709 95.9491 281.829 96.5072 282.069 96.9993C282.32 97.4914 282.656 97.8816 283.076 98.1698C283.508 98.458 284 98.6023 284.552 98.6025ZM296.055 100.264C295.059 100.264 294.195 100.059 293.463 99.6511C292.731 99.2307 292.162 98.6604 291.754 97.9402C291.358 97.208 291.161 96.3739 291.161 95.4379C291.162 94.3819 291.372 93.482 291.793 92.7382C292.225 91.9824 292.783 91.4067 293.467 91.0111C294.152 90.6034 294.878 90.3998 295.646 90.4002C296.234 90.4005 296.792 90.5208 297.32 90.761C297.847 90.9893 298.315 91.3135 298.723 91.7337C299.143 92.142 299.473 92.6281 299.712 93.1922C299.952 93.7444 300.078 94.3504 300.089 95.0104C300.077 95.2504 299.981 95.4484 299.801 95.6043C299.621 95.7602 299.411 95.8381 299.171 95.838L292.169 95.8344L291.738 94.3042L298.506 94.3076L298.164 94.6315L298.164 94.1815C298.14 93.7614 298.002 93.3954 297.75 93.0832C297.499 92.7591 297.187 92.513 296.815 92.3448C296.443 92.1646 296.053 92.0744 295.645 92.0742C295.285 92.074 294.937 92.1338 294.601 92.2536C294.277 92.3615 293.983 92.5413 293.719 92.7932C293.466 93.0451 293.262 93.381 293.106 93.8009C292.962 94.2088 292.89 94.7188 292.889 95.3308C292.889 95.9908 293.027 96.5668 293.302 97.059C293.578 97.5511 293.95 97.9353 294.418 98.2116C294.886 98.4758 295.402 98.6081 295.966 98.6083C296.41 98.6086 296.776 98.5668 297.064 98.4829C297.352 98.387 297.592 98.2732 297.784 98.1413C297.976 98.0094 298.144 97.8834 298.288 97.7635C298.468 97.6556 298.648 97.6017 298.828 97.6018C299.044 97.6019 299.224 97.68 299.368 97.8361C299.512 97.9801 299.584 98.1542 299.584 98.3582C299.584 98.6222 299.451 98.8621 299.187 99.078C298.863 99.3898 298.413 99.6656 297.837 99.9053C297.273 100.145 296.679 100.265 296.055 100.264ZM311.433 100.092C311.145 100.092 310.911 100.008 310.731 99.8398C310.563 99.6598 310.48 99.4377 310.48 99.1737L310.485 88.3917L312.411 88.3927L312.406 99.1747C312.406 99.4387 312.309 99.6606 312.117 99.8405C311.937 100.008 311.709 100.092 311.433 100.092ZM307.353 89.2181C307.101 89.218 306.885 89.1399 306.705 88.9838C306.525 88.8157 306.435 88.5997 306.435 88.3357C306.435 88.0837 306.525 87.8797 306.705 87.7238C306.886 87.5679 307.102 87.49 307.354 87.4901L315.544 87.4943C315.796 87.4944 316.006 87.5785 316.173 87.7466C316.353 87.9027 316.443 88.1067 316.443 88.3587C316.443 88.6227 316.353 88.8327 316.173 88.9886C316.005 89.1445 315.795 89.2224 315.543 89.2223L307.353 89.2181ZM320.523 100.277C319.527 100.276 318.664 100.072 317.932 99.6635C317.2 99.2431 316.63 98.6728 316.223 97.9526C315.827 97.2204 315.629 96.3863 315.63 95.4503C315.63 94.3943 315.841 93.4944 316.261 92.7507C316.694 91.9949 317.252 91.4192 317.936 91.0235C318.62 90.6159 319.347 90.4122 320.115 90.4126C320.703 90.4129 321.26 90.5332 321.788 90.7735C322.316 91.0017 322.784 91.326 323.192 91.7462C323.612 92.1544 323.941 92.6406 324.181 93.2047C324.421 93.7568 324.547 94.3629 324.558 95.0229C324.546 95.2629 324.45 95.4608 324.27 95.6167C324.09 95.7726 323.88 95.8505 323.64 95.8504L316.638 95.8468L316.207 94.3166L322.975 94.3201L322.632 94.6439L322.633 94.1939C322.609 93.7739 322.471 93.4078 322.219 93.0957C321.967 92.7716 321.655 92.5254 321.284 92.3572C320.912 92.177 320.522 92.0868 320.114 92.0866C319.754 92.0864 319.406 92.1463 319.07 92.2661C318.746 92.3739 318.451 92.5538 318.187 92.8056C317.935 93.0575 317.731 93.3934 317.575 93.8133C317.431 94.2212 317.358 94.7312 317.358 95.3432C317.358 96.0032 317.495 96.5793 317.771 97.0714C318.047 97.5636 318.419 97.9477 318.887 98.224C319.354 98.4882 319.87 98.6205 320.434 98.6208C320.878 98.621 321.244 98.5792 321.532 98.4953C321.82 98.3995 322.061 98.2856 322.253 98.1537C322.445 98.0218 322.613 97.8959 322.757 97.776C322.937 97.668 323.117 97.6141 323.297 97.6142C323.513 97.6143 323.693 97.6924 323.837 97.8485C323.981 97.9926 324.053 98.1666 324.052 98.3706C324.052 98.6346 323.92 98.8745 323.656 99.0904C323.332 99.4022 322.882 99.678 322.306 99.9177C321.742 100.157 321.147 100.277 320.523 100.277ZM331.347 90.4723C332.235 90.4728 332.919 90.6951 333.399 91.1394C333.878 91.5716 334.196 92.1598 334.352 92.9038L334.064 92.8137L334.19 92.5258C334.346 92.2138 334.58 91.902 334.892 91.5901C335.217 91.2663 335.601 91.0025 336.045 90.7987C336.489 90.5829 336.963 90.4752 337.467 90.4754C338.295 90.4759 338.937 90.6562 339.393 91.0164C339.849 91.3646 340.166 91.8388 340.346 92.4389C340.526 93.027 340.615 93.687 340.615 94.419L340.613 99.189C340.612 99.453 340.528 99.675 340.36 99.8549C340.192 100.023 339.976 100.107 339.712 100.107C339.46 100.106 339.244 100.022 339.064 99.8542C338.896 99.6742 338.812 99.4521 338.813 99.1881L338.815 94.4361C338.815 94.0161 338.755 93.6321 338.636 93.284C338.528 92.936 338.33 92.6599 338.042 92.4557C337.766 92.2396 337.382 92.1314 336.89 92.1311C336.422 92.1309 336.002 92.2387 335.63 92.4545C335.27 92.6583 334.988 92.9342 334.784 93.2821C334.579 93.63 334.477 94.0139 334.477 94.4339L334.475 99.1859C334.474 99.4499 334.39 99.6719 334.222 99.8518C334.054 100.02 333.838 100.104 333.574 100.103C333.31 100.103 333.094 100.019 332.926 99.8511C332.758 99.671 332.674 99.449 332.675 99.185L332.677 94.415C332.677 93.995 332.617 93.611 332.498 93.2629C332.39 92.9149 332.198 92.6388 331.922 92.4346C331.646 92.2305 331.262 92.1283 330.77 92.128C330.302 92.1278 329.888 92.2296 329.528 92.4334C329.168 92.6372 328.886 92.9131 328.682 93.261C328.489 93.6089 328.393 93.9928 328.393 94.4128L328.391 99.1828C328.39 99.4468 328.3 99.6688 328.12 99.8487C327.952 100.017 327.742 100.1 327.49 100.1C327.226 100.1 327.01 100.016 326.842 99.848C326.674 99.6679 326.59 99.4459 326.591 99.1819L326.594 91.5499C326.595 91.2859 326.679 91.0699 326.847 90.902C327.015 90.7221 327.231 90.6322 327.495 90.6324C327.747 90.6325 327.957 90.7226 328.125 90.9027C328.305 91.0708 328.395 91.2868 328.394 91.5508L328.394 92.6128L328.052 92.8106C328.136 92.5467 328.274 92.2768 328.466 92.0009C328.658 91.725 328.899 91.4731 329.187 91.2452C329.487 91.0174 329.817 90.8315 330.177 90.6877C330.537 90.5439 330.927 90.4721 331.347 90.4723ZM350.894 90.5003C351.158 90.5004 351.374 90.5905 351.542 90.7706C351.71 90.9387 351.794 91.1547 351.794 91.4187L351.79 99.1947C351.789 99.4587 351.705 99.6807 351.537 99.8606C351.369 100.028 351.153 100.112 350.889 100.112C350.637 100.112 350.421 100.028 350.241 99.8599C350.073 99.6798 349.989 99.4578 349.99 99.1938L349.99 97.8978L350.368 97.952C350.368 98.168 350.278 98.4079 350.098 98.6719C349.93 98.9358 349.696 99.1936 349.395 99.4455C349.095 99.6853 348.741 99.8892 348.333 100.057C347.925 100.213 347.487 100.291 347.019 100.29C346.191 100.29 345.447 100.079 344.787 99.6592C344.128 99.2268 343.606 98.6386 343.222 97.8944C342.839 97.1502 342.647 96.3041 342.648 95.3561C342.648 94.3841 342.841 93.5322 343.225 92.8004C343.609 92.0566 344.126 91.4748 344.774 91.0551C345.434 90.6355 346.166 90.4259 346.97 90.4263C347.486 90.4265 347.96 90.5108 348.392 90.679C348.836 90.8472 349.22 91.0634 349.544 91.3276C349.867 91.5917 350.113 91.8739 350.281 92.1739C350.461 92.462 350.551 92.7381 350.551 93.0021L349.993 93.0558L349.994 91.4178C349.994 91.1658 350.078 90.9498 350.246 90.7699C350.426 90.59 350.642 90.5001 350.894 90.5003ZM347.218 98.6344C347.782 98.6347 348.28 98.4909 348.712 98.2031C349.144 97.9154 349.48 97.5255 349.721 97.0337C349.961 96.5298 350.081 95.9718 350.082 95.3598C350.082 94.7358 349.962 94.1778 349.722 93.6857C349.483 93.1935 349.147 92.8034 348.715 92.5151C348.283 92.2269 347.785 92.0827 347.221 92.0824C346.669 92.0821 346.177 92.2259 345.745 92.5136C345.325 92.8014 344.989 93.1913 344.736 93.6831C344.496 94.175 344.376 94.7329 344.376 95.3569C344.375 95.9689 344.495 96.527 344.735 97.0311C344.986 97.5233 345.322 97.9134 345.742 98.2016C346.174 98.4899 346.666 98.6341 347.218 98.6344ZM359.934 97.8128C360.03 97.8129 360.132 97.8309 360.24 97.867C360.348 97.8911 360.468 97.9511 360.6 98.0472C360.816 98.2393 361.073 98.4014 361.373 98.5336C361.685 98.6537 362.039 98.7139 362.435 98.7141C362.879 98.7143 363.293 98.6126 363.677 98.4088C364.062 98.1929 364.374 97.8931 364.614 97.5092C364.854 97.1254 364.974 96.6694 364.975 96.1414C364.975 95.6014 364.861 95.1634 364.633 94.8272C364.405 94.4791 364.112 94.221 363.752 94.0528C363.392 93.8726 363.014 93.7824 362.618 93.7822C362.39 93.7821 362.198 93.806 362.042 93.8539C361.886 93.8898 361.736 93.9318 361.592 93.9797C361.448 94.0156 361.292 94.0335 361.124 94.0335C360.896 94.0333 360.716 93.9552 360.584 93.7992C360.452 93.6311 360.386 93.4331 360.386 93.2051C360.386 93.0611 360.416 92.9351 360.476 92.8271C360.536 92.7192 360.62 92.5992 360.728 92.4673L364.06 88.9049L364.456 89.2651L359.686 89.2627C359.446 89.2626 359.242 89.1845 359.074 89.0284C358.918 88.8603 358.84 88.6563 358.841 88.4163C358.841 88.1883 358.919 87.9963 359.075 87.8404C359.243 87.6845 359.447 87.6066 359.687 87.6067L365.375 87.6096C365.687 87.6098 365.915 87.6999 366.059 87.88C366.215 88.06 366.293 88.2701 366.293 88.5101C366.292 88.6421 366.256 88.7681 366.184 88.888C366.124 89.008 366.046 89.122 365.95 89.2299L362.6 92.8282L362.151 92.342C362.247 92.294 362.409 92.2461 362.637 92.1982C362.865 92.1503 363.051 92.1264 363.195 92.1265C363.879 92.1269 364.491 92.3012 365.03 92.6494C365.582 92.9977 366.008 93.4659 366.308 94.0541C366.619 94.6302 366.775 95.2843 366.775 96.0163C366.774 96.8923 366.576 97.6542 366.18 98.302C365.783 98.9378 365.231 99.4295 364.523 99.7772C363.827 100.125 363.023 100.298 362.111 100.298C361.655 100.298 361.199 100.237 360.743 100.117C360.299 99.985 359.915 99.7988 359.591 99.5587C359.387 99.4386 359.249 99.3125 359.177 99.1805C359.105 99.0364 359.069 98.8984 359.069 98.7664C359.069 98.5384 359.148 98.3224 359.304 98.1185C359.472 97.9146 359.682 97.8127 359.934 97.8128ZM369.768 92.9218C369.468 92.9217 369.234 92.8436 369.066 92.6875C368.91 92.5194 368.832 92.2854 368.832 91.9854L368.833 91.6434C368.833 91.3434 368.911 91.1094 369.067 90.9415C369.235 90.7736 369.469 90.6897 369.769 90.6898L369.967 90.6899C370.267 90.6901 370.495 90.7742 370.651 90.9423C370.807 91.1104 370.885 91.3444 370.885 91.6444L370.884 91.9864C370.884 92.2864 370.806 92.5204 370.65 92.6883C370.494 92.8442 370.266 92.9221 369.966 92.9219L369.768 92.9218ZM369.764 100.122C369.464 100.122 369.23 100.038 369.062 99.8695C368.906 99.7014 368.829 99.4674 368.829 99.1674L368.829 98.8434C368.829 98.5314 368.907 98.2974 369.063 98.1415C369.231 97.9736 369.465 97.8897 369.765 97.8898L369.963 97.8899C370.263 97.8901 370.491 97.9742 370.647 98.1423C370.803 98.2984 370.881 98.5324 370.881 98.8444L370.881 99.1684C370.881 99.4684 370.802 99.7024 370.646 99.8703C370.49 100.038 370.262 100.122 369.962 100.122L369.764 100.122ZM379.499 87.5268C379.739 87.5269 379.949 87.617 380.129 87.7971C380.321 87.9652 380.417 88.1813 380.416 88.4453L380.411 99.2093C380.399 99.4732 380.297 99.6952 380.105 99.8751C379.925 100.043 379.709 100.127 379.457 100.127C379.181 100.127 378.953 100.043 378.773 99.8744C378.605 99.6943 378.521 99.4723 378.521 99.2083L378.526 88.4443C378.527 88.1803 378.617 87.9643 378.797 87.7964C378.977 87.6165 379.211 87.5266 379.499 87.5268ZM387.617 87.5309C387.905 87.5311 388.133 87.6212 388.301 87.8013C388.469 87.9694 388.553 88.1854 388.552 88.4494L388.547 99.2134C388.547 99.4774 388.457 99.6993 388.277 99.8793C388.109 100.047 387.881 100.131 387.593 100.131C387.341 100.131 387.125 100.047 386.945 99.8786C386.765 99.6985 386.675 99.4764 386.675 99.2124L386.68 88.4484C386.681 88.1844 386.771 87.9685 386.951 87.8006C387.143 87.6207 387.365 87.5308 387.617 87.5309ZM379.424 92.8908L387.632 92.8949L387.613 94.6229L379.405 94.6187L379.424 92.8908ZM391.139 90.7727L395.369 90.7749C395.609 90.775 395.807 90.8591 395.963 91.0272C396.131 91.1832 396.214 91.3813 396.214 91.6213C396.214 91.8493 396.13 92.0412 395.962 92.1972C395.806 92.3531 395.608 92.431 395.368 92.4309L391.138 92.4287C390.898 92.4286 390.694 92.3505 390.526 92.1944C390.37 92.0263 390.292 91.8283 390.292 91.6003C390.293 91.3603 390.371 91.1623 390.527 91.0064C390.695 90.8505 390.899 90.7726 391.139 90.7727ZM393.03 88.4337C393.294 88.4338 393.51 88.5239 393.678 88.704C393.846 88.8721 393.93 89.0881 393.93 89.3521L393.925 97.7041C393.925 97.9201 393.961 98.0941 394.033 98.2262C394.105 98.3582 394.201 98.4483 394.321 98.4963C394.453 98.5444 394.585 98.5685 394.717 98.5685C394.849 98.5686 394.963 98.5447 395.059 98.4967C395.167 98.4488 395.293 98.4248 395.437 98.4249C395.581 98.425 395.713 98.491 395.833 98.6231C395.953 98.7552 396.013 98.9352 396.013 99.1632C396.012 99.4512 395.856 99.6851 395.544 99.8649C395.232 100.045 394.896 100.135 394.536 100.134C394.332 100.134 394.092 100.116 393.816 100.08C393.54 100.044 393.27 99.9538 393.006 99.8097C392.754 99.6655 392.544 99.4374 392.377 99.1253C392.209 98.8013 392.125 98.3512 392.125 97.7752L392.13 89.3512C392.13 89.0872 392.214 88.8713 392.382 88.7033C392.562 88.5234 392.778 88.4335 393.03 88.4337ZM398.082 90.7762L402.312 90.7784C402.552 90.7785 402.75 90.8626 402.906 91.0307C403.074 91.1868 403.158 91.3848 403.158 91.6248C403.158 91.8528 403.074 92.0448 402.905 92.2007C402.749 92.3566 402.551 92.4345 402.311 92.4344L398.081 92.4322C397.841 92.4321 397.637 92.354 397.469 92.1979C397.314 92.0298 397.236 91.8318 397.236 91.6038C397.236 91.3638 397.314 91.1658 397.47 91.0099C397.638 90.854 397.842 90.7761 398.082 90.7762ZM399.973 88.4372C400.237 88.4373 400.453 88.5274 400.621 88.7075C400.789 88.8756 400.873 89.0917 400.873 89.3557L400.869 97.7077C400.869 97.9237 400.904 98.0977 400.976 98.2297C401.048 98.3617 401.144 98.4518 401.264 98.4999C401.396 98.5479 401.528 98.572 401.66 98.5721C401.792 98.5721 401.906 98.5482 402.002 98.5002C402.11 98.4523 402.236 98.4283 402.38 98.4284C402.524 98.4285 402.656 98.4946 402.776 98.6266C402.896 98.7587 402.956 98.9387 402.956 99.1667C402.956 99.4547 402.8 99.6886 402.488 99.8685C402.175 100.048 401.839 100.138 401.479 100.138C401.275 100.138 401.035 100.12 400.759 100.084C400.483 100.047 400.213 99.9573 399.95 99.8132C399.698 99.6691 399.488 99.441 399.32 99.1289C399.152 98.8048 399.068 98.3547 399.069 97.7787L399.073 89.3547C399.073 89.0907 399.157 88.8748 399.325 88.7069C399.505 88.527 399.721 88.4371 399.973 88.4372ZM409.922 90.5123C410.762 90.5127 411.506 90.7231 412.153 91.1434C412.813 91.5637 413.335 92.14 413.718 92.8722C414.102 93.5924 414.294 94.4325 414.293 95.3925C414.293 96.3525 414.1 97.2044 413.716 97.9482C413.332 98.68 412.815 99.2557 412.167 99.6754C411.519 100.095 410.787 100.305 409.971 100.304C409.515 100.304 409.083 100.232 408.675 100.088C408.267 99.9434 407.907 99.7572 407.595 99.5291C407.283 99.2889 407.025 99.0368 406.821 98.7727C406.63 98.5086 406.51 98.2625 406.462 98.0345L406.948 97.8007L406.945 102.823C406.945 103.087 406.855 103.303 406.675 103.471C406.507 103.651 406.297 103.74 406.045 103.74C405.781 103.74 405.565 103.65 405.397 103.47C405.229 103.302 405.145 103.086 405.145 102.822L405.151 91.5538C405.151 91.3018 405.235 91.0859 405.403 90.906C405.572 90.726 405.788 90.6362 406.052 90.6363C406.304 90.6364 406.514 90.7265 406.681 90.9066C406.861 91.0867 406.951 91.3027 406.951 91.5547L406.95 92.7967L406.663 92.6346C406.699 92.4066 406.813 92.1727 407.005 91.9328C407.197 91.6809 407.437 91.447 407.725 91.2311C408.025 91.0153 408.361 90.8415 408.734 90.7097C409.118 90.5778 409.514 90.512 409.922 90.5123ZM409.723 92.1682C409.147 92.1679 408.643 92.3116 408.211 92.5994C407.79 92.8752 407.46 93.253 407.22 93.7329C406.98 94.2128 406.859 94.7647 406.859 95.3887C406.859 96.0007 406.979 96.5588 407.218 97.0629C407.458 97.555 407.788 97.9452 408.208 98.2334C408.64 98.5096 409.144 98.6479 409.72 98.6482C410.284 98.6484 410.776 98.5107 411.196 98.2349C411.616 97.9471 411.946 97.5573 412.186 97.0654C412.439 96.5615 412.565 96.0036 412.565 95.3916C412.565 94.7796 412.44 94.2335 412.188 93.7534C411.948 93.2613 411.618 92.8771 411.199 92.6009C410.779 92.3127 410.287 92.1684 409.723 92.1682ZM415.769 98.6692C415.661 98.5012 415.613 98.3091 415.625 98.0932C415.638 97.8652 415.764 97.6732 416.004 97.5173C416.172 97.4094 416.346 97.3675 416.526 97.3916C416.718 97.4037 416.898 97.4938 417.066 97.6619C417.402 98.0341 417.773 98.3282 418.181 98.5445C418.601 98.7607 419.105 98.8689 419.693 98.8692C419.933 98.8573 420.179 98.8215 420.431 98.7616C420.683 98.6897 420.899 98.5698 421.079 98.4019C421.259 98.222 421.35 97.9641 421.35 97.6281C421.35 97.3281 421.254 97.088 421.062 96.9079C420.87 96.7278 420.618 96.5837 420.306 96.4755C419.994 96.3554 419.658 96.2472 419.298 96.151C418.915 96.0428 418.525 95.9226 418.129 95.7904C417.745 95.6582 417.397 95.4901 417.085 95.2859C416.773 95.0697 416.515 94.7936 416.311 94.4575C416.12 94.1214 416.024 93.7074 416.024 93.2154C416.024 92.6514 416.181 92.1654 416.493 91.7576C416.817 91.3498 417.231 91.032 417.735 90.8042C418.251 90.5765 418.809 90.4628 419.409 90.4631C419.757 90.4633 420.123 90.5114 420.507 90.6076C420.891 90.6918 421.263 90.83 421.623 91.0222C421.983 91.2144 422.295 91.4665 422.559 91.7787C422.679 91.9347 422.745 92.1208 422.756 92.3368C422.78 92.5528 422.684 92.7447 422.468 92.9126C422.324 93.0326 422.15 93.0865 421.946 93.0744C421.742 93.0623 421.574 92.9962 421.442 92.8761C421.214 92.588 420.92 92.3658 420.56 92.2097C420.201 92.0415 419.793 91.9573 419.337 91.957C419.109 91.9569 418.869 91.9928 418.617 92.0647C418.377 92.1246 418.172 92.2384 418.004 92.4064C417.836 92.5743 417.752 92.8202 417.752 93.1442C417.752 93.4442 417.848 93.6843 418.04 93.8644C418.244 94.0445 418.507 94.1946 418.831 94.3148C419.155 94.4349 419.509 94.5431 419.893 94.6393C420.265 94.7355 420.631 94.8497 420.991 94.9819C421.363 95.1141 421.693 95.2882 421.981 95.5044C422.281 95.7085 422.521 95.9787 422.7 96.3147C422.892 96.6388 422.988 97.0529 422.988 97.5569C422.987 98.1449 422.813 98.6488 422.465 99.0686C422.129 99.4765 421.697 99.7882 421.169 100.004C420.652 100.22 420.106 100.327 419.53 100.327C418.846 100.327 418.162 100.206 417.479 99.9661C416.807 99.7138 416.237 99.2815 415.769 98.6692ZM425.772 92.9503C425.472 92.9502 425.238 92.872 425.07 92.716C424.914 92.5479 424.836 92.3138 424.836 92.0138L424.836 91.6718C424.837 91.3718 424.915 91.1379 425.071 90.97C425.239 90.802 425.473 90.7182 425.773 90.7183L425.971 90.7184C426.271 90.7186 426.499 90.8027 426.655 90.9708C426.811 91.1388 426.889 91.3729 426.888 91.6729L426.888 92.0149C426.888 92.3149 426.81 92.5488 426.654 92.7168C426.498 92.8727 426.27 92.9506 425.97 92.9504L425.772 92.9503ZM425.768 100.15C425.468 100.15 425.234 100.066 425.066 99.898C424.91 99.7299 424.832 99.4958 424.833 99.1958L424.833 98.8718C424.833 98.5598 424.911 98.3259 425.067 98.17C425.235 98.002 425.469 97.9182 425.769 97.9183L425.967 97.9184C426.267 97.9186 426.495 98.0027 426.651 98.1708C426.807 98.3268 426.885 98.5609 426.885 98.8729L426.885 99.1969C426.884 99.4969 426.806 99.7308 426.65 99.8988C426.494 100.067 426.266 100.151 425.966 100.15L425.768 100.15ZM429.279 102.528C429.099 102.528 428.92 102.456 428.74 102.312C428.56 102.168 428.47 101.988 428.47 101.772C428.47 101.64 428.506 101.514 428.578 101.394L436.056 86.2595C436.14 86.0916 436.242 85.9656 436.362 85.8817C436.494 85.7978 436.638 85.7558 436.794 85.7559C436.962 85.756 437.13 85.8221 437.298 85.9542C437.478 86.0863 437.568 86.2723 437.568 86.5123C437.568 86.6443 437.537 86.7763 437.477 86.9083L430 102.042C429.916 102.198 429.814 102.318 429.694 102.402C429.573 102.486 429.435 102.528 429.279 102.528ZM437.576 102.532C437.396 102.532 437.216 102.46 437.036 102.316C436.857 102.172 436.767 101.992 436.767 101.776C436.767 101.644 436.803 101.518 436.875 101.398L444.353 86.2638C444.437 86.0958 444.539 85.9699 444.659 85.8859C444.791 85.802 444.935 85.7601 445.091 85.7601C445.259 85.7602 445.427 85.8263 445.595 85.9584C445.775 86.0905 445.865 86.2765 445.864 86.5165C445.864 86.6485 445.834 86.7805 445.774 86.9125L438.297 102.047C438.213 102.203 438.11 102.323 437.99 102.407C437.87 102.49 437.732 102.532 437.576 102.532ZM448.703 87.544C448.847 87.544 448.997 87.5801 449.153 87.6522C449.309 87.7243 449.429 87.8263 449.513 87.9584L454.081 94.9267L453.307 94.8903L457.973 87.9627C458.165 87.6868 458.411 87.5489 458.711 87.5491C458.951 87.5492 459.161 87.6393 459.341 87.8194C459.533 87.9875 459.629 88.2035 459.629 88.4675L459.623 99.2495C459.623 99.5135 459.539 99.7355 459.371 99.9154C459.203 100.083 458.981 100.167 458.705 100.167C458.417 100.167 458.183 100.083 458.003 99.9147C457.835 99.7346 457.751 99.5126 457.751 99.2486L457.756 90.1226L458.332 90.2489L454.369 96.2768C454.285 96.3848 454.177 96.4807 454.045 96.5647C453.913 96.6366 453.775 96.6665 453.631 96.6545C453.499 96.6664 453.361 96.6363 453.217 96.5643C453.085 96.4802 452.977 96.3841 452.893 96.2761L449.08 90.3342L449.512 89.6144L449.507 99.2444C449.507 99.5084 449.423 99.7303 449.255 99.9102C449.099 100.078 448.889 100.162 448.625 100.162C448.373 100.162 448.163 100.078 447.995 99.9096C447.839 99.7295 447.761 99.5075 447.761 99.2435L447.767 88.4615C447.767 88.2095 447.857 87.9935 448.037 87.8136C448.229 87.6337 448.451 87.5438 448.703 87.544ZM464.056 99.2518C464.056 99.5158 463.972 99.7377 463.804 99.9176C463.636 100.086 463.42 100.169 463.156 100.169C462.904 100.169 462.688 100.085 462.508 99.917C462.34 99.7369 462.256 99.5149 462.256 99.2509L462.26 91.5469C462.26 91.2829 462.344 91.0669 462.512 90.899C462.692 90.7191 462.908 90.6292 463.16 90.6293C463.424 90.6294 463.64 90.7196 463.808 90.8996C463.976 91.0677 464.06 91.2838 464.06 91.5478L464.056 99.2518ZM463.143 89.4413C462.795 89.4411 462.543 89.381 462.387 89.2609C462.231 89.1288 462.153 88.9128 462.153 88.6128L462.154 88.3248C462.154 88.0248 462.238 87.8148 462.406 87.6949C462.574 87.575 462.826 87.5151 463.162 87.5153C463.522 87.5155 463.78 87.5816 463.936 87.7137C464.092 87.8338 464.17 88.0378 464.17 88.3258L464.169 88.6138C464.169 88.9258 464.085 89.1418 463.917 89.2617C463.761 89.3816 463.503 89.4415 463.143 89.4413ZM468.421 99.254C468.421 99.518 468.331 99.7399 468.151 99.9198C467.983 100.088 467.773 100.172 467.521 100.172C467.269 100.171 467.053 100.087 466.873 99.9192C466.705 99.7391 466.621 99.5171 466.621 99.2531L466.627 87.7691C466.627 87.5051 466.717 87.2891 466.897 87.1212C467.078 86.9413 467.294 86.8514 467.546 86.8515C467.81 86.8517 468.02 86.9418 468.175 87.1219C468.343 87.2899 468.427 87.506 468.427 87.77L468.421 99.254ZM475.334 100.355C474.338 100.355 473.474 100.151 472.742 99.7422C472.011 99.3218 471.441 98.7515 471.033 98.0313C470.638 97.2991 470.44 96.465 470.44 95.529C470.441 94.473 470.651 93.5731 471.072 92.8293C471.504 92.0736 472.062 91.4978 472.747 91.1022C473.431 90.6945 474.157 90.4909 474.925 90.4913C475.513 90.4916 476.071 90.6119 476.599 90.8521C477.127 91.0804 477.595 91.4046 478.002 91.8249C478.422 92.2331 478.752 92.7192 478.992 93.2834C479.231 93.8355 479.357 94.4415 479.369 95.1016C479.357 95.3415 479.26 95.5395 479.08 95.6954C478.9 95.8513 478.69 95.9292 478.45 95.9291L471.448 95.9255L471.017 94.3953L477.785 94.3987L477.443 94.7226L477.443 94.2726C477.419 93.8526 477.281 93.4865 477.03 93.1744C476.778 92.8502 476.466 92.6041 476.094 92.4359C475.722 92.2557 475.332 92.1655 474.924 92.1653C474.564 92.1651 474.216 92.2249 473.88 92.3448C473.556 92.4526 473.262 92.6324 472.998 92.8843C472.746 93.1362 472.541 93.4721 472.385 93.892C472.241 94.2999 472.169 94.8099 472.169 95.4219C472.168 96.0819 472.306 96.658 472.582 97.1501C472.857 97.6422 473.229 98.0264 473.697 98.3027C474.165 98.5669 474.681 98.6992 475.245 98.6995C475.689 98.6997 476.055 98.6579 476.343 98.574C476.631 98.4782 476.871 98.3643 477.063 98.2324C477.255 98.1005 477.423 97.9746 477.567 97.8546C477.747 97.7467 477.927 97.6928 478.107 97.6929C478.323 97.693 478.503 97.7711 478.647 97.9272C478.791 98.0713 478.863 98.2453 478.863 98.4493C478.863 98.7133 478.731 98.9532 478.467 99.1691C478.142 99.4809 477.692 99.7567 477.116 99.9964C476.552 100.236 475.958 100.356 475.334 100.355ZM486.284 90.4971C487.136 90.4975 487.795 90.6778 488.263 91.0381C488.731 91.3863 489.055 91.8605 489.235 92.4606C489.426 93.0487 489.522 93.7087 489.522 94.4407L489.519 99.2647C489.519 99.5287 489.429 99.7507 489.249 99.9306C489.081 100.098 488.871 100.182 488.619 100.182C488.355 100.182 488.139 100.098 487.971 99.9299C487.803 99.7498 487.719 99.5278 487.719 99.2638L487.722 94.4578C487.722 94.0258 487.662 93.6418 487.542 93.3057C487.422 92.9576 487.212 92.6815 486.913 92.4774C486.625 92.2612 486.217 92.153 485.689 92.1528C485.197 92.1525 484.765 92.2603 484.393 92.4761C484.02 92.6799 483.726 92.9558 483.51 93.3037C483.306 93.6396 483.204 94.0235 483.204 94.4555L483.201 99.2615C483.201 99.5255 483.111 99.7475 482.931 99.9274C482.763 100.095 482.553 100.179 482.301 100.179C482.037 100.179 481.821 100.095 481.653 99.9267C481.485 99.7466 481.401 99.5246 481.401 99.2606L481.405 91.6286C481.405 91.3646 481.489 91.1486 481.657 90.9807C481.825 90.8008 482.041 90.7109 482.305 90.711C482.557 90.7112 482.767 90.8013 482.935 90.9814C483.115 91.1495 483.205 91.3655 483.205 91.6295L483.204 92.6375L482.88 92.8173C482.965 92.5534 483.109 92.2895 483.313 92.0256C483.529 91.7497 483.787 91.4978 484.087 91.2699C484.387 91.0301 484.723 90.8443 485.095 90.7125C485.468 90.5687 485.864 90.4969 486.284 90.4971ZM496.428 100.366C495.432 100.366 494.568 100.161 493.836 99.7529C493.104 99.3325 492.535 98.7622 492.127 98.042C491.731 97.3098 491.534 96.4757 491.534 95.5397C491.535 94.4837 491.745 93.5838 492.166 92.8401C492.598 92.0843 493.156 91.5086 493.84 91.1129C494.525 90.7053 495.251 90.5016 496.019 90.502C496.607 90.5023 497.165 90.6226 497.693 90.8629C498.22 91.0911 498.688 91.4154 499.096 91.8356C499.516 92.2438 499.846 92.73 500.085 93.2941C500.325 93.8462 500.451 94.4523 500.462 95.1123C500.45 95.3523 500.354 95.5502 500.174 95.7061C499.994 95.862 499.784 95.9399 499.544 95.9398L492.542 95.9362L492.111 94.406L498.879 94.4095L498.537 94.7333L498.537 94.2833C498.513 93.8633 498.375 93.4972 498.123 93.1851C497.872 92.861 497.56 92.6148 497.188 92.4466C496.816 92.2664 496.426 92.1762 496.018 92.176C495.658 92.1758 495.31 92.2357 494.974 92.3555C494.65 92.4633 494.356 92.6432 494.092 92.895C493.839 93.1469 493.635 93.4828 493.479 93.9027C493.335 94.3106 493.263 94.8206 493.262 95.4326C493.262 96.0926 493.4 96.6687 493.675 97.1608C493.951 97.653 494.323 98.0371 494.791 98.3134C495.259 98.5776 495.775 98.7099 496.339 98.7102C496.783 98.7104 497.149 98.6686 497.437 98.5847C497.725 98.4889 497.965 98.375 498.157 98.2431C498.349 98.1112 498.517 97.9853 498.661 97.8654C498.841 97.7574 499.021 97.7035 499.201 97.7036C499.417 97.7037 499.597 97.7818 499.741 97.9379C499.885 98.082 499.957 98.256 499.957 98.46C499.957 98.724 499.824 98.9639 499.56 99.1798C499.236 99.4916 498.786 99.7674 498.21 100.007C497.646 100.247 497.052 100.367 496.428 100.366ZM507.251 90.5617C508.139 90.5622 508.823 90.7845 509.303 91.2288C509.783 91.661 510.1 92.2492 510.256 92.9932L509.968 92.9031L510.094 92.6152C510.25 92.3032 510.485 91.9914 510.797 91.6795C511.121 91.3557 511.505 91.0919 511.949 90.8881C512.393 90.6723 512.867 90.5646 513.371 90.5648C514.199 90.5653 514.841 90.7456 515.297 91.1058C515.753 91.454 516.071 91.9282 516.25 92.5283C516.43 93.1164 516.52 93.7764 516.519 94.5084L516.517 99.2784C516.517 99.5424 516.433 99.7644 516.265 99.9443C516.096 100.112 515.88 100.196 515.616 100.196C515.364 100.196 515.148 100.112 514.969 99.9436C514.801 99.7636 514.717 99.5415 514.717 99.2775L514.719 94.5255C514.719 94.1055 514.66 93.7215 514.54 93.3734C514.432 93.0254 514.234 92.7493 513.946 92.5451C513.67 92.329 513.286 92.2208 512.794 92.2205C512.326 92.2203 511.906 92.3281 511.534 92.5439C511.174 92.7477 510.892 93.0236 510.688 93.3715C510.484 93.7194 510.381 94.1033 510.381 94.5233L510.379 99.2753C510.379 99.5393 510.295 99.7613 510.127 99.9412C509.958 100.109 509.742 100.193 509.478 100.193C509.214 100.193 508.998 100.109 508.831 99.9405C508.663 99.7604 508.579 99.5384 508.579 99.2744L508.581 94.5044C508.581 94.0844 508.522 93.7004 508.402 93.3523C508.294 93.0043 508.102 92.7282 507.826 92.524C507.55 92.3199 507.166 92.2177 506.674 92.2174C506.206 92.2172 505.792 92.319 505.432 92.5228C505.072 92.7266 504.79 93.0025 504.586 93.3504C504.394 93.6983 504.297 94.0822 504.297 94.5022L504.295 99.2722C504.295 99.5362 504.205 99.7582 504.025 99.9381C503.856 100.106 503.646 100.19 503.394 100.19C503.13 100.19 502.914 100.106 502.747 99.9374C502.579 99.7573 502.495 99.5353 502.495 99.2713L502.499 91.6393C502.499 91.3753 502.583 91.1593 502.751 90.9914C502.919 90.8115 503.135 90.7216 503.399 90.7218C503.651 90.7219 503.861 90.812 504.029 90.9921C504.209 91.1602 504.299 91.3762 504.299 91.6402L504.298 92.7022L503.956 92.9C504.04 92.6361 504.178 92.3662 504.371 92.0903C504.563 91.8144 504.803 91.5625 505.091 91.3346C505.391 91.1068 505.721 90.9209 506.081 90.7771C506.441 90.6333 506.831 90.5615 507.251 90.5617ZM520.728 99.2806C520.728 99.5446 520.644 99.7665 520.476 99.9464C520.307 100.114 520.091 100.198 519.827 100.198C519.575 100.198 519.359 100.114 519.18 99.9458C519.012 99.7657 518.928 99.5437 518.928 99.2797L518.932 91.5757C518.932 91.3117 519.016 91.0957 519.184 90.9278C519.364 90.7479 519.58 90.658 519.832 90.6581C520.096 90.6583 520.312 90.7484 520.48 90.9284C520.648 91.0965 520.732 91.3126 520.732 91.5766L520.728 99.2806ZM519.815 89.4701C519.467 89.4699 519.215 89.4098 519.059 89.2897C518.903 89.1576 518.825 88.9416 518.825 88.6416L518.825 88.3536C518.826 88.0536 518.91 87.8436 519.078 87.7237C519.246 87.6038 519.498 87.5439 519.834 87.5441C520.194 87.5443 520.452 87.6104 520.608 87.7425C520.764 87.8626 520.842 88.0666 520.841 88.3546L520.841 88.6426C520.841 88.9546 520.757 89.1706 520.589 89.2905C520.433 89.4104 520.175 89.4703 519.815 89.4701ZM528.032 90.5183C528.884 90.5187 529.544 90.6991 530.011 91.0593C530.479 91.4075 530.803 91.8817 530.983 92.4818C531.174 93.0699 531.27 93.7299 531.27 94.4619L531.267 99.2859C531.267 99.5499 531.177 99.7719 530.997 99.9518C530.829 100.12 530.619 100.204 530.367 100.203C530.103 100.203 529.887 100.119 529.719 99.9511C529.551 99.7711 529.467 99.549 529.467 99.285L529.47 94.479C529.47 94.047 529.41 93.663 529.29 93.3269C529.17 92.9789 528.96 92.7028 528.661 92.4986C528.373 92.2825 527.965 92.1742 527.437 92.174C526.945 92.1737 526.513 92.2815 526.141 92.4973C525.768 92.7011 525.474 92.977 525.258 93.3249C525.054 93.6608 524.952 94.0447 524.952 94.4767L524.949 99.2827C524.949 99.5467 524.859 99.7687 524.679 99.9486C524.511 100.116 524.301 100.2 524.049 100.2C523.785 100.2 523.569 100.116 523.401 99.9479C523.233 99.7678 523.149 99.5458 523.149 99.2818L523.153 91.6498C523.153 91.3858 523.237 91.1698 523.405 91.0019C523.573 90.822 523.789 90.7321 524.053 90.7323C524.305 90.7324 524.515 90.8225 524.683 91.0026C524.863 91.1707 524.953 91.3867 524.953 91.6507L524.953 92.6587L524.628 92.8386C524.713 92.5746 524.857 92.3107 525.061 92.0468C525.277 91.7709 525.535 91.519 525.835 91.2912C526.135 91.0513 526.471 90.8655 526.843 90.7337C527.216 90.5899 527.612 90.5181 528.032 90.5183ZM534.45 100.188C534.15 100.187 533.916 100.103 533.748 99.9352C533.592 99.7671 533.514 99.5331 533.514 99.2331L533.515 98.9091C533.515 98.6091 533.593 98.3751 533.749 98.2072C533.917 98.0393 534.151 97.9554 534.451 97.9555L534.649 97.9556C534.949 97.9558 535.177 98.0399 535.333 98.208C535.489 98.3761 535.567 98.6101 535.567 98.9101L535.566 99.2341C535.566 99.5341 535.488 99.7681 535.332 99.936C535.176 100.104 534.948 100.188 534.648 100.188L534.45 100.188ZM543.341 87.6101C544.217 87.6105 544.991 87.7789 545.663 88.1152C546.334 88.4396 546.892 88.8959 547.336 89.4841C547.792 90.0603 548.133 90.7325 548.361 91.5006C548.588 92.2567 548.702 93.0608 548.702 93.9128C548.701 95.0768 548.496 96.1387 548.088 97.0985C547.68 98.0463 547.079 98.802 546.287 99.3656C545.495 99.9292 544.51 100.211 543.334 100.21L538.942 100.208C538.69 100.208 538.474 100.124 538.295 99.9555C538.115 99.7754 538.025 99.5534 538.025 99.2894L538.03 88.5254C538.03 88.2614 538.121 88.0454 538.301 87.8775C538.481 87.6976 538.697 87.6077 538.949 87.6078L543.341 87.6101ZM543.155 98.482C544.007 98.4824 544.697 98.2728 545.226 97.853C545.754 97.4333 546.138 96.8815 546.378 96.1976C546.631 95.5017 546.757 94.7398 546.758 93.9118C546.758 93.2998 546.686 92.7238 546.542 92.1837C546.411 91.6316 546.195 91.1455 545.895 90.7254C545.607 90.2932 545.236 89.957 544.78 89.7168C544.336 89.4646 543.796 89.3383 543.16 89.338L539.758 89.3362L539.92 89.1743L539.915 98.6603L539.807 98.4803L543.155 98.482ZM551.755 100.214C551.503 100.214 551.287 100.13 551.107 99.962C550.939 99.7819 550.856 99.5599 550.856 99.2959L550.861 87.8119C550.862 87.5479 550.946 87.3319 551.114 87.164C551.294 86.9841 551.51 86.8942 551.762 86.8943C552.026 86.8945 552.242 86.9846 552.41 87.1647C552.578 87.3328 552.662 87.5488 552.661 87.8128L552.656 99.2968C552.656 99.5608 552.571 99.7828 552.403 99.9627C552.235 100.131 552.019 100.214 551.755 100.214ZM557.628 90.7133C557.856 90.7134 558.054 90.8095 558.222 91.0016C558.39 91.1937 558.474 91.3858 558.474 91.5778C558.473 91.8178 558.359 92.0397 558.131 92.2436L552.495 97.2807L552.424 95.2107L556.962 91.001C557.154 90.8091 557.376 90.7132 557.628 90.7133ZM557.839 100.199C557.587 100.199 557.371 100.097 557.191 99.8931L553.593 96.0933L554.962 94.834L558.47 98.6338C558.662 98.8378 558.758 99.0659 558.758 99.3179C558.757 99.5819 558.649 99.7978 558.433 99.9657C558.229 100.122 558.031 100.2 557.839 100.199ZM560.711 102.595C560.531 102.595 560.351 102.523 560.171 102.379C559.991 102.235 559.901 102.054 559.901 101.838C559.902 101.706 559.938 101.58 560.01 101.461L567.487 86.3263C567.571 86.1584 567.673 86.0324 567.794 85.9485C567.926 85.8646 568.07 85.8226 568.226 85.8227C568.394 85.8228 568.562 85.8889 568.729 86.021C568.909 86.1531 568.999 86.3391 568.999 86.5791C568.999 86.7111 568.969 86.8431 568.909 86.9751L561.431 102.109C561.347 102.265 561.245 102.385 561.125 102.469C561.005 102.553 560.867 102.595 560.711 102.595ZM575.978 87.6267C576.614 87.627 577.202 87.8013 577.742 88.1495C578.281 88.4858 578.713 88.948 579.037 89.5362C579.361 90.1244 579.522 90.7845 579.522 91.5165C579.522 92.2485 579.359 92.9144 579.035 93.5142C578.711 94.102 578.278 94.5758 577.738 94.9355C577.198 95.2833 576.61 95.457 575.974 95.4566L572.5 95.4549L572.644 95.167L572.642 99.307C572.642 99.571 572.558 99.7929 572.39 99.9728C572.234 100.141 572.023 100.225 571.759 100.225C571.507 100.224 571.298 100.14 571.13 99.9722C570.974 99.7921 570.896 99.5701 570.896 99.3061L570.901 88.5421C570.902 88.2781 570.992 88.0621 571.172 87.8942C571.352 87.7143 571.568 87.6244 571.82 87.6245L575.978 87.6267ZM575.975 93.7286C576.287 93.7288 576.569 93.627 576.821 93.4231C577.085 93.2192 577.295 92.9493 577.451 92.6134C577.62 92.2775 577.704 91.9115 577.704 91.5155C577.704 91.1195 577.62 90.7595 577.452 90.4354C577.297 90.1113 577.087 89.8532 576.823 89.6611C576.571 89.457 576.289 89.3548 575.977 89.3547L572.467 89.3529L572.647 89.083L572.645 93.961L572.483 93.7269L575.975 93.7286ZM590.407 95.5C590.406 96.46 590.196 97.3119 589.775 98.0557C589.355 98.7874 588.785 99.3632 588.064 99.7828C587.344 100.202 586.534 100.412 585.634 100.412C584.734 100.411 583.924 100.201 583.204 99.7803C582.485 99.36 581.909 98.7837 581.477 98.0514C581.058 97.3072 580.848 96.4551 580.849 95.4951C580.849 94.5231 581.06 93.6712 581.48 92.9394C581.912 92.1957 582.489 91.614 583.209 91.1943C583.929 90.7627 584.739 90.5471 585.639 90.5476C586.539 90.548 587.349 90.7644 588.069 91.1968C588.789 91.6172 589.358 92.1995 589.778 92.9437C590.198 93.6759 590.407 94.528 590.407 95.5ZM588.607 95.4991C588.607 94.8391 588.475 94.269 588.212 93.7889C587.948 93.2967 587.588 92.9126 587.132 92.6363C586.688 92.3481 586.19 92.2038 585.638 92.2036C585.086 92.2033 584.582 92.347 584.126 92.6348C583.67 92.9106 583.31 93.2944 583.046 93.7862C582.781 94.2661 582.649 94.836 582.649 95.496C582.648 96.132 582.78 96.6961 583.044 97.1882C583.308 97.6804 583.667 98.0646 584.123 98.3408C584.579 98.617 585.083 98.7553 585.635 98.7556C586.187 98.7558 586.685 98.6181 587.129 98.3423C587.585 98.0665 587.946 97.6827 588.21 97.1909C588.474 96.699 588.606 96.1351 588.607 95.4991ZM596.852 100.417C595.856 100.417 594.992 100.212 594.26 99.8039C593.528 99.3836 592.958 98.8133 592.551 98.0931C592.155 97.3609 591.958 96.5268 591.958 95.5908C591.959 94.5348 592.169 93.6349 592.589 92.8911C593.022 92.1353 593.58 91.5596 594.264 91.1639C594.948 90.7563 595.675 90.5527 596.443 90.5531C597.031 90.5534 597.588 90.6736 598.116 90.9139C598.644 91.1422 599.112 91.4664 599.52 91.8866C599.94 92.2948 600.269 92.781 600.509 93.3451C600.749 93.8972 600.875 94.5033 600.886 95.1633C600.874 95.4033 600.778 95.6013 600.598 95.7572C600.418 95.9131 600.208 95.991 599.968 95.9908L592.966 95.9873L592.535 94.4571L599.303 94.4605L598.96 94.7843L598.961 94.3343C598.937 93.9143 598.799 93.5482 598.547 93.2361C598.295 92.912 597.983 92.6658 597.612 92.4976C597.24 92.3175 596.85 92.2273 596.442 92.2271C596.082 92.2269 595.734 92.2867 595.398 92.4065C595.074 92.5144 594.779 92.6942 594.515 92.9461C594.263 93.1979 594.059 93.5338 593.903 93.9538C593.759 94.3617 593.686 94.8717 593.686 95.4837C593.686 96.1436 593.823 96.7197 594.099 97.2119C594.375 97.704 594.747 98.0882 595.215 98.3644C595.682 98.6287 596.198 98.7609 596.762 98.7612C597.206 98.7614 597.572 98.7196 597.86 98.6358C598.148 98.5399 598.389 98.426 598.581 98.2941C598.773 98.1622 598.941 98.0363 599.085 97.9164C599.265 97.8085 599.445 97.7546 599.625 97.7547C599.841 97.7548 600.021 97.8329 600.165 97.9889C600.309 98.133 600.381 98.3071 600.381 98.5111C600.38 98.7751 600.248 99.015 599.984 99.2308C599.66 99.5427 599.21 99.8185 598.634 100.058C598.07 100.298 597.476 100.418 596.852 100.417ZM602.797 90.8803L607.027 90.8824C607.267 90.8826 607.465 90.9667 607.621 91.1347C607.789 91.2908 607.873 91.4889 607.873 91.7289C607.872 91.9569 607.788 92.1488 607.62 92.3047C607.464 92.4607 607.266 92.5386 607.026 92.5384L602.796 92.5363C602.556 92.5362 602.352 92.4581 602.184 92.302C602.028 92.1339 601.95 91.9359 601.951 91.7079C601.951 91.4679 602.029 91.2699 602.185 91.114C602.353 90.9581 602.557 90.8802 602.797 90.8803ZM604.688 88.5412C604.952 88.5414 605.168 88.6315 605.336 88.8116C605.504 88.9797 605.588 89.1957 605.588 89.4597L605.583 97.8117C605.583 98.0277 605.619 98.2017 605.691 98.3338C605.763 98.4658 605.859 98.5558 605.979 98.6039C606.111 98.652 606.243 98.676 606.375 98.6761C606.507 98.6762 606.621 98.6522 606.717 98.6043C606.825 98.5563 606.951 98.5324 607.095 98.5325C607.239 98.5325 607.371 98.5986 607.491 98.7307C607.611 98.8627 607.671 99.0428 607.671 99.2708C607.671 99.5588 607.514 99.7927 607.202 99.9725C606.89 100.152 606.554 100.242 606.194 100.242C605.99 100.242 605.75 100.224 605.474 100.188C605.198 100.151 604.928 100.061 604.664 99.9172C604.412 99.7731 604.203 99.545 604.035 99.2329C603.867 98.9088 603.783 98.4588 603.783 97.8828L603.788 89.4588C603.788 89.1948 603.872 88.9788 604.04 88.8109C604.22 88.631 604.436 88.5411 604.688 88.5412ZM610.762 100.244C610.498 100.244 610.282 100.16 610.114 99.992C609.946 99.8119 609.862 99.5899 609.862 99.3259L609.866 91.6939C609.866 91.4299 609.95 91.2139 610.118 91.046C610.286 90.8661 610.502 90.7762 610.766 90.7763C611.018 90.7765 611.228 90.8666 611.396 91.0467C611.576 91.2147 611.666 91.4308 611.666 91.6948L611.665 93.7108L611.485 92.9367C611.581 92.6007 611.726 92.2888 611.918 92.0009C612.122 91.713 612.362 91.4611 612.638 91.2453C612.914 91.0294 613.22 90.8616 613.556 90.7418C613.904 90.6219 614.264 90.5621 614.636 90.5623C614.948 90.5625 615.218 90.6466 615.446 90.8147C615.674 90.9828 615.788 91.1929 615.788 91.4449C615.788 91.7689 615.704 92.0088 615.536 92.1648C615.368 92.3087 615.182 92.3806 614.978 92.3805C614.798 92.3804 614.624 92.3443 614.456 92.2722C614.288 92.1881 614.09 92.146 613.862 92.1459C613.61 92.1458 613.352 92.2116 613.088 92.3435C612.823 92.4754 612.583 92.6733 612.367 92.9371C612.151 93.189 611.977 93.4889 611.845 93.8369C611.725 94.1848 611.664 94.5748 611.664 95.0068L611.662 99.3268C611.662 99.5908 611.572 99.8127 611.392 99.9926C611.224 100.161 611.014 100.244 610.762 100.244ZM624.428 90.7113C624.692 90.7114 624.908 90.8015 625.076 90.9816C625.244 91.1497 625.327 91.3657 625.327 91.6297L625.323 99.3697C625.323 100.426 625.118 101.284 624.71 101.943C624.314 102.603 623.774 103.083 623.089 103.383C622.417 103.694 621.655 103.85 620.803 103.849C620.371 103.849 619.939 103.807 619.507 103.723C619.075 103.651 618.721 103.542 618.445 103.398C618.157 103.266 617.954 103.104 617.834 102.912C617.714 102.72 617.696 102.51 617.78 102.282C617.864 101.994 618.008 101.796 618.212 101.688C618.416 101.592 618.626 101.586 618.842 101.67C619.046 101.755 619.316 101.863 619.652 101.995C619.988 102.127 620.372 102.193 620.804 102.193C621.392 102.194 621.89 102.098 622.298 101.906C622.706 101.714 623.012 101.415 623.217 101.007C623.433 100.599 623.541 100.071 623.541 99.4228L623.542 98.1808L623.83 98.613C623.638 99.0089 623.385 99.3387 623.073 99.6026C622.761 99.8664 622.389 100.07 621.957 100.214C621.537 100.358 621.069 100.43 620.553 100.429C619.893 100.429 619.323 100.285 618.843 99.9964C618.375 99.6962 618.015 99.288 617.764 98.7719C617.512 98.2438 617.386 97.6437 617.387 96.9717L617.389 91.6257C617.39 91.3617 617.474 91.1457 617.642 90.9778C617.81 90.7979 618.026 90.708 618.29 90.7082C618.542 90.7083 618.752 90.7984 618.92 90.9785C619.1 91.1466 619.189 91.3626 619.189 91.6266L619.187 96.4866C619.186 97.2786 619.36 97.8607 619.708 98.2329C620.056 98.5931 620.572 98.7733 621.256 98.7737C621.712 98.7739 622.108 98.6781 622.444 98.4863C622.78 98.2944 623.044 98.0306 623.236 97.6947C623.428 97.3468 623.525 96.9448 623.525 96.4888L623.527 91.6288C623.527 91.3648 623.612 91.1489 623.78 90.9809C623.96 90.801 624.176 90.7111 624.428 90.7113ZM638.883 90.7006C639.111 90.7007 639.309 90.7908 639.477 90.9709C639.657 91.139 639.746 91.3611 639.746 91.6371C639.746 91.6971 639.74 91.7571 639.728 91.8171C639.716 91.877 639.698 91.931 639.674 91.979L636.916 99.6816C636.844 99.8856 636.718 100.042 636.538 100.149C636.358 100.245 636.172 100.281 635.98 100.257C635.632 100.233 635.374 100.041 635.206 99.6808L633.175 94.2797L633.589 94.3159L631.714 99.679C631.546 100.039 631.288 100.231 630.94 100.255C630.76 100.278 630.574 100.242 630.382 100.146C630.202 100.038 630.076 99.8821 630.004 99.6781L627.236 91.9727C627.188 91.8647 627.164 91.7507 627.164 91.6307C627.164 91.3787 627.243 91.1627 627.399 90.9828C627.567 90.7909 627.789 90.695 628.065 90.6951C628.257 90.6952 628.425 90.7433 628.569 90.8394C628.725 90.9355 628.833 91.0795 628.893 91.2715L631.193 97.7707L630.779 97.7345L632.654 92.8215C632.81 92.4495 633.086 92.2637 633.482 92.2639C633.698 92.264 633.866 92.3121 633.986 92.4081C634.106 92.5042 634.202 92.6422 634.274 92.8223L636.179 97.7552L635.693 97.809L638.019 91.2762C638.139 90.8922 638.427 90.7004 638.883 90.7006ZM645.982 100.442C644.986 100.442 644.122 100.237 643.391 99.8289C642.659 99.4085 642.089 98.8382 641.682 98.118C641.286 97.3858 641.088 96.5517 641.089 95.6157C641.089 94.5597 641.3 93.6598 641.72 92.9161C642.153 92.1603 642.711 91.5846 643.395 91.1889C644.079 90.7813 644.805 90.5776 645.573 90.578C646.161 90.5783 646.719 90.6986 647.247 90.9389C647.775 91.1671 648.243 91.4914 648.651 91.9116C649.071 92.3198 649.4 92.806 649.64 93.3701C649.88 93.9222 650.005 94.5283 650.017 95.1883C650.005 95.4283 649.909 95.6262 649.729 95.7821C649.549 95.938 649.339 96.0159 649.099 96.0158L642.097 96.0123L641.665 94.482L648.433 94.4855L648.091 94.8093L648.091 94.3593C648.068 93.9393 647.93 93.5732 647.678 93.2611C647.426 92.937 647.114 92.6908 646.742 92.5226C646.371 92.3424 645.981 92.2522 645.573 92.252C645.213 92.2518 644.865 92.3117 644.528 92.4315C644.204 92.5393 643.91 92.7192 643.646 92.971C643.394 93.2229 643.19 93.5588 643.034 93.9787C642.889 94.3867 642.817 94.8966 642.817 95.5086C642.817 96.1686 642.954 96.7447 643.23 97.2368C643.506 97.729 643.878 98.1132 644.345 98.3894C644.813 98.6536 645.329 98.7859 645.893 98.7862C646.337 98.7864 646.703 98.7446 646.991 98.6607C647.279 98.5649 647.519 98.451 647.711 98.3191C647.904 98.1872 648.072 98.0613 648.216 97.9414C648.396 97.8335 648.576 97.7795 648.756 97.7796C648.972 97.7797 649.152 97.8578 649.296 98.0139C649.44 98.158 649.511 98.332 649.511 98.536C649.511 98.8 649.379 99.04 649.115 99.2558C648.791 99.5677 648.341 99.8434 647.765 100.083C647.2 100.323 646.606 100.443 645.982 100.442ZM656.824 90.5837C657.664 90.5842 658.408 90.7945 659.056 91.2149C659.715 91.6352 660.237 92.2175 660.621 92.9617C661.004 93.6939 661.196 94.54 661.195 95.5C661.195 96.46 661.003 97.3119 660.618 98.0557C660.234 98.7995 659.717 99.3872 659.069 99.8189C658.421 100.239 657.689 100.448 656.873 100.448C656.417 100.448 655.985 100.375 655.577 100.231C655.169 100.075 654.809 99.8827 654.497 99.6546C654.185 99.4144 653.928 99.1623 653.724 98.8982C653.532 98.6341 653.412 98.388 653.364 98.16L653.85 97.9262L653.849 99.4922C653.849 99.7442 653.759 99.9602 653.579 100.14C653.411 100.308 653.201 100.392 652.949 100.392C652.685 100.392 652.469 100.308 652.301 100.139C652.133 99.9714 652.049 99.7553 652.049 99.4913L652.055 87.8633C652.055 87.5993 652.14 87.3834 652.308 87.2154C652.476 87.0355 652.692 86.9456 652.956 86.9458C653.208 86.9459 653.418 87.036 653.586 87.2161C653.766 87.3842 653.855 87.6002 653.855 87.8642L653.853 92.9222L653.565 92.7601C653.601 92.5321 653.715 92.2982 653.907 92.0583C654.099 91.8064 654.339 91.5665 654.628 91.3386C654.928 91.1108 655.264 90.9309 655.636 90.7991C656.02 90.6553 656.416 90.5835 656.824 90.5837ZM656.625 92.2396C656.049 92.2393 655.545 92.3831 655.113 92.6709C654.693 92.9587 654.363 93.3485 654.122 93.8404C653.882 94.3202 653.762 94.8722 653.761 95.4962C653.761 96.1202 653.881 96.6842 654.121 97.1884C654.36 97.6805 654.69 98.0707 655.11 98.3589C655.542 98.6471 656.046 98.7913 656.622 98.7916C657.186 98.7919 657.678 98.6482 658.098 98.3604C658.518 98.0726 658.848 97.6768 659.089 97.1729C659.341 96.669 659.467 96.1111 659.467 95.4991C659.468 94.8751 659.342 94.323 659.09 93.8429C658.851 93.3508 658.521 92.9606 658.101 92.6724C657.681 92.3842 657.189 92.2399 656.625 92.2396ZM662.671 98.7947C662.564 98.6267 662.516 98.4346 662.528 98.2186C662.54 97.9906 662.666 97.7987 662.906 97.6428C663.074 97.5349 663.248 97.493 663.428 97.5171C663.62 97.5292 663.8 97.6193 663.968 97.7874C664.304 98.1595 664.676 98.4537 665.084 98.6699C665.503 98.8861 666.007 98.9944 666.595 98.9947C666.835 98.9828 667.081 98.947 667.333 98.8871C667.585 98.8152 667.802 98.6953 667.982 98.5274C668.162 98.3475 668.252 98.0895 668.252 97.7535C668.252 97.4535 668.156 97.2135 667.964 97.0334C667.772 96.8533 667.521 96.7092 667.209 96.601C666.897 96.4809 666.561 96.3727 666.201 96.2765C665.817 96.1683 665.427 96.0481 665.031 95.9159C664.647 95.7837 664.299 95.6155 663.987 95.4114C663.675 95.1952 663.417 94.9191 663.214 94.583C663.022 94.2469 662.926 93.8328 662.926 93.3408C662.927 92.7768 663.083 92.2909 663.395 91.8831C663.719 91.4752 664.133 91.1575 664.637 90.9297C665.154 90.702 665.712 90.5883 666.312 90.5886C666.66 90.5887 667.026 90.6369 667.41 90.7331C667.794 90.8173 668.165 90.9555 668.525 91.1477C668.885 91.3399 669.197 91.592 669.461 91.9042C669.581 92.0602 669.647 92.2463 669.659 92.4623C669.683 92.6783 669.586 92.8702 669.37 93.0381C669.226 93.158 669.052 93.212 668.848 93.1999C668.644 93.1877 668.476 93.1217 668.344 93.0016C668.117 92.7135 667.823 92.4913 667.463 92.3351C667.103 92.167 666.695 92.0828 666.239 92.0825C666.011 92.0824 665.771 92.1183 665.519 92.1902C665.279 92.25 665.075 92.3639 664.907 92.5318C664.739 92.6998 664.654 92.9457 664.654 93.2697C664.654 93.5697 664.75 93.8098 664.942 93.9899C665.146 94.17 665.41 94.3201 665.734 94.4403C666.058 94.5604 666.412 94.6686 666.796 94.7648C667.167 94.861 667.533 94.9752 667.893 95.1074C668.265 95.2396 668.595 95.4137 668.883 95.6299C669.183 95.834 669.423 96.1041 669.603 96.4402C669.795 96.7643 669.89 97.1784 669.89 97.6824C669.89 98.2704 669.715 98.7743 669.367 99.1941C669.031 99.6019 668.599 99.9137 668.071 100.129C667.555 100.345 667.009 100.453 666.433 100.453C665.749 100.452 665.065 100.332 664.381 100.092C663.709 99.8392 663.139 99.4069 662.671 98.7947ZM673.517 99.3582C673.517 99.6222 673.433 99.8442 673.265 100.024C673.096 100.192 672.88 100.276 672.616 100.276C672.364 100.276 672.148 100.192 671.969 100.023C671.801 99.8433 671.717 99.6213 671.717 99.3573L671.721 91.6533C671.721 91.3893 671.805 91.1734 671.973 91.0054C672.153 90.8255 672.369 90.7356 672.621 90.7358C672.885 90.7359 673.101 90.826 673.269 91.0061C673.437 91.1742 673.521 91.3902 673.521 91.6542L673.517 99.3582ZM672.604 89.5478C672.256 89.5476 672.004 89.4875 671.848 89.3674C671.692 89.2353 671.614 89.0193 671.614 88.7193L671.614 88.4313C671.615 88.1313 671.699 87.9213 671.867 87.8014C672.035 87.6815 672.287 87.6216 672.623 87.6218C672.983 87.622 673.241 87.6881 673.397 87.8202C673.553 87.9402 673.631 88.1443 673.63 88.4323L673.63 88.7203C673.63 89.0323 673.546 89.2482 673.378 89.3682C673.222 89.4881 672.964 89.5479 672.604 89.5478ZM675.816 90.9174L680.046 90.9195C680.286 90.9197 680.484 91.0038 680.64 91.1718C680.808 91.3279 680.892 91.526 680.892 91.766C680.892 91.994 680.808 92.1859 680.64 92.3418C680.484 92.4978 680.286 92.5757 680.046 92.5755L675.816 92.5734C675.576 92.5733 675.372 92.4952 675.204 92.3391C675.048 92.171 674.97 91.973 674.97 91.745C674.97 91.505 675.048 91.307 675.204 91.1511C675.372 90.9952 675.576 90.9173 675.816 90.9174ZM677.708 88.5784C677.972 88.5785 678.188 88.6686 678.356 88.8487C678.523 89.0168 678.607 89.2328 678.607 89.4968L678.603 97.8488C678.603 98.0648 678.639 98.2388 678.711 98.3709C678.783 98.5029 678.879 98.5929 678.999 98.641C679.131 98.6891 679.262 98.7131 679.394 98.7132C679.526 98.7133 679.641 98.6893 679.737 98.6414C679.845 98.5934 679.971 98.5695 680.115 98.5696C680.259 98.5696 680.391 98.6357 680.51 98.7678C680.63 98.8998 680.69 99.0799 680.69 99.3079C680.69 99.5959 680.534 99.8298 680.222 100.01C679.91 100.189 679.574 100.279 679.214 100.279C679.01 100.279 678.77 100.261 678.494 100.225C678.218 100.189 677.948 100.098 677.684 99.9543C677.432 99.8102 677.222 99.5821 677.054 99.27C676.886 98.9459 676.803 98.4959 676.803 97.9199L676.807 89.4959C676.807 89.2319 676.891 89.0159 677.06 88.848C677.24 88.6681 677.456 88.5782 677.708 88.5784ZM687.203 100.463C686.207 100.463 685.343 100.258 684.611 99.8499C683.88 99.4295 683.31 98.8592 682.902 98.139C682.507 97.4068 682.309 96.5727 682.31 95.6367C682.31 94.5807 682.521 93.6808 682.941 92.937C683.373 92.1812 683.932 91.6055 684.616 91.2099C685.3 90.8022 686.026 90.5986 686.794 90.599C687.382 90.5993 687.94 90.7196 688.468 90.9598C688.996 91.1881 689.464 91.5123 689.871 91.9325C690.291 92.3407 690.621 92.8269 690.861 93.391C691.1 93.9432 691.226 94.5492 691.238 95.2092C691.226 95.4492 691.13 95.6472 690.949 95.8031C690.769 95.959 690.559 96.0369 690.319 96.0368L683.317 96.0332L682.886 94.503L689.654 94.5064L689.312 94.8303L689.312 94.3803C689.288 93.9602 689.151 93.5942 688.899 93.282C688.647 92.9579 688.335 92.7118 687.963 92.5436C687.591 92.3634 687.201 92.2732 686.793 92.273C686.433 92.2728 686.085 92.3326 685.749 92.4524C685.425 92.5603 685.131 92.7401 684.867 92.992C684.615 93.2439 684.411 93.5798 684.254 93.9997C684.11 94.4076 684.038 94.9176 684.038 95.5296C684.037 96.1896 684.175 96.7656 684.451 97.2578C684.726 97.7499 685.098 98.1341 685.566 98.4103C686.034 98.6746 686.55 98.8068 687.114 98.8071C687.558 98.8074 687.924 98.7655 688.212 98.6817C688.5 98.5858 688.74 98.472 688.932 98.3401C689.124 98.2082 689.292 98.0822 689.436 97.9623C689.616 97.8544 689.796 97.8005 689.976 97.8006C690.192 97.8007 690.372 97.8788 690.516 98.0349C690.66 98.1789 690.732 98.353 690.732 98.557C690.732 98.821 690.6 99.0609 690.336 99.2768C690.012 99.5886 689.561 99.8644 688.985 100.104C688.421 100.344 687.827 100.463 687.203 100.463ZM693.233 102.662C693.053 102.662 692.873 102.59 692.693 102.446C692.513 102.302 692.423 102.122 692.423 101.906C692.423 101.774 692.459 101.648 692.531 101.528L700.009 86.3937C700.093 86.2257 700.195 86.0998 700.315 86.0158C700.447 85.9319 700.591 85.89 700.747 85.8901C700.915 85.8901 701.083 85.9562 701.251 86.0883C701.431 86.2204 701.521 86.4065 701.521 86.6465C701.521 86.7785 701.491 86.9104 701.43 87.0424L693.953 102.177C693.869 102.333 693.767 102.453 693.647 102.536C693.527 102.62 693.389 102.662 693.233 102.662Z" fill="#4F5057"/>
</svg>
