<svg width="572" height="546" viewBox="0 0 572 546" fill="none" xmlns="http://www.w3.org/2000/svg">
<path d="M96.9844 396.987C43.4214 319.548 63.8738 212.591 142.666 158.092C221.458 103.593 328.754 122.189 382.317 199.629C435.88 277.068 415.427 384.025 336.635 438.524C257.843 493.023 150.547 474.426 96.9844 396.987Z" fill="#FCD993"/>
<path d="M196.842 348.077C145.217 273.441 166.227 169.457 243.769 115.823C321.311 62.1891 426.02 79.2153 477.645 153.852C529.27 228.489 508.26 332.472 430.718 386.106C353.176 439.74 248.466 422.714 196.842 348.077Z" fill="#FFFBF5"/>
<path d="M290.602 157.157C293.635 157.707 301.247 159.181 308.818 165.551C311.608 167.899 315.941 171.632 318.925 178.478C322.066 185.68 321.9 192.159 321.839 193.657C321.773 195.217 321.374 202.415 316.976 209.824C312.739 216.962 307.2 220.239 303.578 222.322C301.878 223.299 293.463 227.966 281.818 227.473C278.277 227.322 269.637 226.84 260.805 220.625C257.696 218.439 252 214.314 248.313 206.137C247.291 203.87 244.791 198.144 245.166 190.269C245.259 188.345 245.714 182.279 249.205 175.834C251.713 171.203 254.633 168.507 256.489 166.827C261.539 162.249 266.456 160.357 269.642 159.171C273.768 157.63 277.037 157.108 278.058 156.958C280.462 156.605 285.034 156.161 290.599 157.166L290.602 157.157Z" fill="#FFD278" fill-opacity="0.78" stroke="white" stroke-width="0.25" stroke-linecap="round" stroke-linejoin="round"/>
</svg>
