<svg width="1194" height="546" viewBox="0 0 1194 546" fill="none" xmlns="http://www.w3.org/2000/svg">
<path d="M96.9844 396.987C43.4214 319.548 63.8738 212.591 142.666 158.092C221.458 103.593 328.754 122.189 382.317 199.629C435.88 277.068 415.427 384.025 336.635 438.524C257.843 493.023 150.547 474.426 96.9844 396.987Z" fill="#FCD993"/>
<path d="M196.842 348.077C145.217 273.441 166.227 169.457 243.769 115.823C321.311 62.1891 426.02 79.2153 477.645 153.852C529.27 228.489 508.26 332.472 430.718 386.106C353.176 439.74 248.466 422.714 196.842 348.077Z" fill="#FFFBF5"/>
<path d="M290.602 157.157C293.635 157.707 301.247 159.181 308.818 165.551C311.608 167.899 315.941 171.632 318.925 178.478C322.066 185.68 321.9 192.159 321.839 193.657C321.773 195.217 321.374 202.415 316.976 209.824C312.739 216.962 307.2 220.239 303.578 222.322C301.878 223.299 293.463 227.966 281.818 227.473C278.277 227.322 269.637 226.84 260.805 220.625C257.696 218.439 252 214.314 248.313 206.137C247.291 203.87 244.791 198.144 245.166 190.269C245.259 188.345 245.714 182.279 249.205 175.834C251.713 171.203 254.633 168.507 256.489 166.827C261.539 162.249 266.456 160.357 269.642 159.171C273.768 157.63 277.037 157.108 278.058 156.958C280.462 156.605 285.034 156.161 290.599 157.166L290.602 157.157Z" fill="#FFD278" fill-opacity="0.78" stroke="white" stroke-width="0.25" stroke-linecap="round" stroke-linejoin="round"/>
<path d="M254.04 350.06C254.46 350.06 254.81 350.2 255.09 350.48C255.39 350.76 255.54 351.11 255.54 351.53C255.54 351.95 255.39 352.3 255.09 352.58C254.81 352.86 254.46 353 254.04 353H243.96C243.52 353 243.15 352.86 242.85 352.58C242.57 352.28 242.43 351.91 242.43 351.47V333.53C242.43 333.09 242.58 332.73 242.88 332.45C243.18 332.15 243.57 332 244.05 332C244.45 332 244.8 332.15 245.1 332.45C245.42 332.73 245.58 333.09 245.58 333.53V350.57L244.95 350.06H254.04ZM261.473 351.47C261.473 351.91 261.333 352.28 261.053 352.58C260.773 352.86 260.413 353 259.973 353C259.553 353 259.193 352.86 258.893 352.58C258.613 352.28 258.473 351.91 258.473 351.47V338.63C258.473 338.19 258.613 337.83 258.893 337.55C259.193 337.25 259.553 337.1 259.973 337.1C260.413 337.1 260.773 337.25 261.053 337.55C261.333 337.83 261.473 338.19 261.473 338.63V351.47ZM259.943 335.12C259.363 335.12 258.943 335.02 258.683 334.82C258.423 334.6 258.293 334.24 258.293 333.74V333.26C258.293 332.76 258.433 332.41 258.713 332.21C258.993 332.01 259.413 331.91 259.973 331.91C260.573 331.91 261.003 332.02 261.263 332.24C261.523 332.44 261.653 332.78 261.653 333.26V333.74C261.653 334.26 261.513 334.62 261.233 334.82C260.973 335.02 260.543 335.12 259.943 335.12ZM273.638 336.86C275.058 336.86 276.158 337.16 276.938 337.76C277.718 338.34 278.258 339.13 278.558 340.13C278.878 341.11 279.038 342.21 279.038 343.43V351.47C279.038 351.91 278.888 352.28 278.588 352.58C278.308 352.86 277.958 353 277.538 353C277.098 353 276.738 352.86 276.458 352.58C276.178 352.28 276.038 351.91 276.038 351.47V343.46C276.038 342.74 275.938 342.1 275.738 341.54C275.538 340.96 275.188 340.5 274.688 340.16C274.208 339.8 273.528 339.62 272.648 339.62C271.828 339.62 271.108 339.8 270.488 340.16C269.868 340.5 269.378 340.96 269.018 341.54C268.678 342.1 268.508 342.74 268.508 343.46V351.47C268.508 351.91 268.358 352.28 268.058 352.58C267.778 352.86 267.428 353 267.008 353C266.568 353 266.208 352.86 265.928 352.58C265.648 352.28 265.508 351.91 265.508 351.47V338.75C265.508 338.31 265.648 337.95 265.928 337.67C266.208 337.37 266.568 337.22 267.008 337.22C267.428 337.22 267.778 337.37 268.058 337.67C268.358 337.95 268.508 338.31 268.508 338.75V340.43L267.968 340.73C268.108 340.29 268.348 339.85 268.688 339.41C269.048 338.95 269.478 338.53 269.978 338.15C270.478 337.75 271.038 337.44 271.658 337.22C272.278 336.98 272.938 336.86 273.638 336.86ZM284.944 353C284.524 353 284.164 352.86 283.864 352.58C283.584 352.28 283.444 351.91 283.444 351.47V332.33C283.444 331.89 283.584 331.53 283.864 331.25C284.164 330.95 284.524 330.8 284.944 330.8C285.384 330.8 285.744 330.95 286.024 331.25C286.304 331.53 286.444 331.89 286.444 332.33V351.47C286.444 351.91 286.304 352.28 286.024 352.58C285.744 352.86 285.384 353 284.944 353ZM294.724 337.16C295.104 337.16 295.434 337.32 295.714 337.64C295.994 337.96 296.134 338.28 296.134 338.6C296.134 339 295.944 339.37 295.564 339.71L286.174 348.11L286.054 344.66L293.614 337.64C293.934 337.32 294.304 337.16 294.724 337.16ZM295.084 352.97C294.664 352.97 294.304 352.8 294.004 352.46L288.004 346.13L290.284 344.03L296.134 350.36C296.454 350.7 296.614 351.08 296.614 351.5C296.614 351.94 296.434 352.3 296.074 352.58C295.734 352.84 295.404 352.97 295.084 352.97ZM315.452 353C314.972 353 314.582 352.86 314.282 352.58C314.002 352.28 313.862 351.91 313.862 351.47V333.5H317.072V351.47C317.072 351.91 316.912 352.28 316.592 352.58C316.292 352.86 315.912 353 315.452 353ZM308.642 334.88C308.222 334.88 307.862 334.75 307.562 334.49C307.262 334.21 307.112 333.85 307.112 333.41C307.112 332.99 307.262 332.65 307.562 332.39C307.862 332.13 308.222 332 308.642 332H322.292C322.712 332 323.062 332.14 323.342 332.42C323.642 332.68 323.792 333.02 323.792 333.44C323.792 333.88 323.642 334.23 323.342 334.49C323.062 334.75 322.712 334.88 322.292 334.88H308.642ZM329.676 351.47C329.676 351.91 329.536 352.28 329.256 352.58C328.976 352.86 328.616 353 328.176 353C327.756 353 327.396 352.86 327.096 352.58C326.816 352.28 326.676 351.91 326.676 351.47V338.63C326.676 338.19 326.816 337.83 327.096 337.55C327.396 337.25 327.756 337.1 328.176 337.1C328.616 337.1 328.976 337.25 329.256 337.55C329.536 337.83 329.676 338.19 329.676 338.63V351.47ZM328.146 335.12C327.566 335.12 327.146 335.02 326.886 334.82C326.626 334.6 326.496 334.24 326.496 333.74V333.26C326.496 332.76 326.636 332.41 326.916 332.21C327.196 332.01 327.616 331.91 328.176 331.91C328.776 331.91 329.206 332.02 329.466 332.24C329.726 332.44 329.856 332.78 329.856 333.26V333.74C329.856 334.26 329.716 334.62 329.436 334.82C329.176 335.02 328.746 335.12 328.146 335.12ZM336.951 351.47C336.951 351.91 336.801 352.28 336.501 352.58C336.221 352.86 335.871 353 335.451 353C335.031 353 334.671 352.86 334.371 352.58C334.091 352.28 333.951 351.91 333.951 351.47V332.33C333.951 331.89 334.101 331.53 334.401 331.25C334.701 330.95 335.061 330.8 335.481 330.8C335.921 330.8 336.271 330.95 336.531 331.25C336.811 331.53 336.951 331.89 336.951 332.33V351.47ZM351.716 332C352.116 332 352.466 332.15 352.766 332.45C353.086 332.73 353.246 333.09 353.246 333.53V351.47C353.226 351.91 353.056 352.28 352.736 352.58C352.436 352.86 352.076 353 351.656 353C351.196 353 350.816 352.86 350.516 352.58C350.236 352.28 350.096 351.91 350.096 351.47V333.53C350.096 333.09 350.246 332.73 350.546 332.45C350.846 332.15 351.236 332 351.716 332ZM365.246 332C365.726 332 366.106 332.15 366.386 332.45C366.666 332.73 366.806 333.09 366.806 333.53V351.47C366.806 351.91 366.656 352.28 366.356 352.58C366.076 352.86 365.696 353 365.216 353C364.796 353 364.436 352.86 364.136 352.58C363.836 352.28 363.686 351.91 363.686 351.47V333.53C363.686 333.09 363.836 332.73 364.136 332.45C364.456 332.15 364.826 332 365.246 332ZM351.596 340.94H365.276L365.246 343.82H351.566L351.596 340.94ZM374.749 353.66C374.749 354.74 374.529 355.67 374.089 356.45C373.649 357.23 373.069 357.83 372.349 358.25C371.629 358.67 370.859 358.88 370.039 358.88C369.619 358.88 369.279 358.74 369.019 358.46C368.759 358.2 368.629 357.88 368.629 357.5V357.23C368.629 356.87 368.759 356.58 369.019 356.36C369.259 356.14 369.559 355.97 369.919 355.85C370.379 355.71 370.739 355.5 370.999 355.22C371.279 354.96 371.469 354.62 371.569 354.2C371.689 353.8 371.749 353.36 371.749 352.88V338.72C371.749 338.3 371.889 337.95 372.169 337.67C372.449 337.37 372.809 337.22 373.249 337.22C373.689 337.22 374.049 337.37 374.329 337.67C374.609 337.95 374.749 338.3 374.749 338.72V353.66ZM373.189 335.12C372.609 335.12 372.189 335.02 371.929 334.82C371.669 334.6 371.539 334.24 371.539 333.74V333.26C371.539 332.76 371.679 332.41 371.959 332.21C372.239 332.01 372.659 331.91 373.219 331.91C373.819 331.91 374.249 332.02 374.509 332.24C374.769 332.44 374.899 332.78 374.899 333.26V333.74C374.899 334.26 374.759 334.62 374.479 334.82C374.219 335.02 373.789 335.12 373.189 335.12ZM386.882 353.3C385.222 353.3 383.782 352.96 382.562 352.28C381.342 351.58 380.392 350.63 379.712 349.43C379.052 348.21 378.722 346.82 378.722 345.26C378.722 343.5 379.072 342 379.772 340.76C380.492 339.5 381.422 338.54 382.562 337.88C383.702 337.2 384.912 336.86 386.192 336.86C387.172 336.86 388.102 337.06 388.982 337.46C389.862 337.84 390.642 338.38 391.322 339.08C392.022 339.76 392.572 340.57 392.972 341.51C393.372 342.43 393.582 343.44 393.602 344.54C393.582 344.94 393.422 345.27 393.122 345.53C392.822 345.79 392.472 345.92 392.072 345.92H380.402L379.682 343.37H390.962L390.392 343.91V343.16C390.352 342.46 390.122 341.85 389.702 341.33C389.282 340.79 388.762 340.38 388.142 340.1C387.522 339.8 386.872 339.65 386.192 339.65C385.592 339.65 385.012 339.75 384.452 339.95C383.912 340.13 383.422 340.43 382.982 340.85C382.562 341.27 382.222 341.83 381.962 342.53C381.722 343.21 381.602 344.06 381.602 345.08C381.602 346.18 381.832 347.14 382.292 347.96C382.752 348.78 383.372 349.42 384.152 349.88C384.932 350.32 385.792 350.54 386.732 350.54C387.472 350.54 388.082 350.47 388.562 350.33C389.042 350.17 389.442 349.98 389.762 349.76C390.082 349.54 390.362 349.33 390.602 349.13C390.902 348.95 391.202 348.86 391.502 348.86C391.862 348.86 392.162 348.99 392.402 349.25C392.642 349.49 392.762 349.78 392.762 350.12C392.762 350.56 392.542 350.96 392.102 351.32C391.562 351.84 390.812 352.3 389.852 352.7C388.912 353.1 387.922 353.3 386.882 353.3ZM404.913 336.95C406.393 336.95 407.533 337.32 408.333 338.06C409.133 338.78 409.663 339.76 409.923 341L409.443 340.85L409.653 340.37C409.913 339.85 410.303 339.33 410.823 338.81C411.363 338.27 412.003 337.83 412.743 337.49C413.483 337.13 414.273 336.95 415.113 336.95C416.493 336.95 417.563 337.25 418.323 337.85C419.083 338.43 419.613 339.22 419.913 340.22C420.213 341.2 420.363 342.3 420.363 343.52V351.47C420.363 351.91 420.223 352.28 419.943 352.58C419.663 352.86 419.303 353 418.863 353C418.443 353 418.083 352.86 417.783 352.58C417.503 352.28 417.363 351.91 417.363 351.47V343.55C417.363 342.85 417.263 342.21 417.063 341.63C416.883 341.05 416.553 340.59 416.073 340.25C415.613 339.89 414.973 339.71 414.153 339.71C413.373 339.71 412.673 339.89 412.053 340.25C411.453 340.59 410.983 341.05 410.643 341.63C410.303 342.21 410.133 342.85 410.133 343.55V351.47C410.133 351.91 409.993 352.28 409.713 352.58C409.433 352.86 409.073 353 408.633 353C408.193 353 407.833 352.86 407.553 352.58C407.273 352.28 407.133 351.91 407.133 351.47V343.52C407.133 342.82 407.033 342.18 406.833 341.6C406.653 341.02 406.333 340.56 405.873 340.22C405.413 339.88 404.773 339.71 403.953 339.71C403.173 339.71 402.483 339.88 401.883 340.22C401.283 340.56 400.813 341.02 400.473 341.6C400.153 342.18 399.993 342.82 399.993 343.52V351.47C399.993 351.91 399.843 352.28 399.543 352.58C399.263 352.86 398.913 353 398.493 353C398.053 353 397.693 352.86 397.413 352.58C397.133 352.28 396.993 351.91 396.993 351.47V338.75C396.993 338.31 397.133 337.95 397.413 337.67C397.693 337.37 398.053 337.22 398.493 337.22C398.913 337.22 399.263 337.37 399.543 337.67C399.843 337.95 399.993 338.31 399.993 338.75V340.52L399.423 340.85C399.563 340.41 399.793 339.96 400.113 339.5C400.433 339.04 400.833 338.62 401.313 338.24C401.813 337.86 402.363 337.55 402.963 337.31C403.563 337.07 404.213 336.95 404.913 336.95ZM432.481 336.95C433.961 336.95 435.101 337.32 435.901 338.06C436.701 338.78 437.231 339.76 437.491 341L437.011 340.85L437.221 340.37C437.481 339.85 437.871 339.33 438.391 338.81C438.931 338.27 439.571 337.83 440.311 337.49C441.051 337.13 441.841 336.95 442.681 336.95C444.061 336.95 445.131 337.25 445.891 337.85C446.651 338.43 447.181 339.22 447.481 340.22C447.781 341.2 447.931 342.3 447.931 343.52V351.47C447.931 351.91 447.791 352.28 447.511 352.58C447.231 352.86 446.871 353 446.431 353C446.011 353 445.651 352.86 445.351 352.58C445.071 352.28 444.931 351.91 444.931 351.47V343.55C444.931 342.85 444.831 342.21 444.631 341.63C444.451 341.05 444.121 340.59 443.641 340.25C443.181 339.89 442.541 339.71 441.721 339.71C440.941 339.71 440.241 339.89 439.621 340.25C439.021 340.59 438.551 341.05 438.211 341.63C437.871 342.21 437.701 342.85 437.701 343.55V351.47C437.701 351.91 437.561 352.28 437.281 352.58C437.001 352.86 436.641 353 436.201 353C435.761 353 435.401 352.86 435.121 352.58C434.841 352.28 434.701 351.91 434.701 351.47V343.52C434.701 342.82 434.601 342.18 434.401 341.6C434.221 341.02 433.901 340.56 433.441 340.22C432.981 339.88 432.341 339.71 431.521 339.71C430.741 339.71 430.051 339.88 429.451 340.22C428.851 340.56 428.381 341.02 428.041 341.6C427.721 342.18 427.561 342.82 427.561 343.52V351.47C427.561 351.91 427.411 352.28 427.111 352.58C426.831 352.86 426.481 353 426.061 353C425.621 353 425.261 352.86 424.981 352.58C424.701 352.28 424.561 351.91 424.561 351.47V338.75C424.561 338.31 424.701 337.95 424.981 337.67C425.261 337.37 425.621 337.22 426.061 337.22C426.481 337.22 426.831 337.37 427.111 337.67C427.411 337.95 427.561 338.31 427.561 338.75V340.52L426.991 340.85C427.131 340.41 427.361 339.96 427.681 339.5C428.001 339.04 428.401 338.62 428.881 338.24C429.381 337.86 429.931 337.55 430.531 337.31C431.131 337.07 431.781 336.95 432.481 336.95ZM459.479 353.3C457.819 353.3 456.379 352.96 455.159 352.28C453.939 351.58 452.989 350.63 452.309 349.43C451.649 348.21 451.319 346.82 451.319 345.26C451.319 343.5 451.669 342 452.369 340.76C453.089 339.5 454.019 338.54 455.159 337.88C456.299 337.2 457.509 336.86 458.789 336.86C459.769 336.86 460.699 337.06 461.579 337.46C462.459 337.84 463.239 338.38 463.919 339.08C464.619 339.76 465.169 340.57 465.569 341.51C465.969 342.43 466.179 343.44 466.199 344.54C466.179 344.94 466.019 345.27 465.719 345.53C465.419 345.79 465.069 345.92 464.669 345.92H452.999L452.279 343.37H463.559L462.989 343.91V343.16C462.949 342.46 462.719 341.85 462.299 341.33C461.879 340.79 461.359 340.38 460.739 340.1C460.119 339.8 459.469 339.65 458.789 339.65C458.189 339.65 457.609 339.75 457.049 339.95C456.509 340.13 456.019 340.43 455.579 340.85C455.159 341.27 454.819 341.83 454.559 342.53C454.319 343.21 454.199 344.06 454.199 345.08C454.199 346.18 454.429 347.14 454.889 347.96C455.349 348.78 455.969 349.42 456.749 349.88C457.529 350.32 458.389 350.54 459.329 350.54C460.069 350.54 460.679 350.47 461.159 350.33C461.639 350.17 462.039 349.98 462.359 349.76C462.679 349.54 462.959 349.33 463.199 349.13C463.499 348.95 463.799 348.86 464.099 348.86C464.459 348.86 464.759 348.99 464.999 349.25C465.239 349.49 465.359 349.78 465.359 350.12C465.359 350.56 465.139 350.96 464.699 351.32C464.159 351.84 463.409 352.3 462.449 352.7C461.509 353.1 460.519 353.3 459.479 353.3ZM468.66 350.54C468.48 350.26 468.4 349.94 468.42 349.58C468.44 349.2 468.65 348.88 469.05 348.62C469.33 348.44 469.62 348.37 469.92 348.41C470.24 348.43 470.54 348.58 470.82 348.86C471.38 349.48 472 349.97 472.68 350.33C473.38 350.69 474.22 350.87 475.2 350.87C475.6 350.85 476.01 350.79 476.43 350.69C476.85 350.57 477.21 350.37 477.51 350.09C477.81 349.79 477.96 349.36 477.96 348.8C477.96 348.3 477.8 347.9 477.48 347.6C477.16 347.3 476.74 347.06 476.22 346.88C475.7 346.68 475.14 346.5 474.54 346.34C473.9 346.16 473.25 345.96 472.59 345.74C471.95 345.52 471.37 345.24 470.85 344.9C470.33 344.54 469.9 344.08 469.56 343.52C469.24 342.96 469.08 342.27 469.08 341.45C469.08 340.51 469.34 339.7 469.86 339.02C470.4 338.34 471.09 337.81 471.93 337.43C472.79 337.05 473.72 336.86 474.72 336.86C475.3 336.86 475.91 336.94 476.55 337.1C477.19 337.24 477.81 337.47 478.41 337.79C479.01 338.11 479.53 338.53 479.97 339.05C480.17 339.31 480.28 339.62 480.3 339.98C480.34 340.34 480.18 340.66 479.82 340.94C479.58 341.14 479.29 341.23 478.95 341.21C478.61 341.19 478.33 341.08 478.11 340.88C477.73 340.4 477.24 340.03 476.64 339.77C476.04 339.49 475.36 339.35 474.6 339.35C474.22 339.35 473.82 339.41 473.4 339.53C473 339.63 472.66 339.82 472.38 340.1C472.1 340.38 471.96 340.79 471.96 341.33C471.96 341.83 472.12 342.23 472.44 342.53C472.78 342.83 473.22 343.08 473.76 343.28C474.3 343.48 474.89 343.66 475.53 343.82C476.15 343.98 476.76 344.17 477.36 344.39C477.98 344.61 478.53 344.9 479.01 345.26C479.51 345.6 479.91 346.05 480.21 346.61C480.53 347.15 480.69 347.84 480.69 348.68C480.69 349.66 480.4 350.5 479.82 351.2C479.26 351.88 478.54 352.4 477.66 352.76C476.8 353.12 475.89 353.3 474.93 353.3C473.79 353.3 472.65 353.1 471.51 352.7C470.39 352.28 469.44 351.56 468.66 350.54ZM486.736 351.47C486.736 351.91 486.596 352.28 486.316 352.58C486.036 352.86 485.676 353 485.236 353C484.816 353 484.456 352.86 484.156 352.58C483.876 352.28 483.736 351.91 483.736 351.47V338.63C483.736 338.19 483.876 337.83 484.156 337.55C484.456 337.25 484.816 337.1 485.236 337.1C485.676 337.1 486.036 337.25 486.316 337.55C486.596 337.83 486.736 338.19 486.736 338.63V351.47ZM485.206 335.12C484.626 335.12 484.206 335.02 483.946 334.82C483.686 334.6 483.556 334.24 483.556 333.74V333.26C483.556 332.76 483.696 332.41 483.976 332.21C484.256 332.01 484.676 331.91 485.236 331.91C485.836 331.91 486.266 332.02 486.526 332.24C486.786 332.44 486.916 332.78 486.916 333.26V333.74C486.916 334.26 486.776 334.62 486.496 334.82C486.236 335.02 485.806 335.12 485.206 335.12ZM503.702 330.8C504.142 330.8 504.502 330.94 504.782 331.22C505.062 331.5 505.202 331.87 505.202 332.33V351.47C505.202 351.91 505.062 352.28 504.782 352.58C504.502 352.86 504.142 353 503.702 353C503.282 353 502.922 352.86 502.622 352.58C502.342 352.28 502.202 351.91 502.202 351.47V349.31L502.832 349.34C502.832 349.7 502.682 350.11 502.382 350.57C502.102 351.01 501.712 351.44 501.212 351.86C500.712 352.28 500.122 352.63 499.442 352.91C498.762 353.17 498.032 353.3 497.252 353.3C495.872 353.3 494.632 352.95 493.532 352.25C492.432 351.53 491.562 350.56 490.922 349.34C490.282 348.1 489.962 346.68 489.962 345.08C489.962 343.48 490.282 342.07 490.922 340.85C491.562 339.61 492.422 338.64 493.502 337.94C494.602 337.22 495.822 336.86 497.162 336.86C498.002 336.86 498.782 337 499.502 337.28C500.242 337.56 500.882 337.92 501.422 338.36C501.962 338.8 502.382 339.27 502.682 339.77C502.982 340.25 503.132 340.71 503.132 341.15L502.202 341.24V332.33C502.202 331.89 502.342 331.53 502.622 331.25C502.922 330.95 503.282 330.8 503.702 330.8ZM497.582 350.54C498.542 350.54 499.372 350.3 500.072 349.82C500.792 349.34 501.352 348.69 501.752 347.87C502.152 347.05 502.352 346.12 502.352 345.08C502.352 344.04 502.152 343.11 501.752 342.29C501.352 341.47 500.792 340.82 500.072 340.34C499.352 339.86 498.522 339.62 497.582 339.62C496.662 339.62 495.842 339.86 495.122 340.34C494.422 340.82 493.862 341.47 493.442 342.29C493.042 343.11 492.842 344.04 492.842 345.08C492.842 346.12 493.042 347.05 493.442 347.87C493.862 348.69 494.422 349.34 495.122 349.82C495.842 350.3 496.662 350.54 497.582 350.54ZM516.755 353.3C515.095 353.3 513.655 352.96 512.435 352.28C511.215 351.58 510.265 350.63 509.585 349.43C508.925 348.21 508.595 346.82 508.595 345.26C508.595 343.5 508.945 342 509.645 340.76C510.365 339.5 511.295 338.54 512.435 337.88C513.575 337.2 514.785 336.86 516.065 336.86C517.045 336.86 517.975 337.06 518.855 337.46C519.735 337.84 520.515 338.38 521.195 339.08C521.895 339.76 522.445 340.57 522.845 341.51C523.245 342.43 523.455 343.44 523.475 344.54C523.455 344.94 523.295 345.27 522.995 345.53C522.695 345.79 522.345 345.92 521.945 345.92H510.275L509.555 343.37H520.835L520.265 343.91V343.16C520.225 342.46 519.995 341.85 519.575 341.33C519.155 340.79 518.635 340.38 518.015 340.1C517.395 339.8 516.745 339.65 516.065 339.65C515.465 339.65 514.885 339.75 514.325 339.95C513.785 340.13 513.295 340.43 512.855 340.85C512.435 341.27 512.095 341.83 511.835 342.53C511.595 343.21 511.475 344.06 511.475 345.08C511.475 346.18 511.705 347.14 512.165 347.96C512.625 348.78 513.245 349.42 514.025 349.88C514.805 350.32 515.665 350.54 516.605 350.54C517.345 350.54 517.955 350.47 518.435 350.33C518.915 350.17 519.315 349.98 519.635 349.76C519.955 349.54 520.235 349.33 520.475 349.13C520.775 348.95 521.075 348.86 521.375 348.86C521.735 348.86 522.035 348.99 522.275 349.25C522.515 349.49 522.635 349.78 522.635 350.12C522.635 350.56 522.415 350.96 521.975 351.32C521.435 351.84 520.685 352.3 519.725 352.7C518.785 353.1 517.795 353.3 516.755 353.3ZM542.385 353C541.905 353 541.515 352.86 541.215 352.58C540.935 352.28 540.795 351.91 540.795 351.47V333.5H544.005V351.47C544.005 351.91 543.845 352.28 543.525 352.58C543.225 352.86 542.845 353 542.385 353ZM535.575 334.88C535.155 334.88 534.795 334.75 534.495 334.49C534.195 334.21 534.045 333.85 534.045 333.41C534.045 332.99 534.195 332.65 534.495 332.39C534.795 332.13 535.155 332 535.575 332H549.225C549.645 332 549.995 332.14 550.275 332.42C550.575 332.68 550.725 333.02 550.725 333.44C550.725 333.88 550.575 334.23 550.275 334.49C549.995 334.75 549.645 334.88 549.225 334.88H535.575ZM557.536 353.3C555.876 353.3 554.436 352.96 553.216 352.28C551.996 351.58 551.046 350.63 550.366 349.43C549.706 348.21 549.376 346.82 549.376 345.26C549.376 343.5 549.726 342 550.426 340.76C551.146 339.5 552.076 338.54 553.216 337.88C554.356 337.2 555.566 336.86 556.846 336.86C557.826 336.86 558.756 337.06 559.636 337.46C560.516 337.84 561.296 338.38 561.976 339.08C562.676 339.76 563.226 340.57 563.626 341.51C564.026 342.43 564.236 343.44 564.256 344.54C564.236 344.94 564.076 345.27 563.776 345.53C563.476 345.79 563.126 345.92 562.726 345.92H551.056L550.336 343.37H561.616L561.046 343.91V343.16C561.006 342.46 560.776 341.85 560.356 341.33C559.936 340.79 559.416 340.38 558.796 340.1C558.176 339.8 557.526 339.65 556.846 339.65C556.246 339.65 555.666 339.75 555.106 339.95C554.566 340.13 554.076 340.43 553.636 340.85C553.216 341.27 552.876 341.83 552.616 342.53C552.376 343.21 552.256 344.06 552.256 345.08C552.256 346.18 552.486 347.14 552.946 347.96C553.406 348.78 554.026 349.42 554.806 349.88C555.586 350.32 556.446 350.54 557.386 350.54C558.126 350.54 558.736 350.47 559.216 350.33C559.696 350.17 560.096 349.98 560.416 349.76C560.736 349.54 561.016 349.33 561.256 349.13C561.556 348.95 561.856 348.86 562.156 348.86C562.516 348.86 562.816 348.99 563.056 349.25C563.296 349.49 563.416 349.78 563.416 350.12C563.416 350.56 563.196 350.96 562.756 351.32C562.216 351.84 561.466 352.3 560.506 352.7C559.566 353.1 558.576 353.3 557.536 353.3ZM575.567 336.95C577.047 336.95 578.187 337.32 578.987 338.06C579.787 338.78 580.317 339.76 580.577 341L580.097 340.85L580.307 340.37C580.567 339.85 580.957 339.33 581.477 338.81C582.017 338.27 582.657 337.83 583.397 337.49C584.137 337.13 584.927 336.95 585.767 336.95C587.147 336.95 588.217 337.25 588.977 337.85C589.737 338.43 590.267 339.22 590.567 340.22C590.867 341.2 591.017 342.3 591.017 343.52V351.47C591.017 351.91 590.877 352.28 590.597 352.58C590.317 352.86 589.957 353 589.517 353C589.097 353 588.737 352.86 588.437 352.58C588.157 352.28 588.017 351.91 588.017 351.47V343.55C588.017 342.85 587.917 342.21 587.717 341.63C587.537 341.05 587.207 340.59 586.727 340.25C586.267 339.89 585.627 339.71 584.807 339.71C584.027 339.71 583.327 339.89 582.707 340.25C582.107 340.59 581.637 341.05 581.297 341.63C580.957 342.21 580.787 342.85 580.787 343.55V351.47C580.787 351.91 580.647 352.28 580.367 352.58C580.087 352.86 579.727 353 579.287 353C578.847 353 578.487 352.86 578.207 352.58C577.927 352.28 577.787 351.91 577.787 351.47V343.52C577.787 342.82 577.687 342.18 577.487 341.6C577.307 341.02 576.987 340.56 576.527 340.22C576.067 339.88 575.427 339.71 574.607 339.71C573.827 339.71 573.137 339.88 572.537 340.22C571.937 340.56 571.467 341.02 571.127 341.6C570.807 342.18 570.647 342.82 570.647 343.52V351.47C570.647 351.91 570.497 352.28 570.197 352.58C569.917 352.86 569.567 353 569.147 353C568.707 353 568.347 352.86 568.067 352.58C567.787 352.28 567.647 351.91 567.647 351.47V338.75C567.647 338.31 567.787 337.95 568.067 337.67C568.347 337.37 568.707 337.22 569.147 337.22C569.567 337.22 569.917 337.37 570.197 337.67C570.497 337.95 570.647 338.31 570.647 338.75V340.52L570.077 340.85C570.217 340.41 570.447 339.96 570.767 339.5C571.087 339.04 571.487 338.62 571.967 338.24C572.467 337.86 573.017 337.55 573.617 337.31C574.217 337.07 574.867 336.95 575.567 336.95ZM608.145 336.98C608.585 336.98 608.945 337.13 609.225 337.43C609.505 337.71 609.645 338.07 609.645 338.51V351.47C609.645 351.91 609.505 352.28 609.225 352.58C608.945 352.86 608.585 353 608.145 353C607.725 353 607.365 352.86 607.065 352.58C606.785 352.28 606.645 351.91 606.645 351.47V349.31L607.275 349.4C607.275 349.76 607.125 350.16 606.825 350.6C606.545 351.04 606.155 351.47 605.655 351.89C605.155 352.29 604.565 352.63 603.885 352.91C603.205 353.17 602.475 353.3 601.695 353.3C600.315 353.3 599.075 352.95 597.975 352.25C596.875 351.53 596.005 350.55 595.365 349.31C594.725 348.07 594.405 346.66 594.405 345.08C594.405 343.46 594.725 342.04 595.365 340.82C596.005 339.58 596.865 338.61 597.945 337.91C599.045 337.21 600.265 336.86 601.605 336.86C602.465 336.86 603.255 337 603.975 337.28C604.715 337.56 605.355 337.92 605.895 338.36C606.435 338.8 606.845 339.27 607.125 339.77C607.425 340.25 607.575 340.71 607.575 341.15L606.645 341.24V338.51C606.645 338.09 606.785 337.73 607.065 337.43C607.365 337.13 607.725 336.98 608.145 336.98ZM602.025 350.54C602.965 350.54 603.795 350.3 604.515 349.82C605.235 349.34 605.795 348.69 606.195 347.87C606.595 347.03 606.795 346.1 606.795 345.08C606.795 344.04 606.595 343.11 606.195 342.29C605.795 341.47 605.235 340.82 604.515 340.34C603.795 339.86 602.965 339.62 602.025 339.62C601.105 339.62 600.285 339.86 599.565 340.34C598.865 340.82 598.305 341.47 597.885 342.29C597.485 343.11 597.285 344.04 597.285 345.08C597.285 346.1 597.485 347.03 597.885 347.87C598.305 348.69 598.865 349.34 599.565 349.82C600.285 350.3 601.105 350.54 602.025 350.54ZM623.218 349.16C623.378 349.16 623.548 349.19 623.728 349.25C623.908 349.29 624.108 349.39 624.328 349.55C624.688 349.87 625.118 350.14 625.618 350.36C626.138 350.56 626.728 350.66 627.388 350.66C628.128 350.66 628.818 350.49 629.458 350.15C630.098 349.79 630.618 349.29 631.018 348.65C631.418 348.01 631.618 347.25 631.618 346.37C631.618 345.47 631.428 344.74 631.048 344.18C630.668 343.6 630.178 343.17 629.578 342.89C628.978 342.59 628.348 342.44 627.688 342.44C627.308 342.44 626.988 342.48 626.728 342.56C626.468 342.62 626.218 342.69 625.978 342.77C625.738 342.83 625.478 342.86 625.198 342.86C624.818 342.86 624.518 342.73 624.298 342.47C624.078 342.19 623.968 341.86 623.968 341.48C623.968 341.24 624.018 341.03 624.118 340.85C624.218 340.67 624.358 340.47 624.538 340.25L630.088 334.31L630.748 334.91H622.798C622.398 334.91 622.058 334.78 621.778 334.52C621.518 334.24 621.388 333.9 621.388 333.5C621.388 333.12 621.518 332.8 621.778 332.54C622.058 332.28 622.398 332.15 622.798 332.15H632.278C632.798 332.15 633.178 332.3 633.418 332.6C633.678 332.9 633.808 333.25 633.808 333.65C633.808 333.87 633.748 334.08 633.628 334.28C633.528 334.48 633.398 334.67 633.238 334.85L627.658 340.85L626.908 340.04C627.068 339.96 627.338 339.88 627.718 339.8C628.098 339.72 628.408 339.68 628.648 339.68C629.788 339.68 630.808 339.97 631.708 340.55C632.628 341.13 633.338 341.91 633.838 342.89C634.358 343.85 634.618 344.94 634.618 346.16C634.618 347.62 634.288 348.89 633.628 349.97C632.968 351.03 632.048 351.85 630.868 352.43C629.708 353.01 628.368 353.3 626.848 353.3C626.088 353.3 625.328 353.2 624.568 353C623.828 352.78 623.188 352.47 622.648 352.07C622.308 351.87 622.078 351.66 621.958 351.44C621.838 351.2 621.778 350.97 621.778 350.75C621.778 350.37 621.908 350.01 622.168 349.67C622.448 349.33 622.798 349.16 623.218 349.16ZM639.604 341C639.104 341 638.714 340.87 638.434 340.61C638.174 340.33 638.044 339.94 638.044 339.44V338.87C638.044 338.37 638.174 337.98 638.434 337.7C638.714 337.42 639.104 337.28 639.604 337.28H639.934C640.434 337.28 640.814 337.42 641.074 337.7C641.334 337.98 641.464 338.37 641.464 338.87V339.44C641.464 339.94 641.334 340.33 641.074 340.61C640.814 340.87 640.434 341 639.934 341H639.604ZM639.604 353C639.104 353 638.714 352.86 638.434 352.58C638.174 352.3 638.044 351.91 638.044 351.41V350.87C638.044 350.35 638.174 349.96 638.434 349.7C638.714 349.42 639.104 349.28 639.604 349.28H639.934C640.434 349.28 640.814 349.42 641.074 349.7C641.334 349.96 641.464 350.35 641.464 350.87V351.41C641.464 351.91 641.334 352.3 641.074 352.58C640.814 352.86 640.434 353 639.934 353H639.604ZM655.818 332C656.218 332 656.568 332.15 656.868 332.45C657.188 332.73 657.348 333.09 657.348 333.53V351.47C657.328 351.91 657.158 352.28 656.838 352.58C656.538 352.86 656.178 353 655.758 353C655.298 353 654.918 352.86 654.618 352.58C654.338 352.28 654.198 351.91 654.198 351.47V333.53C654.198 333.09 654.348 332.73 654.648 332.45C654.948 332.15 655.338 332 655.818 332ZM669.348 332C669.828 332 670.208 332.15 670.488 332.45C670.768 332.73 670.908 333.09 670.908 333.53V351.47C670.908 351.91 670.758 352.28 670.458 352.58C670.178 352.86 669.798 353 669.318 353C668.898 353 668.538 352.86 668.238 352.58C667.938 352.28 667.788 351.91 667.788 351.47V333.53C667.788 333.09 667.938 332.73 668.238 332.45C668.558 332.15 668.928 332 669.348 332ZM655.698 340.94H669.378L669.348 343.82H655.668L655.698 340.94ZM675.22 337.4H682.27C682.67 337.4 683 337.54 683.26 337.82C683.54 338.08 683.68 338.41 683.68 338.81C683.68 339.19 683.54 339.51 683.26 339.77C683 340.03 682.67 340.16 682.27 340.16H675.22C674.82 340.16 674.48 340.03 674.2 339.77C673.94 339.49 673.81 339.16 673.81 338.78C673.81 338.38 673.94 338.05 674.2 337.79C674.48 337.53 674.82 337.4 675.22 337.4ZM678.37 333.5C678.81 333.5 679.17 333.65 679.45 333.95C679.73 334.23 679.87 334.59 679.87 335.03V348.95C679.87 349.31 679.93 349.6 680.05 349.82C680.17 350.04 680.33 350.19 680.53 350.27C680.75 350.35 680.97 350.39 681.19 350.39C681.41 350.39 681.6 350.35 681.76 350.27C681.94 350.19 682.15 350.15 682.39 350.15C682.63 350.15 682.85 350.26 683.05 350.48C683.25 350.7 683.35 351 683.35 351.38C683.35 351.86 683.09 352.25 682.57 352.55C682.05 352.85 681.49 353 680.89 353C680.55 353 680.15 352.97 679.69 352.91C679.23 352.85 678.78 352.7 678.34 352.46C677.92 352.22 677.57 351.84 677.29 351.32C677.01 350.78 676.87 350.03 676.87 349.07V335.03C676.87 334.59 677.01 334.23 677.29 333.95C677.59 333.65 677.95 333.5 678.37 333.5ZM686.792 337.4H693.842C694.242 337.4 694.572 337.54 694.832 337.82C695.112 338.08 695.252 338.41 695.252 338.81C695.252 339.19 695.112 339.51 694.832 339.77C694.572 340.03 694.242 340.16 693.842 340.16H686.792C686.392 340.16 686.052 340.03 685.772 339.77C685.512 339.49 685.382 339.16 685.382 338.78C685.382 338.38 685.512 338.05 685.772 337.79C686.052 337.53 686.392 337.4 686.792 337.4ZM689.942 333.5C690.382 333.5 690.742 333.65 691.022 333.95C691.302 334.23 691.442 334.59 691.442 335.03V348.95C691.442 349.31 691.502 349.6 691.622 349.82C691.742 350.04 691.902 350.19 692.102 350.27C692.322 350.35 692.542 350.39 692.762 350.39C692.982 350.39 693.172 350.35 693.332 350.27C693.512 350.19 693.722 350.15 693.962 350.15C694.202 350.15 694.422 350.26 694.622 350.48C694.822 350.7 694.922 351 694.922 351.38C694.922 351.86 694.662 352.25 694.142 352.55C693.622 352.85 693.062 353 692.462 353C692.122 353 691.722 352.97 691.262 352.91C690.802 352.85 690.352 352.7 689.912 352.46C689.492 352.22 689.142 351.84 688.862 351.32C688.582 350.78 688.442 350.03 688.442 349.07V335.03C688.442 334.59 688.582 334.23 688.862 333.95C689.162 333.65 689.522 333.5 689.942 333.5ZM706.525 336.95C707.925 336.95 709.165 337.3 710.245 338C711.345 338.7 712.215 339.66 712.855 340.88C713.495 342.08 713.815 343.48 713.815 345.08C713.815 346.68 713.495 348.1 712.855 349.34C712.215 350.56 711.355 351.52 710.275 352.22C709.195 352.92 707.975 353.27 706.615 353.27C705.855 353.27 705.135 353.15 704.455 352.91C703.775 352.67 703.175 352.36 702.655 351.98C702.135 351.58 701.705 351.16 701.365 350.72C701.045 350.28 700.845 349.87 700.765 349.49L701.575 349.1V357.47C701.575 357.91 701.425 358.27 701.125 358.55C700.845 358.85 700.495 359 700.075 359C699.635 359 699.275 358.85 698.995 358.55C698.715 358.27 698.575 357.91 698.575 357.47V338.69C698.575 338.27 698.715 337.91 698.995 337.61C699.275 337.31 699.635 337.16 700.075 337.16C700.495 337.16 700.845 337.31 701.125 337.61C701.425 337.91 701.575 338.27 701.575 338.69V340.76L701.095 340.49C701.155 340.11 701.345 339.72 701.665 339.32C701.985 338.9 702.385 338.51 702.865 338.15C703.365 337.79 703.925 337.5 704.545 337.28C705.185 337.06 705.845 336.95 706.525 336.95ZM706.195 339.71C705.235 339.71 704.395 339.95 703.675 340.43C702.975 340.89 702.425 341.52 702.025 342.32C701.625 343.12 701.425 344.04 701.425 345.08C701.425 346.1 701.625 347.03 702.025 347.87C702.425 348.69 702.975 349.34 703.675 349.82C704.395 350.28 705.235 350.51 706.195 350.51C707.135 350.51 707.955 350.28 708.655 349.82C709.355 349.34 709.905 348.69 710.305 347.87C710.725 347.03 710.935 346.1 710.935 345.08C710.935 344.06 710.725 343.15 710.305 342.35C709.905 341.53 709.355 340.89 708.655 340.43C707.955 339.95 707.135 339.71 706.195 339.71ZM716.277 350.54C716.097 350.26 716.017 349.94 716.037 349.58C716.057 349.2 716.267 348.88 716.667 348.62C716.947 348.44 717.237 348.37 717.537 348.41C717.857 348.43 718.157 348.58 718.437 348.86C718.997 349.48 719.617 349.97 720.297 350.33C720.997 350.69 721.837 350.87 722.817 350.87C723.217 350.85 723.627 350.79 724.047 350.69C724.467 350.57 724.827 350.37 725.127 350.09C725.427 349.79 725.577 349.36 725.577 348.8C725.577 348.3 725.417 347.9 725.097 347.6C724.777 347.3 724.357 347.06 723.837 346.88C723.317 346.68 722.757 346.5 722.157 346.34C721.517 346.16 720.867 345.96 720.207 345.74C719.567 345.52 718.987 345.24 718.467 344.9C717.947 344.54 717.517 344.08 717.177 343.52C716.857 342.96 716.697 342.27 716.697 341.45C716.697 340.51 716.957 339.7 717.477 339.02C718.017 338.34 718.707 337.81 719.547 337.43C720.407 337.05 721.337 336.86 722.337 336.86C722.917 336.86 723.527 336.94 724.167 337.1C724.807 337.24 725.427 337.47 726.027 337.79C726.627 338.11 727.147 338.53 727.587 339.05C727.787 339.31 727.897 339.62 727.917 339.98C727.957 340.34 727.797 340.66 727.437 340.94C727.197 341.14 726.907 341.23 726.567 341.21C726.227 341.19 725.947 341.08 725.727 340.88C725.347 340.4 724.857 340.03 724.257 339.77C723.657 339.49 722.977 339.35 722.217 339.35C721.837 339.35 721.437 339.41 721.017 339.53C720.617 339.63 720.277 339.82 719.997 340.1C719.717 340.38 719.577 340.79 719.577 341.33C719.577 341.83 719.737 342.23 720.057 342.53C720.397 342.83 720.837 343.08 721.377 343.28C721.917 343.48 722.507 343.66 723.147 343.82C723.767 343.98 724.377 344.17 724.977 344.39C725.597 344.61 726.147 344.9 726.627 345.26C727.127 345.6 727.527 346.05 727.827 346.61C728.147 347.15 728.307 347.84 728.307 348.68C728.307 349.66 728.017 350.5 727.437 351.2C726.877 351.88 726.157 352.4 725.277 352.76C724.417 353.12 723.507 353.3 722.547 353.3C721.407 353.3 720.267 353.1 719.127 352.7C718.007 352.28 717.057 351.56 716.277 350.54ZM732.944 341C732.444 341 732.054 340.87 731.774 340.61C731.514 340.33 731.384 339.94 731.384 339.44V338.87C731.384 338.37 731.514 337.98 731.774 337.7C732.054 337.42 732.444 337.28 732.944 337.28H733.274C733.774 337.28 734.154 337.42 734.414 337.7C734.674 337.98 734.804 338.37 734.804 338.87V339.44C734.804 339.94 734.674 340.33 734.414 340.61C734.154 340.87 733.774 341 733.274 341H732.944ZM732.944 353C732.444 353 732.054 352.86 731.774 352.58C731.514 352.3 731.384 351.91 731.384 351.41V350.87C731.384 350.35 731.514 349.96 731.774 349.7C732.054 349.42 732.444 349.28 732.944 349.28H733.274C733.774 349.28 734.154 349.42 734.414 349.7C734.674 349.96 734.804 350.35 734.804 350.87V351.41C734.804 351.91 734.674 352.3 734.414 352.58C734.154 352.86 733.774 353 733.274 353H732.944ZM738.798 356.96C738.498 356.96 738.198 356.84 737.898 356.6C737.598 356.36 737.448 356.06 737.448 355.7C737.448 355.48 737.508 355.27 737.628 355.07L750.078 329.84C750.218 329.56 750.388 329.35 750.588 329.21C750.808 329.07 751.048 329 751.308 329C751.588 329 751.868 329.11 752.148 329.33C752.448 329.55 752.598 329.86 752.598 330.26C752.598 330.48 752.548 330.7 752.448 330.92L739.998 356.15C739.858 356.41 739.688 356.61 739.488 356.75C739.288 356.89 739.058 356.96 738.798 356.96ZM752.626 356.96C752.326 356.96 752.026 356.84 751.726 356.6C751.426 356.36 751.276 356.06 751.276 355.7C751.276 355.48 751.336 355.27 751.456 355.07L763.906 329.84C764.046 329.56 764.216 329.35 764.416 329.21C764.636 329.07 764.876 329 765.136 329C765.416 329 765.696 329.11 765.976 329.33C766.276 329.55 766.426 329.86 766.426 330.26C766.426 330.48 766.376 330.7 766.276 330.92L753.826 356.15C753.686 356.41 753.516 356.61 753.316 356.75C753.116 356.89 752.886 356.96 752.626 356.96ZM771.158 331.97C771.398 331.97 771.648 332.03 771.908 332.15C772.168 332.27 772.368 332.44 772.508 332.66L780.128 344.27L778.838 344.21L786.608 332.66C786.928 332.2 787.338 331.97 787.838 331.97C788.238 331.97 788.588 332.12 788.888 332.42C789.208 332.7 789.368 333.06 789.368 333.5V351.47C789.368 351.91 789.228 352.28 788.948 352.58C788.668 352.86 788.298 353 787.838 353C787.358 353 786.968 352.86 786.668 352.58C786.388 352.28 786.248 351.91 786.248 351.47V336.26L787.208 336.47L780.608 346.52C780.468 346.7 780.288 346.86 780.068 347C779.848 347.12 779.618 347.17 779.378 347.15C779.158 347.17 778.928 347.12 778.688 347C778.468 346.86 778.288 346.7 778.148 346.52L771.788 336.62L772.508 335.42V351.47C772.508 351.91 772.368 352.28 772.088 352.58C771.828 352.86 771.478 353 771.038 353C770.618 353 770.268 352.86 769.988 352.58C769.728 352.28 769.598 351.91 769.598 351.47V333.5C769.598 333.08 769.748 332.72 770.048 332.42C770.368 332.12 770.738 331.97 771.158 331.97ZM796.756 351.47C796.756 351.91 796.616 352.28 796.336 352.58C796.056 352.86 795.696 353 795.256 353C794.836 353 794.476 352.86 794.176 352.58C793.896 352.28 793.756 351.91 793.756 351.47V338.63C793.756 338.19 793.896 337.83 794.176 337.55C794.476 337.25 794.836 337.1 795.256 337.1C795.696 337.1 796.056 337.25 796.336 337.55C796.616 337.83 796.756 338.19 796.756 338.63V351.47ZM795.226 335.12C794.646 335.12 794.226 335.02 793.966 334.82C793.706 334.6 793.576 334.24 793.576 333.74V333.26C793.576 332.76 793.716 332.41 793.996 332.21C794.276 332.01 794.696 331.91 795.256 331.91C795.856 331.91 796.286 332.02 796.546 332.24C796.806 332.44 796.936 332.78 796.936 333.26V333.74C796.936 334.26 796.796 334.62 796.516 334.82C796.256 335.02 795.826 335.12 795.226 335.12ZM804.031 351.47C804.031 351.91 803.881 352.28 803.581 352.58C803.301 352.86 802.951 353 802.531 353C802.111 353 801.751 352.86 801.451 352.58C801.171 352.28 801.031 351.91 801.031 351.47V332.33C801.031 331.89 801.181 331.53 801.481 331.25C801.781 330.95 802.141 330.8 802.561 330.8C803.001 330.8 803.351 330.95 803.611 331.25C803.891 331.53 804.031 331.89 804.031 332.33V351.47ZM815.554 353.3C813.894 353.3 812.454 352.96 811.234 352.28C810.014 351.58 809.064 350.63 808.384 349.43C807.724 348.21 807.394 346.82 807.394 345.26C807.394 343.5 807.744 342 808.444 340.76C809.164 339.5 810.094 338.54 811.234 337.88C812.374 337.2 813.584 336.86 814.864 336.86C815.844 336.86 816.774 337.06 817.654 337.46C818.534 337.84 819.314 338.38 819.994 339.08C820.694 339.76 821.244 340.57 821.644 341.51C822.044 342.43 822.254 343.44 822.274 344.54C822.254 344.94 822.094 345.27 821.794 345.53C821.494 345.79 821.144 345.92 820.744 345.92H809.074L808.354 343.37H819.634L819.064 343.91V343.16C819.024 342.46 818.794 341.85 818.374 341.33C817.954 340.79 817.434 340.38 816.814 340.1C816.194 339.8 815.544 339.65 814.864 339.65C814.264 339.65 813.684 339.75 813.124 339.95C812.584 340.13 812.094 340.43 811.654 340.85C811.234 341.27 810.894 341.83 810.634 342.53C810.394 343.21 810.274 344.06 810.274 345.08C810.274 346.18 810.504 347.14 810.964 347.96C811.424 348.78 812.044 349.42 812.824 349.88C813.604 350.32 814.464 350.54 815.404 350.54C816.144 350.54 816.754 350.47 817.234 350.33C817.714 350.17 818.114 349.98 818.434 349.76C818.754 349.54 819.034 349.33 819.274 349.13C819.574 348.95 819.874 348.86 820.174 348.86C820.534 348.86 820.834 348.99 821.074 349.25C821.314 349.49 821.434 349.78 821.434 350.12C821.434 350.56 821.214 350.96 820.774 351.32C820.234 351.84 819.484 352.3 818.524 352.7C817.584 353.1 816.594 353.3 815.554 353.3ZM833.794 336.86C835.214 336.86 836.314 337.16 837.094 337.76C837.874 338.34 838.414 339.13 838.714 340.13C839.034 341.11 839.194 342.21 839.194 343.43V351.47C839.194 351.91 839.044 352.28 838.744 352.58C838.464 352.86 838.114 353 837.694 353C837.254 353 836.894 352.86 836.614 352.58C836.334 352.28 836.194 351.91 836.194 351.47V343.46C836.194 342.74 836.094 342.1 835.894 341.54C835.694 340.96 835.344 340.5 834.844 340.16C834.364 339.8 833.684 339.62 832.804 339.62C831.984 339.62 831.264 339.8 830.644 340.16C830.024 340.5 829.534 340.96 829.174 341.54C828.834 342.1 828.664 342.74 828.664 343.46V351.47C828.664 351.91 828.514 352.28 828.214 352.58C827.934 352.86 827.584 353 827.164 353C826.724 353 826.364 352.86 826.084 352.58C825.804 352.28 825.664 351.91 825.664 351.47V338.75C825.664 338.31 825.804 337.95 826.084 337.67C826.364 337.37 826.724 337.22 827.164 337.22C827.584 337.22 827.934 337.37 828.214 337.67C828.514 337.95 828.664 338.31 828.664 338.75V340.43L828.124 340.73C828.264 340.29 828.504 339.85 828.844 339.41C829.204 338.95 829.634 338.53 830.134 338.15C830.634 337.75 831.194 337.44 831.814 337.22C832.434 336.98 833.094 336.86 833.794 336.86ZM850.71 353.3C849.05 353.3 847.61 352.96 846.39 352.28C845.17 351.58 844.22 350.63 843.54 349.43C842.88 348.21 842.55 346.82 842.55 345.26C842.55 343.5 842.9 342 843.6 340.76C844.32 339.5 845.25 338.54 846.39 337.88C847.53 337.2 848.74 336.86 850.02 336.86C851 336.86 851.93 337.06 852.81 337.46C853.69 337.84 854.47 338.38 855.15 339.08C855.85 339.76 856.4 340.57 856.8 341.51C857.2 342.43 857.41 343.44 857.43 344.54C857.41 344.94 857.25 345.27 856.95 345.53C856.65 345.79 856.3 345.92 855.9 345.92H844.23L843.51 343.37H854.79L854.22 343.91V343.16C854.18 342.46 853.95 341.85 853.53 341.33C853.11 340.79 852.59 340.38 851.97 340.1C851.35 339.8 850.7 339.65 850.02 339.65C849.42 339.65 848.84 339.75 848.28 339.95C847.74 340.13 847.25 340.43 846.81 340.85C846.39 341.27 846.05 341.83 845.79 342.53C845.55 343.21 845.43 344.06 845.43 345.08C845.43 346.18 845.66 347.14 846.12 347.96C846.58 348.78 847.2 349.42 847.98 349.88C848.76 350.32 849.62 350.54 850.56 350.54C851.3 350.54 851.91 350.47 852.39 350.33C852.87 350.17 853.27 349.98 853.59 349.76C853.91 349.54 854.19 349.33 854.43 349.13C854.73 348.95 855.03 348.86 855.33 348.86C855.69 348.86 855.99 348.99 856.23 349.25C856.47 349.49 856.59 349.78 856.59 350.12C856.59 350.56 856.37 350.96 855.93 351.32C855.39 351.84 854.64 352.3 853.68 352.7C852.74 353.1 851.75 353.3 850.71 353.3ZM868.741 336.95C870.221 336.95 871.361 337.32 872.161 338.06C872.961 338.78 873.491 339.76 873.751 341L873.271 340.85L873.481 340.37C873.741 339.85 874.131 339.33 874.651 338.81C875.191 338.27 875.831 337.83 876.571 337.49C877.311 337.13 878.101 336.95 878.941 336.95C880.321 336.95 881.391 337.25 882.151 337.85C882.911 338.43 883.441 339.22 883.741 340.22C884.041 341.2 884.191 342.3 884.191 343.52V351.47C884.191 351.91 884.051 352.28 883.771 352.58C883.491 352.86 883.131 353 882.691 353C882.271 353 881.911 352.86 881.611 352.58C881.331 352.28 881.191 351.91 881.191 351.47V343.55C881.191 342.85 881.091 342.21 880.891 341.63C880.711 341.05 880.381 340.59 879.901 340.25C879.441 339.89 878.801 339.71 877.981 339.71C877.201 339.71 876.501 339.89 875.881 340.25C875.281 340.59 874.811 341.05 874.471 341.63C874.131 342.21 873.961 342.85 873.961 343.55V351.47C873.961 351.91 873.821 352.28 873.541 352.58C873.261 352.86 872.901 353 872.461 353C872.021 353 871.661 352.86 871.381 352.58C871.101 352.28 870.961 351.91 870.961 351.47V343.52C870.961 342.82 870.861 342.18 870.661 341.6C870.481 341.02 870.161 340.56 869.701 340.22C869.241 339.88 868.601 339.71 867.781 339.71C867.001 339.71 866.311 339.88 865.711 340.22C865.111 340.56 864.641 341.02 864.301 341.6C863.981 342.18 863.821 342.82 863.821 343.52V351.47C863.821 351.91 863.671 352.28 863.371 352.58C863.091 352.86 862.741 353 862.321 353C861.881 353 861.521 352.86 861.241 352.58C860.961 352.28 860.821 351.91 860.821 351.47V338.75C860.821 338.31 860.961 337.95 861.241 337.67C861.521 337.37 861.881 337.22 862.321 337.22C862.741 337.22 863.091 337.37 863.371 337.67C863.671 337.95 863.821 338.31 863.821 338.75V340.52L863.251 340.85C863.391 340.41 863.621 339.96 863.941 339.5C864.261 339.04 864.661 338.62 865.141 338.24C865.641 337.86 866.191 337.55 866.791 337.31C867.391 337.07 868.041 336.95 868.741 336.95ZM891.209 351.47C891.209 351.91 891.069 352.28 890.789 352.58C890.509 352.86 890.149 353 889.709 353C889.289 353 888.929 352.86 888.629 352.58C888.349 352.28 888.209 351.91 888.209 351.47V338.63C888.209 338.19 888.349 337.83 888.629 337.55C888.929 337.25 889.289 337.1 889.709 337.1C890.149 337.1 890.509 337.25 890.789 337.55C891.069 337.83 891.209 338.19 891.209 338.63V351.47ZM889.679 335.12C889.099 335.12 888.679 335.02 888.419 334.82C888.159 334.6 888.029 334.24 888.029 333.74V333.26C888.029 332.76 888.169 332.41 888.449 332.21C888.729 332.01 889.149 331.91 889.709 331.91C890.309 331.91 890.739 332.02 890.999 332.24C891.259 332.44 891.389 332.78 891.389 333.26V333.74C891.389 334.26 891.249 334.62 890.969 334.82C890.709 335.02 890.279 335.12 889.679 335.12ZM903.375 336.86C904.795 336.86 905.895 337.16 906.675 337.76C907.455 338.34 907.995 339.13 908.295 340.13C908.615 341.11 908.775 342.21 908.775 343.43V351.47C908.775 351.91 908.625 352.28 908.325 352.58C908.045 352.86 907.695 353 907.275 353C906.835 353 906.475 352.86 906.195 352.58C905.915 352.28 905.775 351.91 905.775 351.47V343.46C905.775 342.74 905.675 342.1 905.475 341.54C905.275 340.96 904.925 340.5 904.425 340.16C903.945 339.8 903.265 339.62 902.385 339.62C901.565 339.62 900.845 339.8 900.225 340.16C899.605 340.5 899.115 340.96 898.755 341.54C898.415 342.1 898.245 342.74 898.245 343.46V351.47C898.245 351.91 898.095 352.28 897.795 352.58C897.515 352.86 897.165 353 896.745 353C896.305 353 895.945 352.86 895.665 352.58C895.385 352.28 895.245 351.91 895.245 351.47V338.75C895.245 338.31 895.385 337.95 895.665 337.67C895.945 337.37 896.305 337.22 896.745 337.22C897.165 337.22 897.515 337.37 897.795 337.67C898.095 337.95 898.245 338.31 898.245 338.75V340.43L897.705 340.73C897.845 340.29 898.085 339.85 898.425 339.41C898.785 338.95 899.215 338.53 899.715 338.15C900.215 337.75 900.775 337.44 901.395 337.22C902.015 336.98 902.675 336.86 903.375 336.86ZM914.08 352.97C913.58 352.97 913.19 352.83 912.91 352.55C912.65 352.27 912.52 351.88 912.52 351.38V350.84C912.52 350.34 912.65 349.95 912.91 349.67C913.19 349.39 913.58 349.25 914.08 349.25H914.41C914.91 349.25 915.29 349.39 915.55 349.67C915.81 349.95 915.94 350.34 915.94 350.84V351.38C915.94 351.88 915.81 352.27 915.55 352.55C915.29 352.83 914.91 352.97 914.41 352.97H914.08ZM928.887 332C930.347 332 931.637 332.28 932.757 332.84C933.877 333.38 934.807 334.14 935.547 335.12C936.307 336.08 936.877 337.2 937.257 338.48C937.637 339.74 937.827 341.08 937.827 342.5C937.827 344.44 937.487 346.21 936.807 347.81C936.127 349.39 935.127 350.65 933.807 351.59C932.487 352.53 930.847 353 928.887 353H921.567C921.147 353 920.787 352.86 920.487 352.58C920.187 352.28 920.037 351.91 920.037 351.47V333.53C920.037 333.09 920.187 332.73 920.487 332.45C920.787 332.15 921.147 332 921.567 332H928.887ZM928.587 350.12C930.007 350.12 931.157 349.77 932.037 349.07C932.917 348.37 933.557 347.45 933.957 346.31C934.377 345.15 934.587 343.88 934.587 342.5C934.587 341.48 934.467 340.52 934.227 339.62C934.007 338.7 933.647 337.89 933.147 337.19C932.667 336.47 932.047 335.91 931.287 335.51C930.547 335.09 929.647 334.88 928.587 334.88H922.917L923.187 334.61V350.42L923.007 350.12H928.587ZM942.922 353C942.502 353 942.142 352.86 941.842 352.58C941.562 352.28 941.422 351.91 941.422 351.47V332.33C941.422 331.89 941.562 331.53 941.842 331.25C942.142 330.95 942.502 330.8 942.922 330.8C943.362 330.8 943.722 330.95 944.002 331.25C944.282 331.53 944.422 331.89 944.422 332.33V351.47C944.422 351.91 944.282 352.28 944.002 352.58C943.722 352.86 943.362 353 942.922 353ZM952.702 337.16C953.082 337.16 953.412 337.32 953.692 337.64C953.972 337.96 954.112 338.28 954.112 338.6C954.112 339 953.922 339.37 953.542 339.71L944.152 348.11L944.032 344.66L951.592 337.64C951.912 337.32 952.282 337.16 952.702 337.16ZM953.062 352.97C952.642 352.97 952.282 352.8 951.982 352.46L945.982 346.13L948.262 344.03L954.112 350.36C954.432 350.7 954.592 351.08 954.592 351.5C954.592 351.94 954.412 352.3 954.052 352.58C953.712 352.84 953.382 352.97 953.062 352.97ZM957.851 356.96C957.551 356.96 957.251 356.84 956.951 356.6C956.651 356.36 956.501 356.06 956.501 355.7C956.501 355.48 956.561 355.27 956.681 355.07L969.131 329.84C969.271 329.56 969.441 329.35 969.641 329.21C969.861 329.07 970.101 329 970.361 329C970.641 329 970.921 329.11 971.201 329.33C971.501 329.55 971.651 329.86 971.651 330.26C971.651 330.48 971.601 330.7 971.501 330.92L959.051 356.15C958.911 356.41 958.741 356.61 958.541 356.75C958.341 356.89 958.111 356.96 957.851 356.96ZM983.283 332C984.343 332 985.323 332.29 986.223 332.87C987.123 333.43 987.843 334.2 988.383 335.18C988.923 336.16 989.193 337.26 989.193 338.48C989.193 339.7 988.923 340.81 988.383 341.81C987.843 342.79 987.123 343.58 986.223 344.18C985.323 344.76 984.343 345.05 983.283 345.05H977.493L977.733 344.57V351.47C977.733 351.91 977.593 352.28 977.313 352.58C977.053 352.86 976.703 353 976.263 353C975.843 353 975.493 352.86 975.213 352.58C974.953 352.28 974.823 351.91 974.823 351.47V333.53C974.823 333.09 974.973 332.73 975.273 332.45C975.573 332.15 975.933 332 976.353 332H983.283ZM983.283 342.17C983.803 342.17 984.273 342 984.693 341.66C985.133 341.32 985.483 340.87 985.743 340.31C986.023 339.75 986.163 339.14 986.163 338.48C986.163 337.82 986.023 337.22 985.743 336.68C985.483 336.14 985.133 335.71 984.693 335.39C984.273 335.05 983.803 334.88 983.283 334.88H977.433L977.733 334.43V342.56L977.463 342.17H983.283ZM1007.34 345.11C1007.34 346.71 1006.99 348.13 1006.29 349.37C1005.59 350.59 1004.64 351.55 1003.44 352.25C1002.24 352.95 1000.89 353.3 999.387 353.3C997.887 353.3 996.537 352.95 995.337 352.25C994.137 351.55 993.177 350.59 992.457 349.37C991.757 348.13 991.407 346.71 991.407 345.11C991.407 343.49 991.757 342.07 992.457 340.85C993.177 339.61 994.137 338.64 995.337 337.94C996.537 337.22 997.887 336.86 999.387 336.86C1000.89 336.86 1002.24 337.22 1003.44 337.94C1004.64 338.64 1005.59 339.61 1006.29 340.85C1006.99 342.07 1007.34 343.49 1007.34 345.11ZM1004.34 345.11C1004.34 344.01 1004.12 343.06 1003.68 342.26C1003.24 341.44 1002.64 340.8 1001.88 340.34C1001.14 339.86 1000.31 339.62 999.387 339.62C998.467 339.62 997.627 339.86 996.867 340.34C996.107 340.8 995.507 341.44 995.067 342.26C994.627 343.06 994.407 344.01 994.407 345.11C994.407 346.17 994.627 347.11 995.067 347.93C995.507 348.75 996.107 349.39 996.867 349.85C997.627 350.31 998.467 350.54 999.387 350.54C1000.31 350.54 1001.14 350.31 1001.88 349.85C1002.64 349.39 1003.24 348.75 1003.68 347.93C1004.12 347.11 1004.34 346.17 1004.34 345.11ZM1018.08 353.3C1016.42 353.3 1014.98 352.96 1013.76 352.28C1012.54 351.58 1011.59 350.63 1010.91 349.43C1010.25 348.21 1009.92 346.82 1009.92 345.26C1009.92 343.5 1010.27 342 1010.97 340.76C1011.69 339.5 1012.62 338.54 1013.76 337.88C1014.9 337.2 1016.11 336.86 1017.39 336.86C1018.37 336.86 1019.3 337.06 1020.18 337.46C1021.06 337.84 1021.84 338.38 1022.52 339.08C1023.22 339.76 1023.77 340.57 1024.17 341.51C1024.57 342.43 1024.78 343.44 1024.8 344.54C1024.78 344.94 1024.62 345.27 1024.32 345.53C1024.02 345.79 1023.67 345.92 1023.27 345.92H1011.6L1010.88 343.37H1022.16L1021.59 343.91V343.16C1021.55 342.46 1021.32 341.85 1020.9 341.33C1020.48 340.79 1019.96 340.38 1019.34 340.1C1018.72 339.8 1018.07 339.65 1017.39 339.65C1016.79 339.65 1016.21 339.75 1015.65 339.95C1015.11 340.13 1014.62 340.43 1014.18 340.85C1013.76 341.27 1013.42 341.83 1013.16 342.53C1012.92 343.21 1012.8 344.06 1012.8 345.08C1012.8 346.18 1013.03 347.14 1013.49 347.96C1013.95 348.78 1014.57 349.42 1015.35 349.88C1016.13 350.32 1016.99 350.54 1017.93 350.54C1018.67 350.54 1019.28 350.47 1019.76 350.33C1020.24 350.17 1020.64 349.98 1020.96 349.76C1021.28 349.54 1021.56 349.33 1021.8 349.13C1022.1 348.95 1022.4 348.86 1022.7 348.86C1023.06 348.86 1023.36 348.99 1023.6 349.25C1023.84 349.49 1023.96 349.78 1023.96 350.12C1023.96 350.56 1023.74 350.96 1023.3 351.32C1022.76 351.84 1022.01 352.3 1021.05 352.7C1020.11 353.1 1019.12 353.3 1018.08 353.3ZM1027.98 337.4H1035.03C1035.43 337.4 1035.76 337.54 1036.02 337.82C1036.3 338.08 1036.44 338.41 1036.44 338.81C1036.44 339.19 1036.3 339.51 1036.02 339.77C1035.76 340.03 1035.43 340.16 1035.03 340.16H1027.98C1027.58 340.16 1027.24 340.03 1026.96 339.77C1026.7 339.49 1026.57 339.16 1026.57 338.78C1026.57 338.38 1026.7 338.05 1026.96 337.79C1027.24 337.53 1027.58 337.4 1027.98 337.4ZM1031.13 333.5C1031.57 333.5 1031.93 333.65 1032.21 333.95C1032.49 334.23 1032.63 334.59 1032.63 335.03V348.95C1032.63 349.31 1032.69 349.6 1032.81 349.82C1032.93 350.04 1033.09 350.19 1033.29 350.27C1033.51 350.35 1033.73 350.39 1033.95 350.39C1034.17 350.39 1034.36 350.35 1034.52 350.27C1034.7 350.19 1034.91 350.15 1035.15 350.15C1035.39 350.15 1035.61 350.26 1035.81 350.48C1036.01 350.7 1036.11 351 1036.11 351.38C1036.11 351.86 1035.85 352.25 1035.33 352.55C1034.81 352.85 1034.25 353 1033.65 353C1033.31 353 1032.91 352.97 1032.45 352.91C1031.99 352.85 1031.54 352.7 1031.1 352.46C1030.68 352.22 1030.33 351.84 1030.05 351.32C1029.77 350.78 1029.63 350.03 1029.63 349.07V335.03C1029.63 334.59 1029.77 334.23 1030.05 333.95C1030.35 333.65 1030.71 333.5 1031.13 333.5ZM1041.27 353C1040.83 353 1040.47 352.86 1040.19 352.58C1039.91 352.28 1039.77 351.91 1039.77 351.47V338.75C1039.77 338.31 1039.91 337.95 1040.19 337.67C1040.47 337.37 1040.83 337.22 1041.27 337.22C1041.69 337.22 1042.04 337.37 1042.32 337.67C1042.62 337.95 1042.77 338.31 1042.77 338.75V342.11L1042.47 340.82C1042.63 340.26 1042.87 339.74 1043.19 339.26C1043.53 338.78 1043.93 338.36 1044.39 338C1044.85 337.64 1045.36 337.36 1045.92 337.16C1046.5 336.96 1047.1 336.86 1047.72 336.86C1048.24 336.86 1048.69 337 1049.07 337.28C1049.45 337.56 1049.64 337.91 1049.64 338.33C1049.64 338.87 1049.5 339.27 1049.22 339.53C1048.94 339.77 1048.63 339.89 1048.29 339.89C1047.99 339.89 1047.7 339.83 1047.42 339.71C1047.14 339.57 1046.81 339.5 1046.43 339.5C1046.01 339.5 1045.58 339.61 1045.14 339.83C1044.7 340.05 1044.3 340.38 1043.94 340.82C1043.58 341.24 1043.29 341.74 1043.07 342.32C1042.87 342.9 1042.77 343.55 1042.77 344.27V351.47C1042.77 351.91 1042.62 352.28 1042.32 352.58C1042.04 352.86 1041.69 353 1041.27 353ZM1064.04 337.1C1064.48 337.1 1064.84 337.25 1065.12 337.55C1065.4 337.83 1065.54 338.19 1065.54 338.63V351.53C1065.54 353.29 1065.2 354.72 1064.52 355.82C1063.86 356.92 1062.96 357.72 1061.82 358.22C1060.7 358.74 1059.43 359 1058.01 359C1057.29 359 1056.57 358.93 1055.85 358.79C1055.13 358.67 1054.54 358.49 1054.08 358.25C1053.6 358.03 1053.26 357.76 1053.06 357.44C1052.86 357.12 1052.83 356.77 1052.97 356.39C1053.11 355.91 1053.35 355.58 1053.69 355.4C1054.03 355.24 1054.38 355.23 1054.74 355.37C1055.08 355.51 1055.53 355.69 1056.09 355.91C1056.65 356.13 1057.29 356.24 1058.01 356.24C1058.99 356.24 1059.82 356.08 1060.5 355.76C1061.18 355.44 1061.69 354.94 1062.03 354.26C1062.39 353.58 1062.57 352.7 1062.57 351.62V349.55L1063.05 350.27C1062.73 350.93 1062.31 351.48 1061.79 351.92C1061.27 352.36 1060.65 352.7 1059.93 352.94C1059.23 353.18 1058.45 353.3 1057.59 353.3C1056.49 353.3 1055.54 353.06 1054.74 352.58C1053.96 352.08 1053.36 351.4 1052.94 350.54C1052.52 349.66 1052.31 348.66 1052.31 347.54V338.63C1052.31 338.19 1052.45 337.83 1052.73 337.55C1053.01 337.25 1053.37 337.1 1053.81 337.1C1054.23 337.1 1054.58 337.25 1054.86 337.55C1055.16 337.83 1055.31 338.19 1055.31 338.63V346.73C1055.31 348.05 1055.6 349.02 1056.18 349.64C1056.76 350.24 1057.62 350.54 1058.76 350.54C1059.52 350.54 1060.18 350.38 1060.74 350.06C1061.3 349.74 1061.74 349.3 1062.06 348.74C1062.38 348.16 1062.54 347.49 1062.54 346.73V338.63C1062.54 338.19 1062.68 337.83 1062.96 337.55C1063.26 337.25 1063.62 337.1 1064.04 337.1ZM1088.13 337.07C1088.51 337.07 1088.84 337.22 1089.12 337.52C1089.42 337.8 1089.57 338.17 1089.57 338.63C1089.57 338.73 1089.56 338.83 1089.54 338.93C1089.52 339.03 1089.49 339.12 1089.45 339.2L1084.86 352.04C1084.74 352.38 1084.53 352.64 1084.23 352.82C1083.93 352.98 1083.62 353.04 1083.3 353C1082.72 352.96 1082.29 352.64 1082.01 352.04L1078.62 343.04L1079.31 343.1L1076.19 352.04C1075.91 352.64 1075.48 352.96 1074.9 353C1074.6 353.04 1074.29 352.98 1073.97 352.82C1073.67 352.64 1073.46 352.38 1073.34 352.04L1068.72 339.2C1068.64 339.02 1068.6 338.83 1068.6 338.63C1068.6 338.21 1068.73 337.85 1068.99 337.55C1069.27 337.23 1069.64 337.07 1070.1 337.07C1070.42 337.07 1070.7 337.15 1070.94 337.31C1071.2 337.47 1071.38 337.71 1071.48 338.03L1075.32 348.86L1074.63 348.8L1077.75 340.61C1078.01 339.99 1078.47 339.68 1079.13 339.68C1079.49 339.68 1079.77 339.76 1079.97 339.92C1080.17 340.08 1080.33 340.31 1080.45 340.61L1083.63 348.83L1082.82 348.92L1086.69 338.03C1086.89 337.39 1087.37 337.07 1088.13 337.07ZM1099.97 353.3C1098.31 353.3 1096.87 352.96 1095.65 352.28C1094.43 351.58 1093.48 350.63 1092.8 349.43C1092.14 348.21 1091.81 346.82 1091.81 345.26C1091.81 343.5 1092.16 342 1092.86 340.76C1093.58 339.5 1094.51 338.54 1095.65 337.88C1096.79 337.2 1098 336.86 1099.28 336.86C1100.26 336.86 1101.19 337.06 1102.07 337.46C1102.95 337.84 1103.73 338.38 1104.41 339.08C1105.11 339.76 1105.66 340.57 1106.06 341.51C1106.46 342.43 1106.67 343.44 1106.69 344.54C1106.67 344.94 1106.51 345.27 1106.21 345.53C1105.91 345.79 1105.56 345.92 1105.16 345.92H1093.49L1092.77 343.37H1104.05L1103.48 343.91V343.16C1103.44 342.46 1103.21 341.85 1102.79 341.33C1102.37 340.79 1101.85 340.38 1101.23 340.1C1100.61 339.8 1099.96 339.65 1099.28 339.65C1098.68 339.65 1098.1 339.75 1097.54 339.95C1097 340.13 1096.51 340.43 1096.07 340.85C1095.65 341.27 1095.31 341.83 1095.05 342.53C1094.81 343.21 1094.69 344.06 1094.69 345.08C1094.69 346.18 1094.92 347.14 1095.38 347.96C1095.84 348.78 1096.46 349.42 1097.24 349.88C1098.02 350.32 1098.88 350.54 1099.82 350.54C1100.56 350.54 1101.17 350.47 1101.65 350.33C1102.13 350.17 1102.53 349.98 1102.85 349.76C1103.17 349.54 1103.45 349.33 1103.69 349.13C1103.99 348.95 1104.29 348.86 1104.59 348.86C1104.95 348.86 1105.25 348.99 1105.49 349.25C1105.73 349.49 1105.85 349.78 1105.85 350.12C1105.85 350.56 1105.63 350.96 1105.19 351.32C1104.65 351.84 1103.9 352.3 1102.94 352.7C1102 353.1 1101.01 353.3 1099.97 353.3ZM1118.03 336.86C1119.43 336.86 1120.67 337.21 1121.75 337.91C1122.85 338.61 1123.72 339.58 1124.36 340.82C1125 342.04 1125.32 343.45 1125.32 345.05C1125.32 346.65 1125 348.07 1124.36 349.31C1123.72 350.55 1122.86 351.53 1121.78 352.25C1120.7 352.95 1119.48 353.3 1118.12 353.3C1117.36 353.3 1116.64 353.18 1115.96 352.94C1115.28 352.68 1114.68 352.36 1114.16 351.98C1113.64 351.58 1113.21 351.16 1112.87 350.72C1112.55 350.28 1112.35 349.87 1112.27 349.49L1113.08 349.1V351.71C1113.08 352.13 1112.93 352.49 1112.63 352.79C1112.35 353.07 1112 353.21 1111.58 353.21C1111.14 353.21 1110.78 353.07 1110.5 352.79C1110.22 352.51 1110.08 352.15 1110.08 351.71V332.33C1110.08 331.89 1110.22 331.53 1110.5 331.25C1110.78 330.95 1111.14 330.8 1111.58 330.8C1112 330.8 1112.35 330.95 1112.63 331.25C1112.93 331.53 1113.08 331.89 1113.08 332.33V340.76L1112.6 340.49C1112.66 340.11 1112.85 339.72 1113.17 339.32C1113.49 338.9 1113.89 338.5 1114.37 338.12C1114.87 337.74 1115.43 337.44 1116.05 337.22C1116.69 336.98 1117.35 336.86 1118.03 336.86ZM1117.7 339.62C1116.74 339.62 1115.9 339.86 1115.18 340.34C1114.48 340.82 1113.93 341.47 1113.53 342.29C1113.13 343.09 1112.93 344.01 1112.93 345.05C1112.93 346.09 1113.13 347.03 1113.53 347.87C1113.93 348.69 1114.48 349.34 1115.18 349.82C1115.9 350.3 1116.74 350.54 1117.7 350.54C1118.64 350.54 1119.46 350.3 1120.16 349.82C1120.86 349.34 1121.41 348.68 1121.81 347.84C1122.23 347 1122.44 346.07 1122.44 345.05C1122.44 344.01 1122.23 343.09 1121.81 342.29C1121.41 341.47 1120.86 340.82 1120.16 340.34C1119.46 339.86 1118.64 339.62 1117.7 339.62ZM1127.78 350.54C1127.6 350.26 1127.52 349.94 1127.54 349.58C1127.56 349.2 1127.77 348.88 1128.17 348.62C1128.45 348.44 1128.74 348.37 1129.04 348.41C1129.36 348.43 1129.66 348.58 1129.94 348.86C1130.5 349.48 1131.12 349.97 1131.8 350.33C1132.5 350.69 1133.34 350.87 1134.32 350.87C1134.72 350.85 1135.13 350.79 1135.55 350.69C1135.97 350.57 1136.33 350.37 1136.63 350.09C1136.93 349.79 1137.08 349.36 1137.08 348.8C1137.08 348.3 1136.92 347.9 1136.6 347.6C1136.28 347.3 1135.86 347.06 1135.34 346.88C1134.82 346.68 1134.26 346.5 1133.66 346.34C1133.02 346.16 1132.37 345.96 1131.71 345.74C1131.07 345.52 1130.49 345.24 1129.97 344.9C1129.45 344.54 1129.02 344.08 1128.68 343.52C1128.36 342.96 1128.2 342.27 1128.2 341.45C1128.2 340.51 1128.46 339.7 1128.98 339.02C1129.52 338.34 1130.21 337.81 1131.05 337.43C1131.91 337.05 1132.84 336.86 1133.84 336.86C1134.42 336.86 1135.03 336.94 1135.67 337.1C1136.31 337.24 1136.93 337.47 1137.53 337.79C1138.13 338.11 1138.65 338.53 1139.09 339.05C1139.29 339.31 1139.4 339.62 1139.42 339.98C1139.46 340.34 1139.3 340.66 1138.94 340.94C1138.7 341.14 1138.41 341.23 1138.07 341.21C1137.73 341.19 1137.45 341.08 1137.23 340.88C1136.85 340.4 1136.36 340.03 1135.76 339.77C1135.16 339.49 1134.48 339.35 1133.72 339.35C1133.34 339.35 1132.94 339.41 1132.52 339.53C1132.12 339.63 1131.78 339.82 1131.5 340.1C1131.22 340.38 1131.08 340.79 1131.08 341.33C1131.08 341.83 1131.24 342.23 1131.56 342.53C1131.9 342.83 1132.34 343.08 1132.88 343.28C1133.42 343.48 1134.01 343.66 1134.65 343.82C1135.27 343.98 1135.88 344.17 1136.48 344.39C1137.1 344.61 1137.65 344.9 1138.13 345.26C1138.63 345.6 1139.03 346.05 1139.33 346.61C1139.65 347.15 1139.81 347.84 1139.81 348.68C1139.81 349.66 1139.52 350.5 1138.94 351.2C1138.38 351.88 1137.66 352.4 1136.78 352.76C1135.92 353.12 1135.01 353.3 1134.05 353.3C1132.91 353.3 1131.77 353.1 1130.63 352.7C1129.51 352.28 1128.56 351.56 1127.78 350.54ZM1145.86 351.47C1145.86 351.91 1145.72 352.28 1145.44 352.58C1145.16 352.86 1144.8 353 1144.36 353C1143.94 353 1143.58 352.86 1143.28 352.58C1143 352.28 1142.86 351.91 1142.86 351.47V338.63C1142.86 338.19 1143 337.83 1143.28 337.55C1143.58 337.25 1143.94 337.1 1144.36 337.1C1144.8 337.1 1145.16 337.25 1145.44 337.55C1145.72 337.83 1145.86 338.19 1145.86 338.63V351.47ZM1144.33 335.12C1143.75 335.12 1143.33 335.02 1143.07 334.82C1142.81 334.6 1142.68 334.24 1142.68 333.74V333.26C1142.68 332.76 1142.82 332.41 1143.1 332.21C1143.38 332.01 1143.8 331.91 1144.36 331.91C1144.96 331.91 1145.39 332.02 1145.65 332.24C1145.91 332.44 1146.04 332.78 1146.04 333.26V333.74C1146.04 334.26 1145.9 334.62 1145.62 334.82C1145.36 335.02 1144.93 335.12 1144.33 335.12ZM1149.68 337.4H1156.73C1157.13 337.4 1157.46 337.54 1157.72 337.82C1158 338.08 1158.14 338.41 1158.14 338.81C1158.14 339.19 1158 339.51 1157.72 339.77C1157.46 340.03 1157.13 340.16 1156.73 340.16H1149.68C1149.28 340.16 1148.94 340.03 1148.66 339.77C1148.4 339.49 1148.27 339.16 1148.27 338.78C1148.27 338.38 1148.4 338.05 1148.66 337.79C1148.94 337.53 1149.28 337.4 1149.68 337.4ZM1152.83 333.5C1153.27 333.5 1153.63 333.65 1153.91 333.95C1154.19 334.23 1154.33 334.59 1154.33 335.03V348.95C1154.33 349.31 1154.39 349.6 1154.51 349.82C1154.63 350.04 1154.79 350.19 1154.99 350.27C1155.21 350.35 1155.43 350.39 1155.65 350.39C1155.87 350.39 1156.06 350.35 1156.22 350.27C1156.4 350.19 1156.61 350.15 1156.85 350.15C1157.09 350.15 1157.31 350.26 1157.51 350.48C1157.71 350.7 1157.81 351 1157.81 351.38C1157.81 351.86 1157.55 352.25 1157.03 352.55C1156.51 352.85 1155.95 353 1155.35 353C1155.01 353 1154.61 352.97 1154.15 352.91C1153.69 352.85 1153.24 352.7 1152.8 352.46C1152.38 352.22 1152.03 351.84 1151.75 351.32C1151.47 350.78 1151.33 350.03 1151.33 349.07V335.03C1151.33 334.59 1151.47 334.23 1151.75 333.95C1152.05 333.65 1152.41 333.5 1152.83 333.5ZM1168.67 353.3C1167.01 353.3 1165.57 352.96 1164.35 352.28C1163.13 351.58 1162.18 350.63 1161.5 349.43C1160.84 348.21 1160.51 346.82 1160.51 345.26C1160.51 343.5 1160.86 342 1161.56 340.76C1162.28 339.5 1163.21 338.54 1164.35 337.88C1165.49 337.2 1166.7 336.86 1167.98 336.86C1168.96 336.86 1169.89 337.06 1170.77 337.46C1171.65 337.84 1172.43 338.38 1173.11 339.08C1173.81 339.76 1174.36 340.57 1174.76 341.51C1175.16 342.43 1175.37 343.44 1175.39 344.54C1175.37 344.94 1175.21 345.27 1174.91 345.53C1174.61 345.79 1174.26 345.92 1173.86 345.92H1162.19L1161.47 343.37H1172.75L1172.18 343.91V343.16C1172.14 342.46 1171.91 341.85 1171.49 341.33C1171.07 340.79 1170.55 340.38 1169.93 340.1C1169.31 339.8 1168.66 339.65 1167.98 339.65C1167.38 339.65 1166.8 339.75 1166.24 339.95C1165.7 340.13 1165.21 340.43 1164.77 340.85C1164.35 341.27 1164.01 341.83 1163.75 342.53C1163.51 343.21 1163.39 344.06 1163.39 345.08C1163.39 346.18 1163.62 347.14 1164.08 347.96C1164.54 348.78 1165.16 349.42 1165.94 349.88C1166.72 350.32 1167.58 350.54 1168.52 350.54C1169.26 350.54 1169.87 350.47 1170.35 350.33C1170.83 350.17 1171.23 349.98 1171.55 349.76C1171.87 349.54 1172.15 349.33 1172.39 349.13C1172.69 348.95 1172.99 348.86 1173.29 348.86C1173.65 348.86 1173.95 348.99 1174.19 349.25C1174.43 349.49 1174.55 349.78 1174.55 350.12C1174.55 350.56 1174.33 350.96 1173.89 351.32C1173.35 351.84 1172.6 352.3 1171.64 352.7C1170.7 353.1 1169.71 353.3 1168.67 353.3ZM1178.72 356.96C1178.42 356.96 1178.12 356.84 1177.82 356.6C1177.52 356.36 1177.37 356.06 1177.37 355.7C1177.37 355.48 1177.43 355.27 1177.55 355.07L1190 329.84C1190.14 329.56 1190.31 329.35 1190.51 329.21C1190.73 329.07 1190.97 329 1191.23 329C1191.51 329 1191.79 329.11 1192.07 329.33C1192.37 329.55 1192.52 329.86 1192.52 330.26C1192.52 330.48 1192.47 330.7 1192.37 330.92L1179.92 356.15C1179.78 356.41 1179.61 356.61 1179.41 356.75C1179.21 356.89 1178.98 356.96 1178.72 356.96Z" fill="black"/>
</svg>
