<svg width="616" height="190" viewBox="0 0 616 190" fill="none" xmlns="http://www.w3.org/2000/svg">
<path d="M54.8044 129.886C29.0706 101.073 33.7031 59.5801 65.1515 37.2079C96.5999 14.8358 142.955 20.0568 168.689 48.8694C194.423 77.6821 189.79 119.175 158.342 141.548C126.894 163.92 80.5383 158.699 54.8044 129.886Z" fill="#FCD993"/>
<path d="M95.4274 109.284C70.6249 81.5145 75.6077 41.1542 106.557 19.1372C137.506 -2.87982 182.702 1.78379 207.504 29.5537C232.307 57.3235 227.324 97.6838 196.375 119.701C165.426 141.718 120.23 137.054 95.4274 109.284Z" fill="#FFFBF5"/>
<path d="M118.188 45.2467C119.08 45.3411 121.321 45.606 123.634 47.3001C124.487 47.9245 125.813 48.9195 126.8 50.852C127.839 52.8853 127.904 54.7793 127.912 55.2178C127.92 55.6744 127.929 57.7831 126.777 60.0407C125.668 62.2154 124.113 63.292 123.096 63.9783C122.618 64.3003 120.25 65.8449 116.853 65.9542C115.819 65.9872 113.297 66.0342 110.618 64.4128C109.676 63.8423 107.947 62.7628 106.732 60.4568C106.395 59.8176 105.568 58.2014 105.54 55.8953C105.534 55.332 105.561 53.5522 106.465 51.5957C107.114 50.19 107.917 49.3398 108.428 48.8095C109.818 47.3638 111.216 46.7051 112.123 46.2897C113.297 45.7506 114.239 45.5272 114.534 45.4613C115.227 45.3058 116.55 45.077 118.187 45.2493L118.188 45.2467Z" fill="#FFD278" fill-opacity="0.78" stroke="white" stroke-width="0.25" stroke-linecap="round" stroke-linejoin="round"/>
<path d="M137.491 103.436C137.715 103.436 137.902 103.511 138.051 103.66C138.211 103.809 138.291 103.996 138.291 104.22C138.291 104.444 138.211 104.631 138.05 104.78C137.901 104.929 137.714 105.004 137.49 105.004L132.114 105.001C131.88 105.001 131.682 104.926 131.522 104.777C131.373 104.617 131.299 104.419 131.299 104.185L131.304 94.6167C131.304 94.382 131.384 94.19 131.544 94.0408C131.704 93.8809 131.912 93.801 132.168 93.8011C132.381 93.8012 132.568 93.8813 132.728 94.0414C132.899 94.1908 132.984 94.3828 132.984 94.6175L132.979 103.706L132.643 103.433L137.491 103.436ZM141.455 104.19C141.455 104.424 141.38 104.622 141.231 104.782C141.081 104.931 140.889 105.006 140.654 105.005C140.43 105.005 140.239 104.931 140.079 104.781C139.929 104.621 139.855 104.424 139.855 104.189L139.858 97.341C139.859 97.1063 139.933 96.9144 140.083 96.7651C140.243 96.6052 140.435 96.5253 140.659 96.5254C140.893 96.5255 141.085 96.6056 141.235 96.7657C141.384 96.9151 141.459 97.1071 141.458 97.3418L141.455 104.19ZM140.643 95.4694C140.334 95.4692 140.11 95.4158 139.971 95.3091C139.833 95.1917 139.764 94.9996 139.764 94.733L139.764 94.477C139.764 94.2103 139.839 94.0237 139.988 93.9171C140.138 93.8105 140.362 93.7573 140.66 93.7574C140.98 93.7576 141.21 93.8164 141.348 93.9338C141.487 94.0405 141.556 94.2219 141.556 94.4779L141.556 94.7339C141.556 95.0112 141.481 95.2032 141.331 95.3098C141.193 95.4163 140.963 95.4696 140.643 95.4694ZM147.947 96.4011C148.704 96.4015 149.291 96.5618 149.707 96.882C150.123 97.1916 150.41 97.613 150.57 98.1464C150.741 98.6692 150.826 99.2559 150.825 99.9066L150.823 104.195C150.823 104.429 150.743 104.627 150.583 104.786C150.433 104.936 150.247 105.01 150.023 105.01C149.788 105.01 149.596 104.935 149.447 104.786C149.298 104.626 149.223 104.428 149.223 104.194L149.225 99.9218C149.226 99.5378 149.172 99.1964 149.066 98.8977C148.959 98.5883 148.773 98.3429 148.506 98.1614C148.25 97.9693 147.888 97.8731 147.418 97.8728C146.981 97.8726 146.597 97.9684 146.266 98.1603C145.935 98.3414 145.674 98.5866 145.482 98.8959C145.3 99.1944 145.21 99.5357 145.209 99.9197L145.207 104.192C145.207 104.426 145.127 104.624 144.967 104.784C144.817 104.933 144.631 105.007 144.407 105.007C144.172 105.007 143.98 104.932 143.831 104.783C143.682 104.623 143.607 104.426 143.607 104.191L143.611 97.4069C143.611 97.1722 143.685 96.9803 143.835 96.831C143.984 96.6711 144.176 96.5912 144.411 96.5913C144.635 96.5914 144.822 96.6715 144.971 96.8316C145.131 96.981 145.211 97.1731 145.211 97.4077L145.21 98.3037L144.922 98.4636C144.997 98.2289 145.125 97.9943 145.306 97.7598C145.499 97.5145 145.728 97.2907 145.995 97.0881C146.262 96.8749 146.56 96.7097 146.891 96.5926C147.222 96.4647 147.574 96.4009 147.947 96.4011ZM153.972 105.012C153.748 105.012 153.556 104.937 153.396 104.788C153.247 104.628 153.173 104.43 153.173 104.196L153.178 93.9878C153.178 93.7531 153.253 93.5611 153.402 93.4119C153.562 93.252 153.754 93.1721 153.978 93.1722C154.213 93.1723 154.405 93.2524 154.554 93.4125C154.703 93.5619 154.778 93.7539 154.778 93.9886L154.773 104.197C154.773 104.431 154.698 104.629 154.548 104.788C154.399 104.938 154.207 105.012 153.972 105.012ZM159.193 96.5668C159.395 96.5669 159.571 96.6524 159.72 96.8231C159.87 96.9938 159.944 97.1645 159.944 97.3352C159.944 97.5485 159.843 97.7458 159.64 97.9271L154.63 102.405L154.566 100.564L158.6 96.8225C158.771 96.6519 158.969 96.5667 159.193 96.5668ZM159.38 104.999C159.156 104.999 158.964 104.908 158.804 104.727L155.606 101.349L156.823 100.23L159.941 103.607C160.112 103.789 160.197 103.991 160.197 104.215C160.197 104.45 160.1 104.642 159.908 104.791C159.727 104.93 159.551 104.999 159.38 104.999ZM170.243 105.02C169.987 105.02 169.779 104.946 169.619 104.796C169.47 104.636 169.396 104.439 169.396 104.204L169.401 94.62L171.113 94.6209L171.108 104.205C171.108 104.44 171.022 104.637 170.851 104.797C170.691 104.946 170.489 105.021 170.243 105.02ZM166.616 95.3546C166.392 95.3545 166.2 95.2851 166.04 95.1463C165.88 94.9969 165.8 94.8049 165.801 94.5702C165.801 94.3462 165.881 94.1649 166.041 94.0263C166.201 93.8877 166.393 93.8185 166.617 93.8186L173.897 93.8223C174.121 93.8224 174.308 93.8972 174.457 94.0466C174.617 94.1853 174.697 94.3667 174.697 94.5907C174.696 94.8254 174.616 95.012 174.456 95.1506C174.307 95.2892 174.12 95.3584 173.896 95.3583L166.616 95.3546ZM177.83 104.208C177.83 104.443 177.755 104.64 177.606 104.8C177.456 104.949 177.264 105.024 177.029 105.024C176.805 105.024 176.614 104.949 176.454 104.8C176.304 104.64 176.23 104.442 176.23 104.207L176.233 97.3595C176.233 97.1248 176.308 96.9329 176.458 96.7836C176.618 96.6237 176.81 96.5438 177.034 96.5439C177.268 96.544 177.46 96.6241 177.61 96.7842C177.759 96.9336 177.833 97.1256 177.833 97.3603L177.83 104.208ZM177.018 95.4879C176.709 95.4877 176.485 95.4343 176.346 95.3275C176.208 95.2101 176.139 95.0181 176.139 94.7514L176.139 94.4954C176.139 94.2288 176.214 94.0421 176.363 93.9356C176.512 93.829 176.737 93.7757 177.035 93.7759C177.355 93.7761 177.584 93.8348 177.723 93.9522C177.862 94.059 177.931 94.2404 177.931 94.4964L177.931 94.7524C177.931 95.0297 177.856 95.2216 177.706 95.3282C177.568 95.4348 177.338 95.4881 177.018 95.4879ZM181.71 104.21C181.71 104.445 181.63 104.642 181.47 104.802C181.32 104.951 181.134 105.026 180.91 105.026C180.686 105.026 180.494 104.951 180.334 104.802C180.185 104.641 180.11 104.444 180.11 104.209L180.115 94.0015C180.115 93.7668 180.196 93.5748 180.356 93.4256C180.516 93.2657 180.708 93.1858 180.932 93.1859C181.166 93.186 181.353 93.2661 181.492 93.4262C181.641 93.5756 181.715 93.7676 181.715 94.0023L181.71 104.21ZM189.59 93.8303C189.803 93.8304 189.99 93.9105 190.15 94.0706C190.32 94.22 190.406 94.412 190.405 94.6467L190.401 104.215C190.39 104.449 190.299 104.647 190.128 104.807C189.968 104.956 189.776 105.03 189.552 105.03C189.307 105.03 189.104 104.955 188.944 104.806C188.795 104.646 188.721 104.449 188.721 104.214L188.725 94.6458C188.726 94.4112 188.806 94.2192 188.966 94.07C189.126 93.91 189.334 93.8301 189.59 93.8303ZM196.806 93.8339C197.062 93.8341 197.265 93.9142 197.414 94.0743C197.563 94.2237 197.638 94.4157 197.637 94.6504L197.633 104.218C197.633 104.453 197.552 104.65 197.392 104.81C197.243 104.959 197.04 105.034 196.784 105.034C196.56 105.034 196.368 104.959 196.208 104.81C196.048 104.65 195.969 104.452 195.969 104.218L195.973 94.6495C195.974 94.4149 196.054 94.2229 196.214 94.0736C196.385 93.9137 196.582 93.8338 196.806 93.8339ZM189.523 98.5982L196.819 98.602L196.803 100.138L189.507 100.134L189.523 98.5982ZM201.868 105.389C201.868 105.965 201.75 106.46 201.515 106.876C201.28 107.292 200.971 107.612 200.587 107.836C200.203 108.06 199.792 108.171 199.355 108.171C199.131 108.171 198.949 108.096 198.811 107.947C198.672 107.808 198.603 107.638 198.603 107.435L198.603 107.291C198.603 107.099 198.673 106.944 198.811 106.827C198.939 106.71 199.099 106.619 199.291 106.555C199.537 106.481 199.729 106.369 199.868 106.219C200.017 106.081 200.118 105.9 200.172 105.676C200.236 105.462 200.268 105.228 200.268 104.972L200.272 97.4197C200.272 97.1957 200.347 97.0091 200.496 96.8598C200.646 96.6999 200.838 96.62 201.072 96.6201C201.307 96.6202 201.499 96.7003 201.648 96.8604C201.798 97.0098 201.872 97.1965 201.872 97.4205L201.868 105.389ZM201.041 95.5001C200.732 95.4999 200.508 95.4465 200.369 95.3398C200.231 95.2224 200.161 95.0303 200.161 94.7637L200.162 94.5077C200.162 94.241 200.236 94.0544 200.386 93.9478C200.535 93.8412 200.759 93.788 201.058 93.7881C201.378 93.7883 201.607 93.8471 201.746 93.9645C201.884 94.0712 201.954 94.2526 201.954 94.5086L201.953 94.7646C201.953 95.0419 201.879 95.2339 201.729 95.3404C201.59 95.447 201.361 95.5003 201.041 95.5001ZM208.339 105.2C207.454 105.199 206.686 105.018 206.035 104.655C205.385 104.281 204.879 103.774 204.516 103.134C204.165 102.483 203.989 101.742 203.989 100.91C203.99 99.9709 204.177 99.171 204.551 98.5099C204.935 97.8381 205.431 97.3263 206.039 96.9746C206.647 96.6123 207.293 96.4313 207.976 96.4316C208.498 96.4319 208.994 96.5388 209.463 96.7524C209.933 96.9553 210.349 97.2435 210.711 97.617C211.084 97.9799 211.377 98.412 211.59 98.9135C211.803 99.4042 211.915 99.943 211.926 100.53C211.915 100.743 211.829 100.919 211.669 101.057C211.509 101.196 211.322 101.265 211.109 101.265L204.885 101.262L204.502 99.9019L210.518 99.9049L210.214 100.193L210.214 99.7928C210.193 99.4194 210.07 99.094 209.846 98.8166C209.623 98.5285 209.345 98.3097 209.015 98.1602C208.684 98 208.337 97.9198 207.975 97.9196C207.655 97.9195 207.345 97.9726 207.047 98.0791C206.759 98.175 206.497 98.3349 206.263 98.5588C206.038 98.7826 205.857 99.0812 205.718 99.4545C205.59 99.8171 205.526 100.27 205.525 100.814C205.525 101.401 205.647 101.913 205.893 102.351C206.138 102.788 206.468 103.13 206.884 103.375C207.3 103.61 207.759 103.728 208.26 103.728C208.655 103.728 208.98 103.691 209.236 103.616C209.492 103.531 209.705 103.43 209.876 103.313C210.047 103.195 210.196 103.083 210.324 102.977C210.484 102.881 210.644 102.833 210.804 102.833C210.996 102.833 211.156 102.903 211.284 103.041C211.412 103.169 211.476 103.324 211.476 103.505C211.476 103.74 211.358 103.953 211.124 104.145C210.836 104.422 210.435 104.668 209.923 104.881C209.422 105.094 208.894 105.2 208.339 105.2ZM217.96 96.4847C218.749 96.4851 219.357 96.6827 219.784 97.0776C220.21 97.4618 220.493 97.9847 220.631 98.6461L220.375 98.5659L220.487 98.31C220.626 98.0327 220.834 97.7555 221.112 97.4783C221.4 97.1904 221.741 96.956 222.136 96.7748C222.531 96.583 222.952 96.4872 223.4 96.4875C224.136 96.4878 224.707 96.6481 225.112 96.9683C225.517 97.2779 225.799 97.6993 225.959 98.2328C226.119 98.7555 226.199 99.3422 226.198 99.9929L226.196 104.233C226.196 104.468 226.121 104.665 225.972 104.825C225.822 104.974 225.63 105.049 225.396 105.048C225.172 105.048 224.98 104.974 224.82 104.824C224.671 104.664 224.596 104.467 224.596 104.232L224.598 100.008C224.598 99.6347 224.545 99.2934 224.439 98.984C224.343 98.6746 224.167 98.4292 223.911 98.2477C223.666 98.0556 223.325 97.9594 222.887 97.9592C222.471 97.959 222.098 98.0548 221.767 98.2466C221.447 98.4278 221.196 98.673 221.015 98.9822C220.833 99.2915 220.742 99.6328 220.742 100.006L220.74 104.23C220.74 104.465 220.665 104.662 220.516 104.822C220.366 104.971 220.174 105.046 219.94 105.046C219.705 105.046 219.513 104.971 219.364 104.821C219.215 104.661 219.14 104.464 219.14 104.229L219.142 99.9893C219.142 99.616 219.089 99.2746 218.983 98.9652C218.887 98.6558 218.716 98.4104 218.471 98.229C218.226 98.0475 217.885 97.9567 217.447 97.9564C217.031 97.9562 216.663 98.0467 216.343 98.2279C216.023 98.409 215.772 98.6543 215.591 98.9635C215.42 99.2727 215.334 99.614 215.334 99.9874L215.332 104.227C215.332 104.462 215.252 104.659 215.092 104.819C214.942 104.968 214.756 105.043 214.532 105.043C214.297 105.043 214.105 104.968 213.956 104.819C213.807 104.659 213.732 104.461 213.732 104.227L213.736 97.4425C213.736 97.2079 213.81 97.0159 213.96 96.8667C214.109 96.7067 214.301 96.6268 214.536 96.627C214.76 96.6271 214.947 96.7072 215.096 96.8672C215.256 97.0167 215.336 97.2087 215.336 97.4434L215.335 98.3874L215.031 98.5632C215.106 98.3286 215.229 98.0886 215.399 97.8434C215.57 97.5981 215.784 97.3743 216.04 97.1717C216.306 96.9692 216.6 96.804 216.92 96.6762C217.24 96.5483 217.587 96.4845 217.96 96.4847ZM232.663 96.4922C233.453 96.4926 234.06 96.6902 234.487 97.0851C234.913 97.4693 235.196 97.9921 235.334 98.6535L235.078 98.5734L235.19 98.3175C235.329 98.0402 235.537 97.763 235.815 97.4858C236.103 97.1979 236.444 96.9634 236.839 96.7823C237.234 96.5905 237.655 96.4947 238.103 96.4949C238.839 96.4953 239.41 96.6556 239.815 96.9758C240.22 97.2853 240.503 97.7068 240.662 98.2402C240.822 98.763 240.902 99.3497 240.901 100L240.899 104.24C240.899 104.475 240.824 104.672 240.675 104.832C240.526 104.981 240.333 105.056 240.099 105.056C239.875 105.056 239.683 104.981 239.523 104.832C239.374 104.672 239.299 104.474 239.299 104.24L239.301 100.016C239.302 99.6422 239.248 99.3008 239.142 98.9915C239.046 98.6821 238.87 98.4367 238.614 98.2552C238.369 98.0631 238.028 97.9669 237.59 97.9667C237.174 97.9665 236.801 98.0623 236.47 98.2541C236.15 98.4353 235.899 98.6805 235.718 98.9897C235.536 99.299 235.446 99.6402 235.445 100.014L235.443 104.238C235.443 104.472 235.368 104.67 235.219 104.829C235.07 104.979 234.877 105.053 234.643 105.053C234.408 105.053 234.216 104.978 234.067 104.829C233.918 104.669 233.843 104.471 233.843 104.237L233.845 99.9968C233.846 99.6234 233.792 99.2821 233.686 98.9727C233.59 98.6633 233.42 98.4179 233.174 98.2364C232.929 98.055 232.588 97.9641 232.15 97.9639C231.734 97.9637 231.366 98.0542 231.046 98.2353C230.726 98.4165 230.475 98.6617 230.294 98.971C230.123 99.2802 230.038 99.6215 230.037 99.9948L230.035 104.235C230.035 104.469 229.955 104.667 229.795 104.827C229.646 104.976 229.459 105.051 229.235 105.05C229 105.05 228.808 104.976 228.659 104.826C228.51 104.666 228.435 104.469 228.435 104.234L228.439 97.45C228.439 97.2154 228.514 97.0234 228.663 96.8741C228.812 96.7142 229.004 96.6343 229.239 96.6344C229.463 96.6345 229.65 96.7146 229.799 96.8747C229.959 97.0241 230.039 97.2162 230.039 97.4508L230.038 98.3948L229.734 98.5707C229.809 98.3361 229.932 98.0961 230.102 97.8509C230.273 97.6056 230.487 97.3817 230.743 97.1792C231.01 96.9767 231.303 96.8115 231.623 96.6836C231.943 96.5558 232.29 96.492 232.663 96.4922ZM247.058 105.219C246.173 105.219 245.405 105.037 244.754 104.674C244.104 104.301 243.597 103.794 243.235 103.154C242.883 102.503 242.708 101.761 242.708 100.929C242.709 99.9906 242.896 99.1907 243.269 98.5296C243.654 97.8578 244.15 97.346 244.758 96.9943C245.366 96.632 246.012 96.451 246.694 96.4513C247.217 96.4516 247.713 96.5585 248.182 96.7721C248.651 96.975 249.067 97.2632 249.43 97.6367C249.803 97.9995 250.096 98.4317 250.309 98.9331C250.522 99.4239 250.634 99.9626 250.644 100.549C250.633 100.763 250.548 100.939 250.388 101.077C250.228 101.216 250.041 101.285 249.828 101.285L243.604 101.282L243.221 99.9215L249.237 99.9246L248.932 100.212L248.933 99.8124C248.911 99.4391 248.789 99.1137 248.565 98.8363C248.341 98.5481 248.064 98.3293 247.733 98.1798C247.403 98.0197 247.056 97.9395 246.694 97.9393C246.374 97.9391 246.064 97.9923 245.765 98.0988C245.477 98.1947 245.216 98.3545 244.981 98.5784C244.757 98.8023 244.576 99.1009 244.437 99.4742C244.309 99.8368 244.244 100.29 244.244 100.834C244.244 101.421 244.366 101.933 244.611 102.37C244.856 102.808 245.187 103.149 245.603 103.395C246.019 103.63 246.477 103.747 246.979 103.747C247.373 103.748 247.699 103.71 247.955 103.636C248.211 103.551 248.424 103.45 248.595 103.332C248.766 103.215 248.915 103.103 249.043 102.996C249.203 102.901 249.363 102.853 249.523 102.853C249.715 102.853 249.875 102.922 250.003 103.061C250.131 103.189 250.195 103.344 250.195 103.525C250.195 103.76 250.077 103.973 249.842 104.165C249.554 104.442 249.154 104.687 248.642 104.9C248.141 105.113 247.613 105.22 247.058 105.219ZM251.955 103.75C251.859 103.601 251.817 103.43 251.827 103.238C251.838 103.035 251.95 102.865 252.164 102.726C252.313 102.63 252.468 102.593 252.628 102.614C252.798 102.625 252.958 102.705 253.108 102.855C253.406 103.185 253.737 103.447 254.099 103.639C254.472 103.831 254.92 103.927 255.443 103.928C255.656 103.917 255.875 103.885 256.099 103.832C256.323 103.768 256.515 103.662 256.675 103.512C256.835 103.352 256.915 103.123 256.916 102.824C256.916 102.558 256.83 102.344 256.66 102.184C256.489 102.024 256.265 101.896 255.988 101.8C255.711 101.693 255.412 101.597 255.092 101.512C254.751 101.415 254.404 101.309 254.052 101.191C253.711 101.074 253.402 100.924 253.125 100.743C252.847 100.55 252.618 100.305 252.437 100.006C252.267 99.7075 252.181 99.3394 252.182 98.9021C252.182 98.4008 252.321 97.9688 252.598 97.6063C252.886 97.2438 253.255 96.9613 253.703 96.7589C254.161 96.5564 254.657 96.4553 255.191 96.4556C255.5 96.4558 255.825 96.4986 256.167 96.5841C256.508 96.659 256.839 96.7818 257.159 96.9526C257.478 97.1234 257.756 97.3476 257.99 97.625C258.097 97.7638 258.155 97.9291 258.166 98.1211C258.187 98.3131 258.102 98.4838 257.91 98.633C257.782 98.7396 257.627 98.7875 257.446 98.7768C257.264 98.766 257.115 98.7073 256.998 98.6005C256.795 98.3444 256.534 98.147 256.214 98.0081C255.894 97.8586 255.531 97.7838 255.126 97.7836C254.923 97.7835 254.71 97.8154 254.486 97.8793C254.273 97.9325 254.091 98.0337 253.942 98.183C253.793 98.3322 253.718 98.5509 253.718 98.8389C253.717 99.1055 253.803 99.3189 253.973 99.479C254.155 99.6391 254.389 99.7725 254.677 99.8794C254.965 99.9862 255.28 100.082 255.621 100.168C255.952 100.253 256.277 100.355 256.597 100.472C256.927 100.59 257.221 100.745 257.477 100.937C257.743 101.118 257.956 101.358 258.116 101.657C258.287 101.945 258.372 102.313 258.372 102.761C258.371 103.284 258.216 103.732 257.907 104.105C257.608 104.468 257.224 104.745 256.755 104.936C256.296 105.128 255.81 105.224 255.298 105.224C254.69 105.223 254.082 105.116 253.475 104.903C252.877 104.678 252.371 104.294 251.955 103.75ZM261.595 104.251C261.595 104.486 261.521 104.683 261.371 104.843C261.222 104.992 261.03 105.067 260.795 105.066C260.571 105.066 260.379 104.992 260.219 104.842C260.07 104.682 259.995 104.485 259.995 104.25L259.999 97.4021C259.999 97.1674 260.074 96.9754 260.223 96.8262C260.383 96.6663 260.575 96.5864 260.799 96.5865C261.034 96.5866 261.226 96.6667 261.375 96.8268C261.525 96.9762 261.599 97.1682 261.599 97.4029L261.595 104.251ZM260.784 95.5305C260.475 95.5303 260.251 95.4769 260.112 95.3701C259.973 95.2527 259.904 95.0607 259.904 94.794L259.904 94.538C259.905 94.2713 259.979 94.0847 260.129 93.9781C260.278 93.8715 260.502 93.8183 260.801 93.8185C261.121 93.8186 261.35 93.8774 261.489 93.9948C261.627 94.1016 261.697 94.2829 261.696 94.5389L261.696 94.7949C261.696 95.0723 261.621 95.2642 261.472 95.3708C261.333 95.4774 261.104 95.5306 260.784 95.5305ZM270.649 93.2315C270.884 93.2316 271.076 93.3064 271.225 93.4558C271.374 93.6052 271.449 93.8025 271.449 94.0479L271.444 104.256C271.444 104.491 271.369 104.688 271.219 104.848C271.07 104.997 270.878 105.072 270.643 105.071C270.419 105.071 270.227 104.997 270.067 104.847C269.918 104.687 269.844 104.49 269.844 104.255L269.844 103.103L270.18 103.119C270.18 103.311 270.1 103.53 269.94 103.775C269.791 104.01 269.582 104.239 269.316 104.463C269.049 104.687 268.734 104.873 268.371 105.022C268.009 105.161 267.619 105.23 267.203 105.23C266.467 105.229 265.806 105.042 265.22 104.669C264.633 104.284 264.169 103.767 263.828 103.116C263.487 102.455 263.317 101.697 263.317 100.844C263.318 99.9904 263.489 99.2385 263.831 98.588C264.172 97.9268 264.631 97.4097 265.207 97.0367C265.794 96.653 266.445 96.4613 267.16 96.4617C267.608 96.4619 268.024 96.5368 268.408 96.6863C268.802 96.8359 269.143 97.028 269.431 97.2629C269.719 97.4977 269.943 97.7484 270.103 98.0152C270.263 98.2713 270.343 98.5167 270.343 98.7513L269.847 98.7991L269.849 94.0471C269.849 93.8124 269.924 93.6204 270.073 93.4712C270.233 93.3113 270.425 93.2314 270.649 93.2315ZM267.38 103.758C267.892 103.758 268.335 103.63 268.708 103.374C269.092 103.119 269.391 102.772 269.605 102.335C269.818 101.898 269.925 101.402 269.925 100.847C269.926 100.292 269.819 99.7964 269.606 99.3589C269.393 98.9215 269.095 98.5747 268.711 98.3185C268.327 98.0623 267.884 97.9341 267.383 97.9338C266.892 97.9336 266.455 98.0613 266.071 98.3171C265.697 98.573 265.398 98.9195 265.174 99.3567C264.961 99.7939 264.854 100.29 264.853 100.845C264.853 101.399 264.96 101.895 265.173 102.333C265.396 102.77 265.695 103.117 266.068 103.373C266.452 103.629 266.889 103.758 267.38 103.758ZM277.605 105.235C276.719 105.235 275.951 105.053 275.301 104.69C274.651 104.316 274.144 103.809 273.782 103.169C273.43 102.518 273.254 101.777 273.255 100.945C273.255 100.006 273.442 99.2062 273.816 98.5451C274.2 97.8733 274.697 97.3615 275.305 97.0098C275.913 96.6475 276.559 96.4665 277.241 96.4668C277.764 96.4671 278.26 96.574 278.729 96.7876C279.198 96.9905 279.614 97.2787 279.977 97.6522C280.35 98.0151 280.643 98.4472 280.856 98.9487C281.069 99.4394 281.181 99.9782 281.191 100.565C281.18 100.778 281.095 100.954 280.935 101.093C280.775 101.231 280.588 101.301 280.375 101.3L274.151 101.297L273.767 99.9371L279.783 99.9401L279.479 100.228L279.479 99.828C279.458 99.4546 279.336 99.1292 279.112 98.8518C278.888 98.5637 278.611 98.3449 278.28 98.1954C277.95 98.0352 277.603 97.955 277.24 97.9548C276.92 97.9547 276.611 98.0078 276.312 98.1144C276.024 98.2102 275.763 98.3701 275.528 98.594C275.304 98.8178 275.123 99.1164 274.984 99.4897C274.855 99.8523 274.791 100.306 274.791 100.85C274.791 101.436 274.913 101.948 275.158 102.386C275.403 102.823 275.734 103.165 276.15 103.41C276.566 103.645 277.024 103.763 277.525 103.763C277.92 103.763 278.245 103.726 278.502 103.651C278.758 103.566 278.971 103.465 279.142 103.348C279.312 103.231 279.462 103.119 279.59 103.012C279.75 102.916 279.91 102.868 280.07 102.868C280.262 102.868 280.422 102.938 280.55 103.077C280.678 103.205 280.742 103.359 280.742 103.541C280.741 103.775 280.624 103.989 280.389 104.18C280.101 104.458 279.701 104.703 279.189 104.916C278.687 105.129 278.159 105.235 277.605 105.235ZM291.274 105.082C291.018 105.082 290.81 105.007 290.651 104.858C290.501 104.698 290.427 104.5 290.427 104.266L290.432 94.6815L292.144 94.6824L292.139 104.266C292.139 104.501 292.053 104.698 291.883 104.858C291.722 105.008 291.52 105.082 291.274 105.082ZM287.647 95.4161C287.423 95.416 287.231 95.3466 287.071 95.2078C286.912 95.0584 286.832 94.8664 286.832 94.6317C286.832 94.4077 286.912 94.2264 287.072 94.0878C287.232 93.9492 287.424 93.88 287.648 93.8801L294.928 93.8838C295.152 93.8839 295.339 93.9587 295.488 94.1081C295.648 94.2468 295.728 94.4282 295.728 94.6522C295.728 94.8869 295.648 95.0735 295.487 95.2121C295.338 95.3507 295.151 95.4199 294.927 95.4198L287.647 95.4161ZM299.355 105.246C298.469 105.246 297.701 105.064 297.051 104.701C296.401 104.327 295.894 103.82 295.532 103.18C295.18 102.529 295.004 101.788 295.005 100.956C295.005 100.017 295.192 99.2173 295.566 98.5561C295.95 97.8843 296.447 97.3726 297.055 97.0209C297.663 96.6585 298.309 96.4775 298.991 96.4779C299.514 96.4781 300.01 96.5851 300.479 96.7986C300.948 97.0015 301.364 97.2898 301.727 97.6633C302.1 98.0261 302.393 98.4583 302.606 98.9597C302.819 99.4505 302.931 99.9892 302.941 100.576C302.93 100.789 302.845 100.965 302.685 101.104C302.525 101.242 302.338 101.312 302.125 101.311L295.901 101.308L295.517 99.9481L301.533 99.9512L301.229 100.239L301.229 99.839C301.208 99.4657 301.086 99.1403 300.862 98.8628C300.638 98.5747 300.361 98.3559 300.03 98.2064C299.7 98.0462 299.353 97.9661 298.99 97.9659C298.67 97.9657 298.361 98.0189 298.062 98.1254C297.774 98.2213 297.513 98.3811 297.278 98.605C297.054 98.8289 296.873 99.1275 296.734 99.5007C296.605 99.8633 296.541 100.317 296.541 100.861C296.541 101.447 296.663 101.959 296.908 102.397C297.153 102.834 297.484 103.176 297.9 103.421C298.316 103.656 298.774 103.774 299.275 103.774C299.67 103.774 299.995 103.737 300.252 103.663C300.508 103.577 300.721 103.476 300.892 103.359C301.062 103.242 301.212 103.13 301.34 103.023C301.5 102.927 301.66 102.879 301.82 102.879C302.012 102.879 302.172 102.949 302.3 103.088C302.428 103.216 302.492 103.37 302.492 103.552C302.491 103.786 302.374 104 302.139 104.191C301.851 104.469 301.451 104.714 300.939 104.927C300.437 105.14 299.909 105.246 299.355 105.246ZM308.976 96.531C309.765 96.5314 310.373 96.729 310.799 97.1239C311.226 97.5081 311.508 98.0309 311.647 98.6923L311.391 98.6122L311.503 98.3562C311.642 98.079 311.85 97.8017 312.127 97.5246C312.415 97.2367 312.757 97.0022 313.152 96.8211C313.546 96.6293 313.968 96.5335 314.416 96.5337C315.152 96.5341 315.722 96.6944 316.127 97.0146C316.533 97.3241 316.815 97.7456 316.975 98.279C317.134 98.8018 317.214 99.3885 317.214 100.039L317.212 104.279C317.212 104.514 317.137 104.711 316.987 104.871C316.838 105.02 316.646 105.095 316.411 105.095C316.187 105.095 315.995 105.02 315.835 104.87C315.686 104.71 315.612 104.513 315.612 104.278L315.614 100.054C315.614 99.681 315.561 99.3396 315.454 99.0302C315.359 98.7209 315.183 98.4754 314.927 98.294C314.682 98.1019 314.34 98.0057 313.903 98.0055C313.487 98.0052 313.114 98.1011 312.783 98.2929C312.463 98.4741 312.212 98.7193 312.03 99.0285C311.849 99.3377 311.758 99.679 311.758 100.052L311.756 104.276C311.756 104.511 311.681 104.708 311.531 104.868C311.382 105.018 311.19 105.092 310.955 105.092C310.721 105.092 310.529 105.017 310.379 104.868C310.23 104.708 310.156 104.51 310.156 104.276L310.158 100.036C310.158 99.6622 310.105 99.3209 309.998 99.0115C309.903 98.7021 309.732 98.4567 309.487 98.2752C309.242 98.0938 308.9 98.0029 308.463 98.0027C308.047 98.0025 307.679 98.093 307.359 98.2741C307.039 98.4553 306.788 98.7005 306.606 99.0097C306.436 99.319 306.35 99.6603 306.35 100.034L306.348 104.274C306.348 104.508 306.267 104.706 306.107 104.865C305.958 105.015 305.771 105.089 305.547 105.089C305.313 105.089 305.121 105.014 304.971 104.865C304.822 104.705 304.748 104.507 304.748 104.273L304.751 97.4888C304.751 97.2541 304.826 97.0622 304.975 96.9129C305.125 96.753 305.317 96.6731 305.552 96.6732C305.776 96.6733 305.962 96.7534 306.111 96.9135C306.271 97.0629 306.351 97.255 306.351 97.4896L306.351 98.4336L306.047 98.6095C306.121 98.3748 306.244 98.1349 306.415 97.8897C306.586 97.6444 306.799 97.4205 307.055 97.218C307.322 97.0154 307.615 96.8503 307.936 96.7224C308.256 96.5946 308.602 96.5308 308.976 96.531ZM326.351 96.5558C326.585 96.5559 326.777 96.636 326.927 96.7961C327.076 96.9455 327.15 97.1375 327.15 97.3722L327.147 104.284C327.147 104.519 327.072 104.716 326.923 104.876C326.773 105.025 326.581 105.1 326.346 105.1C326.122 105.1 325.93 105.025 325.771 104.875C325.621 104.715 325.547 104.518 325.547 104.283L325.547 103.131L325.883 103.18C325.883 103.372 325.803 103.585 325.643 103.819C325.494 104.054 325.286 104.283 325.019 104.507C324.752 104.72 324.437 104.901 324.074 105.051C323.712 105.189 323.322 105.258 322.906 105.258C322.17 105.258 321.509 105.071 320.923 104.697C320.336 104.313 319.872 103.79 319.531 103.128C319.19 102.467 319.02 101.715 319.021 100.872C319.021 100.008 319.192 99.2508 319.534 98.6003C319.875 97.9392 320.334 97.4221 320.911 97.049C321.497 96.676 322.148 96.4896 322.863 96.49C323.321 96.4902 323.743 96.5651 324.127 96.7147C324.521 96.8642 324.863 97.0564 325.15 97.2912C325.438 97.526 325.657 97.7768 325.806 98.0435C325.966 98.2996 326.046 98.545 326.046 98.7796L325.55 98.8274L325.55 97.3714C325.55 97.1474 325.625 96.9554 325.775 96.7955C325.935 96.6356 326.127 96.5557 326.351 96.5558ZM323.083 103.786C323.584 103.786 324.027 103.659 324.411 103.403C324.795 103.147 325.094 102.8 325.308 102.363C325.521 101.915 325.628 101.419 325.629 100.875C325.629 100.321 325.522 99.8247 325.309 99.3873C325.096 98.9498 324.798 98.603 324.414 98.3468C324.03 98.0906 323.587 97.9624 323.086 97.9621C322.595 97.9619 322.158 98.0897 321.774 98.3455C321.4 98.6013 321.102 98.9478 320.877 99.385C320.664 99.8222 320.557 100.318 320.557 100.873C320.556 101.417 320.663 101.913 320.876 102.361C321.1 102.798 321.398 103.145 321.771 103.401C322.155 103.658 322.592 103.786 323.083 103.786ZM340.13 103.619C340.343 103.619 340.519 103.694 340.658 103.843C340.807 103.982 340.882 104.158 340.881 104.371C340.881 104.585 340.807 104.76 340.657 104.899C340.518 105.038 340.342 105.107 340.129 105.107L334.513 105.104C334.278 105.104 334.092 105.034 333.953 104.896C333.815 104.757 333.745 104.57 333.745 104.336C333.746 104.122 333.82 103.93 333.97 103.76L337.54 99.9055C337.999 99.415 338.351 98.9299 338.596 98.45C338.853 97.9701 338.981 97.5489 338.981 97.1862C338.981 96.5995 338.806 96.1248 338.454 95.7619C338.102 95.3991 337.638 95.2175 337.062 95.2172C336.817 95.2171 336.566 95.2756 336.31 95.3928C336.065 95.4994 335.83 95.6486 335.606 95.8405C335.392 96.0217 335.206 96.235 335.045 96.4802C334.939 96.6295 334.832 96.7254 334.725 96.768C334.619 96.8107 334.517 96.8319 334.421 96.8319C334.219 96.8318 334.032 96.7624 333.861 96.6236C333.701 96.4742 333.622 96.3035 333.622 96.1115C333.622 95.9621 333.67 95.8182 333.766 95.6796C333.862 95.5409 333.985 95.397 334.134 95.2477C334.369 94.9599 334.652 94.704 334.982 94.4802C335.324 94.2457 335.681 94.0645 336.055 93.9367C336.428 93.8089 336.796 93.7451 337.159 93.7453C337.863 93.7456 338.471 93.8846 338.983 94.1622C339.505 94.4398 339.905 94.8293 340.182 95.3308C340.47 95.8323 340.613 96.4244 340.613 97.107C340.613 97.683 340.436 98.3229 340.084 99.0268C339.742 99.7199 339.262 100.402 338.643 101.074L336.162 103.777L335.986 103.617L340.13 103.619ZM343.628 98.7086C343.361 98.7084 343.153 98.639 343.004 98.5002C342.865 98.3508 342.796 98.1428 342.796 97.8761L342.796 97.5721C342.796 97.3055 342.866 97.0975 343.004 96.9482C343.154 96.799 343.362 96.7244 343.629 96.7246L343.805 96.7247C344.071 96.7248 344.274 96.7996 344.412 96.949C344.551 97.0984 344.62 97.3064 344.62 97.5731L344.62 97.8771C344.62 98.1437 344.55 98.3517 344.412 98.501C344.273 98.6396 344.07 98.7088 343.804 98.7087L343.628 98.7086ZM343.624 105.109C343.358 105.108 343.15 105.034 343 104.884C342.862 104.735 342.793 104.527 342.793 104.26L342.793 103.972C342.793 103.695 342.862 103.487 343.001 103.348C343.151 103.199 343.359 103.124 343.625 103.125L343.801 103.125C344.068 103.125 344.271 103.2 344.409 103.349C344.548 103.488 344.617 103.696 344.617 103.973L344.617 104.261C344.617 104.528 344.547 104.736 344.408 104.885C344.27 105.034 344.067 105.109 343.8 105.109L343.624 105.109ZM352.277 93.913C352.491 93.9131 352.677 93.9932 352.837 94.1532C353.008 94.3027 353.093 94.4947 353.093 94.7294L353.088 104.297C353.077 104.532 352.987 104.729 352.816 104.889C352.656 105.038 352.464 105.113 352.24 105.113C351.994 105.113 351.792 105.038 351.632 104.889C351.483 104.729 351.408 104.531 351.408 104.297L351.413 94.7285C351.413 94.4939 351.493 94.3019 351.653 94.1526C351.813 93.9927 352.021 93.9128 352.277 93.913ZM359.493 93.9166C359.749 93.9168 359.952 93.9969 360.101 94.1569C360.25 94.3063 360.325 94.4984 360.325 94.7331L360.32 104.301C360.32 104.536 360.24 104.733 360.08 104.893C359.93 105.042 359.728 105.117 359.472 105.117C359.248 105.117 359.056 105.042 358.896 104.892C358.736 104.732 358.656 104.535 358.656 104.3L358.661 94.7322C358.661 94.4975 358.741 94.3056 358.901 94.1563C359.072 93.9964 359.269 93.9165 359.493 93.9166ZM352.211 98.6809L359.507 98.6846L359.49 100.221L352.194 100.217L352.211 98.6809ZM362.624 96.7982L366.384 96.8001C366.597 96.8002 366.773 96.875 366.912 97.0244C367.061 97.1631 367.136 97.3392 367.136 97.5525C367.135 97.7552 367.061 97.9258 366.911 98.0644C366.773 98.203 366.596 98.2722 366.383 98.2721L362.623 98.2702C362.41 98.2701 362.229 98.2007 362.079 98.0619C361.941 97.9125 361.871 97.7365 361.872 97.5338C361.872 97.3205 361.941 97.1445 362.08 97.0059C362.229 96.8674 362.411 96.7981 362.624 96.7982ZM364.305 94.7191C364.54 94.7192 364.732 94.7993 364.881 94.9594C365.03 95.1088 365.105 95.3008 365.105 95.5355L365.101 102.959C365.101 103.151 365.133 103.306 365.197 103.424C365.26 103.541 365.346 103.621 365.452 103.664C365.57 103.706 365.687 103.728 365.804 103.728C365.922 103.728 366.023 103.707 366.108 103.664C366.204 103.621 366.316 103.6 366.444 103.6C366.572 103.6 366.69 103.659 366.796 103.776C366.903 103.894 366.956 104.054 366.956 104.256C366.956 104.512 366.817 104.72 366.54 104.88C366.262 105.04 365.964 105.12 365.644 105.12C365.462 105.12 365.249 105.104 365.004 105.071C364.758 105.039 364.518 104.959 364.284 104.831C364.06 104.703 363.873 104.5 363.724 104.223C363.575 103.935 363.5 103.535 363.501 103.023L363.505 95.5347C363.505 95.3 363.579 95.108 363.729 94.9588C363.889 94.7989 364.081 94.719 364.305 94.7191ZM368.796 96.8014L372.556 96.8033C372.769 96.8034 372.945 96.8781 373.084 97.0275C373.233 97.1663 373.307 97.3423 373.307 97.5556C373.307 97.7583 373.233 97.9289 373.083 98.0675C372.944 98.2061 372.768 98.2754 372.555 98.2753L368.795 98.2734C368.582 98.2732 368.4 98.2038 368.251 98.0651C368.113 97.9157 368.043 97.7396 368.043 97.537C368.043 97.3236 368.113 97.1477 368.252 97.0091C368.401 96.8705 368.582 96.8012 368.796 96.8014ZM370.477 94.7222C370.711 94.7223 370.903 94.8024 371.053 94.9625C371.202 95.1119 371.277 95.3039 371.276 95.5386L371.273 102.963C371.273 103.155 371.304 103.309 371.368 103.427C371.432 103.544 371.518 103.624 371.624 103.667C371.742 103.71 371.859 103.731 371.976 103.731C372.094 103.731 372.195 103.71 372.28 103.667C372.376 103.625 372.488 103.603 372.616 103.603C372.744 103.603 372.862 103.662 372.968 103.779C373.075 103.897 373.128 104.057 373.128 104.26C373.128 104.516 372.989 104.723 372.712 104.883C372.434 105.043 372.136 105.123 371.816 105.123C371.634 105.123 371.421 105.107 371.176 105.075C370.93 105.042 370.69 104.962 370.456 104.834C370.232 104.706 370.045 104.503 369.896 104.226C369.747 103.938 369.672 103.538 369.673 103.026L369.676 95.5378C369.677 95.3031 369.751 95.1112 369.901 94.9619C370.061 94.802 370.253 94.7221 370.477 94.7222ZM379.32 96.5667C380.066 96.5671 380.728 96.7541 381.303 97.1277C381.89 97.5013 382.354 98.0136 382.695 98.6644C383.036 99.3046 383.206 100.051 383.206 100.905C383.205 101.758 383.034 102.515 382.692 103.176C382.351 103.827 381.892 104.339 381.316 104.712C380.739 105.085 380.089 105.271 379.363 105.271C378.958 105.271 378.574 105.206 378.211 105.078C377.849 104.95 377.529 104.784 377.252 104.582C376.974 104.368 376.745 104.144 376.564 103.909C376.393 103.675 376.287 103.456 376.244 103.253L376.676 103.045L376.674 107.509C376.674 107.744 376.594 107.936 376.434 108.085C376.284 108.245 376.098 108.325 375.874 108.325C375.639 108.325 375.447 108.245 375.298 108.085C375.149 107.935 375.074 107.743 375.074 107.509L375.079 97.4925C375.079 97.2685 375.154 97.0766 375.304 96.9167C375.453 96.7567 375.645 96.6768 375.88 96.677C376.104 96.6771 376.29 96.7572 376.44 96.9172C376.599 97.0773 376.679 97.2694 376.679 97.4934L376.679 98.5974L376.423 98.4532C376.455 98.2506 376.556 98.0426 376.727 97.8294C376.898 97.6055 377.111 97.3976 377.367 97.2057C377.634 97.0138 377.933 96.8593 378.264 96.7422C378.605 96.625 378.957 96.5665 379.32 96.5667ZM379.143 98.0386C378.631 98.0384 378.183 98.1661 377.799 98.4219C377.425 98.6671 377.132 99.0029 376.918 99.4295C376.705 99.856 376.598 100.347 376.598 100.901C376.597 101.445 376.704 101.941 376.917 102.389C377.13 102.827 377.423 103.174 377.796 103.43C378.18 103.675 378.628 103.798 379.14 103.799C379.641 103.799 380.079 103.676 380.452 103.431C380.826 103.175 381.119 102.829 381.333 102.392C381.557 101.944 381.669 101.448 381.67 100.904C381.67 100.36 381.558 99.8745 381.334 99.4477C381.121 99.0103 380.828 98.6688 380.455 98.4233C380.082 98.1671 379.644 98.0389 379.143 98.0386ZM384.518 103.817C384.422 103.668 384.379 103.497 384.39 103.305C384.401 103.103 384.513 102.932 384.726 102.793C384.875 102.698 385.03 102.66 385.19 102.682C385.361 102.692 385.521 102.773 385.67 102.922C385.969 103.253 386.299 103.514 386.662 103.706C387.035 103.899 387.483 103.995 388.005 103.995C388.219 103.985 388.437 103.953 388.662 103.899C388.886 103.836 389.078 103.729 389.238 103.58C389.398 103.42 389.478 103.191 389.478 102.892C389.478 102.625 389.393 102.412 389.222 102.252C389.052 102.092 388.828 101.964 388.551 101.867C388.273 101.761 387.975 101.664 387.655 101.579C387.313 101.483 386.967 101.376 386.615 101.258C386.274 101.141 385.964 100.991 385.687 100.81C385.41 100.618 385.181 100.372 384.999 100.074C384.829 99.7748 384.744 99.4068 384.744 98.9695C384.744 98.4681 384.883 98.0362 385.161 97.6737C385.449 97.3112 385.817 97.0287 386.265 96.8262C386.724 96.6238 387.22 96.5227 387.753 96.523C388.063 96.5231 388.388 96.566 388.729 96.6515C389.071 96.7263 389.401 96.8492 389.721 97.02C390.041 97.1908 390.318 97.415 390.553 97.6924C390.659 97.8311 390.718 97.9965 390.728 98.1885C390.75 98.3805 390.664 98.5511 390.472 98.7004C390.344 98.807 390.189 98.8549 390.008 98.8441C389.827 98.8334 389.677 98.7746 389.56 98.6679C389.358 98.4118 389.096 98.2143 388.776 98.0755C388.457 97.926 388.094 97.8512 387.689 97.851C387.486 97.8509 387.273 97.8827 387.049 97.9466C386.835 97.9999 386.654 98.1011 386.504 98.2504C386.355 98.3996 386.28 98.6182 386.28 98.9062C386.28 99.1729 386.365 99.3863 386.536 99.5464C386.717 99.7065 386.952 99.8399 387.24 99.9467C387.527 100.054 387.842 100.15 388.183 100.235C388.514 100.321 388.839 100.422 389.159 100.54C389.49 100.657 389.783 100.812 390.039 101.004C390.306 101.186 390.519 101.426 390.679 101.724C390.849 102.013 390.934 102.381 390.934 102.829C390.934 103.351 390.779 103.799 390.469 104.172C390.171 104.535 389.786 104.812 389.317 105.004C388.858 105.196 388.373 105.291 387.861 105.291C387.253 105.291 386.645 105.184 386.037 104.97C385.44 104.746 384.933 104.362 384.518 103.817ZM393.409 98.7339C393.142 98.7337 392.934 98.6643 392.785 98.5255C392.646 98.3761 392.577 98.1681 392.577 97.9014L392.577 97.5974C392.577 97.3308 392.647 97.1228 392.786 96.9735C392.935 96.8243 393.143 96.7497 393.41 96.7499L393.586 96.75C393.852 96.7501 394.055 96.8249 394.194 96.9743C394.332 97.1237 394.401 97.3317 394.401 97.5984L394.401 97.9024C394.401 98.169 394.332 98.377 394.193 98.5263C394.054 98.6649 393.851 98.7341 393.585 98.734L393.409 98.7339ZM393.406 105.134C393.139 105.134 392.931 105.059 392.782 104.91C392.643 104.76 392.574 104.552 392.574 104.285L392.574 103.997C392.574 103.72 392.644 103.512 392.782 103.374C392.932 103.224 393.14 103.15 393.407 103.15L393.583 103.15C393.849 103.15 394.052 103.225 394.19 103.374C394.329 103.513 394.398 103.721 394.398 103.998L394.398 104.286C394.398 104.553 394.328 104.761 394.19 104.91C394.051 105.06 393.848 105.134 393.582 105.134L393.406 105.134ZM396.527 107.247C396.367 107.247 396.207 107.183 396.047 107.055C395.887 106.927 395.807 106.767 395.807 106.575C395.807 106.458 395.839 106.346 395.903 106.239L402.55 92.7865C402.625 92.6372 402.716 92.5253 402.822 92.4506C402.94 92.376 403.068 92.3388 403.206 92.3388C403.356 92.3389 403.505 92.3977 403.654 92.5151C403.814 92.6325 403.894 92.7979 403.894 93.0112C403.894 93.1285 403.867 93.2458 403.814 93.3632L397.167 106.816C397.092 106.954 397.001 107.061 396.895 107.136C396.788 107.21 396.665 107.248 396.527 107.247ZM403.902 107.251C403.742 107.251 403.582 107.187 403.422 107.059C403.262 106.931 403.182 106.771 403.182 106.579C403.182 106.461 403.214 106.35 403.278 106.243L409.925 92.7903C410 92.641 410.091 92.529 410.197 92.4544C410.315 92.3798 410.443 92.3425 410.581 92.3426C410.731 92.3427 410.88 92.4014 411.029 92.5188C411.189 92.6362 411.269 92.8016 411.269 93.0149C411.269 93.1323 411.242 93.2496 411.189 93.3669L404.542 106.82C404.467 106.958 404.376 107.065 404.27 107.139C404.163 107.214 404.04 107.251 403.902 107.251ZM413.792 93.9282C413.92 93.9283 414.054 93.9604 414.192 94.0244C414.331 94.0885 414.437 94.1792 414.512 94.2966L418.573 100.491L417.885 100.458L422.032 94.3004C422.203 94.0552 422.422 93.9326 422.688 93.9327C422.902 93.9329 423.088 94.0129 423.248 94.173C423.419 94.3225 423.504 94.5145 423.504 94.7492L423.499 104.333C423.499 104.568 423.424 104.765 423.275 104.925C423.125 105.074 422.928 105.149 422.683 105.149C422.427 105.149 422.219 105.074 422.059 104.924C421.909 104.764 421.835 104.567 421.835 104.332L421.839 96.2203L422.351 96.3326L418.828 101.691C418.754 101.787 418.658 101.872 418.54 101.947C418.423 102.011 418.3 102.037 418.172 102.026C418.055 102.037 417.932 102.01 417.804 101.946C417.687 101.872 417.591 101.786 417.516 101.69L414.127 96.4084L414.511 95.7686L414.507 104.329C414.507 104.563 414.432 104.761 414.283 104.92C414.144 105.07 413.957 105.144 413.723 105.144C413.499 105.144 413.312 105.069 413.163 104.92C413.024 104.76 412.955 104.562 412.955 104.328L412.96 94.7438C412.96 94.5198 413.04 94.3278 413.2 94.1679C413.371 94.008 413.568 93.9281 413.792 93.9282ZM427.439 104.335C427.439 104.57 427.364 104.767 427.215 104.927C427.065 105.076 426.873 105.151 426.639 105.151C426.415 105.151 426.223 105.076 426.063 104.926C425.914 104.766 425.839 104.569 425.839 104.334L425.843 97.4863C425.843 97.2517 425.918 97.0597 426.067 96.9105C426.227 96.7505 426.419 96.6706 426.643 96.6708C426.878 96.6709 427.07 96.751 427.219 96.911C427.368 97.0605 427.443 97.2525 427.443 97.4872L427.439 104.335ZM426.628 95.6147C426.318 95.6146 426.094 95.5611 425.956 95.4544C425.817 95.337 425.748 95.145 425.748 94.8783L425.748 94.6223C425.748 94.3556 425.823 94.169 425.972 94.0624C426.122 93.9558 426.346 93.9026 426.644 93.9028C426.964 93.9029 427.194 93.9617 427.332 94.0791C427.471 94.1858 427.54 94.3672 427.54 94.6232L427.54 94.8792C427.54 95.1565 427.465 95.3485 427.316 95.4551C427.177 95.5617 426.948 95.6149 426.628 95.6147ZM431.319 104.337C431.319 104.572 431.239 104.769 431.079 104.929C430.93 105.078 430.743 105.153 430.519 105.153C430.295 105.153 430.103 105.078 429.943 104.928C429.794 104.768 429.719 104.571 429.719 104.336L429.725 94.1283C429.725 93.8937 429.805 93.7017 429.965 93.5524C430.125 93.3925 430.317 93.3126 430.541 93.3127C430.776 93.3129 430.962 93.393 431.101 93.553C431.25 93.7024 431.325 93.8945 431.325 94.1291L431.319 104.337ZM437.464 105.316C436.579 105.316 435.811 105.134 435.16 104.771C434.51 104.397 434.003 103.89 433.641 103.25C433.289 102.599 433.114 101.858 433.114 101.026C433.115 100.087 433.302 99.2875 433.675 98.6263C434.06 97.9545 434.556 97.4428 435.164 97.0911C435.772 96.7287 436.418 96.5477 437.101 96.5481C437.623 96.5483 438.119 96.6553 438.588 96.8688C439.058 97.0717 439.473 97.3599 439.836 97.7335C440.209 98.0963 440.502 98.5285 440.715 99.0299C440.928 99.5207 441.04 100.059 441.05 100.646C441.04 100.859 440.954 101.035 440.794 101.174C440.634 101.313 440.447 101.382 440.234 101.382L434.01 101.378L433.627 100.018L439.643 100.021L439.339 100.309L439.339 99.9092C439.318 99.5359 439.195 99.2105 438.971 98.933C438.747 98.6449 438.47 98.4261 438.14 98.2766C437.809 98.1164 437.462 98.0363 437.1 98.0361C436.78 98.0359 436.47 98.0891 436.172 98.1956C435.884 98.2915 435.622 98.4513 435.387 98.6752C435.163 98.8991 434.982 99.1977 434.843 99.5709C434.715 99.9335 434.651 100.387 434.65 100.931C434.65 101.517 434.772 102.03 435.017 102.467C435.263 102.904 435.593 103.246 436.009 103.492C436.425 103.726 436.883 103.844 437.385 103.844C437.779 103.844 438.105 103.807 438.361 103.733C438.617 103.648 438.83 103.546 439.001 103.429C439.172 103.312 439.321 103.2 439.449 103.093C439.609 102.997 439.769 102.949 439.929 102.95C440.121 102.95 440.281 103.019 440.409 103.158C440.537 103.286 440.601 103.441 440.601 103.622C440.601 103.857 440.483 104.07 440.249 104.262C439.96 104.539 439.56 104.784 439.048 104.997C438.547 105.21 438.019 105.317 437.464 105.316ZM447.197 96.5532C447.954 96.5536 448.541 96.7139 448.957 97.0341C449.373 97.3436 449.66 97.7651 449.82 98.2985C449.991 98.8213 450.076 99.408 450.075 100.059L450.073 104.347C450.073 104.581 449.993 104.779 449.833 104.939C449.683 105.088 449.497 105.162 449.273 105.162C449.038 105.162 448.846 105.087 448.697 104.938C448.547 104.778 448.473 104.581 448.473 104.346L448.475 100.074C448.475 99.6899 448.422 99.3485 448.316 99.0498C448.209 98.7404 448.023 98.495 447.756 98.3135C447.5 98.1214 447.138 98.0252 446.668 98.0249C446.231 98.0247 445.847 98.1205 445.516 98.3123C445.185 98.4935 444.924 98.7387 444.732 99.0479C444.55 99.3465 444.459 99.6878 444.459 100.072L444.457 104.344C444.457 104.578 444.377 104.776 444.217 104.936C444.067 105.085 443.881 105.16 443.657 105.159C443.422 105.159 443.23 105.085 443.081 104.935C442.931 104.775 442.857 104.578 442.857 104.343L442.86 97.559C442.861 97.3243 442.935 97.1324 443.085 96.9831C443.234 96.8232 443.426 96.7433 443.661 96.7434C443.885 96.7435 444.072 96.8236 444.221 96.9837C444.381 97.1331 444.461 97.3251 444.46 97.5598L444.46 98.4558L444.172 98.6157C444.247 98.381 444.375 98.1464 444.556 97.9119C444.748 97.6666 444.978 97.4427 445.245 97.2402C445.511 97.027 445.81 96.8618 446.141 96.7447C446.472 96.6168 446.824 96.553 447.197 96.5532ZM456.214 105.326C455.329 105.325 454.561 105.144 453.91 104.781C453.26 104.407 452.753 103.9 452.391 103.26C452.039 102.609 451.864 101.868 451.864 101.036C451.865 100.097 452.052 99.297 452.425 98.6359C452.81 97.9641 453.306 97.4523 453.914 97.1006C454.522 96.7383 455.168 96.5573 455.851 96.5576C456.373 96.5579 456.869 96.6648 457.338 96.8784C457.808 97.0813 458.223 97.3695 458.586 97.743C458.959 98.1058 459.252 98.538 459.465 99.0394C459.678 99.5302 459.79 100.069 459.8 100.656C459.79 100.869 459.704 101.045 459.544 101.183C459.384 101.322 459.197 101.391 458.984 101.391L452.76 101.388L452.377 100.028L458.393 100.031L458.089 100.319L458.089 99.9187C458.068 99.5454 457.945 99.22 457.721 98.9426C457.497 98.6544 457.22 98.4356 456.89 98.2861C456.559 98.126 456.212 98.0458 455.85 98.0456C455.53 98.0454 455.22 98.0986 454.922 98.2051C454.634 98.301 454.372 98.4608 454.137 98.6847C453.913 98.9086 453.732 99.2072 453.593 99.5805C453.465 99.9431 453.401 100.396 453.4 100.94C453.4 101.527 453.522 102.039 453.767 102.477C454.013 102.914 454.343 103.255 454.759 103.501C455.175 103.736 455.633 103.853 456.135 103.854C456.529 103.854 456.855 103.817 457.111 103.742C457.367 103.657 457.58 103.556 457.751 103.439C457.922 103.321 458.071 103.209 458.199 103.103C458.359 103.007 458.519 102.959 458.679 102.959C458.871 102.959 459.031 103.029 459.159 103.167C459.287 103.295 459.351 103.45 459.351 103.631C459.351 103.866 459.233 104.079 458.999 104.271C458.71 104.548 458.31 104.794 457.798 105.007C457.297 105.22 456.769 105.326 456.214 105.326ZM465.835 96.6107C466.624 96.6111 467.232 96.8087 467.659 97.2036C468.085 97.5878 468.368 98.1106 468.506 98.772L468.25 98.6919L468.362 98.436C468.501 98.1587 468.709 97.8815 468.986 97.6043C469.275 97.3164 469.616 97.0819 470.011 96.9008C470.406 96.709 470.827 96.6132 471.275 96.6134C472.011 96.6138 472.582 96.7741 472.987 97.0943C473.392 97.4038 473.674 97.8253 473.834 98.3587C473.994 98.8815 474.074 99.4682 474.073 100.119L474.071 104.359C474.071 104.594 473.996 104.791 473.847 104.951C473.697 105.1 473.505 105.175 473.271 105.174C473.047 105.174 472.855 105.1 472.695 104.95C472.545 104.79 472.471 104.593 472.471 104.358L472.473 100.134C472.473 99.7607 472.42 99.4194 472.314 99.11C472.218 98.8006 472.042 98.5552 471.786 98.3737C471.541 98.1816 471.2 98.0854 470.762 98.0852C470.346 98.085 469.973 98.1808 469.642 98.3726C469.322 98.5538 469.071 98.799 468.89 99.1082C468.708 99.4175 468.617 99.7588 468.617 100.132L468.615 104.356C468.615 104.591 468.54 104.788 468.391 104.948C468.241 105.097 468.049 105.172 467.815 105.172C467.58 105.172 467.388 105.097 467.239 104.947C467.089 104.787 467.015 104.59 467.015 104.355L467.017 100.115C467.017 99.7419 466.964 99.4006 466.858 99.0912C466.762 98.7818 466.591 98.5364 466.346 98.3549C466.101 98.1735 465.76 98.0826 465.322 98.0824C464.906 98.0822 464.538 98.1727 464.218 98.3539C463.898 98.535 463.647 98.7802 463.466 99.0895C463.295 99.3987 463.209 99.74 463.209 100.113L463.207 104.353C463.207 104.588 463.127 104.785 462.967 104.945C462.817 105.094 462.631 105.169 462.407 105.169C462.172 105.169 461.98 105.094 461.831 104.945C461.681 104.785 461.607 104.587 461.607 104.353L461.61 97.5685C461.611 97.3339 461.685 97.1419 461.835 96.9926C461.984 96.8327 462.176 96.7528 462.411 96.7529C462.635 96.753 462.822 96.8331 462.971 96.9932C463.131 97.1426 463.211 97.3347 463.21 97.5693L463.21 98.5133L462.906 98.6892C462.981 98.4546 463.103 98.2146 463.274 97.9694C463.445 97.7241 463.659 97.5002 463.915 97.2977C464.181 97.0952 464.475 96.93 464.795 96.8021C465.115 96.6743 465.462 96.6105 465.835 96.6107ZM477.814 104.361C477.814 104.595 477.739 104.793 477.59 104.953C477.44 105.102 477.248 105.176 477.014 105.176C476.79 105.176 476.598 105.101 476.438 104.952C476.289 104.792 476.214 104.595 476.214 104.36L476.218 97.512C476.218 97.2773 476.293 97.0853 476.442 96.9361C476.602 96.7761 476.794 96.6962 477.018 96.6964C477.253 96.6965 477.445 96.7766 477.594 96.9367C477.743 97.0861 477.818 97.2781 477.818 97.5128L477.814 104.361ZM477.003 95.6404C476.693 95.6402 476.469 95.5867 476.331 95.48C476.192 95.3626 476.123 95.1706 476.123 94.9039L476.123 94.6479C476.123 94.3812 476.198 94.1946 476.347 94.088C476.497 93.9814 476.721 93.9282 477.019 93.9284C477.339 93.9285 477.569 93.9873 477.707 94.1047C477.846 94.2114 477.915 94.3928 477.915 94.6488L477.915 94.9048C477.915 95.1821 477.84 95.3741 477.691 95.4807C477.552 95.5873 477.323 95.6405 477.003 95.6404ZM484.306 96.5721C485.064 96.5724 485.65 96.7327 486.066 97.053C486.482 97.3625 486.77 97.784 486.929 98.3174C487.1 98.8401 487.185 99.4269 487.185 100.078L487.182 104.366C487.182 104.6 487.102 104.797 486.942 104.957C486.793 105.107 486.606 105.181 486.382 105.181C486.147 105.181 485.955 105.106 485.806 104.957C485.657 104.797 485.582 104.599 485.582 104.365L485.585 100.093C485.585 99.7087 485.532 99.3674 485.425 99.0686C485.319 98.7592 485.132 98.5138 484.865 98.3323C484.61 98.1402 484.247 98.044 483.778 98.0438C483.34 98.0436 482.956 98.1394 482.625 98.3312C482.295 98.5124 482.033 98.7576 481.841 99.0668C481.66 99.3654 481.569 99.7067 481.569 100.091L481.566 104.363C481.566 104.597 481.486 104.795 481.326 104.955C481.177 105.104 480.99 105.178 480.766 105.178C480.531 105.178 480.339 105.103 480.19 104.954C480.041 104.794 479.966 104.597 479.966 104.362L479.97 97.5779C479.97 97.3432 480.045 97.1512 480.194 97.002C480.344 96.842 480.536 96.7621 480.77 96.7623C480.994 96.7624 481.181 96.8425 481.33 97.0025C481.49 97.152 481.57 97.344 481.57 97.5787L481.569 98.4747L481.281 98.6345C481.356 98.3999 481.484 98.1653 481.666 97.9307C481.858 97.6855 482.087 97.4616 482.354 97.2591C482.621 97.0459 482.92 96.8807 483.25 96.7635C483.581 96.6357 483.933 96.5719 484.306 96.5721ZM490.011 105.167C489.745 105.167 489.537 105.092 489.388 104.943C489.249 104.793 489.18 104.585 489.18 104.319L489.18 104.031C489.18 103.764 489.25 103.556 489.388 103.407C489.538 103.257 489.746 103.183 490.013 103.183L490.189 103.183C490.455 103.183 490.658 103.258 490.796 103.407C490.935 103.557 491.004 103.765 491.004 104.031L491.004 104.319C491.004 104.586 490.934 104.794 490.796 104.943C490.657 105.093 490.454 105.167 490.187 105.167L490.011 105.167ZM497.915 93.987C498.693 93.9874 499.381 94.1371 499.978 94.436C500.576 94.7243 501.071 95.1299 501.466 95.6528C501.871 96.165 502.174 96.7625 502.377 97.4452C502.579 98.1173 502.68 98.8321 502.68 99.5894C502.679 100.624 502.497 101.568 502.134 102.421C501.771 103.264 501.237 103.935 500.533 104.436C499.829 104.937 498.954 105.188 497.909 105.187L494.005 105.185C493.781 105.185 493.589 105.11 493.429 104.961C493.269 104.801 493.189 104.603 493.189 104.369L493.194 94.8006C493.194 94.5659 493.274 94.374 493.434 94.2247C493.595 94.0648 493.787 93.9849 494.011 93.985L497.915 93.987ZM497.75 103.651C498.507 103.651 499.12 103.465 499.59 103.092C500.059 102.719 500.401 102.228 500.615 101.62C500.839 101.002 500.951 100.325 500.952 99.5885C500.952 99.0445 500.888 98.5325 500.76 98.0524C500.643 97.5617 500.452 97.1296 500.185 96.7561C499.929 96.372 499.599 96.0732 499.194 95.8596C498.799 95.6354 498.319 95.5232 497.754 95.5229L494.73 95.5214L494.874 95.3774L494.87 103.809L494.774 103.649L497.75 103.651ZM505.394 105.191C505.17 105.191 504.978 105.116 504.818 104.966C504.669 104.806 504.594 104.609 504.594 104.374L504.6 94.1664C504.6 93.9317 504.674 93.7397 504.824 93.5905C504.984 93.4306 505.176 93.3507 505.4 93.3508C505.635 93.3509 505.827 93.431 505.976 93.5911C506.125 93.7405 506.2 93.9325 506.2 94.1672L506.194 104.375C506.194 104.61 506.12 104.807 505.97 104.967C505.821 105.116 505.629 105.191 505.394 105.191ZM510.614 96.7454C510.817 96.7455 510.993 96.831 511.142 97.0017C511.291 97.1724 511.366 97.3431 511.366 97.5138C511.366 97.7271 511.264 97.9244 511.062 98.1057L506.051 102.583L505.988 100.743L510.022 97.0011C510.193 96.8306 510.39 96.7453 510.614 96.7454ZM510.802 105.178C510.578 105.177 510.386 105.087 510.226 104.905L507.028 101.528L508.244 100.408L511.363 103.786C511.533 103.967 511.619 104.17 511.618 104.394C511.618 104.629 511.522 104.821 511.33 104.97C511.149 105.108 510.973 105.178 510.802 105.178ZM513.355 107.307C513.195 107.307 513.035 107.243 512.875 107.115C512.715 106.986 512.635 106.826 512.635 106.634C512.635 106.517 512.667 106.405 512.731 106.299L519.378 92.8459C519.453 92.6966 519.544 92.5846 519.65 92.51C519.768 92.4354 519.896 92.3982 520.034 92.3982C520.184 92.3983 520.333 92.457 520.482 92.5744C520.642 92.6919 520.722 92.8572 520.722 93.0706C520.722 93.1879 520.695 93.3052 520.642 93.4225L513.995 106.875C513.92 107.014 513.83 107.12 513.723 107.195C513.616 107.27 513.493 107.307 513.355 107.307ZM535.133 93.9579C535.347 93.958 535.544 94.0381 535.725 94.1982C535.906 94.3476 535.997 94.5557 535.997 94.8223C535.997 94.897 535.981 94.9877 535.949 95.0943L532.664 104.693C532.61 104.853 532.514 104.975 532.376 105.06C532.237 105.146 532.093 105.194 531.944 105.204C531.794 105.204 531.645 105.161 531.496 105.076C531.346 104.991 531.234 104.863 531.16 104.692L528.635 98.7706L528.779 98.8347L526.28 104.689C526.194 104.86 526.077 104.988 525.928 105.073C525.789 105.158 525.64 105.201 525.48 105.201C525.341 105.19 525.202 105.142 525.064 105.057C524.925 104.971 524.829 104.849 524.776 104.689L521.501 95.087C521.469 94.9803 521.453 94.8896 521.453 94.8149C521.453 94.5483 521.549 94.3403 521.741 94.1911C521.933 94.0312 522.131 93.9513 522.333 93.9514C522.504 93.9515 522.659 93.9996 522.797 94.0956C522.947 94.181 523.048 94.3091 523.101 94.4798L525.865 102.737L525.577 102.737L528.012 96.7863C528.087 96.6263 528.188 96.4984 528.316 96.4024C528.455 96.3065 528.609 96.2639 528.78 96.2747C528.951 96.2641 529.1 96.3068 529.228 96.4029C529.367 96.499 529.468 96.627 529.532 96.787L531.833 102.564L531.593 102.692L534.349 94.4855C534.402 94.3149 534.504 94.1869 534.653 94.1017C534.803 94.0057 534.963 93.9578 535.133 93.9579ZM541.136 105.369C540.251 105.368 539.483 105.187 538.832 104.824C538.182 104.45 537.675 103.943 537.313 103.303C536.961 102.652 536.786 101.911 536.786 101.079C536.787 100.14 536.974 99.3402 537.347 98.679C537.732 98.0072 538.228 97.4955 538.836 97.1438C539.444 96.7814 540.09 96.6004 540.772 96.6008C541.295 96.601 541.791 96.7079 542.26 96.9215C542.729 97.1244 543.145 97.4126 543.508 97.7861C543.881 98.149 544.174 98.5812 544.387 99.0826C544.6 99.5734 544.712 100.112 544.722 100.699C544.711 100.912 544.626 101.088 544.466 101.227C544.306 101.365 544.119 101.434 543.906 101.434L537.682 101.431L537.299 100.071L543.315 100.074L543.01 100.362L543.011 99.9619C542.989 99.5886 542.867 99.2632 542.643 98.9857C542.419 98.6976 542.142 98.4788 541.811 98.3293C541.481 98.1691 541.134 98.0889 540.772 98.0888C540.452 98.0886 540.142 98.1418 539.844 98.2483C539.555 98.3441 539.294 98.504 539.059 98.7279C538.835 98.9518 538.654 99.2503 538.515 99.6236C538.387 99.9862 538.322 100.44 538.322 100.984C538.322 101.57 538.444 102.082 538.689 102.52C538.934 102.957 539.265 103.299 539.681 103.544C540.097 103.779 540.555 103.897 541.057 103.897C541.451 103.897 541.777 103.86 542.033 103.785C542.289 103.7 542.502 103.599 542.673 103.482C542.844 103.364 542.993 103.253 543.121 103.146C543.281 103.05 543.441 103.002 543.601 103.002C543.793 103.002 543.953 103.072 544.081 103.21C544.209 103.339 544.273 103.493 544.273 103.675C544.273 103.909 544.155 104.122 543.92 104.314C543.632 104.592 543.232 104.837 542.72 105.05C542.219 105.263 541.691 105.369 541.136 105.369ZM550.773 96.6058C551.52 96.6062 552.181 96.7932 552.757 97.1669C553.343 97.5405 553.807 98.0581 554.148 98.7196C554.489 99.3704 554.659 100.122 554.659 100.976C554.658 101.829 554.487 102.586 554.145 103.248C553.804 103.909 553.345 104.431 552.769 104.815C552.192 105.188 551.542 105.374 550.816 105.374C550.411 105.374 550.027 105.309 549.664 105.181C549.302 105.042 548.982 104.872 548.705 104.669C548.428 104.455 548.198 104.231 548.017 103.996C547.847 103.762 547.74 103.543 547.697 103.34L548.13 103.132L548.129 104.524C548.129 104.748 548.049 104.94 547.889 105.1C547.739 105.25 547.552 105.324 547.328 105.324C547.094 105.324 546.902 105.249 546.753 105.1C546.603 104.95 546.529 104.758 546.529 104.524L546.534 94.1877C546.534 93.953 546.609 93.7611 546.758 93.6118C546.908 93.4519 547.1 93.372 547.334 93.3721C547.558 93.3722 547.745 93.4523 547.894 93.6124C548.054 93.7618 548.134 93.9538 548.134 94.1885L548.132 98.6845L547.876 98.5404C547.908 98.3377 548.009 98.1298 548.18 97.9165C548.351 97.6926 548.564 97.4794 548.821 97.2768C549.087 97.0743 549.386 96.9145 549.717 96.7973C550.058 96.6695 550.41 96.6057 550.773 96.6058ZM550.596 98.0778C550.084 98.0775 549.636 98.2053 549.252 98.4611C548.878 98.7169 548.585 99.0634 548.371 99.5006C548.158 99.9272 548.051 100.418 548.051 100.972C548.05 101.527 548.157 102.029 548.37 102.477C548.583 102.914 548.876 103.261 549.249 103.517C549.633 103.773 550.081 103.901 550.593 103.902C551.094 103.902 551.532 103.774 551.905 103.518C552.279 103.263 552.572 102.911 552.786 102.463C553.01 102.015 553.122 101.519 553.123 100.975C553.123 100.42 553.011 99.9296 552.787 99.5029C552.574 99.0654 552.281 98.7186 551.908 98.4624C551.535 98.2062 551.097 98.078 550.596 98.0778ZM555.971 103.904C555.875 103.755 555.832 103.584 555.843 103.392C555.854 103.19 555.966 103.019 556.179 102.881C556.329 102.785 556.483 102.747 556.643 102.769C556.814 102.78 556.974 102.86 557.123 103.009C557.422 103.34 557.752 103.601 558.115 103.794C558.488 103.986 558.936 104.082 559.459 104.082C559.672 104.072 559.891 104.04 560.115 103.987C560.339 103.923 560.531 103.816 560.691 103.667C560.851 103.507 560.931 103.278 560.931 102.979C560.931 102.712 560.846 102.499 560.675 102.339C560.505 102.179 560.281 102.051 560.004 101.955C559.726 101.848 559.428 101.752 559.108 101.666C558.766 101.57 558.42 101.463 558.068 101.346C557.727 101.228 557.417 101.079 557.14 100.897C556.863 100.705 556.634 100.459 556.453 100.161C556.282 99.862 556.197 99.4939 556.197 99.0566C556.197 98.5553 556.336 98.1233 556.614 97.7608C556.902 97.3983 557.27 97.1158 557.718 96.9134C558.177 96.7109 558.673 96.6099 559.206 96.6101C559.516 96.6103 559.841 96.6531 560.182 96.7386C560.524 96.8135 560.854 96.9363 561.174 97.1071C561.494 97.278 561.771 97.5021 562.006 97.7796C562.112 97.9183 562.171 98.0836 562.181 98.2756C562.203 98.4677 562.117 98.6383 561.925 98.7875C561.797 98.8941 561.642 98.942 561.461 98.9313C561.28 98.9205 561.131 98.8618 561.013 98.755C560.811 98.4989 560.549 98.3015 560.23 98.1626C559.91 98.0132 559.547 97.9383 559.142 97.9381C558.939 97.938 558.726 97.9699 558.502 98.0338C558.288 98.087 558.107 98.1882 557.957 98.3375C557.808 98.4868 557.733 98.7054 557.733 98.9934C557.733 99.26 557.818 99.4734 557.989 99.6335C558.17 99.7936 558.405 99.9271 558.693 100.034C558.981 100.141 559.295 100.237 559.636 100.322C559.967 100.408 560.292 100.509 560.612 100.627C560.943 100.744 561.236 100.899 561.492 101.091C561.759 101.273 561.972 101.513 562.132 101.812C562.302 102.1 562.387 102.468 562.387 102.916C562.387 103.438 562.232 103.886 561.922 104.26C561.624 104.622 561.239 104.899 560.77 105.091C560.311 105.283 559.826 105.378 559.314 105.378C558.706 105.378 558.098 105.271 557.49 105.057C556.893 104.833 556.386 104.449 555.971 103.904ZM565.611 104.405C565.611 104.64 565.536 104.837 565.387 104.997C565.237 105.147 565.045 105.221 564.811 105.221C564.587 105.221 564.395 105.146 564.235 104.997C564.085 104.837 564.011 104.639 564.011 104.405L564.014 97.5566C564.015 97.3219 564.089 97.1299 564.239 96.9807C564.399 96.8208 564.591 96.7409 564.815 96.741C565.05 96.7411 565.242 96.8212 565.391 96.9813C565.54 97.1307 565.615 97.3227 565.614 97.5574L565.611 104.405ZM564.799 95.685C564.49 95.6848 564.266 95.6314 564.128 95.5246C563.989 95.4072 563.92 95.2152 563.92 94.9485L563.92 94.6925C563.92 94.4259 563.995 94.2392 564.144 94.1326C564.294 94.026 564.518 93.9728 564.816 93.973C565.136 93.9731 565.366 94.0319 565.504 94.1493C565.643 94.2561 565.712 94.4374 565.712 94.6934L565.712 94.9494C565.712 95.2268 565.637 95.4187 565.488 95.5253C565.349 95.6319 565.119 95.6851 564.799 95.685ZM567.655 96.9024L571.415 96.9043C571.628 96.9044 571.804 96.9792 571.943 97.1286C572.092 97.2673 572.167 97.4434 572.167 97.6567C572.167 97.8594 572.092 98.03 571.942 98.1686C571.804 98.3072 571.628 98.3764 571.414 98.3763L567.654 98.3744C567.441 98.3743 567.26 98.3049 567.11 98.1661C566.972 98.0167 566.903 97.8407 566.903 97.638C566.903 97.4247 566.972 97.2487 567.111 97.1101C567.26 96.9716 567.442 96.9023 567.655 96.9024ZM569.336 94.8233C569.571 94.8234 569.763 94.9035 569.912 95.0636C570.061 95.213 570.136 95.405 570.136 95.6397L570.132 103.064C570.132 103.256 570.164 103.41 570.228 103.528C570.292 103.645 570.377 103.725 570.484 103.768C570.601 103.811 570.718 103.832 570.836 103.832C570.953 103.832 571.054 103.811 571.14 103.768C571.236 103.726 571.348 103.704 571.476 103.704C571.604 103.704 571.721 103.763 571.828 103.881C571.934 103.998 571.987 104.158 571.987 104.361C571.987 104.617 571.848 104.825 571.571 104.984C571.294 105.144 570.995 105.224 570.675 105.224C570.494 105.224 570.28 105.208 570.035 105.176C569.79 105.144 569.55 105.063 569.315 104.935C569.091 104.807 568.904 104.604 568.755 104.327C568.606 104.039 568.532 103.639 568.532 103.127L568.536 95.6389C568.536 95.4042 568.611 95.2122 568.76 95.063C568.92 94.9031 569.112 94.8232 569.336 94.8233ZM577.777 105.388C576.891 105.387 576.123 105.205 575.473 104.842C574.822 104.469 574.316 103.962 573.954 103.322C573.602 102.671 573.426 101.929 573.427 101.097C573.427 100.159 573.614 99.3588 573.988 98.6976C574.372 98.0258 574.869 97.5141 575.477 97.1624C576.085 96.8 576.73 96.619 577.413 96.6194C577.936 96.6196 578.432 96.7266 578.901 96.9401C579.37 97.143 579.786 97.4313 580.148 97.8048C580.522 98.1676 580.815 98.5998 581.028 99.1012C581.241 99.592 581.353 100.131 581.363 100.717C581.352 100.931 581.267 101.107 581.107 101.245C580.947 101.384 580.76 101.453 580.546 101.453L574.323 101.45L573.939 100.09L579.955 100.093L579.651 100.381L579.651 99.9805C579.63 99.6072 579.508 99.2818 579.284 99.0043C579.06 98.7162 578.783 98.4974 578.452 98.3479C578.121 98.1877 577.775 98.1076 577.412 98.1074C577.092 98.1072 576.783 98.1604 576.484 98.2669C576.196 98.3628 575.935 98.5226 575.7 98.7465C575.476 98.9704 575.294 99.269 575.155 99.6422C575.027 100.005 574.963 100.458 574.963 101.002C574.962 101.589 575.085 102.101 575.33 102.538C575.575 102.976 575.906 103.317 576.321 103.563C576.737 103.798 577.196 103.915 577.697 103.916C578.092 103.916 578.417 103.879 578.673 103.804C578.929 103.719 579.143 103.618 579.313 103.5C579.484 103.383 579.634 103.271 579.762 103.165C579.922 103.069 580.082 103.021 580.242 103.021C580.434 103.021 580.594 103.09 580.722 103.229C580.85 103.357 580.913 103.512 580.913 103.693C580.913 103.928 580.796 104.141 580.561 104.333C580.273 104.61 579.873 104.855 579.361 105.068C578.859 105.281 578.331 105.388 577.777 105.388ZM583.136 107.342C582.976 107.342 582.816 107.278 582.656 107.15C582.496 107.022 582.416 106.862 582.416 106.67C582.416 106.553 582.448 106.441 582.513 106.334L589.159 92.8814C589.234 92.7321 589.325 92.6201 589.432 92.5455C589.549 92.4709 589.677 92.4336 589.816 92.4337C589.965 92.4338 590.114 92.4925 590.263 92.6099C590.423 92.7273 590.503 92.8927 590.503 93.106C590.503 93.2234 590.476 93.3407 590.423 93.458L583.776 106.911C583.701 107.049 583.611 107.156 583.504 107.23C583.397 107.305 583.275 107.342 583.136 107.342Z" fill="black"/>
</svg>
