<svg width="774" height="352" viewBox="0 0 774 352" fill="none" xmlns="http://www.w3.org/2000/svg">
<path d="M55.6077 274.858C29.8738 246.045 34.5064 204.552 65.9548 182.18C97.4032 159.808 143.759 165.029 169.492 193.841C195.226 222.654 190.594 264.147 159.145 286.519C127.697 308.891 81.3416 303.67 55.6077 274.858Z" fill="#FCD993"/>
<path d="M96.2307 254.256C71.4282 226.486 76.411 186.126 107.36 164.109C138.309 142.092 183.505 146.756 208.308 174.525C233.11 202.295 228.128 242.655 197.178 264.672C166.229 286.69 121.033 282.026 96.2307 254.256Z" fill="#FFFBF5"/>
<path d="M118.991 190.218C119.883 190.313 122.124 190.578 124.438 192.272C125.29 192.896 126.616 193.891 127.604 195.824C128.643 197.857 128.707 199.751 128.715 200.189C128.723 200.646 128.732 202.755 127.581 205.012C126.472 207.187 124.917 208.264 123.899 208.95C123.421 209.272 121.053 210.817 117.656 210.926C116.623 210.959 114.1 211.006 111.422 209.385C110.479 208.814 108.75 207.734 107.535 205.428C107.198 204.789 106.371 203.173 106.343 200.867C106.337 200.304 106.364 198.524 107.268 196.567C107.918 195.162 108.721 194.312 109.231 193.781C110.622 192.336 112.02 191.677 112.926 191.261C114.1 190.722 115.042 190.499 115.337 190.433C116.031 190.277 117.353 190.049 118.99 190.221L118.991 190.218Z" fill="#FFD278" fill-opacity="0.78" stroke="white" stroke-width="0.25" stroke-linecap="round" stroke-linejoin="round"/>
<path d="M139.427 250.24C139.679 250.24 139.889 250.325 140.057 250.493C140.237 250.661 140.327 250.871 140.327 251.123C140.326 251.375 140.236 251.585 140.056 251.753C139.888 251.921 139.678 252.004 139.426 252.004L133.378 252.001C133.114 252.001 132.892 251.917 132.712 251.749C132.544 251.569 132.46 251.347 132.461 251.083L132.466 240.319C132.466 240.055 132.556 239.839 132.736 239.671C132.916 239.491 133.15 239.401 133.438 239.401C133.678 239.401 133.888 239.491 134.068 239.672C134.26 239.84 134.356 240.056 134.356 240.32L134.351 250.544L133.973 250.238L139.427 250.24ZM143.886 251.089C143.886 251.353 143.802 251.575 143.634 251.754C143.466 251.922 143.25 252.006 142.986 252.006C142.734 252.006 142.518 251.922 142.338 251.754C142.17 251.574 142.086 251.352 142.086 251.088L142.09 243.384C142.09 243.12 142.174 242.904 142.342 242.736C142.523 242.556 142.739 242.466 142.991 242.466C143.255 242.466 143.471 242.556 143.638 242.736C143.806 242.905 143.89 243.121 143.89 243.385L143.886 251.089ZM142.973 241.278C142.625 241.278 142.373 241.218 142.217 241.098C142.061 240.966 141.983 240.75 141.984 240.45L141.984 240.162C141.984 239.862 142.068 239.652 142.236 239.532C142.404 239.412 142.656 239.352 142.992 239.352C143.352 239.352 143.61 239.418 143.766 239.55C143.922 239.671 144 239.875 144 240.163L144 240.451C143.999 240.763 143.915 240.979 143.747 241.098C143.591 241.218 143.333 241.278 142.973 241.278ZM151.19 242.326C152.042 242.327 152.702 242.507 153.17 242.867C153.637 243.216 153.961 243.69 154.141 244.29C154.333 244.878 154.428 245.538 154.428 246.27L154.425 251.094C154.425 251.358 154.335 251.58 154.155 251.76C153.987 251.928 153.777 252.012 153.525 252.011C153.261 252.011 153.045 251.927 152.877 251.759C152.709 251.579 152.625 251.357 152.625 251.093L152.628 246.287C152.628 245.855 152.568 245.471 152.448 245.135C152.329 244.787 152.119 244.511 151.819 244.307C151.531 244.09 151.123 243.982 150.595 243.982C150.103 243.982 149.671 244.089 149.299 244.305C148.927 244.509 148.633 244.785 148.416 245.133C148.212 245.469 148.11 245.853 148.11 246.285L148.107 251.091C148.107 251.355 148.017 251.577 147.837 251.757C147.669 251.924 147.459 252.008 147.207 252.008C146.943 252.008 146.727 251.924 146.559 251.756C146.391 251.576 146.307 251.354 146.307 251.09L146.311 243.458C146.311 243.194 146.396 242.978 146.564 242.81C146.732 242.63 146.948 242.54 147.212 242.54C147.464 242.54 147.674 242.63 147.842 242.811C148.022 242.979 148.111 243.195 148.111 243.459L148.111 244.467L147.787 244.647C147.871 244.383 148.015 244.119 148.219 243.855C148.435 243.579 148.693 243.327 148.994 243.099C149.294 242.859 149.63 242.673 150.002 242.542C150.374 242.398 150.77 242.326 151.19 242.326ZM157.968 252.014C157.716 252.014 157.5 251.929 157.32 251.761C157.152 251.581 157.069 251.359 157.069 251.095L157.074 239.611C157.075 239.347 157.159 239.131 157.327 238.963C157.507 238.783 157.723 238.694 157.975 238.694C158.239 238.694 158.455 238.784 158.623 238.964C158.791 239.132 158.875 239.348 158.874 239.612L158.869 251.096C158.869 251.36 158.784 251.582 158.616 251.762C158.448 251.93 158.232 252.014 157.968 252.014ZM163.841 242.513C164.069 242.513 164.267 242.609 164.435 242.801C164.603 242.993 164.687 243.185 164.687 243.377C164.686 243.617 164.572 243.839 164.344 244.043L158.708 249.08L158.637 247.01L163.175 242.8C163.367 242.608 163.589 242.513 163.841 242.513ZM164.052 251.999C163.8 251.999 163.584 251.897 163.404 251.692L159.806 247.893L161.175 246.633L164.683 250.433C164.875 250.637 164.971 250.865 164.971 251.117C164.971 251.381 164.862 251.597 164.646 251.765C164.442 251.921 164.244 251.999 164.052 251.999ZM176.273 252.023C175.985 252.023 175.751 251.939 175.571 251.771C175.403 251.591 175.319 251.369 175.32 251.105L175.325 240.323L177.251 240.324L177.246 251.106C177.245 251.369 177.149 251.591 176.957 251.771C176.777 251.939 176.549 252.023 176.273 252.023ZM172.193 241.149C171.941 241.149 171.725 241.071 171.545 240.915C171.365 240.747 171.275 240.53 171.275 240.266C171.275 240.014 171.365 239.811 171.545 239.655C171.725 239.499 171.941 239.421 172.193 239.421L180.383 239.425C180.635 239.425 180.845 239.509 181.013 239.677C181.193 239.834 181.283 240.038 181.283 240.29C181.283 240.554 181.193 240.764 181.013 240.919C180.845 241.075 180.635 241.153 180.383 241.153L172.193 241.149ZM184.808 251.109C184.808 251.373 184.724 251.595 184.556 251.775C184.388 251.943 184.172 252.027 183.908 252.027C183.656 252.027 183.44 251.943 183.26 251.775C183.092 251.594 183.008 251.372 183.008 251.108L183.012 243.404C183.012 243.14 183.096 242.924 183.264 242.757C183.444 242.577 183.66 242.487 183.912 242.487C184.176 242.487 184.392 242.577 184.56 242.757C184.728 242.925 184.812 243.141 184.812 243.405L184.808 251.109ZM183.895 241.299C183.547 241.299 183.295 241.239 183.139 241.118C182.983 240.986 182.905 240.77 182.905 240.47L182.906 240.182C182.906 239.882 182.99 239.672 183.158 239.553C183.326 239.433 183.578 239.373 183.914 239.373C184.274 239.373 184.532 239.439 184.688 239.571C184.844 239.691 184.922 239.895 184.922 240.183L184.921 240.471C184.921 240.783 184.837 240.999 184.669 241.119C184.513 241.239 184.255 241.299 183.895 241.299ZM189.173 251.112C189.173 251.376 189.083 251.598 188.903 251.777C188.735 251.945 188.525 252.029 188.273 252.029C188.021 252.029 187.805 251.945 187.625 251.777C187.457 251.597 187.373 251.375 187.373 251.111L187.379 239.627C187.379 239.363 187.469 239.147 187.65 238.979C187.83 238.799 188.046 238.709 188.298 238.709C188.562 238.709 188.772 238.799 188.928 238.979C189.095 239.148 189.179 239.364 189.179 239.628L189.173 251.112ZM198.038 239.434C198.278 239.434 198.488 239.524 198.668 239.704C198.86 239.872 198.956 240.089 198.956 240.353L198.95 251.117C198.938 251.381 198.836 251.602 198.644 251.782C198.464 251.95 198.248 252.034 197.996 252.034C197.72 252.034 197.492 251.95 197.312 251.782C197.144 251.602 197.06 251.38 197.06 251.116L197.066 240.352C197.066 240.088 197.156 239.872 197.336 239.704C197.516 239.524 197.75 239.434 198.038 239.434ZM206.156 239.438C206.444 239.438 206.672 239.528 206.84 239.709C207.008 239.877 207.092 240.093 207.092 240.357L207.086 251.121C207.086 251.385 206.996 251.607 206.816 251.787C206.648 251.954 206.42 252.038 206.132 252.038C205.88 252.038 205.664 251.954 205.484 251.786C205.304 251.606 205.214 251.384 205.214 251.12L205.22 240.356C205.22 240.092 205.31 239.876 205.49 239.708C205.682 239.528 205.904 239.438 206.156 239.438ZM197.963 244.798L206.171 244.802L206.152 246.53L197.944 246.526L197.963 244.798ZM211.851 252.437C211.851 253.085 211.718 253.643 211.454 254.111C211.19 254.579 210.842 254.939 210.41 255.19C209.977 255.442 209.515 255.568 209.023 255.568C208.771 255.568 208.567 255.483 208.412 255.315C208.256 255.159 208.178 254.967 208.178 254.739L208.178 254.577C208.178 254.361 208.256 254.187 208.412 254.055C208.556 253.923 208.736 253.822 208.952 253.75C209.228 253.666 209.444 253.54 209.601 253.372C209.769 253.216 209.883 253.012 209.943 252.76C210.015 252.52 210.051 252.256 210.051 251.968L210.056 243.472C210.056 243.22 210.14 243.01 210.308 242.842C210.476 242.662 210.692 242.572 210.956 242.573C211.22 242.573 211.436 242.663 211.604 242.843C211.772 243.011 211.856 243.221 211.856 243.473L211.851 252.437ZM210.921 241.313C210.573 241.312 210.321 241.252 210.165 241.132C210.009 241 209.931 240.784 209.931 240.484L209.931 240.196C209.931 239.896 210.015 239.686 210.184 239.566C210.352 239.446 210.604 239.386 210.94 239.387C211.3 239.387 211.558 239.453 211.714 239.585C211.869 239.705 211.947 239.909 211.947 240.197L211.947 240.485C211.947 240.797 211.863 241.013 211.695 241.133C211.539 241.253 211.281 241.313 210.921 241.313ZM219.131 252.225C218.135 252.224 217.271 252.02 216.539 251.611C215.807 251.191 215.238 250.621 214.83 249.901C214.435 249.168 214.237 248.334 214.237 247.398C214.238 246.342 214.448 245.442 214.869 244.699C215.301 243.943 215.859 243.367 216.544 242.971C217.228 242.564 217.954 242.36 218.722 242.361C219.31 242.361 219.868 242.481 220.396 242.721C220.924 242.95 221.392 243.274 221.799 243.694C222.219 244.102 222.549 244.589 222.789 245.153C223.028 245.705 223.154 246.311 223.166 246.971C223.154 247.211 223.057 247.409 222.877 247.565C222.697 247.721 222.487 247.798 222.247 247.798L215.245 247.795L214.814 246.265L221.582 246.268L221.24 246.592L221.24 246.142C221.216 245.722 221.078 245.356 220.827 245.044C220.575 244.72 220.263 244.473 219.891 244.305C219.519 244.125 219.129 244.035 218.721 244.035C218.361 244.034 218.013 244.094 217.677 244.214C217.353 244.322 217.059 244.502 216.795 244.754C216.543 245.005 216.338 245.341 216.182 245.761C216.038 246.169 215.966 246.679 215.965 247.291C215.965 247.951 216.103 248.527 216.379 249.019C216.654 249.512 217.026 249.896 217.494 250.172C217.962 250.436 218.478 250.568 219.042 250.569C219.486 250.569 219.852 250.527 220.14 250.443C220.428 250.347 220.668 250.234 220.86 250.102C221.052 249.97 221.22 249.844 221.364 249.724C221.544 249.616 221.724 249.562 221.904 249.562C222.12 249.562 222.3 249.64 222.444 249.796C222.588 249.941 222.66 250.115 222.66 250.319C222.66 250.583 222.528 250.823 222.264 251.038C221.939 251.35 221.489 251.626 220.913 251.866C220.349 252.105 219.755 252.225 219.131 252.225ZM229.955 242.42C230.843 242.421 231.526 242.643 232.006 243.087C232.486 243.52 232.804 244.108 232.959 244.852L232.671 244.762L232.797 244.474C232.954 244.162 233.188 243.85 233.5 243.538C233.824 243.214 234.208 242.95 234.652 242.747C235.096 242.531 235.571 242.423 236.075 242.423C236.903 242.424 237.544 242.604 238 242.964C238.456 243.313 238.774 243.787 238.954 244.387C239.133 244.975 239.223 245.635 239.223 246.367L239.22 251.137C239.22 251.401 239.136 251.623 238.968 251.803C238.8 251.971 238.584 252.055 238.32 252.055C238.068 252.054 237.852 251.97 237.672 251.802C237.504 251.622 237.42 251.4 237.42 251.136L237.422 246.384C237.423 245.964 237.363 245.58 237.243 245.232C237.135 244.884 236.937 244.608 236.65 244.404C236.374 244.188 235.99 244.079 235.498 244.079C235.03 244.079 234.61 244.187 234.238 244.402C233.877 244.606 233.595 244.882 233.391 245.23C233.187 245.578 233.085 245.962 233.084 246.382L233.082 251.134C233.082 251.398 232.998 251.62 232.83 251.8C232.662 251.968 232.446 252.052 232.182 252.051C231.918 252.051 231.702 251.967 231.534 251.799C231.366 251.619 231.282 251.397 231.282 251.133L231.285 246.363C231.285 245.943 231.225 245.559 231.105 245.211C230.997 244.863 230.805 244.587 230.53 244.383C230.254 244.178 229.87 244.076 229.378 244.076C228.91 244.076 228.496 244.178 228.136 244.381C227.775 244.585 227.493 244.861 227.289 245.209C227.097 245.557 227.001 245.941 227.001 246.361L226.998 251.131C226.998 251.395 226.908 251.617 226.728 251.797C226.56 251.965 226.35 252.048 226.098 252.048C225.834 252.048 225.618 251.964 225.45 251.796C225.282 251.616 225.198 251.394 225.198 251.13L225.202 243.498C225.202 243.234 225.286 243.018 225.454 242.85C225.622 242.67 225.838 242.58 226.102 242.58C226.354 242.58 226.564 242.671 226.732 242.851C226.912 243.019 227.002 243.235 227.002 243.499L227.001 244.561L226.659 244.759C226.743 244.495 226.882 244.225 227.074 243.949C227.266 243.673 227.506 243.421 227.794 243.193C228.094 242.965 228.424 242.78 228.784 242.636C229.144 242.492 229.535 242.42 229.955 242.42ZM246.496 242.429C247.384 242.429 248.067 242.651 248.547 243.096C249.027 243.528 249.345 244.116 249.5 244.86L249.212 244.77L249.338 244.482C249.495 244.17 249.729 243.858 250.041 243.546C250.365 243.223 250.749 242.959 251.193 242.755C251.637 242.539 252.112 242.432 252.616 242.432C253.444 242.432 254.085 242.613 254.541 242.973C254.997 243.321 255.315 243.795 255.495 244.395C255.674 244.983 255.764 245.643 255.764 246.375L255.761 251.145C255.761 251.409 255.677 251.631 255.509 251.811C255.341 251.979 255.125 252.063 254.861 252.063C254.609 252.063 254.393 251.979 254.213 251.811C254.045 251.631 253.961 251.408 253.961 251.144L253.964 246.392C253.964 245.972 253.904 245.588 253.784 245.24C253.676 244.892 253.478 244.616 253.191 244.412C252.915 244.196 252.531 244.088 252.039 244.088C251.571 244.087 251.151 244.195 250.779 244.411C250.418 244.615 250.136 244.891 249.932 245.238C249.728 245.586 249.626 245.97 249.626 246.39L249.623 251.142C249.623 251.406 249.539 251.628 249.371 251.808C249.203 251.976 248.987 252.06 248.723 252.06C248.459 252.06 248.243 251.976 248.075 251.807C247.907 251.627 247.823 251.405 247.823 251.141L247.826 246.371C247.826 245.951 247.766 245.567 247.646 245.219C247.538 244.871 247.346 244.595 247.071 244.391C246.795 244.187 246.411 244.085 245.919 244.084C245.451 244.084 245.037 244.186 244.677 244.39C244.316 244.594 244.034 244.869 243.83 245.217C243.638 245.565 243.542 245.949 243.542 246.369L243.539 251.139C243.539 251.403 243.449 251.625 243.269 251.805C243.101 251.973 242.891 252.057 242.639 252.057C242.375 252.057 242.159 251.972 241.991 251.804C241.823 251.624 241.739 251.402 241.739 251.138L241.743 243.506C241.743 243.242 241.827 243.026 241.995 242.858C242.163 242.678 242.379 242.589 242.643 242.589C242.895 242.589 243.105 242.679 243.273 242.859C243.453 243.027 243.543 243.243 243.543 243.507L243.542 244.569L243.2 244.767C243.284 244.503 243.423 244.233 243.615 243.957C243.807 243.681 244.047 243.429 244.335 243.202C244.635 242.974 244.965 242.788 245.325 242.644C245.685 242.5 246.076 242.428 246.496 242.429ZM262.69 252.247C261.694 252.246 260.83 252.042 260.098 251.634C259.366 251.213 258.796 250.643 258.389 249.923C257.993 249.191 257.796 248.356 257.796 247.42C257.797 246.364 258.007 245.465 258.427 244.721C258.86 243.965 259.418 243.389 260.102 242.994C260.786 242.586 261.513 242.382 262.281 242.383C262.869 242.383 263.427 242.503 263.954 242.744C264.482 242.972 264.95 243.296 265.358 243.716C265.778 244.124 266.107 244.611 266.347 245.175C266.587 245.727 266.713 246.333 266.724 246.993C266.712 247.233 266.616 247.431 266.436 247.587C266.256 247.743 266.046 247.821 265.806 247.821L258.804 247.817L258.373 246.287L265.141 246.29L264.798 246.614L264.799 246.164C264.775 245.744 264.637 245.378 264.385 245.066C264.133 244.742 263.821 244.495 263.45 244.327C263.078 244.147 262.688 244.057 262.28 244.057C261.92 244.057 261.572 244.116 261.236 244.236C260.912 244.344 260.617 244.524 260.353 244.776C260.101 245.028 259.897 245.364 259.741 245.783C259.597 246.191 259.524 246.701 259.524 247.313C259.524 247.973 259.661 248.549 259.937 249.042C260.213 249.534 260.585 249.918 261.053 250.194C261.52 250.458 262.036 250.591 262.6 250.591C263.044 250.591 263.41 250.549 263.698 250.465C263.987 250.37 264.227 250.256 264.419 250.124C264.611 249.992 264.779 249.866 264.923 249.746C265.103 249.638 265.283 249.584 265.463 249.584C265.679 249.584 265.859 249.663 266.003 249.819C266.147 249.963 266.219 250.137 266.219 250.341C266.218 250.605 266.086 250.845 265.822 251.061C265.498 251.372 265.048 251.648 264.472 251.888C263.908 252.128 263.314 252.247 262.69 252.247ZM268.199 250.594C268.091 250.426 268.043 250.234 268.055 250.018C268.067 249.79 268.193 249.598 268.434 249.442C268.602 249.334 268.776 249.292 268.956 249.316C269.148 249.328 269.328 249.418 269.495 249.586C269.831 249.959 270.203 250.253 270.611 250.469C271.031 250.685 271.535 250.793 272.123 250.794C272.363 250.782 272.609 250.746 272.861 250.686C273.113 250.614 273.329 250.494 273.509 250.326C273.689 250.147 273.779 249.889 273.779 249.553C273.78 249.253 273.684 249.013 273.492 248.832C273.3 248.652 273.048 248.508 272.736 248.4C272.424 248.28 272.088 248.172 271.728 248.076C271.344 247.967 270.954 247.847 270.558 247.715C270.174 247.583 269.827 247.415 269.515 247.21C269.203 246.994 268.945 246.718 268.741 246.382C268.549 246.046 268.453 245.632 268.454 245.14C268.454 244.576 268.61 244.09 268.922 243.682C269.247 243.274 269.661 242.956 270.165 242.729C270.681 242.501 271.239 242.387 271.839 242.388C272.187 242.388 272.553 242.436 272.937 242.532C273.321 242.616 273.693 242.755 274.053 242.947C274.413 243.139 274.725 243.391 274.988 243.703C275.108 243.859 275.174 244.045 275.186 244.261C275.21 244.477 275.114 244.669 274.898 244.837C274.754 244.957 274.58 245.011 274.376 244.999C274.172 244.987 274.004 244.921 273.872 244.801C273.644 244.512 273.35 244.29 272.99 244.134C272.63 243.966 272.222 243.882 271.766 243.882C271.538 243.881 271.298 243.917 271.046 243.989C270.806 244.049 270.602 244.163 270.434 244.331C270.266 244.499 270.182 244.745 270.182 245.069C270.182 245.369 270.277 245.609 270.469 245.789C270.673 245.969 270.937 246.119 271.261 246.239C271.585 246.359 271.939 246.468 272.323 246.564C272.695 246.66 273.061 246.774 273.421 246.906C273.793 247.039 274.123 247.213 274.411 247.429C274.71 247.633 274.95 247.903 275.13 248.239C275.322 248.563 275.418 248.977 275.418 249.481C275.417 250.069 275.243 250.573 274.895 250.993C274.559 251.401 274.126 251.713 273.598 251.928C273.082 252.144 272.536 252.252 271.96 252.252C271.276 252.251 270.592 252.131 269.908 251.891C269.236 251.638 268.667 251.206 268.199 250.594ZM279.044 251.157C279.044 251.421 278.96 251.643 278.792 251.823C278.624 251.991 278.408 252.075 278.144 252.075C277.892 252.075 277.676 251.991 277.496 251.822C277.328 251.642 277.244 251.42 277.244 251.156L277.248 243.452C277.248 243.188 277.333 242.972 277.501 242.804C277.681 242.625 277.897 242.535 278.149 242.535C278.413 242.535 278.629 242.625 278.797 242.805C278.965 242.973 279.048 243.189 279.048 243.453L279.044 251.157ZM278.131 241.347C277.783 241.347 277.531 241.286 277.375 241.166C277.22 241.034 277.142 240.818 277.142 240.518L277.142 240.23C277.142 239.93 277.226 239.72 277.394 239.6C277.562 239.48 277.814 239.421 278.15 239.421C278.51 239.421 278.768 239.487 278.924 239.619C279.08 239.739 279.158 239.943 279.158 240.231L279.158 240.519C279.158 240.831 279.074 241.047 278.905 241.167C278.749 241.287 278.491 241.347 278.131 241.347ZM289.23 238.76C289.494 238.761 289.71 238.845 289.878 239.013C290.046 239.181 290.13 239.403 290.129 239.679L290.124 251.163C290.124 251.427 290.039 251.649 289.871 251.829C289.703 251.997 289.487 252.081 289.223 252.08C288.971 252.08 288.755 251.996 288.575 251.828C288.407 251.648 288.324 251.426 288.324 251.162L288.324 249.866L288.702 249.884C288.702 250.1 288.612 250.346 288.432 250.622C288.264 250.886 288.03 251.144 287.73 251.396C287.429 251.647 287.075 251.857 286.667 252.025C286.259 252.181 285.821 252.259 285.353 252.258C284.525 252.258 283.781 252.048 283.121 251.627C282.462 251.195 281.94 250.613 281.556 249.881C281.173 249.136 280.981 248.284 280.982 247.324C280.982 246.364 281.175 245.518 281.559 244.787C281.943 244.043 282.46 243.461 283.108 243.041C283.768 242.61 284.5 242.394 285.304 242.394C285.808 242.395 286.276 242.479 286.708 242.647C287.152 242.815 287.536 243.032 287.86 243.296C288.184 243.56 288.435 243.842 288.615 244.142C288.795 244.43 288.885 244.706 288.885 244.97L288.327 245.024L288.329 239.678C288.33 239.414 288.414 239.198 288.582 239.03C288.762 238.85 288.978 238.76 289.23 238.76ZM285.552 250.603C286.128 250.603 286.626 250.459 287.046 250.171C287.478 249.884 287.815 249.494 288.055 249.002C288.295 248.51 288.415 247.952 288.416 247.328C288.416 246.704 288.296 246.146 288.056 245.654C287.817 245.162 287.481 244.772 287.049 244.483C286.617 244.195 286.119 244.051 285.555 244.051C285.003 244.05 284.511 244.194 284.079 244.482C283.659 244.77 283.323 245.159 283.07 245.651C282.83 246.143 282.71 246.701 282.71 247.325C282.709 247.949 282.829 248.507 283.069 248.999C283.321 249.491 283.656 249.882 284.076 250.17C284.508 250.458 285 250.602 285.552 250.603ZM297.055 252.264C296.059 252.264 295.195 252.059 294.463 251.651C293.731 251.231 293.162 250.66 292.754 249.94C292.358 249.208 292.161 248.374 292.161 247.438C292.162 246.382 292.372 245.482 292.793 244.738C293.225 243.982 293.783 243.407 294.467 243.011C295.152 242.603 295.878 242.4 296.646 242.4C297.234 242.4 297.792 242.521 298.32 242.761C298.847 242.989 299.315 243.314 299.723 243.734C300.143 244.142 300.473 244.628 300.712 245.192C300.952 245.744 301.078 246.35 301.089 247.01C301.077 247.25 300.981 247.448 300.801 247.604C300.621 247.76 300.411 247.838 300.171 247.838L293.169 247.834L292.738 246.304L299.506 246.308L299.164 246.631L299.164 246.181C299.14 245.761 299.002 245.395 298.75 245.083C298.499 244.759 298.187 244.513 297.815 244.345C297.443 244.165 297.053 244.074 296.645 244.074C296.285 244.074 295.937 244.134 295.601 244.254C295.277 244.361 294.983 244.541 294.719 244.793C294.466 245.045 294.262 245.381 294.106 245.801C293.962 246.209 293.89 246.719 293.889 247.331C293.889 247.991 294.027 248.567 294.302 249.059C294.578 249.551 294.95 249.935 295.418 250.212C295.886 250.476 296.402 250.608 296.966 250.608C297.41 250.609 297.776 250.567 298.064 250.483C298.352 250.387 298.592 250.273 298.784 250.141C298.976 250.009 299.144 249.883 299.288 249.764C299.468 249.656 299.648 249.602 299.828 249.602C300.044 249.602 300.224 249.68 300.368 249.836C300.512 249.98 300.584 250.154 300.584 250.358C300.584 250.622 300.451 250.862 300.187 251.078C299.863 251.39 299.413 251.666 298.837 251.905C298.273 252.145 297.679 252.265 297.055 252.264ZM312.433 252.092C312.145 252.092 311.911 252.008 311.731 251.84C311.563 251.66 311.48 251.438 311.48 251.174L311.485 240.392L313.411 240.393L313.406 251.175C313.406 251.439 313.309 251.661 313.117 251.841C312.937 252.008 312.709 252.092 312.433 252.092ZM308.353 241.218C308.101 241.218 307.885 241.14 307.705 240.984C307.525 240.816 307.435 240.6 307.435 240.336C307.435 240.084 307.525 239.88 307.705 239.724C307.886 239.568 308.102 239.49 308.354 239.49L316.544 239.494C316.796 239.494 317.006 239.579 317.173 239.747C317.353 239.903 317.443 240.107 317.443 240.359C317.443 240.623 317.353 240.833 317.173 240.989C317.005 241.145 316.795 241.222 316.543 241.222L308.353 241.218ZM321.524 252.277C320.528 252.276 319.664 252.072 318.932 251.664C318.2 251.243 317.63 250.673 317.223 249.953C316.827 249.22 316.63 248.386 316.63 247.45C316.631 246.394 316.841 245.494 317.261 244.751C317.694 243.995 318.252 243.419 318.936 243.024C319.62 242.616 320.347 242.412 321.115 242.413C321.703 242.413 322.26 242.533 322.788 242.773C323.316 243.002 323.784 243.326 324.192 243.746C324.612 244.154 324.941 244.641 325.181 245.205C325.421 245.757 325.547 246.363 325.558 247.023C325.546 247.263 325.45 247.461 325.27 247.617C325.09 247.773 324.88 247.851 324.64 247.85L317.638 247.847L317.207 246.317L323.975 246.32L323.632 246.644L323.633 246.194C323.609 245.774 323.471 245.408 323.219 245.096C322.967 244.772 322.655 244.525 322.284 244.357C321.912 244.177 321.522 244.087 321.114 244.087C320.754 244.086 320.406 244.146 320.07 244.266C319.746 244.374 319.451 244.554 319.187 244.806C318.935 245.058 318.731 245.393 318.575 245.813C318.431 246.221 318.358 246.731 318.358 247.343C318.358 248.003 318.495 248.579 318.771 249.071C319.047 249.564 319.419 249.948 319.887 250.224C320.354 250.488 320.87 250.62 321.434 250.621C321.878 250.621 322.244 250.579 322.532 250.495C322.82 250.399 323.061 250.286 323.253 250.154C323.445 250.022 323.613 249.896 323.757 249.776C323.937 249.668 324.117 249.614 324.297 249.614C324.513 249.614 324.693 249.692 324.837 249.849C324.981 249.993 325.053 250.167 325.053 250.371C325.052 250.635 324.92 250.875 324.656 251.09C324.332 251.402 323.882 251.678 323.306 251.918C322.742 252.157 322.148 252.277 321.524 252.277ZM332.347 242.472C333.235 242.473 333.919 242.695 334.399 243.139C334.879 243.572 335.196 244.16 335.352 244.904L335.064 244.814L335.19 244.526C335.346 244.214 335.58 243.902 335.893 243.59C336.217 243.266 336.601 243.002 337.045 242.799C337.489 242.583 337.963 242.475 338.467 242.475C339.295 242.476 339.937 242.656 340.393 243.016C340.849 243.365 341.166 243.839 341.346 244.439C341.526 245.027 341.615 245.687 341.615 246.419L341.613 251.189C341.613 251.453 341.528 251.675 341.36 251.855C341.192 252.023 340.976 252.107 340.712 252.107C340.46 252.106 340.244 252.022 340.064 251.854C339.896 251.674 339.813 251.452 339.813 251.188L339.815 246.436C339.815 246.016 339.755 245.632 339.636 245.284C339.528 244.936 339.33 244.66 339.042 244.456C338.766 244.24 338.382 244.131 337.89 244.131C337.422 244.131 337.002 244.239 336.63 244.455C336.27 244.658 335.988 244.934 335.784 245.282C335.579 245.63 335.477 246.014 335.477 246.434L335.475 251.186C335.475 251.45 335.39 251.672 335.222 251.852C335.054 252.02 334.838 252.104 334.574 252.103C334.31 252.103 334.094 252.019 333.926 251.851C333.758 251.671 333.675 251.449 333.675 251.185L333.677 246.415C333.677 245.995 333.617 245.611 333.498 245.263C333.39 244.915 333.198 244.639 332.922 244.435C332.646 244.23 332.262 244.128 331.77 244.128C331.302 244.128 330.888 244.23 330.528 244.433C330.168 244.637 329.886 244.913 329.682 245.261C329.489 245.609 329.393 245.993 329.393 246.413L329.391 251.183C329.391 251.447 329.3 251.669 329.12 251.849C328.952 252.017 328.742 252.1 328.49 252.1C328.226 252.1 328.01 252.016 327.842 251.848C327.674 251.668 327.591 251.446 327.591 251.182L327.595 243.55C327.595 243.286 327.679 243.07 327.847 242.902C328.015 242.722 328.231 242.632 328.495 242.632C328.747 242.632 328.957 242.723 329.125 242.903C329.305 243.071 329.395 243.287 329.395 243.551L329.394 244.613L329.052 244.811C329.136 244.547 329.274 244.277 329.466 244.001C329.658 243.725 329.899 243.473 330.187 243.245C330.487 243.017 330.817 242.832 331.177 242.688C331.537 242.544 331.927 242.472 332.347 242.472ZM351.894 242.5C352.158 242.5 352.374 242.591 352.542 242.771C352.71 242.939 352.794 243.155 352.794 243.419L352.79 251.195C352.79 251.459 352.705 251.681 352.537 251.861C352.369 252.029 352.153 252.112 351.889 252.112C351.637 252.112 351.421 252.028 351.241 251.86C351.073 251.68 350.99 251.458 350.99 251.194L350.99 249.898L351.368 249.952C351.368 250.168 351.278 250.408 351.098 250.672C350.93 250.936 350.696 251.194 350.396 251.446C350.095 251.685 349.741 251.889 349.333 252.057C348.925 252.213 348.487 252.291 348.019 252.29C347.191 252.29 346.447 252.079 345.787 251.659C345.128 251.227 344.606 250.639 344.222 249.894C343.839 249.15 343.647 248.304 343.648 247.356C343.648 246.384 343.841 245.532 344.225 244.8C344.609 244.057 345.126 243.475 345.774 243.055C346.434 242.635 347.166 242.426 347.97 242.426C348.486 242.427 348.96 242.511 349.392 242.679C349.836 242.847 350.22 243.063 350.544 243.328C350.868 243.592 351.113 243.874 351.281 244.174C351.461 244.462 351.551 244.738 351.551 245.002L350.993 245.056L350.994 243.418C350.994 243.166 351.078 242.95 351.246 242.77C351.426 242.59 351.642 242.5 351.894 242.5ZM348.218 250.634C348.782 250.635 349.28 250.491 349.712 250.203C350.144 249.915 350.481 249.526 350.721 249.034C350.961 248.53 351.081 247.972 351.082 247.36C351.082 246.736 350.962 246.178 350.722 245.686C350.483 245.194 350.147 244.803 349.715 244.515C349.283 244.227 348.785 244.083 348.221 244.082C347.669 244.082 347.177 244.226 346.745 244.514C346.325 244.801 345.989 245.191 345.736 245.683C345.496 246.175 345.376 246.733 345.376 247.357C345.375 247.969 345.495 248.527 345.735 249.031C345.987 249.523 346.322 249.913 346.742 250.202C347.174 250.49 347.666 250.634 348.218 250.634ZM365.937 252.119C365.685 252.119 365.475 252.035 365.307 251.867C365.139 251.687 365.055 251.465 365.055 251.201L365.06 242.039L365.384 242.147L361.493 247.113L361.403 246.879L367.955 246.882C368.195 246.883 368.393 246.967 368.549 247.135C368.717 247.291 368.801 247.489 368.801 247.729C368.801 247.957 368.717 248.149 368.549 248.305C368.393 248.461 368.194 248.539 367.954 248.538L360.16 248.534C359.944 248.534 359.741 248.45 359.549 248.282C359.357 248.102 359.261 247.892 359.261 247.652C359.261 247.424 359.339 247.22 359.495 247.04L365.223 239.879C365.307 239.759 365.415 239.669 365.547 239.609C365.679 239.549 365.817 239.519 365.961 239.519C366.225 239.52 366.441 239.61 366.609 239.79C366.777 239.958 366.861 240.174 366.861 240.438L366.855 251.202C366.855 251.466 366.765 251.688 366.585 251.868C366.405 252.036 366.189 252.12 365.937 252.119ZM371.401 244.922C371.101 244.922 370.867 244.844 370.699 244.688C370.543 244.52 370.465 244.286 370.465 243.986L370.465 243.644C370.466 243.344 370.544 243.11 370.7 242.942C370.868 242.774 371.102 242.69 371.402 242.69L371.6 242.69C371.9 242.69 372.128 242.775 372.284 242.943C372.44 243.111 372.518 243.345 372.517 243.645L372.517 243.987C372.517 244.287 372.439 244.521 372.283 244.689C372.127 244.845 371.899 244.922 371.599 244.922L371.401 244.922ZM371.397 252.122C371.097 252.122 370.863 252.038 370.695 251.87C370.539 251.702 370.461 251.468 370.462 251.168L370.462 250.844C370.462 250.532 370.54 250.298 370.696 250.142C370.864 249.974 371.098 249.89 371.398 249.89L371.596 249.89C371.896 249.89 372.124 249.975 372.28 250.143C372.436 250.299 372.514 250.533 372.514 250.845L372.514 251.169C372.513 251.469 372.435 251.703 372.279 251.871C372.123 252.039 371.895 252.122 371.595 252.122L371.397 252.122ZM381.132 239.527C381.372 239.527 381.582 239.617 381.762 239.797C381.954 239.966 382.049 240.182 382.049 240.446L382.044 251.21C382.032 251.474 381.93 251.696 381.738 251.875C381.557 252.043 381.341 252.127 381.089 252.127C380.813 252.127 380.585 252.043 380.406 251.875C380.238 251.695 380.154 251.473 380.154 251.209L380.159 240.445C380.159 240.181 380.25 239.965 380.43 239.797C380.61 239.617 380.844 239.527 381.132 239.527ZM389.25 239.531C389.538 239.531 389.766 239.622 389.934 239.802C390.102 239.97 390.185 240.186 390.185 240.45L390.18 251.214C390.18 251.478 390.09 251.7 389.91 251.88C389.741 252.047 389.513 252.131 389.225 252.131C388.973 252.131 388.757 252.047 388.578 251.879C388.398 251.699 388.308 251.477 388.308 251.213L388.313 240.449C388.313 240.185 388.404 239.969 388.584 239.801C388.776 239.621 388.998 239.531 389.25 239.531ZM381.057 244.891L389.265 244.895L389.246 246.623L381.038 246.619L381.057 244.891ZM392.772 242.773L397.002 242.775C397.242 242.775 397.44 242.859 397.596 243.027C397.763 243.184 397.847 243.382 397.847 243.622C397.847 243.85 397.763 244.042 397.595 244.197C397.439 244.353 397.241 244.431 397.001 244.431L392.771 244.429C392.531 244.429 392.327 244.351 392.159 244.195C392.003 244.027 391.925 243.829 391.925 243.601C391.925 243.361 392.003 243.163 392.16 243.007C392.328 242.851 392.532 242.773 392.772 242.773ZM394.663 240.434C394.927 240.434 395.143 240.524 395.311 240.704C395.479 240.872 395.563 241.088 395.562 241.352L395.558 249.704C395.558 249.92 395.594 250.094 395.666 250.227C395.738 250.359 395.834 250.449 395.954 250.497C396.086 250.545 396.218 250.569 396.35 250.569C396.482 250.569 396.596 250.545 396.692 250.497C396.8 250.449 396.926 250.425 397.07 250.425C397.214 250.425 397.346 250.491 397.466 250.623C397.586 250.755 397.646 250.936 397.645 251.164C397.645 251.452 397.489 251.685 397.177 251.865C396.865 252.045 396.529 252.135 396.169 252.135C395.965 252.135 395.725 252.117 395.449 252.08C395.173 252.044 394.903 251.954 394.639 251.81C394.387 251.666 394.177 251.438 394.009 251.126C393.842 250.802 393.758 250.352 393.758 249.776L393.762 241.352C393.763 241.088 393.847 240.872 394.015 240.704C394.195 240.524 394.411 240.434 394.663 240.434ZM399.715 242.777L403.945 242.779C404.185 242.779 404.383 242.863 404.539 243.031C404.707 243.187 404.791 243.385 404.791 243.625C404.79 243.853 404.706 244.045 404.538 244.201C404.382 244.357 404.184 244.435 403.944 244.435L399.714 244.433C399.474 244.432 399.27 244.354 399.102 244.198C398.946 244.03 398.868 243.832 398.869 243.604C398.869 243.364 398.947 243.166 399.103 243.01C399.271 242.854 399.475 242.776 399.715 242.777ZM401.606 240.438C401.87 240.438 402.086 240.528 402.254 240.708C402.422 240.876 402.506 241.092 402.506 241.356L402.502 249.708C402.501 249.924 402.537 250.098 402.609 250.23C402.681 250.362 402.777 250.452 402.897 250.5C403.029 250.548 403.161 250.572 403.293 250.572C403.425 250.572 403.539 250.549 403.635 250.501C403.743 250.453 403.869 250.429 404.013 250.429C404.157 250.429 404.289 250.495 404.409 250.627C404.529 250.759 404.589 250.939 404.589 251.167C404.589 251.455 404.432 251.689 404.12 251.869C403.808 252.049 403.472 252.138 403.112 252.138C402.908 252.138 402.668 252.12 402.392 252.084C402.116 252.048 401.846 251.958 401.582 251.814C401.331 251.669 401.121 251.441 400.953 251.129C400.785 250.805 400.701 250.355 400.701 249.779L400.706 241.355C400.706 241.091 400.79 240.875 400.958 240.707C401.138 240.527 401.354 240.437 401.606 240.438ZM411.555 242.513C412.395 242.513 413.138 242.723 413.786 243.144C414.446 243.564 414.968 244.14 415.351 244.873C415.735 245.593 415.927 246.433 415.926 247.393C415.926 248.353 415.733 249.205 415.349 249.949C414.964 250.68 414.448 251.256 413.8 251.676C413.152 252.095 412.42 252.305 411.604 252.305C411.148 252.304 410.716 252.232 410.308 252.088C409.9 251.944 409.54 251.758 409.228 251.529C408.916 251.289 408.658 251.037 408.454 250.773C408.262 250.509 408.143 250.263 408.095 250.035L408.581 249.801L408.578 254.823C408.578 255.087 408.488 255.303 408.308 255.471C408.14 255.651 407.93 255.741 407.678 255.741C407.414 255.74 407.198 255.65 407.03 255.47C406.862 255.302 406.778 255.086 406.778 254.822L406.784 243.554C406.784 243.302 406.868 243.086 407.036 242.906C407.204 242.726 407.42 242.636 407.684 242.637C407.936 242.637 408.146 242.727 408.314 242.907C408.494 243.087 408.584 243.303 408.584 243.555L408.583 244.797L408.295 244.635C408.332 244.407 408.446 244.173 408.638 243.933C408.83 243.681 409.07 243.447 409.358 243.231C409.658 243.016 409.994 242.842 410.366 242.71C410.75 242.578 411.147 242.512 411.555 242.513ZM411.356 244.168C410.78 244.168 410.276 244.312 409.843 244.6C409.423 244.875 409.093 245.253 408.853 245.733C408.613 246.213 408.492 246.765 408.492 247.389C408.492 248.001 408.611 248.559 408.851 249.063C409.091 249.555 409.421 249.945 409.841 250.234C410.272 250.51 410.776 250.648 411.352 250.648C411.916 250.649 412.408 250.511 412.829 250.235C413.249 249.947 413.579 249.558 413.819 249.066C414.071 248.562 414.198 248.004 414.198 247.392C414.198 246.78 414.073 246.234 413.821 245.754C413.581 245.262 413.251 244.877 412.831 244.601C412.412 244.313 411.92 244.169 411.356 244.168ZM417.402 250.67C417.294 250.501 417.246 250.309 417.258 250.093C417.27 249.865 417.397 249.674 417.637 249.518C417.805 249.41 417.979 249.368 418.159 249.392C418.351 249.404 418.531 249.494 418.699 249.662C419.034 250.034 419.406 250.329 419.814 250.545C420.234 250.761 420.738 250.869 421.326 250.87C421.566 250.858 421.812 250.822 422.064 250.762C422.316 250.69 422.532 250.57 422.712 250.402C422.892 250.222 422.982 249.964 422.983 249.628C422.983 249.328 422.887 249.088 422.695 248.908C422.503 248.728 422.251 248.584 421.939 248.476C421.627 248.356 421.291 248.248 420.931 248.151C420.547 248.043 420.157 247.923 419.762 247.791C419.378 247.659 419.03 247.49 418.718 247.286C418.406 247.07 418.148 246.794 417.944 246.458C417.752 246.122 417.657 245.708 417.657 245.216C417.657 244.652 417.813 244.166 418.126 243.758C418.45 243.35 418.864 243.032 419.368 242.805C419.884 242.577 420.442 242.463 421.042 242.463C421.39 242.464 421.756 242.512 422.14 242.608C422.524 242.692 422.896 242.83 423.256 243.023C423.616 243.215 423.928 243.467 424.192 243.779C424.311 243.935 424.377 244.121 424.389 244.337C424.413 244.553 424.317 244.745 424.101 244.913C423.957 245.033 423.783 245.087 423.579 245.075C423.375 245.063 423.207 244.997 423.075 244.876C422.847 244.588 422.553 244.366 422.193 244.21C421.833 244.042 421.425 243.958 420.969 243.957C420.741 243.957 420.501 243.993 420.249 244.065C420.009 244.125 419.805 244.239 419.637 244.407C419.469 244.575 419.385 244.821 419.385 245.145C419.385 245.445 419.481 245.685 419.673 245.865C419.876 246.045 420.14 246.195 420.464 246.315C420.788 246.435 421.142 246.543 421.526 246.64C421.898 246.736 422.264 246.85 422.624 246.982C422.996 247.114 423.326 247.289 423.614 247.505C423.914 247.709 424.153 247.979 424.333 248.315C424.525 248.639 424.621 249.053 424.621 249.557C424.62 250.145 424.446 250.649 424.098 251.069C423.762 251.477 423.329 251.789 422.801 252.004C422.285 252.22 421.739 252.328 421.163 252.327C420.479 252.327 419.795 252.207 419.111 251.966C418.44 251.714 417.87 251.282 417.402 250.67ZM427.405 244.951C427.105 244.95 426.871 244.872 426.703 244.716C426.547 244.548 426.469 244.314 426.469 244.014L426.469 243.672C426.469 243.372 426.548 243.138 426.704 242.97C426.872 242.802 427.106 242.718 427.406 242.719L427.604 242.719C427.904 242.719 428.132 242.803 428.288 242.971C428.444 243.139 428.521 243.373 428.521 243.673L428.521 244.015C428.521 244.315 428.443 244.549 428.287 244.717C428.131 244.873 427.903 244.951 427.603 244.951L427.405 244.951ZM427.401 252.151C427.101 252.15 426.867 252.066 426.699 251.898C426.543 251.73 426.465 251.496 426.466 251.196L426.466 250.872C426.466 250.56 426.544 250.326 426.7 250.17C426.868 250.002 427.102 249.918 427.402 249.919L427.6 249.919C427.9 249.919 428.128 250.003 428.284 250.171C428.44 250.327 428.518 250.561 428.518 250.873L428.518 251.197C428.517 251.497 428.439 251.731 428.283 251.899C428.127 252.067 427.899 252.151 427.599 252.151L427.401 252.151ZM430.912 254.528C430.732 254.528 430.552 254.456 430.372 254.312C430.193 254.168 430.103 253.988 430.103 253.772C430.103 253.64 430.139 253.514 430.211 253.394L437.689 238.26C437.773 238.092 437.875 237.966 437.995 237.882C438.127 237.798 438.271 237.756 438.427 237.756C438.595 237.756 438.763 237.822 438.931 237.954C439.111 238.087 439.201 238.273 439.2 238.513C439.2 238.645 439.17 238.777 439.11 238.909L431.633 254.043C431.549 254.199 431.446 254.319 431.326 254.403C431.206 254.487 431.068 254.529 430.912 254.528ZM439.209 254.533C439.029 254.533 438.849 254.46 438.669 254.316C438.489 254.172 438.399 253.992 438.4 253.776C438.4 253.644 438.436 253.518 438.508 253.398L445.985 238.264C446.07 238.096 446.172 237.97 446.292 237.886C446.424 237.802 446.568 237.76 446.724 237.76C446.892 237.761 447.06 237.827 447.228 237.959C447.408 238.091 447.497 238.277 447.497 238.517C447.497 238.649 447.467 238.781 447.407 238.913L439.929 254.047C439.845 254.203 439.743 254.323 439.623 254.407C439.503 254.491 439.365 254.533 439.209 254.533ZM450.336 239.544C450.48 239.544 450.63 239.58 450.786 239.653C450.942 239.725 451.062 239.827 451.146 239.959L455.714 246.927L454.94 246.891L459.606 239.963C459.798 239.687 460.044 239.549 460.344 239.549C460.584 239.549 460.794 239.64 460.974 239.82C461.166 239.988 461.262 240.204 461.262 240.468L461.256 251.25C461.256 251.514 461.172 251.736 461.004 251.916C460.836 252.084 460.614 252.168 460.338 252.167C460.05 252.167 459.816 252.083 459.636 251.915C459.468 251.735 459.384 251.513 459.384 251.249L459.389 242.123L459.965 242.249L456.002 248.277C455.918 248.385 455.81 248.481 455.677 248.565C455.545 248.637 455.407 248.667 455.263 248.655C455.131 248.667 454.993 248.637 454.849 248.565C454.718 248.481 454.61 248.384 454.526 248.276L450.713 242.334L451.145 241.615L451.14 251.245C451.14 251.509 451.056 251.731 450.888 251.911C450.732 252.078 450.522 252.162 450.258 252.162C450.006 252.162 449.796 252.078 449.628 251.91C449.472 251.73 449.394 251.508 449.394 251.244L449.4 240.462C449.4 240.21 449.49 239.994 449.67 239.814C449.862 239.634 450.084 239.544 450.336 239.544ZM465.689 251.252C465.689 251.516 465.605 251.738 465.437 251.918C465.268 252.086 465.052 252.17 464.788 252.17C464.536 252.17 464.32 252.085 464.141 251.917C463.973 251.737 463.889 251.515 463.889 251.251L463.893 243.547C463.893 243.283 463.977 243.067 464.145 242.899C464.325 242.719 464.541 242.63 464.793 242.63C465.057 242.63 465.273 242.72 465.441 242.9C465.609 243.068 465.693 243.284 465.693 243.548L465.689 251.252ZM464.776 241.442C464.428 241.441 464.176 241.381 464.02 241.261C463.864 241.129 463.786 240.913 463.786 240.613L463.786 240.325C463.787 240.025 463.871 239.815 464.039 239.695C464.207 239.575 464.459 239.515 464.795 239.516C465.155 239.516 465.413 239.582 465.569 239.714C465.725 239.834 465.803 240.038 465.802 240.326L465.802 240.614C465.802 240.926 465.718 241.142 465.55 241.262C465.394 241.382 465.136 241.442 464.776 241.442ZM470.054 251.254C470.054 251.518 469.964 251.74 469.784 251.92C469.616 252.088 469.406 252.172 469.154 252.172C468.902 252.172 468.686 252.088 468.506 251.92C468.338 251.739 468.254 251.517 468.254 251.253L468.26 239.769C468.26 239.505 468.35 239.289 468.53 239.122C468.71 238.942 468.926 238.852 469.178 238.852C469.442 238.852 469.652 238.942 469.808 239.122C469.976 239.29 470.06 239.506 470.06 239.77L470.054 251.254ZM476.967 252.356C475.971 252.355 475.107 252.151 474.375 251.743C473.643 251.322 473.074 250.752 472.666 250.032C472.27 249.299 472.073 248.465 472.073 247.529C472.074 246.473 472.284 245.573 472.705 244.83C473.137 244.074 473.695 243.498 474.38 243.103C475.064 242.695 475.79 242.491 476.558 242.492C477.146 242.492 477.704 242.612 478.232 242.852C478.76 243.081 479.227 243.405 479.635 243.825C480.055 244.233 480.385 244.72 480.624 245.284C480.864 245.836 480.99 246.442 481.002 247.102C480.989 247.342 480.893 247.54 480.713 247.696C480.533 247.852 480.323 247.93 480.083 247.929L473.081 247.926L472.65 246.396L479.418 246.399L479.076 246.723L479.076 246.273C479.052 245.853 478.914 245.487 478.663 245.175C478.411 244.851 478.099 244.604 477.727 244.436C477.355 244.256 476.965 244.166 476.557 244.166C476.197 244.165 475.849 244.225 475.513 244.345C475.189 244.453 474.895 244.633 474.631 244.885C474.379 245.137 474.174 245.472 474.018 245.892C473.874 246.3 473.802 246.81 473.801 247.422C473.801 248.082 473.939 248.658 474.215 249.15C474.49 249.643 474.862 250.027 475.33 250.303C475.798 250.567 476.314 250.699 476.878 250.7C477.322 250.7 477.688 250.658 477.976 250.574C478.264 250.478 478.504 250.365 478.696 250.233C478.888 250.101 479.056 249.975 479.2 249.855C479.38 249.747 479.56 249.693 479.74 249.693C479.956 249.693 480.136 249.771 480.28 249.928C480.424 250.072 480.496 250.246 480.496 250.45C480.496 250.714 480.364 250.954 480.099 251.169C479.775 251.481 479.325 251.757 478.749 251.997C478.185 252.236 477.591 252.356 476.967 252.356ZM487.916 242.497C488.768 242.498 489.428 242.678 489.896 243.038C490.364 243.387 490.688 243.861 490.867 244.461C491.059 245.049 491.155 245.709 491.154 246.441L491.152 251.265C491.152 251.529 491.062 251.751 490.882 251.931C490.714 252.099 490.504 252.183 490.252 252.183C489.988 252.182 489.772 252.098 489.604 251.93C489.436 251.75 489.352 251.528 489.352 251.264L489.354 246.458C489.355 246.026 489.295 245.642 489.175 245.306C489.055 244.958 488.845 244.682 488.545 244.478C488.258 244.262 487.85 244.153 487.322 244.153C486.83 244.153 486.398 244.261 486.025 244.476C485.653 244.68 485.359 244.956 485.143 245.304C484.939 245.64 484.837 246.024 484.836 246.456L484.834 251.262C484.834 251.526 484.744 251.748 484.564 251.928C484.396 252.096 484.186 252.179 483.934 252.179C483.67 252.179 483.454 252.095 483.286 251.927C483.118 251.747 483.034 251.525 483.034 251.261L483.038 243.629C483.038 243.365 483.122 243.149 483.29 242.981C483.458 242.801 483.674 242.711 483.938 242.711C484.19 242.711 484.4 242.802 484.568 242.982C484.748 243.15 484.838 243.366 484.838 243.63L484.837 244.638L484.513 244.818C484.597 244.554 484.742 244.29 484.946 244.026C485.162 243.75 485.42 243.498 485.72 243.27C486.02 243.03 486.356 242.845 486.728 242.713C487.1 242.569 487.496 242.497 487.916 242.497ZM498.061 252.367C497.065 252.366 496.201 252.162 495.469 251.753C494.737 251.333 494.167 250.763 493.76 250.042C493.364 249.31 493.167 248.476 493.167 247.54C493.168 246.484 493.378 245.584 493.798 244.84C494.231 244.085 494.789 243.509 495.473 243.113C496.158 242.706 496.884 242.502 497.652 242.502C498.24 242.503 498.798 242.623 499.325 242.863C499.853 243.091 500.321 243.416 500.729 243.836C501.149 244.244 501.479 244.73 501.718 245.294C501.958 245.847 502.084 246.453 502.095 247.113C502.083 247.353 501.987 247.551 501.807 247.706C501.627 247.862 501.417 247.94 501.177 247.94L494.175 247.937L493.744 246.406L500.512 246.41L500.169 246.734L500.17 246.284C500.146 245.864 500.008 245.498 499.756 245.185C499.504 244.861 499.193 244.615 498.821 244.447C498.449 244.267 498.059 244.177 497.651 244.176C497.291 244.176 496.943 244.236 496.607 244.356C496.283 244.464 495.989 244.643 495.724 244.895C495.472 245.147 495.268 245.483 495.112 245.903C494.968 246.311 494.895 246.821 494.895 247.433C494.895 248.093 495.032 248.669 495.308 249.161C495.584 249.653 495.956 250.037 496.424 250.314C496.892 250.578 497.407 250.71 497.971 250.711C498.415 250.711 498.781 250.669 499.07 250.585C499.358 250.489 499.598 250.375 499.79 250.243C499.982 250.112 500.15 249.986 500.294 249.866C500.474 249.758 500.654 249.704 500.834 249.704C501.05 249.704 501.23 249.782 501.374 249.938C501.518 250.082 501.59 250.256 501.59 250.46C501.589 250.724 501.457 250.964 501.193 251.18C500.869 251.492 500.419 251.768 499.843 252.007C499.279 252.247 498.685 252.367 498.061 252.367ZM508.884 242.562C509.772 242.562 510.456 242.785 510.936 243.229C511.416 243.661 511.733 244.249 511.889 244.994L511.601 244.903L511.727 244.615C511.883 244.304 512.117 243.992 512.43 243.68C512.754 243.356 513.138 243.092 513.582 242.888C514.026 242.673 514.5 242.565 515.004 242.565C515.832 242.566 516.474 242.746 516.93 243.106C517.386 243.454 517.703 243.929 517.883 244.529C518.063 245.117 518.153 245.777 518.152 246.509L518.15 251.279C518.15 251.543 518.065 251.765 517.897 251.945C517.729 252.113 517.513 252.196 517.249 252.196C516.997 252.196 516.781 252.112 516.601 251.944C516.433 251.764 516.35 251.542 516.35 251.278L516.352 246.526C516.352 246.106 516.293 245.722 516.173 245.374C516.065 245.026 515.867 244.75 515.579 244.545C515.303 244.329 514.919 244.221 514.427 244.221C513.959 244.221 513.539 244.328 513.167 244.544C512.807 244.748 512.525 245.024 512.321 245.372C512.117 245.72 512.014 246.104 512.014 246.524L512.012 251.276C512.012 251.54 511.927 251.762 511.759 251.942C511.591 252.109 511.375 252.193 511.111 252.193C510.847 252.193 510.631 252.109 510.463 251.941C510.295 251.761 510.212 251.539 510.212 251.275L510.214 246.505C510.214 246.085 510.155 245.701 510.035 245.353C509.927 245.005 509.735 244.728 509.459 244.524C509.183 244.32 508.799 244.218 508.307 244.218C507.839 244.218 507.425 244.319 507.065 244.523C506.705 244.727 506.423 245.003 506.219 245.351C506.027 245.699 505.93 246.083 505.93 246.503L505.928 251.273C505.928 251.537 505.837 251.759 505.657 251.938C505.489 252.106 505.279 252.19 505.027 252.19C504.763 252.19 504.547 252.106 504.379 251.938C504.211 251.758 504.128 251.536 504.128 251.272L504.132 243.64C504.132 243.376 504.216 243.16 504.384 242.992C504.552 242.812 504.768 242.722 505.032 242.722C505.284 242.722 505.494 242.812 505.662 242.992C505.842 243.161 505.932 243.377 505.932 243.641L505.931 244.703L505.589 244.9C505.673 244.636 505.811 244.366 506.003 244.091C506.196 243.815 506.436 243.563 506.724 243.335C507.024 243.107 507.354 242.921 507.714 242.777C508.074 242.634 508.464 242.562 508.884 242.562ZM522.361 251.281C522.361 251.545 522.277 251.767 522.108 251.947C521.94 252.115 521.724 252.199 521.46 252.198C521.208 252.198 520.992 252.114 520.812 251.946C520.645 251.766 520.561 251.544 520.561 251.28L520.565 243.576C520.565 243.312 520.649 243.096 520.817 242.928C520.997 242.748 521.213 242.658 521.465 242.658C521.729 242.659 521.945 242.749 522.113 242.929C522.281 243.097 522.365 243.313 522.365 243.577L522.361 251.281ZM521.448 241.47C521.1 241.47 520.848 241.41 520.692 241.29C520.536 241.158 520.458 240.942 520.458 240.642L520.458 240.354C520.458 240.054 520.543 239.844 520.711 239.724C520.879 239.604 521.131 239.544 521.467 239.544C521.827 239.545 522.085 239.611 522.241 239.743C522.397 239.863 522.474 240.067 522.474 240.355L522.474 240.643C522.474 240.955 522.39 241.171 522.222 241.291C522.066 241.411 521.808 241.471 521.448 241.47ZM529.664 242.519C530.516 242.519 531.176 242.699 531.644 243.06C532.112 243.408 532.436 243.882 532.615 244.482C532.807 245.07 532.903 245.73 532.902 246.462L532.9 251.286C532.9 251.55 532.81 251.772 532.63 251.952C532.462 252.12 532.252 252.204 532 252.204C531.736 252.204 531.52 252.12 531.352 251.951C531.184 251.771 531.1 251.549 531.1 251.285L531.102 246.479C531.103 246.047 531.043 245.663 530.923 245.327C530.803 244.979 530.593 244.703 530.293 244.499C530.006 244.283 529.598 244.175 529.07 244.174C528.578 244.174 528.146 244.282 527.773 244.498C527.401 244.701 527.107 244.977 526.891 245.325C526.687 245.661 526.585 246.045 526.584 246.477L526.582 251.283C526.582 251.547 526.492 251.769 526.312 251.949C526.144 252.117 525.934 252.201 525.682 252.201C525.418 252.2 525.202 252.116 525.034 251.948C524.866 251.768 524.782 251.546 524.782 251.282L524.786 243.65C524.786 243.386 524.87 243.17 525.038 243.002C525.206 242.822 525.422 242.732 525.686 242.733C525.938 242.733 526.148 242.823 526.316 243.003C526.496 243.171 526.586 243.387 526.586 243.651L526.585 244.659L526.261 244.839C526.345 244.575 526.49 244.311 526.694 244.047C526.91 243.771 527.168 243.519 527.468 243.291C527.768 243.052 528.104 242.866 528.476 242.734C528.848 242.59 529.244 242.518 529.664 242.519ZM536.083 252.188C535.783 252.188 535.549 252.104 535.381 251.936C535.225 251.767 535.147 251.533 535.147 251.233L535.147 250.909C535.148 250.609 535.226 250.375 535.382 250.208C535.55 250.04 535.784 249.956 536.084 249.956L536.282 249.956C536.582 249.956 536.81 250.04 536.966 250.208C537.122 250.376 537.2 250.61 537.199 250.91L537.199 251.234C537.199 251.534 537.121 251.768 536.965 251.936C536.809 252.104 536.581 252.188 536.281 252.188L536.083 252.188ZM544.974 239.61C545.85 239.611 546.624 239.779 547.295 240.116C547.967 240.44 548.525 240.896 548.969 241.484C549.424 242.061 549.766 242.733 549.994 243.501C550.221 244.257 550.335 245.061 550.335 245.913C550.334 247.077 550.129 248.139 549.721 249.099C549.312 250.047 548.712 250.802 547.92 251.366C547.127 251.929 546.143 252.211 544.967 252.21L540.575 252.208C540.323 252.208 540.107 252.124 539.927 251.956C539.748 251.776 539.658 251.554 539.658 251.29L539.663 240.526C539.663 240.262 539.753 240.046 539.934 239.878C540.114 239.698 540.33 239.608 540.582 239.608L544.974 239.61ZM544.788 250.482C545.64 250.483 546.33 250.273 546.858 249.853C547.387 249.434 547.771 248.882 548.011 248.198C548.264 247.502 548.39 246.74 548.391 245.912C548.391 245.3 548.319 244.724 548.175 244.184C548.044 243.632 547.828 243.146 547.528 242.726C547.24 242.294 546.869 241.957 546.413 241.717C545.969 241.465 545.429 241.339 544.793 241.338L541.391 241.337L541.553 241.175L541.548 250.661L541.44 250.481L544.788 250.482ZM553.388 252.215C553.136 252.215 552.92 252.13 552.74 251.962C552.572 251.782 552.488 251.56 552.489 251.296L552.494 239.812C552.495 239.548 552.579 239.332 552.747 239.164C552.927 238.984 553.143 238.895 553.395 238.895C553.659 238.895 553.875 238.985 554.043 239.165C554.211 239.333 554.295 239.549 554.294 239.813L554.289 251.297C554.288 251.561 554.204 251.783 554.036 251.963C553.868 252.131 553.652 252.215 553.388 252.215ZM559.261 242.714C559.489 242.714 559.687 242.81 559.855 243.002C560.023 243.194 560.107 243.386 560.106 243.578C560.106 243.818 559.992 244.04 559.764 244.244L554.128 249.281L554.057 247.211L558.595 243.001C558.787 242.809 559.009 242.714 559.261 242.714ZM559.472 252.2C559.22 252.2 559.004 252.098 558.824 251.893L555.226 248.094L556.595 246.834L560.103 250.634C560.295 250.838 560.391 251.066 560.391 251.318C560.39 251.582 560.282 251.798 560.066 251.966C559.862 252.122 559.664 252.2 559.472 252.2ZM562.344 254.595C562.164 254.595 561.984 254.523 561.804 254.379C561.624 254.235 561.534 254.055 561.534 253.839C561.534 253.707 561.57 253.581 561.643 253.461L569.12 238.327C569.204 238.159 569.306 238.033 569.426 237.949C569.558 237.865 569.702 237.823 569.858 237.823C570.026 237.823 570.194 237.889 570.362 238.021C570.542 238.153 570.632 238.339 570.632 238.579C570.632 238.711 570.602 238.843 570.542 238.975L563.064 254.11C562.98 254.266 562.878 254.385 562.758 254.469C562.638 254.553 562.5 254.595 562.344 254.595ZM576.398 252.406C575.534 252.406 574.766 252.286 574.094 252.045C573.423 251.805 572.781 251.409 572.169 250.856C572.037 250.76 571.935 250.646 571.863 250.514C571.803 250.37 571.773 250.226 571.773 250.082C571.774 249.854 571.858 249.65 572.026 249.47C572.194 249.29 572.404 249.2 572.656 249.2C572.848 249.201 573.028 249.267 573.196 249.399C573.652 249.819 574.125 250.137 574.617 250.353C575.121 250.57 575.709 250.678 576.381 250.678C576.861 250.679 577.299 250.601 577.695 250.445C578.103 250.289 578.427 250.079 578.668 249.816C578.908 249.552 579.028 249.246 579.028 248.898C579.028 248.466 578.902 248.112 578.651 247.836C578.411 247.547 578.057 247.313 577.589 247.133C577.133 246.941 576.581 246.778 575.933 246.646C575.333 246.538 574.793 246.388 574.313 246.195C573.846 246.003 573.444 245.763 573.108 245.475C572.772 245.175 572.514 244.82 572.334 244.412C572.155 244.004 572.065 243.53 572.065 242.99C572.065 242.258 572.258 241.628 572.642 241.1C573.026 240.573 573.549 240.165 574.209 239.877C574.869 239.59 575.613 239.446 576.441 239.446C577.197 239.447 577.905 239.567 578.565 239.807C579.225 240.036 579.758 240.348 580.166 240.744C580.454 240.996 580.598 241.266 580.598 241.554C580.598 241.77 580.508 241.974 580.328 242.166C580.159 242.346 579.961 242.436 579.733 242.436C579.565 242.436 579.421 242.388 579.301 242.292C579.11 242.088 578.852 241.908 578.528 241.751C578.204 241.583 577.856 241.445 577.484 241.337C577.124 241.229 576.776 241.175 576.44 241.174C575.9 241.174 575.438 241.252 575.054 241.408C574.67 241.551 574.376 241.755 574.172 242.019C573.967 242.271 573.865 242.571 573.865 242.919C573.865 243.327 573.979 243.663 574.207 243.927C574.446 244.191 574.776 244.408 575.196 244.576C575.616 244.732 576.096 244.876 576.636 245.008C577.296 245.153 577.884 245.315 578.4 245.495C578.928 245.676 579.372 245.91 579.731 246.198C580.091 246.474 580.367 246.822 580.559 247.242C580.751 247.663 580.846 248.185 580.846 248.809C580.846 249.529 580.641 250.159 580.233 250.698C579.825 251.238 579.285 251.658 578.613 251.957C577.952 252.257 577.214 252.407 576.398 252.406ZM587.743 242.548C588.595 242.549 589.255 242.729 589.722 243.089C590.19 243.437 590.514 243.912 590.694 244.512C590.885 245.1 590.981 245.76 590.981 246.492L590.978 251.316C590.978 251.58 590.888 251.802 590.708 251.982C590.54 252.15 590.33 252.233 590.078 252.233C589.814 252.233 589.598 252.149 589.43 251.981C589.262 251.801 589.178 251.579 589.178 251.315L589.181 246.509C589.181 246.077 589.121 245.693 589.001 245.357C588.881 245.009 588.671 244.733 588.372 244.528C588.084 244.312 587.676 244.204 587.148 244.204C586.656 244.204 586.224 244.311 585.852 244.527C585.479 244.731 585.185 245.007 584.969 245.355C584.765 245.691 584.663 246.075 584.663 246.507L584.66 251.313C584.66 251.577 584.57 251.799 584.39 251.978C584.222 252.146 584.012 252.23 583.76 252.23C583.496 252.23 583.28 252.146 583.112 251.978C582.944 251.798 582.86 251.576 582.86 251.312L582.864 243.68C582.864 243.416 582.948 243.2 583.116 243.032C583.284 242.852 583.5 242.762 583.764 242.762C584.016 242.762 584.226 242.852 584.394 243.032C584.574 243.201 584.664 243.417 584.664 243.681L584.664 244.689L584.339 244.868C584.424 244.604 584.568 244.341 584.772 244.077C584.988 243.801 585.246 243.549 585.546 243.321C585.846 243.081 586.182 242.895 586.554 242.764C586.927 242.62 587.323 242.548 587.743 242.548ZM601.24 242.627C601.504 242.627 601.72 242.717 601.888 242.897C602.056 243.065 602.139 243.281 602.139 243.545L602.135 251.321C602.135 251.585 602.051 251.807 601.883 251.987C601.715 252.155 601.499 252.239 601.235 252.239C600.983 252.239 600.767 252.155 600.587 251.987C600.419 251.807 600.335 251.585 600.335 251.321L600.336 250.025L600.714 250.079C600.714 250.295 600.624 250.535 600.444 250.799C600.275 251.062 600.041 251.32 599.741 251.572C599.441 251.812 599.087 252.016 598.679 252.184C598.271 252.339 597.833 252.417 597.365 252.417C596.537 252.417 595.793 252.206 595.133 251.786C594.473 251.354 593.952 250.765 593.568 250.021C593.184 249.277 592.993 248.431 592.993 247.483C592.994 246.511 593.186 245.659 593.571 244.927C593.955 244.183 594.471 243.602 595.119 243.182C595.78 242.762 596.512 242.553 597.316 242.553C597.832 242.553 598.306 242.637 598.738 242.806C599.182 242.974 599.565 243.19 599.889 243.454C600.213 243.718 600.459 244.001 600.627 244.301C600.807 244.589 600.897 244.865 600.896 245.129L600.338 245.183L600.339 243.545C600.339 243.293 600.424 243.077 600.592 242.897C600.772 242.717 600.988 242.627 601.24 242.627ZM597.564 250.761C598.128 250.761 598.626 250.618 599.058 250.33C599.49 250.042 599.826 249.652 600.066 249.16C600.307 248.657 600.427 248.099 600.427 247.487C600.428 246.863 600.308 246.305 600.068 245.812C599.828 245.32 599.493 244.93 599.061 244.642C598.629 244.354 598.131 244.209 597.567 244.209C597.015 244.209 596.523 244.353 596.091 244.64C595.671 244.928 595.334 245.318 595.082 245.81C594.842 246.302 594.722 246.86 594.721 247.484C594.721 248.096 594.841 248.654 595.08 249.158C595.332 249.65 595.668 250.04 596.088 250.328C596.52 250.617 597.012 250.761 597.564 250.761ZM606.349 251.324C606.349 251.588 606.265 251.81 606.097 251.989C605.929 252.157 605.713 252.241 605.449 252.241C605.197 252.241 604.981 252.157 604.801 251.989C604.633 251.809 604.549 251.587 604.549 251.323L604.553 243.619C604.553 243.355 604.637 243.139 604.805 242.971C604.985 242.791 605.201 242.701 605.453 242.701C605.717 242.701 605.933 242.791 606.101 242.971C606.269 243.14 606.353 243.356 606.353 243.62L606.349 251.324ZM605.436 241.513C605.088 241.513 604.836 241.453 604.68 241.333C604.524 241.201 604.446 240.985 604.446 240.685L604.447 240.397C604.447 240.097 604.531 239.887 604.699 239.767C604.867 239.647 605.119 239.587 605.455 239.587C605.815 239.587 606.073 239.653 606.229 239.786C606.385 239.906 606.463 240.11 606.463 240.398L606.462 240.686C606.462 240.998 606.378 241.214 606.21 241.334C606.054 241.453 605.796 241.513 605.436 241.513ZM610.714 251.326C610.714 251.59 610.624 251.812 610.444 251.992C610.276 252.16 610.066 252.243 609.814 252.243C609.562 252.243 609.346 252.159 609.166 251.991C608.998 251.811 608.914 251.589 608.914 251.325L608.92 239.841C608.92 239.577 609.01 239.361 609.19 239.193C609.371 239.013 609.587 238.923 609.839 238.923C610.103 238.923 610.313 239.014 610.468 239.194C610.636 239.362 610.72 239.578 610.72 239.842L610.714 251.326ZM613.989 247.583C613.737 247.583 613.521 247.499 613.341 247.331C613.173 247.151 613.09 246.935 613.09 246.683C613.09 246.419 613.174 246.209 613.342 246.053C613.522 245.885 613.738 245.801 613.99 245.801L617.374 245.803C617.626 245.803 617.842 245.893 618.022 246.074C618.202 246.242 618.292 246.458 618.292 246.722C618.292 246.962 618.201 247.166 618.021 247.334C617.841 247.501 617.625 247.585 617.373 247.585L613.989 247.583ZM625.18 241.991L621.125 251.709C621.053 251.901 620.945 252.051 620.801 252.159C620.657 252.267 620.495 252.321 620.315 252.321C620.051 252.321 619.853 252.248 619.721 252.104C619.589 251.948 619.517 251.756 619.505 251.528C619.505 251.444 619.523 251.348 619.559 251.24L624.137 240.191C624.221 239.987 624.341 239.831 624.497 239.723C624.665 239.615 624.845 239.567 625.037 239.579C625.217 239.579 625.385 239.633 625.541 239.741C625.697 239.849 625.811 239.999 625.883 240.192L630.395 251.084C630.443 251.204 630.467 251.324 630.467 251.444C630.467 251.708 630.377 251.924 630.197 252.092C630.029 252.248 629.837 252.326 629.621 252.325C629.441 252.325 629.273 252.271 629.117 252.163C628.973 252.043 628.865 251.893 628.793 251.713L624.712 242.045L625.18 241.991ZM621.846 249.153L622.657 247.426L627.751 247.428L628.056 249.157L621.846 249.153ZM631.817 242.895L636.047 242.897C636.287 242.897 636.485 242.981 636.64 243.149C636.808 243.305 636.892 243.503 636.892 243.743C636.892 243.971 636.808 244.163 636.64 244.319C636.484 244.475 636.286 244.553 636.046 244.553L631.816 244.551C631.576 244.55 631.372 244.472 631.204 244.316C631.048 244.148 630.97 243.95 630.97 243.722C630.97 243.482 631.048 243.284 631.204 243.128C631.373 242.972 631.577 242.894 631.817 242.895ZM633.708 240.555C633.972 240.556 634.188 240.646 634.356 240.826C634.524 240.994 634.607 241.21 634.607 241.474L634.603 249.826C634.603 250.042 634.639 250.216 634.711 250.348C634.783 250.48 634.879 250.57 634.999 250.618C635.131 250.666 635.263 250.69 635.395 250.69C635.527 250.69 635.641 250.666 635.737 250.619C635.845 250.571 635.971 250.547 636.115 250.547C636.259 250.547 636.391 250.613 636.511 250.745C636.631 250.877 636.69 251.057 636.69 251.285C636.69 251.573 636.534 251.807 636.222 251.987C635.91 252.167 635.574 252.256 635.214 252.256C635.01 252.256 634.77 252.238 634.494 252.202C634.218 252.166 633.948 252.076 633.684 251.931C633.432 251.787 633.222 251.559 633.054 251.247C632.886 250.923 632.803 250.473 632.803 249.897L632.807 241.473C632.807 241.209 632.892 240.993 633.06 240.825C633.24 240.645 633.456 240.555 633.708 240.555ZM638.76 242.898L642.99 242.9C643.23 242.9 643.428 242.984 643.584 243.153C643.752 243.309 643.836 243.507 643.835 243.747C643.835 243.975 643.751 244.167 643.583 244.323C643.427 244.478 643.229 244.556 642.989 244.556L638.759 244.554C638.519 244.554 638.315 244.476 638.147 244.32C637.991 244.152 637.913 243.954 637.913 243.726C637.914 243.486 637.992 243.288 638.148 243.132C638.316 242.976 638.52 242.898 638.76 242.898ZM640.651 240.559C640.915 240.559 641.131 240.649 641.299 240.829C641.467 240.997 641.551 241.213 641.551 241.477L641.546 249.829C641.546 250.045 641.582 250.219 641.654 250.352C641.726 250.484 641.822 250.574 641.942 250.622C642.074 250.67 642.206 250.694 642.338 250.694C642.47 250.694 642.584 250.67 642.68 250.622C642.788 250.574 642.914 250.55 643.058 250.55C643.202 250.55 643.334 250.616 643.454 250.748C643.574 250.881 643.634 251.061 643.634 251.289C643.634 251.577 643.477 251.81 643.165 251.99C642.853 252.17 642.517 252.26 642.157 252.26C641.953 252.26 641.713 252.242 641.437 252.205C641.161 252.169 640.891 252.079 640.627 251.935C640.375 251.791 640.166 251.563 639.998 251.251C639.83 250.927 639.746 250.477 639.746 249.901L639.751 241.477C639.751 241.213 639.835 240.997 640.003 240.829C640.183 240.649 640.399 240.559 640.651 240.559ZM653.587 242.654C653.851 242.654 654.067 242.744 654.235 242.924C654.403 243.092 654.487 243.308 654.487 243.572L654.483 251.348C654.483 251.612 654.399 251.834 654.231 252.014C654.063 252.182 653.847 252.266 653.583 252.266C653.331 252.265 653.115 252.181 652.935 252.013C652.767 251.833 652.683 251.611 652.683 251.347L652.684 250.051L653.062 250.105C653.062 250.321 652.971 250.561 652.791 250.825C652.623 251.089 652.389 251.347 652.089 251.599C651.789 251.839 651.435 252.042 651.027 252.21C650.618 252.366 650.18 252.444 649.712 252.444C648.884 252.443 648.141 252.233 647.481 251.812C646.821 251.38 646.299 250.792 645.916 250.048C645.532 249.303 645.34 248.457 645.341 247.509C645.341 246.537 645.534 245.685 645.918 244.954C646.303 244.21 646.819 243.628 647.467 243.208C648.127 242.789 648.859 242.579 649.663 242.58C650.179 242.58 650.653 242.664 651.085 242.832C651.529 243.001 651.913 243.217 652.237 243.481C652.561 243.745 652.807 244.027 652.975 244.327C653.154 244.615 653.244 244.891 653.244 245.155L652.686 245.209L652.687 243.571C652.687 243.319 652.771 243.103 652.939 242.923C653.119 242.743 653.335 242.653 653.587 242.654ZM649.911 250.788C650.475 250.788 650.973 250.644 651.405 250.356C651.838 250.069 652.174 249.679 652.414 249.187C652.654 248.683 652.775 248.125 652.775 247.513C652.775 246.889 652.656 246.331 652.416 245.839C652.176 245.347 651.84 244.957 651.408 244.668C650.977 244.38 650.479 244.236 649.915 244.236C649.363 244.235 648.871 244.379 648.438 244.667C648.018 244.955 647.682 245.345 647.43 245.836C647.19 246.328 647.069 246.886 647.069 247.51C647.069 248.122 647.188 248.68 647.428 249.184C647.68 249.677 648.016 250.067 648.435 250.355C648.867 250.643 649.359 250.787 649.911 250.788ZM661.203 242.585C661.851 242.586 662.427 242.658 662.931 242.802C663.435 242.935 663.825 243.127 664.101 243.379C664.389 243.619 664.532 243.901 664.532 244.225C664.532 244.429 664.472 244.621 664.352 244.801C664.232 244.969 664.052 245.053 663.812 245.053C663.644 245.053 663.5 245.023 663.38 244.963C663.272 244.903 663.17 244.83 663.074 244.746C662.978 244.662 662.858 244.578 662.714 244.494C662.582 244.422 662.384 244.362 662.12 244.314C661.868 244.266 661.64 244.242 661.436 244.242C660.8 244.241 660.248 244.385 659.78 244.673C659.324 244.961 658.964 245.35 658.699 245.842C658.447 246.334 658.321 246.892 658.321 247.516C658.32 248.14 658.446 248.698 658.698 249.19C658.962 249.682 659.315 250.073 659.759 250.361C660.215 250.649 660.743 250.793 661.343 250.794C661.703 250.794 661.997 250.77 662.225 250.722C662.453 250.662 662.651 250.59 662.819 250.506C662.999 250.398 663.149 250.29 663.269 250.183C663.401 250.063 663.581 250.003 663.809 250.003C664.073 250.003 664.271 250.087 664.403 250.255C664.547 250.411 664.619 250.609 664.619 250.849C664.619 251.113 664.457 251.371 664.133 251.623C663.82 251.863 663.4 252.061 662.872 252.216C662.344 252.372 661.762 252.45 661.126 252.449C660.19 252.449 659.374 252.233 658.678 251.8C657.995 251.368 657.461 250.78 657.077 250.035C656.706 249.291 656.52 248.451 656.521 247.515C656.521 246.567 656.72 245.727 657.116 244.995C657.512 244.252 658.065 243.664 658.773 243.232C659.481 242.801 660.291 242.585 661.203 242.585ZM667.382 252.273C667.13 252.272 666.914 252.188 666.734 252.02C666.566 251.84 666.483 251.618 666.483 251.354L666.488 239.87C666.489 239.606 666.573 239.39 666.741 239.222C666.921 239.042 667.137 238.952 667.389 238.953C667.653 238.953 667.869 239.043 668.037 239.223C668.205 239.391 668.289 239.607 668.288 239.871L668.283 251.355C668.283 251.619 668.198 251.841 668.03 252.021C667.862 252.189 667.646 252.273 667.382 252.273ZM673.255 242.772C673.483 242.772 673.681 242.868 673.849 243.06C674.017 243.252 674.101 243.444 674.101 243.636C674.1 243.876 673.986 244.098 673.758 244.302L668.122 249.339L668.051 247.269L672.589 243.059C672.781 242.867 673.003 242.771 673.255 242.772ZM673.466 252.258C673.214 252.258 672.998 252.155 672.818 251.951L669.22 248.152L670.589 246.892L674.097 250.692C674.289 250.896 674.385 251.124 674.385 251.376C674.385 251.64 674.276 251.856 674.06 252.024C673.856 252.18 673.658 252.258 673.466 252.258ZM676.338 254.653C676.158 254.653 675.978 254.581 675.798 254.437C675.618 254.293 675.528 254.113 675.528 253.897C675.529 253.765 675.565 253.639 675.637 253.519L683.114 238.385C683.198 238.217 683.301 238.091 683.421 238.007C683.553 237.923 683.697 237.881 683.853 237.881C684.021 237.881 684.189 237.947 684.357 238.079C684.536 238.211 684.626 238.397 684.626 238.637C684.626 238.769 684.596 238.901 684.536 239.033L677.058 254.168C676.974 254.323 676.872 254.443 676.752 254.527C676.632 254.611 676.494 254.653 676.338 254.653Z" fill="black"/>
</svg>
