<svg width="773" height="351" viewBox="0 0 773 351" fill="none" xmlns="http://www.w3.org/2000/svg">
<path d="M54.8042 273.886C29.0703 245.074 33.7029 203.58 65.1513 181.208C96.5997 158.836 142.955 164.057 168.689 192.87C194.423 221.682 189.79 263.176 158.342 285.548C126.894 307.92 80.5381 302.699 54.8042 273.886Z" fill="#FCD993"/>
<path d="M95.4273 253.284C70.6247 225.515 75.6075 185.154 106.557 163.137C137.506 141.12 182.702 145.784 207.504 173.554C232.307 201.324 227.324 241.684 196.375 263.701C165.426 285.718 120.23 281.054 95.4273 253.284Z" fill="#FFFBF5"/>
<path d="M118.187 189.247C119.079 189.341 121.32 189.606 123.634 191.3C124.487 191.925 125.813 192.92 126.8 194.852C127.839 196.885 127.903 198.779 127.912 199.218C127.92 199.674 127.928 201.783 126.777 204.041C125.668 206.215 124.113 207.292 123.095 207.978C122.617 208.3 120.25 209.845 116.852 209.954C115.819 209.987 113.296 210.034 110.618 208.413C109.675 207.842 107.946 206.763 106.731 204.457C106.395 203.818 105.567 202.201 105.54 199.895C105.534 199.332 105.561 197.552 106.465 195.596C107.114 194.19 107.917 193.34 108.428 192.809C109.818 191.364 111.216 190.705 112.123 190.29C113.297 189.751 114.239 189.527 114.533 189.461C115.227 189.306 116.55 189.077 118.187 189.249L118.187 189.247Z" fill="#FFD278" fill-opacity="0.78" stroke="white" stroke-width="0.25" stroke-linecap="round" stroke-linejoin="round"/>
<path d="M138.427 247.24C138.679 247.24 138.889 247.325 139.057 247.493C139.237 247.661 139.327 247.871 139.327 248.123C139.326 248.375 139.236 248.585 139.056 248.753C138.888 248.921 138.678 249.004 138.426 249.004L132.378 249.001C132.114 249.001 131.892 248.917 131.712 248.749C131.544 248.569 131.46 248.347 131.461 248.083L131.466 237.319C131.466 237.055 131.556 236.839 131.736 236.671C131.916 236.491 132.15 236.401 132.438 236.401C132.678 236.401 132.888 236.491 133.068 236.672C133.26 236.84 133.356 237.056 133.356 237.32L133.351 247.544L132.973 247.238L138.427 247.24ZM142.886 248.089C142.886 248.353 142.802 248.575 142.634 248.754C142.466 248.922 142.25 249.006 141.986 249.006C141.734 249.006 141.518 248.922 141.338 248.754C141.17 248.574 141.086 248.352 141.086 248.088L141.09 240.384C141.09 240.12 141.174 239.904 141.342 239.736C141.523 239.556 141.739 239.466 141.991 239.466C142.255 239.466 142.471 239.556 142.638 239.736C142.806 239.905 142.89 240.121 142.89 240.385L142.886 248.089ZM141.973 238.278C141.625 238.278 141.373 238.218 141.217 238.098C141.061 237.966 140.983 237.75 140.984 237.45L140.984 237.162C140.984 236.862 141.068 236.652 141.236 236.532C141.404 236.412 141.656 236.352 141.992 236.352C142.352 236.352 142.61 236.418 142.766 236.55C142.922 236.671 143 236.875 143 237.163L143 237.451C142.999 237.763 142.915 237.979 142.747 238.098C142.591 238.218 142.333 238.278 141.973 238.278ZM150.19 239.326C151.042 239.327 151.702 239.507 152.17 239.867C152.637 240.216 152.961 240.69 153.141 241.29C153.333 241.878 153.428 242.538 153.428 243.27L153.425 248.094C153.425 248.358 153.335 248.58 153.155 248.76C152.987 248.928 152.777 249.012 152.525 249.011C152.261 249.011 152.045 248.927 151.877 248.759C151.709 248.579 151.625 248.357 151.625 248.093L151.628 243.287C151.628 242.855 151.568 242.471 151.448 242.135C151.329 241.787 151.119 241.511 150.819 241.307C150.531 241.09 150.123 240.982 149.595 240.982C149.103 240.982 148.671 241.089 148.299 241.305C147.927 241.509 147.633 241.785 147.416 242.133C147.212 242.469 147.11 242.853 147.11 243.285L147.107 248.091C147.107 248.355 147.017 248.577 146.837 248.757C146.669 248.924 146.459 249.008 146.207 249.008C145.943 249.008 145.727 248.924 145.559 248.756C145.391 248.576 145.307 248.354 145.307 248.09L145.311 240.458C145.311 240.194 145.396 239.978 145.564 239.81C145.732 239.63 145.948 239.54 146.212 239.54C146.464 239.54 146.674 239.63 146.842 239.811C147.022 239.979 147.111 240.195 147.111 240.459L147.111 241.467L146.787 241.647C146.871 241.383 147.015 241.119 147.219 240.855C147.435 240.579 147.693 240.327 147.994 240.099C148.294 239.859 148.63 239.673 149.002 239.542C149.374 239.398 149.77 239.326 150.19 239.326ZM156.968 249.014C156.716 249.014 156.5 248.929 156.32 248.761C156.152 248.581 156.069 248.359 156.069 248.095L156.074 236.611C156.075 236.347 156.159 236.131 156.327 235.963C156.507 235.783 156.723 235.694 156.975 235.694C157.239 235.694 157.455 235.784 157.623 235.964C157.791 236.132 157.875 236.348 157.874 236.612L157.869 248.096C157.869 248.36 157.784 248.582 157.616 248.762C157.448 248.93 157.232 249.014 156.968 249.014ZM162.841 239.513C163.069 239.513 163.267 239.609 163.435 239.801C163.603 239.993 163.687 240.185 163.687 240.377C163.686 240.617 163.572 240.839 163.344 241.043L157.708 246.08L157.637 244.01L162.175 239.8C162.367 239.608 162.589 239.513 162.841 239.513ZM163.052 248.999C162.8 248.999 162.584 248.897 162.404 248.692L158.806 244.893L160.175 243.633L163.683 247.433C163.875 247.637 163.971 247.865 163.971 248.117C163.971 248.381 163.862 248.597 163.646 248.765C163.442 248.921 163.244 248.999 163.052 248.999ZM175.273 249.023C174.985 249.023 174.751 248.939 174.571 248.771C174.403 248.591 174.319 248.369 174.32 248.105L174.325 237.323L176.251 237.324L176.246 248.106C176.245 248.369 176.149 248.591 175.957 248.771C175.777 248.939 175.549 249.023 175.273 249.023ZM171.193 238.149C170.941 238.149 170.725 238.071 170.545 237.915C170.365 237.747 170.275 237.53 170.275 237.266C170.275 237.014 170.365 236.811 170.545 236.655C170.725 236.499 170.941 236.421 171.193 236.421L179.383 236.425C179.635 236.425 179.845 236.509 180.013 236.677C180.193 236.834 180.283 237.038 180.283 237.29C180.283 237.554 180.193 237.764 180.013 237.919C179.845 238.075 179.635 238.153 179.383 238.153L171.193 238.149ZM183.808 248.109C183.808 248.373 183.724 248.595 183.556 248.775C183.388 248.943 183.172 249.027 182.908 249.027C182.656 249.027 182.44 248.943 182.26 248.775C182.092 248.594 182.008 248.372 182.008 248.108L182.012 240.404C182.012 240.14 182.096 239.924 182.264 239.757C182.444 239.577 182.66 239.487 182.912 239.487C183.176 239.487 183.392 239.577 183.56 239.757C183.728 239.925 183.812 240.141 183.812 240.405L183.808 248.109ZM182.895 238.299C182.547 238.299 182.295 238.239 182.139 238.118C181.983 237.986 181.905 237.77 181.905 237.47L181.906 237.182C181.906 236.882 181.99 236.672 182.158 236.553C182.326 236.433 182.578 236.373 182.914 236.373C183.274 236.373 183.532 236.439 183.688 236.571C183.844 236.691 183.922 236.895 183.922 237.183L183.921 237.471C183.921 237.783 183.837 237.999 183.669 238.119C183.513 238.239 183.255 238.299 182.895 238.299ZM188.173 248.112C188.173 248.376 188.083 248.598 187.903 248.777C187.735 248.945 187.525 249.029 187.273 249.029C187.021 249.029 186.805 248.945 186.625 248.777C186.457 248.597 186.373 248.375 186.373 248.111L186.379 236.627C186.379 236.363 186.469 236.147 186.65 235.979C186.83 235.799 187.046 235.709 187.298 235.709C187.562 235.709 187.772 235.799 187.928 235.979C188.095 236.148 188.179 236.364 188.179 236.628L188.173 248.112ZM197.038 236.434C197.278 236.434 197.488 236.524 197.668 236.704C197.86 236.872 197.956 237.089 197.956 237.353L197.95 248.117C197.938 248.381 197.836 248.602 197.644 248.782C197.464 248.95 197.248 249.034 196.996 249.034C196.72 249.034 196.492 248.95 196.312 248.782C196.144 248.602 196.06 248.38 196.06 248.116L196.066 237.352C196.066 237.088 196.156 236.872 196.336 236.704C196.516 236.524 196.75 236.434 197.038 236.434ZM205.156 236.438C205.444 236.438 205.672 236.528 205.84 236.709C206.008 236.877 206.092 237.093 206.092 237.357L206.086 248.121C206.086 248.385 205.996 248.607 205.816 248.787C205.648 248.954 205.42 249.038 205.132 249.038C204.88 249.038 204.664 248.954 204.484 248.786C204.304 248.606 204.214 248.384 204.214 248.12L204.22 237.356C204.22 237.092 204.31 236.876 204.49 236.708C204.682 236.528 204.904 236.438 205.156 236.438ZM196.963 241.798L205.171 241.802L205.152 243.53L196.944 243.526L196.963 241.798ZM210.851 249.437C210.851 250.085 210.718 250.643 210.454 251.111C210.19 251.579 209.842 251.939 209.41 252.19C208.977 252.442 208.515 252.568 208.023 252.568C207.771 252.568 207.567 252.483 207.412 252.315C207.256 252.159 207.178 251.967 207.178 251.739L207.178 251.577C207.178 251.361 207.256 251.187 207.412 251.055C207.556 250.923 207.736 250.822 207.952 250.75C208.228 250.666 208.444 250.54 208.601 250.372C208.769 250.216 208.883 250.012 208.943 249.76C209.015 249.52 209.051 249.256 209.051 248.968L209.056 240.472C209.056 240.22 209.14 240.01 209.308 239.842C209.476 239.662 209.692 239.572 209.956 239.573C210.22 239.573 210.436 239.663 210.604 239.843C210.772 240.011 210.856 240.221 210.856 240.473L210.851 249.437ZM209.921 238.313C209.573 238.312 209.321 238.252 209.165 238.132C209.009 238 208.931 237.784 208.931 237.484L208.931 237.196C208.931 236.896 209.015 236.686 209.184 236.566C209.352 236.446 209.604 236.386 209.94 236.387C210.3 236.387 210.558 236.453 210.714 236.585C210.869 236.705 210.947 236.909 210.947 237.197L210.947 237.485C210.947 237.797 210.863 238.013 210.695 238.133C210.539 238.253 210.281 238.313 209.921 238.313ZM218.131 249.225C217.135 249.224 216.271 249.02 215.539 248.611C214.807 248.191 214.238 247.621 213.83 246.901C213.435 246.168 213.237 245.334 213.237 244.398C213.238 243.342 213.448 242.442 213.869 241.699C214.301 240.943 214.859 240.367 215.544 239.971C216.228 239.564 216.954 239.36 217.722 239.361C218.31 239.361 218.868 239.481 219.396 239.721C219.924 239.95 220.392 240.274 220.799 240.694C221.219 241.102 221.549 241.589 221.789 242.153C222.028 242.705 222.154 243.311 222.166 243.971C222.154 244.211 222.057 244.409 221.877 244.565C221.697 244.721 221.487 244.798 221.247 244.798L214.245 244.795L213.814 243.265L220.582 243.268L220.24 243.592L220.24 243.142C220.216 242.722 220.078 242.356 219.827 242.044C219.575 241.72 219.263 241.473 218.891 241.305C218.519 241.125 218.129 241.035 217.721 241.035C217.361 241.034 217.013 241.094 216.677 241.214C216.353 241.322 216.059 241.502 215.795 241.754C215.543 242.005 215.338 242.341 215.182 242.761C215.038 243.169 214.966 243.679 214.965 244.291C214.965 244.951 215.103 245.527 215.379 246.019C215.654 246.512 216.026 246.896 216.494 247.172C216.962 247.436 217.478 247.568 218.042 247.569C218.486 247.569 218.852 247.527 219.14 247.443C219.428 247.347 219.668 247.234 219.86 247.102C220.052 246.97 220.22 246.844 220.364 246.724C220.544 246.616 220.724 246.562 220.904 246.562C221.12 246.562 221.3 246.64 221.444 246.796C221.588 246.941 221.66 247.115 221.66 247.319C221.66 247.583 221.528 247.823 221.264 248.038C220.939 248.35 220.489 248.626 219.913 248.866C219.349 249.105 218.755 249.225 218.131 249.225ZM228.955 239.42C229.843 239.421 230.526 239.643 231.006 240.087C231.486 240.52 231.804 241.108 231.959 241.852L231.671 241.762L231.797 241.474C231.954 241.162 232.188 240.85 232.5 240.538C232.824 240.214 233.208 239.95 233.652 239.747C234.096 239.531 234.571 239.423 235.075 239.423C235.903 239.424 236.544 239.604 237 239.964C237.456 240.313 237.774 240.787 237.954 241.387C238.133 241.975 238.223 242.635 238.223 243.367L238.22 248.137C238.22 248.401 238.136 248.623 237.968 248.803C237.8 248.971 237.584 249.055 237.32 249.055C237.068 249.054 236.852 248.97 236.672 248.802C236.504 248.622 236.42 248.4 236.42 248.136L236.422 243.384C236.423 242.964 236.363 242.58 236.243 242.232C236.135 241.884 235.937 241.608 235.65 241.404C235.374 241.188 234.99 241.079 234.498 241.079C234.03 241.079 233.61 241.187 233.238 241.402C232.877 241.606 232.595 241.882 232.391 242.23C232.187 242.578 232.085 242.962 232.084 243.382L232.082 248.134C232.082 248.398 231.998 248.62 231.83 248.8C231.662 248.968 231.446 249.052 231.182 249.051C230.918 249.051 230.702 248.967 230.534 248.799C230.366 248.619 230.282 248.397 230.282 248.133L230.285 243.363C230.285 242.943 230.225 242.559 230.105 242.211C229.997 241.863 229.805 241.587 229.53 241.383C229.254 241.178 228.87 241.076 228.378 241.076C227.91 241.076 227.496 241.178 227.136 241.381C226.775 241.585 226.493 241.861 226.289 242.209C226.097 242.557 226.001 242.941 226.001 243.361L225.998 248.131C225.998 248.395 225.908 248.617 225.728 248.797C225.56 248.965 225.35 249.048 225.098 249.048C224.834 249.048 224.618 248.964 224.45 248.796C224.282 248.616 224.198 248.394 224.198 248.13L224.202 240.498C224.202 240.234 224.286 240.018 224.454 239.85C224.622 239.67 224.838 239.58 225.102 239.58C225.354 239.58 225.564 239.671 225.732 239.851C225.912 240.019 226.002 240.235 226.002 240.499L226.001 241.561L225.659 241.759C225.743 241.495 225.882 241.225 226.074 240.949C226.266 240.673 226.506 240.421 226.794 240.193C227.094 239.965 227.424 239.78 227.784 239.636C228.144 239.492 228.535 239.42 228.955 239.42ZM245.496 239.429C246.384 239.429 247.067 239.651 247.547 240.096C248.027 240.528 248.345 241.116 248.5 241.86L248.212 241.77L248.338 241.482C248.495 241.17 248.729 240.858 249.041 240.546C249.365 240.223 249.749 239.959 250.193 239.755C250.637 239.539 251.112 239.432 251.616 239.432C252.444 239.432 253.085 239.613 253.541 239.973C253.997 240.321 254.315 240.795 254.495 241.395C254.674 241.983 254.764 242.643 254.764 243.375L254.761 248.145C254.761 248.409 254.677 248.631 254.509 248.811C254.341 248.979 254.125 249.063 253.861 249.063C253.609 249.063 253.393 248.979 253.213 248.811C253.045 248.631 252.961 248.408 252.961 248.144L252.964 243.392C252.964 242.972 252.904 242.588 252.784 242.24C252.676 241.892 252.478 241.616 252.191 241.412C251.915 241.196 251.531 241.088 251.039 241.088C250.571 241.087 250.151 241.195 249.779 241.411C249.418 241.615 249.136 241.891 248.932 242.238C248.728 242.586 248.626 242.97 248.626 243.39L248.623 248.142C248.623 248.406 248.539 248.628 248.371 248.808C248.203 248.976 247.987 249.06 247.723 249.06C247.459 249.06 247.243 248.976 247.075 248.807C246.907 248.627 246.823 248.405 246.823 248.141L246.826 243.371C246.826 242.951 246.766 242.567 246.646 242.219C246.538 241.871 246.346 241.595 246.071 241.391C245.795 241.187 245.411 241.085 244.919 241.084C244.451 241.084 244.037 241.186 243.677 241.39C243.316 241.594 243.034 241.869 242.83 242.217C242.638 242.565 242.542 242.949 242.542 243.369L242.539 248.139C242.539 248.403 242.449 248.625 242.269 248.805C242.101 248.973 241.891 249.057 241.639 249.057C241.375 249.057 241.159 248.972 240.991 248.804C240.823 248.624 240.739 248.402 240.739 248.138L240.743 240.506C240.743 240.242 240.827 240.026 240.995 239.858C241.163 239.678 241.379 239.589 241.643 239.589C241.895 239.589 242.105 239.679 242.273 239.859C242.453 240.027 242.543 240.243 242.543 240.507L242.542 241.569L242.2 241.767C242.284 241.503 242.423 241.233 242.615 240.957C242.807 240.681 243.047 240.429 243.335 240.202C243.635 239.974 243.965 239.788 244.325 239.644C244.685 239.5 245.076 239.428 245.496 239.429ZM261.69 249.247C260.694 249.246 259.83 249.042 259.098 248.634C258.366 248.213 257.796 247.643 257.389 246.923C256.993 246.191 256.796 245.356 256.796 244.42C256.797 243.364 257.007 242.465 257.427 241.721C257.86 240.965 258.418 240.389 259.102 239.994C259.786 239.586 260.513 239.382 261.281 239.383C261.869 239.383 262.427 239.503 262.954 239.744C263.482 239.972 263.95 240.296 264.358 240.716C264.778 241.124 265.107 241.611 265.347 242.175C265.587 242.727 265.713 243.333 265.724 243.993C265.712 244.233 265.616 244.431 265.436 244.587C265.256 244.743 265.046 244.821 264.806 244.821L257.804 244.817L257.373 243.287L264.141 243.29L263.798 243.614L263.799 243.164C263.775 242.744 263.637 242.378 263.385 242.066C263.133 241.742 262.821 241.495 262.45 241.327C262.078 241.147 261.688 241.057 261.28 241.057C260.92 241.057 260.572 241.116 260.236 241.236C259.912 241.344 259.617 241.524 259.353 241.776C259.101 242.028 258.897 242.364 258.741 242.783C258.597 243.191 258.524 243.701 258.524 244.313C258.524 244.973 258.661 245.549 258.937 246.042C259.213 246.534 259.585 246.918 260.053 247.194C260.52 247.458 261.036 247.591 261.6 247.591C262.044 247.591 262.41 247.549 262.698 247.465C262.987 247.37 263.227 247.256 263.419 247.124C263.611 246.992 263.779 246.866 263.923 246.746C264.103 246.638 264.283 246.584 264.463 246.584C264.679 246.584 264.859 246.663 265.003 246.819C265.147 246.963 265.219 247.137 265.219 247.341C265.218 247.605 265.086 247.845 264.822 248.061C264.498 248.372 264.048 248.648 263.472 248.888C262.908 249.128 262.314 249.247 261.69 249.247ZM267.199 247.594C267.091 247.426 267.043 247.234 267.055 247.018C267.067 246.79 267.193 246.598 267.434 246.442C267.602 246.334 267.776 246.292 267.956 246.316C268.148 246.328 268.328 246.418 268.495 246.586C268.831 246.959 269.203 247.253 269.611 247.469C270.031 247.685 270.535 247.793 271.123 247.794C271.363 247.782 271.609 247.746 271.861 247.686C272.113 247.614 272.329 247.494 272.509 247.326C272.689 247.147 272.779 246.889 272.779 246.553C272.78 246.253 272.684 246.013 272.492 245.832C272.3 245.652 272.048 245.508 271.736 245.4C271.424 245.28 271.088 245.172 270.728 245.076C270.344 244.967 269.954 244.847 269.558 244.715C269.174 244.583 268.827 244.415 268.515 244.21C268.203 243.994 267.945 243.718 267.741 243.382C267.549 243.046 267.453 242.632 267.454 242.14C267.454 241.576 267.61 241.09 267.922 240.682C268.247 240.274 268.661 239.956 269.165 239.729C269.681 239.501 270.239 239.387 270.839 239.388C271.187 239.388 271.553 239.436 271.937 239.532C272.321 239.616 272.693 239.755 273.053 239.947C273.413 240.139 273.725 240.391 273.988 240.703C274.108 240.859 274.174 241.045 274.186 241.261C274.21 241.477 274.114 241.669 273.898 241.837C273.754 241.957 273.58 242.011 273.376 241.999C273.172 241.987 273.004 241.921 272.872 241.801C272.644 241.512 272.35 241.29 271.99 241.134C271.63 240.966 271.222 240.882 270.766 240.882C270.538 240.881 270.298 240.917 270.046 240.989C269.806 241.049 269.602 241.163 269.434 241.331C269.266 241.499 269.182 241.745 269.182 242.069C269.182 242.369 269.277 242.609 269.469 242.789C269.673 242.969 269.937 243.119 270.261 243.239C270.585 243.359 270.939 243.468 271.323 243.564C271.695 243.66 272.061 243.774 272.421 243.906C272.793 244.039 273.123 244.213 273.411 244.429C273.71 244.633 273.95 244.903 274.13 245.239C274.322 245.563 274.418 245.977 274.418 246.481C274.417 247.069 274.243 247.573 273.895 247.993C273.559 248.401 273.126 248.713 272.598 248.928C272.082 249.144 271.536 249.252 270.96 249.252C270.276 249.251 269.592 249.131 268.908 248.891C268.236 248.638 267.667 248.206 267.199 247.594ZM278.044 248.157C278.044 248.421 277.96 248.643 277.792 248.823C277.624 248.991 277.408 249.075 277.144 249.075C276.892 249.075 276.676 248.991 276.496 248.822C276.328 248.642 276.244 248.42 276.244 248.156L276.248 240.452C276.248 240.188 276.333 239.972 276.501 239.804C276.681 239.625 276.897 239.535 277.149 239.535C277.413 239.535 277.629 239.625 277.797 239.805C277.965 239.973 278.048 240.189 278.048 240.453L278.044 248.157ZM277.131 238.347C276.783 238.347 276.531 238.286 276.375 238.166C276.22 238.034 276.142 237.818 276.142 237.518L276.142 237.23C276.142 236.93 276.226 236.72 276.394 236.6C276.562 236.48 276.814 236.421 277.15 236.421C277.51 236.421 277.768 236.487 277.924 236.619C278.08 236.739 278.158 236.943 278.158 237.231L278.158 237.519C278.158 237.831 278.074 238.047 277.905 238.167C277.749 238.287 277.491 238.347 277.131 238.347ZM288.23 235.76C288.494 235.761 288.71 235.845 288.878 236.013C289.046 236.181 289.13 236.403 289.129 236.679L289.124 248.163C289.124 248.427 289.039 248.649 288.871 248.829C288.703 248.997 288.487 249.081 288.223 249.08C287.971 249.08 287.755 248.996 287.575 248.828C287.407 248.648 287.324 248.426 287.324 248.162L287.324 246.866L287.702 246.884C287.702 247.1 287.612 247.346 287.432 247.622C287.264 247.886 287.03 248.144 286.73 248.396C286.429 248.647 286.075 248.857 285.667 249.025C285.259 249.181 284.821 249.259 284.353 249.258C283.525 249.258 282.781 249.048 282.121 248.627C281.462 248.195 280.94 247.613 280.556 246.881C280.173 246.136 279.981 245.284 279.982 244.324C279.982 243.364 280.175 242.518 280.559 241.787C280.943 241.043 281.46 240.461 282.108 240.041C282.768 239.61 283.5 239.394 284.304 239.394C284.808 239.395 285.276 239.479 285.708 239.647C286.152 239.815 286.536 240.032 286.86 240.296C287.184 240.56 287.435 240.842 287.615 241.142C287.795 241.43 287.885 241.706 287.885 241.97L287.327 242.024L287.329 236.678C287.33 236.414 287.414 236.198 287.582 236.03C287.762 235.85 287.978 235.76 288.23 235.76ZM284.552 247.603C285.128 247.603 285.626 247.459 286.046 247.171C286.478 246.884 286.815 246.494 287.055 246.002C287.295 245.51 287.415 244.952 287.416 244.328C287.416 243.704 287.296 243.146 287.056 242.654C286.817 242.162 286.481 241.772 286.049 241.483C285.617 241.195 285.119 241.051 284.555 241.051C284.003 241.05 283.511 241.194 283.079 241.482C282.659 241.77 282.323 242.159 282.07 242.651C281.83 243.143 281.71 243.701 281.71 244.325C281.709 244.949 281.829 245.507 282.069 245.999C282.321 246.491 282.656 246.882 283.076 247.17C283.508 247.458 284 247.602 284.552 247.603ZM296.055 249.264C295.059 249.264 294.195 249.059 293.463 248.651C292.731 248.231 292.162 247.66 291.754 246.94C291.358 246.208 291.161 245.374 291.161 244.438C291.162 243.382 291.372 242.482 291.793 241.738C292.225 240.982 292.783 240.407 293.467 240.011C294.152 239.603 294.878 239.4 295.646 239.4C296.234 239.4 296.792 239.521 297.32 239.761C297.847 239.989 298.315 240.314 298.723 240.734C299.143 241.142 299.473 241.628 299.712 242.192C299.952 242.744 300.078 243.35 300.089 244.01C300.077 244.25 299.981 244.448 299.801 244.604C299.621 244.76 299.411 244.838 299.171 244.838L292.169 244.834L291.738 243.304L298.506 243.308L298.164 243.631L298.164 243.181C298.14 242.761 298.002 242.395 297.75 242.083C297.499 241.759 297.187 241.513 296.815 241.345C296.443 241.165 296.053 241.074 295.645 241.074C295.285 241.074 294.937 241.134 294.601 241.254C294.277 241.361 293.983 241.541 293.719 241.793C293.466 242.045 293.262 242.381 293.106 242.801C292.962 243.209 292.89 243.719 292.889 244.331C292.889 244.991 293.027 245.567 293.302 246.059C293.578 246.551 293.95 246.935 294.418 247.212C294.886 247.476 295.402 247.608 295.966 247.608C296.41 247.609 296.776 247.567 297.064 247.483C297.352 247.387 297.592 247.273 297.784 247.141C297.976 247.009 298.144 246.883 298.288 246.764C298.468 246.656 298.648 246.602 298.828 246.602C299.044 246.602 299.224 246.68 299.368 246.836C299.512 246.98 299.584 247.154 299.584 247.358C299.584 247.622 299.451 247.862 299.187 248.078C298.863 248.39 298.413 248.666 297.837 248.905C297.273 249.145 296.679 249.265 296.055 249.264ZM311.433 249.092C311.145 249.092 310.911 249.008 310.731 248.84C310.563 248.66 310.48 248.438 310.48 248.174L310.485 237.392L312.411 237.393L312.406 248.175C312.406 248.439 312.309 248.661 312.117 248.841C311.937 249.008 311.709 249.092 311.433 249.092ZM307.353 238.218C307.101 238.218 306.885 238.14 306.705 237.984C306.525 237.816 306.435 237.6 306.435 237.336C306.435 237.084 306.525 236.88 306.705 236.724C306.886 236.568 307.102 236.49 307.354 236.49L315.544 236.494C315.796 236.494 316.006 236.579 316.173 236.747C316.353 236.903 316.443 237.107 316.443 237.359C316.443 237.623 316.353 237.833 316.173 237.989C316.005 238.145 315.795 238.222 315.543 238.222L307.353 238.218ZM320.524 249.277C319.528 249.276 318.664 249.072 317.932 248.664C317.2 248.243 316.63 247.673 316.223 246.953C315.827 246.22 315.63 245.386 315.63 244.45C315.631 243.394 315.841 242.494 316.261 241.751C316.694 240.995 317.252 240.419 317.936 240.024C318.62 239.616 319.347 239.412 320.115 239.413C320.703 239.413 321.26 239.533 321.788 239.773C322.316 240.002 322.784 240.326 323.192 240.746C323.612 241.154 323.941 241.641 324.181 242.205C324.421 242.757 324.547 243.363 324.558 244.023C324.546 244.263 324.45 244.461 324.27 244.617C324.09 244.773 323.88 244.851 323.64 244.85L316.638 244.847L316.207 243.317L322.975 243.32L322.632 243.644L322.633 243.194C322.609 242.774 322.471 242.408 322.219 242.096C321.967 241.772 321.655 241.525 321.284 241.357C320.912 241.177 320.522 241.087 320.114 241.087C319.754 241.086 319.406 241.146 319.07 241.266C318.746 241.374 318.451 241.554 318.187 241.806C317.935 242.058 317.731 242.393 317.575 242.813C317.431 243.221 317.358 243.731 317.358 244.343C317.358 245.003 317.495 245.579 317.771 246.071C318.047 246.564 318.419 246.948 318.887 247.224C319.354 247.488 319.87 247.62 320.434 247.621C320.878 247.621 321.244 247.579 321.532 247.495C321.82 247.399 322.061 247.286 322.253 247.154C322.445 247.022 322.613 246.896 322.757 246.776C322.937 246.668 323.117 246.614 323.297 246.614C323.513 246.614 323.693 246.692 323.837 246.849C323.981 246.993 324.053 247.167 324.053 247.371C324.052 247.635 323.92 247.875 323.656 248.09C323.332 248.402 322.882 248.678 322.306 248.918C321.742 249.157 321.148 249.277 320.524 249.277ZM331.347 239.472C332.235 239.473 332.919 239.695 333.399 240.139C333.879 240.572 334.196 241.16 334.352 241.904L334.064 241.814L334.19 241.526C334.346 241.214 334.58 240.902 334.893 240.59C335.217 240.266 335.601 240.002 336.045 239.799C336.489 239.583 336.963 239.475 337.467 239.475C338.295 239.476 338.937 239.656 339.393 240.016C339.849 240.365 340.166 240.839 340.346 241.439C340.526 242.027 340.615 242.687 340.615 243.419L340.613 248.189C340.613 248.453 340.528 248.675 340.36 248.855C340.192 249.023 339.976 249.107 339.712 249.107C339.46 249.106 339.244 249.022 339.064 248.854C338.896 248.674 338.813 248.452 338.813 248.188L338.815 243.436C338.815 243.016 338.755 242.632 338.636 242.284C338.528 241.936 338.33 241.66 338.042 241.456C337.766 241.24 337.382 241.131 336.89 241.131C336.422 241.131 336.002 241.239 335.63 241.455C335.27 241.658 334.988 241.934 334.784 242.282C334.579 242.63 334.477 243.014 334.477 243.434L334.475 248.186C334.475 248.45 334.39 248.672 334.222 248.852C334.054 249.02 333.838 249.104 333.574 249.103C333.31 249.103 333.094 249.019 332.926 248.851C332.758 248.671 332.675 248.449 332.675 248.185L332.677 243.415C332.677 242.995 332.617 242.611 332.498 242.263C332.39 241.915 332.198 241.639 331.922 241.435C331.646 241.23 331.262 241.128 330.77 241.128C330.302 241.128 329.888 241.23 329.528 241.433C329.168 241.637 328.886 241.913 328.682 242.261C328.489 242.609 328.393 242.993 328.393 243.413L328.391 248.183C328.391 248.447 328.3 248.669 328.12 248.849C327.952 249.017 327.742 249.1 327.49 249.1C327.226 249.1 327.01 249.016 326.842 248.848C326.674 248.668 326.591 248.446 326.591 248.182L326.595 240.55C326.595 240.286 326.679 240.07 326.847 239.902C327.015 239.722 327.231 239.632 327.495 239.632C327.747 239.632 327.957 239.723 328.125 239.903C328.305 240.071 328.395 240.287 328.395 240.551L328.394 241.613L328.052 241.811C328.136 241.547 328.274 241.277 328.466 241.001C328.658 240.725 328.899 240.473 329.187 240.245C329.487 240.017 329.817 239.832 330.177 239.688C330.537 239.544 330.927 239.472 331.347 239.472ZM350.894 239.5C351.158 239.5 351.374 239.591 351.542 239.771C351.71 239.939 351.794 240.155 351.794 240.419L351.79 248.195C351.79 248.459 351.705 248.681 351.537 248.861C351.369 249.029 351.153 249.112 350.889 249.112C350.637 249.112 350.421 249.028 350.241 248.86C350.073 248.68 349.99 248.458 349.99 248.194L349.99 246.898L350.368 246.952C350.368 247.168 350.278 247.408 350.098 247.672C349.93 247.936 349.696 248.194 349.396 248.446C349.095 248.685 348.741 248.889 348.333 249.057C347.925 249.213 347.487 249.291 347.019 249.29C346.191 249.29 345.447 249.079 344.787 248.659C344.128 248.227 343.606 247.639 343.222 246.894C342.839 246.15 342.647 245.304 342.648 244.356C342.648 243.384 342.841 242.532 343.225 241.8C343.609 241.057 344.126 240.475 344.774 240.055C345.434 239.635 346.166 239.426 346.97 239.426C347.486 239.427 347.96 239.511 348.392 239.679C348.836 239.847 349.22 240.063 349.544 240.328C349.868 240.592 350.113 240.874 350.281 241.174C350.461 241.462 350.551 241.738 350.551 242.002L349.993 242.056L349.994 240.418C349.994 240.166 350.078 239.95 350.246 239.77C350.426 239.59 350.642 239.5 350.894 239.5ZM347.218 247.634C347.782 247.635 348.28 247.491 348.712 247.203C349.144 246.915 349.481 246.526 349.721 246.034C349.961 245.53 350.081 244.972 350.082 244.36C350.082 243.736 349.962 243.178 349.722 242.686C349.483 242.194 349.147 241.803 348.715 241.515C348.283 241.227 347.785 241.083 347.221 241.082C346.669 241.082 346.177 241.226 345.745 241.514C345.325 241.801 344.989 242.191 344.736 242.683C344.496 243.175 344.376 243.733 344.376 244.357C344.375 244.969 344.495 245.527 344.735 246.031C344.987 246.523 345.322 246.913 345.742 247.202C346.174 247.49 346.666 247.634 347.218 247.634ZM362.363 249.244C361.895 249.244 361.409 249.172 360.905 249.027C360.413 248.883 359.993 248.667 359.645 248.379C359.513 248.271 359.411 248.133 359.339 247.965C359.267 247.797 359.231 247.634 359.231 247.478C359.232 247.31 359.304 247.149 359.448 246.993C359.604 246.825 359.814 246.741 360.078 246.741C360.27 246.741 360.492 246.837 360.744 247.029C360.984 247.185 361.236 247.318 361.5 247.426C361.775 247.534 362.057 247.588 362.345 247.588C362.969 247.588 363.509 247.475 363.966 247.247C364.422 247.019 364.77 246.701 365.01 246.293C365.262 245.874 365.389 245.388 365.389 244.836C365.389 244.32 365.275 243.882 365.047 243.521C364.82 243.149 364.508 242.861 364.112 242.657C363.728 242.453 363.296 242.351 362.816 242.35C362.42 242.35 362.072 242.416 361.772 242.548C361.472 242.668 361.202 242.793 360.962 242.925C360.722 243.045 360.5 243.105 360.296 243.105C359.984 243.105 359.75 243.039 359.594 242.907C359.438 242.763 359.336 242.595 359.288 242.403C359.252 242.199 359.246 242.013 359.27 241.845L359.903 237.327C359.939 237.123 360.035 236.955 360.191 236.823C360.359 236.679 360.563 236.607 360.803 236.607L366.077 236.61C366.317 236.61 366.515 236.694 366.671 236.862C366.839 237.018 366.923 237.216 366.923 237.456C366.922 237.696 366.838 237.894 366.67 238.05C366.514 238.206 366.316 238.284 366.076 238.284L361.252 238.282L361.45 238.12L360.872 241.989L360.603 241.449C360.711 241.329 360.891 241.215 361.143 241.107C361.407 240.988 361.701 240.892 362.025 240.82C362.361 240.736 362.697 240.694 363.033 240.694C363.825 240.695 364.533 240.875 365.157 241.236C365.792 241.584 366.29 242.07 366.65 242.694C367.01 243.318 367.189 244.027 367.189 244.819C367.188 245.707 366.99 246.486 366.594 247.158C366.197 247.818 365.639 248.334 364.919 248.705C364.199 249.065 363.347 249.245 362.363 249.244ZM370.366 241.922C370.066 241.922 369.832 241.844 369.664 241.688C369.508 241.52 369.43 241.286 369.43 240.986L369.43 240.644C369.43 240.344 369.509 240.11 369.665 239.942C369.833 239.774 370.067 239.69 370.367 239.69L370.565 239.69C370.865 239.69 371.093 239.775 371.249 239.943C371.405 240.111 371.482 240.345 371.482 240.645L371.482 240.987C371.482 241.287 371.404 241.521 371.248 241.689C371.092 241.845 370.864 241.922 370.564 241.922L370.366 241.922ZM370.362 249.122C370.062 249.122 369.828 249.038 369.66 248.87C369.504 248.702 369.426 248.468 369.426 248.168L369.427 247.844C369.427 247.532 369.505 247.298 369.661 247.142C369.829 246.974 370.063 246.89 370.363 246.89L370.561 246.89C370.861 246.89 371.089 246.975 371.245 247.143C371.401 247.299 371.479 247.533 371.479 247.845L371.478 248.169C371.478 248.469 371.4 248.703 371.244 248.871C371.088 249.039 370.86 249.122 370.56 249.122L370.362 249.122ZM380.097 236.527C380.337 236.527 380.547 236.617 380.727 236.797C380.918 236.966 381.014 237.182 381.014 237.446L381.009 248.21C380.997 248.474 380.894 248.696 380.702 248.875C380.522 249.043 380.306 249.127 380.054 249.127C379.778 249.127 379.55 249.043 379.37 248.875C379.202 248.695 379.119 248.473 379.119 248.209L379.124 237.445C379.124 237.181 379.214 236.965 379.395 236.797C379.575 236.617 379.809 236.527 380.097 236.527ZM388.215 236.531C388.503 236.531 388.731 236.621 388.899 236.802C389.066 236.97 389.15 237.186 389.15 237.45L389.145 248.214C389.145 248.478 389.054 248.7 388.874 248.88C388.706 249.047 388.478 249.131 388.19 249.131C387.938 249.131 387.722 249.047 387.542 248.879C387.362 248.699 387.273 248.477 387.273 248.213L387.278 237.449C387.278 237.185 387.368 236.969 387.549 236.801C387.741 236.621 387.963 236.531 388.215 236.531ZM380.022 241.891L388.23 241.895L388.211 243.623L380.003 243.619L380.022 241.891ZM391.737 239.773L395.967 239.775C396.207 239.775 396.404 239.859 396.56 240.027C396.728 240.184 396.812 240.382 396.812 240.622C396.812 240.85 396.728 241.042 396.56 241.197C396.404 241.353 396.206 241.431 395.966 241.431L391.736 241.429C391.496 241.429 391.292 241.351 391.124 241.195C390.968 241.027 390.89 240.829 390.89 240.601C390.89 240.361 390.968 240.163 391.124 240.007C391.292 239.851 391.497 239.773 391.737 239.773ZM393.628 237.434C393.892 237.434 394.108 237.524 394.276 237.704C394.443 237.872 394.527 238.088 394.527 238.352L394.523 246.704C394.523 246.92 394.559 247.094 394.631 247.226C394.703 247.359 394.799 247.449 394.919 247.497C395.051 247.545 395.183 247.569 395.315 247.569C395.447 247.569 395.561 247.545 395.657 247.497C395.765 247.449 395.891 247.425 396.035 247.425C396.179 247.425 396.311 247.491 396.431 247.623C396.55 247.755 396.61 247.935 396.61 248.163C396.61 248.451 396.454 248.685 396.142 248.865C395.83 249.045 395.494 249.135 395.134 249.135C394.93 249.135 394.69 249.117 394.414 249.08C394.138 249.044 393.868 248.954 393.604 248.81C393.352 248.666 393.142 248.438 392.974 248.126C392.806 247.802 392.723 247.352 392.723 246.776L392.727 238.352C392.727 238.088 392.811 237.872 392.98 237.704C393.16 237.524 393.376 237.434 393.628 237.434ZM398.68 239.777L402.91 239.779C403.15 239.779 403.348 239.863 403.504 240.031C403.672 240.187 403.756 240.385 403.755 240.625C403.755 240.853 403.671 241.045 403.503 241.201C403.347 241.357 403.149 241.435 402.909 241.435L398.679 241.433C398.439 241.432 398.235 241.354 398.067 241.198C397.911 241.03 397.833 240.832 397.833 240.604C397.834 240.364 397.912 240.166 398.068 240.01C398.236 239.854 398.44 239.776 398.68 239.777ZM400.571 237.438C400.835 237.438 401.051 237.528 401.219 237.708C401.387 237.876 401.471 238.092 401.471 238.356L401.466 246.708C401.466 246.924 401.502 247.098 401.574 247.23C401.646 247.362 401.742 247.452 401.862 247.5C401.994 247.548 402.126 247.572 402.258 247.572C402.39 247.572 402.504 247.548 402.6 247.501C402.708 247.453 402.834 247.429 402.978 247.429C403.122 247.429 403.254 247.495 403.374 247.627C403.494 247.759 403.554 247.939 403.554 248.167C403.553 248.455 403.397 248.689 403.085 248.869C402.773 249.049 402.437 249.138 402.077 249.138C401.873 249.138 401.633 249.12 401.357 249.084C401.081 249.048 400.811 248.958 400.547 248.813C400.295 248.669 400.085 248.441 399.918 248.129C399.75 247.805 399.666 247.355 399.666 246.779L399.671 238.355C399.671 238.091 399.755 237.875 399.923 237.707C400.103 237.527 400.319 237.437 400.571 237.438ZM410.519 239.513C411.359 239.513 412.103 239.723 412.751 240.144C413.411 240.564 413.933 241.14 414.316 241.872C414.7 242.593 414.891 243.433 414.891 244.393C414.89 245.353 414.698 246.205 414.314 246.948C413.929 247.68 413.413 248.256 412.765 248.676C412.116 249.095 411.384 249.305 410.568 249.305C410.112 249.304 409.68 249.232 409.272 249.088C408.865 248.944 408.505 248.758 408.193 248.529C407.881 248.289 407.623 248.037 407.419 247.773C407.227 247.509 407.107 247.263 407.06 247.035L407.546 246.801L407.543 251.823C407.543 252.087 407.453 252.303 407.273 252.471C407.105 252.651 406.895 252.741 406.643 252.741C406.379 252.74 406.163 252.65 405.995 252.47C405.827 252.302 405.743 252.086 405.743 251.822L405.749 240.554C405.749 240.302 405.833 240.086 406.001 239.906C406.169 239.726 406.385 239.636 406.649 239.637C406.901 239.637 407.111 239.727 407.279 239.907C407.459 240.087 407.549 240.303 407.549 240.555L407.548 241.797L407.26 241.635C407.296 241.407 407.411 241.173 407.603 240.933C407.795 240.681 408.035 240.447 408.323 240.231C408.623 240.016 408.959 239.842 409.331 239.71C409.715 239.578 410.111 239.512 410.519 239.513ZM410.321 241.168C409.745 241.168 409.24 241.312 408.808 241.6C408.388 241.875 408.058 242.253 407.818 242.733C407.577 243.213 407.457 243.765 407.457 244.389C407.457 245.001 407.576 245.559 407.816 246.063C408.056 246.555 408.386 246.945 408.805 247.234C409.237 247.51 409.741 247.648 410.317 247.648C410.881 247.649 411.373 247.511 411.793 247.235C412.214 246.947 412.544 246.558 412.784 246.066C413.036 245.562 413.163 245.004 413.163 244.392C413.163 243.78 413.037 243.234 412.786 242.754C412.546 242.262 412.216 241.877 411.796 241.601C411.376 241.313 410.885 241.169 410.321 241.168ZM416.367 247.67C416.259 247.501 416.211 247.309 416.223 247.093C416.235 246.865 416.361 246.674 416.601 246.518C416.77 246.41 416.944 246.368 417.124 246.392C417.316 246.404 417.496 246.494 417.663 246.662C417.999 247.034 418.371 247.329 418.779 247.545C419.199 247.761 419.703 247.869 420.291 247.87C420.531 247.858 420.777 247.822 421.029 247.762C421.281 247.69 421.497 247.57 421.677 247.402C421.857 247.222 421.947 246.964 421.947 246.628C421.948 246.328 421.852 246.088 421.66 245.908C421.468 245.728 421.216 245.584 420.904 245.476C420.592 245.356 420.256 245.248 419.896 245.151C419.512 245.043 419.122 244.923 418.726 244.791C418.342 244.659 417.995 244.49 417.683 244.286C417.371 244.07 417.113 243.794 416.909 243.458C416.717 243.122 416.621 242.708 416.622 242.216C416.622 241.652 416.778 241.166 417.09 240.758C417.415 240.35 417.829 240.032 418.333 239.805C418.849 239.577 419.407 239.463 420.007 239.463C420.355 239.464 420.721 239.512 421.105 239.608C421.489 239.692 421.861 239.83 422.221 240.023C422.581 240.215 422.893 240.467 423.156 240.779C423.276 240.935 423.342 241.121 423.354 241.337C423.378 241.553 423.282 241.745 423.066 241.913C422.922 242.033 422.748 242.087 422.544 242.075C422.34 242.063 422.172 241.996 422.04 241.876C421.812 241.588 421.518 241.366 421.158 241.21C420.798 241.042 420.39 240.958 419.934 240.957C419.706 240.957 419.466 240.993 419.214 241.065C418.974 241.125 418.77 241.239 418.602 241.407C418.434 241.575 418.35 241.821 418.35 242.145C418.35 242.445 418.445 242.685 418.637 242.865C418.841 243.045 419.105 243.195 419.429 243.315C419.753 243.435 420.107 243.543 420.491 243.64C420.863 243.736 421.229 243.85 421.589 243.982C421.961 244.114 422.291 244.289 422.579 244.505C422.878 244.709 423.118 244.979 423.298 245.315C423.49 245.639 423.586 246.053 423.585 246.557C423.585 247.145 423.411 247.649 423.063 248.069C422.726 248.477 422.294 248.789 421.766 249.004C421.25 249.22 420.704 249.328 420.128 249.327C419.444 249.327 418.76 249.207 418.076 248.966C417.404 248.714 416.835 248.282 416.367 247.67ZM426.37 241.951C426.07 241.95 425.836 241.872 425.668 241.716C425.512 241.548 425.434 241.314 425.434 241.014L425.434 240.672C425.434 240.372 425.512 240.138 425.669 239.97C425.837 239.802 426.071 239.718 426.371 239.719L426.569 239.719C426.869 239.719 427.097 239.803 427.253 239.971C427.408 240.139 427.486 240.373 427.486 240.673L427.486 241.015C427.486 241.315 427.408 241.549 427.252 241.717C427.096 241.873 426.868 241.951 426.568 241.951L426.37 241.951ZM426.366 249.151C426.066 249.15 425.832 249.066 425.664 248.898C425.508 248.73 425.43 248.496 425.43 248.196L425.431 247.872C425.431 247.56 425.509 247.326 425.665 247.17C425.833 247.002 426.067 246.918 426.367 246.919L426.565 246.919C426.865 246.919 427.093 247.003 427.249 247.171C427.405 247.327 427.483 247.561 427.483 247.873L427.482 248.197C427.482 248.497 427.404 248.731 427.248 248.899C427.092 249.067 426.864 249.151 426.564 249.151L426.366 249.151ZM429.877 251.528C429.697 251.528 429.517 251.456 429.337 251.312C429.157 251.168 429.067 250.988 429.068 250.772C429.068 250.64 429.104 250.514 429.176 250.394L436.653 235.26C436.738 235.092 436.84 234.966 436.96 234.882C437.092 234.798 437.236 234.756 437.392 234.756C437.56 234.756 437.728 234.822 437.896 234.954C438.076 235.087 438.165 235.273 438.165 235.513C438.165 235.645 438.135 235.777 438.075 235.909L430.597 251.043C430.513 251.199 430.411 251.319 430.291 251.403C430.171 251.487 430.033 251.528 429.877 251.528ZM438.174 251.533C437.994 251.533 437.814 251.46 437.634 251.316C437.454 251.172 437.364 250.992 437.364 250.776C437.365 250.644 437.401 250.518 437.473 250.398L444.95 235.264C445.034 235.096 445.136 234.97 445.257 234.886C445.389 234.802 445.533 234.76 445.689 234.76C445.857 234.761 446.025 234.827 446.192 234.959C446.372 235.091 446.462 235.277 446.462 235.517C446.462 235.649 446.432 235.781 446.372 235.913L438.894 251.047C438.81 251.203 438.708 251.323 438.588 251.407C438.468 251.491 438.33 251.533 438.174 251.533ZM449.301 236.544C449.445 236.544 449.595 236.58 449.751 236.653C449.907 236.725 450.027 236.827 450.111 236.959L454.679 243.927L453.905 243.891L458.571 236.963C458.763 236.687 459.009 236.549 459.309 236.549C459.549 236.549 459.759 236.64 459.939 236.82C460.131 236.988 460.227 237.204 460.226 237.468L460.221 248.25C460.221 248.514 460.137 248.736 459.969 248.916C459.801 249.084 459.578 249.167 459.302 249.167C459.014 249.167 458.781 249.083 458.601 248.915C458.433 248.735 458.349 248.513 458.349 248.249L458.354 239.123L458.93 239.249L454.966 245.277C454.882 245.385 454.774 245.481 454.642 245.565C454.51 245.637 454.372 245.667 454.228 245.655C454.096 245.667 453.958 245.637 453.814 245.565C453.682 245.481 453.574 245.384 453.49 245.276L449.677 239.334L450.11 238.615L450.105 248.245C450.105 248.509 450.021 248.731 449.853 248.911C449.697 249.078 449.486 249.162 449.222 249.162C448.97 249.162 448.761 249.078 448.593 248.91C448.437 248.73 448.359 248.508 448.359 248.244L448.364 237.462C448.365 237.21 448.455 236.994 448.635 236.814C448.827 236.634 449.049 236.544 449.301 236.544ZM464.654 248.252C464.654 248.516 464.569 248.738 464.401 248.918C464.233 249.086 464.017 249.17 463.753 249.17C463.501 249.169 463.285 249.085 463.105 248.917C462.937 248.737 462.854 248.515 462.854 248.251L462.858 240.547C462.858 240.283 462.942 240.067 463.11 239.899C463.29 239.719 463.506 239.629 463.758 239.63C464.022 239.63 464.238 239.72 464.406 239.9C464.574 240.068 464.658 240.284 464.658 240.548L464.654 248.252ZM463.741 238.442C463.393 238.441 463.141 238.381 462.985 238.261C462.829 238.129 462.751 237.913 462.751 237.613L462.751 237.325C462.751 237.025 462.836 236.815 463.004 236.695C463.172 236.575 463.424 236.515 463.76 236.516C464.12 236.516 464.378 236.582 464.534 236.714C464.69 236.834 464.767 237.038 464.767 237.326L464.767 237.614C464.767 237.926 464.683 238.142 464.515 238.262C464.359 238.382 464.101 238.442 463.741 238.442ZM469.019 248.254C469.019 248.518 468.929 248.74 468.749 248.92C468.581 249.088 468.371 249.172 468.119 249.172C467.867 249.172 467.651 249.088 467.471 248.92C467.303 248.739 467.219 248.517 467.219 248.253L467.225 236.769C467.225 236.505 467.315 236.289 467.495 236.122C467.675 235.942 467.891 235.852 468.143 235.852C468.407 235.852 468.617 235.942 468.773 236.122C468.941 236.29 469.025 236.506 469.025 236.77L469.019 248.254ZM475.932 249.356C474.936 249.355 474.072 249.151 473.34 248.742C472.608 248.322 472.039 247.752 471.631 247.032C471.235 246.299 471.038 245.465 471.038 244.529C471.039 243.473 471.249 242.573 471.67 241.83C472.102 241.074 472.66 240.498 473.344 240.102C474.029 239.695 474.755 239.491 475.523 239.492C476.111 239.492 476.669 239.612 477.197 239.852C477.724 240.081 478.192 240.405 478.6 240.825C479.02 241.233 479.35 241.72 479.589 242.284C479.829 242.836 479.955 243.442 479.966 244.102C479.954 244.342 479.858 244.54 479.678 244.696C479.498 244.852 479.288 244.93 479.048 244.929L472.046 244.926L471.615 243.396L478.383 243.399L478.041 243.723L478.041 243.273C478.017 242.853 477.879 242.487 477.627 242.175C477.376 241.851 477.064 241.604 476.692 241.436C476.32 241.256 475.93 241.166 475.522 241.166C475.162 241.165 474.814 241.225 474.478 241.345C474.154 241.453 473.86 241.633 473.596 241.885C473.343 242.136 473.139 242.472 472.983 242.892C472.839 243.3 472.767 243.81 472.766 244.422C472.766 245.082 472.904 245.658 473.179 246.15C473.455 246.643 473.827 247.027 474.295 247.303C474.763 247.567 475.279 247.699 475.843 247.7C476.287 247.7 476.653 247.658 476.941 247.574C477.229 247.478 477.469 247.365 477.661 247.233C477.853 247.101 478.021 246.975 478.165 246.855C478.345 246.747 478.525 246.693 478.705 246.693C478.921 246.693 479.101 246.771 479.245 246.927C479.389 247.072 479.461 247.246 479.461 247.45C479.461 247.714 479.328 247.954 479.064 248.169C478.74 248.481 478.29 248.757 477.714 248.997C477.15 249.236 476.556 249.356 475.932 249.356ZM486.881 239.497C487.733 239.498 488.393 239.678 488.861 240.038C489.329 240.387 489.653 240.861 489.832 241.461C490.024 242.049 490.12 242.709 490.119 243.441L490.117 248.265C490.117 248.529 490.027 248.751 489.846 248.931C489.678 249.099 489.468 249.183 489.216 249.183C488.952 249.182 488.736 249.098 488.568 248.93C488.401 248.75 488.317 248.528 488.317 248.264L488.319 243.458C488.319 243.026 488.26 242.642 488.14 242.306C488.02 241.958 487.81 241.682 487.51 241.478C487.222 241.262 486.814 241.153 486.286 241.153C485.794 241.153 485.362 241.261 484.99 241.476C484.618 241.68 484.324 241.956 484.108 242.304C483.904 242.64 483.801 243.024 483.801 243.456L483.799 248.262C483.799 248.526 483.709 248.748 483.528 248.928C483.36 249.096 483.15 249.179 482.898 249.179C482.634 249.179 482.418 249.095 482.25 248.927C482.083 248.747 481.999 248.525 481.999 248.261L482.003 240.629C482.003 240.365 482.087 240.149 482.255 239.981C482.423 239.801 482.639 239.711 482.903 239.711C483.155 239.711 483.365 239.802 483.533 239.982C483.713 240.15 483.803 240.366 483.803 240.63L483.802 241.638L483.478 241.818C483.562 241.554 483.706 241.29 483.911 241.026C484.127 240.75 484.385 240.498 484.685 240.27C484.985 240.03 485.321 239.845 485.693 239.713C486.065 239.569 486.461 239.497 486.881 239.497ZM497.025 249.367C496.029 249.366 495.166 249.162 494.434 248.753C493.702 248.333 493.132 247.763 492.725 247.042C492.329 246.31 492.131 245.476 492.132 244.54C492.132 243.484 492.343 242.584 492.763 241.84C493.196 241.085 493.754 240.509 494.438 240.113C495.122 239.706 495.848 239.502 496.616 239.502C497.204 239.503 497.762 239.623 498.29 239.863C498.818 240.091 499.286 240.416 499.694 240.836C500.114 241.244 500.443 241.73 500.683 242.294C500.923 242.847 501.048 243.453 501.06 244.113C501.048 244.353 500.952 244.551 500.772 244.706C500.592 244.862 500.382 244.94 500.142 244.94L493.14 244.937L492.708 243.406L499.476 243.41L499.134 243.734L499.135 243.284C499.111 242.864 498.973 242.498 498.721 242.185C498.469 241.861 498.157 241.615 497.785 241.447C497.414 241.267 497.024 241.177 496.616 241.176C496.256 241.176 495.908 241.236 495.572 241.356C495.247 241.464 494.953 241.643 494.689 241.895C494.437 242.147 494.233 242.483 494.077 242.903C493.933 243.311 493.86 243.821 493.86 244.433C493.86 245.093 493.997 245.669 494.273 246.161C494.549 246.653 494.921 247.037 495.389 247.314C495.856 247.578 496.372 247.71 496.936 247.71C497.38 247.711 497.746 247.669 498.034 247.585C498.322 247.489 498.562 247.375 498.755 247.243C498.947 247.112 499.115 246.986 499.259 246.866C499.439 246.758 499.619 246.704 499.799 246.704C500.015 246.704 500.195 246.782 500.339 246.938C500.483 247.082 500.555 247.256 500.554 247.46C500.554 247.724 500.422 247.964 500.158 248.18C499.834 248.492 499.384 248.768 498.808 249.007C498.244 249.247 497.649 249.367 497.025 249.367ZM507.849 239.562C508.737 239.562 509.421 239.785 509.901 240.229C510.38 240.661 510.698 241.249 510.854 241.994L510.566 241.903L510.692 241.615C510.848 241.304 511.082 240.992 511.394 240.68C511.719 240.356 512.103 240.092 512.547 239.888C512.991 239.673 513.465 239.565 513.969 239.565C514.797 239.566 515.439 239.746 515.895 240.106C516.351 240.454 516.668 240.929 516.848 241.529C517.028 242.117 517.117 242.777 517.117 243.509L517.115 248.279C517.114 248.543 517.03 248.765 516.862 248.945C516.694 249.113 516.478 249.196 516.214 249.196C515.962 249.196 515.746 249.112 515.566 248.944C515.398 248.764 515.314 248.542 515.315 248.278L515.317 243.526C515.317 243.106 515.257 242.722 515.138 242.374C515.03 242.026 514.832 241.75 514.544 241.545C514.268 241.329 513.884 241.221 513.392 241.221C512.924 241.221 512.504 241.328 512.132 241.544C511.772 241.748 511.49 242.024 511.286 242.372C511.081 242.72 510.979 243.104 510.979 243.524L510.977 248.276C510.976 248.54 510.892 248.762 510.724 248.941C510.556 249.109 510.34 249.193 510.076 249.193C509.812 249.193 509.596 249.109 509.428 248.941C509.26 248.761 509.176 248.539 509.177 248.275L509.179 243.505C509.179 243.085 509.119 242.701 509 242.353C508.892 242.005 508.7 241.728 508.424 241.524C508.148 241.32 507.764 241.218 507.272 241.218C506.804 241.217 506.39 241.319 506.03 241.523C505.67 241.727 505.388 242.003 505.184 242.351C504.991 242.699 504.895 243.083 504.895 243.503L504.893 248.273C504.892 248.537 504.802 248.758 504.622 248.938C504.454 249.106 504.244 249.19 503.992 249.19C503.728 249.19 503.512 249.106 503.344 248.938C503.176 248.758 503.092 248.536 503.093 248.272L503.096 240.64C503.097 240.376 503.181 240.16 503.349 239.992C503.517 239.812 503.733 239.722 503.997 239.722C504.249 239.722 504.459 239.812 504.627 239.992C504.807 240.16 504.897 240.377 504.896 240.641L504.896 241.703L504.554 241.9C504.638 241.636 504.776 241.366 504.968 241.091C505.16 240.815 505.401 240.563 505.689 240.335C505.989 240.107 506.319 239.921 506.679 239.777C507.039 239.634 507.429 239.562 507.849 239.562ZM521.326 248.281C521.325 248.545 521.241 248.767 521.073 248.947C520.905 249.115 520.689 249.199 520.425 249.198C520.173 249.198 519.957 249.114 519.777 248.946C519.609 248.766 519.525 248.544 519.526 248.28L519.53 240.576C519.53 240.312 519.614 240.096 519.782 239.928C519.962 239.748 520.178 239.658 520.43 239.658C520.694 239.659 520.91 239.749 521.078 239.929C521.246 240.097 521.33 240.313 521.33 240.577L521.326 248.281ZM520.413 238.47C520.065 238.47 519.813 238.41 519.657 238.29C519.501 238.158 519.423 237.942 519.423 237.642L519.423 237.354C519.423 237.054 519.507 236.844 519.675 236.724C519.844 236.604 520.096 236.544 520.432 236.544C520.792 236.545 521.05 236.611 521.205 236.743C521.361 236.863 521.439 237.067 521.439 237.355L521.439 237.643C521.439 237.955 521.355 238.171 521.187 238.291C521.031 238.411 520.773 238.471 520.413 238.47ZM528.629 239.519C529.481 239.519 530.141 239.699 530.609 240.06C531.077 240.408 531.401 240.882 531.58 241.482C531.772 242.07 531.868 242.73 531.867 243.462L531.865 248.286C531.865 248.55 531.775 248.772 531.595 248.952C531.426 249.12 531.216 249.204 530.964 249.204C530.7 249.204 530.484 249.12 530.317 248.951C530.149 248.771 530.065 248.549 530.065 248.285L530.067 243.479C530.068 243.047 530.008 242.663 529.888 242.327C529.768 241.979 529.558 241.703 529.258 241.499C528.97 241.283 528.562 241.175 528.034 241.174C527.542 241.174 527.11 241.282 526.738 241.498C526.366 241.701 526.072 241.977 525.856 242.325C525.652 242.661 525.55 243.045 525.549 243.477L525.547 248.283C525.547 248.547 525.457 248.769 525.277 248.949C525.108 249.117 524.898 249.201 524.646 249.201C524.382 249.2 524.166 249.116 523.999 248.948C523.831 248.768 523.747 248.546 523.747 248.282L523.751 240.65C523.751 240.386 523.835 240.17 524.003 240.002C524.171 239.822 524.387 239.732 524.651 239.733C524.903 239.733 525.113 239.823 525.281 240.003C525.461 240.171 525.551 240.387 525.551 240.651L525.55 241.659L525.226 241.839C525.31 241.575 525.454 241.311 525.659 241.047C525.875 240.771 526.133 240.519 526.433 240.291C526.733 240.052 527.069 239.866 527.441 239.734C527.813 239.59 528.209 239.518 528.629 239.519ZM535.048 249.188C534.748 249.188 534.514 249.104 534.346 248.935C534.19 248.767 534.112 248.533 534.112 248.233L534.112 247.909C534.112 247.609 534.191 247.375 534.347 247.207C534.515 247.04 534.749 246.956 535.049 246.956L535.247 246.956C535.547 246.956 535.775 247.04 535.931 247.208C536.087 247.376 536.164 247.61 536.164 247.91L536.164 248.234C536.164 248.534 536.086 248.768 535.93 248.936C535.774 249.104 535.546 249.188 535.246 249.188L535.048 249.188ZM543.939 236.61C544.815 236.611 545.588 236.779 546.26 237.116C546.932 237.44 547.49 237.896 547.934 238.484C548.389 239.061 548.731 239.733 548.959 240.501C549.186 241.257 549.3 242.061 549.299 242.913C549.299 244.077 549.094 245.139 548.686 246.099C548.277 247.047 547.677 247.802 546.885 248.366C546.092 248.929 545.108 249.211 543.932 249.21L539.54 249.208C539.288 249.208 539.072 249.124 538.892 248.956C538.712 248.776 538.622 248.554 538.623 248.29L538.628 237.526C538.628 237.262 538.718 237.046 538.898 236.878C539.079 236.698 539.295 236.608 539.547 236.608L543.939 236.61ZM543.753 247.482C544.605 247.483 545.295 247.273 545.823 246.853C546.352 246.434 546.736 245.882 546.976 245.198C547.229 244.502 547.355 243.74 547.355 242.912C547.356 242.3 547.284 241.724 547.14 241.184C547.009 240.632 546.793 240.146 546.493 239.726C546.205 239.294 545.833 238.957 545.377 238.717C544.934 238.465 544.394 238.339 543.758 238.338L540.356 238.337L540.518 238.175L540.513 247.661L540.405 247.481L543.753 247.482ZM552.353 249.215C552.101 249.215 551.885 249.13 551.705 248.962C551.537 248.782 551.453 248.56 551.453 248.296L551.459 236.812C551.459 236.548 551.543 236.332 551.712 236.164C551.892 235.984 552.108 235.895 552.36 235.895C552.624 235.895 552.84 235.985 553.008 236.165C553.175 236.333 553.259 236.549 553.259 236.813L553.253 248.297C553.253 248.561 553.169 248.783 553.001 248.963C552.833 249.131 552.617 249.215 552.353 249.215ZM558.226 239.714C558.454 239.714 558.652 239.81 558.82 240.002C558.987 240.194 559.071 240.386 559.071 240.578C559.071 240.818 558.957 241.04 558.729 241.244L553.092 246.281L553.021 244.211L557.56 240.001C557.752 239.809 557.974 239.714 558.226 239.714ZM558.437 249.2C558.185 249.2 557.969 249.098 557.789 248.893L554.191 245.094L555.56 243.834L559.068 247.634C559.26 247.838 559.355 248.066 559.355 248.318C559.355 248.582 559.247 248.798 559.031 248.966C558.827 249.122 558.629 249.2 558.437 249.2ZM561.309 251.595C561.129 251.595 560.949 251.523 560.769 251.379C560.589 251.235 560.499 251.055 560.499 250.839C560.499 250.707 560.535 250.581 560.607 250.461L568.085 235.327C568.169 235.159 568.271 235.033 568.391 234.949C568.523 234.865 568.667 234.823 568.823 234.823C568.991 234.823 569.159 234.889 569.327 235.021C569.507 235.153 569.597 235.339 569.597 235.579C569.597 235.711 569.567 235.843 569.507 235.975L562.029 251.11C561.945 251.266 561.843 251.385 561.723 251.469C561.603 251.553 561.465 251.595 561.309 251.595ZM575.363 249.406C574.499 249.406 573.731 249.286 573.059 249.045C572.387 248.805 571.746 248.409 571.134 247.856C571.002 247.76 570.9 247.646 570.828 247.514C570.768 247.37 570.738 247.226 570.738 247.082C570.738 246.854 570.823 246.65 570.991 246.47C571.159 246.29 571.369 246.2 571.621 246.2C571.813 246.201 571.993 246.267 572.161 246.399C572.616 246.819 573.09 247.137 573.582 247.353C574.086 247.57 574.674 247.678 575.346 247.678C575.826 247.679 576.264 247.601 576.66 247.445C577.068 247.289 577.392 247.079 577.632 246.815C577.873 246.552 577.993 246.246 577.993 245.898C577.993 245.466 577.867 245.112 577.615 244.835C577.376 244.547 577.022 244.313 576.554 244.133C576.098 243.941 575.546 243.778 574.898 243.646C574.298 243.538 573.758 243.388 573.278 243.195C572.81 243.003 572.409 242.763 572.073 242.475C571.737 242.174 571.479 241.82 571.299 241.412C571.119 241.004 571.03 240.53 571.03 239.99C571.03 239.258 571.223 238.628 571.607 238.1C571.991 237.573 572.513 237.165 573.174 236.877C573.834 236.59 574.578 236.446 575.406 236.446C576.162 236.447 576.87 236.567 577.53 236.807C578.189 237.036 578.723 237.348 579.131 237.744C579.419 237.996 579.563 238.266 579.563 238.554C579.563 238.77 579.472 238.974 579.292 239.166C579.124 239.346 578.926 239.436 578.698 239.436C578.53 239.436 578.386 239.388 578.266 239.292C578.074 239.088 577.816 238.908 577.493 238.751C577.169 238.583 576.821 238.445 576.449 238.337C576.089 238.229 575.741 238.175 575.405 238.174C574.865 238.174 574.403 238.252 574.019 238.408C573.635 238.551 573.341 238.755 573.136 239.019C572.932 239.271 572.83 239.571 572.83 239.919C572.83 240.327 572.944 240.663 573.171 240.927C573.411 241.191 573.741 241.408 574.161 241.576C574.581 241.732 575.061 241.876 575.601 242.008C576.261 242.153 576.849 242.315 577.365 242.495C577.893 242.676 578.336 242.91 578.696 243.198C579.056 243.474 579.332 243.822 579.524 244.242C579.716 244.663 579.811 245.185 579.811 245.809C579.811 246.529 579.606 247.159 579.198 247.698C578.79 248.238 578.25 248.658 577.577 248.957C576.917 249.257 576.179 249.407 575.363 249.406ZM581.703 239.87L585.933 239.872C586.173 239.872 586.371 239.956 586.527 240.124C586.695 240.28 586.779 240.478 586.779 240.718C586.779 240.946 586.695 241.138 586.527 241.294C586.37 241.45 586.172 241.528 585.932 241.528L581.702 241.526C581.462 241.525 581.258 241.447 581.091 241.291C580.935 241.123 580.857 240.925 580.857 240.697C580.857 240.457 580.935 240.259 581.091 240.103C581.259 239.947 581.463 239.869 581.703 239.87ZM583.594 237.531C583.858 237.531 584.074 237.621 584.242 237.801C584.41 237.969 584.494 238.185 584.494 238.449L584.49 246.801C584.49 247.017 584.526 247.191 584.597 247.323C584.669 247.455 584.765 247.545 584.885 247.593C585.017 247.641 585.149 247.665 585.281 247.665C585.413 247.665 585.527 247.642 585.623 247.594C585.731 247.546 585.857 247.522 586.001 247.522C586.145 247.522 586.277 247.588 586.397 247.72C586.517 247.852 586.577 248.032 586.577 248.26C586.577 248.548 586.421 248.782 586.109 248.962C585.797 249.142 585.461 249.231 585.101 249.231C584.897 249.231 584.657 249.213 584.381 249.177C584.105 249.141 583.835 249.051 583.571 248.907C583.319 248.762 583.109 248.534 582.941 248.222C582.773 247.898 582.689 247.448 582.69 246.872L582.694 238.448C582.694 238.184 582.778 237.968 582.946 237.8C583.126 237.62 583.342 237.53 583.594 237.531ZM595.829 239.769C596.081 239.769 596.291 239.859 596.459 240.039C596.638 240.207 596.728 240.423 596.728 240.687L596.726 245.421C596.725 246.669 596.377 247.647 595.68 248.355C594.984 249.05 594 249.398 592.728 249.397C591.468 249.397 590.49 249.048 589.794 248.352C589.111 247.643 588.769 246.665 588.77 245.417L588.772 240.683C588.772 240.419 588.856 240.203 589.025 240.035C589.193 239.855 589.409 239.765 589.673 239.766C589.925 239.766 590.135 239.856 590.303 240.036C590.482 240.204 590.572 240.42 590.572 240.684L590.57 245.418C590.569 246.198 590.749 246.78 591.109 247.164C591.481 247.549 592.021 247.741 592.729 247.741C593.449 247.742 593.995 247.55 594.367 247.166C594.739 246.782 594.925 246.2 594.926 245.42L594.928 240.686C594.928 240.422 595.012 240.206 595.181 240.038C595.349 239.858 595.565 239.769 595.829 239.769ZM603.637 249.421C602.641 249.42 601.777 249.216 601.045 248.807C600.313 248.387 599.744 247.817 599.336 247.097C598.94 246.364 598.743 245.53 598.743 244.594C598.744 243.538 598.954 242.638 599.375 241.895C599.807 241.139 600.365 240.563 601.049 240.167C601.734 239.76 602.46 239.556 603.228 239.557C603.816 239.557 604.374 239.677 604.902 239.917C605.429 240.146 605.897 240.47 606.305 240.89C606.725 241.298 607.055 241.784 607.294 242.349C607.534 242.901 607.66 243.507 607.671 244.167C607.659 244.407 607.563 244.605 607.383 244.761C607.203 244.917 606.993 244.994 606.753 244.994L599.751 244.991L599.32 243.461L606.088 243.464L605.746 243.788L605.746 243.338C605.722 242.918 605.584 242.552 605.332 242.24C605.081 241.915 604.769 241.669 604.397 241.501C604.025 241.321 603.635 241.231 603.227 241.231C602.867 241.23 602.519 241.29 602.183 241.41C601.859 241.518 601.565 241.698 601.301 241.95C601.048 242.201 600.844 242.537 600.688 242.957C600.544 243.365 600.472 243.875 600.471 244.487C600.471 245.147 600.609 245.723 600.884 246.215C601.16 246.707 601.532 247.092 602 247.368C602.468 247.632 602.984 247.764 603.548 247.765C603.992 247.765 604.358 247.723 604.646 247.639C604.934 247.543 605.174 247.429 605.366 247.298C605.558 247.166 605.726 247.04 605.87 246.92C606.05 246.812 606.23 246.758 606.41 246.758C606.626 246.758 606.806 246.836 606.95 246.992C607.094 247.136 607.166 247.311 607.166 247.515C607.166 247.779 607.033 248.018 606.769 248.234C606.445 248.546 605.995 248.822 605.419 249.062C604.855 249.301 604.261 249.421 603.637 249.421ZM614.586 239.562C615.438 239.563 616.098 239.743 616.566 240.103C617.034 240.452 617.358 240.926 617.537 241.526C617.729 242.114 617.825 242.774 617.824 243.506L617.822 248.33C617.822 248.594 617.732 248.816 617.552 248.996C617.383 249.164 617.173 249.248 616.921 249.247C616.657 249.247 616.441 249.163 616.274 248.995C616.106 248.815 616.022 248.593 616.022 248.329L616.024 243.523C616.025 243.091 615.965 242.707 615.845 242.371C615.725 242.023 615.515 241.747 615.215 241.543C614.927 241.326 614.52 241.218 613.992 241.218C613.5 241.218 613.067 241.326 612.695 241.541C612.323 241.745 612.029 242.021 611.813 242.369C611.609 242.705 611.507 243.089 611.506 243.521L611.504 248.327C611.504 248.591 611.414 248.813 611.234 248.993C611.065 249.16 610.855 249.244 610.603 249.244C610.339 249.244 610.123 249.16 609.956 248.992C609.788 248.812 609.704 248.59 609.704 248.326L609.708 240.694C609.708 240.43 609.792 240.214 609.96 240.046C610.128 239.866 610.344 239.776 610.608 239.776C610.86 239.776 611.07 239.866 611.238 240.047C611.418 240.215 611.508 240.431 611.508 240.695L611.507 241.703L611.183 241.883C611.267 241.619 611.411 241.355 611.616 241.091C611.832 240.815 612.09 240.563 612.39 240.335C612.69 240.095 613.026 239.909 613.398 239.778C613.77 239.634 614.166 239.562 614.586 239.562ZM623.273 249.251C622.997 249.251 622.769 249.166 622.589 248.998C622.409 248.818 622.319 248.596 622.319 248.332L622.324 238.684L622.558 239.008L620.883 240.177C620.739 240.297 620.565 240.357 620.361 240.357C620.121 240.357 619.905 240.267 619.713 240.087C619.533 239.895 619.443 239.673 619.444 239.421C619.444 239.109 619.6 238.851 619.912 238.647L622.649 236.83C622.757 236.758 622.871 236.71 622.991 236.687C623.123 236.663 623.243 236.651 623.351 236.651C623.627 236.651 623.849 236.741 624.017 236.921C624.185 237.089 624.269 237.305 624.269 237.569L624.263 248.333C624.263 248.597 624.167 248.819 623.975 248.999C623.795 249.167 623.561 249.251 623.273 249.251ZM627.174 251.629C626.994 251.629 626.814 251.556 626.634 251.412C626.454 251.268 626.364 251.088 626.364 250.872C626.364 250.74 626.401 250.614 626.473 250.494L633.95 235.36C634.034 235.192 634.136 235.066 634.256 234.982C634.389 234.898 634.533 234.856 634.689 234.856C634.857 234.857 635.025 234.923 635.192 235.055C635.372 235.187 635.462 235.373 635.462 235.613C635.462 235.745 635.432 235.877 635.372 236.009L627.894 251.143C627.81 251.299 627.708 251.419 627.588 251.503C627.468 251.587 627.33 251.629 627.174 251.629ZM639.249 248.341C639.237 248.605 639.135 248.827 638.943 249.007C638.763 249.175 638.546 249.258 638.294 249.258C638.018 249.258 637.791 249.174 637.611 249.006C637.443 248.826 637.359 248.604 637.359 248.34L637.364 237.576C637.365 237.312 637.455 237.096 637.635 236.928C637.815 236.748 638.049 236.658 638.337 236.658C638.577 236.658 638.787 236.749 638.967 236.929C639.159 237.097 639.255 237.313 639.254 237.577L639.249 248.341ZM646.842 239.579C647.694 239.579 648.354 239.759 648.822 240.12C649.29 240.468 649.614 240.942 649.793 241.542C649.985 242.13 650.081 242.79 650.08 243.522L650.078 248.346C650.078 248.61 649.988 248.832 649.807 249.012C649.639 249.18 649.429 249.264 649.177 249.264C648.913 249.264 648.697 249.18 648.529 249.012C648.362 248.831 648.278 248.609 648.278 248.345L648.28 243.539C648.28 243.107 648.221 242.723 648.101 242.387C647.981 242.039 647.771 241.763 647.471 241.559C647.183 241.343 646.775 241.235 646.247 241.234C645.755 241.234 645.323 241.342 644.951 241.558C644.579 241.762 644.285 242.037 644.069 242.385C643.865 242.721 643.762 243.105 643.762 243.537L643.76 248.343C643.76 248.607 643.67 248.829 643.489 249.009C643.321 249.177 643.111 249.261 642.859 249.261C642.595 249.261 642.379 249.176 642.211 249.008C642.044 248.828 641.96 248.606 641.96 248.342L641.964 240.71C641.964 240.446 642.048 240.23 642.216 240.062C642.384 239.882 642.6 239.793 642.864 239.793C643.116 239.793 643.326 239.883 643.494 240.063C643.674 240.231 643.764 240.447 643.764 240.711L643.763 241.719L643.439 241.899C643.523 241.635 643.667 241.371 643.871 241.107C644.088 240.831 644.346 240.579 644.646 240.352C644.946 240.112 645.282 239.926 645.654 239.794C646.026 239.65 646.422 239.578 646.842 239.579ZM660.341 235.95C660.605 235.95 660.821 236.034 660.989 236.202C661.157 236.37 661.241 236.592 661.241 236.868L661.235 248.352C661.235 248.616 661.151 248.838 660.983 249.018C660.815 249.186 660.598 249.27 660.334 249.27C660.082 249.269 659.867 249.185 659.687 249.017C659.519 248.837 659.435 248.615 659.435 248.351L659.436 247.055L659.814 247.073C659.813 247.289 659.723 247.535 659.543 247.811C659.375 248.075 659.141 248.333 658.841 248.585C658.541 248.837 658.187 249.046 657.779 249.214C657.37 249.37 656.932 249.448 656.464 249.448C655.636 249.447 654.892 249.237 654.233 248.816C653.573 248.384 653.051 247.802 652.668 247.07C652.284 246.325 652.092 245.473 652.093 244.513C652.093 243.553 652.286 242.707 652.67 241.976C653.055 241.232 653.571 240.65 654.219 240.23C654.879 239.799 655.611 239.583 656.415 239.584C656.919 239.584 657.387 239.668 657.819 239.836C658.263 240.004 658.647 240.221 658.971 240.485C659.295 240.749 659.547 241.031 659.727 241.331C659.906 241.619 659.996 241.895 659.996 242.159L659.438 242.213L659.441 236.867C659.441 236.603 659.525 236.387 659.693 236.219C659.873 236.039 660.089 235.949 660.341 235.95ZM656.663 247.792C657.239 247.792 657.737 247.648 658.157 247.36C658.59 247.073 658.926 246.683 659.166 246.191C659.406 245.699 659.527 245.141 659.527 244.517C659.527 243.893 659.407 243.335 659.168 242.843C658.928 242.351 658.592 241.961 658.16 241.672C657.728 241.384 657.231 241.24 656.667 241.24C656.115 241.239 655.622 241.383 655.19 241.671C654.77 241.959 654.434 242.349 654.182 242.84C653.941 243.332 653.821 243.89 653.821 244.514C653.821 245.138 653.94 245.696 654.18 246.188C654.432 246.681 654.768 247.071 655.187 247.359C655.619 247.647 656.111 247.791 656.663 247.792ZM668.166 249.454C667.17 249.453 666.306 249.249 665.574 248.84C664.843 248.42 664.273 247.85 663.865 247.129C663.47 246.397 663.272 245.563 663.273 244.627C663.273 243.571 663.484 242.671 663.904 241.927C664.336 241.172 664.895 240.596 665.579 240.2C666.263 239.793 666.989 239.589 667.757 239.589C668.345 239.59 668.903 239.71 669.431 239.95C669.959 240.178 670.427 240.503 670.834 240.923C671.254 241.331 671.584 241.817 671.824 242.381C672.063 242.933 672.189 243.54 672.201 244.2C672.189 244.44 672.093 244.638 671.912 244.793C671.732 244.949 671.522 245.027 671.282 245.027L664.28 245.024L663.849 243.493L670.617 243.497L670.275 243.821L670.275 243.371C670.251 242.951 670.114 242.584 669.862 242.272C669.61 241.948 669.298 241.702 668.926 241.534C668.554 241.354 668.164 241.264 667.756 241.263C667.396 241.263 667.048 241.323 666.712 241.443C666.388 241.551 666.094 241.73 665.83 241.982C665.578 242.234 665.374 242.57 665.217 242.99C665.073 243.398 665.001 243.908 665.001 244.52C665 245.18 665.138 245.756 665.414 246.248C665.689 246.74 666.061 247.124 666.529 247.401C666.997 247.665 667.513 247.797 668.077 247.797C668.521 247.798 668.887 247.756 669.175 247.672C669.463 247.576 669.703 247.462 669.895 247.33C670.087 247.198 670.255 247.073 670.399 246.953C670.579 246.845 670.759 246.791 670.939 246.791C671.155 246.791 671.335 246.869 671.479 247.025C671.623 247.169 671.695 247.343 671.695 247.547C671.695 247.811 671.563 248.051 671.299 248.267C670.975 248.579 670.524 248.855 669.948 249.094C669.384 249.334 668.79 249.454 668.166 249.454ZM674.238 239.755C674.538 239.755 674.784 239.881 674.976 240.133L681.11 247.876C681.242 248.032 681.308 248.212 681.308 248.416C681.308 248.656 681.212 248.866 681.02 249.046C680.828 249.226 680.618 249.316 680.39 249.316C680.102 249.316 679.856 249.189 679.652 248.937L673.518 241.194C673.386 241.038 673.32 240.858 673.32 240.654C673.32 240.402 673.41 240.192 673.59 240.024C673.782 239.844 673.998 239.754 674.238 239.755ZM674.252 249.313C674.048 249.312 673.85 249.234 673.658 249.078C673.466 248.922 673.37 248.73 673.37 248.502C673.37 248.298 673.442 248.112 673.586 247.944L676.45 244.4L677.367 245.876L674.972 248.935C674.78 249.187 674.54 249.313 674.252 249.313ZM680.376 239.758C680.628 239.758 680.832 239.842 680.988 240.01C681.156 240.166 681.24 240.352 681.24 240.568C681.24 240.664 681.222 240.766 681.186 240.874C681.162 240.97 681.108 241.06 681.024 241.144L678.196 244.689L677.261 243.356L679.656 240.171C679.86 239.895 680.1 239.758 680.376 239.758ZM683.635 249.263C683.335 249.263 683.102 249.179 682.934 249.011C682.778 248.843 682.7 248.609 682.7 248.309L682.7 247.985C682.7 247.685 682.778 247.451 682.934 247.283C683.103 247.115 683.337 247.031 683.637 247.031L683.835 247.031C684.135 247.032 684.363 247.116 684.518 247.284C684.674 247.452 684.752 247.686 684.752 247.986L684.752 248.31C684.752 248.61 684.674 248.844 684.518 249.012C684.362 249.18 684.133 249.264 683.833 249.263L683.635 249.263ZM688.188 236.684C688.428 236.684 688.638 236.774 688.818 236.954C689.01 237.122 689.106 237.338 689.106 237.602L689.1 248.366C689.088 248.63 688.986 248.852 688.794 249.032C688.614 249.2 688.398 249.284 688.146 249.284C687.87 249.284 687.642 249.199 687.462 249.031C687.294 248.851 687.21 248.629 687.21 248.365L687.216 237.601C687.216 237.337 687.306 237.121 687.486 236.953C687.666 236.773 687.9 236.684 688.188 236.684ZM696.306 236.688C696.594 236.688 696.822 236.778 696.99 236.958C697.158 237.126 697.242 237.342 697.242 237.606L697.236 248.37C697.236 248.634 697.146 248.856 696.966 249.036C696.798 249.204 696.57 249.288 696.282 249.288C696.03 249.288 695.814 249.204 695.634 249.035C695.454 248.855 695.364 248.633 695.364 248.369L695.37 237.605C695.37 237.341 695.46 237.125 695.64 236.957C695.832 236.778 696.054 236.688 696.306 236.688ZM688.114 242.048L696.322 242.052L696.303 243.78L688.095 243.776L688.114 242.048ZM699.828 239.93L704.058 239.932C704.298 239.932 704.496 240.016 704.652 240.184C704.82 240.34 704.904 240.538 704.904 240.778C704.904 241.006 704.82 241.198 704.652 241.354C704.495 241.51 704.297 241.588 704.057 241.588L699.827 241.586C699.587 241.585 699.383 241.507 699.216 241.351C699.06 241.183 698.982 240.985 698.982 240.757C698.982 240.517 699.06 240.319 699.216 240.163C699.384 240.007 699.588 239.929 699.828 239.93ZM701.719 237.591C701.983 237.591 702.199 237.681 702.367 237.861C702.535 238.029 702.619 238.245 702.619 238.509L702.615 246.861C702.615 247.077 702.651 247.251 702.722 247.383C702.794 247.515 702.89 247.605 703.01 247.653C703.142 247.701 703.274 247.725 703.406 247.725C703.538 247.725 703.652 247.702 703.748 247.654C703.856 247.606 703.982 247.582 704.126 247.582C704.27 247.582 704.402 247.648 704.522 247.78C704.642 247.912 704.702 248.092 704.702 248.32C704.702 248.608 704.546 248.842 704.234 249.022C703.922 249.202 703.586 249.292 703.226 249.291C703.022 249.291 702.782 249.273 702.506 249.237C702.23 249.201 701.96 249.111 701.696 248.967C701.444 248.822 701.234 248.594 701.066 248.282C700.898 247.958 700.814 247.508 700.815 246.932L700.819 238.508C700.819 238.244 700.903 238.028 701.071 237.86C701.251 237.68 701.467 237.59 701.719 237.591ZM711.65 239.666C712.538 239.666 713.222 239.888 713.701 240.333C714.181 240.765 714.499 241.353 714.655 242.097L714.367 242.007L714.493 241.719C714.649 241.407 714.883 241.095 715.195 240.783C715.519 240.46 715.903 240.196 716.348 239.992C716.792 239.776 717.266 239.668 717.77 239.669C718.598 239.669 719.24 239.849 719.695 240.21C720.151 240.558 720.469 241.032 720.649 241.632C720.828 242.22 720.918 242.88 720.918 243.612L720.915 248.382C720.915 248.646 720.831 248.868 720.663 249.048C720.495 249.216 720.279 249.3 720.015 249.3C719.763 249.3 719.547 249.216 719.367 249.048C719.199 248.867 719.115 248.645 719.115 248.381L719.118 243.629C719.118 243.209 719.058 242.825 718.938 242.477C718.831 242.129 718.633 241.853 718.345 241.649C718.069 241.433 717.685 241.325 717.193 241.324C716.725 241.324 716.305 241.432 715.933 241.648C715.573 241.852 715.291 242.127 715.086 242.475C714.882 242.823 714.78 243.207 714.78 243.627L714.777 248.379C714.777 248.643 714.693 248.865 714.525 249.045C714.357 249.213 714.141 249.297 713.877 249.297C713.613 249.297 713.397 249.212 713.229 249.044C713.061 248.864 712.977 248.642 712.977 248.378L712.98 243.608C712.98 243.188 712.92 242.804 712.8 242.456C712.693 242.108 712.501 241.832 712.225 241.628C711.949 241.424 711.565 241.322 711.073 241.321C710.605 241.321 710.191 241.423 709.831 241.627C709.471 241.831 709.189 242.106 708.984 242.454C708.792 242.802 708.696 243.186 708.696 243.606L708.693 248.376C708.693 248.64 708.603 248.862 708.423 249.042C708.255 249.21 708.045 249.294 707.793 249.294C707.529 249.294 707.313 249.209 707.145 249.041C706.977 248.861 706.893 248.639 706.893 248.375L706.897 240.743C706.897 240.479 706.981 240.263 707.15 240.095C707.318 239.915 707.534 239.826 707.798 239.826C708.05 239.826 708.26 239.916 708.428 240.096C708.607 240.264 708.697 240.48 708.697 240.744L708.697 241.806L708.355 242.004C708.439 241.74 708.577 241.47 708.769 241.194C708.961 240.918 709.201 240.666 709.489 240.439C709.789 240.211 710.12 240.025 710.48 239.881C710.84 239.737 711.23 239.665 711.65 239.666ZM725.378 248.385C725.378 248.649 725.288 248.871 725.108 249.05C724.94 249.218 724.73 249.302 724.478 249.302C724.226 249.302 724.01 249.218 723.83 249.05C723.662 248.87 723.578 248.648 723.578 248.384L723.584 236.9C723.584 236.636 723.674 236.42 723.855 236.252C724.035 236.072 724.251 235.982 724.503 235.982C724.767 235.982 724.977 236.072 725.133 236.252C725.3 236.421 725.384 236.637 725.384 236.901L725.378 248.385Z" fill="black"/>
</svg>
