<svg width="773" height="351" viewBox="0 0 773 351" fill="none" xmlns="http://www.w3.org/2000/svg">
<path d="M54.8042 273.886C29.0703 245.074 33.7029 203.58 65.1513 181.208C96.5997 158.836 142.955 164.057 168.689 192.87C194.423 221.682 189.79 263.176 158.342 285.548C126.894 307.92 80.5381 302.699 54.8042 273.886Z" fill="#FCD993"/>
<path d="M95.4273 253.284C70.6247 225.515 75.6075 185.154 106.557 163.137C137.506 141.12 182.702 145.784 207.504 173.554C232.307 201.324 227.324 241.684 196.375 263.701C165.426 285.718 120.23 281.054 95.4273 253.284Z" fill="#FFFBF5"/>
<path d="M118.187 189.247C119.079 189.341 121.32 189.606 123.634 191.3C124.487 191.925 125.813 192.92 126.8 194.852C127.839 196.885 127.903 198.779 127.912 199.218C127.92 199.674 127.928 201.783 126.777 204.041C125.668 206.215 124.113 207.292 123.095 207.978C122.617 208.3 120.25 209.845 116.852 209.954C115.819 209.987 113.296 210.034 110.618 208.413C109.675 207.842 107.946 206.763 106.731 204.457C106.395 203.818 105.567 202.201 105.54 199.895C105.534 199.332 105.561 197.552 106.465 195.596C107.114 194.19 107.917 193.34 108.428 192.809C109.818 191.364 111.216 190.705 112.123 190.29C113.297 189.751 114.239 189.527 114.533 189.461C115.227 189.306 116.55 189.077 118.187 189.249L118.187 189.247Z" fill="#FFD278" fill-opacity="0.78" stroke="white" stroke-width="0.25" stroke-linecap="round" stroke-linejoin="round"/>
<path d="M138.535 248.582C138.739 248.582 138.913 248.655 139.057 248.799C139.201 248.931 139.273 249.099 139.272 249.303C139.272 249.507 139.2 249.675 139.056 249.807C138.912 249.939 138.738 250.004 138.534 250.004L132.306 250.001C132.102 250.001 131.928 249.929 131.784 249.785C131.652 249.641 131.586 249.467 131.586 249.263L131.592 238.121C131.592 237.917 131.664 237.749 131.808 237.617C131.952 237.473 132.132 237.401 132.348 237.401C132.552 237.401 132.726 237.473 132.87 237.617C133.014 237.75 133.086 237.918 133.086 238.122L133.081 248.904L132.721 248.579L138.535 248.582ZM142.476 249.268C142.476 249.472 142.404 249.646 142.26 249.79C142.128 249.934 141.96 250.006 141.756 250.006C141.54 250.006 141.366 249.934 141.234 249.79C141.102 249.646 141.036 249.472 141.036 249.268L141.04 241.276C141.04 241.072 141.107 240.904 141.239 240.772C141.383 240.628 141.557 240.556 141.761 240.556C141.965 240.556 142.133 240.628 142.265 240.772C142.409 240.904 142.48 241.072 142.48 241.276L142.476 249.268ZM141.761 239.35C141.461 239.35 141.239 239.29 141.095 239.17C140.952 239.05 140.88 238.864 140.88 238.612L140.88 238.36C140.88 238.108 140.958 237.922 141.114 237.802C141.27 237.682 141.492 237.622 141.78 237.622C142.068 237.622 142.284 237.682 142.428 237.802C142.572 237.922 142.644 238.108 142.644 238.36L142.644 238.612C142.644 238.864 142.566 239.05 142.409 239.17C142.265 239.29 142.049 239.35 141.761 239.35ZM149.693 240.47C150.509 240.47 151.151 240.639 151.619 240.975C152.087 241.311 152.417 241.761 152.609 242.325C152.812 242.89 152.914 243.52 152.914 244.216L152.911 249.274C152.911 249.478 152.839 249.652 152.695 249.796C152.563 249.939 152.395 250.011 152.191 250.011C151.987 250.011 151.813 249.939 151.669 249.795C151.537 249.651 151.471 249.477 151.471 249.273L151.474 244.251C151.474 243.795 151.402 243.387 151.258 243.027C151.126 242.655 150.898 242.361 150.575 242.144C150.263 241.916 149.831 241.802 149.279 241.802C148.775 241.802 148.313 241.915 147.893 242.143C147.472 242.359 147.136 242.653 146.884 243.025C146.632 243.384 146.506 243.792 146.506 244.248L146.503 249.27C146.503 249.474 146.431 249.648 146.287 249.792C146.155 249.936 145.987 250.008 145.783 250.008C145.579 250.008 145.405 249.936 145.261 249.792C145.129 249.648 145.063 249.474 145.063 249.27L145.067 241.422C145.067 241.218 145.133 241.05 145.265 240.918C145.409 240.774 145.583 240.702 145.787 240.702C146.003 240.702 146.177 240.774 146.309 240.918C146.441 241.05 146.507 241.218 146.507 241.422L146.506 242.7L146.146 243.096C146.206 242.784 146.344 242.472 146.561 242.16C146.777 241.837 147.047 241.549 147.371 241.297C147.695 241.045 148.055 240.847 148.451 240.703C148.847 240.548 149.261 240.47 149.693 240.47ZM156.438 250.013C156.222 250.013 156.048 249.941 155.916 249.797C155.784 249.653 155.719 249.479 155.719 249.275L155.725 237.413C155.725 237.209 155.791 237.041 155.923 236.909C156.055 236.765 156.229 236.693 156.445 236.693C156.649 236.694 156.817 236.766 156.949 236.91C157.093 237.042 157.165 237.21 157.165 237.414L157.159 249.276C157.159 249.48 157.086 249.654 156.942 249.798C156.81 249.942 156.642 250.014 156.438 250.013ZM162.419 240.656C162.611 240.657 162.773 240.735 162.905 240.891C163.049 241.035 163.121 241.185 163.121 241.341C163.121 241.545 163.025 241.725 162.832 241.881L156.998 246.972L156.945 245.298L161.915 240.872C162.059 240.728 162.227 240.656 162.419 240.656ZM162.612 249.999C162.408 249.998 162.228 249.92 162.072 249.764L158.241 245.676L159.321 244.687L163.117 248.757C163.261 248.913 163.333 249.093 163.333 249.297C163.333 249.513 163.248 249.687 163.08 249.819C162.912 249.939 162.756 249.999 162.612 249.999ZM174.533 250.023C174.317 250.023 174.137 249.95 173.993 249.806C173.849 249.662 173.777 249.488 173.777 249.284L173.783 238.16L175.313 238.161L175.307 249.285C175.307 249.489 175.235 249.663 175.091 249.807C174.947 249.951 174.761 250.023 174.533 250.023ZM170.363 238.789C170.159 238.788 169.985 238.728 169.841 238.608C169.709 238.476 169.643 238.308 169.643 238.104C169.643 237.9 169.709 237.738 169.841 237.618C169.985 237.486 170.159 237.42 170.363 237.421L178.733 237.425C178.937 237.425 179.111 237.491 179.255 237.623C179.399 237.743 179.471 237.905 179.471 238.109C179.471 238.325 179.399 238.493 179.255 238.613C179.111 238.733 178.937 238.793 178.733 238.793L170.363 238.789ZM182.765 249.289C182.765 249.493 182.693 249.667 182.549 249.811C182.417 249.955 182.249 250.027 182.045 250.026C181.829 250.026 181.655 249.954 181.523 249.81C181.391 249.666 181.325 249.492 181.325 249.288L181.329 241.296C181.33 241.092 181.396 240.924 181.528 240.792C181.672 240.648 181.846 240.576 182.05 240.576C182.254 240.577 182.422 240.649 182.554 240.793C182.698 240.925 182.77 241.093 182.769 241.297L182.765 249.289ZM182.05 239.37C181.75 239.37 181.528 239.31 181.385 239.19C181.241 239.07 181.169 238.884 181.169 238.632L181.169 238.38C181.169 238.128 181.247 237.942 181.403 237.822C181.559 237.702 181.781 237.642 182.069 237.642C182.357 237.643 182.573 237.703 182.717 237.823C182.861 237.943 182.933 238.129 182.933 238.381L182.933 238.633C182.933 238.885 182.855 239.071 182.699 239.191C182.554 239.311 182.338 239.371 182.05 239.37ZM186.936 249.291C186.936 249.495 186.864 249.669 186.72 249.813C186.576 249.957 186.402 250.029 186.198 250.029C185.994 250.028 185.826 249.956 185.694 249.812C185.562 249.668 185.496 249.494 185.496 249.29L185.502 237.428C185.502 237.224 185.568 237.056 185.7 236.924C185.844 236.78 186.018 236.708 186.222 236.709C186.438 236.709 186.612 236.781 186.744 236.925C186.876 237.057 186.942 237.225 186.942 237.429L186.936 249.291ZM195.7 237.433C195.904 237.433 196.078 237.506 196.222 237.65C196.366 237.782 196.438 237.956 196.438 238.172L196.432 249.296C196.432 249.5 196.354 249.674 196.198 249.818C196.054 249.962 195.88 250.033 195.676 250.033C195.448 250.033 195.268 249.961 195.136 249.817C195.004 249.673 194.938 249.499 194.938 249.295L194.944 238.171C194.944 237.955 195.016 237.781 195.16 237.649C195.304 237.505 195.484 237.433 195.7 237.433ZM203.998 237.438C204.214 237.438 204.388 237.51 204.52 237.654C204.664 237.786 204.736 237.96 204.736 238.176L204.73 249.3C204.73 249.504 204.658 249.678 204.514 249.822C204.37 249.966 204.19 250.038 203.974 250.038C203.77 250.037 203.596 249.965 203.452 249.821C203.308 249.677 203.236 249.503 203.236 249.299L203.242 238.175C203.242 237.959 203.314 237.785 203.458 237.653C203.614 237.509 203.794 237.437 203.998 237.438ZM195.625 242.923L204.013 242.928L203.995 244.332L195.571 244.327L195.625 242.923ZM209.332 250.652C209.332 251.264 209.194 251.786 208.918 252.218C208.653 252.65 208.317 252.986 207.909 253.226C207.501 253.465 207.075 253.585 206.631 253.585C206.427 253.585 206.265 253.519 206.145 253.387C206.013 253.255 205.947 253.099 205.947 252.919L205.947 252.793C205.947 252.613 206.007 252.469 206.128 252.361C206.248 252.253 206.398 252.175 206.578 252.127C206.854 252.055 207.088 251.941 207.28 251.785C207.472 251.641 207.622 251.443 207.73 251.192C207.838 250.952 207.892 250.664 207.893 250.328L207.897 241.454C207.897 241.25 207.963 241.076 208.095 240.932C208.239 240.788 208.413 240.716 208.617 240.716C208.833 240.716 209.007 240.788 209.139 240.932C209.271 241.076 209.337 241.25 209.337 241.454L209.332 250.652ZM208.618 239.384C208.318 239.384 208.096 239.324 207.952 239.204C207.808 239.084 207.736 238.898 207.737 238.646L207.737 238.394C207.737 238.142 207.815 237.956 207.971 237.836C208.127 237.716 208.349 237.656 208.637 237.656C208.925 237.656 209.141 237.716 209.285 237.836C209.429 237.956 209.501 238.142 209.501 238.394L209.501 238.646C209.5 238.898 209.422 239.084 209.266 239.204C209.122 239.324 208.906 239.384 208.618 239.384ZM216.847 250.224C215.887 250.224 215.047 250.019 214.327 249.611C213.607 249.202 213.044 248.644 212.636 247.936C212.24 247.216 212.043 246.388 212.043 245.452C212.044 244.408 212.248 243.52 212.657 242.788C213.077 242.044 213.617 241.48 214.278 241.097C214.95 240.701 215.658 240.504 216.402 240.504C216.954 240.504 217.488 240.606 218.004 240.811C218.52 241.015 218.975 241.315 219.371 241.711C219.767 242.096 220.085 242.564 220.325 243.116C220.564 243.656 220.69 244.262 220.702 244.934C220.702 245.126 220.629 245.288 220.485 245.42C220.341 245.552 220.173 245.618 219.981 245.618L212.871 245.614L212.548 244.372L219.478 244.375L219.19 244.627L219.19 244.231C219.142 243.739 218.974 243.319 218.687 242.971C218.411 242.611 218.069 242.335 217.661 242.143C217.265 241.95 216.845 241.854 216.401 241.854C216.041 241.854 215.681 241.92 215.321 242.051C214.973 242.171 214.655 242.375 214.367 242.663C214.091 242.939 213.862 243.299 213.682 243.743C213.514 244.186 213.43 244.72 213.429 245.344C213.429 246.04 213.567 246.652 213.842 247.181C214.13 247.709 214.526 248.129 215.03 248.441C215.534 248.741 216.122 248.892 216.794 248.892C217.214 248.892 217.58 248.839 217.892 248.731C218.204 248.623 218.474 248.491 218.702 248.335C218.93 248.167 219.122 247.999 219.278 247.831C219.434 247.723 219.584 247.67 219.728 247.67C219.908 247.67 220.052 247.73 220.16 247.85C220.28 247.97 220.34 248.114 220.34 248.282C220.34 248.486 220.244 248.666 220.052 248.822C219.715 249.194 219.259 249.523 218.683 249.811C218.107 250.087 217.495 250.224 216.847 250.224ZM227.314 240.599C228.13 240.6 228.79 240.81 229.294 241.23C229.81 241.639 230.151 242.221 230.319 242.977L230.049 242.977L230.175 242.653C230.319 242.317 230.565 241.993 230.914 241.681C231.262 241.369 231.664 241.112 232.12 240.908C232.576 240.704 233.05 240.602 233.542 240.603C234.334 240.603 234.958 240.777 235.414 241.126C235.87 241.462 236.194 241.918 236.385 242.494C236.589 243.058 236.691 243.694 236.69 244.402L236.688 249.316C236.688 249.52 236.616 249.694 236.471 249.838C236.339 249.982 236.171 250.054 235.967 250.054C235.751 250.054 235.577 249.982 235.445 249.838C235.314 249.694 235.248 249.519 235.248 249.315L235.25 244.437C235.25 243.969 235.179 243.549 235.035 243.177C234.903 242.793 234.681 242.493 234.369 242.277C234.069 242.049 233.655 241.935 233.127 241.934C232.635 241.934 232.185 242.048 231.777 242.276C231.369 242.492 231.045 242.791 230.805 243.175C230.565 243.547 230.444 243.967 230.444 244.435L230.442 249.313C230.442 249.517 230.376 249.691 230.243 249.835C230.111 249.979 229.937 250.051 229.721 250.051C229.517 250.051 229.343 249.978 229.199 249.834C229.068 249.69 229.002 249.516 229.002 249.312L229.004 244.38C229.004 243.924 228.939 243.516 228.807 243.156C228.687 242.784 228.477 242.49 228.177 242.274C227.877 242.046 227.463 241.932 226.935 241.931C226.455 241.931 226.017 242.045 225.621 242.273C225.225 242.488 224.907 242.782 224.667 243.154C224.427 243.514 224.306 243.922 224.306 244.378L224.304 249.31C224.304 249.514 224.232 249.688 224.087 249.832C223.955 249.976 223.787 250.048 223.583 250.048C223.379 250.047 223.205 249.975 223.061 249.831C222.93 249.687 222.864 249.513 222.864 249.309L222.868 241.461C222.868 241.257 222.934 241.089 223.066 240.957C223.21 240.813 223.384 240.741 223.588 240.742C223.804 240.742 223.978 240.814 224.11 240.958C224.242 241.09 224.308 241.258 224.308 241.462L224.307 242.83L223.911 243.262C223.959 242.95 224.079 242.638 224.271 242.326C224.475 242.014 224.734 241.726 225.046 241.462C225.358 241.198 225.706 240.989 226.09 240.833C226.474 240.677 226.882 240.599 227.314 240.599ZM243.802 240.608C244.618 240.608 245.278 240.819 245.782 241.239C246.298 241.647 246.64 242.229 246.807 242.985L246.537 242.985L246.663 242.661C246.808 242.325 247.054 242.001 247.402 241.69C247.75 241.378 248.152 241.12 248.608 240.916C249.064 240.713 249.538 240.611 250.03 240.611C250.822 240.611 251.446 240.786 251.902 241.134C252.358 241.47 252.682 241.926 252.873 242.502C253.077 243.067 253.179 243.703 253.179 244.411L253.176 249.325C253.176 249.529 253.104 249.703 252.96 249.846C252.828 249.99 252.66 250.062 252.456 250.062C252.24 250.062 252.066 249.99 251.934 249.846C251.802 249.702 251.736 249.528 251.736 249.324L251.739 244.446C251.739 243.978 251.667 243.558 251.523 243.186C251.391 242.802 251.169 242.502 250.858 242.285C250.558 242.057 250.144 241.943 249.616 241.943C249.124 241.943 248.674 242.056 248.266 242.284C247.857 242.5 247.533 242.8 247.293 243.184C247.053 243.555 246.933 243.975 246.933 244.443L246.93 249.321C246.93 249.525 246.864 249.699 246.732 249.843C246.6 249.987 246.426 250.059 246.21 250.059C246.006 250.059 245.832 249.987 245.688 249.843C245.556 249.699 245.49 249.525 245.49 249.321L245.493 244.389C245.493 243.933 245.427 243.525 245.295 243.165C245.175 242.793 244.965 242.498 244.666 242.282C244.366 242.054 243.952 241.94 243.424 241.94C242.944 241.939 242.506 242.053 242.11 242.281C241.713 242.497 241.395 242.791 241.155 243.162C240.915 243.522 240.795 243.93 240.795 244.386L240.792 249.318C240.792 249.522 240.72 249.696 240.576 249.84C240.444 249.984 240.276 250.056 240.072 250.056C239.868 250.056 239.694 249.984 239.55 249.84C239.418 249.696 239.352 249.522 239.352 249.318L239.356 241.47C239.356 241.266 239.422 241.098 239.554 240.966C239.698 240.822 239.872 240.75 240.076 240.75C240.292 240.75 240.466 240.822 240.598 240.966C240.73 241.098 240.796 241.266 240.796 241.47L240.795 242.838L240.399 243.27C240.447 242.958 240.567 242.646 240.76 242.334C240.964 242.022 241.222 241.735 241.534 241.471C241.846 241.207 242.194 240.997 242.578 240.841C242.962 240.685 243.37 240.608 243.802 240.608ZM260.142 250.246C259.182 250.246 258.342 250.041 257.622 249.633C256.902 249.224 256.339 248.666 255.931 247.958C255.535 247.238 255.338 246.41 255.338 245.474C255.339 244.43 255.543 243.542 255.952 242.81C256.372 242.066 256.912 241.502 257.572 241.119C258.245 240.723 258.953 240.526 259.697 240.526C260.249 240.526 260.783 240.628 261.299 240.833C261.815 241.037 262.27 241.337 262.666 241.733C263.062 242.118 263.38 242.586 263.619 243.138C263.859 243.678 263.985 244.284 263.997 244.956C263.996 245.148 263.924 245.31 263.78 245.442C263.636 245.574 263.468 245.64 263.276 245.64L256.166 245.636L255.843 244.394L262.773 244.397L262.485 244.649L262.485 244.253C262.437 243.761 262.269 243.341 261.982 242.993C261.706 242.633 261.364 242.357 260.956 242.165C260.56 241.972 260.14 241.876 259.696 241.876C259.336 241.876 258.976 241.942 258.616 242.073C258.268 242.193 257.95 242.397 257.662 242.685C257.386 242.961 257.157 243.321 256.977 243.765C256.809 244.208 256.725 244.742 256.724 245.366C256.724 246.062 256.862 246.674 257.137 247.203C257.425 247.731 257.821 248.151 258.325 248.463C258.829 248.763 259.417 248.914 260.089 248.914C260.509 248.914 260.875 248.861 261.187 248.753C261.499 248.645 261.769 248.513 261.997 248.357C262.225 248.189 262.417 248.021 262.573 247.853C262.729 247.745 262.879 247.692 263.023 247.692C263.203 247.692 263.347 247.752 263.455 247.872C263.575 247.992 263.635 248.136 263.635 248.304C263.635 248.508 263.539 248.688 263.347 248.844C263.01 249.216 262.554 249.545 261.978 249.833C261.402 250.109 260.79 250.246 260.142 250.246ZM265.637 248.593C265.529 248.437 265.481 248.275 265.493 248.107C265.505 247.927 265.607 247.771 265.8 247.639C265.92 247.555 266.058 247.519 266.214 247.531C266.382 247.543 266.532 247.621 266.663 247.765C266.999 248.162 267.383 248.48 267.815 248.72C268.247 248.948 268.775 249.063 269.399 249.063C269.687 249.051 269.975 249.003 270.263 248.919C270.551 248.835 270.791 248.692 270.983 248.488C271.187 248.272 271.289 247.99 271.29 247.642C271.29 247.306 271.188 247.042 270.984 246.85C270.78 246.646 270.516 246.483 270.192 246.363C269.868 246.231 269.514 246.117 269.13 246.021C268.734 245.913 268.344 245.792 267.961 245.66C267.577 245.516 267.229 245.342 266.917 245.138C266.617 244.921 266.371 244.657 266.179 244.345C265.999 244.021 265.91 243.631 265.91 243.175C265.91 242.635 266.054 242.167 266.343 241.771C266.643 241.375 267.039 241.07 267.531 240.854C268.035 240.638 268.581 240.53 269.169 240.531C269.505 240.531 269.853 240.573 270.213 240.657C270.585 240.729 270.945 240.862 271.293 241.054C271.641 241.234 271.947 241.486 272.21 241.81C272.318 241.93 272.378 242.08 272.39 242.26C272.402 242.44 272.324 242.602 272.156 242.746C272.024 242.842 271.874 242.884 271.706 242.872C271.55 242.86 271.418 242.8 271.31 242.692C271.058 242.392 270.74 242.164 270.356 242.007C269.984 241.839 269.571 241.755 269.115 241.755C268.827 241.755 268.544 241.796 268.268 241.88C267.992 241.964 267.758 242.108 267.566 242.312C267.386 242.504 267.296 242.774 267.296 243.122C267.308 243.446 267.416 243.71 267.619 243.914C267.823 244.118 268.099 244.286 268.447 244.418C268.795 244.539 269.179 244.659 269.599 244.779C269.983 244.875 270.349 244.989 270.697 245.122C271.057 245.242 271.381 245.404 271.669 245.608C271.956 245.812 272.184 246.076 272.352 246.4C272.52 246.712 272.604 247.108 272.604 247.588C272.603 248.14 272.447 248.62 272.135 249.028C271.823 249.424 271.408 249.73 270.892 249.946C270.388 250.149 269.842 250.251 269.254 250.251C268.594 250.25 267.94 250.124 267.292 249.872C266.657 249.619 266.105 249.193 265.637 248.593ZM276.07 249.336C276.07 249.54 275.998 249.714 275.854 249.858C275.722 250.002 275.554 250.074 275.35 250.074C275.134 250.074 274.96 250.002 274.828 249.858C274.696 249.714 274.63 249.54 274.63 249.336L274.634 241.344C274.634 241.14 274.7 240.972 274.832 240.84C274.976 240.696 275.15 240.624 275.354 240.624C275.558 240.624 275.726 240.696 275.858 240.84C276.002 240.972 276.074 241.14 276.074 241.344L276.07 249.336ZM275.355 239.418C275.055 239.418 274.833 239.358 274.689 239.238C274.545 239.117 274.473 238.931 274.473 238.679L274.474 238.427C274.474 238.175 274.552 237.989 274.708 237.87C274.864 237.75 275.086 237.69 275.374 237.69C275.662 237.69 275.878 237.75 276.022 237.87C276.166 237.99 276.238 238.176 276.238 238.428L276.237 238.68C276.237 238.932 276.159 239.118 276.003 239.238C275.859 239.358 275.643 239.418 275.355 239.418ZM286.331 236.759C286.535 236.76 286.703 236.832 286.835 236.976C286.979 237.108 287.051 237.276 287.051 237.48L287.045 249.342C287.045 249.546 286.973 249.72 286.828 249.864C286.696 250.008 286.528 250.08 286.324 250.079C286.108 250.079 285.934 250.007 285.802 249.863C285.671 249.719 285.605 249.545 285.605 249.341L285.606 247.631L285.948 247.505C285.947 247.793 285.857 248.099 285.677 248.423C285.497 248.735 285.251 249.029 284.939 249.305C284.627 249.581 284.254 249.808 283.822 249.988C283.402 250.168 282.946 250.258 282.454 250.257C281.65 250.257 280.918 250.047 280.259 249.626C279.611 249.206 279.095 248.63 278.711 247.898C278.34 247.165 278.154 246.331 278.155 245.395C278.155 244.447 278.342 243.607 278.714 242.876C279.098 242.144 279.615 241.574 280.263 241.166C280.911 240.747 281.631 240.537 282.423 240.537C282.927 240.538 283.401 240.622 283.845 240.79C284.289 240.958 284.673 241.187 284.997 241.475C285.333 241.763 285.596 242.081 285.788 242.429C285.98 242.777 286.076 243.125 286.076 243.473L285.608 243.365L285.611 237.479C285.611 237.275 285.677 237.107 285.809 236.975C285.941 236.831 286.115 236.759 286.331 236.759ZM282.617 248.926C283.217 248.926 283.745 248.776 284.201 248.476C284.669 248.165 285.03 247.745 285.282 247.217C285.546 246.677 285.678 246.071 285.679 245.399C285.679 244.715 285.547 244.109 285.284 243.581C285.032 243.053 284.672 242.639 284.204 242.338C283.748 242.026 283.221 241.87 282.621 241.87C282.033 241.869 281.504 242.025 281.036 242.337C280.58 242.637 280.22 243.05 279.956 243.578C279.691 244.106 279.559 244.712 279.559 245.396C279.558 246.056 279.69 246.656 279.954 247.196C280.218 247.724 280.577 248.145 281.033 248.457C281.501 248.769 282.029 248.925 282.617 248.926ZM294.015 250.263C293.055 250.263 292.215 250.058 291.495 249.65C290.775 249.242 290.212 248.683 289.804 247.975C289.408 247.255 289.211 246.427 289.211 245.491C289.212 244.447 289.416 243.559 289.825 242.827C290.245 242.083 290.785 241.52 291.446 241.136C292.118 240.74 292.826 240.543 293.57 240.543C294.122 240.543 294.656 240.646 295.172 240.85C295.688 241.054 296.143 241.354 296.539 241.751C296.935 242.135 297.253 242.603 297.492 243.155C297.732 243.695 297.858 244.301 297.87 244.973C297.869 245.165 297.797 245.327 297.653 245.459C297.509 245.591 297.341 245.657 297.149 245.657L290.039 245.653L289.716 244.411L296.646 244.415L296.358 244.667L296.358 244.271C296.31 243.779 296.142 243.358 295.855 243.01C295.579 242.65 295.237 242.374 294.829 242.182C294.433 241.99 294.013 241.893 293.569 241.893C293.209 241.893 292.849 241.959 292.489 242.091C292.141 242.21 291.823 242.414 291.535 242.702C291.259 242.978 291.03 243.338 290.85 243.782C290.682 244.226 290.598 244.76 290.597 245.384C290.597 246.08 290.735 246.692 291.01 247.22C291.298 247.748 291.694 248.168 292.198 248.48C292.702 248.781 293.29 248.931 293.962 248.931C294.382 248.932 294.748 248.878 295.06 248.77C295.372 248.662 295.642 248.53 295.87 248.374C296.098 248.206 296.29 248.039 296.446 247.871C296.602 247.763 296.752 247.709 296.896 247.709C297.076 247.709 297.22 247.769 297.328 247.889C297.448 248.009 297.508 248.153 297.508 248.321C297.508 248.525 297.412 248.705 297.22 248.861C296.883 249.233 296.427 249.563 295.851 249.85C295.275 250.126 294.663 250.264 294.015 250.263ZM309.146 250.091C308.93 250.091 308.75 250.019 308.606 249.875C308.463 249.731 308.391 249.557 308.391 249.353L308.396 238.229L309.926 238.229L309.921 249.353C309.921 249.557 309.849 249.731 309.704 249.875C309.56 250.019 309.374 250.091 309.146 250.091ZM304.976 238.857C304.772 238.857 304.598 238.797 304.454 238.677C304.322 238.545 304.256 238.377 304.256 238.173C304.257 237.969 304.323 237.807 304.455 237.687C304.599 237.555 304.773 237.489 304.977 237.489L313.347 237.493C313.551 237.493 313.725 237.559 313.869 237.691C314.013 237.812 314.085 237.974 314.084 238.178C314.084 238.394 314.012 238.562 313.868 238.681C313.724 238.801 313.55 238.861 313.346 238.861L304.976 238.857ZM318.132 250.276C317.172 250.275 316.332 250.071 315.612 249.662C314.893 249.254 314.329 248.696 313.921 247.987C313.526 247.267 313.328 246.439 313.328 245.503C313.329 244.459 313.533 243.571 313.942 242.839C314.362 242.096 314.903 241.532 315.563 241.148C316.235 240.753 316.943 240.555 317.687 240.555C318.239 240.556 318.773 240.658 319.289 240.862C319.805 241.066 320.261 241.367 320.656 241.763C321.052 242.147 321.37 242.615 321.61 243.167C321.849 243.707 321.975 244.314 321.987 244.986C321.987 245.178 321.915 245.34 321.771 245.471C321.626 245.603 321.458 245.669 321.266 245.669L314.156 245.666L313.833 244.423L320.763 244.427L320.475 244.679L320.475 244.283C320.427 243.791 320.26 243.371 319.972 243.023C319.696 242.662 319.354 242.386 318.946 242.194C318.55 242.002 318.13 241.906 317.686 241.905C317.326 241.905 316.966 241.971 316.606 242.103C316.258 242.223 315.94 242.426 315.652 242.714C315.376 242.99 315.148 243.35 314.967 243.794C314.799 244.238 314.715 244.772 314.715 245.396C314.714 246.092 314.852 246.704 315.128 247.232C315.415 247.76 315.811 248.18 316.315 248.493C316.819 248.793 317.407 248.943 318.079 248.944C318.499 248.944 318.865 248.89 319.177 248.782C319.489 248.674 319.759 248.542 319.987 248.387C320.215 248.219 320.407 248.051 320.563 247.883C320.719 247.775 320.869 247.721 321.013 247.721C321.193 247.721 321.337 247.781 321.445 247.901C321.565 248.021 321.625 248.165 321.625 248.333C321.625 248.537 321.529 248.717 321.337 248.873C321.001 249.245 320.544 249.575 319.968 249.863C319.392 250.138 318.78 250.276 318.132 250.276ZM328.599 240.651C329.415 240.651 330.075 240.862 330.579 241.282C331.095 241.69 331.436 242.272 331.604 243.028L331.334 243.028L331.46 242.704C331.604 242.368 331.851 242.045 332.199 241.733C332.547 241.421 332.949 241.163 333.405 240.959C333.861 240.756 334.335 240.654 334.827 240.654C335.619 240.654 336.243 240.829 336.699 241.177C337.155 241.513 337.479 241.969 337.67 242.546C337.874 243.11 337.976 243.746 337.975 244.454L337.973 249.368C337.973 249.572 337.901 249.746 337.757 249.89C337.625 250.034 337.457 250.105 337.253 250.105C337.037 250.105 336.863 250.033 336.731 249.889C336.599 249.745 336.533 249.571 336.533 249.367L336.535 244.489C336.536 244.021 336.464 243.601 336.32 243.229C336.188 242.845 335.966 242.545 335.654 242.329C335.355 242.1 334.941 241.986 334.413 241.986C333.921 241.986 333.471 242.099 333.062 242.327C332.654 242.543 332.33 242.843 332.09 243.227C331.85 243.599 331.73 244.019 331.729 244.487L331.727 249.365C331.727 249.569 331.661 249.742 331.529 249.886C331.397 250.03 331.223 250.102 331.007 250.102C330.803 250.102 330.629 250.03 330.485 249.886C330.353 249.742 330.287 249.568 330.287 249.364L330.289 244.432C330.29 243.976 330.224 243.568 330.092 243.208C329.972 242.836 329.762 242.542 329.462 242.325C329.163 242.097 328.749 241.983 328.221 241.983C327.741 241.982 327.303 242.096 326.906 242.324C326.51 242.54 326.192 242.834 325.952 243.206C325.712 243.565 325.592 243.973 325.591 244.429L325.589 249.361C325.589 249.565 325.517 249.739 325.373 249.883C325.241 250.027 325.073 250.099 324.869 250.099C324.665 250.099 324.491 250.027 324.347 249.883C324.215 249.739 324.149 249.565 324.149 249.361L324.153 241.513C324.153 241.309 324.219 241.141 324.351 241.009C324.495 240.865 324.669 240.793 324.873 240.793C325.089 240.793 325.263 240.865 325.395 241.009C325.527 241.141 325.593 241.309 325.593 241.513L325.592 242.881L325.196 243.313C325.244 243.001 325.364 242.689 325.556 242.377C325.761 242.065 326.019 241.778 326.331 241.514C326.643 241.25 326.991 241.04 327.375 240.884C327.759 240.729 328.167 240.651 328.599 240.651ZM348.31 240.715C348.514 240.715 348.682 240.787 348.813 240.931C348.957 241.063 349.029 241.231 349.029 241.435L349.025 249.373C349.025 249.577 348.953 249.751 348.809 249.895C348.677 250.039 348.509 250.111 348.305 250.111C348.089 250.111 347.915 250.039 347.783 249.895C347.651 249.751 347.585 249.577 347.585 249.373L347.586 247.663L347.928 247.627C347.928 247.891 347.838 248.179 347.658 248.491C347.477 248.803 347.231 249.096 346.919 249.372C346.607 249.636 346.235 249.858 345.803 250.038C345.383 250.205 344.927 250.289 344.435 250.289C343.619 250.289 342.887 250.078 342.239 249.658C341.591 249.226 341.076 248.643 340.692 247.911C340.32 247.179 340.135 246.345 340.135 245.409C340.136 244.461 340.322 243.627 340.694 242.907C341.079 242.175 341.595 241.606 342.243 241.198C342.892 240.778 343.612 240.569 344.404 240.569C344.92 240.569 345.4 240.653 345.844 240.822C346.287 240.99 346.671 241.218 346.995 241.506C347.331 241.794 347.589 242.113 347.769 242.461C347.961 242.809 348.056 243.157 348.056 243.505L347.588 243.397L347.589 241.435C347.589 241.231 347.655 241.063 347.787 240.931C347.92 240.787 348.094 240.715 348.31 240.715ZM344.597 248.957C345.197 248.957 345.725 248.802 346.182 248.49C346.65 248.178 347.01 247.758 347.262 247.23C347.527 246.691 347.659 246.085 347.659 245.413C347.66 244.753 347.528 244.159 347.264 243.63C347.012 243.09 346.653 242.67 346.185 242.37C345.729 242.058 345.201 241.901 344.601 241.901C344.013 241.901 343.485 242.05 343.017 242.35C342.561 242.65 342.2 243.064 341.936 243.592C341.672 244.12 341.54 244.726 341.539 245.41C341.539 246.082 341.665 246.688 341.916 247.228C342.18 247.756 342.54 248.176 342.996 248.488C343.463 248.8 343.997 248.957 344.597 248.957ZM363.761 248.769C363.953 248.769 364.115 248.835 364.247 248.967C364.379 249.099 364.445 249.261 364.445 249.453C364.445 249.645 364.379 249.807 364.247 249.939C364.114 250.059 363.952 250.119 363.76 250.119L357.226 250.115C357.01 250.115 356.83 250.055 356.687 249.935C356.555 249.803 356.489 249.629 356.489 249.413C356.489 249.221 356.561 249.047 356.705 248.891L360.775 244.447C361.376 243.8 361.826 243.194 362.126 242.63C362.439 242.054 362.595 241.544 362.595 241.1C362.595 240.368 362.374 239.786 361.93 239.354C361.498 238.91 360.916 238.687 360.184 238.687C359.86 238.687 359.536 238.759 359.212 238.902C358.888 239.034 358.594 239.22 358.33 239.46C358.066 239.688 357.85 239.946 357.681 240.234C357.585 240.39 357.483 240.492 357.375 240.54C357.279 240.576 357.177 240.593 357.069 240.593C356.889 240.593 356.727 240.533 356.583 240.413C356.439 240.281 356.368 240.131 356.368 239.963C356.368 239.831 356.404 239.711 356.476 239.603C356.548 239.483 356.644 239.351 356.764 239.207C357.016 238.859 357.328 238.548 357.7 238.272C358.085 237.984 358.499 237.756 358.943 237.588C359.399 237.421 359.843 237.337 360.275 237.337C361.043 237.337 361.709 237.488 362.273 237.788C362.849 238.088 363.292 238.515 363.604 239.067C363.916 239.619 364.071 240.267 364.071 241.011C364.071 241.647 363.878 242.349 363.494 243.117C363.11 243.884 362.545 244.664 361.801 245.456L358.649 248.946L358.469 248.766L363.761 248.769ZM367.249 242.777C366.997 242.776 366.799 242.704 366.655 242.56C366.523 242.404 366.457 242.2 366.457 241.948L366.457 241.588C366.458 241.336 366.524 241.138 366.656 240.994C366.8 240.85 366.998 240.778 367.25 240.779L367.394 240.779C367.658 240.779 367.856 240.851 367.988 240.995C368.12 241.139 368.186 241.337 368.185 241.589L368.185 241.949C368.185 242.201 368.119 242.405 367.987 242.561C367.855 242.705 367.657 242.777 367.393 242.777L367.249 242.777ZM367.245 250.121C366.993 250.12 366.795 250.048 366.651 249.904C366.519 249.748 366.453 249.544 366.454 249.292L366.454 248.932C366.454 248.68 366.52 248.482 366.652 248.338C366.796 248.194 366.994 248.122 367.246 248.123L367.39 248.123C367.654 248.123 367.852 248.195 367.984 248.339C368.116 248.483 368.182 248.681 368.182 248.933L368.182 249.293C368.181 249.545 368.115 249.749 367.983 249.905C367.851 250.049 367.653 250.121 367.389 250.121L367.245 250.121ZM376.561 237.525C376.765 237.525 376.939 237.597 377.083 237.742C377.227 237.874 377.299 238.048 377.299 238.264L377.293 249.388C377.293 249.592 377.215 249.766 377.059 249.91C376.915 250.053 376.741 250.125 376.537 250.125C376.309 250.125 376.129 250.053 375.997 249.909C375.865 249.765 375.799 249.591 375.799 249.387L375.805 238.263C375.805 238.047 375.877 237.873 376.021 237.741C376.165 237.597 376.345 237.525 376.561 237.525ZM384.859 237.53C385.075 237.53 385.249 237.602 385.381 237.746C385.525 237.878 385.597 238.052 385.597 238.268L385.591 249.392C385.591 249.596 385.519 249.77 385.375 249.914C385.231 250.058 385.051 250.13 384.835 250.13C384.631 250.129 384.457 250.057 384.313 249.913C384.169 249.769 384.097 249.595 384.097 249.391L384.103 238.267C384.103 238.051 384.175 237.877 384.319 237.745C384.475 237.601 384.655 237.529 384.859 237.53ZM376.487 243.015L384.875 243.02L384.856 244.424L376.432 244.419L376.487 243.015ZM388.147 240.879L392.377 240.881C392.569 240.881 392.725 240.948 392.845 241.08C392.977 241.212 393.042 241.368 393.042 241.548C393.042 241.74 392.976 241.902 392.844 242.034C392.724 242.154 392.568 242.213 392.376 242.213L388.146 242.211C387.966 242.211 387.81 242.145 387.678 242.013C387.546 241.881 387.48 241.719 387.48 241.527C387.48 241.347 387.547 241.197 387.679 241.077C387.811 240.945 387.967 240.879 388.147 240.879ZM390.038 238.432C390.242 238.432 390.41 238.504 390.542 238.648C390.674 238.78 390.74 238.949 390.74 239.153L390.735 247.847C390.735 248.135 390.777 248.351 390.861 248.495C390.945 248.639 391.053 248.741 391.185 248.801C391.329 248.849 391.467 248.873 391.599 248.873C391.719 248.873 391.821 248.855 391.905 248.819C392.001 248.771 392.109 248.747 392.229 248.747C392.349 248.747 392.457 248.807 392.553 248.927C392.661 249.035 392.715 249.18 392.714 249.36C392.714 249.576 392.588 249.761 392.336 249.917C392.084 250.061 391.802 250.133 391.49 250.133C391.322 250.133 391.112 250.121 390.86 250.097C390.62 250.072 390.38 249.994 390.14 249.862C389.9 249.73 389.696 249.514 389.528 249.214C389.373 248.902 389.295 248.47 389.295 247.918L389.3 239.152C389.3 238.948 389.372 238.78 389.516 238.648C389.66 238.504 389.834 238.432 390.038 238.432ZM394.686 240.883L398.916 240.885C399.108 240.885 399.264 240.951 399.384 241.083C399.516 241.215 399.582 241.371 399.581 241.551C399.581 241.743 399.515 241.905 399.383 242.037C399.263 242.157 399.107 242.217 398.915 242.217L394.685 242.215C394.505 242.214 394.349 242.148 394.217 242.016C394.085 241.884 394.019 241.722 394.019 241.53C394.02 241.35 394.086 241.2 394.218 241.08C394.35 240.948 394.506 240.882 394.686 240.883ZM396.577 238.435C396.781 238.436 396.949 238.508 397.081 238.652C397.213 238.784 397.279 238.952 397.279 239.156L397.274 247.85C397.274 248.138 397.316 248.354 397.4 248.498C397.484 248.642 397.592 248.744 397.724 248.804C397.868 248.852 398.006 248.876 398.138 248.876C398.258 248.876 398.36 248.858 398.444 248.822C398.54 248.774 398.648 248.751 398.768 248.751C398.888 248.751 398.996 248.811 399.092 248.931C399.2 249.039 399.254 249.183 399.253 249.363C399.253 249.579 399.127 249.765 398.875 249.921C398.623 250.065 398.341 250.136 398.029 250.136C397.861 250.136 397.651 250.124 397.399 250.1C397.159 250.076 396.919 249.998 396.679 249.866C396.439 249.733 396.235 249.517 396.068 249.217C395.912 248.905 395.834 248.473 395.834 247.921L395.839 239.155C395.839 238.951 395.911 238.783 396.055 238.651C396.199 238.507 396.373 238.435 396.577 238.435ZM406.175 240.69C406.991 240.691 407.723 240.895 408.371 241.303C409.018 241.712 409.528 242.276 409.9 242.996C410.283 243.716 410.475 244.545 410.475 245.481C410.474 246.405 410.282 247.232 409.897 247.964C409.525 248.684 409.015 249.254 408.366 249.673C407.73 250.081 407.01 250.285 406.206 250.284C405.762 250.284 405.342 250.218 404.946 250.086C404.562 249.942 404.208 249.761 403.884 249.545C403.573 249.317 403.309 249.065 403.093 248.789C402.877 248.501 402.721 248.219 402.625 247.943L403.021 247.691L403.019 253.001C403.019 253.205 402.952 253.379 402.82 253.523C402.688 253.667 402.514 253.738 402.298 253.738C402.094 253.738 401.92 253.666 401.776 253.522C401.644 253.39 401.579 253.216 401.579 253L401.585 241.498C401.585 241.294 401.651 241.126 401.783 240.994C401.927 240.85 402.101 240.778 402.305 240.778C402.521 240.778 402.695 240.851 402.827 240.995C402.959 241.127 403.025 241.295 403.025 241.499L403.024 243.101L402.754 242.957C402.838 242.657 402.982 242.369 403.186 242.093C403.402 241.817 403.66 241.577 403.961 241.373C404.273 241.157 404.615 240.99 404.987 240.87C405.371 240.75 405.767 240.69 406.175 240.69ZM406.012 242.022C405.412 242.022 404.878 242.172 404.41 242.471C403.954 242.771 403.594 243.179 403.329 243.695C403.077 244.211 402.951 244.805 402.951 245.477C402.95 246.137 403.076 246.731 403.328 247.259C403.591 247.787 403.951 248.201 404.407 248.501C404.875 248.802 405.409 248.952 406.009 248.952C406.609 248.953 407.137 248.803 407.593 248.503C408.049 248.203 408.409 247.789 408.674 247.262C408.938 246.734 409.07 246.14 409.071 245.48C409.071 244.808 408.939 244.214 408.675 243.698C408.412 243.181 408.052 242.773 407.596 242.473C407.14 242.173 406.612 242.023 406.012 242.022ZM412.116 248.667C412.008 248.511 411.96 248.349 411.972 248.181C411.984 248.001 412.086 247.845 412.278 247.713C412.398 247.63 412.536 247.594 412.692 247.606C412.86 247.618 413.01 247.696 413.142 247.84C413.478 248.236 413.862 248.554 414.293 248.794C414.725 249.023 415.253 249.137 415.877 249.137C416.165 249.125 416.453 249.078 416.741 248.994C417.029 248.91 417.269 248.766 417.462 248.562C417.666 248.346 417.768 248.064 417.768 247.716C417.768 247.38 417.666 247.116 417.462 246.924C417.259 246.72 416.995 246.558 416.671 246.438C416.347 246.306 415.993 246.191 415.609 246.095C415.213 245.987 414.823 245.867 414.439 245.735C414.055 245.59 413.707 245.416 413.395 245.212C413.095 244.996 412.85 244.732 412.658 244.42C412.478 244.096 412.388 243.706 412.388 243.25C412.389 242.71 412.533 242.242 412.821 241.846C413.121 241.45 413.517 241.144 414.009 240.928C414.514 240.713 415.06 240.605 415.648 240.605C415.984 240.605 416.332 240.648 416.692 240.732C417.064 240.804 417.423 240.936 417.771 241.128C418.119 241.308 418.425 241.561 418.689 241.885C418.797 242.005 418.857 242.155 418.869 242.335C418.881 242.515 418.803 242.677 418.635 242.821C418.502 242.917 418.352 242.959 418.184 242.946C418.028 242.934 417.896 242.874 417.789 242.766C417.537 242.466 417.219 242.238 416.835 242.082C416.463 241.914 416.049 241.829 415.593 241.829C415.305 241.829 415.023 241.871 414.747 241.955C414.471 242.039 414.237 242.182 414.045 242.386C413.865 242.578 413.774 242.848 413.774 243.196C413.786 243.52 413.894 243.784 414.098 243.988C414.302 244.192 414.578 244.361 414.926 244.493C415.274 244.613 415.658 244.733 416.077 244.853C416.461 244.95 416.827 245.064 417.175 245.196C417.535 245.316 417.859 245.478 418.147 245.682C418.435 245.887 418.663 246.151 418.831 246.475C418.998 246.787 419.082 247.183 419.082 247.663C419.082 248.215 418.926 248.695 418.613 249.103C418.301 249.499 417.887 249.804 417.371 250.02C416.867 250.224 416.321 250.326 415.733 250.325C415.073 250.325 414.419 250.199 413.771 249.946C413.135 249.694 412.583 249.268 412.116 248.667ZM421.706 242.804C421.454 242.804 421.256 242.732 421.112 242.588C420.98 242.432 420.914 242.228 420.914 241.976L420.915 241.616C420.915 241.364 420.981 241.166 421.113 241.022C421.257 240.878 421.455 240.806 421.707 240.806L421.851 240.806C422.115 240.806 422.313 240.879 422.445 241.023C422.577 241.167 422.643 241.365 422.643 241.617L422.642 241.977C422.642 242.229 422.576 242.433 422.444 242.589C422.312 242.733 422.114 242.804 421.85 242.804L421.706 242.804ZM421.702 250.148C421.45 250.148 421.252 250.076 421.108 249.932C420.976 249.776 420.91 249.572 420.911 249.32L420.911 248.96C420.911 248.708 420.977 248.51 421.109 248.366C421.253 248.222 421.451 248.15 421.703 248.15L421.847 248.15C422.111 248.15 422.309 248.223 422.441 248.367C422.573 248.511 422.639 248.709 422.639 248.961L422.639 249.321C422.638 249.573 422.572 249.777 422.44 249.933C422.308 250.077 422.11 250.148 421.846 250.148L421.702 250.148ZM424.65 252.508C424.494 252.508 424.344 252.442 424.2 252.31C424.068 252.189 424.002 252.039 424.002 251.859C424.002 251.751 424.026 251.643 424.074 251.535L431.75 236.221C431.834 236.053 431.93 235.933 432.038 235.861C432.146 235.79 432.266 235.754 432.398 235.754C432.542 235.754 432.68 235.814 432.812 235.934C432.956 236.042 433.028 236.192 433.028 236.384C433.028 236.504 432.998 236.624 432.938 236.744L425.28 252.058C425.208 252.214 425.118 252.328 425.01 252.4C424.902 252.472 424.782 252.508 424.65 252.508ZM432.683 252.512C432.527 252.512 432.377 252.446 432.233 252.314C432.101 252.194 432.035 252.044 432.035 251.864C432.035 251.756 432.059 251.648 432.107 251.54L439.783 236.225C439.867 236.057 439.963 235.938 440.071 235.866C440.179 235.794 440.299 235.758 440.431 235.758C440.575 235.758 440.713 235.818 440.845 235.938C440.989 236.046 441.061 236.196 441.061 236.388C441.061 236.508 441.031 236.628 440.971 236.748L433.313 252.062C433.241 252.218 433.151 252.332 433.043 252.404C432.935 252.476 432.815 252.512 432.683 252.512ZM443.762 237.541C443.87 237.542 443.984 237.572 444.104 237.632C444.236 237.692 444.338 237.77 444.41 237.866L449.176 245.086L448.546 245.068L453.374 237.87C453.53 237.642 453.734 237.535 453.986 237.547C454.178 237.559 454.346 237.631 454.49 237.763C454.634 237.895 454.706 238.069 454.706 238.285L454.7 249.427C454.7 249.631 454.628 249.805 454.484 249.949C454.34 250.093 454.16 250.165 453.944 250.165C453.728 250.165 453.548 250.092 453.404 249.948C453.26 249.804 453.188 249.63 453.188 249.426L453.193 239.652L453.643 239.742L449.392 246.202C449.32 246.286 449.23 246.358 449.122 246.418C449.026 246.478 448.924 246.508 448.816 246.508C448.708 246.508 448.6 246.478 448.492 246.418C448.384 246.358 448.294 246.286 448.222 246.202L444.031 239.738L444.409 239.27L444.404 249.422C444.404 249.626 444.338 249.8 444.206 249.944C444.074 250.088 443.906 250.16 443.702 250.159C443.498 250.159 443.33 250.087 443.198 249.943C443.078 249.799 443.018 249.625 443.018 249.421L443.024 238.279C443.024 238.087 443.09 237.919 443.222 237.775C443.366 237.619 443.546 237.541 443.762 237.541ZM458.988 249.429C458.988 249.633 458.916 249.807 458.772 249.951C458.64 250.095 458.472 250.167 458.268 250.167C458.052 250.167 457.878 250.095 457.746 249.951C457.614 249.807 457.548 249.632 457.548 249.428L457.552 241.436C457.552 241.232 457.618 241.065 457.75 240.933C457.894 240.789 458.068 240.717 458.272 240.717C458.476 240.717 458.644 240.789 458.776 240.933C458.92 241.065 458.992 241.233 458.992 241.437L458.988 249.429ZM458.273 239.511C457.973 239.511 457.751 239.451 457.607 239.33C457.463 239.21 457.391 239.024 457.391 238.772L457.392 238.52C457.392 238.268 457.47 238.082 457.626 237.963C457.782 237.843 458.004 237.783 458.292 237.783C458.58 237.783 458.796 237.843 458.94 237.963C459.084 238.083 459.156 238.269 459.156 238.521L459.155 238.773C459.155 239.025 459.077 239.211 458.921 239.331C458.777 239.451 458.561 239.511 458.273 239.511ZM463.159 249.431C463.159 249.635 463.086 249.809 462.942 249.953C462.798 250.097 462.624 250.169 462.42 250.169C462.216 250.169 462.048 250.097 461.916 249.953C461.784 249.809 461.719 249.635 461.719 249.431L461.725 237.569C461.725 237.365 461.791 237.197 461.923 237.065C462.067 236.921 462.241 236.849 462.445 236.849C462.661 236.849 462.835 236.921 462.967 237.065C463.099 237.197 463.165 237.365 463.165 237.569L463.159 249.431ZM470.077 250.353C469.117 250.352 468.277 250.148 467.558 249.74C466.838 249.331 466.274 248.773 465.867 248.065C465.471 247.344 465.273 246.516 465.274 245.58C465.274 244.536 465.479 243.648 465.887 242.917C466.308 242.173 466.848 241.609 467.508 241.226C468.18 240.83 468.888 240.632 469.632 240.633C470.184 240.633 470.718 240.735 471.234 240.939C471.75 241.144 472.206 241.444 472.602 241.84C472.997 242.224 473.315 242.692 473.555 243.245C473.795 243.785 473.92 244.391 473.932 245.063C473.932 245.255 473.86 245.417 473.716 245.549C473.572 245.681 473.404 245.747 473.212 245.746L466.102 245.743L465.778 244.501L472.708 244.504L472.42 244.756L472.42 244.36C472.373 243.868 472.205 243.448 471.917 243.1C471.641 242.74 471.299 242.463 470.891 242.271C470.496 242.079 470.076 241.983 469.632 241.983C469.272 241.982 468.912 242.048 468.552 242.18C468.203 242.3 467.885 242.504 467.597 242.792C467.321 243.067 467.093 243.427 466.913 243.871C466.744 244.315 466.66 244.849 466.66 245.473C466.659 246.169 466.797 246.781 467.073 247.309C467.361 247.837 467.756 248.258 468.26 248.57C468.764 248.87 469.352 249.02 470.024 249.021C470.444 249.021 470.81 248.967 471.122 248.859C471.434 248.752 471.704 248.62 471.932 248.464C472.16 248.296 472.352 248.128 472.509 247.96C472.665 247.852 472.815 247.798 472.959 247.798C473.139 247.798 473.283 247.858 473.391 247.979C473.511 248.099 473.57 248.243 473.57 248.411C473.57 248.615 473.474 248.795 473.282 248.95C472.946 249.322 472.49 249.652 471.914 249.94C471.337 250.215 470.725 250.353 470.077 250.353ZM480.725 240.638C481.541 240.639 482.183 240.807 482.65 241.143C483.118 241.479 483.448 241.93 483.64 242.494C483.843 243.058 483.945 243.688 483.945 244.384L483.942 249.442C483.942 249.646 483.87 249.82 483.726 249.964C483.594 250.108 483.426 250.18 483.222 250.18C483.018 250.179 482.844 250.107 482.7 249.963C482.568 249.819 482.502 249.645 482.502 249.441L482.505 244.419C482.505 243.963 482.433 243.555 482.289 243.195C482.158 242.823 481.93 242.529 481.606 242.313C481.294 242.085 480.862 241.97 480.31 241.97C479.806 241.97 479.344 242.084 478.924 242.311C478.504 242.527 478.168 242.821 477.915 243.193C477.663 243.553 477.537 243.961 477.537 244.417L477.534 249.439C477.534 249.643 477.462 249.817 477.318 249.961C477.186 250.104 477.018 250.176 476.814 250.176C476.61 250.176 476.436 250.104 476.292 249.96C476.16 249.816 476.094 249.642 476.094 249.438L476.098 241.59C476.098 241.386 476.164 241.218 476.296 241.086C476.44 240.942 476.615 240.87 476.819 240.87C477.035 240.87 477.208 240.942 477.34 241.087C477.472 241.219 477.538 241.387 477.538 241.591L477.538 242.869L477.177 243.264C477.237 242.952 477.376 242.641 477.592 242.329C477.808 242.005 478.078 241.717 478.402 241.465C478.726 241.213 479.086 241.015 479.483 240.872C479.879 240.716 480.293 240.638 480.725 240.638ZM490.907 250.363C489.947 250.363 489.108 250.159 488.388 249.75C487.668 249.342 487.104 248.783 486.697 248.075C486.301 247.355 486.103 246.527 486.104 245.591C486.104 244.547 486.309 243.659 486.717 242.927C487.138 242.184 487.678 241.62 488.338 241.236C489.01 240.84 489.718 240.643 490.462 240.643C491.014 240.643 491.548 240.746 492.064 240.95C492.58 241.154 493.036 241.455 493.432 241.851C493.828 242.235 494.145 242.703 494.385 243.255C494.625 243.795 494.75 244.401 494.762 245.073C494.762 245.265 494.69 245.427 494.546 245.559C494.402 245.691 494.234 245.757 494.042 245.757L486.932 245.753L486.608 244.511L493.538 244.515L493.25 244.767L493.25 244.371C493.203 243.879 493.035 243.459 492.747 243.11C492.471 242.75 492.129 242.474 491.722 242.282C491.326 242.09 490.906 241.993 490.462 241.993C490.102 241.993 489.742 242.059 489.382 242.191C489.034 242.31 488.715 242.514 488.427 242.802C488.151 243.078 487.923 243.438 487.743 243.882C487.575 244.326 487.49 244.86 487.49 245.484C487.49 246.18 487.627 246.792 487.903 247.32C488.191 247.848 488.586 248.268 489.09 248.58C489.594 248.881 490.182 249.031 490.854 249.031C491.274 249.032 491.64 248.978 491.952 248.87C492.264 248.762 492.534 248.63 492.762 248.474C492.99 248.306 493.183 248.139 493.339 247.971C493.495 247.863 493.645 247.809 493.789 247.809C493.969 247.809 494.113 247.869 494.221 247.989C494.341 248.109 494.401 248.253 494.4 248.421C494.4 248.625 494.304 248.805 494.112 248.961C493.776 249.333 493.32 249.663 492.744 249.95C492.168 250.226 491.555 250.364 490.907 250.363ZM501.375 240.739C502.191 240.739 502.851 240.949 503.354 241.37C503.87 241.778 504.212 242.36 504.379 243.116L504.109 243.116L504.236 242.792C504.38 242.456 504.626 242.132 504.974 241.821C505.322 241.509 505.724 241.251 506.181 241.047C506.637 240.843 507.111 240.742 507.603 240.742C508.395 240.742 509.019 240.917 509.474 241.265C509.93 241.601 510.254 242.057 510.446 242.633C510.649 243.197 510.751 243.834 510.751 244.542L510.748 249.456C510.748 249.66 510.676 249.833 510.532 249.977C510.4 250.121 510.232 250.193 510.028 250.193C509.812 250.193 509.638 250.121 509.506 249.977C509.374 249.833 509.308 249.659 509.308 249.455L509.311 244.577C509.311 244.109 509.239 243.689 509.095 243.317C508.964 242.933 508.742 242.632 508.43 242.416C508.13 242.188 507.716 242.074 507.188 242.074C506.696 242.073 506.246 242.187 505.838 242.415C505.43 242.631 505.106 242.931 504.865 243.315C504.625 243.686 504.505 244.106 504.505 244.574L504.502 249.452C504.502 249.656 504.436 249.83 504.304 249.974C504.172 250.118 503.998 250.19 503.782 250.19C503.578 250.19 503.404 250.118 503.26 249.974C503.128 249.83 503.062 249.656 503.062 249.452L503.065 244.52C503.065 244.064 502.999 243.656 502.867 243.295C502.748 242.923 502.538 242.629 502.238 242.413C501.938 242.185 501.524 242.071 500.996 242.071C500.516 242.07 500.078 242.184 499.682 242.412C499.286 242.628 498.968 242.922 498.727 243.293C498.487 243.653 498.367 244.061 498.367 244.517L498.364 249.449C498.364 249.653 498.292 249.827 498.148 249.971C498.016 250.115 497.848 250.187 497.644 250.187C497.44 250.187 497.266 250.115 497.122 249.971C496.99 249.827 496.924 249.652 496.924 249.448L496.928 241.6C496.928 241.396 496.994 241.229 497.127 241.097C497.271 240.953 497.445 240.881 497.649 240.881C497.865 240.881 498.039 240.953 498.171 241.097C498.302 241.229 498.368 241.397 498.368 241.601L498.368 242.969L497.971 243.401C498.019 243.089 498.14 242.777 498.332 242.465C498.536 242.153 498.794 241.865 499.106 241.602C499.418 241.338 499.766 241.128 500.151 240.972C500.535 240.816 500.943 240.739 501.375 240.739ZM514.799 249.458C514.798 249.662 514.726 249.836 514.582 249.979C514.45 250.123 514.282 250.195 514.078 250.195C513.862 250.195 513.688 250.123 513.556 249.979C513.424 249.835 513.358 249.661 513.359 249.457L513.363 241.465C513.363 241.261 513.429 241.093 513.561 240.961C513.705 240.817 513.879 240.745 514.083 240.745C514.287 240.745 514.455 240.817 514.587 240.961C514.731 241.094 514.803 241.262 514.803 241.466L514.799 249.458ZM514.084 239.539C513.784 239.539 513.562 239.479 513.418 239.359C513.274 239.239 513.202 239.053 513.202 238.801L513.202 238.549C513.202 238.297 513.28 238.111 513.436 237.991C513.592 237.871 513.814 237.811 514.102 237.811C514.39 237.811 514.606 237.871 514.75 237.992C514.894 238.112 514.966 238.298 514.966 238.55L514.966 238.802C514.966 239.054 514.888 239.24 514.732 239.36C514.588 239.479 514.372 239.539 514.084 239.539ZM522.016 240.659C522.832 240.66 523.474 240.828 523.941 241.164C524.409 241.5 524.739 241.951 524.931 242.515C525.134 243.079 525.236 243.709 525.236 244.405L525.233 249.463C525.233 249.667 525.161 249.841 525.017 249.985C524.885 250.129 524.717 250.201 524.513 250.201C524.309 250.2 524.135 250.128 523.991 249.984C523.859 249.84 523.793 249.666 523.793 249.462L523.796 244.44C523.796 243.984 523.724 243.576 523.58 243.216C523.449 242.844 523.221 242.55 522.897 242.334C522.585 242.106 522.153 241.991 521.601 241.991C521.097 241.991 520.635 242.105 520.215 242.332C519.795 242.548 519.459 242.842 519.206 243.214C518.954 243.574 518.828 243.982 518.828 244.438L518.825 249.46C518.825 249.664 518.753 249.838 518.609 249.981C518.477 250.125 518.309 250.197 518.105 250.197C517.901 250.197 517.727 250.125 517.583 249.981C517.451 249.837 517.385 249.663 517.385 249.459L517.389 241.611C517.389 241.407 517.455 241.239 517.587 241.107C517.732 240.963 517.906 240.891 518.11 240.891C518.326 240.891 518.5 240.963 518.631 241.108C518.763 241.24 518.829 241.408 518.829 241.612L518.829 242.89L518.468 243.285C518.528 242.973 518.667 242.662 518.883 242.35C519.099 242.026 519.369 241.738 519.693 241.486C520.017 241.234 520.377 241.036 520.774 240.893C521.17 240.737 521.584 240.659 522.016 240.659ZM528.329 250.184C528.077 250.184 527.879 250.112 527.735 249.968C527.603 249.824 527.537 249.626 527.537 249.374L527.537 249.014C527.537 248.75 527.603 248.546 527.735 248.402C527.88 248.258 528.078 248.186 528.33 248.186L528.474 248.187C528.738 248.187 528.936 248.259 529.067 248.403C529.199 248.547 529.265 248.751 529.265 249.015L529.265 249.375C529.265 249.627 529.199 249.825 529.067 249.969C528.935 250.113 528.737 250.185 528.473 250.185L528.329 250.184ZM537.049 237.607C537.925 237.607 538.693 237.776 539.353 238.112C540.024 238.436 540.582 238.893 541.026 239.481C541.47 240.069 541.799 240.747 542.015 241.515C542.242 242.272 542.356 243.07 542.356 243.91C542.355 245.062 542.156 246.117 541.76 247.077C541.363 248.025 540.775 248.787 539.995 249.362C539.215 249.926 538.23 250.207 537.042 250.207L532.542 250.205C532.338 250.204 532.164 250.132 532.02 249.988C531.889 249.844 531.823 249.67 531.823 249.466L531.828 238.324C531.829 238.12 531.895 237.952 532.027 237.82C532.171 237.676 532.345 237.604 532.549 237.605L537.049 237.607ZM536.863 248.803C537.787 248.803 538.537 248.582 539.113 248.138C539.702 247.694 540.128 247.1 540.392 246.357C540.669 245.613 540.807 244.797 540.808 243.909C540.808 243.261 540.73 242.643 540.575 242.055C540.431 241.455 540.197 240.926 539.873 240.47C539.562 240.014 539.154 239.654 538.65 239.39C538.158 239.125 537.564 238.993 536.868 238.993L533.178 238.991L533.322 238.847L533.317 248.981L533.209 248.801L536.863 248.803ZM545.354 250.211C545.138 250.211 544.964 250.139 544.832 249.995C544.7 249.851 544.635 249.677 544.635 249.473L544.641 237.611C544.641 237.407 544.707 237.239 544.839 237.107C544.971 236.963 545.145 236.891 545.361 236.891C545.565 236.891 545.733 236.963 545.865 237.107C546.009 237.239 546.081 237.407 546.081 237.611L546.075 249.473C546.075 249.677 546.002 249.851 545.858 249.995C545.726 250.139 545.558 250.211 545.354 250.211ZM551.335 240.854C551.527 240.854 551.689 240.932 551.821 241.088C551.965 241.232 552.037 241.382 552.037 241.538C552.037 241.742 551.94 241.922 551.748 242.078L545.914 247.169L545.861 245.495L550.831 241.07C550.975 240.926 551.143 240.854 551.335 240.854ZM551.528 250.196C551.324 250.196 551.144 250.118 550.988 249.962L547.156 245.874L548.237 244.885L552.033 248.954C552.177 249.111 552.249 249.291 552.249 249.495C552.249 249.711 552.164 249.885 551.996 250.016C551.828 250.136 551.672 250.196 551.528 250.196ZM553.937 252.573C553.781 252.573 553.631 252.507 553.487 252.375C553.355 252.255 553.289 252.105 553.289 251.925C553.289 251.817 553.313 251.709 553.361 251.601L561.037 236.287C561.121 236.119 561.217 235.999 561.325 235.927C561.433 235.855 561.553 235.819 561.685 235.819C561.829 235.819 561.967 235.88 562.099 236C562.243 236.108 562.315 236.258 562.315 236.45C562.315 236.57 562.285 236.69 562.225 236.81L554.567 252.124C554.495 252.28 554.405 252.394 554.297 252.466C554.189 252.538 554.069 252.574 553.937 252.573ZM578.714 237.574C578.906 237.574 579.08 237.64 579.236 237.772C579.404 237.904 579.488 238.09 579.488 238.33C579.488 238.414 579.476 238.504 579.451 238.6L575.612 249.758C575.564 249.902 575.474 250.016 575.342 250.1C575.222 250.172 575.096 250.214 574.964 250.226C574.82 250.226 574.682 250.19 574.55 250.118C574.418 250.034 574.316 249.914 574.244 249.758L571.242 242.484L571.385 242.538L568.394 249.755C568.322 249.911 568.22 250.031 568.088 250.115C567.956 250.187 567.818 250.223 567.674 250.222C567.542 250.21 567.41 250.168 567.278 250.096C567.158 250.012 567.074 249.898 567.026 249.754L563.197 238.592C563.174 238.496 563.162 238.412 563.162 238.34C563.162 238.1 563.246 237.914 563.414 237.782C563.594 237.638 563.774 237.566 563.954 237.567C564.098 237.567 564.236 237.609 564.368 237.693C564.5 237.777 564.59 237.891 564.638 238.035L567.999 247.973L567.747 247.972L570.684 240.72C570.744 240.576 570.835 240.462 570.955 240.378C571.075 240.294 571.213 240.252 571.369 240.252C571.513 240.252 571.645 240.294 571.765 240.379C571.897 240.463 571.986 240.577 572.034 240.721L574.875 247.868L574.659 247.958L578.012 238.042C578.06 237.898 578.15 237.784 578.282 237.7C578.414 237.616 578.558 237.574 578.714 237.574ZM585.32 250.411C584.36 250.411 583.52 250.206 582.8 249.798C582.08 249.39 581.516 248.831 581.109 248.123C580.713 247.403 580.515 246.575 580.516 245.639C580.516 244.595 580.721 243.707 581.129 242.975C581.55 242.231 582.09 241.668 582.75 241.284C583.422 240.888 584.13 240.691 584.874 240.691C585.426 240.691 585.96 240.794 586.476 240.998C586.992 241.202 587.448 241.502 587.844 241.899C588.24 242.283 588.557 242.751 588.797 243.303C589.037 243.843 589.163 244.449 589.174 245.121C589.174 245.313 589.102 245.475 588.958 245.607C588.814 245.739 588.646 245.805 588.454 245.805L581.344 245.801L581.021 244.559L587.951 244.563L587.662 244.815L587.663 244.419C587.615 243.927 587.447 243.506 587.159 243.158C586.883 242.798 586.542 242.522 586.134 242.33C585.738 242.138 585.318 242.041 584.874 242.041C584.514 242.041 584.154 242.107 583.794 242.239C583.446 242.358 583.128 242.562 582.839 242.85C582.563 243.126 582.335 243.486 582.155 243.93C581.987 244.374 581.902 244.908 581.902 245.532C581.902 246.228 582.039 246.84 582.315 247.368C582.603 247.896 582.999 248.316 583.502 248.628C584.006 248.929 584.594 249.079 585.266 249.079C585.686 249.08 586.052 249.026 586.364 248.918C586.676 248.81 586.946 248.678 587.174 248.522C587.403 248.354 587.595 248.187 587.751 248.019C587.907 247.911 588.057 247.857 588.201 247.857C588.381 247.857 588.525 247.917 588.633 248.037C588.753 248.157 588.813 248.301 588.813 248.469C588.812 248.673 588.716 248.853 588.524 249.009C588.188 249.381 587.732 249.711 587.156 249.998C586.58 250.274 585.968 250.412 585.32 250.411ZM595.931 240.697C596.747 240.697 597.479 240.908 598.127 241.328C598.774 241.736 599.284 242.3 599.656 243.021C600.039 243.741 600.231 244.575 600.23 245.523C600.23 246.471 600.037 247.311 599.653 248.043C599.281 248.774 598.77 249.356 598.122 249.788C597.486 250.208 596.766 250.417 595.962 250.417C595.518 250.417 595.098 250.35 594.702 250.218C594.318 250.074 593.964 249.888 593.64 249.66C593.328 249.419 593.065 249.161 592.849 248.885C592.633 248.597 592.477 248.315 592.381 248.039L592.777 247.787L592.776 249.587C592.776 249.791 592.71 249.965 592.578 250.109C592.446 250.253 592.272 250.325 592.056 250.325C591.852 250.325 591.678 250.259 591.534 250.127C591.402 249.982 591.336 249.802 591.336 249.586L591.342 237.652C591.342 237.448 591.409 237.274 591.541 237.131C591.685 236.987 591.859 236.915 592.063 236.915C592.279 236.915 592.453 236.987 592.585 237.131C592.717 237.275 592.782 237.449 592.782 237.653L592.78 243.197L592.51 243.053C592.594 242.753 592.738 242.465 592.942 242.189C593.158 241.901 593.416 241.65 593.716 241.434C594.029 241.206 594.371 241.026 594.743 240.894C595.127 240.762 595.523 240.697 595.931 240.697ZM595.768 242.029C595.168 242.028 594.634 242.178 594.166 242.478C593.71 242.778 593.35 243.191 593.085 243.719C592.833 244.247 592.707 244.847 592.706 245.519C592.706 246.191 592.832 246.797 593.083 247.337C593.347 247.877 593.707 248.304 594.163 248.616C594.631 248.928 595.165 249.084 595.765 249.085C596.365 249.085 596.893 248.929 597.349 248.618C597.805 248.306 598.165 247.88 598.429 247.34C598.694 246.8 598.826 246.194 598.826 245.522C598.827 244.85 598.695 244.25 598.431 243.722C598.168 243.194 597.808 242.78 597.352 242.48C596.896 242.179 596.368 242.029 595.768 242.029ZM601.871 248.764C601.763 248.608 601.716 248.446 601.728 248.278C601.74 248.098 601.842 247.942 602.034 247.81C602.154 247.726 602.292 247.69 602.448 247.702C602.616 247.714 602.766 247.792 602.898 247.936C603.234 248.333 603.617 248.651 604.049 248.891C604.481 249.119 605.009 249.233 605.633 249.234C605.921 249.222 606.209 249.174 606.497 249.09C606.785 249.006 607.025 248.862 607.217 248.659C607.422 248.443 607.524 248.161 607.524 247.813C607.524 247.477 607.422 247.213 607.218 247.021C607.014 246.816 606.75 246.654 606.427 246.534C606.103 246.402 605.749 246.288 605.365 246.192C604.969 246.083 604.579 245.963 604.195 245.831C603.811 245.687 603.463 245.513 603.151 245.308C602.851 245.092 602.605 244.828 602.414 244.516C602.234 244.192 602.144 243.802 602.144 243.346C602.144 242.806 602.289 242.338 602.577 241.942C602.877 241.546 603.273 241.241 603.765 241.025C604.269 240.809 604.815 240.701 605.403 240.702C605.739 240.702 606.087 240.744 606.447 240.828C606.819 240.9 607.179 241.033 607.527 241.225C607.875 241.405 608.181 241.657 608.445 241.981C608.553 242.101 608.613 242.251 608.625 242.431C608.636 242.611 608.558 242.773 608.39 242.917C608.258 243.013 608.108 243.055 607.94 243.043C607.784 243.031 607.652 242.971 607.544 242.863C607.293 242.563 606.975 242.334 606.591 242.178C606.219 242.01 605.805 241.926 605.349 241.926C605.061 241.925 604.779 241.967 604.503 242.051C604.227 242.135 603.993 242.279 603.801 242.483C603.62 242.675 603.53 242.945 603.53 243.293C603.542 243.617 603.65 243.881 603.854 244.085C604.058 244.289 604.334 244.457 604.681 244.589C605.029 244.709 605.413 244.83 605.833 244.95C606.217 245.046 606.583 245.16 606.931 245.292C607.291 245.413 607.615 245.575 607.903 245.779C608.191 245.983 608.419 246.247 608.586 246.571C608.754 246.883 608.838 247.279 608.838 247.759C608.838 248.311 608.681 248.791 608.369 249.199C608.057 249.595 607.643 249.901 607.127 250.116C606.623 250.32 606.077 250.422 605.489 250.422C604.829 250.421 604.175 250.295 603.527 250.043C602.891 249.79 602.339 249.364 601.871 248.764ZM612.304 249.507C612.304 249.711 612.232 249.885 612.088 250.029C611.956 250.173 611.788 250.245 611.584 250.245C611.368 250.245 611.194 250.173 611.062 250.028C610.93 249.884 610.864 249.71 610.864 249.506L610.868 241.514C610.869 241.31 610.935 241.142 611.067 241.01C611.211 240.867 611.385 240.795 611.589 240.795C611.793 240.795 611.961 240.867 612.093 241.011C612.237 241.143 612.309 241.311 612.308 241.515L612.304 249.507ZM611.589 239.589C611.289 239.589 611.067 239.528 610.924 239.408C610.78 239.288 610.708 239.102 610.708 238.85L610.708 238.598C610.708 238.346 610.786 238.16 610.942 238.04C611.098 237.921 611.32 237.861 611.608 237.861C611.896 237.861 612.112 237.921 612.256 238.041C612.4 238.161 612.472 238.347 612.472 238.599L612.472 238.851C612.472 239.103 612.394 239.289 612.238 239.409C612.093 239.529 611.877 239.589 611.589 239.589ZM614.535 240.994L618.765 240.996C618.957 240.996 619.113 241.063 619.233 241.195C619.365 241.327 619.431 241.483 619.431 241.663C619.431 241.855 619.365 242.017 619.233 242.149C619.113 242.269 618.957 242.328 618.765 242.328L614.535 242.326C614.355 242.326 614.199 242.26 614.067 242.128C613.935 241.996 613.869 241.834 613.869 241.642C613.869 241.462 613.935 241.312 614.067 241.192C614.199 241.06 614.355 240.994 614.535 240.994ZM616.427 238.547C616.631 238.547 616.799 238.619 616.931 238.763C617.062 238.896 617.128 239.064 617.128 239.268L617.124 247.962C617.124 248.25 617.166 248.466 617.249 248.61C617.333 248.754 617.441 248.856 617.573 248.916C617.717 248.964 617.855 248.988 617.987 248.988C618.107 248.988 618.209 248.97 618.293 248.934C618.389 248.886 618.497 248.862 618.617 248.862C618.737 248.862 618.845 248.922 618.941 249.042C619.049 249.151 619.103 249.295 619.103 249.475C619.103 249.691 618.977 249.877 618.725 250.032C618.473 250.176 618.191 250.248 617.879 250.248C617.711 250.248 617.501 250.236 617.249 250.212C617.009 250.188 616.769 250.109 616.529 249.977C616.289 249.845 616.085 249.629 615.917 249.329C615.761 249.017 615.684 248.585 615.684 248.033L615.688 239.267C615.688 239.063 615.76 238.895 615.905 238.763C616.049 238.619 616.223 238.547 616.427 238.547ZM625.644 250.432C624.684 250.431 623.844 250.227 623.124 249.819C622.404 249.41 621.841 248.852 621.433 248.144C621.037 247.424 620.84 246.595 620.84 245.659C620.841 244.615 621.045 243.728 621.454 242.996C621.874 242.252 622.414 241.688 623.074 241.305C623.747 240.909 624.455 240.711 625.199 240.712C625.751 240.712 626.285 240.814 626.801 241.018C627.316 241.223 627.772 241.523 628.168 241.919C628.564 242.303 628.882 242.772 629.121 243.324C629.361 243.864 629.487 244.47 629.498 245.142C629.498 245.334 629.426 245.496 629.282 245.628C629.138 245.76 628.97 245.826 628.778 245.825L621.668 245.822L621.345 244.58L628.275 244.583L627.987 244.835L627.987 244.439C627.939 243.947 627.771 243.527 627.483 243.179C627.208 242.819 626.866 242.543 626.458 242.35C626.062 242.158 625.642 242.062 625.198 242.062C624.838 242.061 624.478 242.127 624.118 242.259C623.77 242.379 623.452 242.583 623.164 242.871C622.887 243.146 622.659 243.506 622.479 243.95C622.311 244.394 622.227 244.928 622.226 245.552C622.226 246.248 622.364 246.86 622.639 247.388C622.927 247.917 623.323 248.337 623.827 248.649C624.33 248.949 624.918 249.1 625.59 249.1C626.01 249.1 626.376 249.046 626.689 248.938C627.001 248.831 627.271 248.699 627.499 248.543C627.727 248.375 627.919 248.207 628.075 248.039C628.231 247.931 628.381 247.877 628.525 247.877C628.705 247.877 628.849 247.938 628.957 248.058C629.077 248.178 629.137 248.322 629.137 248.49C629.137 248.694 629.041 248.874 628.848 249.03C628.512 249.401 628.056 249.731 627.48 250.019C626.904 250.295 626.292 250.432 625.644 250.432ZM631.263 252.613C631.107 252.613 630.957 252.547 630.813 252.415C630.681 252.294 630.615 252.144 630.615 251.964C630.615 251.856 630.639 251.748 630.687 251.64L638.363 236.326C638.447 236.158 638.543 236.038 638.651 235.967C638.759 235.895 638.88 235.859 639.012 235.859C639.156 235.859 639.293 235.919 639.425 236.039C639.569 236.147 639.641 236.297 639.641 236.489C639.641 236.609 639.611 236.729 639.551 236.849L631.893 252.163C631.821 252.319 631.731 252.433 631.623 252.505C631.515 252.577 631.395 252.613 631.263 252.613Z" fill="black"/>
</svg>
