<svg width="773" height="351" viewBox="0 0 773 351" fill="none" xmlns="http://www.w3.org/2000/svg">
<path d="M54.8042 273.886C29.0703 245.074 33.7029 203.58 65.1513 181.208C96.5997 158.836 142.955 164.057 168.689 192.87C194.423 221.682 189.79 263.176 158.342 285.548C126.894 307.92 80.5381 302.699 54.8042 273.886Z" fill="#FCD993"/>
<path d="M95.4273 253.284C70.6247 225.515 75.6075 185.154 106.557 163.137C137.506 141.12 182.702 145.784 207.504 173.554C232.307 201.324 227.324 241.684 196.375 263.701C165.426 285.718 120.23 281.054 95.4273 253.284Z" fill="#FFFBF5"/>
<path d="M118.187 189.247C119.079 189.341 121.32 189.606 123.634 191.3C124.487 191.925 125.813 192.92 126.8 194.852C127.839 196.885 127.903 198.779 127.912 199.218C127.92 199.674 127.928 201.783 126.777 204.041C125.668 206.215 124.113 207.292 123.095 207.978C122.617 208.3 120.25 209.845 116.852 209.954C115.819 209.987 113.296 210.034 110.618 208.413C109.675 207.842 107.946 206.763 106.731 204.457C106.395 203.818 105.567 202.201 105.54 199.895C105.534 199.332 105.561 197.552 106.465 195.596C107.114 194.19 107.917 193.34 108.428 192.809C109.818 191.364 111.216 190.705 112.123 190.29C113.297 189.751 114.239 189.527 114.533 189.461C115.227 189.306 116.55 189.077 118.187 189.249L118.187 189.247Z" fill="#FFD278" fill-opacity="0.78" stroke="white" stroke-width="0.25" stroke-linecap="round" stroke-linejoin="round"/>
<path d="M138.624 251.269C138.876 251.269 139.085 251.353 139.253 251.521C139.433 251.689 139.523 251.899 139.523 252.151C139.523 252.403 139.433 252.613 139.253 252.781C139.085 252.949 138.875 253.033 138.623 253.033L132.575 253.03C132.311 253.029 132.089 252.945 131.909 252.777C131.741 252.597 131.657 252.375 131.657 252.111L131.663 241.347C131.663 241.083 131.753 240.867 131.933 240.699C132.113 240.519 132.347 240.429 132.635 240.43C132.875 240.43 133.085 240.52 133.265 240.7C133.457 240.868 133.553 241.084 133.553 241.348L133.547 251.572L133.17 251.266L138.624 251.269ZM143.083 252.117C143.083 252.381 142.998 252.603 142.83 252.783C142.662 252.951 142.446 253.035 142.182 253.034C141.93 253.034 141.714 252.95 141.534 252.782C141.366 252.602 141.283 252.38 141.283 252.116L141.287 244.412C141.287 244.148 141.371 243.932 141.539 243.764C141.719 243.584 141.935 243.494 142.187 243.494C142.451 243.495 142.667 243.585 142.835 243.765C143.003 243.933 143.087 244.149 143.087 244.413L143.083 252.117ZM142.17 242.306C141.822 242.306 141.57 242.246 141.414 242.126C141.258 241.994 141.18 241.778 141.18 241.478L141.18 241.19C141.18 240.89 141.265 240.68 141.433 240.56C141.601 240.44 141.853 240.38 142.189 240.38C142.549 240.381 142.807 240.447 142.963 240.579C143.119 240.699 143.196 240.903 143.196 241.191L143.196 241.479C143.196 241.791 143.112 242.007 142.944 242.127C142.788 242.247 142.53 242.307 142.17 242.306ZM150.386 243.355C151.238 243.355 151.898 243.535 152.366 243.896C152.834 244.244 153.158 244.718 153.337 245.318C153.529 245.906 153.625 246.566 153.624 247.298L153.622 252.122C153.622 252.386 153.532 252.608 153.352 252.788C153.184 252.956 152.974 253.04 152.722 253.04C152.458 253.04 152.242 252.956 152.074 252.787C151.906 252.607 151.822 252.385 151.822 252.121L151.824 247.315C151.825 246.883 151.765 246.499 151.645 246.163C151.525 245.815 151.315 245.539 151.015 245.335C150.728 245.119 150.32 245.011 149.792 245.01C149.3 245.01 148.868 245.118 148.495 245.334C148.123 245.537 147.829 245.813 147.613 246.161C147.409 246.497 147.307 246.881 147.306 247.313L147.304 252.119C147.304 252.383 147.214 252.605 147.034 252.785C146.866 252.953 146.656 253.037 146.404 253.037C146.14 253.036 145.924 252.952 145.756 252.784C145.588 252.604 145.504 252.382 145.504 252.118L145.508 244.486C145.508 244.222 145.592 244.006 145.76 243.838C145.928 243.658 146.144 243.568 146.408 243.569C146.66 243.569 146.87 243.659 147.038 243.839C147.218 244.007 147.308 244.223 147.308 244.487L147.307 245.495L146.983 245.675C147.067 245.411 147.212 245.147 147.416 244.883C147.632 244.607 147.89 244.355 148.19 244.127C148.49 243.888 148.826 243.702 149.198 243.57C149.57 243.426 149.966 243.354 150.386 243.355ZM157.165 253.042C156.913 253.042 156.697 252.958 156.517 252.79C156.349 252.61 156.265 252.388 156.265 252.124L156.271 240.64C156.271 240.376 156.355 240.16 156.523 239.992C156.703 239.812 156.919 239.722 157.171 239.722C157.435 239.722 157.651 239.812 157.819 239.992C157.987 240.16 158.071 240.376 158.071 240.64L158.065 252.124C158.065 252.388 157.981 252.61 157.813 252.79C157.645 252.958 157.429 253.042 157.165 253.042ZM163.038 243.541C163.266 243.541 163.464 243.637 163.631 243.829C163.799 244.021 163.883 244.213 163.883 244.405C163.883 244.645 163.769 244.867 163.541 245.071L157.904 250.108L157.833 248.038L162.371 243.829C162.564 243.637 162.786 243.541 163.038 243.541ZM163.249 253.027C162.997 253.027 162.781 252.925 162.601 252.721L159.003 248.921L160.371 247.662L163.88 251.461C164.071 251.666 164.167 251.894 164.167 252.146C164.167 252.41 164.059 252.626 163.843 252.793C163.639 252.949 163.441 253.027 163.249 253.027ZM175.47 253.051C175.182 253.051 174.948 252.967 174.768 252.799C174.6 252.619 174.516 252.397 174.516 252.133L174.522 241.351L176.448 241.352L176.442 252.134C176.442 252.398 176.346 252.62 176.154 252.8C175.974 252.968 175.746 253.051 175.47 253.051ZM171.389 242.177C171.137 242.177 170.921 242.099 170.741 241.943C170.561 241.775 170.471 241.559 170.472 241.295C170.472 241.043 170.562 240.839 170.742 240.683C170.922 240.527 171.138 240.449 171.39 240.449L179.58 240.453C179.832 240.454 180.042 240.538 180.21 240.706C180.39 240.862 180.48 241.066 180.48 241.318C180.479 241.582 180.389 241.792 180.209 241.948C180.041 242.104 179.831 242.182 179.579 242.181L171.389 242.177ZM184.005 252.138C184.004 252.402 183.92 252.624 183.752 252.804C183.584 252.971 183.368 253.055 183.104 253.055C182.852 253.055 182.636 252.971 182.456 252.803C182.288 252.623 182.204 252.401 182.205 252.137L182.209 244.433C182.209 244.169 182.293 243.953 182.461 243.785C182.641 243.605 182.857 243.515 183.109 243.515C183.373 243.515 183.589 243.605 183.757 243.786C183.925 243.954 184.009 244.17 184.009 244.434L184.005 252.138ZM183.092 242.327C182.744 242.327 182.492 242.267 182.336 242.147C182.18 242.015 182.102 241.799 182.102 241.499L182.102 241.211C182.102 240.911 182.186 240.701 182.354 240.581C182.523 240.461 182.775 240.401 183.111 240.401C183.471 240.401 183.729 240.468 183.884 240.6C184.04 240.72 184.118 240.924 184.118 241.212L184.118 241.5C184.118 241.812 184.034 242.028 183.866 242.148C183.71 242.268 183.452 242.327 183.092 242.327ZM188.37 252.14C188.37 252.404 188.28 252.626 188.1 252.806C187.931 252.974 187.721 253.058 187.469 253.057C187.217 253.057 187.001 252.973 186.822 252.805C186.654 252.625 186.57 252.403 186.57 252.139L186.576 240.655C186.576 240.391 186.666 240.175 186.846 240.007C187.026 239.827 187.242 239.737 187.494 239.737C187.758 239.738 187.968 239.828 188.124 240.008C188.292 240.176 188.376 240.392 188.376 240.656L188.37 252.14ZM197.235 240.462C197.475 240.463 197.685 240.553 197.864 240.733C198.056 240.901 198.152 241.117 198.152 241.381L198.147 252.145C198.135 252.409 198.032 252.631 197.84 252.811C197.66 252.979 197.444 253.062 197.192 253.062C196.916 253.062 196.688 252.978 196.508 252.81C196.34 252.63 196.257 252.408 196.257 252.144L196.262 241.38C196.262 241.116 196.352 240.9 196.532 240.732C196.713 240.552 196.947 240.462 197.235 240.462ZM205.353 240.467C205.641 240.467 205.869 240.557 206.036 240.737C206.204 240.905 206.288 241.121 206.288 241.385L206.283 252.149C206.283 252.413 206.192 252.635 206.012 252.815C205.844 252.983 205.616 253.067 205.328 253.067C205.076 253.066 204.86 252.982 204.68 252.814C204.5 252.634 204.411 252.412 204.411 252.148L204.416 241.384C204.416 241.12 204.506 240.904 204.686 240.736C204.879 240.556 205.101 240.466 205.353 240.467ZM197.16 245.826L205.368 245.831L205.349 247.559L197.141 247.554L197.16 245.826ZM211.048 253.465C211.047 254.113 210.915 254.671 210.651 255.139C210.386 255.607 210.038 255.967 209.606 256.219C209.174 256.47 208.712 256.596 208.22 256.596C207.968 256.596 207.764 256.512 207.608 256.344C207.452 256.188 207.374 255.996 207.374 255.768L207.374 255.606C207.375 255.39 207.453 255.216 207.609 255.084C207.753 254.952 207.933 254.85 208.149 254.778C208.425 254.694 208.641 254.568 208.797 254.4C208.965 254.244 209.079 254.04 209.139 253.788C209.211 253.548 209.248 253.284 209.248 252.996L209.252 244.5C209.252 244.248 209.336 244.039 209.504 243.871C209.672 243.691 209.889 243.601 210.153 243.601C210.417 243.601 210.632 243.691 210.8 243.871C210.968 244.039 211.052 244.249 211.052 244.501L211.048 253.465ZM210.117 242.341C209.769 242.341 209.517 242.281 209.361 242.161C209.205 242.028 209.127 241.812 209.128 241.512L209.128 241.224C209.128 240.924 209.212 240.714 209.38 240.595C209.548 240.475 209.8 240.415 210.136 240.415C210.496 240.415 210.754 240.481 210.91 240.613C211.066 240.733 211.144 240.937 211.144 241.225L211.144 241.513C211.143 241.825 211.059 242.041 210.891 242.161C210.735 242.281 210.477 242.341 210.117 242.341ZM218.327 253.253C217.331 253.253 216.468 253.048 215.736 252.64C215.004 252.219 214.434 251.649 214.027 250.929C213.631 250.197 213.433 249.363 213.434 248.427C213.434 247.371 213.645 246.471 214.065 245.727C214.498 244.971 215.056 244.395 215.74 244C216.424 243.592 217.151 243.389 217.919 243.389C218.507 243.389 219.064 243.509 219.592 243.75C220.12 243.978 220.588 244.302 220.996 244.722C221.416 245.131 221.745 245.617 221.985 246.181C222.225 246.733 222.351 247.339 222.362 247.999C222.35 248.239 222.254 248.437 222.074 248.593C221.894 248.749 221.684 248.827 221.444 248.827L214.442 248.823L214.011 247.293L220.779 247.296L220.436 247.62L220.437 247.17C220.413 246.75 220.275 246.384 220.023 246.072C219.771 245.748 219.459 245.502 219.088 245.333C218.716 245.153 218.326 245.063 217.918 245.063C217.558 245.063 217.21 245.123 216.874 245.242C216.55 245.35 216.255 245.53 215.991 245.782C215.739 246.034 215.535 246.37 215.379 246.79C215.235 247.198 215.162 247.707 215.162 248.319C215.162 248.979 215.299 249.556 215.575 250.048C215.851 250.54 216.223 250.924 216.691 251.2C217.158 251.465 217.674 251.597 218.238 251.597C218.682 251.597 219.048 251.555 219.336 251.472C219.624 251.376 219.865 251.262 220.057 251.13C220.249 250.998 220.417 250.872 220.561 250.752C220.741 250.644 220.921 250.59 221.101 250.591C221.317 250.591 221.497 250.669 221.641 250.825C221.785 250.969 221.857 251.143 221.856 251.347C221.856 251.611 221.724 251.851 221.46 252.067C221.136 252.379 220.686 252.654 220.11 252.894C219.546 253.134 218.951 253.253 218.327 253.253ZM229.151 243.449C230.039 243.449 230.723 243.671 231.203 244.116C231.682 244.548 232 245.136 232.156 245.88L231.868 245.79L231.994 245.502C232.15 245.19 232.384 244.878 232.696 244.566C233.021 244.243 233.405 243.979 233.849 243.775C234.293 243.559 234.767 243.451 235.271 243.452C236.099 243.452 236.741 243.632 237.197 243.993C237.653 244.341 237.97 244.815 238.15 245.415C238.33 246.003 238.419 246.663 238.419 247.395L238.417 252.165C238.416 252.429 238.332 252.651 238.164 252.831C237.996 252.999 237.78 253.083 237.516 253.083C237.264 253.083 237.048 252.999 236.868 252.831C236.7 252.65 236.616 252.428 236.617 252.164L236.619 247.412C236.619 246.992 236.559 246.608 236.44 246.26C236.332 245.912 236.134 245.636 235.846 245.432C235.57 245.216 235.186 245.108 234.694 245.107C234.226 245.107 233.806 245.215 233.434 245.431C233.074 245.635 232.792 245.91 232.588 246.258C232.383 246.606 232.281 246.99 232.281 247.41L232.279 252.162C232.278 252.426 232.194 252.648 232.026 252.828C231.858 252.996 231.642 253.08 231.378 253.08C231.114 253.08 230.898 252.995 230.73 252.827C230.562 252.647 230.478 252.425 230.479 252.161L230.481 247.391C230.481 246.971 230.421 246.587 230.302 246.239C230.194 245.891 230.002 245.615 229.726 245.411C229.45 245.207 229.066 245.105 228.574 245.104C228.106 245.104 227.692 245.206 227.332 245.41C226.972 245.614 226.69 245.889 226.486 246.237C226.293 246.585 226.197 246.969 226.197 247.389L226.195 252.159C226.194 252.423 226.104 252.645 225.924 252.825C225.756 252.993 225.546 253.077 225.294 253.077C225.03 253.077 224.814 252.992 224.646 252.824C224.478 252.644 224.394 252.422 224.395 252.158L224.398 244.526C224.399 244.262 224.483 244.046 224.651 243.878C224.819 243.698 225.035 243.609 225.299 243.609C225.551 243.609 225.761 243.699 225.929 243.879C226.109 244.047 226.199 244.263 226.198 244.527L226.198 245.589L225.856 245.787C225.94 245.523 226.078 245.253 226.27 244.977C226.462 244.701 226.703 244.449 226.991 244.222C227.291 243.994 227.621 243.808 227.981 243.664C228.341 243.52 228.731 243.448 229.151 243.449ZM245.692 243.457C246.58 243.457 247.264 243.68 247.744 244.124C248.224 244.556 248.541 245.144 248.697 245.889L248.409 245.798L248.535 245.51C248.691 245.199 248.925 244.887 249.237 244.575C249.562 244.251 249.946 243.987 250.39 243.783C250.834 243.568 251.308 243.46 251.812 243.46C252.64 243.461 253.282 243.641 253.738 244.001C254.194 244.349 254.511 244.823 254.691 245.424C254.871 246.012 254.96 246.672 254.96 247.404L254.958 252.174C254.957 252.438 254.873 252.66 254.705 252.84C254.537 253.008 254.321 253.091 254.057 253.091C253.805 253.091 253.589 253.007 253.409 252.839C253.241 252.659 253.157 252.437 253.158 252.173L253.16 247.421C253.16 247.001 253.1 246.617 252.981 246.269C252.873 245.921 252.675 245.645 252.387 245.44C252.111 245.224 251.727 245.116 251.235 245.116C250.767 245.116 250.347 245.223 249.975 245.439C249.615 245.643 249.333 245.919 249.129 246.267C248.924 246.615 248.822 246.999 248.822 247.419L248.82 252.171C248.819 252.435 248.735 252.657 248.567 252.836C248.399 253.004 248.183 253.088 247.919 253.088C247.655 253.088 247.439 253.004 247.271 252.836C247.103 252.656 247.019 252.434 247.02 252.17L247.022 247.4C247.022 246.98 246.962 246.596 246.843 246.248C246.735 245.9 246.543 245.623 246.267 245.419C245.991 245.215 245.607 245.113 245.115 245.113C244.647 245.112 244.233 245.214 243.873 245.418C243.513 245.622 243.231 245.898 243.027 246.246C242.834 246.594 242.738 246.978 242.738 247.398L242.736 252.168C242.735 252.432 242.645 252.653 242.465 252.833C242.297 253.001 242.087 253.085 241.835 253.085C241.571 253.085 241.355 253.001 241.187 252.833C241.019 252.653 240.935 252.431 240.936 252.167L240.94 244.535C240.94 244.271 241.024 244.055 241.192 243.887C241.36 243.707 241.576 243.617 241.84 243.617C242.092 243.617 242.302 243.707 242.47 243.887C242.65 244.055 242.74 244.272 242.74 244.536L242.739 245.598L242.397 245.795C242.481 245.531 242.619 245.261 242.811 244.986C243.003 244.71 243.244 244.458 243.532 244.23C243.832 244.002 244.162 243.816 244.522 243.672C244.882 243.529 245.272 243.457 245.692 243.457ZM261.886 253.275C260.89 253.275 260.026 253.07 259.294 252.662C258.563 252.242 257.993 251.671 257.585 250.951C257.19 250.219 256.992 249.385 256.993 248.449C256.993 247.393 257.204 246.493 257.624 245.749C258.056 244.993 258.615 244.418 259.299 244.022C259.983 243.614 260.709 243.411 261.477 243.411C262.065 243.411 262.623 243.532 263.151 243.772C263.679 244 264.147 244.324 264.554 244.745C264.974 245.153 265.304 245.639 265.544 246.203C265.783 246.755 265.909 247.361 265.921 248.021C265.909 248.261 265.813 248.459 265.632 248.615C265.452 248.771 265.242 248.849 265.002 248.849L258 248.845L257.569 247.315L264.337 247.318L263.995 247.642L263.995 247.192C263.971 246.772 263.834 246.406 263.582 246.094C263.33 245.77 263.018 245.524 262.646 245.356C262.274 245.175 261.884 245.085 261.476 245.085C261.116 245.085 260.768 245.145 260.432 245.265C260.108 245.372 259.814 245.552 259.55 245.804C259.298 246.056 259.094 246.392 258.937 246.812C258.793 247.22 258.721 247.73 258.721 248.342C258.72 249.002 258.858 249.578 259.134 250.07C259.409 250.562 259.781 250.946 260.249 251.222C260.717 251.487 261.233 251.619 261.797 251.619C262.241 251.619 262.607 251.578 262.895 251.494C263.183 251.398 263.423 251.284 263.615 251.152C263.807 251.02 263.975 250.894 264.119 250.774C264.299 250.666 264.479 250.613 264.659 250.613C264.875 250.613 265.055 250.691 265.199 250.847C265.343 250.991 265.415 251.165 265.415 251.369C265.415 251.633 265.283 251.873 265.019 252.089C264.695 252.401 264.244 252.676 263.668 252.916C263.104 253.156 262.51 253.276 261.886 253.275ZM267.395 251.622C267.288 251.454 267.24 251.262 267.252 251.046C267.264 250.818 267.39 250.626 267.63 250.47C267.798 250.362 267.972 250.32 268.152 250.344C268.344 250.357 268.524 250.447 268.692 250.615C269.028 250.987 269.4 251.281 269.808 251.497C270.227 251.713 270.731 251.822 271.319 251.822C271.559 251.81 271.805 251.774 272.057 251.714C272.309 251.643 272.526 251.523 272.706 251.355C272.886 251.175 272.976 250.917 272.976 250.581C272.976 250.281 272.88 250.041 272.688 249.861C272.496 249.681 272.245 249.537 271.933 249.428C271.621 249.308 271.285 249.2 270.925 249.104C270.541 248.996 270.151 248.875 269.755 248.743C269.371 248.611 269.023 248.443 268.711 248.239C268.399 248.023 268.141 247.746 267.938 247.41C267.746 247.074 267.65 246.66 267.65 246.168C267.651 245.604 267.807 245.118 268.119 244.71C268.443 244.303 268.857 243.985 269.361 243.757C269.878 243.529 270.436 243.416 271.036 243.416C271.384 243.416 271.75 243.464 272.134 243.56C272.518 243.645 272.889 243.783 273.249 243.975C273.609 244.167 273.921 244.419 274.185 244.731C274.305 244.888 274.371 245.074 274.383 245.29C274.407 245.506 274.311 245.698 274.094 245.865C273.95 245.985 273.776 246.039 273.572 246.027C273.368 246.015 273.2 245.949 273.068 245.829C272.841 245.541 272.547 245.319 272.187 245.162C271.827 244.994 271.419 244.91 270.963 244.91C270.735 244.91 270.495 244.946 270.243 245.017C270.003 245.077 269.799 245.191 269.631 245.359C269.463 245.527 269.378 245.773 269.378 246.097C269.378 246.397 269.474 246.637 269.666 246.817C269.87 246.997 270.134 247.147 270.458 247.268C270.782 247.388 271.136 247.496 271.52 247.592C271.891 247.688 272.257 247.803 272.617 247.935C272.989 248.067 273.319 248.241 273.607 248.457C273.907 248.661 274.147 248.931 274.327 249.268C274.519 249.592 274.614 250.006 274.614 250.51C274.614 251.098 274.44 251.602 274.091 252.021C273.755 252.429 273.323 252.741 272.795 252.957C272.279 253.173 271.733 253.28 271.157 253.28C270.473 253.28 269.789 253.159 269.105 252.919C268.433 252.667 267.863 252.234 267.395 251.622ZM278.241 252.186C278.241 252.45 278.157 252.672 277.989 252.851C277.82 253.019 277.604 253.103 277.34 253.103C277.088 253.103 276.872 253.019 276.693 252.851C276.525 252.671 276.441 252.449 276.441 252.185L276.445 244.481C276.445 244.217 276.529 244.001 276.697 243.833C276.877 243.653 277.093 243.563 277.345 243.563C277.609 243.563 277.825 243.653 277.993 243.833C278.161 244.002 278.245 244.218 278.245 244.482L278.241 252.186ZM277.328 242.375C276.98 242.375 276.728 242.315 276.572 242.195C276.416 242.063 276.338 241.847 276.338 241.547L276.338 241.259C276.339 240.959 276.423 240.749 276.591 240.629C276.759 240.509 277.011 240.449 277.347 240.449C277.707 240.449 277.965 240.515 278.121 240.647C278.277 240.768 278.355 240.972 278.354 241.26L278.354 241.548C278.354 241.86 278.27 242.076 278.102 242.195C277.946 242.315 277.688 242.375 277.328 242.375ZM288.426 239.789C288.69 239.789 288.906 239.873 289.074 240.041C289.242 240.209 289.326 240.431 289.326 240.707L289.32 252.191C289.32 252.455 289.236 252.677 289.068 252.857C288.9 253.025 288.684 253.109 288.42 253.109C288.168 253.109 287.952 253.024 287.772 252.856C287.604 252.676 287.52 252.454 287.52 252.19L287.521 250.894L287.899 250.912C287.899 251.128 287.809 251.374 287.628 251.65C287.46 251.914 287.226 252.172 286.926 252.424C286.626 252.676 286.272 252.886 285.864 253.053C285.456 253.209 285.018 253.287 284.55 253.287C283.722 253.286 282.978 253.076 282.318 252.656C281.658 252.223 281.136 251.641 280.753 250.909C280.369 250.165 280.178 249.313 280.178 248.353C280.179 247.393 280.371 246.547 280.755 245.815C281.14 245.071 281.656 244.489 282.304 244.07C282.965 243.638 283.697 243.422 284.501 243.423C285.005 243.423 285.473 243.507 285.905 243.675C286.348 243.844 286.732 244.06 287.056 244.324C287.38 244.588 287.632 244.87 287.812 245.17C287.992 245.459 288.081 245.735 288.081 245.999L287.523 246.052L287.526 240.706C287.526 240.442 287.61 240.226 287.778 240.058C287.958 239.878 288.174 239.789 288.426 239.789ZM284.748 251.631C285.324 251.631 285.823 251.487 286.243 251.2C286.675 250.912 287.011 250.522 287.251 250.03C287.492 249.538 287.612 248.98 287.612 248.356C287.612 247.732 287.493 247.174 287.253 246.682C287.013 246.19 286.677 245.8 286.246 245.512C285.814 245.223 285.316 245.079 284.752 245.079C284.2 245.079 283.708 245.222 283.276 245.51C282.855 245.798 282.519 246.188 282.267 246.68C282.027 247.171 281.906 247.729 281.906 248.353C281.906 248.977 282.026 249.535 282.265 250.028C282.517 250.52 282.853 250.91 283.273 251.198C283.705 251.486 284.196 251.631 284.748 251.631ZM296.251 253.293C295.255 253.292 294.391 253.088 293.66 252.679C292.928 252.259 292.358 251.689 291.95 250.969C291.555 250.236 291.357 249.402 291.358 248.466C291.358 247.41 291.569 246.51 291.989 245.767C292.422 245.011 292.98 244.435 293.664 244.039C294.348 243.632 295.074 243.428 295.842 243.429C296.43 243.429 296.988 243.549 297.516 243.789C298.044 244.018 298.512 244.342 298.92 244.762C299.339 245.17 299.669 245.656 299.909 246.221C300.149 246.773 300.274 247.379 300.286 248.039C300.274 248.279 300.178 248.477 299.998 248.633C299.818 248.789 299.608 248.866 299.368 248.866L292.366 248.863L291.934 247.333L298.702 247.336L298.36 247.66L298.36 247.21C298.337 246.79 298.199 246.424 297.947 246.112C297.695 245.787 297.383 245.541 297.011 245.373C296.639 245.193 296.249 245.103 295.841 245.103C295.481 245.102 295.133 245.162 294.797 245.282C294.473 245.39 294.179 245.57 293.915 245.822C293.663 246.073 293.459 246.409 293.303 246.829C293.158 247.237 293.086 247.747 293.086 248.359C293.085 249.019 293.223 249.595 293.499 250.087C293.775 250.579 294.147 250.964 294.614 251.24C295.082 251.504 295.598 251.636 296.162 251.637C296.606 251.637 296.972 251.595 297.26 251.511C297.548 251.415 297.788 251.301 297.98 251.17C298.172 251.038 298.341 250.912 298.485 250.792C298.665 250.684 298.845 250.63 299.025 250.63C299.241 250.63 299.421 250.708 299.565 250.864C299.708 251.008 299.78 251.183 299.78 251.387C299.78 251.651 299.648 251.89 299.384 252.106C299.06 252.418 298.61 252.694 298.034 252.934C297.469 253.173 296.875 253.293 296.251 253.293ZM311.63 253.121C311.342 253.12 311.108 253.036 310.928 252.868C310.76 252.688 310.676 252.466 310.676 252.202L310.682 241.42L312.608 241.421L312.602 252.203C312.602 252.467 312.506 252.689 312.314 252.869C312.134 253.037 311.906 253.121 311.63 253.121ZM307.549 242.246C307.297 242.246 307.081 242.168 306.901 242.012C306.721 241.844 306.632 241.628 306.632 241.364C306.632 241.112 306.722 240.908 306.902 240.752C307.082 240.596 307.298 240.518 307.55 240.518L315.74 240.523C315.992 240.523 316.202 240.607 316.37 240.775C316.55 240.931 316.64 241.135 316.64 241.387C316.64 241.651 316.549 241.861 316.369 242.017C316.201 242.173 315.991 242.251 315.739 242.251L307.549 242.246ZM320.72 253.305C319.724 253.305 318.86 253.1 318.128 252.692C317.397 252.271 316.827 251.701 316.419 250.981C316.024 250.249 315.826 249.415 315.827 248.479C315.827 247.423 316.038 246.523 316.458 245.779C316.89 245.023 317.449 244.447 318.133 244.052C318.817 243.644 319.543 243.441 320.311 243.441C320.899 243.441 321.457 243.562 321.985 243.802C322.513 244.03 322.981 244.354 323.388 244.775C323.808 245.183 324.138 245.669 324.378 246.233C324.617 246.785 324.743 247.391 324.755 248.051C324.743 248.291 324.647 248.489 324.466 248.645C324.286 248.801 324.076 248.879 323.836 248.879L316.834 248.875L316.403 247.345L323.171 247.348L322.829 247.672L322.829 247.222C322.805 246.802 322.668 246.436 322.416 246.124C322.164 245.8 321.852 245.554 321.48 245.386C321.108 245.205 320.718 245.115 320.31 245.115C319.95 245.115 319.602 245.175 319.266 245.294C318.942 245.402 318.648 245.582 318.384 245.834C318.132 246.086 317.928 246.422 317.771 246.842C317.627 247.25 317.555 247.76 317.555 248.372C317.554 249.032 317.692 249.608 317.968 250.1C318.243 250.592 318.615 250.976 319.083 251.252C319.551 251.517 320.067 251.649 320.631 251.649C321.075 251.649 321.441 251.608 321.729 251.524C322.017 251.428 322.257 251.314 322.449 251.182C322.641 251.05 322.809 250.924 322.953 250.804C323.133 250.696 323.313 250.642 323.493 250.643C323.709 250.643 323.889 250.721 324.033 250.877C324.177 251.021 324.249 251.195 324.249 251.399C324.249 251.663 324.117 251.903 323.853 252.119C323.529 252.431 323.078 252.706 322.502 252.946C321.938 253.186 321.344 253.305 320.72 253.305ZM331.544 243.501C332.432 243.501 333.115 243.723 333.595 244.168C334.075 244.6 334.393 245.188 334.548 245.932L334.26 245.842L334.387 245.554C334.543 245.242 334.777 244.93 335.089 244.618C335.413 244.295 335.797 244.031 336.241 243.827C336.686 243.611 337.16 243.504 337.664 243.504C338.492 243.504 339.134 243.685 339.589 244.045C340.045 244.393 340.363 244.867 340.543 245.467C340.722 246.055 340.812 246.715 340.812 247.447L340.809 252.217C340.809 252.481 340.725 252.703 340.557 252.883C340.389 253.051 340.173 253.135 339.909 253.135C339.657 253.135 339.441 253.051 339.261 252.883C339.093 252.702 339.009 252.48 339.009 252.216L339.012 247.464C339.012 247.044 338.952 246.66 338.832 246.312C338.724 245.964 338.527 245.688 338.239 245.484C337.963 245.268 337.579 245.16 337.087 245.159C336.619 245.159 336.199 245.267 335.827 245.483C335.467 245.687 335.184 245.962 334.98 246.31C334.776 246.658 334.674 247.042 334.674 247.462L334.671 252.214C334.671 252.478 334.587 252.7 334.419 252.88C334.251 253.048 334.035 253.132 333.771 253.132C333.507 253.132 333.291 253.048 333.123 252.879C332.955 252.699 332.871 252.477 332.871 252.213L332.874 247.443C332.874 247.023 332.814 246.639 332.694 246.291C332.586 245.943 332.395 245.667 332.119 245.463C331.843 245.259 331.459 245.157 330.967 245.156C330.499 245.156 330.085 245.258 329.725 245.462C329.365 245.666 329.082 245.941 328.878 246.289C328.686 246.637 328.59 247.021 328.59 247.441L328.587 252.211C328.587 252.475 328.497 252.697 328.317 252.877C328.149 253.045 327.939 253.129 327.687 253.129C327.423 253.129 327.207 253.044 327.039 252.876C326.871 252.696 326.787 252.474 326.787 252.21L326.791 244.578C326.791 244.314 326.875 244.098 327.043 243.93C327.211 243.75 327.428 243.661 327.692 243.661C327.944 243.661 328.153 243.751 328.321 243.931C328.501 244.099 328.591 244.315 328.591 244.579L328.591 245.641L328.248 245.839C328.333 245.575 328.471 245.305 328.663 245.029C328.855 244.753 329.095 244.501 329.383 244.274C329.683 244.046 330.013 243.86 330.374 243.716C330.734 243.572 331.124 243.5 331.544 243.501ZM351.091 243.529C351.355 243.529 351.571 243.619 351.738 243.799C351.906 243.967 351.99 244.183 351.99 244.447L351.986 252.223C351.986 252.487 351.902 252.709 351.734 252.889C351.566 253.057 351.35 253.141 351.086 253.141C350.834 253.14 350.618 253.056 350.438 252.888C350.27 252.708 350.186 252.486 350.186 252.222L350.187 250.926L350.565 250.98C350.565 251.196 350.475 251.436 350.294 251.7C350.126 251.964 349.892 252.222 349.592 252.474C349.292 252.714 348.938 252.917 348.53 253.085C348.122 253.241 347.684 253.319 347.216 253.319C346.388 253.318 345.644 253.108 344.984 252.687C344.324 252.255 343.802 251.667 343.419 250.923C343.035 250.178 342.844 249.332 342.844 248.384C342.845 247.412 343.037 246.56 343.421 245.829C343.806 245.085 344.322 244.503 344.97 244.083C345.631 243.664 346.363 243.454 347.167 243.455C347.683 243.455 348.157 243.539 348.589 243.707C349.032 243.876 349.416 244.092 349.74 244.356C350.064 244.62 350.31 244.902 350.478 245.202C350.658 245.49 350.747 245.766 350.747 246.03L350.189 246.084L350.19 244.446C350.19 244.194 350.274 243.978 350.442 243.798C350.623 243.618 350.839 243.528 351.091 243.529ZM347.414 251.663C347.978 251.663 348.477 251.519 348.909 251.231C349.341 250.944 349.677 250.554 349.917 250.062C350.158 249.558 350.278 249 350.278 248.388C350.278 247.764 350.159 247.206 349.919 246.714C349.679 246.222 349.343 245.832 348.912 245.543C348.48 245.255 347.982 245.111 347.418 245.111C346.866 245.11 346.374 245.254 345.942 245.542C345.521 245.83 345.185 246.22 344.933 246.711C344.693 247.203 344.572 247.761 344.572 248.385C344.572 248.997 344.692 249.555 344.931 250.059C345.183 250.552 345.519 250.942 345.939 251.23C346.371 251.518 346.862 251.662 347.414 251.663ZM360.13 250.841C360.226 250.841 360.328 250.859 360.436 250.895C360.544 250.919 360.664 250.979 360.796 251.076C361.012 251.268 361.27 251.43 361.57 251.562C361.882 251.682 362.236 251.742 362.632 251.742C363.076 251.743 363.49 251.641 363.874 251.437C364.258 251.221 364.57 250.921 364.811 250.538C365.051 250.154 365.171 249.698 365.171 249.17C365.171 248.63 365.058 248.192 364.83 247.856C364.602 247.507 364.308 247.249 363.948 247.081C363.588 246.901 363.21 246.811 362.814 246.811C362.586 246.81 362.394 246.834 362.238 246.882C362.082 246.918 361.932 246.96 361.788 247.008C361.644 247.044 361.488 247.062 361.32 247.062C361.092 247.062 360.912 246.984 360.78 246.828C360.648 246.659 360.583 246.461 360.583 246.233C360.583 246.089 360.613 245.963 360.673 245.855C360.733 245.747 360.817 245.628 360.925 245.496L364.257 241.933L364.653 242.293L359.883 242.291C359.643 242.291 359.439 242.213 359.271 242.057C359.115 241.889 359.037 241.685 359.037 241.445C359.037 241.217 359.115 241.025 359.271 240.869C359.44 240.713 359.644 240.635 359.884 240.635L365.572 240.638C365.884 240.638 366.111 240.728 366.255 240.908C366.411 241.088 366.489 241.298 366.489 241.538C366.489 241.67 366.453 241.796 366.381 241.916C366.321 242.036 366.243 242.15 366.147 242.258L362.797 245.857L362.347 245.37C362.443 245.322 362.605 245.274 362.833 245.227C363.061 245.179 363.247 245.155 363.391 245.155C364.075 245.155 364.687 245.329 365.227 245.678C365.779 246.026 366.205 246.494 366.504 247.082C366.816 247.659 366.972 248.313 366.971 249.045C366.971 249.921 366.772 250.683 366.376 251.33C365.98 251.966 365.428 252.458 364.719 252.806C364.023 253.153 363.219 253.327 362.307 253.326C361.851 253.326 361.395 253.266 360.939 253.146C360.495 253.013 360.111 252.827 359.787 252.587C359.584 252.467 359.446 252.341 359.374 252.209C359.302 252.065 359.266 251.927 359.266 251.795C359.266 251.567 359.344 251.351 359.5 251.147C359.668 250.943 359.878 250.841 360.13 250.841ZM369.964 245.95C369.664 245.95 369.431 245.872 369.263 245.716C369.107 245.548 369.029 245.314 369.029 245.014L369.029 244.672C369.029 244.372 369.107 244.138 369.264 243.97C369.432 243.802 369.666 243.718 369.966 243.718L370.164 243.718C370.464 243.718 370.692 243.803 370.848 243.971C371.003 244.139 371.081 244.373 371.081 244.673L371.081 245.015C371.081 245.315 371.003 245.549 370.847 245.717C370.691 245.873 370.462 245.95 370.162 245.95L369.964 245.95ZM369.961 253.15C369.661 253.15 369.427 253.066 369.259 252.898C369.103 252.73 369.025 252.496 369.025 252.196L369.025 251.872C369.026 251.56 369.104 251.326 369.26 251.17C369.428 251.002 369.662 250.918 369.962 250.918L370.16 250.918C370.46 250.918 370.688 251.003 370.844 251.171C371 251.327 371.078 251.561 371.077 251.873L371.077 252.197C371.077 252.497 370.999 252.731 370.843 252.899C370.687 253.067 370.459 253.15 370.159 253.15L369.961 253.15ZM379.696 240.555C379.936 240.555 380.145 240.645 380.325 240.825C380.517 240.994 380.613 241.21 380.613 241.474L380.608 252.238C380.595 252.502 380.493 252.724 380.301 252.903C380.121 253.071 379.905 253.155 379.653 253.155C379.377 253.155 379.149 253.071 378.969 252.903C378.801 252.723 378.717 252.501 378.718 252.237L378.723 241.473C378.723 241.209 378.813 240.993 378.993 240.825C379.173 240.645 379.408 240.555 379.696 240.555ZM387.814 240.559C388.102 240.559 388.329 240.65 388.497 240.83C388.665 240.998 388.749 241.214 388.749 241.478L388.744 252.242C388.743 252.506 388.653 252.728 388.473 252.908C388.305 253.075 388.077 253.159 387.789 253.159C387.537 253.159 387.321 253.075 387.141 252.907C386.961 252.727 386.871 252.505 386.872 252.241L386.877 241.477C386.877 241.213 386.967 240.997 387.147 240.829C387.339 240.649 387.562 240.559 387.814 240.559ZM379.621 245.919L387.829 245.923L387.81 247.651L379.602 247.647L379.621 245.919ZM391.335 243.801L395.565 243.803C395.805 243.803 396.003 243.887 396.159 244.055C396.327 244.212 396.411 244.41 396.411 244.65C396.411 244.878 396.327 245.07 396.159 245.225C396.003 245.381 395.805 245.459 395.565 245.459L391.335 245.457C391.095 245.457 390.891 245.379 390.723 245.223C390.567 245.055 390.489 244.857 390.489 244.629C390.489 244.389 390.567 244.191 390.723 244.035C390.891 243.879 391.095 243.801 391.335 243.801ZM393.227 241.462C393.491 241.462 393.707 241.552 393.874 241.732C394.042 241.9 394.126 242.116 394.126 242.38L394.122 250.732C394.122 250.948 394.158 251.122 394.23 251.255C394.302 251.387 394.397 251.477 394.517 251.525C394.649 251.573 394.781 251.597 394.913 251.597C395.045 251.597 395.159 251.573 395.255 251.525C395.363 251.477 395.49 251.453 395.634 251.453C395.778 251.453 395.909 251.519 396.029 251.651C396.149 251.783 396.209 251.964 396.209 252.192C396.209 252.48 396.053 252.713 395.741 252.893C395.429 253.073 395.093 253.163 394.733 253.163C394.529 253.163 394.289 253.145 394.013 253.108C393.737 253.072 393.467 252.982 393.203 252.838C392.951 252.694 392.741 252.466 392.573 252.154C392.405 251.83 392.322 251.38 392.322 250.804L392.326 242.38C392.326 242.116 392.41 241.9 392.578 241.732C392.759 241.552 392.975 241.462 393.227 241.462ZM398.279 243.805L402.509 243.807C402.749 243.807 402.947 243.891 403.103 244.059C403.271 244.215 403.354 244.413 403.354 244.653C403.354 244.881 403.27 245.073 403.102 245.229C402.946 245.385 402.748 245.463 402.508 245.463L398.278 245.461C398.038 245.46 397.834 245.382 397.666 245.226C397.51 245.058 397.432 244.86 397.432 244.632C397.432 244.392 397.511 244.194 397.667 244.038C397.835 243.882 398.039 243.804 398.279 243.805ZM400.17 241.466C400.434 241.466 400.65 241.556 400.818 241.736C400.986 241.904 401.07 242.12 401.069 242.384L401.065 250.736C401.065 250.952 401.101 251.126 401.173 251.258C401.245 251.39 401.341 251.48 401.461 251.528C401.593 251.576 401.725 251.6 401.857 251.6C401.989 251.6 402.103 251.577 402.199 251.529C402.307 251.481 402.433 251.457 402.577 251.457C402.721 251.457 402.853 251.523 402.973 251.655C403.093 251.787 403.153 251.967 403.152 252.195C403.152 252.483 402.996 252.717 402.684 252.897C402.372 253.077 402.036 253.166 401.676 253.166C401.472 253.166 401.232 253.148 400.956 253.112C400.68 253.076 400.41 252.986 400.146 252.842C399.894 252.697 399.684 252.469 399.517 252.157C399.349 251.833 399.265 251.383 399.265 250.807L399.269 242.383C399.27 242.119 399.354 241.903 399.522 241.735C399.702 241.555 399.918 241.465 400.17 241.466ZM410.118 243.541C410.958 243.541 411.702 243.751 412.35 244.172C413.01 244.592 413.531 245.168 413.915 245.901C414.299 246.621 414.49 247.461 414.49 248.421C414.489 249.381 414.297 250.233 413.912 250.977C413.528 251.708 413.012 252.284 412.364 252.704C411.715 253.123 410.983 253.333 410.167 253.333C409.711 253.332 409.279 253.26 408.871 253.116C408.463 252.972 408.104 252.786 407.792 252.557C407.48 252.317 407.222 252.065 407.018 251.801C406.826 251.537 406.706 251.291 406.658 251.063L407.145 250.829L407.142 255.851C407.142 256.115 407.052 256.331 406.872 256.499C406.704 256.679 406.494 256.769 406.242 256.769C405.978 256.768 405.762 256.678 405.594 256.498C405.426 256.33 405.342 256.114 405.342 255.85L405.348 244.582C405.348 244.33 405.432 244.114 405.6 243.934C405.768 243.754 405.984 243.664 406.248 243.665C406.5 243.665 406.71 243.755 406.878 243.935C407.058 244.115 407.148 244.331 407.148 244.583L407.147 245.825L406.859 245.663C406.895 245.435 407.009 245.201 407.202 244.961C407.394 244.709 407.634 244.475 407.922 244.259C408.222 244.044 408.558 243.87 408.93 243.738C409.314 243.606 409.71 243.54 410.118 243.541ZM409.919 245.196C409.343 245.196 408.839 245.34 408.407 245.628C407.987 245.903 407.657 246.281 407.417 246.761C407.176 247.241 407.056 247.793 407.056 248.417C407.055 249.029 407.175 249.587 407.415 250.091C407.655 250.583 407.984 250.973 408.404 251.262C408.836 251.538 409.34 251.676 409.916 251.676C410.48 251.677 410.972 251.539 411.392 251.263C411.812 250.975 412.143 250.586 412.383 250.094C412.635 249.59 412.761 249.032 412.762 248.42C412.762 247.808 412.636 247.262 412.385 246.782C412.145 246.29 411.815 245.905 411.395 245.629C410.975 245.341 410.483 245.197 409.919 245.196ZM415.966 251.698C415.858 251.529 415.81 251.337 415.822 251.121C415.834 250.893 415.96 250.702 416.2 250.546C416.368 250.438 416.542 250.396 416.722 250.42C416.914 250.432 417.094 250.522 417.262 250.69C417.598 251.062 417.97 251.357 418.378 251.573C418.798 251.789 419.302 251.897 419.89 251.898C420.13 251.886 420.376 251.85 420.628 251.79C420.88 251.718 421.096 251.598 421.276 251.43C421.456 251.25 421.546 250.992 421.546 250.656C421.546 250.356 421.451 250.116 421.259 249.936C421.067 249.756 420.815 249.612 420.503 249.504C420.191 249.384 419.855 249.276 419.495 249.179C419.111 249.071 418.721 248.951 418.325 248.819C417.941 248.687 417.593 248.518 417.282 248.314C416.97 248.098 416.712 247.822 416.508 247.486C416.316 247.15 416.22 246.736 416.221 246.244C416.221 245.68 416.377 245.194 416.689 244.786C417.014 244.378 417.428 244.06 417.932 243.833C418.448 243.605 419.006 243.491 419.606 243.491C419.954 243.492 420.32 243.54 420.704 243.636C421.088 243.72 421.46 243.858 421.82 244.051C422.18 244.243 422.491 244.495 422.755 244.807C422.875 244.963 422.941 245.149 422.953 245.365C422.977 245.581 422.881 245.773 422.665 245.941C422.521 246.061 422.347 246.115 422.143 246.103C421.939 246.091 421.771 246.025 421.639 245.904C421.411 245.616 421.117 245.394 420.757 245.238C420.397 245.07 419.989 244.986 419.533 244.985C419.305 244.985 419.065 245.021 418.813 245.093C418.573 245.153 418.369 245.267 418.201 245.435C418.033 245.603 417.949 245.849 417.949 246.173C417.948 246.473 418.044 246.713 418.236 246.893C418.44 247.073 418.704 247.223 419.028 247.343C419.352 247.463 419.706 247.571 420.09 247.668C420.462 247.764 420.828 247.878 421.188 248.01C421.56 248.142 421.89 248.317 422.177 248.533C422.477 248.737 422.717 249.007 422.897 249.343C423.089 249.667 423.185 250.081 423.184 250.585C423.184 251.173 423.01 251.677 422.662 252.097C422.325 252.505 421.893 252.817 421.365 253.032C420.849 253.248 420.303 253.356 419.727 253.355C419.043 253.355 418.359 253.235 417.675 252.994C417.003 252.742 416.433 252.31 415.966 251.698ZM425.968 245.979C425.668 245.978 425.434 245.9 425.267 245.744C425.111 245.576 425.033 245.342 425.033 245.042L425.033 244.7C425.033 244.4 425.111 244.166 425.267 243.998C425.435 243.83 425.67 243.746 425.97 243.747L426.168 243.747C426.468 243.747 426.695 243.831 426.851 243.999C427.007 244.167 427.085 244.401 427.085 244.701L427.085 245.043C427.085 245.343 427.007 245.577 426.851 245.745C426.694 245.901 426.466 245.979 426.166 245.979L425.968 245.979ZM425.965 253.179C425.665 253.178 425.431 253.094 425.263 252.926C425.107 252.758 425.029 252.524 425.029 252.224L425.029 251.9C425.03 251.588 425.108 251.354 425.264 251.198C425.432 251.03 425.666 250.946 425.966 250.947L426.164 250.947C426.464 250.947 426.692 251.031 426.848 251.199C427.004 251.355 427.082 251.589 427.081 251.901L427.081 252.225C427.081 252.525 427.003 252.759 426.847 252.927C426.691 253.095 426.463 253.179 426.163 253.179L425.965 253.179ZM429.476 255.556C429.296 255.556 429.116 255.484 428.936 255.34C428.756 255.196 428.666 255.016 428.666 254.8C428.667 254.668 428.703 254.542 428.775 254.422L436.252 239.288C436.336 239.12 436.438 238.994 436.559 238.91C436.691 238.826 436.835 238.784 436.991 238.784C437.159 238.784 437.327 238.85 437.494 238.982C437.674 239.115 437.764 239.301 437.764 239.541C437.764 239.673 437.734 239.805 437.674 239.937L430.196 255.071C430.112 255.227 430.01 255.347 429.89 255.431C429.77 255.515 429.632 255.556 429.476 255.556ZM437.773 255.561C437.593 255.561 437.413 255.488 437.233 255.344C437.053 255.2 436.963 255.02 436.963 254.804C436.963 254.672 436.999 254.546 437.072 254.426L444.549 239.292C444.633 239.124 444.735 238.998 444.855 238.914C444.987 238.83 445.131 238.788 445.287 238.788C445.455 238.789 445.623 238.855 445.791 238.987C445.971 239.119 446.061 239.305 446.061 239.545C446.061 239.677 446.031 239.809 445.971 239.941L438.493 255.075C438.409 255.231 438.307 255.351 438.187 255.435C438.067 255.519 437.929 255.561 437.773 255.561ZM448.9 240.572C449.044 240.572 449.194 240.608 449.35 240.681C449.506 240.753 449.626 240.855 449.71 240.987L454.278 247.955L453.504 247.919L458.17 240.991C458.362 240.715 458.608 240.577 458.908 240.577C459.148 240.577 459.358 240.668 459.538 240.848C459.73 241.016 459.825 241.232 459.825 241.496L459.82 252.278C459.82 252.542 459.736 252.764 459.567 252.944C459.399 253.112 459.177 253.196 458.901 253.195C458.613 253.195 458.379 253.111 458.199 252.943C458.032 252.763 457.948 252.541 457.948 252.277L457.952 243.151L458.528 243.277L454.565 249.305C454.481 249.413 454.373 249.509 454.241 249.593C454.109 249.665 453.971 249.695 453.827 249.683C453.695 249.695 453.557 249.665 453.413 249.593C453.281 249.509 453.173 249.412 453.089 249.304L449.276 243.362L449.709 242.643L449.704 252.273C449.704 252.537 449.62 252.759 449.451 252.939C449.295 253.106 449.085 253.19 448.821 253.19C448.569 253.19 448.359 253.106 448.191 252.938C448.036 252.758 447.958 252.536 447.958 252.272L447.963 241.49C447.963 241.238 448.054 241.022 448.234 240.842C448.426 240.662 448.648 240.572 448.9 240.572ZM464.253 252.28C464.252 252.544 464.168 252.766 464 252.946C463.832 253.114 463.616 253.198 463.352 253.198C463.1 253.198 462.884 253.113 462.704 252.945C462.536 252.765 462.452 252.543 462.453 252.279L462.457 244.575C462.457 244.311 462.541 244.095 462.709 243.927C462.889 243.747 463.105 243.658 463.357 243.658C463.621 243.658 463.837 243.748 464.005 243.928C464.173 244.096 464.257 244.312 464.257 244.576L464.253 252.28ZM463.34 242.47C462.992 242.469 462.74 242.409 462.584 242.289C462.428 242.157 462.35 241.941 462.35 241.641L462.35 241.353C462.35 241.053 462.434 240.843 462.602 240.723C462.771 240.603 463.023 240.543 463.359 240.544C463.719 240.544 463.977 240.61 464.132 240.742C464.288 240.862 464.366 241.066 464.366 241.354L464.366 241.642C464.366 241.954 464.282 242.17 464.114 242.29C463.958 242.41 463.7 242.47 463.34 242.47ZM468.618 252.282C468.618 252.546 468.528 252.768 468.348 252.948C468.179 253.116 467.969 253.2 467.717 253.2C467.465 253.2 467.249 253.116 467.07 252.948C466.902 252.767 466.818 252.545 466.818 252.281L466.824 240.797C466.824 240.533 466.914 240.317 467.094 240.15C467.274 239.97 467.49 239.88 467.742 239.88C468.006 239.88 468.216 239.97 468.372 240.15C468.54 240.318 468.624 240.534 468.624 240.798L468.618 252.282ZM475.531 253.384C474.535 253.383 473.671 253.179 472.939 252.771C472.207 252.35 471.637 251.78 471.23 251.06C470.834 250.327 470.637 249.493 470.637 248.557C470.638 247.501 470.848 246.601 471.268 245.858C471.701 245.102 472.259 244.526 472.943 244.131C473.628 243.723 474.354 243.519 475.122 243.52C475.71 243.52 476.268 243.64 476.795 243.88C477.323 244.109 477.791 244.433 478.199 244.853C478.619 245.261 478.948 245.748 479.188 246.312C479.428 246.864 479.554 247.47 479.565 248.13C479.553 248.37 479.457 248.568 479.277 248.724C479.097 248.88 478.887 248.958 478.647 248.957L471.645 248.954L471.214 247.424L477.982 247.427L477.639 247.751L477.64 247.301C477.616 246.881 477.478 246.515 477.226 246.203C476.974 245.879 476.663 245.632 476.291 245.464C475.919 245.284 475.529 245.194 475.121 245.194C474.761 245.193 474.413 245.253 474.077 245.373C473.753 245.481 473.459 245.661 473.194 245.913C472.942 246.165 472.738 246.5 472.582 246.92C472.438 247.328 472.365 247.838 472.365 248.45C472.365 249.11 472.502 249.686 472.778 250.178C473.054 250.671 473.426 251.055 473.894 251.331C474.362 251.595 474.877 251.727 475.441 251.728C475.885 251.728 476.251 251.686 476.539 251.602C476.828 251.506 477.068 251.393 477.26 251.261C477.452 251.129 477.62 251.003 477.764 250.883C477.944 250.775 478.124 250.721 478.304 250.721C478.52 250.721 478.7 250.799 478.844 250.956C478.988 251.1 479.06 251.274 479.06 251.478C479.059 251.742 478.927 251.982 478.663 252.197C478.339 252.509 477.889 252.785 477.313 253.025C476.749 253.264 476.155 253.384 475.531 253.384ZM486.48 243.525C487.332 243.526 487.992 243.706 488.46 244.066C488.928 244.415 489.251 244.889 489.431 245.489C489.623 246.077 489.719 246.737 489.718 247.469L489.716 252.293C489.716 252.557 489.625 252.779 489.445 252.959C489.277 253.127 489.067 253.211 488.815 253.211C488.551 253.21 488.335 253.126 488.167 252.958C487.999 252.778 487.916 252.556 487.916 252.292L487.918 247.486C487.918 247.054 487.859 246.67 487.739 246.334C487.619 245.986 487.409 245.71 487.109 245.506C486.821 245.29 486.413 245.181 485.885 245.181C485.393 245.181 484.961 245.289 484.589 245.504C484.217 245.708 483.923 245.984 483.707 246.332C483.503 246.668 483.4 247.052 483.4 247.484L483.398 252.29C483.398 252.554 483.307 252.776 483.127 252.956C482.959 253.124 482.749 253.207 482.497 253.207C482.233 253.207 482.017 253.123 481.849 252.955C481.681 252.775 481.598 252.553 481.598 252.289L481.602 244.657C481.602 244.393 481.686 244.177 481.854 244.009C482.022 243.829 482.238 243.739 482.502 243.739C482.754 243.739 482.964 243.83 483.132 244.01C483.312 244.178 483.402 244.394 483.402 244.658L483.401 245.666L483.077 245.846C483.161 245.582 483.305 245.318 483.509 245.054C483.726 244.778 483.984 244.526 484.284 244.298C484.584 244.058 484.92 243.873 485.292 243.741C485.664 243.597 486.06 243.525 486.48 243.525ZM496.624 253.395C495.628 253.394 494.764 253.19 494.033 252.781C493.301 252.361 492.731 251.791 492.324 251.07C491.928 250.338 491.73 249.504 491.731 248.568C491.731 247.512 491.942 246.612 492.362 245.868C492.795 245.113 493.353 244.537 494.037 244.141C494.721 243.734 495.447 243.53 496.215 243.53C496.803 243.531 497.361 243.651 497.889 243.891C498.417 244.119 498.885 244.444 499.293 244.864C499.712 245.272 500.042 245.758 500.282 246.322C500.522 246.875 500.647 247.481 500.659 248.141C500.647 248.381 500.551 248.579 500.371 248.734C500.191 248.89 499.981 248.968 499.741 248.968L492.739 248.965L492.307 247.434L499.075 247.438L498.733 247.762L498.733 247.312C498.71 246.892 498.572 246.526 498.32 246.213C498.068 245.889 497.756 245.643 497.384 245.475C497.012 245.295 496.623 245.205 496.215 245.204C495.855 245.204 495.506 245.264 495.17 245.384C494.846 245.492 494.552 245.671 494.288 245.923C494.036 246.175 493.832 246.511 493.676 246.931C493.531 247.339 493.459 247.849 493.459 248.461C493.459 249.121 493.596 249.697 493.872 250.189C494.148 250.681 494.52 251.065 494.987 251.342C495.455 251.606 495.971 251.738 496.535 251.739C496.979 251.739 497.345 251.697 497.633 251.613C497.921 251.517 498.161 251.403 498.353 251.271C498.545 251.14 498.714 251.014 498.858 250.894C499.038 250.786 499.218 250.732 499.398 250.732C499.614 250.732 499.794 250.81 499.938 250.966C500.082 251.11 500.153 251.284 500.153 251.488C500.153 251.752 500.021 251.992 499.757 252.208C499.433 252.52 498.983 252.796 498.407 253.035C497.842 253.275 497.248 253.395 496.624 253.395ZM507.448 243.59C508.336 243.59 509.02 243.813 509.5 244.257C509.979 244.689 510.297 245.277 510.453 246.022L510.165 245.931L510.291 245.643C510.447 245.332 510.681 245.02 510.993 244.708C511.317 244.384 511.702 244.12 512.146 243.916C512.59 243.701 513.064 243.593 513.568 243.593C514.396 243.594 515.038 243.774 515.494 244.134C515.949 244.482 516.267 244.957 516.447 245.557C516.627 246.145 516.716 246.805 516.716 247.537L516.713 252.307C516.713 252.571 516.629 252.793 516.461 252.973C516.293 253.141 516.077 253.224 515.813 253.224C515.561 253.224 515.345 253.14 515.165 252.972C514.997 252.792 514.913 252.57 514.913 252.306L514.916 247.554C514.916 247.134 514.856 246.75 514.736 246.402C514.629 246.054 514.431 245.778 514.143 245.573C513.867 245.357 513.483 245.249 512.991 245.249C512.523 245.249 512.103 245.356 511.731 245.572C511.371 245.776 511.089 246.052 510.884 246.4C510.68 246.748 510.578 247.132 510.578 247.552L510.575 252.304C510.575 252.568 510.491 252.79 510.323 252.97C510.155 253.137 509.939 253.221 509.675 253.221C509.411 253.221 509.195 253.137 509.027 252.969C508.859 252.789 508.775 252.567 508.775 252.303L508.778 247.533C508.778 247.113 508.718 246.729 508.598 246.381C508.491 246.033 508.299 245.756 508.023 245.552C507.747 245.348 507.363 245.246 506.871 245.246C506.403 245.246 505.989 245.347 505.629 245.551C505.269 245.755 504.987 246.031 504.782 246.379C504.59 246.727 504.494 247.111 504.494 247.531L504.491 252.301C504.491 252.565 504.401 252.786 504.221 252.966C504.053 253.134 503.843 253.218 503.591 253.218C503.327 253.218 503.111 253.134 502.943 252.966C502.775 252.786 502.691 252.564 502.691 252.3L502.695 244.668C502.695 244.404 502.78 244.188 502.948 244.02C503.116 243.84 503.332 243.75 503.596 243.75C503.848 243.75 504.058 243.84 504.226 244.02C504.406 244.188 504.495 244.405 504.495 244.669L504.495 245.731L504.153 245.928C504.237 245.664 504.375 245.394 504.567 245.119C504.759 244.843 504.999 244.591 505.287 244.363C505.588 244.135 505.918 243.949 506.278 243.805C506.638 243.662 507.028 243.59 507.448 243.59ZM520.924 252.309C520.924 252.573 520.84 252.795 520.672 252.975C520.504 253.143 520.288 253.227 520.024 253.226C519.772 253.226 519.556 253.142 519.376 252.974C519.208 252.794 519.124 252.572 519.124 252.308L519.128 244.604C519.129 244.34 519.213 244.124 519.381 243.956C519.561 243.776 519.777 243.686 520.029 243.686C520.293 243.687 520.509 243.777 520.677 243.957C520.845 244.125 520.929 244.341 520.928 244.605L520.924 252.309ZM520.011 242.498C519.663 242.498 519.411 242.438 519.256 242.318C519.1 242.186 519.022 241.97 519.022 241.67L519.022 241.382C519.022 241.082 519.106 240.872 519.274 240.752C519.442 240.632 519.694 240.572 520.03 240.572C520.39 240.573 520.648 240.639 520.804 240.771C520.96 240.891 521.038 241.095 521.038 241.383L521.038 241.671C521.038 241.983 520.954 242.199 520.786 242.319C520.629 242.439 520.371 242.499 520.011 242.498ZM528.228 243.547C529.08 243.547 529.74 243.727 530.208 244.088C530.676 244.436 531 244.91 531.179 245.51C531.371 246.098 531.467 246.758 531.466 247.49L531.464 252.314C531.464 252.578 531.374 252.8 531.193 252.98C531.025 253.148 530.815 253.232 530.563 253.232C530.299 253.232 530.083 253.148 529.915 252.979C529.748 252.799 529.664 252.577 529.664 252.313L529.666 247.507C529.666 247.075 529.607 246.691 529.487 246.355C529.367 246.007 529.157 245.731 528.857 245.527C528.569 245.311 528.161 245.203 527.633 245.202C527.141 245.202 526.709 245.31 526.337 245.526C525.965 245.729 525.671 246.005 525.455 246.353C525.251 246.689 525.148 247.073 525.148 247.505L525.146 252.311C525.146 252.575 525.056 252.797 524.875 252.977C524.707 253.145 524.497 253.229 524.245 253.229C523.981 253.228 523.765 253.144 523.597 252.976C523.43 252.796 523.346 252.574 523.346 252.31L523.35 244.678C523.35 244.414 523.434 244.198 523.602 244.03C523.77 243.85 523.986 243.76 524.25 243.761C524.502 243.761 524.712 243.851 524.88 244.031C525.06 244.199 525.15 244.415 525.15 244.679L525.149 245.687L524.825 245.867C524.909 245.603 525.053 245.339 525.257 245.075C525.474 244.799 525.732 244.547 526.032 244.319C526.332 244.08 526.668 243.894 527.04 243.762C527.412 243.618 527.808 243.546 528.228 243.547ZM534.646 253.216C534.346 253.216 534.113 253.132 533.945 252.964C533.789 252.795 533.711 252.561 533.711 252.261L533.711 251.937C533.711 251.637 533.789 251.403 533.945 251.236C534.114 251.068 534.348 250.984 534.648 250.984L534.846 250.984C535.146 250.984 535.374 251.068 535.529 251.236C535.685 251.404 535.763 251.638 535.763 251.938L535.763 252.262C535.763 252.562 535.685 252.796 535.529 252.964C535.373 253.132 535.144 253.216 534.844 253.216L534.646 253.216ZM543.537 240.638C544.413 240.639 545.187 240.807 545.859 241.144C546.531 241.468 547.089 241.924 547.532 242.512C547.988 243.089 548.33 243.761 548.557 244.529C548.785 245.285 548.899 246.089 548.898 246.941C548.898 248.105 548.693 249.167 548.285 250.127C547.876 251.075 547.276 251.83 546.483 252.394C545.691 252.957 544.707 253.239 543.531 253.238L539.139 253.236C538.887 253.236 538.671 253.152 538.491 252.984C538.311 252.804 538.221 252.582 538.221 252.318L538.227 241.554C538.227 241.29 538.317 241.074 538.497 240.906C538.677 240.726 538.893 240.636 539.145 240.636L543.537 240.638ZM543.352 251.51C544.204 251.511 544.894 251.301 545.422 250.881C545.95 250.462 546.335 249.91 546.575 249.226C546.827 248.53 546.954 247.768 546.954 246.94C546.955 246.328 546.883 245.752 546.739 245.212C546.607 244.66 546.392 244.174 546.092 243.754C545.804 243.322 545.432 242.985 544.976 242.745C544.532 242.493 543.993 242.367 543.357 242.366L539.955 242.365L540.117 242.203L540.112 251.689L540.004 251.509L543.352 251.51ZM551.952 253.243C551.7 253.243 551.484 253.158 551.304 252.99C551.136 252.81 551.052 252.588 551.052 252.324L551.058 240.84C551.058 240.576 551.142 240.36 551.31 240.192C551.491 240.012 551.707 239.923 551.959 239.923C552.223 239.923 552.439 240.013 552.606 240.193C552.774 240.361 552.858 240.577 552.858 240.841L552.852 252.325C552.852 252.589 552.768 252.811 552.6 252.991C552.432 253.159 552.216 253.243 551.952 253.243ZM557.825 243.742C558.053 243.742 558.251 243.838 558.418 244.03C558.586 244.222 558.67 244.414 558.67 244.606C558.67 244.846 558.556 245.068 558.328 245.272L552.691 250.309L552.62 248.239L557.158 244.029C557.351 243.837 557.573 243.742 557.825 243.742ZM558.036 253.228C557.784 253.228 557.568 253.126 557.388 252.921L553.79 249.122L555.159 247.862L558.667 251.662C558.858 251.866 558.954 252.094 558.954 252.346C558.954 252.61 558.846 252.826 558.63 252.994C558.426 253.15 558.228 253.228 558.036 253.228ZM560.908 255.623C560.728 255.623 560.548 255.551 560.368 255.407C560.188 255.263 560.098 255.083 560.098 254.867C560.098 254.735 560.134 254.609 560.206 254.489L567.684 239.355C567.768 239.187 567.87 239.061 567.99 238.977C568.122 238.893 568.266 238.851 568.422 238.851C568.59 238.851 568.758 238.917 568.926 239.049C569.106 239.181 569.196 239.367 569.196 239.607C569.196 239.739 569.166 239.871 569.106 240.003L561.628 255.138C561.544 255.294 561.442 255.413 561.322 255.497C561.202 255.581 561.064 255.623 560.908 255.623ZM576.175 240.655C576.811 240.655 577.398 240.83 577.938 241.178C578.478 241.514 578.91 241.976 579.234 242.565C579.557 243.153 579.719 243.813 579.719 244.545C579.718 245.277 579.556 245.943 579.232 246.543C578.907 247.13 578.475 247.604 577.935 247.964C577.395 248.312 576.807 248.485 576.171 248.485L572.697 248.483L572.841 248.195L572.839 252.335C572.838 252.599 572.754 252.821 572.586 253.001C572.43 253.169 572.22 253.253 571.956 253.253C571.704 253.253 571.494 253.169 571.326 253.001C571.17 252.82 571.092 252.598 571.093 252.334L571.098 241.57C571.098 241.306 571.188 241.09 571.368 240.923C571.548 240.743 571.765 240.653 572.017 240.653L576.175 240.655ZM576.171 246.757C576.483 246.757 576.765 246.655 577.018 246.451C577.282 246.248 577.492 245.978 577.648 245.642C577.816 245.306 577.9 244.94 577.901 244.544C577.901 244.148 577.817 243.788 577.649 243.464C577.493 243.14 577.283 242.882 577.019 242.689C576.768 242.485 576.486 242.383 576.174 242.383L572.664 242.381L572.844 242.111L572.841 246.989L572.679 246.755L576.171 246.757ZM590.603 248.528C590.603 249.488 590.392 250.34 589.972 251.084C589.552 251.816 588.981 252.391 588.261 252.811C587.541 253.231 586.731 253.44 585.831 253.44C584.931 253.439 584.121 253.229 583.401 252.809C582.681 252.388 582.106 251.812 581.674 251.08C581.254 250.336 581.045 249.483 581.045 248.523C581.046 247.551 581.256 246.7 581.677 245.968C582.109 245.224 582.685 244.642 583.405 244.223C584.126 243.791 584.936 243.575 585.836 243.576C586.736 243.576 587.546 243.793 588.265 244.225C588.985 244.645 589.555 245.228 589.975 245.972C590.394 246.704 590.604 247.556 590.603 248.528ZM588.803 248.527C588.804 247.867 588.672 247.297 588.408 246.817C588.144 246.325 587.785 245.941 587.329 245.665C586.885 245.376 586.387 245.232 585.835 245.232C585.283 245.232 584.779 245.375 584.323 245.663C583.867 245.939 583.506 246.323 583.242 246.815C582.978 247.294 582.846 247.864 582.845 248.524C582.845 249.16 582.977 249.724 583.24 250.217C583.504 250.709 583.864 251.093 584.32 251.369C584.776 251.645 585.28 251.784 585.832 251.784C586.384 251.784 586.882 251.646 587.326 251.371C587.782 251.095 588.142 250.711 588.406 250.219C588.671 249.727 588.803 249.163 588.803 248.527ZM597.048 253.446C596.052 253.445 595.188 253.241 594.456 252.832C593.725 252.412 593.155 251.842 592.747 251.121C592.352 250.389 592.154 249.555 592.155 248.619C592.155 247.563 592.366 246.663 592.786 245.919C593.218 245.164 593.777 244.588 594.461 244.192C595.145 243.785 595.871 243.581 596.639 243.581C597.227 243.582 597.785 243.702 598.313 243.942C598.841 244.17 599.309 244.495 599.716 244.915C600.136 245.323 600.466 245.809 600.706 246.373C600.945 246.926 601.071 247.532 601.083 248.192C601.071 248.432 600.975 248.63 600.795 248.785C600.614 248.941 600.404 249.019 600.164 249.019L593.162 249.016L592.731 247.485L599.499 247.489L599.157 247.813L599.157 247.363C599.133 246.943 598.996 246.577 598.744 246.264C598.492 245.94 598.18 245.694 597.808 245.526C597.436 245.346 597.046 245.256 596.638 245.255C596.278 245.255 595.93 245.315 595.594 245.435C595.27 245.543 594.976 245.723 594.712 245.974C594.46 246.226 594.256 246.562 594.099 246.982C593.955 247.39 593.883 247.9 593.883 248.512C593.882 249.172 594.02 249.748 594.296 250.24C594.572 250.732 594.943 251.117 595.411 251.393C595.879 251.657 596.395 251.789 596.959 251.79C597.403 251.79 597.769 251.748 598.057 251.664C598.345 251.568 598.585 251.454 598.777 251.322C598.969 251.191 599.137 251.065 599.281 250.945C599.461 250.837 599.642 250.783 599.822 250.783C600.038 250.783 600.217 250.861 600.361 251.017C600.505 251.161 600.577 251.335 600.577 251.539C600.577 251.803 600.445 252.043 600.181 252.259C599.857 252.571 599.406 252.847 598.83 253.086C598.266 253.326 597.672 253.446 597.048 253.446ZM602.994 243.909L607.224 243.911C607.464 243.911 607.662 243.995 607.817 244.163C607.985 244.319 608.069 244.517 608.069 244.757C608.069 244.985 607.985 245.177 607.817 245.333C607.661 245.489 607.463 245.567 607.223 245.567L602.993 245.565C602.753 245.564 602.549 245.486 602.381 245.33C602.225 245.162 602.147 244.964 602.147 244.736C602.147 244.496 602.225 244.298 602.381 244.142C602.55 243.986 602.754 243.908 602.994 243.909ZM604.885 241.57C605.149 241.57 605.365 241.66 605.533 241.84C605.701 242.008 605.784 242.224 605.784 242.488L605.78 250.84C605.78 251.056 605.816 251.23 605.888 251.362C605.96 251.494 606.056 251.584 606.176 251.632C606.308 251.68 606.44 251.704 606.572 251.704C606.704 251.704 606.818 251.681 606.914 251.633C607.022 251.585 607.148 251.561 607.292 251.561C607.436 251.561 607.568 251.627 607.688 251.759C607.808 251.891 607.867 252.071 607.867 252.299C607.867 252.587 607.711 252.821 607.399 253.001C607.087 253.181 606.751 253.271 606.391 253.27C606.187 253.27 605.947 253.252 605.671 253.216C605.395 253.18 605.125 253.09 604.861 252.946C604.609 252.801 604.399 252.573 604.231 252.261C604.063 251.937 603.98 251.487 603.98 250.911L603.984 242.487C603.984 242.223 604.069 242.007 604.237 241.839C604.417 241.659 604.633 241.569 604.885 241.57ZM610.958 253.273C610.694 253.273 610.478 253.188 610.31 253.02C610.142 252.84 610.059 252.618 610.059 252.354L610.063 244.722C610.063 244.458 610.147 244.242 610.315 244.074C610.483 243.894 610.699 243.805 610.963 243.805C611.215 243.805 611.425 243.895 611.593 244.075C611.773 244.243 611.863 244.459 611.863 244.723L611.861 246.739L611.682 245.965C611.778 245.629 611.922 245.317 612.114 245.029C612.319 244.741 612.559 244.489 612.835 244.274C613.111 244.058 613.417 243.89 613.753 243.77C614.101 243.65 614.461 243.59 614.833 243.591C615.145 243.591 615.415 243.675 615.643 243.843C615.871 244.011 615.985 244.221 615.985 244.473C615.984 244.797 615.9 245.037 615.732 245.193C615.564 245.337 615.378 245.409 615.174 245.409C614.994 245.409 614.82 245.373 614.652 245.301C614.484 245.216 614.286 245.174 614.058 245.174C613.806 245.174 613.548 245.24 613.284 245.372C613.02 245.504 612.78 245.702 612.564 245.965C612.348 246.217 612.174 246.517 612.041 246.865C611.921 247.213 611.861 247.603 611.861 248.035L611.859 252.355C611.858 252.619 611.768 252.841 611.588 253.021C611.42 253.189 611.21 253.273 610.958 253.273ZM624.624 243.74C624.888 243.74 625.104 243.83 625.272 244.01C625.44 244.178 625.524 244.394 625.524 244.658L625.52 252.398C625.52 253.454 625.315 254.312 624.907 254.972C624.51 255.632 623.97 256.111 623.286 256.411C622.614 256.723 621.852 256.878 621 256.878C620.568 256.878 620.136 256.835 619.704 256.751C619.272 256.679 618.918 256.571 618.642 256.427C618.354 256.294 618.15 256.132 618.03 255.94C617.91 255.748 617.892 255.538 617.977 255.31C618.061 255.022 618.205 254.824 618.409 254.716C618.613 254.621 618.823 254.615 619.039 254.699C619.243 254.783 619.513 254.891 619.849 255.023C620.185 255.155 620.569 255.222 621.001 255.222C621.589 255.222 622.087 255.126 622.495 254.935C622.903 254.743 623.209 254.443 623.413 254.035C623.629 253.627 623.738 253.099 623.738 252.451L623.739 251.209L624.026 251.641C623.834 252.037 623.582 252.367 623.27 252.631C622.958 252.895 622.586 253.099 622.154 253.242C621.734 253.386 621.266 253.458 620.75 253.458C620.09 253.457 619.52 253.313 619.04 253.025C618.572 252.725 618.212 252.316 617.96 251.8C617.709 251.272 617.583 250.672 617.583 250L617.586 244.654C617.586 244.39 617.67 244.174 617.838 244.006C618.006 243.826 618.222 243.736 618.486 243.736C618.738 243.737 618.948 243.827 619.116 244.007C619.296 244.175 619.386 244.391 619.386 244.655L619.384 249.515C619.383 250.307 619.557 250.889 619.905 251.261C620.252 251.621 620.768 251.802 621.452 251.802C621.908 251.802 622.304 251.706 622.641 251.515C622.977 251.323 623.241 251.059 623.433 250.723C623.625 250.375 623.721 249.973 623.722 249.517L623.724 244.657C623.724 244.393 623.808 244.177 623.976 244.009C624.156 243.829 624.372 243.739 624.624 243.74ZM639.079 243.729C639.307 243.729 639.505 243.819 639.673 243.999C639.853 244.167 639.943 244.389 639.943 244.665C639.943 244.725 639.937 244.785 639.925 244.845C639.913 244.905 639.895 244.959 639.871 245.007L637.113 252.71C637.041 252.914 636.915 253.07 636.735 253.178C636.555 253.274 636.369 253.31 636.177 253.285C635.829 253.261 635.571 253.069 635.403 252.709L633.372 247.308L633.786 247.344L631.911 252.707C631.743 253.067 631.485 253.259 631.137 253.283C630.957 253.307 630.771 253.271 630.579 253.175C630.399 253.067 630.273 252.91 630.201 252.706L627.433 245.001C627.385 244.893 627.361 244.779 627.361 244.659C627.361 244.407 627.439 244.191 627.595 244.011C627.763 243.819 627.985 243.723 628.261 243.723C628.453 243.724 628.621 243.772 628.765 243.868C628.921 243.964 629.029 244.108 629.089 244.3L631.39 250.799L630.976 250.763L632.85 245.85C633.007 245.478 633.283 245.292 633.679 245.292C633.895 245.292 634.063 245.34 634.183 245.436C634.303 245.533 634.398 245.671 634.47 245.851L636.376 250.784L635.89 250.837L638.215 244.305C638.335 243.921 638.623 243.729 639.079 243.729ZM646.179 253.471C645.183 253.47 644.319 253.266 643.587 252.857C642.856 252.437 642.286 251.867 641.878 251.146C641.483 250.414 641.285 249.58 641.285 248.644C641.286 247.588 641.496 246.688 641.917 245.944C642.349 245.189 642.908 244.613 643.592 244.217C644.276 243.81 645.002 243.606 645.77 243.606C646.358 243.607 646.916 243.727 647.444 243.967C647.972 244.195 648.44 244.52 648.847 244.94C649.267 245.348 649.597 245.834 649.837 246.398C650.076 246.951 650.202 247.557 650.214 248.217C650.202 248.457 650.105 248.655 649.925 248.81C649.745 248.966 649.535 249.044 649.295 249.044L642.293 249.041L641.862 247.51L648.63 247.514L648.288 247.838L648.288 247.388C648.264 246.968 648.127 246.602 647.875 246.289C647.623 245.965 647.311 245.719 646.939 245.551C646.567 245.371 646.177 245.281 645.769 245.28C645.409 245.28 645.061 245.34 644.725 245.46C644.401 245.568 644.107 245.748 643.843 245.999C643.591 246.251 643.387 246.587 643.23 247.007C643.086 247.415 643.014 247.925 643.014 248.537C643.013 249.197 643.151 249.773 643.427 250.265C643.702 250.757 644.074 251.141 644.542 251.418C645.01 251.682 645.526 251.814 646.09 251.815C646.534 251.815 646.9 251.773 647.188 251.689C647.476 251.593 647.716 251.479 647.908 251.347C648.1 251.216 648.268 251.09 648.412 250.97C648.592 250.862 648.772 250.808 648.952 250.808C649.168 250.808 649.348 250.886 649.492 251.042C649.636 251.186 649.708 251.36 649.708 251.564C649.708 251.828 649.576 252.068 649.312 252.284C648.987 252.596 648.537 252.872 647.961 253.111C647.397 253.351 646.803 253.471 646.179 253.471ZM657.021 243.612C657.861 243.612 658.604 243.823 659.252 244.243C659.912 244.664 660.434 245.246 660.817 245.99C661.201 246.722 661.393 247.568 661.392 248.528C661.392 249.488 661.199 250.34 660.815 251.084C660.43 251.828 659.914 252.416 659.266 252.847C658.618 253.267 657.886 253.477 657.07 253.476C656.614 253.476 656.182 253.404 655.774 253.259C655.366 253.103 655.006 252.911 654.694 252.683C654.382 252.443 654.124 252.191 653.92 251.926C653.728 251.662 653.609 251.416 653.561 251.188L654.047 250.955L654.046 252.521C654.046 252.773 653.956 252.989 653.776 253.168C653.608 253.336 653.398 253.42 653.146 253.42C652.882 253.42 652.666 253.336 652.498 253.168C652.33 253 652.246 252.784 652.246 252.52L652.252 240.892C652.252 240.628 652.336 240.412 652.504 240.244C652.672 240.064 652.888 239.974 653.152 239.974C653.404 239.974 653.614 240.064 653.782 240.244C653.962 240.413 654.052 240.629 654.052 240.893L654.049 245.951L653.761 245.788C653.798 245.56 653.912 245.326 654.104 245.087C654.296 244.835 654.536 244.595 654.824 244.367C655.124 244.139 655.46 243.959 655.832 243.827C656.217 243.684 656.613 243.612 657.021 243.612ZM656.822 245.268C656.246 245.268 655.742 245.411 655.31 245.699C654.889 245.987 654.559 246.377 654.319 246.869C654.079 247.349 653.958 247.901 653.958 248.525C653.958 249.149 654.077 249.713 654.317 250.217C654.557 250.709 654.887 251.099 655.307 251.387C655.738 251.675 656.242 251.82 656.818 251.82C657.382 251.82 657.874 251.676 658.295 251.389C658.715 251.101 659.045 250.705 659.285 250.201C659.537 249.697 659.664 249.139 659.664 248.527C659.664 247.903 659.539 247.351 659.287 246.871C659.047 246.379 658.717 245.989 658.298 245.701C657.878 245.412 657.386 245.268 656.822 245.268ZM662.868 251.823C662.76 251.655 662.712 251.463 662.724 251.247C662.737 251.019 662.863 250.827 663.103 250.671C663.271 250.563 663.445 250.521 663.625 250.545C663.817 250.558 663.997 250.648 664.165 250.816C664.5 251.188 664.872 251.482 665.28 251.698C665.7 251.914 666.204 252.023 666.792 252.023C667.032 252.011 667.278 251.975 667.53 251.915C667.782 251.844 667.998 251.724 668.178 251.556C668.358 251.376 668.448 251.118 668.449 250.782C668.449 250.482 668.353 250.242 668.161 250.062C667.969 249.882 667.717 249.738 667.405 249.629C667.093 249.509 666.757 249.401 666.397 249.305C666.013 249.197 665.623 249.076 665.228 248.944C664.844 248.812 664.496 248.644 664.184 248.44C663.872 248.224 663.614 247.947 663.41 247.611C663.218 247.275 663.123 246.861 663.123 246.369C663.123 245.805 663.279 245.319 663.592 244.911C663.916 244.504 664.33 244.186 664.834 243.958C665.35 243.73 665.908 243.617 666.508 243.617C666.856 243.617 667.222 243.665 667.606 243.761C667.99 243.846 668.362 243.984 668.722 244.176C669.082 244.368 669.394 244.62 669.658 244.932C669.778 245.089 669.843 245.275 669.855 245.491C669.879 245.707 669.783 245.899 669.567 246.066C669.423 246.186 669.249 246.24 669.045 246.228C668.841 246.216 668.673 246.15 668.541 246.03C668.313 245.742 668.019 245.52 667.659 245.363C667.299 245.195 666.892 245.111 666.436 245.111C666.208 245.111 665.967 245.147 665.715 245.218C665.475 245.278 665.271 245.392 665.103 245.56C664.935 245.728 664.851 245.974 664.851 246.298C664.851 246.598 664.947 246.838 665.139 247.018C665.342 247.198 665.606 247.348 665.93 247.469C666.254 247.589 666.608 247.697 666.992 247.793C667.364 247.889 667.73 248.004 668.09 248.136C668.462 248.268 668.792 248.442 669.08 248.658C669.38 248.862 669.619 249.132 669.799 249.469C669.991 249.793 670.087 250.207 670.087 250.711C670.086 251.299 669.912 251.803 669.564 252.222C669.228 252.63 668.796 252.942 668.267 253.158C667.751 253.374 667.205 253.481 666.629 253.481C665.945 253.481 665.261 253.36 664.577 253.12C663.906 252.868 663.336 252.435 662.868 251.823ZM673.714 252.387C673.713 252.651 673.629 252.873 673.461 253.052C673.293 253.22 673.077 253.304 672.813 253.304C672.561 253.304 672.345 253.22 672.165 253.052C671.997 252.872 671.913 252.65 671.914 252.386L671.917 244.682C671.918 244.418 672.002 244.202 672.17 244.034C672.35 243.854 672.566 243.764 672.818 243.764C673.082 243.764 673.298 243.854 673.466 244.034C673.634 244.203 673.718 244.419 673.717 244.683L673.714 252.387ZM672.801 242.576C672.453 242.576 672.201 242.516 672.045 242.396C671.889 242.264 671.811 242.048 671.811 241.748L671.811 241.46C671.811 241.16 671.895 240.95 672.063 240.83C672.231 240.71 672.483 240.65 672.819 240.65C673.179 240.65 673.437 240.716 673.593 240.848C673.749 240.969 673.827 241.173 673.827 241.461L673.827 241.749C673.827 242.061 673.743 242.277 673.575 242.396C673.419 242.516 673.161 242.576 672.801 242.576ZM676.013 243.946L680.243 243.948C680.483 243.948 680.681 244.032 680.837 244.2C681.005 244.356 681.089 244.554 681.089 244.794C681.089 245.022 681.004 245.214 680.836 245.37C680.68 245.526 680.482 245.604 680.242 245.604L676.012 245.602C675.772 245.602 675.568 245.523 675.4 245.367C675.244 245.199 675.167 245.001 675.167 244.773C675.167 244.533 675.245 244.335 675.401 244.179C675.569 244.023 675.773 243.946 676.013 243.946ZM677.904 241.607C678.168 241.607 678.384 241.697 678.552 241.877C678.72 242.045 678.804 242.261 678.804 242.525L678.8 250.877C678.799 251.093 678.835 251.267 678.907 251.399C678.979 251.531 679.075 251.621 679.195 251.669C679.327 251.717 679.459 251.741 679.591 251.742C679.723 251.742 679.837 251.718 679.933 251.67C680.041 251.622 680.167 251.598 680.311 251.598C680.455 251.598 680.587 251.664 680.707 251.796C680.827 251.928 680.887 252.108 680.887 252.336C680.887 252.624 680.731 252.858 680.418 253.038C680.106 253.218 679.77 253.308 679.41 253.307C679.206 253.307 678.966 253.289 678.69 253.253C678.414 253.217 678.144 253.127 677.88 252.983C677.629 252.839 677.419 252.61 677.251 252.298C677.083 251.974 676.999 251.524 677 250.948L677.004 242.524C677.004 242.26 677.088 242.044 677.256 241.876C677.436 241.696 677.652 241.607 677.904 241.607ZM687.4 253.492C686.404 253.491 685.54 253.287 684.808 252.878C684.076 252.458 683.507 251.888 683.099 251.167C682.703 250.435 682.506 249.601 682.506 248.665C682.507 247.609 682.717 246.709 683.138 245.965C683.57 245.21 684.128 244.634 684.812 244.238C685.497 243.831 686.223 243.627 686.991 243.627C687.579 243.628 688.137 243.748 688.665 243.988C689.192 244.216 689.66 244.541 690.068 244.961C690.488 245.369 690.818 245.855 691.057 246.419C691.297 246.971 691.423 247.578 691.434 248.238C691.422 248.478 691.326 248.675 691.146 248.831C690.966 248.987 690.756 249.065 690.516 249.065L683.514 249.062L683.083 247.531L689.851 247.535L689.509 247.859L689.509 247.409C689.485 246.989 689.347 246.622 689.095 246.31C688.844 245.986 688.532 245.74 688.16 245.572C687.788 245.392 687.398 245.302 686.99 245.301C686.63 245.301 686.282 245.361 685.946 245.481C685.622 245.589 685.328 245.768 685.064 246.02C684.811 246.272 684.607 246.608 684.451 247.028C684.307 247.436 684.235 247.946 684.234 248.558C684.234 249.218 684.372 249.794 684.647 250.286C684.923 250.778 685.295 251.162 685.763 251.439C686.231 251.703 686.747 251.835 687.311 251.835C687.755 251.836 688.121 251.794 688.409 251.71C688.697 251.614 688.937 251.5 689.129 251.368C689.321 251.236 689.489 251.111 689.633 250.991C689.813 250.883 689.993 250.829 690.173 250.829C690.389 250.829 690.569 250.907 690.713 251.063C690.857 251.207 690.929 251.381 690.929 251.585C690.929 251.849 690.796 252.089 690.532 252.305C690.208 252.617 689.758 252.893 689.182 253.132C688.618 253.372 688.024 253.492 687.4 253.492ZM693.429 255.691C693.249 255.69 693.069 255.618 692.889 255.474C692.709 255.33 692.619 255.15 692.62 254.934C692.62 254.802 692.656 254.676 692.728 254.556L700.205 239.422C700.29 239.254 700.392 239.128 700.512 239.044C700.644 238.96 700.788 238.918 700.944 238.918C701.112 238.918 701.28 238.985 701.448 239.117C701.628 239.249 701.717 239.435 701.717 239.675C701.717 239.807 701.687 239.939 701.627 240.071L694.149 255.205C694.065 255.361 693.963 255.481 693.843 255.565C693.723 255.649 693.585 255.691 693.429 255.691Z" fill="black"/>
</svg>
