<svg width="1637" height="689" viewBox="0 0 1637 689" fill="none" xmlns="http://www.w3.org/2000/svg">
<g clip-path="url(#clip0_17_1566)">
<path d="M491.133 272.693C503.736 273.986 535.397 277.577 568.142 298.805C580.209 306.63 598.972 319.093 612.987 343.068C627.735 368.293 628.708 391.659 628.84 397.068C628.971 402.701 629.168 428.706 612.987 456.38C597.397 483.038 575.472 496.089 561.118 504.404C554.379 508.306 520.989 527.011 473.004 527.866C458.41 528.123 422.777 528.337 384.89 507.953C371.554 500.781 347.091 487.217 329.849 458.603C325.068 450.672 313.329 430.62 312.858 402.177C312.749 395.229 313.066 373.285 325.768 349.289C334.892 332.048 346.205 321.679 353.403 315.213C372.987 297.587 392.712 289.666 405.502 284.675C422.066 278.197 435.369 275.579 439.526 274.809C449.318 272.992 467.994 270.363 491.122 272.725L491.133 272.693Z" fill="#FFD278" stroke="white" stroke-width="0.25" stroke-linecap="round" stroke-linejoin="round"/>
<path d="M713.672 372.109C715.28 371.853 730.268 369.79 738.178 382.531C739.207 384.188 744.338 392.888 741.712 402.604C738.605 414.138 727.194 417.312 724.415 418.082C714.623 420.807 706.571 416.222 703.311 413.945C700.062 411.679 695.598 408.558 693.738 402.294C690.5 391.338 698.311 381.056 698.847 380.372C704.164 373.584 711.101 372.494 713.661 372.098L713.672 372.109Z" fill="#EBD9C6" stroke="white" stroke-linecap="round" stroke-linejoin="round"/>
<path d="M802.378 370.063C804.974 368.628 816.623 362.611 830.116 367.632C832.34 368.456 846.102 373.577 850.14 387.889C850.711 389.921 852.933 398.206 849.14 406.685C846.192 413.304 841.119 416.599 837.704 418.815C836.149 419.824 831.449 422.699 824.703 423.893C815.18 425.58 807.877 422.816 806.417 422.246C804.282 421.404 798.759 418.959 793.563 413.245C790.738 410.13 787.648 406.84 786.266 401.307C784.65 394.821 786.356 389.313 787.011 387.293C790.457 376.676 799.376 371.723 802.367 370.073L802.378 370.063Z" fill="#A8CCB0" stroke="white" stroke-linecap="round" stroke-linejoin="round"/>
<path d="M910.523 381.237C911.037 380.842 913.531 378.993 917.306 377.924C924.286 375.957 932.743 377.518 938.662 383.322C939.942 384.572 943.399 387.843 944.537 393.252C946.145 400.937 941.856 406.858 941.123 407.842C938.771 410.974 936.003 412.566 934.373 413.475C932.688 414.415 928.224 416.852 921.945 416.66C915.719 416.468 911.387 413.774 910.534 413.229C908.16 411.711 903.521 408.729 901.836 403.053C899.364 394.695 904.823 385.577 910.534 381.237H910.523Z" fill="#DD8E6F" stroke="white" stroke-linecap="round" stroke-linejoin="round"/>
<path d="M1011.52 367.428C1022.64 356.717 1034.75 352.859 1040.72 351.031C1054.77 346.723 1066.34 347.397 1071.99 347.771C1079.83 348.295 1094.68 349.46 1110.16 358.887C1116.36 362.66 1127.03 369.17 1133.85 382.477C1136.05 386.774 1143.29 402.423 1137.53 420.668C1134.43 430.449 1128.26 437.247 1126.34 439.374C1125.17 440.678 1122.08 443.97 1116.72 447.85C1102.05 458.464 1086.42 461.788 1081.76 462.675C1074.75 464.001 1060.79 466.491 1043.82 461.778C1038.64 460.335 1025.86 456.626 1013.93 445.488C1009.12 440.988 1000.23 432.48 996.46 418.189C995.202 413.443 992.281 399.644 998.878 384.711C1002.73 375.989 1008.17 370.645 1011.52 367.417V367.428Z" fill="#F28F85" stroke="#F2F2F2" stroke-linecap="round" stroke-linejoin="round"/>
<path d="M1209.74 361.538C1220.44 351.651 1232.01 348.455 1239.29 346.531C1265.39 339.647 1287.2 347.803 1293.88 350.603C1301.41 353.778 1315.52 359.699 1325.25 374.418C1328.45 379.249 1330.53 384.519 1330.53 384.519C1330.53 384.519 1331.98 388.196 1333.93 397.901C1334.02 398.329 1334.06 398.949 1334.06 399.216C1334.06 400.777 1334.18 404.699 1333.96 408.676C1333.92 409.402 1333.91 409.776 1333.85 410.279C1333.58 413.389 1332.91 415.837 1332.39 417.43C1331.59 419.514 1330.37 422.485 1328.36 425.756C1325.32 430.705 1320.2 437.204 1311.93 443.436C1311.78 443.542 1311.63 443.66 1311.61 443.671C1311.61 443.671 1306.48 447.455 1300.96 450.287C1300.93 450.308 1300.89 450.319 1300.86 450.34C1300.72 450.415 1300.61 450.469 1300.55 450.501C1300.55 450.501 1293.19 454.317 1285.18 456.593C1262.32 463.103 1241.01 456.968 1239.77 456.593C1232.81 454.498 1214.57 448.737 1202.05 431.154C1198.61 426.312 1191.62 416.211 1191.2 401.824C1190.55 379.239 1206.65 364.37 1209.73 361.517L1209.74 361.538Z" fill="#C8B8E0" stroke="#F2F2F2" stroke-linecap="round" stroke-linejoin="round"/>
<path d="M1335.26 399.141C1337.64 400.734 1341.09 403.075 1345.26 405.918C1351.8 410.397 1355.08 412.63 1358.33 414.993C1364.1 419.183 1368.84 422.635 1374.55 427.851C1375.88 429.07 1381.21 433.997 1386.69 441.415C1389.82 445.648 1391.12 448.149 1391.39 451.292C1391.49 452.393 1391.9 456.743 1389.14 460.463C1388.38 461.5 1386.14 464.14 1378.74 465.85C1370.14 467.838 1362.95 466.63 1361.9 466.449C1331.32 461.029 1301.45 451.132 1301.45 451.132C1287.18 446.407 1280.05 444.045 1278.41 443.425C1255.24 434.767 1238.9 425.649 1227.86 419.45C1212.89 411.049 1201.65 405.426 1184.86 391.787C1183.32 390.526 1166.52 378.234 1154.24 363.227C1152.27 360.822 1147.71 356.835 1147.01 350.561C1146.83 348.925 1146.27 345.483 1148.18 342.277C1148.18 342.277 1150.12 339.017 1155.06 337.168C1171.29 331.086 1206.54 343.592 1208.86 344.425C1215.37 346.755 1220.82 348.989 1224.94 350.764" fill="#C8B8E0"/>
<path d="M1335.26 399.141C1337.64 400.734 1341.09 403.075 1345.26 405.918C1351.8 410.397 1355.08 412.63 1358.33 414.993C1364.1 419.183 1368.84 422.635 1374.55 427.851C1375.88 429.07 1381.21 433.997 1386.69 441.415C1389.82 445.648 1391.12 448.149 1391.39 451.292C1391.49 452.393 1391.9 456.743 1389.14 460.463C1388.38 461.5 1386.14 464.14 1378.74 465.85C1370.14 467.838 1362.95 466.63 1361.9 466.449C1331.32 461.029 1301.45 451.132 1301.45 451.132C1287.18 446.407 1280.05 444.045 1278.41 443.425C1255.24 434.767 1238.9 425.649 1227.86 419.45C1212.89 411.049 1201.65 405.426 1184.86 391.787C1183.32 390.526 1166.52 378.234 1154.24 363.227C1152.27 360.822 1147.71 356.835 1147.01 350.561C1146.83 348.925 1146.27 345.483 1148.18 342.277C1148.18 342.277 1150.12 339.017 1155.06 337.168C1171.29 331.086 1206.54 343.592 1208.86 344.425C1215.37 346.755 1220.82 348.989 1224.94 350.764" stroke="#F2F2F2" stroke-linecap="round" stroke-linejoin="round"/>
<path d="M1318.86 438.497C1320.46 439.267 1322.99 440.304 1325.84 441.063C1328.09 441.661 1329.09 442.559 1341.18 444.344C1345.77 445.017 1348.28 445.103 1350.14 443.628C1351.49 442.559 1351.93 441.105 1352.01 440.774C1352.37 439.449 1352.7 437.022 1348.5 432.084C1346.62 429.871 1344.32 427.167 1339.96 423.287L1332.62 416.671L1327.05 427.156C1324.32 430.94 1321.59 434.724 1318.85 438.508L1318.86 438.497Z" fill="#C8B8E0" stroke="#F2F2F2" stroke-linecap="round" stroke-linejoin="round"/>
<path d="M1308.86 442.805C1310.91 443.553 1313.61 444.504 1316.84 445.488C1319.24 446.225 1323.69 447.764 1331.43 449.186C1345.38 451.751 1348.47 452.147 1352.22 452.403C1358.22 452.82 1361.64 452.585 1364.48 450.373C1365.11 449.892 1367.29 448.203 1368.06 445.338C1369.17 441.266 1366.71 437.546 1364.06 433.666C1362.07 430.748 1359.66 427.969 1353.83 422.838C1350.8 420.166 1346.64 416.681 1341.46 412.844" fill="#C8B8E0"/>
<path d="M1308.86 442.805C1310.91 443.553 1313.61 444.504 1316.84 445.488C1319.24 446.225 1323.69 447.764 1331.43 449.186C1345.38 451.751 1348.47 452.147 1352.22 452.403C1358.22 452.82 1361.64 452.585 1364.48 450.373C1365.11 449.892 1367.29 448.203 1368.06 445.338C1369.17 441.266 1366.71 437.546 1364.06 433.666C1362.07 430.748 1359.66 427.969 1353.83 422.838C1350.8 420.166 1346.64 416.681 1341.46 412.844" stroke="#F2F2F2" stroke-linecap="round" stroke-linejoin="round"/>
<path d="M1334 407.874C1336.48 409.531 1338.96 411.198 1341.43 412.855L1334 407.874Z" fill="#C8B8E0"/>
<path d="M1334 407.874C1336.48 409.531 1338.96 411.198 1341.43 412.855" stroke="#F2F2F2" stroke-linecap="round" stroke-linejoin="round"/>
<path d="M1311.63 443.692C1306.42 442.035 1299.8 439.844 1292.21 437.076C1288.37 435.675 1281.92 433.313 1274.17 430.085C1252.83 421.192 1237.06 412.139 1231.32 408.75C1227.05 406.238 1223.41 403.951 1218.01 400.573C1209.29 395.111 1204.34 391.798 1200.13 388.869C1198.74 387.897 1197.32 386.892 1195.77 385.769C1194.98 385.192 1190.62 381.996 1187.83 380.04C1186.94 379.378 1185.72 378.448 1184.24 377.336C1184.07 377.197 1183.76 376.962 1183.68 376.908C1183.09 376.47 1181.77 375.305 1176.6 369.533C1172.23 364.638 1171.56 362.126 1170.86 360.373C1169.81 357.754 1169.18 353.799 1170.42 351.501C1171.73 349.096 1179.23 344.532 1183.64 344.34C1196.82 343.741 1204.79 343.046 1225.42 351.576L1211 359.197C1198.44 366.391 1199 369.522 1194.98 377.646L1193.1 383.835" fill="#C8B8E0"/>
<path d="M1311.63 443.692C1306.42 442.035 1299.8 439.844 1292.21 437.076C1288.37 435.675 1281.92 433.313 1274.17 430.085C1252.83 421.192 1237.06 412.139 1231.32 408.75C1227.05 406.238 1223.41 403.951 1218.01 400.573C1209.29 395.111 1204.34 391.798 1200.13 388.869C1198.74 387.897 1197.32 386.892 1195.77 385.769C1194.98 385.192 1190.62 381.996 1187.83 380.04C1186.94 379.378 1185.72 378.448 1184.24 377.336C1184.07 377.197 1183.76 376.962 1183.68 376.908C1183.09 376.47 1181.77 375.305 1176.6 369.533C1172.23 364.638 1171.56 362.126 1170.86 360.373C1169.81 357.754 1169.18 353.799 1170.42 351.501C1171.73 349.096 1179.23 344.532 1183.64 344.34C1196.82 343.741 1204.79 343.046 1225.42 351.576L1211 359.197C1198.44 366.391 1199 369.522 1194.98 377.646L1193.1 383.835" stroke="#F2F2F2" stroke-linecap="round" stroke-linejoin="round"/>
<path d="M1204.8 363.612C1206.99 365.503 1211.24 369.095 1214.43 371.66C1215.84 372.793 1219.55 375.775 1224.72 379.634C1228.66 382.574 1233.8 386.4 1240.68 390.911C1244.6 393.476 1250.55 397.356 1258.7 401.706C1266.06 405.64 1271.71 408.077 1279.52 411.465C1287.11 414.757 1291.34 416.617 1297.32 418.723C1300.43 419.813 1308.02 422.368 1318.14 424.687C1322 425.575 1325.32 426.216 1327.82 426.665" fill="#C8B8E0"/>
<path d="M1204.8 363.612C1206.99 365.503 1211.24 369.095 1214.43 371.66C1215.84 372.793 1219.55 375.775 1224.72 379.634C1228.66 382.574 1233.8 386.4 1240.68 390.911C1244.6 393.476 1250.55 397.356 1258.7 401.706C1266.06 405.64 1271.71 408.077 1279.52 411.465C1287.11 414.757 1291.34 416.617 1297.32 418.723C1300.43 419.813 1308.02 422.368 1318.14 424.687C1322 425.575 1325.32 426.216 1327.82 426.665" stroke="#F2F2F2" stroke-linecap="round" stroke-linejoin="round"/>
<path d="M1331.01 385.93C1329.48 385.973 1327.34 386.005 1324.8 385.93C1321.05 385.823 1315.24 385.663 1309.1 384.38C1303.05 383.108 1299.06 381.248 1292.12 377.956C1289.72 376.812 1282.37 373.232 1273.49 367.075C1268.52 363.612 1265.43 361.538 1261.77 357.968C1256.59 352.923 1253.25 347.91 1251.21 344.34" fill="#C8B8E0"/>
<path d="M1331.01 385.93C1329.48 385.973 1327.34 386.005 1324.8 385.93C1321.05 385.823 1315.24 385.663 1309.1 384.38C1303.05 383.108 1299.06 381.248 1292.12 377.956C1289.72 376.812 1282.37 373.232 1273.49 367.075C1268.52 363.612 1265.43 361.538 1261.77 357.968C1256.59 352.923 1253.25 347.91 1251.21 344.34" stroke="#F2F2F2" stroke-linecap="round" stroke-linejoin="round"/>
<path d="M1440.85 366.861C1448.77 361.709 1456.49 361.025 1461.89 360.555C1471.29 359.732 1478.53 361.559 1481.3 362.361C1488.56 364.445 1493.42 367.577 1494.4 368.218C1498.05 370.613 1504.48 374.824 1508.36 383.033C1509.42 385.278 1513.43 394.053 1510.42 404.454C1507.02 416.243 1496.98 421.876 1492.86 424.206C1482.92 429.807 1473.41 429.754 1467.42 429.733C1462.1 429.711 1454.56 429.668 1446.1 425.628C1442.25 423.79 1433.14 419.279 1428.11 408.804C1426.97 406.41 1422.64 396.619 1426.4 384.957C1429.85 374.204 1437.96 368.753 1440.86 366.872L1440.85 366.861Z" fill="#A5DED4" stroke="#F2F2F2" stroke-linecap="round" stroke-linejoin="round"/>
<path d="M1564.65 384.241C1570.12 373.937 1580.11 370.185 1583.67 368.86C1597.86 363.547 1615.64 366.145 1626.71 376.534C1629.07 378.747 1634.42 383.92 1636.04 392.354C1636.28 393.615 1637.96 403.235 1632.27 412.096C1632.16 412.267 1631.33 413.55 1630.22 414.854C1623.87 422.282 1609.75 428.717 1594.19 427.456C1589.16 427.05 1576.17 425.991 1567.78 416.147C1563.97 411.679 1562.54 407.072 1562.03 405.127C1559.37 395.005 1563.39 386.625 1564.65 384.241Z" fill="#5C7E91" stroke="white" stroke-linecap="round" stroke-linejoin="round"/>
<path d="M796.228 374.407L801.02 379.281L805.188 383.514L806.49 385.256C806.753 385.609 806.895 386.047 806.895 386.496V389.179C806.895 389.724 806.709 390.259 806.37 390.665L805.593 391.606C805.418 391.819 805.21 392.012 804.991 392.161C804.368 392.6 803.132 393.465 803.504 393.22L801.556 394.524C801.075 394.844 800.747 395.368 800.648 395.967V396.041C800.539 396.661 800.648 397.303 800.976 397.837L804.226 403.299L809.466 410.279L810.779 413.4C810.899 413.678 810.954 413.988 810.954 414.287V417.793C810.954 418.338 810.856 418.883 810.648 419.386L809.674 421.823L809.433 423.308" fill="#A8CCB0"/>
<path d="M796.228 374.407L801.02 379.281L805.188 383.514L806.49 385.256C806.753 385.609 806.895 386.047 806.895 386.496V389.179C806.895 389.724 806.709 390.259 806.37 390.665L805.593 391.606C805.418 391.819 805.21 392.012 804.991 392.161C804.368 392.6 803.132 393.465 803.504 393.22L801.556 394.524C801.075 394.844 800.747 395.368 800.648 395.967V396.041C800.539 396.661 800.648 397.303 800.976 397.837L804.226 403.299L809.466 410.279L810.779 413.4C810.899 413.678 810.954 413.988 810.954 414.287V417.793C810.954 418.338 810.856 418.883 810.648 419.386L809.674 421.823L809.433 423.308" stroke="white" stroke-linecap="round" stroke-linejoin="round"/>
<path d="M838.535 371.831L836.369 374.76L835.833 375.209L831.839 377.154C831.336 377.4 831.008 377.935 830.997 378.533L830.778 390.002C830.778 390.494 830.975 390.964 831.347 391.264L842.255 400.21C843.174 400.969 842.933 402.508 841.828 402.904L833.885 405.736L833.798 405.768L825.735 409.253L825.089 410.087L823.853 416.917C823.787 417.269 823.94 417.622 824.236 417.793C826.577 419.183 828.918 420.572 831.259 421.962" fill="#A8CCB0"/>
<path d="M838.535 371.831L836.369 374.76L835.833 375.209L831.839 377.154C831.336 377.4 831.008 377.935 830.997 378.533L830.778 390.002C830.778 390.494 830.975 390.964 831.347 391.264L842.255 400.21C843.174 400.969 842.933 402.508 841.828 402.904L833.885 405.736L833.798 405.768L825.735 409.253L825.089 410.087L823.853 416.917C823.787 417.269 823.94 417.622 824.236 417.793C826.577 419.183 828.918 420.572 831.259 421.962" stroke="white" stroke-linecap="round" stroke-linejoin="round"/>
<path d="M1023.54 358.331L1109.3 358.374" stroke="#F2F2F2" stroke-linecap="round" stroke-linejoin="round"/>
<path d="M1010.21 368.709L1123.47 368.646" stroke="#F2F2F2" stroke-linecap="round" stroke-linejoin="round"/>
<path d="M1002.75 377.635L1130.43 376.759" stroke="#F2F2F2" stroke-linecap="round" stroke-linejoin="round"/>
<path d="M996.329 392.044L1137.67 392.226" stroke="#F2F2F2" stroke-linecap="round" stroke-linejoin="round"/>
<path d="M995.366 412.93L1139.25 413.047" stroke="#F2F2F2" stroke-linecap="round" stroke-linejoin="round"/>
<path d="M997.226 420.796L1137.53 420.668" stroke="#F2F2F2" stroke-linecap="round" stroke-linejoin="round"/>
<path d="M1002.75 432.512H1048.42C1049.19 432.512 1049.95 432.747 1050.58 433.196L1050.95 433.452C1051.49 433.826 1051.81 434.425 1051.81 435.066V435.697C1051.81 436.231 1051.51 436.723 1051.03 436.99C1050.44 437.311 1048.45 438.348 1047.55 438.326H1007.02" fill="#F28F85"/>
<path d="M1002.75 432.512H1048.42C1049.19 432.512 1049.95 432.747 1050.58 433.196L1050.95 433.452C1051.49 433.826 1051.81 434.425 1051.81 435.066V435.697C1051.81 436.231 1051.51 436.723 1051.03 436.99C1050.44 437.311 1048.45 438.348 1047.55 438.326H1007.02" stroke="white" stroke-miterlimit="10"/>
<path d="M1047.55 438.316L1127.26 438.348" stroke="#F2F2F2" stroke-linecap="round" stroke-linejoin="round"/>
<path d="M1013.93 445.499L1119.43 445.787" stroke="#F2F2F2" stroke-linecap="round" stroke-linejoin="round"/>
<path d="M1332.63 416.66C1338.5 421.352 1344.37 426.034 1350.24 430.727C1353.62 433.548 1355.28 437.076 1354.3 439.62C1353.21 442.431 1349.23 443.093 1345.68 443.681C1338.33 444.9 1331.95 442.965 1325.85 441.052C1322.89 440.122 1320.49 439.171 1318.87 438.487" fill="#F6F0E5"/>
<path d="M1332.63 416.66C1338.5 421.352 1344.37 426.034 1350.24 430.727C1353.62 433.548 1355.28 437.076 1354.3 439.62C1353.21 442.431 1349.23 443.093 1345.68 443.681C1338.33 444.9 1331.95 442.965 1325.85 441.052C1322.89 440.122 1320.49 439.171 1318.87 438.487" stroke="white" stroke-linecap="round" stroke-linejoin="round"/>
<path d="M290.233 464.781L270.07 454.531" stroke="#666666" stroke-linecap="round" stroke-linejoin="round"/>
<path d="M254.743 445.071C249.36 440.603 243.988 436.135 238.606 431.678" stroke="#666666" stroke-linecap="round" stroke-linejoin="round"/>
<path d="M234.197 425.008C231.757 418.616 229.317 412.235 226.888 405.843" stroke="#666666" stroke-linecap="round" stroke-linejoin="round"/>
<path d="M226.877 394.149C229.984 387.223 233.081 380.297 236.188 373.36" stroke="#666666" stroke-linecap="round" stroke-linejoin="round"/>
<path d="M243.168 362.97C248.933 358.641 254.688 354.312 260.454 349.983" stroke="#666666" stroke-linecap="round" stroke-linejoin="round"/>
<path d="M272.422 342.181C279.184 339.145 285.945 336.12 292.706 333.084" stroke="#666666" stroke-linecap="round" stroke-linejoin="round"/>
<path d="M307.3 327.922C314.86 325.41 322.42 322.909 329.98 320.397" stroke="#4D4D4D" stroke-linecap="round" stroke-linejoin="round"/>
<path d="M327.945 474.7C320.965 472.862 313.985 471.023 307.005 469.174" stroke="#4D4D4D" stroke-linecap="round" stroke-linejoin="round"/>
<path d="M591.927 246.986H617.549H591.927Z" fill="#666666"/>
<path d="M591.927 246.986H617.549" stroke="#4D4D4D" stroke-linecap="round" stroke-linejoin="round"/>
<path d="M632.111 246.986H657.81H632.111Z" fill="#666666"/>
<path d="M632.111 246.986H657.81" stroke="#4D4D4D" stroke-linecap="round" stroke-linejoin="round"/>
<path d="M671.573 246.986H695.237H671.573Z" fill="#666666"/>
<path d="M671.573 246.986H695.237" stroke="#4D4D4D" stroke-linecap="round" stroke-linejoin="round"/>
<path d="M711.713 248.953C720.127 249.263 728.54 249.573 736.953 249.883L711.713 248.953Z" fill="#666666"/>
<path d="M711.713 248.953C720.127 249.263 728.54 249.573 736.953 249.883" stroke="#4D4D4D" stroke-linecap="round" stroke-linejoin="round"/>
<path d="M751.58 251.486C760.365 252.138 769.14 252.79 777.925 253.431L751.58 251.486Z" fill="#666666"/>
<path d="M751.58 251.486C760.365 252.138 769.14 252.79 777.925 253.431" stroke="#4D4D4D" stroke-linecap="round" stroke-linejoin="round"/>
<path d="M791.524 255.377C800.407 256.2 809.291 257.034 818.175 257.857L791.524 255.377Z" fill="#666666"/>
<path d="M791.524 255.377C800.407 256.2 809.291 257.034 818.175 257.857" stroke="#4D4D4D" stroke-linecap="round" stroke-linejoin="round"/>
<path d="M829.957 259.631C839.082 260.988 848.206 262.346 857.33 263.703L829.957 259.631Z" fill="#666666"/>
<path d="M829.957 259.631C839.082 260.988 848.206 262.346 857.33 263.703" stroke="#4D4D4D" stroke-linecap="round" stroke-linejoin="round"/>
<path d="M868.687 265.296C877.406 266.835 886.137 268.364 894.856 269.903L868.687 265.296Z" fill="#666666"/>
<path d="M868.687 265.296C877.406 266.835 886.137 268.364 894.856 269.903" stroke="#4D4D4D" stroke-linecap="round" stroke-linejoin="round"/>
<path d="M908.28 272.383C916.496 274.039 924.713 275.686 932.94 277.342" stroke="#4D4D4D" stroke-linecap="round" stroke-linejoin="round"/>
<path d="M945.259 279.993C953.355 281.885 961.451 283.777 969.557 285.658" stroke="#4D4D4D" stroke-linecap="round" stroke-linejoin="round"/>
<path d="M981.701 289.036C989.556 291.216 997.412 293.408 1005.27 295.588" stroke="#4D4D4D" stroke-linecap="round" stroke-linejoin="round"/>
<path d="M948.519 484.791C941.134 487.869 933.749 490.947 926.365 494.036" stroke="#333333" stroke-linecap="round" stroke-linejoin="round"/>
<path d="M914.79 498.194C906.628 500.749 898.456 503.303 890.294 505.858" stroke="#333333" stroke-linecap="round" stroke-linejoin="round"/>
<path d="M877.483 509.353C869.474 511.096 861.455 512.827 853.447 514.57" stroke="#333333" stroke-linecap="round" stroke-linejoin="round"/>
<path d="M632.111 299.468H657.81" stroke="#4D4D4D" stroke-miterlimit="10"/>
<path d="M671.573 299.468C680.03 300.067 688.476 300.665 696.933 301.275" stroke="#4D4D4D" stroke-miterlimit="10"/>
<path d="M711.713 302.803C719.481 303.455 727.238 304.118 735.006 304.77" stroke="#4D4D4D" stroke-miterlimit="10"/>
<path d="M751.58 308.276C758.976 309.366 766.361 310.467 773.757 311.557" stroke="#4D4D4D" stroke-miterlimit="10"/>
<path d="M788.318 313.962C796.458 315.64 804.598 317.318 812.737 318.997" stroke="#4D4D4D" stroke-miterlimit="10"/>
<path d="M827.288 322.278L839.837 325.784" stroke="black" stroke-linecap="round" stroke-linejoin="round"/>
<path d="M610.35 494.945C618.391 494.122 626.422 493.288 634.463 492.465" stroke="#4D4D4D" stroke-linecap="round" stroke-linejoin="round"/>
<path d="M650.119 492.465L673.805 489.985" stroke="#4D4D4D" stroke-linecap="round" stroke-linejoin="round"/>
<path d="M689.296 488.414C697.359 487.206 705.423 485.998 713.497 484.791" stroke="#4D4D4D" stroke-linecap="round" stroke-linejoin="round"/>
<path d="M726.56 483.048C734.841 481.424 743.123 479.788 751.405 478.163" stroke="#333333" stroke-linecap="round" stroke-linejoin="round"/>
<path d="M763.659 475.021C772.312 472.766 780.966 470.5 789.631 468.244" stroke="#333333" stroke-linecap="round" stroke-linejoin="round"/>
<path d="M802.048 464.931C809.849 461.938 817.639 458.945 825.439 455.952" stroke="#333333" stroke-linecap="round" stroke-linejoin="round"/>
<path d="M835.592 451.687C842.101 448.01 848.6 444.333 855.109 440.656" stroke="#666666" stroke-linecap="round" stroke-linejoin="round"/>
<path d="M864.201 433.933L877.472 421.951" stroke="#666666" stroke-linecap="round" stroke-linejoin="round"/>
<path d="M839.158 519.123C831.183 520.855 823.207 522.586 815.232 524.318" stroke="#333333" stroke-linecap="round" stroke-linejoin="round"/>
<path d="M802.048 527.909C793.581 529.202 785.113 530.496 776.645 531.789" stroke="#333333" stroke-linecap="round" stroke-linejoin="round"/>
<path d="M763.659 534.707C755.431 535.894 747.204 537.091 738.977 538.277" stroke="#333333" stroke-linecap="round" stroke-linejoin="round"/>
<path d="M725.214 540.084C716.56 540.875 707.906 541.666 699.263 542.457" stroke="#333333" stroke-linecap="round" stroke-linejoin="round"/>
<path d="M687.01 544.349C678.4 544.979 669.79 545.61 661.18 546.24" stroke="#4D4D4D" stroke-linecap="round" stroke-linejoin="round"/>
<path d="M647.832 547.544C639.353 547.865 630.886 548.175 622.407 548.496" stroke="#4D4D4D" stroke-linecap="round" stroke-linejoin="round"/>
<path d="M608.173 549.084C603.042 549.319 597.9 549.554 592.769 549.8" stroke="#4D4D4D" stroke-linecap="round" stroke-linejoin="round"/>
<path d="M579.914 549.436C570.976 549.554 562.048 549.672 553.11 549.789" stroke="#4D4D4D" stroke-linecap="round" stroke-linejoin="round"/>
<path d="M542.684 549.618L517.335 549.084" stroke="#4D4D4D" stroke-linecap="round" stroke-linejoin="round"/>
<path d="M503.265 548.132C495.224 547.812 487.172 547.502 479.131 547.181" stroke="#4D4D4D" stroke-linecap="round" stroke-linejoin="round"/>
<path d="M465.302 545.407C456.528 544.819 447.754 544.22 438.979 543.632" stroke="#4D4D4D" stroke-linecap="round" stroke-linejoin="round"/>
<path d="M426.004 541.388C417.306 540.404 408.62 539.41 399.922 538.427" stroke="#4D4D4D" stroke-linecap="round" stroke-linejoin="round"/>
<path d="M386.093 536.172C377.483 534.868 368.873 533.563 360.263 532.259" stroke="#4D4D4D" stroke-linecap="round" stroke-linejoin="round"/>
<path d="M347.408 529.299L322.059 524.2" stroke="#4D4D4D" stroke-linecap="round" stroke-linejoin="round"/>
<path d="M308.351 520.887C300.222 518.514 292.093 516.151 283.975 513.779" stroke="#4D4D4D" stroke-linecap="round" stroke-linejoin="round"/>
<path d="M270.748 509.268C262.664 506.66 254.579 504.052 246.494 501.444" stroke="#4D4D4D" stroke-linecap="round" stroke-linejoin="round"/>
<path d="M234.481 497.296C226.965 493.983 219.438 490.659 211.922 487.345" stroke="#4D4D4D" stroke-linecap="round" stroke-linejoin="round"/>
<path d="M199.931 483.048L187 475.01" stroke="#4D4D4D" stroke-linecap="round" stroke-linejoin="round"/>
<path d="M187 537.999C188.356 538.63 189.713 539.261 191.069 539.902" stroke="#4D4D4D" stroke-linecap="round" stroke-linejoin="round"/>
<path d="M204.143 544.391C212.053 546.807 219.974 549.212 227.884 551.628" stroke="#4D4D4D" stroke-linecap="round" stroke-linejoin="round"/>
<path d="M239.645 555.454C247.774 557.506 255.913 559.569 264.042 561.622" stroke="#4D4D4D" stroke-linecap="round" stroke-linejoin="round"/>
<path d="M277.553 565.886C285.682 567.522 293.822 569.147 301.951 570.782" stroke="#4D4D4D" stroke-linecap="round" stroke-linejoin="round"/>
<path d="M315.462 572.909C323.81 574.758 332.168 576.597 340.516 578.446" stroke="#4D4D4D" stroke-linecap="round" stroke-linejoin="round"/>
<path d="M354.027 580.359C362.528 581.706 371.018 583.053 379.518 584.399" stroke="#4D4D4D" stroke-linecap="round" stroke-linejoin="round"/>
<path d="M392.143 586.323L419.155 589.947" stroke="#4D4D4D" stroke-linecap="round" stroke-linejoin="round"/>
<path d="M431.365 591.636L457.513 594.618" stroke="#4D4D4D" stroke-linecap="round" stroke-linejoin="round"/>
<path d="M471.013 595.687L496.285 598.241L471.013 595.687Z" fill="#333333"/>
<path d="M471.013 595.687L496.285 598.241" stroke="#4D4D4D" stroke-linecap="round" stroke-linejoin="round"/>
<path d="M510.442 599.3C519.446 599.866 528.45 600.433 537.454 600.999L510.442 599.3Z" fill="#333333"/>
<path d="M510.442 599.3C519.446 599.866 528.45 600.433 537.454 600.999" stroke="#4D4D4D" stroke-linecap="round" stroke-linejoin="round"/>
<path d="M550.528 602.068L576.884 602.923L550.528 602.068Z" fill="#666666"/>
<path d="M550.528 602.068L576.884 602.923" stroke="#4D4D4D" stroke-linecap="round" stroke-linejoin="round"/>
<path d="M591.04 602.923H617.188H591.04Z" fill="#666666"/>
<path d="M591.04 602.923H617.188" stroke="#4D4D4D" stroke-linecap="round" stroke-linejoin="round"/>
<path d="M628.872 602.923H656.18H628.872Z" fill="#666666"/>
<path d="M628.872 602.923H656.18" stroke="#4D4D4D" stroke-linecap="round" stroke-linejoin="round"/>
<path d="M670.348 602.923C678.914 602.635 687.48 602.357 696.058 602.068L670.348 602.923Z" fill="#666666"/>
<path d="M670.348 602.923C678.914 602.635 687.48 602.357 696.058 602.068" stroke="#4D4D4D" stroke-linecap="round" stroke-linejoin="round"/>
<path d="M709.777 601.01C718.42 600.657 727.063 600.304 735.706 599.941L709.777 601.01Z" fill="#666666"/>
<path d="M709.777 601.01C718.42 600.657 727.063 600.304 735.706 599.941" stroke="#333333" stroke-linecap="round" stroke-linejoin="round"/>
<path d="M748.331 599.513C757.04 598.968 765.759 598.423 774.468 597.889L748.331 599.513Z" fill="#666666"/>
<path d="M748.331 599.513C757.04 598.968 765.759 598.423 774.468 597.889" stroke="#333333" stroke-linecap="round" stroke-linejoin="round"/>
<path d="M787.18 596.467C796.239 595.751 805.298 595.045 814.356 594.329L787.18 596.467Z" fill="#666666"/>
<path d="M787.18 596.467C796.239 595.751 805.298 595.045 814.356 594.329" stroke="#333333" stroke-linecap="round" stroke-linejoin="round"/>
<path d="M827.474 592.395C836.325 591.347 845.176 590.289 854.026 589.241L827.474 592.395Z" fill="#666666"/>
<path d="M827.474 592.395C836.325 591.347 845.176 590.289 854.026 589.241" stroke="#333333" stroke-linecap="round" stroke-linejoin="round"/>
<path d="M866.214 587.51L892.766 583.747L866.214 587.51Z" fill="#4D4D4D"/>
<path d="M866.214 587.51L892.766 583.747" stroke="#333333" stroke-linecap="round" stroke-linejoin="round"/>
<path d="M905.468 581.706C914.144 580.145 922.82 578.585 931.507 577.024L905.468 581.706Z" fill="#666666"/>
<path d="M905.468 581.706C914.144 580.145 922.82 578.585 931.507 577.024" stroke="#333333" stroke-linecap="round" stroke-linejoin="round"/>
<path d="M943.738 574.694C952.403 572.994 961.057 571.306 969.721 569.606L943.738 574.694Z" fill="#333333"/>
<path d="M943.738 574.694C952.403 572.994 961.057 571.306 969.721 569.606" stroke="#333333" stroke-linecap="round" stroke-linejoin="round"/>
<path d="M981.592 567.158L1007.42 560.542L981.592 567.158Z" fill="#333333"/>
<path d="M981.592 567.158L1007.42 560.542" stroke="#333333" stroke-linecap="round" stroke-linejoin="round"/>
<path d="M1018.98 558.618C1027.3 556.277 1035.64 553.936 1043.96 551.595" stroke="#666666" stroke-linecap="round" stroke-linejoin="round"/>
<path d="M1056.46 548.346C1064.6 545.898 1072.74 543.451 1080.88 540.992" stroke="#666666" stroke-linecap="round" stroke-linejoin="round"/>
<path d="M1092.51 537.85C1100.28 534.857 1108.07 531.864 1115.85 528.882" stroke="black" stroke-linecap="round" stroke-linejoin="round"/>
<path d="M1127.57 525.44C1135.51 522.191 1143.46 518.952 1151.41 515.703" stroke="black" stroke-linecap="round" stroke-linejoin="round"/>
<path d="M1162.45 511.406C1170.19 507.91 1177.95 504.404 1185.7 500.909" stroke="black" stroke-linecap="round" stroke-linejoin="round"/>
<path d="M1196.34 495.661C1203.11 491.653 1209.89 487.644 1216.66 483.636" stroke="black" stroke-linecap="round" stroke-linejoin="round"/>
<path d="M201.955 598.487C210.16 601.063 218.355 603.639 226.56 606.215" stroke="#4D4D4D" stroke-linecap="round" stroke-linejoin="round"/>
<path d="M238.42 609.817C247.347 612.18 256.274 614.553 265.191 616.915" stroke="#4D4D4D" stroke-linecap="round" stroke-linejoin="round"/>
<path d="M277.553 618.539C285.89 620.496 294.216 622.441 302.552 624.397" stroke="#4D4D4D" stroke-linecap="round" stroke-linejoin="round"/>
<path d="M314.926 626.887C323.459 628.587 331.993 630.297 340.516 631.997" stroke="#4D4D4D" stroke-linecap="round" stroke-linejoin="round"/>
<path d="M353.174 633.739C361.762 635.235 370.339 636.732 378.927 638.228" stroke="#4D4D4D" stroke-linecap="round" stroke-linejoin="round"/>
<path d="M392.143 639.96C400.83 641.168 409.506 642.365 418.193 643.573" stroke="#4D4D4D" stroke-linecap="round" stroke-linejoin="round"/>
<path d="M431.365 645.817C440.084 646.897 448.793 647.976 457.513 649.056" stroke="#4D4D4D" stroke-linecap="round" stroke-linejoin="round"/>
<path d="M470.466 650.424C479.393 651.461 488.321 652.498 497.237 653.535L470.466 650.424Z" fill="#333333"/>
<path d="M470.466 650.424C479.393 651.461 488.321 652.498 497.237 653.535" stroke="#4D4D4D" stroke-linecap="round" stroke-linejoin="round"/>
<path d="M510.442 655.159C519.446 655.662 528.45 656.153 537.454 656.656L510.442 655.159Z" fill="#333333"/>
<path d="M510.442 655.159C519.446 655.662 528.45 656.153 537.454 656.656" stroke="#4D4D4D" stroke-linecap="round" stroke-linejoin="round"/>
<path d="M549.642 657.896C558.722 658.355 567.803 658.804 576.884 659.264L549.642 657.896Z" fill="#333333"/>
<path d="M549.642 657.896C558.722 658.355 567.803 658.804 576.884 659.264" stroke="#4D4D4D" stroke-linecap="round" stroke-linejoin="round"/>
<path d="M588.273 659.894C597.583 660.14 606.882 660.397 616.193 660.643L588.273 659.894Z" fill="#333333"/>
<path d="M588.273 659.894C597.583 660.14 606.882 660.397 616.193 660.643" stroke="#4D4D4D" stroke-linecap="round" stroke-linejoin="round"/>
<path d="M628.872 661.391H656.18H628.872Z" fill="#333333"/>
<path d="M628.872 661.391H656.18" stroke="#4D4D4D" stroke-linecap="round" stroke-linejoin="round"/>
<path d="M668.214 661.883C677.492 662.086 686.769 662.299 696.047 662.502" stroke="#4D4D4D" stroke-linecap="round" stroke-linejoin="round"/>
<path d="M708.759 662.513H735.706" stroke="#333333" stroke-linecap="round" stroke-linejoin="round"/>
<path d="M748.331 661.883H775.179" stroke="#333333" stroke-linecap="round" stroke-linejoin="round"/>
<path d="M787.76 661.07C796.447 660.92 805.123 660.771 813.809 660.621L787.76 661.07Z" fill="#333333"/>
<path d="M787.76 661.07C796.447 660.92 805.123 660.771 813.809 660.621" stroke="#333333" stroke-linecap="round" stroke-linejoin="round"/>
<path d="M827.934 659.339C836.314 659.157 844.683 658.965 853.064 658.783L827.934 659.339Z" fill="#666666"/>
<path d="M827.934 659.339C836.314 659.157 844.683 658.965 853.064 658.783" stroke="#333333" stroke-linecap="round" stroke-linejoin="round"/>
<path d="M865.952 657.062C874.704 656.88 883.467 656.688 892.22 656.506L865.952 657.062Z" fill="#666666"/>
<path d="M865.952 657.062C874.704 656.88 883.467 656.688 892.22 656.506" stroke="#333333" stroke-linecap="round" stroke-linejoin="round"/>
<path d="M905.468 653.385C913.674 653.128 921.879 652.872 930.095 652.615L905.468 653.385Z" fill="#666666"/>
<path d="M905.468 653.385C913.674 653.128 921.879 652.872 930.095 652.615" stroke="#333333" stroke-linecap="round" stroke-linejoin="round"/>
<path d="M943.738 649.922C952.282 649.227 960.827 648.522 969.371 647.827L943.738 649.922Z" fill="#666666"/>
<path d="M943.738 649.922C952.282 649.227 960.827 648.522 969.371 647.827" stroke="#333333" stroke-linecap="round" stroke-linejoin="round"/>
<path d="M981.876 644.684C990.443 643.637 999.02 642.589 1007.59 641.542L981.876 644.684Z" fill="#666666"/>
<path d="M981.876 644.684C990.443 643.637 999.02 642.589 1007.59 641.542" stroke="#333333" stroke-linecap="round" stroke-linejoin="round"/>
<path d="M1020.62 639.286C1028.97 638.185 1037.34 637.074 1045.7 635.973L1020.62 639.286Z" fill="#666666"/>
<path d="M1020.62 639.286C1028.97 638.185 1037.34 637.074 1045.7 635.973" stroke="#666666" stroke-linecap="round" stroke-linejoin="round"/>
<path d="M1059.36 632.649C1067.99 631.024 1076.62 629.389 1085.24 627.764L1059.36 632.649Z" fill="#666666"/>
<path d="M1059.36 632.649C1067.99 631.024 1076.62 629.389 1085.24 627.764" stroke="#666666" stroke-width="2" stroke-linecap="round" stroke-linejoin="round"/>
<path d="M1097.3 624.803C1105.93 622.879 1114.56 620.966 1123.18 619.042L1097.3 624.803Z" fill="#666666"/>
<path d="M1097.3 624.803C1105.93 622.879 1114.56 620.966 1123.18 619.042" stroke="black" stroke-linecap="round" stroke-linejoin="round"/>
<path d="M1135.06 615.557C1143.58 613.291 1152.09 611.025 1160.6 608.759" stroke="black" stroke-linecap="round" stroke-linejoin="round"/>
<path d="M1171.75 605.788C1179.9 603.351 1188.05 600.903 1196.21 598.466" stroke="black" stroke-linecap="round" stroke-linejoin="round"/>
<path d="M1208.27 594.361C1216.42 591.625 1224.57 588.899 1232.73 586.163" stroke="black" stroke-linecap="round" stroke-linejoin="round"/>
<path d="M1244.06 582.593C1253.06 578.456 1261.1 575.26 1267.8 572.823C1272.51 571.113 1274.57 570.493 1278.88 568.901C1288.1 565.48 1295.91 561.921 1302.18 558.778" stroke="black" stroke-linecap="round" stroke-linejoin="round"/>
<path d="M1312.98 554.503L1334.85 543.077" stroke="black" stroke-linecap="round" stroke-linejoin="round"/>
<path d="M1345.92 538.106C1353.36 533.98 1360.8 529.854 1368.24 525.718" stroke="black" stroke-linecap="round" stroke-linejoin="round"/>
<path d="M1378.14 519.796C1384.8 515.115 1391.47 510.433 1398.14 505.751" stroke="black" stroke-linecap="round" stroke-linejoin="round"/>
<path d="M1406.62 498.162C1412.57 493.16 1418.52 488.157 1424.47 483.166" stroke="black" stroke-linecap="round" stroke-linejoin="round"/>
<path d="M1432.27 475.053L1444.07 459.597" stroke="black" stroke-linecap="round" stroke-linejoin="round"/>
<path d="M1218.84 280.645C1210.76 277.887 1202.7 275.13 1194.62 272.383" stroke="black" stroke-linecap="round" stroke-linejoin="round"/>
<path d="M1182.63 268.481C1174.18 265.873 1165.71 263.276 1157.25 260.668L1182.63 268.481Z" fill="#666666"/>
<path d="M1182.63 268.481C1174.18 265.873 1165.71 263.276 1157.25 260.668" stroke="#4D4D4D" stroke-linecap="round" stroke-linejoin="round"/>
<path d="M1145.26 256.991L1121.52 251.251L1145.26 256.991Z" fill="#666666"/>
<path d="M1145.26 256.991L1121.52 251.251" stroke="#4D4D4D" stroke-linecap="round" stroke-linejoin="round"/>
<path d="M1109.3 248.493C1100.6 246.43 1091.9 244.357 1083.21 242.294L1109.3 248.493Z" fill="#666666"/>
<path d="M1109.3 248.493C1100.6 246.43 1091.9 244.357 1083.21 242.294" stroke="#4D4D4D" stroke-linecap="round" stroke-linejoin="round"/>
<path d="M1070.75 240.231C1062.2 238.467 1053.67 236.714 1045.12 234.951L1070.75 240.231Z" fill="#666666"/>
<path d="M1070.75 240.231C1062.2 238.467 1053.67 236.714 1045.12 234.951" stroke="#4D4D4D" stroke-linecap="round" stroke-linejoin="round"/>
<path d="M1032.43 232.652C1023.73 231.124 1015.04 229.595 1006.34 228.056L1032.43 232.652Z" fill="#666666"/>
<path d="M1032.43 232.652C1023.73 231.124 1015.04 229.595 1006.34 228.056" stroke="#4D4D4D" stroke-linecap="round" stroke-linejoin="round"/>
<path d="M994.72 226.677C985.826 225.299 976.92 223.92 968.026 222.541L994.72 226.677Z" fill="#666666"/>
<path d="M994.72 226.677C985.826 225.299 976.92 223.92 968.026 222.541" stroke="#4D4D4D" stroke-linecap="round" stroke-linejoin="round"/>
<path d="M955.466 220.991C946.528 219.794 937.578 218.597 928.64 217.399L955.466 220.991Z" fill="#666666"/>
<path d="M955.466 220.991C946.528 219.794 937.578 218.597 928.64 217.399" stroke="#4D4D4D" stroke-linecap="round" stroke-linejoin="round"/>
<path d="M915.763 215.604C906.825 214.717 897.876 213.84 888.937 212.953L915.763 215.604Z" fill="#666666"/>
<path d="M915.763 215.604C906.825 214.717 897.876 213.84 888.937 212.953" stroke="#4D4D4D" stroke-linecap="round" stroke-linejoin="round"/>
<path d="M876.148 211.531L848.939 209.351L876.148 211.531Z" fill="#666666"/>
<path d="M876.148 211.531L848.939 209.351" stroke="#4D4D4D" stroke-linecap="round" stroke-linejoin="round"/>
<path d="M837.025 207.651C828.152 207.021 819.269 206.39 810.396 205.759L837.025 207.651Z" fill="#666666"/>
<path d="M837.025 207.651C828.152 207.021 819.269 206.39 810.396 205.759" stroke="#4D4D4D" stroke-linecap="round" stroke-linejoin="round"/>
<path d="M797.421 204.626C788.865 204.37 780.31 204.124 771.754 203.867L797.421 204.626Z" fill="#666666"/>
<path d="M797.421 204.626C788.865 204.37 780.31 204.124 771.754 203.867" stroke="#4D4D4D" stroke-linecap="round" stroke-linejoin="round"/>
<path d="M758.101 202.542C748.933 202.253 739.765 201.976 730.596 201.687L758.101 202.542Z" fill="#666666"/>
<path d="M758.101 202.542C748.933 202.253 739.765 201.976 730.596 201.687" stroke="#4D4D4D" stroke-linecap="round" stroke-linejoin="round"/>
<path d="M717.523 200.939C708.508 200.853 699.493 200.757 690.478 200.672L717.523 200.939Z" fill="#666666"/>
<path d="M717.523 200.939C708.508 200.853 699.493 200.757 690.478 200.672" stroke="#4D4D4D" stroke-linecap="round" stroke-linejoin="round"/>
<path d="M677.306 199.849H648.095H677.306Z" fill="#666666"/>
<path d="M677.306 199.849H648.095" stroke="#4D4D4D" stroke-linecap="round" stroke-linejoin="round"/>
<path d="M635.852 199.849H608.031H635.852Z" fill="#666666"/>
<path d="M635.852 199.849H608.031" stroke="#4D4D4D" stroke-linecap="round" stroke-linejoin="round"/>
<path d="M591.927 199.849C583.502 200.116 575.078 200.383 566.654 200.661L591.927 199.849Z" fill="#666666"/>
<path d="M591.927 199.849C583.502 200.116 575.078 200.383 566.654 200.661" stroke="#4D4D4D" stroke-linecap="round" stroke-linejoin="round"/>
<path d="M551.294 202.072C542.137 202.403 532.991 202.745 523.833 203.077L551.294 202.072Z" fill="#666666"/>
<path d="M551.294 202.072C542.137 202.403 532.991 202.745 523.833 203.077" stroke="#4D4D4D" stroke-linecap="round" stroke-linejoin="round"/>
<path d="M507.74 204.381C500.355 204.712 492.97 205.054 485.597 205.385L507.74 204.381Z" fill="#666666"/>
<path d="M507.74 204.381C500.355 204.712 492.97 205.054 485.597 205.385" stroke="#333333" stroke-linecap="round" stroke-linejoin="round"/>
<path d="M346.609 220.681C338.59 222.199 330.582 223.717 322.562 225.224L346.609 220.681Z" fill="#666666"/>
<path d="M346.609 220.681C338.59 222.199 330.582 223.717 322.562 225.224" stroke="black" stroke-linecap="round" stroke-linejoin="round"/>
<path d="M306.994 227.297C298.854 228.965 290.704 230.643 282.564 232.31L306.994 227.297Z" fill="#666666"/>
<path d="M306.994 227.297C298.854 228.965 290.704 230.643 282.564 232.31" stroke="black" stroke-linecap="round" stroke-linejoin="round"/>
<path d="M266.821 235.089C258.944 236.949 251.056 238.798 243.179 240.658L266.821 235.089Z" fill="#666666"/>
<path d="M266.821 235.089C258.944 236.949 251.056 238.798 243.179 240.658" stroke="black" stroke-linecap="round" stroke-linejoin="round"/>
<path d="M229.755 243.726C221.298 245.949 212.841 248.183 204.384 250.407L229.755 243.726Z" fill="#666666"/>
<path d="M229.755 243.726C221.298 245.949 212.841 248.183 204.384 250.407" stroke="black" stroke-linecap="round" stroke-linejoin="round"/>
<path d="M1422.13 318.28C1416.24 313.887 1410.36 309.505 1404.47 305.112" stroke="black" stroke-linecap="round" stroke-linejoin="round"/>
<path d="M1395.33 298.153C1388.2 293.664 1381.08 289.175 1373.95 284.685" stroke="black" stroke-linecap="round" stroke-linejoin="round"/>
<path d="M1364.35 279.544C1356.76 275.557 1349.18 271.57 1341.59 267.594" stroke="black" stroke-linecap="round" stroke-linejoin="round"/>
<path d="M1331.98 262.902C1323.78 259.225 1315.56 255.537 1307.35 251.86L1331.98 262.902Z" fill="#666666"/>
<path d="M1331.98 262.902C1323.78 259.225 1315.56 255.537 1307.35 251.86" stroke="#4D4D4D" stroke-linecap="round" stroke-linejoin="round"/>
<path d="M1295.9 247.916L1272.66 238.841L1295.9 247.916Z" fill="#666666"/>
<path d="M1295.9 247.916L1272.66 238.841" stroke="#4D4D4D" stroke-linecap="round" stroke-linejoin="round"/>
<path d="M1261.36 234.608C1253.1 231.936 1244.84 229.264 1236.58 226.592L1261.36 234.608Z" fill="#666666"/>
<path d="M1261.36 234.608C1253.1 231.936 1244.84 229.264 1236.58 226.592" stroke="#4D4D4D" stroke-linecap="round" stroke-linejoin="round"/>
<path d="M1224.81 222.348C1216.34 219.976 1207.87 217.603 1199.4 215.24L1224.81 222.348Z" fill="#666666"/>
<path d="M1224.81 222.348C1216.34 219.976 1207.87 217.603 1199.4 215.24" stroke="#4D4D4D" stroke-linecap="round" stroke-linejoin="round"/>
<path d="M1187.48 212.205C1178.86 209.981 1170.24 207.769 1161.62 205.546L1187.48 212.205Z" fill="#666666"/>
<path d="M1187.48 212.205C1178.86 209.981 1170.24 207.769 1161.62 205.546" stroke="#4D4D4D" stroke-linecap="round" stroke-linejoin="round"/>
<path d="M1150.15 202.521C1141.27 200.404 1132.39 198.288 1123.51 196.161L1150.15 202.521Z" fill="#666666"/>
<path d="M1150.15 202.521C1141.27 200.404 1132.39 198.288 1123.51 196.161" stroke="#4D4D4D" stroke-linecap="round" stroke-linejoin="round"/>
<path d="M1112.21 193.895C1103.64 192.185 1095.07 190.464 1086.5 188.753L1112.21 193.895Z" fill="#666666"/>
<path d="M1112.21 193.895C1103.64 192.185 1095.07 190.464 1086.5 188.753" stroke="#4D4D4D" stroke-linecap="round" stroke-linejoin="round"/>
<path d="M1074.1 186.787C1065.43 185.077 1056.75 183.356 1048.09 181.645L1074.1 186.787Z" fill="#666666"/>
<path d="M1074.1 186.787C1065.43 185.077 1056.75 183.356 1048.09 181.645" stroke="#4D4D4D" stroke-linecap="round" stroke-linejoin="round"/>
<path d="M1036.32 179.679C1027.64 178.118 1018.96 176.547 1010.3 174.986L1036.32 179.679Z" fill="#666666"/>
<path d="M1036.32 179.679C1027.64 178.118 1018.96 176.547 1010.3 174.986" stroke="#4D4D4D" stroke-linecap="round" stroke-linejoin="round"/>
<path d="M997.127 173.169C988.605 172.293 980.093 171.406 971.57 170.529L997.127 173.169Z" fill="#666666"/>
<path d="M997.127 173.169C988.605 172.293 980.093 171.406 971.57 170.529" stroke="#4D4D4D" stroke-linecap="round" stroke-linejoin="round"/>
<path d="M1059.36 688.466C1066.53 687.119 1073.7 685.783 1080.88 684.436" stroke="#666666" stroke-linecap="round" stroke-linejoin="round"/>
<path d="M1098.04 681.561L1120.56 678.204" stroke="black" stroke-linecap="round" stroke-linejoin="round"/>
<path d="M1135.06 673.961C1142.39 672.08 1149.71 670.198 1157.04 668.317" stroke="black" stroke-linecap="round" stroke-linejoin="round"/>
<path d="M1171.75 665.1C1179.08 662.684 1186.4 660.269 1193.73 657.853" stroke="black" stroke-linecap="round" stroke-linejoin="round"/>
<path d="M1206.51 655.491C1215.25 652.936 1223.99 650.381 1232.72 647.827" stroke="black" stroke-linecap="round" stroke-linejoin="round"/>
<path d="M1244.06 643.348C1251.94 640.761 1259.82 638.164 1267.69 635.577" stroke="black" stroke-linecap="round" stroke-linejoin="round"/>
<path d="M1279.98 631.345C1287.72 628.074 1295.45 624.814 1303.19 621.543" stroke="black" stroke-linecap="round" stroke-linejoin="round"/>
<path d="M1314.71 617.61C1322.57 614.146 1330.44 610.694 1338.3 607.231" stroke="black" stroke-linecap="round" stroke-linejoin="round"/>
<path d="M1348.73 602.998C1356.2 599.374 1363.68 595.762 1371.16 592.138" stroke="black" stroke-linecap="round" stroke-linejoin="round"/>
<path d="M1381.48 587.243C1388.91 583.234 1396.35 579.237 1403.8 575.228" stroke="black" stroke-linecap="round" stroke-linejoin="round"/>
<path d="M1414.53 569.66C1421.7 565.266 1428.88 560.884 1436.07 556.491" stroke="black" stroke-linecap="round" stroke-linejoin="round"/>
<path d="M1444.51 551.692C1451.2 546.86 1457.89 542.018 1464.58 537.187" stroke="black" stroke-linecap="round" stroke-linejoin="round"/>
<path d="M1473.73 531.992C1480.02 526.936 1486.32 521.87 1492.61 516.814" stroke="black" stroke-linecap="round" stroke-linejoin="round"/>
<path d="M1501.56 508.84C1507.09 503.4 1512.64 497.948 1518.18 492.508" stroke="black" stroke-linecap="round" stroke-linejoin="round"/>
<path d="M1524.57 485.015C1529.25 479.115 1533.94 473.225 1538.62 467.325" stroke="black" stroke-linecap="round" stroke-linejoin="round"/>
<path d="M957.632 168.156C948.913 167.013 940.182 165.869 931.463 164.725L957.632 168.156Z" fill="#666666"/>
<path d="M957.632 168.156C948.913 167.013 940.182 165.869 931.463 164.725" stroke="#4D4D4D" stroke-linecap="round" stroke-linejoin="round"/>
<path d="M1494.96 291.419C1488.81 286.449 1482.67 281.479 1476.53 276.509" stroke="black" stroke-linecap="round" stroke-linejoin="round"/>
<path d="M1466.8 269.807C1459.72 265.114 1452.65 260.422 1445.58 255.74L1466.8 269.807Z" fill="#666666"/>
<path d="M1466.8 269.807C1459.72 265.114 1452.65 260.422 1445.58 255.74" stroke="#4D4D4D" stroke-linecap="round" stroke-linejoin="round"/>
<path d="M1435.89 250.268L1414.72 238.018L1435.89 250.268Z" fill="#666666"/>
<path d="M1435.89 250.268L1414.72 238.018" stroke="#4D4D4D" stroke-linecap="round" stroke-linejoin="round"/>
<path d="M1404.7 233.625C1396.91 229.756 1389.11 225.876 1381.32 222.006L1404.7 233.625Z" fill="#666666"/>
<path d="M1404.7 233.625C1396.91 229.756 1389.11 225.876 1381.32 222.006" stroke="#4D4D4D" stroke-linecap="round" stroke-linejoin="round"/>
<path d="M1370.13 218.426C1362.14 214.706 1354.16 210.986 1346.17 207.256L1370.13 218.426Z" fill="#666666"/>
<path d="M1370.13 218.426C1362.14 214.706 1354.16 210.986 1346.17 207.256" stroke="#4D4D4D" stroke-linecap="round" stroke-linejoin="round"/>
<path d="M1335.67 203.782C1327.36 200.458 1319.07 197.134 1310.77 193.809L1335.67 203.782Z" fill="#666666"/>
<path d="M1335.67 203.782C1327.36 200.458 1319.07 197.134 1310.77 193.809" stroke="#4D4D4D" stroke-linecap="round" stroke-linejoin="round"/>
<path d="M1299.52 190.678C1291.16 187.738 1282.8 184.788 1274.45 181.849L1299.52 190.678Z" fill="#666666"/>
<path d="M1299.52 190.678C1291.16 187.738 1282.8 184.788 1274.45 181.849" stroke="#4D4D4D" stroke-linecap="round" stroke-linejoin="round"/>
<path d="M1263.13 178.834C1254.6 176.045 1246.07 173.255 1237.53 170.465L1263.13 178.834Z" fill="#666666"/>
<path d="M1263.13 178.834C1254.6 176.045 1246.07 173.255 1237.53 170.465" stroke="#4D4D4D" stroke-linecap="round" stroke-linejoin="round"/>
<path d="M423.515 264.004C423.099 264.004 422.761 263.882 422.501 263.639C422.258 263.379 422.136 263.058 422.136 262.677L422.119 247.129C422.119 246.747 422.248 246.435 422.508 246.193C422.768 245.933 423.08 245.804 423.444 245.804L432.232 245.815C432.613 245.815 432.925 245.937 433.168 246.18C433.428 246.423 433.559 246.727 433.559 247.091C433.559 247.42 433.43 247.706 433.17 247.948C432.927 248.19 432.616 248.311 432.234 248.311L424.642 248.302L424.824 248.042L424.83 253.84L424.674 253.528L431.07 253.535C431.451 253.536 431.763 253.658 432.006 253.901C432.267 254.144 432.397 254.447 432.397 254.811C432.398 255.14 432.268 255.426 432.008 255.669C431.766 255.911 431.454 256.032 431.073 256.031L424.625 256.024L424.832 255.816L424.84 262.68C424.84 263.061 424.71 263.382 424.451 263.641C424.191 263.884 423.879 264.005 423.515 264.004ZM449.217 257.198C449.219 258.584 448.917 259.815 448.311 260.888C447.706 261.945 446.883 262.776 445.844 263.381C444.805 263.987 443.635 264.289 442.335 264.287C441.035 264.286 439.865 263.981 438.824 263.373C437.783 262.765 436.95 261.932 436.325 260.874C435.717 259.798 435.413 258.567 435.411 257.181C435.41 255.777 435.712 254.546 436.317 253.49C436.94 252.416 437.771 251.576 438.811 250.971C439.85 250.348 441.02 250.038 442.32 250.039C443.62 250.041 444.79 250.354 445.831 250.979C446.871 251.587 447.696 252.429 448.303 253.504C448.911 254.563 449.216 255.794 449.217 257.198ZM446.617 257.194C446.616 256.241 446.425 255.418 446.043 254.724C445.661 254.013 445.14 253.457 444.481 253.058C443.839 252.641 443.12 252.432 442.322 252.431C441.525 252.43 440.797 252.637 440.139 253.053C439.481 253.45 438.961 254.004 438.581 254.715C438.2 255.407 438.01 256.231 438.011 257.184C438.012 258.103 438.204 258.917 438.586 259.629C438.968 260.34 439.489 260.895 440.148 261.295C440.807 261.694 441.535 261.894 442.332 261.895C443.13 261.896 443.849 261.698 444.49 261.3C445.148 260.902 445.667 260.348 446.048 259.638C446.429 258.928 446.618 258.113 446.617 257.194ZM453.468 264.041C453.086 264.04 452.774 263.919 452.531 263.676C452.288 263.415 452.167 263.094 452.166 262.713L452.154 251.689C452.154 251.308 452.275 250.996 452.517 250.754C452.76 250.494 453.072 250.364 453.453 250.365C453.817 250.365 454.12 250.496 454.363 250.756C454.624 250.999 454.754 251.311 454.754 251.692L454.757 254.604L454.496 253.486C454.634 253.001 454.842 252.55 455.119 252.135C455.413 251.719 455.759 251.356 456.158 251.044C456.556 250.733 456.998 250.49 457.483 250.318C457.985 250.145 458.505 250.059 459.043 250.06C459.493 250.06 459.883 250.182 460.213 250.425C460.542 250.668 460.707 250.972 460.708 251.336C460.708 251.804 460.587 252.15 460.345 252.375C460.103 252.583 459.834 252.687 459.539 252.686C459.279 252.686 459.028 252.634 458.785 252.529C458.542 252.408 458.256 252.347 457.927 252.346C457.563 252.346 457.19 252.441 456.809 252.631C456.428 252.821 456.082 253.107 455.77 253.488C455.459 253.851 455.208 254.284 455.018 254.787C454.845 255.289 454.759 255.852 454.759 256.476L454.766 262.716C454.767 263.098 454.637 263.418 454.377 263.678C454.135 263.92 453.832 264.041 453.468 264.041ZM462.226 261.919C462.07 261.677 462.001 261.399 462.018 261.087C462.035 260.758 462.216 260.481 462.563 260.256C462.805 260.1 463.056 260.04 463.316 260.075C463.594 260.092 463.854 260.223 464.097 260.466C464.583 261.004 465.121 261.429 465.71 261.742C466.317 262.054 467.045 262.211 467.895 262.212C468.241 262.195 468.597 262.144 468.961 262.058C469.324 261.954 469.636 261.781 469.896 261.539C470.156 261.279 470.285 260.907 470.285 260.421C470.284 259.988 470.145 259.641 469.868 259.381C469.59 259.12 469.226 258.912 468.775 258.755C468.324 258.582 467.839 258.425 467.319 258.286C466.764 258.129 466.2 257.955 465.628 257.764C465.073 257.572 464.57 257.329 464.119 257.034C463.668 256.721 463.295 256.322 463 255.836C462.722 255.351 462.583 254.753 462.582 254.042C462.581 253.227 462.806 252.525 463.256 251.937C463.723 251.348 464.321 250.889 465.048 250.561C465.793 250.232 466.599 250.069 467.466 250.07C467.968 250.07 468.497 250.14 469.052 250.28C469.607 250.402 470.144 250.602 470.665 250.88C471.185 251.158 471.636 251.522 472.018 251.973C472.191 252.199 472.287 252.468 472.305 252.78C472.34 253.092 472.201 253.369 471.889 253.611C471.682 253.784 471.43 253.862 471.136 253.844C470.841 253.827 470.598 253.731 470.407 253.557C470.078 253.141 469.653 252.82 469.132 252.594C468.612 252.351 468.023 252.229 467.364 252.228C467.035 252.227 466.688 252.279 466.324 252.382C465.978 252.469 465.683 252.633 465.441 252.875C465.198 253.118 465.077 253.473 465.078 253.941C465.078 254.374 465.217 254.721 465.495 254.981C465.79 255.242 466.171 255.459 466.64 255.633C467.108 255.807 467.619 255.963 468.174 256.103C468.712 256.242 469.24 256.407 469.761 256.599C470.298 256.79 470.775 257.042 471.192 257.354C471.625 257.65 471.972 258.04 472.233 258.526C472.511 258.994 472.65 259.592 472.651 260.32C472.652 261.169 472.401 261.897 471.899 262.503C471.414 263.092 470.791 263.542 470.028 263.853C469.283 264.164 468.495 264.319 467.663 264.318C466.675 264.317 465.687 264.142 464.698 263.794C463.727 263.429 462.903 262.804 462.226 261.919ZM477.893 262.745C477.894 263.126 477.773 263.446 477.53 263.706C477.288 263.948 476.976 264.069 476.595 264.069C476.231 264.068 475.919 263.947 475.658 263.704C475.415 263.443 475.294 263.123 475.293 262.741L475.281 251.613C475.281 251.232 475.402 250.92 475.644 250.678C475.904 250.418 476.216 250.288 476.58 250.289C476.961 250.289 477.273 250.42 477.516 250.68C477.759 250.923 477.881 251.235 477.881 251.617L477.893 262.745ZM476.552 248.573C476.049 248.572 475.685 248.485 475.46 248.312C475.234 248.121 475.121 247.809 475.121 247.375L475.12 246.959C475.12 246.526 475.241 246.223 475.483 246.05C475.726 245.877 476.09 245.79 476.575 245.791C477.095 245.792 477.468 245.887 477.693 246.078C477.919 246.252 478.032 246.547 478.032 246.963L478.033 247.379C478.033 247.829 477.912 248.141 477.67 248.314C477.445 248.487 477.072 248.574 476.552 248.573ZM492.577 244.848C492.959 244.849 493.271 244.971 493.514 245.214C493.757 245.457 493.878 245.777 493.879 246.176L493.897 262.764C493.897 263.145 493.776 263.466 493.534 263.726C493.291 263.968 492.979 264.089 492.598 264.088C492.234 264.088 491.922 263.966 491.662 263.723C491.419 263.463 491.297 263.142 491.297 262.761L491.295 260.889L491.841 260.916C491.841 261.228 491.711 261.583 491.452 261.981C491.21 262.362 490.872 262.734 490.439 263.098C490.006 263.461 489.495 263.764 488.906 264.006C488.317 264.231 487.684 264.342 487.008 264.342C485.812 264.34 484.737 264.036 483.783 263.428C482.829 262.803 482.075 261.961 481.519 260.903C480.963 259.828 480.684 258.597 480.683 257.21C480.681 255.823 480.957 254.602 481.511 253.545C482.064 252.471 482.809 251.631 483.744 251.026C484.697 250.403 485.754 250.092 486.915 250.094C487.643 250.094 488.319 250.217 488.943 250.46C489.585 250.703 490.14 251.016 490.608 251.398C491.077 251.78 491.441 252.188 491.702 252.621C491.962 253.038 492.093 253.437 492.093 253.818L491.287 253.895L491.279 246.173C491.278 245.792 491.399 245.48 491.642 245.237C491.902 244.978 492.213 244.848 492.577 244.848ZM487.292 261.95C488.124 261.951 488.843 261.744 489.449 261.329C490.073 260.913 490.557 260.351 490.903 259.64C491.249 258.93 491.422 258.124 491.421 257.223C491.42 256.322 491.246 255.515 490.898 254.804C490.551 254.093 490.065 253.529 489.44 253.113C488.816 252.696 488.096 252.487 487.282 252.486C486.484 252.485 485.774 252.692 485.15 253.107C484.544 253.523 484.059 254.085 483.696 254.796C483.35 255.506 483.178 256.312 483.179 257.213C483.18 258.114 483.354 258.921 483.701 259.632C484.066 260.343 484.552 260.907 485.159 261.323C485.784 261.74 486.494 261.949 487.292 261.95ZM503.911 264.362C502.472 264.36 501.224 264.064 500.166 263.474C499.108 262.866 498.284 262.041 497.693 261.001C497.12 259.943 496.833 258.738 496.831 257.386C496.83 255.86 497.132 254.561 497.737 253.487C498.36 252.395 499.165 251.564 500.152 250.994C501.14 250.406 502.188 250.112 503.298 250.114C504.147 250.115 504.953 250.289 505.716 250.636C506.479 250.967 507.156 251.436 507.746 252.043C508.353 252.633 508.83 253.336 509.178 254.151C509.525 254.948 509.708 255.824 509.727 256.777C509.71 257.124 509.571 257.41 509.312 257.635C509.052 257.86 508.749 257.972 508.402 257.972L498.288 257.959L497.662 255.749L507.438 255.761L506.944 256.228L506.943 255.578C506.908 254.971 506.708 254.442 506.344 253.991C505.979 253.523 505.528 253.167 504.991 252.924C504.453 252.663 503.889 252.532 503.3 252.532C502.78 252.531 502.278 252.617 501.792 252.79C501.325 252.945 500.9 253.205 500.519 253.568C500.156 253.932 499.861 254.417 499.637 255.023C499.429 255.612 499.326 256.349 499.327 257.233C499.328 258.186 499.528 259.018 499.928 259.729C500.327 260.441 500.865 260.996 501.542 261.395C502.218 261.778 502.964 261.969 503.778 261.97C504.42 261.971 504.948 261.911 505.364 261.79C505.78 261.652 506.126 261.488 506.404 261.297C506.681 261.107 506.923 260.925 507.131 260.752C507.391 260.596 507.651 260.519 507.911 260.519C508.223 260.519 508.483 260.632 508.691 260.858C508.899 261.066 509.004 261.318 509.004 261.612C509.004 261.994 508.814 262.34 508.433 262.652C507.965 263.102 507.316 263.5 506.484 263.845C505.67 264.191 504.812 264.363 503.911 264.362Z" fill="black"/>
<path d="M710.824 369.008C710.472 369.008 710.186 368.905 709.965 368.699C709.76 368.479 709.657 368.208 709.657 367.885L709.642 354.707L711.996 354.71L712.011 367.888C712.011 368.21 711.894 368.482 711.659 368.701C711.44 368.906 711.161 369.009 710.824 369.008ZM705.816 355.714C705.508 355.714 705.243 355.618 705.023 355.427C704.803 355.222 704.693 354.957 704.692 354.635C704.692 354.327 704.802 354.078 705.022 353.887C705.241 353.697 705.505 353.602 705.813 353.602L715.823 353.614C716.131 353.615 716.388 353.718 716.594 353.923C716.814 354.114 716.924 354.364 716.924 354.672C716.925 354.994 716.815 355.251 716.595 355.441C716.39 355.632 716.133 355.727 715.825 355.726L705.816 355.714ZM727.831 366.983C728.124 366.983 728.366 367.086 728.557 367.292C728.763 367.483 728.865 367.725 728.866 368.018C728.866 368.312 728.764 368.553 728.559 368.744C728.368 368.934 728.126 369.029 727.833 369.029L720.111 369.02C719.788 369.019 719.531 368.924 719.341 368.733C719.15 368.542 719.054 368.285 719.054 367.962C719.053 367.669 719.156 367.405 719.361 367.171L724.261 361.875C724.891 361.201 725.374 360.534 725.711 359.874C726.062 359.215 726.238 358.636 726.237 358.137C726.236 357.33 725.994 356.677 725.509 356.178C725.025 355.679 724.386 355.429 723.594 355.428C723.257 355.427 722.912 355.508 722.561 355.669C722.223 355.815 721.901 356.02 721.593 356.283C721.3 356.532 721.044 356.825 720.824 357.162C720.678 357.368 720.531 357.499 720.385 357.558C720.238 357.616 720.099 357.646 719.967 357.645C719.688 357.645 719.431 357.549 719.196 357.359C718.976 357.153 718.866 356.918 718.866 356.654C718.865 356.449 718.931 356.251 719.063 356.06C719.195 355.87 719.363 355.672 719.568 355.467C719.891 355.071 720.279 354.72 720.733 354.412C721.202 354.09 721.693 353.842 722.206 353.666C722.72 353.491 723.225 353.403 723.724 353.404C724.692 353.405 725.528 353.597 726.233 353.979C726.952 354.361 727.502 354.897 727.884 355.587C728.281 356.277 728.48 357.091 728.481 358.03C728.482 358.822 728.241 359.702 727.758 360.669C727.29 361.622 726.631 362.56 725.781 363.483L722.375 367.196L722.133 366.976L727.831 366.983Z" fill="black"/>
<path d="M916.823 374.007C916.471 374.007 916.185 373.904 915.965 373.698C915.759 373.478 915.657 373.206 915.656 372.884L915.642 359.706L917.996 359.709L918.01 372.887C918.011 373.209 917.893 373.48 917.659 373.7C917.439 373.905 917.161 374.007 916.823 374.007ZM911.815 360.713C911.507 360.713 911.243 360.617 911.023 360.426C910.803 360.22 910.693 359.956 910.692 359.633C910.692 359.325 910.802 359.076 911.021 358.886C911.241 358.696 911.505 358.601 911.813 358.601L921.823 358.613C922.131 358.614 922.388 358.717 922.593 358.922C922.814 359.113 922.924 359.363 922.924 359.671C922.925 359.993 922.815 360.25 922.595 360.44C922.39 360.631 922.133 360.726 921.825 360.725L911.815 360.713ZM925.931 371.202C926.049 371.202 926.174 371.225 926.306 371.269C926.438 371.298 926.584 371.372 926.746 371.489C927.01 371.724 927.326 371.923 927.692 372.085C928.074 372.232 928.507 372.306 928.991 372.306C929.533 372.307 930.039 372.183 930.508 371.934C930.977 371.671 931.358 371.304 931.651 370.835C931.944 370.366 932.09 369.809 932.089 369.164C932.089 368.504 931.949 367.968 931.67 367.557C931.39 367.132 931.031 366.816 930.591 366.61C930.15 366.39 929.688 366.279 929.204 366.278C928.926 366.278 928.691 366.307 928.5 366.366C928.31 366.409 928.126 366.46 927.951 366.519C927.775 366.563 927.584 366.584 927.379 366.584C927.1 366.584 926.88 366.488 926.718 366.297C926.557 366.092 926.476 365.85 926.476 365.571C926.475 365.395 926.512 365.241 926.585 365.109C926.658 364.977 926.761 364.831 926.893 364.67L930.958 360.319L931.442 360.759L925.612 360.752C925.319 360.752 925.07 360.656 924.864 360.465C924.673 360.259 924.578 360.01 924.577 359.717C924.577 359.438 924.672 359.203 924.863 359.013C925.068 358.823 925.317 358.728 925.61 358.728L932.562 358.737C932.944 358.737 933.222 358.847 933.399 359.068C933.59 359.288 933.685 359.545 933.685 359.838C933.686 359.999 933.642 360.153 933.554 360.3C933.481 360.446 933.386 360.586 933.268 360.717L929.181 365.112L928.63 364.518C928.748 364.459 928.946 364.401 929.224 364.342C929.503 364.284 929.73 364.255 929.906 364.255C930.742 364.256 931.49 364.47 932.151 364.896C932.826 365.322 933.347 365.895 933.715 366.614C934.097 367.318 934.288 368.118 934.289 369.013C934.29 370.083 934.049 371.014 933.566 371.806C933.083 372.583 932.409 373.183 931.544 373.607C930.694 374.032 929.711 374.243 928.597 374.242C928.039 374.241 927.482 374.167 926.924 374.02C926.382 373.858 925.912 373.63 925.516 373.336C925.266 373.189 925.097 373.035 925.009 372.873C924.921 372.697 924.877 372.528 924.877 372.367C924.876 372.088 924.971 371.824 925.162 371.575C925.367 371.326 925.623 371.202 925.931 371.202Z" fill="black"/>
<path d="M1058.82 342.008C1058.47 342.008 1058.19 341.905 1057.97 341.699C1057.76 341.479 1057.66 341.208 1057.66 340.885L1057.64 327.707L1060 327.71L1060.01 340.888C1060.01 341.211 1059.89 341.482 1059.66 341.701C1059.44 341.907 1059.16 342.009 1058.82 342.008ZM1053.82 328.714C1053.51 328.714 1053.24 328.618 1053.02 328.427C1052.8 328.222 1052.69 327.958 1052.69 327.635C1052.69 327.327 1052.8 327.078 1053.02 326.887C1053.24 326.697 1053.51 326.602 1053.81 326.602L1063.82 326.615C1064.13 326.615 1064.39 326.718 1064.59 326.924C1064.81 327.115 1064.92 327.364 1064.92 327.672C1064.92 327.995 1064.81 328.251 1064.6 328.442C1064.39 328.632 1064.13 328.727 1063.83 328.727L1053.82 328.714ZM1074.05 342.027C1073.74 342.027 1073.49 341.924 1073.28 341.718C1073.07 341.498 1072.97 341.227 1072.97 340.904L1072.96 329.706L1073.36 329.838L1068.61 335.905L1068.5 335.618L1076.51 335.628C1076.8 335.629 1077.04 335.732 1077.23 335.937C1077.44 336.128 1077.54 336.37 1077.54 336.664C1077.54 336.942 1077.44 337.177 1077.24 337.367C1077.05 337.558 1076.8 337.653 1076.51 337.652L1066.98 337.641C1066.72 337.64 1066.47 337.537 1066.24 337.332C1066 337.111 1065.88 336.854 1065.88 336.561C1065.88 336.282 1065.98 336.033 1066.17 335.814L1073.15 327.066C1073.26 326.92 1073.39 326.81 1073.55 326.737C1073.71 326.664 1073.88 326.627 1074.06 326.627C1074.38 326.628 1074.64 326.738 1074.85 326.958C1075.05 327.164 1075.16 327.428 1075.16 327.751L1075.17 340.907C1075.17 341.229 1075.06 341.501 1074.84 341.72C1074.62 341.925 1074.36 342.028 1074.05 342.027Z" fill="black"/>
<path d="M1272.82 337.008C1272.47 337.008 1272.19 336.905 1271.97 336.699C1271.76 336.479 1271.66 336.208 1271.66 335.885L1271.64 322.707L1274 322.71L1274.01 335.888C1274.01 336.211 1273.89 336.482 1273.66 336.701C1273.44 336.907 1273.16 337.009 1272.82 337.008ZM1267.82 323.714C1267.51 323.714 1267.24 323.618 1267.02 323.427C1266.8 323.222 1266.69 322.958 1266.69 322.635C1266.69 322.327 1266.8 322.078 1267.02 321.887C1267.24 321.697 1267.51 321.602 1267.81 321.602L1277.82 321.615C1278.13 321.615 1278.39 321.718 1278.59 321.924C1278.81 322.115 1278.92 322.364 1278.92 322.672C1278.92 322.995 1278.81 323.251 1278.6 323.442C1278.39 323.632 1278.13 323.727 1277.83 323.727L1267.82 323.714ZM1284.9 337.177C1284.33 337.177 1283.74 337.088 1283.12 336.911C1282.52 336.734 1282.01 336.47 1281.58 336.117C1281.42 335.985 1281.3 335.816 1281.21 335.611C1281.12 335.405 1281.07 335.207 1281.07 335.017C1281.07 334.811 1281.16 334.613 1281.34 334.423C1281.53 334.218 1281.78 334.116 1282.11 334.116C1282.34 334.116 1282.61 334.234 1282.92 334.469C1283.22 334.66 1283.52 334.822 1283.85 334.954C1284.18 335.086 1284.53 335.153 1284.88 335.153C1285.64 335.154 1286.3 335.016 1286.86 334.738C1287.42 334.46 1287.84 334.072 1288.13 333.573C1288.44 333.06 1288.6 332.467 1288.59 331.792C1288.59 331.161 1288.45 330.626 1288.18 330.185C1287.9 329.73 1287.51 329.378 1287.03 329.128C1286.56 328.878 1286.03 328.753 1285.45 328.752C1284.96 328.751 1284.54 328.832 1284.17 328.992C1283.8 329.139 1283.47 329.292 1283.18 329.453C1282.89 329.6 1282.62 329.673 1282.37 329.672C1281.99 329.672 1281.7 329.591 1281.51 329.429C1281.32 329.253 1281.19 329.047 1281.13 328.813C1281.09 328.563 1281.08 328.336 1281.11 328.131L1281.88 322.61C1281.92 322.36 1282.04 322.155 1282.23 321.994C1282.43 321.818 1282.68 321.731 1282.97 321.731L1289.42 321.739C1289.71 321.739 1289.96 321.842 1290.15 322.048C1290.35 322.239 1290.46 322.481 1290.46 322.774C1290.46 323.068 1290.35 323.309 1290.15 323.5C1289.96 323.69 1289.72 323.785 1289.42 323.785L1283.53 323.778L1283.77 323.58L1283.07 328.309L1282.74 327.649C1282.87 327.502 1283.09 327.363 1283.4 327.232C1283.72 327.085 1284.08 326.968 1284.48 326.881C1284.89 326.779 1285.3 326.728 1285.71 326.728C1286.68 326.73 1287.54 326.951 1288.3 327.392C1289.08 327.818 1289.69 328.413 1290.13 329.176C1290.57 329.939 1290.79 330.805 1290.79 331.773C1290.8 332.858 1290.56 333.811 1290.07 334.632C1289.59 335.438 1288.91 336.068 1288.03 336.521C1287.15 336.96 1286.11 337.179 1284.9 337.177Z" fill="black"/>
<path d="M1573.84 338.32C1573.84 339.434 1573.65 340.475 1573.29 341.443C1572.92 342.396 1572.4 343.231 1571.73 343.949C1571.07 344.667 1570.29 345.231 1569.38 345.64C1568.47 346.035 1567.47 346.232 1566.39 346.23C1565.31 346.229 1564.32 346.03 1563.41 345.633C1562.51 345.221 1561.71 344.655 1561.04 343.936C1560.38 343.216 1559.86 342.38 1559.49 341.426C1559.14 340.457 1558.96 339.416 1558.96 338.301C1558.96 337.186 1559.14 336.153 1559.49 335.2C1559.85 334.232 1560.37 333.39 1561.03 332.672C1561.7 331.954 1562.49 331.398 1563.4 331.003C1564.31 330.593 1565.3 330.389 1566.37 330.39C1567.45 330.392 1568.45 330.598 1569.36 331.01C1570.27 331.407 1571.06 331.965 1571.72 332.685C1572.39 333.404 1572.91 334.248 1573.28 335.217C1573.65 336.171 1573.83 337.205 1573.84 338.32ZM1571.46 338.317C1571.46 337.231 1571.24 336.256 1570.8 335.39C1570.37 334.524 1569.78 333.841 1569.01 333.342C1568.25 332.842 1567.37 332.592 1566.37 332.59C1565.39 332.589 1564.52 332.837 1563.75 333.335C1562.99 333.833 1562.4 334.514 1561.97 335.379C1561.55 336.229 1561.34 337.204 1561.34 338.304C1561.34 339.389 1561.55 340.365 1561.98 341.231C1562.41 342.097 1563 342.779 1563.76 343.279C1564.53 343.779 1565.4 344.029 1566.38 344.03C1567.38 344.032 1568.26 343.783 1569.02 343.286C1569.78 342.788 1570.38 342.107 1570.8 341.242C1571.24 340.377 1571.46 339.402 1571.46 338.317ZM1582.1 334.26C1583.18 334.261 1584.02 334.534 1584.61 335.077C1585.19 335.606 1585.58 336.325 1585.77 337.234L1585.42 337.124L1585.58 336.772C1585.77 336.391 1586.05 336.01 1586.43 335.629C1586.83 335.234 1587.3 334.912 1587.84 334.663C1588.38 334.4 1588.96 334.268 1589.58 334.269C1590.59 334.27 1591.37 334.491 1591.93 334.932C1592.49 335.358 1592.88 335.938 1593.1 336.671C1593.32 337.39 1593.43 338.197 1593.43 339.092L1593.44 344.922C1593.44 345.245 1593.34 345.516 1593.13 345.735C1592.93 345.941 1592.66 346.043 1592.34 346.042C1592.03 346.042 1591.77 345.939 1591.55 345.734C1591.34 345.513 1591.24 345.242 1591.24 344.919L1591.23 339.111C1591.23 338.598 1591.16 338.128 1591.01 337.703C1590.88 337.277 1590.64 336.94 1590.28 336.69C1589.95 336.426 1589.48 336.293 1588.88 336.292C1588.3 336.292 1587.79 336.423 1587.34 336.686C1586.9 336.935 1586.55 337.272 1586.3 337.697C1586.05 338.122 1585.93 338.591 1585.93 339.105L1585.94 344.913C1585.94 345.235 1585.83 345.506 1585.63 345.726C1585.42 345.931 1585.16 346.034 1584.84 346.033C1584.52 346.033 1584.25 345.93 1584.05 345.724C1583.84 345.504 1583.74 345.232 1583.74 344.91L1583.73 339.08C1583.73 338.567 1583.66 338.097 1583.51 337.672C1583.38 337.246 1583.14 336.908 1582.8 336.659C1582.47 336.409 1582 336.284 1581.4 336.283C1580.82 336.282 1580.32 336.406 1579.88 336.655C1579.44 336.904 1579.09 337.241 1578.84 337.666C1578.61 338.091 1578.49 338.56 1578.49 339.073L1578.5 344.903C1578.5 345.226 1578.39 345.497 1578.17 345.717C1577.97 345.922 1577.71 346.024 1577.4 346.024C1577.08 346.024 1576.81 345.921 1576.61 345.715C1576.4 345.495 1576.3 345.223 1576.3 344.901L1576.29 335.573C1576.29 335.25 1576.39 334.986 1576.6 334.781C1576.8 334.561 1577.07 334.452 1577.39 334.452C1577.7 334.452 1577.95 334.563 1578.16 334.783C1578.38 334.989 1578.49 335.253 1578.49 335.575L1578.49 336.873L1578.07 337.115C1578.18 336.792 1578.34 336.463 1578.58 336.125C1578.81 335.788 1579.11 335.481 1579.46 335.203C1579.82 334.924 1580.23 334.698 1580.67 334.522C1581.11 334.347 1581.58 334.259 1582.1 334.26ZM1604.01 330.635C1604.19 330.635 1604.37 330.679 1604.56 330.768C1604.75 330.856 1604.9 330.981 1605 331.142L1610.6 339.663L1609.65 339.618L1615.34 331.155C1615.58 330.818 1615.88 330.65 1616.24 330.65C1616.54 330.65 1616.79 330.761 1617.01 330.981C1617.25 331.187 1617.37 331.451 1617.37 331.774L1617.38 344.951C1617.38 345.274 1617.28 345.545 1617.07 345.765C1616.87 345.97 1616.6 346.073 1616.26 346.072C1615.91 346.072 1615.62 345.969 1615.4 345.763C1615.2 345.543 1615.09 345.271 1615.09 344.949L1615.08 333.795L1615.78 333.95L1610.95 341.314C1610.85 341.445 1610.72 341.563 1610.56 341.665C1610.4 341.753 1610.23 341.789 1610.05 341.774C1609.89 341.789 1609.72 341.752 1609.54 341.664C1609.38 341.561 1609.25 341.443 1609.15 341.311L1604.48 334.046L1605 333.166L1605.02 344.936C1605.02 345.259 1604.91 345.53 1604.71 345.75C1604.52 345.955 1604.26 346.057 1603.94 346.057C1603.63 346.056 1603.37 345.953 1603.17 345.748C1602.98 345.528 1602.88 345.256 1602.88 344.934L1602.87 331.756C1602.87 331.448 1602.98 331.184 1603.2 330.964C1603.43 330.744 1603.7 330.635 1604.01 330.635ZM1622.8 344.958C1622.8 345.281 1622.7 345.552 1622.49 345.772C1622.29 345.977 1622.02 346.079 1621.7 346.079C1621.39 346.078 1621.13 345.975 1620.91 345.77C1620.7 345.55 1620.6 345.278 1620.6 344.955L1620.59 335.539C1620.59 335.217 1620.69 334.953 1620.9 334.748C1621.12 334.528 1621.38 334.418 1621.69 334.419C1622.01 334.419 1622.27 334.53 1622.48 334.75C1622.68 334.955 1622.79 335.22 1622.79 335.542L1622.8 344.958ZM1621.66 332.967C1621.24 332.966 1620.93 332.893 1620.74 332.746C1620.55 332.584 1620.45 332.32 1620.45 331.953L1620.45 331.601C1620.45 331.235 1620.55 330.978 1620.76 330.832C1620.96 330.685 1621.27 330.612 1621.68 330.613C1622.12 330.613 1622.44 330.694 1622.63 330.856C1622.82 331.003 1622.92 331.252 1622.92 331.604L1622.92 331.956C1622.92 332.338 1622.81 332.602 1622.61 332.748C1622.42 332.894 1622.1 332.967 1621.66 332.967ZM1630.56 334.254C1631.19 334.255 1631.77 334.358 1632.3 334.564C1632.83 334.77 1633.29 335.035 1633.67 335.358C1634.06 335.666 1634.37 335.989 1634.59 336.327C1634.81 336.664 1634.92 336.958 1634.92 337.207L1634.42 337.229L1634.42 335.469C1634.42 335.161 1634.52 334.897 1634.72 334.677C1634.93 334.457 1635.19 334.348 1635.51 334.348C1635.84 334.348 1636.1 334.459 1636.31 334.679C1636.51 334.885 1636.62 335.149 1636.62 335.471L1636.63 345.173C1636.63 346.42 1636.36 347.432 1635.84 348.208C1635.31 349 1634.61 349.578 1633.73 349.944C1632.86 350.309 1631.91 350.491 1630.87 350.49C1630.5 350.49 1630.07 350.438 1629.57 350.335C1629.07 350.246 1628.61 350.135 1628.18 350.003C1627.77 349.87 1627.49 349.738 1627.32 349.606C1626.99 349.429 1626.76 349.224 1626.64 348.989C1626.54 348.754 1626.54 348.52 1626.64 348.285C1626.79 347.962 1626.99 347.765 1627.23 347.692C1627.48 347.619 1627.77 347.641 1628.09 347.759C1628.24 347.803 1628.47 347.884 1628.77 348.002C1629.08 348.119 1629.43 348.222 1629.81 348.311C1630.19 348.414 1630.55 348.466 1630.89 348.466C1632.06 348.468 1632.94 348.197 1633.53 347.655C1634.13 347.114 1634.43 346.373 1634.43 345.435L1634.42 343.455L1634.67 343.609C1634.62 343.917 1634.48 344.232 1634.25 344.554C1634.03 344.862 1633.74 345.148 1633.37 345.411C1633 345.675 1632.58 345.894 1632.09 346.07C1631.63 346.23 1631.14 346.311 1630.64 346.31C1629.6 346.309 1628.67 346.051 1627.85 345.536C1627.03 345.007 1626.37 344.295 1625.89 343.4C1625.4 342.49 1625.16 341.448 1625.16 340.275C1625.16 339.102 1625.4 338.068 1625.88 337.174C1626.36 336.265 1627.01 335.555 1627.82 335.042C1628.64 334.515 1629.55 334.253 1630.56 334.254ZM1630.9 336.278C1630.18 336.277 1629.55 336.453 1629 336.804C1628.46 337.155 1628.04 337.631 1627.73 338.232C1627.42 338.833 1627.27 339.515 1627.27 340.278C1627.27 341.04 1627.43 341.723 1627.73 342.324C1628.04 342.926 1628.47 343.403 1629.01 343.756C1629.56 344.109 1630.19 344.285 1630.9 344.286C1631.62 344.287 1632.25 344.119 1632.8 343.783C1633.34 343.431 1633.76 342.955 1634.07 342.354C1634.38 341.739 1634.53 341.049 1634.53 340.287C1634.53 339.524 1634.38 338.842 1634.07 338.24C1633.76 337.624 1633.33 337.147 1632.79 336.809C1632.25 336.456 1631.61 336.279 1630.9 336.278Z" fill="black"/>
</g>
<defs>
<clipPath id="clip0_17_1566">
<rect width="1752" height="689" fill="white" transform="translate(-115)"/>
</clipPath>
</defs>
</svg>
