<?xml version="1.0" encoding="UTF-8"?>
<svg id="Layer_1" data-name="Layer 1" xmlns="http://www.w3.org/2000/svg" width="1601.4" height="644.6" viewBox="0 0 1601.4 644.6">
  <path d="M554.03,255.12c11.52,1.21,40.46,4.57,70.39,24.43,11.03,7.32,28.18,18.98,40.99,41.41,13.48,23.6,14.37,45.46,14.49,50.52.12,5.27.3,29.6-14.49,55.49-14.25,24.94-34.29,37.15-47.41,44.93-6.16,3.65-36.68,21.15-80.54,21.95-13.34.24-45.91.44-80.54-18.63-12.19-6.71-34.55-19.4-50.31-46.17-4.37-7.42-15.1-26.18-15.53-52.79-.1-6.5.19-27.03,11.8-49.48,8.34-16.13,18.68-25.83,25.26-31.88,17.9-16.49,35.93-23.9,47.62-28.57,15.14-6.06,27.3-8.51,31.1-9.23,8.95-1.7,26.02-4.16,47.16-1.95Z" style="fill: #ffd278; stroke: #fff; stroke-linecap: round; stroke-linejoin: round; stroke-width: .25px;"/>
  <path d="M757.44,348.13c1.47-.24,15.17-2.17,22.4,9.75.94,1.55,5.63,9.69,3.23,18.78-2.84,10.79-13.27,13.76-15.81,14.48-8.95,2.55-16.31-1.74-19.29-3.87-2.97-2.12-7.05-5.04-8.75-10.9-2.96-10.25,4.18-19.87,4.67-20.51,4.86-6.35,11.2-7.37,13.54-7.74Z" style="fill: #ebd9c6; stroke: #fff; stroke-linecap: round; stroke-linejoin: round;"/>
  <path d="M837.33,347.05c2.3-1.47,12.64-7.67,25.2-3.65,2.07.66,14.88,4.76,19.26,17.93.62,1.87,3.05,9.5,0,17.61-2.37,6.33-6.84,9.66-9.85,11.9-1.37,1.02-5.52,3.94-11.62,5.39-8.61,2.05-15.41-.17-16.77-.63-1.99-.68-7.15-2.69-12.17-7.77-2.73-2.77-5.71-5.69-7.24-10.79-1.79-5.98-.5-11.21,0-13.13,2.63-10.09,10.53-15.16,13.18-16.85Z" style="fill: #a8ccb0; stroke: #fff; stroke-linecap: round; stroke-linejoin: round;"/>
  <path d="M937.37,356.67c.47-.37,2.75-2.1,6.2-3.1,6.38-1.84,14.11-.38,19.52,5.05,1.17,1.17,4.33,4.23,5.37,9.29,1.47,7.19-2.45,12.73-3.12,13.65-2.15,2.93-4.68,4.42-6.17,5.27-1.54.88-5.62,3.16-11.36,2.98-5.69-.18-9.65-2.7-10.43-3.21-2.17-1.42-6.41-4.21-7.95-9.52-2.26-7.82,2.73-16.35,7.95-20.41Z" style="fill: #dd8e6f; stroke: #fff; stroke-linecap: round; stroke-linejoin: round;"/>
  <path d="M1029.69,343.75c10.16-10.02,21.23-13.63,26.69-15.34,12.84-4.03,23.41-3.4,28.58-3.05,7.16.49,20.74,1.58,34.89,10.4,5.66,3.53,15.42,9.62,21.65,22.07,2.01,4.02,8.63,18.66,3.36,35.73-2.83,9.15-8.47,15.51-10.22,17.5-1.07,1.22-3.9,4.3-8.8,7.93-13.41,9.93-27.69,13.04-31.95,13.87-6.41,1.24-19.17,3.57-34.68-.84-4.74-1.35-16.42-4.82-27.32-15.24-4.4-4.21-12.52-12.17-15.97-25.54-1.15-4.44-3.82-17.35,2.21-31.32,3.52-8.16,8.49-13.16,11.56-16.18Z" style="fill: #f28f85; stroke: #f2f2f2; stroke-linecap: round; stroke-linejoin: round;"/>
  <path d="M1210.87,338.24c9.78-9.25,20.35-12.24,27.01-14.04,23.85-6.44,43.79,1.19,49.89,3.81,6.89,2.97,19.78,8.51,28.68,22.28,2.92,4.52,4.82,9.45,4.82,9.45s1.33,3.44,3.11,12.52c.08.4.12.98.12,1.23,0,0,0-.01,0,0,0,1.46.11,5.13-.09,8.85-.04.68-.05,1.03-.1,1.5-.25,2.91-.86,5.2-1.34,6.69-.73,1.95-1.84,4.73-3.68,7.79-2.78,4.63-7.46,10.71-15.02,16.54-.13.1-.27.21-.29.22,0,0-4.69,3.54-9.73,6.19-.03.02-.07.03-.1.05-.12.07-.22.12-.28.15,0,0-6.73,3.57-14.05,5.7-20.89,6.09-40.37.35-41.5,0-6.37-1.96-23.04-7.35-34.48-23.8-3.15-4.53-9.54-13.98-9.92-27.44-.59-21.13,14.12-35.04,16.94-37.71Z" style="fill: #c8b8e0; stroke: #f2f2f2; stroke-linecap: round; stroke-linejoin: round;"/>
  <path d="M1325.6,373.42c2.17,1.49,5.33,3.68,9.14,6.34,5.98,4.19,8.97,6.28,11.94,8.49,5.28,3.92,9.61,7.15,14.83,12.03,1.22,1.14,6.09,5.75,11.1,12.69,2.86,3.96,4.05,6.3,4.29,9.24.09,1.03.47,5.1-2.05,8.58-.7.97-2.75,3.44-9.51,5.04-7.86,1.86-14.43.73-15.39.56-27.95-5.07-55.26-14.33-55.26-14.33-13.04-4.42-19.56-6.63-21.06-7.21-21.17-8.1-36.11-16.63-46.2-22.43-13.68-7.86-23.96-13.12-39.3-25.88-1.41-1.18-16.77-12.68-27.99-26.72-1.8-2.25-5.97-5.98-6.61-11.85-.17-1.53-.68-4.75,1.07-7.75,0,0,1.77-3.05,6.29-4.78,14.83-5.69,47.05,6.01,49.17,6.79,5.95,2.18,10.93,4.27,14.7,5.93" style="fill: #c8b8e0; stroke: #f2f2f2; stroke-linecap: round; stroke-linejoin: round;"/>
  <path d="M1310.61,410.24c1.46.72,3.77,1.69,6.38,2.4,2.05.56,2.97,1.4,14.02,3.07,4.19.63,6.49.71,8.19-.67,1.23-1,1.63-2.36,1.71-2.67.33-1.24.63-3.51-3.21-8.13-1.72-2.07-3.82-4.6-7.81-8.23l-6.71-6.19-5.09,9.81c-2.49,3.54-4.99,7.08-7.49,10.62Z" style="fill: #c8b8e0; stroke: #f2f2f2; stroke-linecap: round; stroke-linejoin: round;"/>
  <path d="M1301.47,414.27c1.87.7,4.34,1.59,7.29,2.51,2.19.69,6.26,2.13,13.34,3.46,12.75,2.4,15.57,2.77,19,3.01,5.48.39,8.61.17,11.21-1.9.57-.45,2.56-2.03,3.27-4.71,1.01-3.81-1.24-7.29-3.66-10.92-1.82-2.73-4.02-5.33-9.35-10.13-2.77-2.5-6.57-5.76-11.31-9.35" style="fill: #c8b8e0; stroke: #f2f2f2; stroke-linecap: round; stroke-linejoin: round;"/>
  <path d="M1324.45,381.59c2.26,1.55,4.53,3.11,6.79,4.66" style="fill: #c8b8e0; stroke: #f2f2f2; stroke-linecap: round; stroke-linejoin: round;"/>
  <path d="M1304,415.1c-4.76-1.55-10.81-3.6-17.75-6.19-3.51-1.31-9.41-3.52-16.49-6.54-19.51-8.32-33.92-16.79-39.17-19.96-3.9-2.35-7.23-4.49-12.16-7.65-7.97-5.11-12.5-8.21-16.35-10.95-1.27-.91-2.57-1.85-3.98-2.9-.72-.54-4.71-3.53-7.26-5.36-.81-.62-1.93-1.49-3.28-2.53-.16-.13-.44-.35-.51-.4-.54-.41-1.75-1.5-6.47-6.9-4-4.58-4.61-6.93-5.25-8.57-.96-2.45-1.54-6.15-.4-8.3,1.19-2.25,8.05-6.52,12.08-6.7,12.05-.56,19.33-1.21,38.19,6.77l-13.18,7.13c-11.48,6.73-10.97,9.66-14.64,17.26h0l-1.72,5.79" style="fill: #c8b8e0; stroke: #f2f2f2; stroke-linecap: round; stroke-linejoin: round;"/>
  <path d="M1206.35,340.18c2,1.77,5.89,5.13,8.8,7.53,1.29,1.06,4.68,3.85,9.41,7.46,3.6,2.75,8.3,6.33,14.59,10.55,3.58,2.4,9.02,6.03,16.47,10.1,6.73,3.68,11.89,5.96,19.03,9.13,6.94,3.08,10.8,4.82,16.27,6.79,2.84,1.02,9.78,3.41,19.03,5.58,3.53.83,6.56,1.43,8.85,1.85" style="fill: #c8b8e0; stroke: #f2f2f2; stroke-linecap: round; stroke-linejoin: round;"/>
  <path d="M1321.71,361.06c-1.4.04-3.35.07-5.67,0-3.43-.1-8.74-.25-14.35-1.45-5.53-1.19-9.18-2.93-15.52-6.01-2.2-1.07-8.92-4.42-17.03-10.18-4.55-3.24-7.37-5.18-10.72-8.52-4.73-4.72-7.78-9.41-9.65-12.75" style="fill: #c8b8e0; stroke: #f2f2f2; stroke-linecap: round; stroke-linejoin: round;"/>
  <path d="M1422.11,343.22c7.24-4.82,14.3-5.46,19.23-5.9,8.59-.77,15.21.94,17.74,1.69,6.64,1.95,11.08,4.88,11.98,5.48,3.33,2.24,9.21,6.18,12.76,13.86.97,2.1,4.63,10.31,1.88,20.04-3.11,11.03-12.28,16.3-16.05,18.48-9.09,5.24-17.78,5.19-23.25,5.17-4.87-.02-11.76-.06-19.49-3.84-3.52-1.72-11.85-5.94-16.44-15.74-1.05-2.24-5-11.4-1.57-22.31,3.16-10.06,10.57-15.16,13.22-16.92Z" style="fill: #a5ded4; stroke: #f2f2f2; stroke-linecap: round; stroke-linejoin: round;"/>
  <path d="M1535.27,359.48c5-9.64,14.13-13.15,17.38-14.39,12.97-4.97,29.23-2.54,39.34,7.18,2.16,2.07,7.05,6.91,8.53,14.8.22,1.18,1.76,10.18-3.44,18.47-.1.16-.86,1.36-1.88,2.58-5.8,6.95-18.71,12.97-32.93,11.79-4.6-.38-16.47-1.37-24.14-10.58-3.48-4.18-4.79-8.49-5.26-10.31-2.43-9.47,1.25-17.31,2.4-19.54Z" style="fill: #5c7e91; stroke: #fff; stroke-linecap: round; stroke-linejoin: round;"/>
  <path d="M832.9,350.28l4.38,4.56,3.81,3.96,1.19,1.63c.24.33.37.74.37,1.16v2.51c0,.51-.17,1.01-.48,1.39l-.71.88c-.16.2-.35.38-.55.52-.57.41-1.7,1.22-1.36.99l-1.78,1.22c-.44.3-.74.79-.83,1.35v.07c-.1.58,0,1.18.3,1.68l2.97,5.11,4.79,6.53,1.2,2.92c.11.26.16.55.16.83v3.28c0,.51-.09,1.02-.28,1.49l-.89,2.28-.22,1.39" style="fill: #a8ccb0; stroke: #fff; stroke-linecap: round; stroke-linejoin: round;"/>
  <path d="M871.57,347.87l-1.98,2.74-.49.42-3.65,1.82c-.46.23-.76.73-.77,1.29l-.2,10.73c0,.46.18.9.52,1.18l9.97,8.37c.84.71.62,2.15-.39,2.52l-7.26,2.65-.08.03-7.37,3.26-.59.78-1.13,6.39c-.06.33.08.66.35.82,2.14,1.3,4.28,2.6,6.42,3.9" style="fill: #a8ccb0; stroke: #fff; stroke-linecap: round; stroke-linejoin: round;"/>
  <line x1="1040.67" y1="335.24" x2="1119.06" y2="335.28" style="fill: #f28f85; stroke: #f2f2f2; stroke-linecap: round; stroke-linejoin: round;"/>
  <line x1="1028.49" y1="344.95" x2="1132.01" y2="344.89" style="fill: #f28f85; stroke: #f2f2f2; stroke-linecap: round; stroke-linejoin: round;"/>
  <line x1="1021.67" y1="353.3" x2="1138.37" y2="352.48" style="fill: #f28f85; stroke: #f2f2f2; stroke-linecap: round; stroke-linejoin: round;"/>
  <line x1="1015.8" y1="366.78" x2="1144.99" y2="366.95" style="fill: #f28f85; stroke: #f2f2f2; stroke-linecap: round; stroke-linejoin: round;"/>
  <line x1="1014.92" y1="386.32" x2="1146.44" y2="386.43" style="fill: #f28f85; stroke: #f2f2f2; stroke-linecap: round; stroke-linejoin: round;"/>
  <line x1="1016.62" y1="393.68" x2="1144.86" y2="393.56" style="fill: #f28f85; stroke: #f2f2f2; stroke-linecap: round; stroke-linejoin: round;"/>
  <path d="M1021.67,404.64h41.74c.71,0,1.4.22,1.98.64l.34.24c.49.35.78.91.78,1.51v.59c0,.5-.27.96-.71,1.21-.54.3-2.36,1.27-3.18,1.25h-37.05" style="fill: #f28f85; stroke: #fff; stroke-miterlimit: 10;"/>
  <line x1="1062.62" y1="410.07" x2="1135.48" y2="410.1" style="fill: #f28f85; stroke: #f2f2f2; stroke-linecap: round; stroke-linejoin: round;"/>
  <line x1="1031.89" y1="416.79" x2="1128.32" y2="417.06" style="fill: #f28f85; stroke: #f2f2f2; stroke-linecap: round; stroke-linejoin: round;"/>
  <path d="M1323.19,389.81c5.37,4.39,10.73,8.77,16.1,13.16,3.09,2.64,4.61,5.94,3.71,8.32-1,2.63-4.63,3.25-7.88,3.8-6.72,1.14-12.55-.67-18.12-2.46-2.71-.87-4.9-1.76-6.38-2.4" style="fill: #f6f0e5; stroke: #fff; stroke-linecap: round; stroke-linejoin: round;"/>
  <line x1="370.4" y1="434.83" x2="351.97" y2="425.24" style="fill: none; stroke: #666; stroke-linecap: round; stroke-linejoin: round;"/>
  <path d="M337.96,416.39c-4.92-4.18-9.83-8.36-14.75-12.53" style="fill: none; stroke: #666; stroke-linecap: round; stroke-linejoin: round;"/>
  <path d="M319.18,397.62c-2.23-5.98-4.46-11.95-6.68-17.93" style="fill: none; stroke: #666; stroke-linecap: round; stroke-linejoin: round;"/>
  <path d="M312.49,368.75c2.84-6.48,5.67-12.96,8.51-19.45" style="fill: none; stroke: #666; stroke-linecap: round; stroke-linejoin: round;"/>
  <path d="M327.38,339.58c5.27-4.05,10.53-8.1,15.8-12.15" style="fill: none; stroke: #666; stroke-linecap: round; stroke-linejoin: round;"/>
  <path d="M354.12,320.13c6.18-2.84,12.36-5.67,18.54-8.51" style="fill: none; stroke: #666; stroke-linecap: round; stroke-linejoin: round;"/>
  <path d="M386,306.79c6.91-2.35,13.82-4.69,20.73-7.04" style="fill: none; stroke: #4d4d4d; stroke-linecap: round; stroke-linejoin: round;"/>
  <path d="M404.87,444.11c-6.38-1.72-12.76-3.44-19.14-5.17" style="fill: none; stroke: #4d4d4d; stroke-linecap: round; stroke-linejoin: round;"/>
  <path d="M646.16,231.07h23.42" style="fill: #666; stroke: #4d4d4d; stroke-linecap: round; stroke-linejoin: round;"/>
  <path d="M682.89,231.07h23.49" style="fill: #666; stroke: #4d4d4d; stroke-linecap: round; stroke-linejoin: round;"/>
  <path d="M718.96,231.07h21.63" style="fill: #666; stroke: #4d4d4d; stroke-linecap: round; stroke-linejoin: round;"/>
  <path d="M755.65,232.91c7.69.29,15.38.58,23.07.87" style="fill: #666; stroke: #4d4d4d; stroke-linecap: round; stroke-linejoin: round;"/>
  <path d="M792.09,235.28c8.03.61,16.05,1.22,24.08,1.82" style="fill: #666; stroke: #4d4d4d; stroke-linecap: round; stroke-linejoin: round;"/>
  <path d="M828.6,238.92c8.12.77,16.24,1.55,24.36,2.32" style="fill: #666; stroke: #4d4d4d; stroke-linecap: round; stroke-linejoin: round;"/>
  <path d="M863.73,242.9c8.34,1.27,16.68,2.54,25.02,3.81" style="fill: #666; stroke: #4d4d4d; stroke-linecap: round; stroke-linejoin: round;"/>
  <path d="M899.13,248.2c7.97,1.44,15.95,2.87,23.92,4.31" style="fill: #666; stroke: #4d4d4d; stroke-linecap: round; stroke-linejoin: round;"/>
  <path d="M935.32,254.83c7.51,1.55,15.02,3.09,22.54,4.64" style="fill: none; stroke: #4d4d4d; stroke-linecap: round; stroke-linejoin: round;"/>
  <path d="M969.12,261.95c7.4,1.77,14.8,3.54,22.21,5.3" style="fill: none; stroke: #4d4d4d; stroke-linecap: round; stroke-linejoin: round;"/>
  <path d="M1002.43,270.41c7.18,2.04,14.36,4.09,21.54,6.13" style="fill: none; stroke: #4d4d4d; stroke-linecap: round; stroke-linejoin: round;"/>
  <path d="M1037.4,283.29c5.49,2.73,10.97,5.46,16.46,8.19" style="fill: none;"/>
  <path d="M1064.28,298.44c4.37,3.26,8.73,6.53,13.1,9.79" style="fill: none;"/>
  <path d="M972.1,453.55c-6.75,2.88-13.5,5.76-20.25,8.65" style="fill: none; stroke: #333; stroke-linecap: round; stroke-linejoin: round;"/>
  <path d="M941.27,466.09c-7.46,2.39-14.93,4.78-22.39,7.17" style="fill: none; stroke: #333; stroke-linecap: round; stroke-linejoin: round;"/>
  <path d="M907.17,476.53c-7.32,1.63-14.65,3.25-21.97,4.88" style="fill: none; stroke: #333; stroke-linecap: round; stroke-linejoin: round;"/>
  <path d="M682.89,280.17h23.49" style="fill: none; stroke: #4d4d4d; stroke-miterlimit: 10;"/>
  <path d="M718.96,280.17c7.73.56,15.45,1.12,23.18,1.69" style="fill: none; stroke: #4d4d4d; stroke-miterlimit: 10;"/>
  <path d="M755.65,283.29c7.1.61,14.19,1.23,21.29,1.84" style="fill: none; stroke: #4d4d4d; stroke-miterlimit: 10;"/>
  <path d="M792.09,288.41c6.76,1.02,13.51,2.05,20.27,3.07" style="fill: none; stroke: #4d4d4d; stroke-miterlimit: 10;"/>
  <path d="M825.67,293.73c7.44,1.57,14.88,3.14,22.32,4.71" style="fill: none; stroke: #4d4d4d; stroke-miterlimit: 10;"/>
  <path d="M861.29,301.51l11.47,3.28" style="fill: none; stroke: #000; stroke-linecap: round; stroke-linejoin: round;"/>
  <path d="M663,463.05c7.35-.77,14.69-1.55,22.04-2.32" style="fill: none; stroke: #4d4d4d; stroke-linecap: round; stroke-linejoin: round;"/>
  <path d="M699.35,460.73l21.65-2.32" style="fill: none; stroke: #4d4d4d; stroke-linecap: round; stroke-linejoin: round;"/>
  <path d="M735.16,456.94c7.37-1.13,14.74-2.26,22.12-3.39" style="fill: none; stroke: #4d4d4d; stroke-linecap: round; stroke-linejoin: round;"/>
  <path d="M769.22,451.92c7.57-1.52,15.14-3.05,22.71-4.57" style="fill: none; stroke: #333; stroke-linecap: round; stroke-linejoin: round;"/>
  <path d="M803.13,444.41c7.91-2.11,15.82-4.23,23.74-6.34" style="fill: none; stroke: #333; stroke-linecap: round; stroke-linejoin: round;"/>
  <path d="M838.22,434.97c7.13-2.8,14.25-5.6,21.38-8.4" style="fill: none; stroke: #333; stroke-linecap: round; stroke-linejoin: round;"/>
  <path d="M868.88,422.58c5.95-3.44,11.89-6.88,17.84-10.32" style="fill: none; stroke: #666; stroke-linecap: round; stroke-linejoin: round;"/>
  <path d="M895.03,405.97l12.13-11.21" style="fill: none; stroke: #666; stroke-linecap: round; stroke-linejoin: round;"/>
  <path d="M872.14,485.67c-7.29,1.62-14.58,3.24-21.87,4.86" style="fill: none; stroke: #333; stroke-linecap: round; stroke-linejoin: round;"/>
  <path d="M838.22,493.89c-7.74,1.21-15.48,2.42-23.22,3.63" style="fill: none; stroke: #333; stroke-linecap: round; stroke-linejoin: round;"/>
  <path d="M803.13,500.25c-7.52,1.11-15.04,2.23-22.56,3.34" style="fill: none; stroke: #333; stroke-linecap: round; stroke-linejoin: round;"/>
  <path d="M767.99,505.28c-7.91.74-15.82,1.48-23.72,2.22" style="fill: none; stroke: #333; stroke-linecap: round; stroke-linejoin: round;"/>
  <path d="M733.07,509.27c-7.87.59-15.74,1.18-23.61,1.77" style="fill: none; stroke: #4d4d4d; stroke-linecap: round; stroke-linejoin: round;"/>
  <path d="M697.26,512.26c-7.75.3-15.49.59-23.24.89" style="fill: none; stroke: #4d4d4d; stroke-linecap: round; stroke-linejoin: round;"/>
  <path d="M661.01,513.7c-4.69.22-9.39.44-14.08.67" style="fill: none; stroke: #4d4d4d; stroke-linecap: round; stroke-linejoin: round;"/>
  <path d="M635.18,514.03c-8.17.11-16.33.22-24.5.33" style="fill: none; stroke: #4d4d4d; stroke-linecap: round; stroke-linejoin: round;"/>
  <path d="M601.15,514.2l-23.17-.5" style="fill: none; stroke: #4d4d4d; stroke-linecap: round; stroke-linejoin: round;"/>
  <path d="M565.12,512.81c-7.35-.3-14.71-.59-22.06-.89" style="fill: none; stroke: #4d4d4d; stroke-linecap: round; stroke-linejoin: round;"/>
  <path d="M530.42,510.26c-8.02-.55-16.04-1.11-24.06-1.66" style="fill: none; stroke: #4d4d4d; stroke-linecap: round; stroke-linejoin: round;"/>
  <path d="M494.5,506.5c-7.95-.92-15.89-1.85-23.84-2.77" style="fill: none; stroke: #4d4d4d; stroke-linecap: round; stroke-linejoin: round;"/>
  <path d="M458.02,501.62c-7.87-1.22-15.74-2.44-23.61-3.66" style="fill: none; stroke: #4d4d4d; stroke-linecap: round; stroke-linejoin: round;"/>
  <path d="M422.66,495.19l-23.17-4.77" style="fill: none; stroke: #4d4d4d; stroke-linecap: round; stroke-linejoin: round;"/>
  <path d="M386.96,487.32c-7.43-2.22-14.86-4.43-22.28-6.65" style="fill: none; stroke: #4d4d4d; stroke-linecap: round; stroke-linejoin: round;"/>
  <path d="M352.59,476.45c-7.39-2.44-14.78-4.88-22.17-7.32" style="fill: none; stroke: #4d4d4d; stroke-linecap: round; stroke-linejoin: round;"/>
  <path d="M319.44,465.25c-6.87-3.1-13.75-6.21-20.62-9.31" style="fill: none; stroke: #4d4d4d; stroke-linecap: round; stroke-linejoin: round;"/>
  <path d="M287.86,451.92l-11.82-7.52" style="fill: none; stroke: #4d4d4d; stroke-linecap: round; stroke-linejoin: round;"/>
  <path d="M276.04,503.33c1.24.59,2.48,1.18,3.72,1.78" style="fill: none; stroke: #4d4d4d; stroke-linecap: round; stroke-linejoin: round;"/>
  <path d="M291.71,509.31c7.23,2.26,14.47,4.51,21.7,6.77" style="fill: none; stroke: #4d4d4d; stroke-linecap: round; stroke-linejoin: round;"/>
  <path d="M324.16,519.66c7.43,1.92,14.87,3.85,22.3,5.77" style="fill: none; stroke: #4d4d4d; stroke-linecap: round; stroke-linejoin: round;"/>
  <path d="M358.81,529.42c7.43,1.53,14.87,3.05,22.3,4.58" style="fill: none; stroke: #4d4d4d; stroke-linecap: round; stroke-linejoin: round;"/>
  <path d="M393.46,535.99c7.63,1.73,15.27,3.45,22.9,5.18" style="fill: none; stroke: #4d4d4d; stroke-linecap: round; stroke-linejoin: round;"/>
  <path d="M428.71,542.96c7.77,1.26,15.53,2.52,23.3,3.78" style="fill: none; stroke: #4d4d4d; stroke-linecap: round; stroke-linejoin: round;"/>
  <path d="M463.55,548.54l24.69,3.39" style="fill: none; stroke: #4d4d4d; stroke-linecap: round; stroke-linejoin: round;"/>
  <path d="M499.4,553.51l23.9,2.79" style="fill: none; stroke: #4d4d4d; stroke-linecap: round; stroke-linejoin: round;"/>
  <path d="M535.64,557.3l23.1,2.39" style="fill: #333; stroke: #4d4d4d; stroke-linecap: round; stroke-linejoin: round;"/>
  <path d="M571.68,560.68c8.23.53,16.46,1.06,24.69,1.59" style="fill: #333; stroke: #4d4d4d; stroke-linecap: round; stroke-linejoin: round;"/>
  <path d="M608.32,563.27l24.09.8" style="fill: #666; stroke: #4d4d4d; stroke-linecap: round; stroke-linejoin: round;"/>
  <path d="M645.35,564.07h23.9" style="fill: #666; stroke: #4d4d4d; stroke-linecap: round; stroke-linejoin: round;"/>
  <path d="M679.93,564.07h24.96" style="fill: #666; stroke: #4d4d4d; stroke-linecap: round; stroke-linejoin: round;"/>
  <path d="M717.84,564.07c7.83-.27,15.66-.53,23.5-.8" style="fill: #666; stroke: #4d4d4d; stroke-linecap: round; stroke-linejoin: round;"/>
  <path d="M753.88,562.28c7.9-.33,15.8-.66,23.7-1" style="fill: #666; stroke: #333; stroke-linecap: round; stroke-linejoin: round;"/>
  <path d="M789.12,560.88c7.96-.51,15.93-1.02,23.89-1.52" style="fill: #666; stroke: #333; stroke-linecap: round; stroke-linejoin: round;"/>
  <path d="M824.63,558.03c8.28-.67,16.56-1.33,24.84-2" style="fill: #666; stroke: #333; stroke-linecap: round; stroke-linejoin: round;"/>
  <path d="M861.46,554.22c8.09-.98,16.18-1.97,24.27-2.95" style="fill: #666; stroke: #333; stroke-linecap: round; stroke-linejoin: round;"/>
  <path d="M896.87,549.65l24.27-3.52" style="fill: #4d4d4d; stroke: #333; stroke-linecap: round; stroke-linejoin: round;"/>
  <path d="M932.75,544.22c7.93-1.46,15.86-2.92,23.8-4.38" style="fill: #666; stroke: #333; stroke-linecap: round; stroke-linejoin: round;"/>
  <path d="M967.73,537.66c7.92-1.59,15.83-3.17,23.75-4.76" style="fill: #333; stroke: #333; stroke-linecap: round; stroke-linejoin: round;"/>
  <path d="M1002.33,530.61l23.61-6.19" style="fill: #333; stroke: #333; stroke-linecap: round; stroke-linejoin: round;"/>
  <path d="M1036.5,522.62c7.61-2.19,15.23-4.38,22.84-6.57" style="fill: none; stroke: #666; stroke-linecap: round; stroke-linejoin: round;"/>
  <path d="M1070.76,513.01c7.44-2.29,14.88-4.58,22.32-6.88" style="fill: none; stroke: #666; stroke-linecap: round; stroke-linejoin: round;"/>
  <path d="M1103.71,503.19c7.11-2.8,14.23-5.6,21.34-8.39" style="fill: none; stroke: #000; stroke-linecap: round; stroke-linejoin: round;"/>
  <path d="M1135.76,491.58c7.26-3.04,14.52-6.07,21.79-9.11" style="fill: none; stroke: #000; stroke-linecap: round; stroke-linejoin: round;"/>
  <path d="M1167.64,478.45c7.08-3.27,14.17-6.55,21.25-9.82" style="fill: none; stroke: #000; stroke-linecap: round; stroke-linejoin: round;"/>
  <path d="M1198.62,463.72c6.19-3.75,12.38-7.5,18.57-11.25" style="fill: none; stroke: #000; stroke-linecap: round; stroke-linejoin: round;"/>
  <path d="M289.71,559.92c7.5,2.41,14.99,4.82,22.49,7.23" style="fill: none; stroke: #4d4d4d; stroke-linecap: round; stroke-linejoin: round;"/>
  <path d="M323.04,570.52c8.16,2.21,16.32,4.43,24.47,6.64" style="fill: none; stroke: #4d4d4d; stroke-linecap: round; stroke-linejoin: round;"/>
  <path d="M358.81,578.68c7.62,1.83,15.23,3.65,22.85,5.48" style="fill: none; stroke: #4d4d4d; stroke-linecap: round; stroke-linejoin: round;"/>
  <path d="M392.97,586.49c7.8,1.59,15.6,3.19,23.39,4.78" style="fill: none; stroke: #4d4d4d; stroke-linecap: round; stroke-linejoin: round;"/>
  <path d="M427.93,592.9c7.85,1.4,15.69,2.8,23.54,4.2" style="fill: none; stroke: #4d4d4d; stroke-linecap: round; stroke-linejoin: round;"/>
  <path d="M463.55,598.72c7.94,1.13,15.87,2.25,23.81,3.38" style="fill: none; stroke: #4d4d4d; stroke-linecap: round; stroke-linejoin: round;"/>
  <path d="M499.4,604.2c7.97,1.01,15.93,2.02,23.9,3.03" style="fill: none; stroke: #4d4d4d; stroke-linecap: round; stroke-linejoin: round;"/>
  <path d="M535.14,608.51c8.16.97,16.32,1.94,24.47,2.91" style="fill: #333; stroke: #4d4d4d; stroke-linecap: round; stroke-linejoin: round;"/>
  <path d="M571.68,612.94c8.23.47,16.46.93,24.69,1.4" style="fill: #333; stroke: #4d4d4d; stroke-linecap: round; stroke-linejoin: round;"/>
  <path d="M607.51,615.5c8.3.43,16.6.85,24.9,1.28" style="fill: #333; stroke: #4d4d4d; stroke-linecap: round; stroke-linejoin: round;"/>
  <path d="M642.82,617.37c8.51.23,17.01.47,25.52.7" style="fill: #333; stroke: #4d4d4d; stroke-linecap: round; stroke-linejoin: round;"/>
  <path d="M679.93,618.77h24.96" style="fill: #333; stroke: #4d4d4d; stroke-linecap: round; stroke-linejoin: round;"/>
  <path d="M715.89,619.23c8.48.19,16.96.39,25.44.58" style="fill: none; stroke: #4d4d4d; stroke-linecap: round; stroke-linejoin: round;"/>
  <path d="M752.95,619.82h24.63" style="fill: none; stroke: #333; stroke-linecap: round; stroke-linejoin: round;"/>
  <path d="M789.12,619.23h24.54" style="fill: none; stroke: #333; stroke-linecap: round; stroke-linejoin: round;"/>
  <path d="M825.16,618.47c7.94-.14,15.87-.28,23.81-.42" style="fill: #333; stroke: #333; stroke-linecap: round; stroke-linejoin: round;"/>
  <path d="M861.88,616.85c7.66-.17,15.31-.35,22.97-.52" style="fill: #666; stroke: #333; stroke-linecap: round; stroke-linejoin: round;"/>
  <path d="M896.63,614.72c8-.17,16.01-.35,24.01-.52" style="fill: #666; stroke: #333; stroke-linecap: round; stroke-linejoin: round;"/>
  <path d="M932.75,611.28c7.5-.24,15-.48,22.51-.72" style="fill: #666; stroke: #333; stroke-linecap: round; stroke-linejoin: round;"/>
  <path d="M967.73,608.04c7.81-.65,15.62-1.31,23.43-1.96" style="fill: #666; stroke: #333; stroke-linecap: round; stroke-linejoin: round;"/>
  <path d="M1002.59,603.14c7.83-.98,15.67-1.96,23.5-2.94" style="fill: #666; stroke: #333; stroke-linecap: round; stroke-linejoin: round;"/>
  <path d="M1038,598.09c7.64-1.03,15.29-2.07,22.93-3.1" style="fill: #666; stroke: #666; stroke-linecap: round; stroke-linejoin: round;"/>
  <path d="M1073.41,591.88c7.89-1.52,15.78-3.05,23.66-4.57" style="fill: #666; stroke: #666; stroke-linecap: round; stroke-linejoin: round; stroke-width: 2px;"/>
  <path d="M1108.09,584.54c7.89-1.8,15.78-3.59,23.66-5.39" style="fill: #666; stroke: #000; stroke-linecap: round; stroke-linejoin: round;"/>
  <path d="M1142.61,575.89c7.78-2.12,15.56-4.24,23.34-6.36" style="fill: none; stroke: #000; stroke-linecap: round; stroke-linejoin: round;"/>
  <path d="M1176.14,566.75c7.45-2.28,14.9-4.57,22.36-6.85" style="fill: none; stroke: #000; stroke-linecap: round; stroke-linejoin: round;"/>
  <path d="M1209.52,556.06c7.45-2.56,14.9-5.11,22.36-7.67" style="fill: none; stroke: #000; stroke-linecap: round; stroke-linejoin: round;"/>
  <path d="M1242.24,545.05c8.22-3.87,15.57-6.86,21.7-9.14,4.3-1.6,6.18-2.18,10.12-3.67,8.43-3.2,15.57-6.53,21.3-9.47" style="fill: none; stroke: #000; stroke-linecap: round; stroke-linejoin: round;"/>
  <path d="M1305.23,518.77l19.99-10.69" style="fill: none; stroke: #000; stroke-linecap: round; stroke-linejoin: round;"/>
  <path d="M1335.34,503.43c6.8-3.86,13.6-7.72,20.4-11.59" style="fill: none; stroke: #000; stroke-linecap: round; stroke-linejoin: round;"/>
  <path d="M1364.79,486.3c6.09-4.38,12.19-8.76,18.28-13.14" style="fill: none; stroke: #000; stroke-linecap: round; stroke-linejoin: round;"/>
  <path d="M1390.82,466.06c5.44-4.68,10.88-9.36,16.32-14.03" style="fill: none; stroke: #000; stroke-linecap: round; stroke-linejoin: round;"/>
  <path d="M1414.27,444.44l10.78-14.46" style="fill: none; stroke: #000; stroke-linecap: round; stroke-linejoin: round;"/>
  <path d="M1219.18,262.56c-7.38-2.58-14.75-5.16-22.13-7.73" style="fill: none; stroke: #000; stroke-linecap: round; stroke-linejoin: round;"/>
  <path d="M1186.09,251.18c-7.73-2.44-15.47-4.87-23.2-7.31" style="fill: #666; stroke: #4d4d4d; stroke-linecap: round; stroke-linejoin: round;"/>
  <path d="M1151.93,240.43l-21.7-5.37" style="fill: #666; stroke: #4d4d4d; stroke-linecap: round; stroke-linejoin: round;"/>
  <path d="M1119.06,232.48c-7.95-1.93-15.9-3.87-23.85-5.8" style="fill: #666; stroke: #4d4d4d; stroke-linecap: round; stroke-linejoin: round;"/>
  <path d="M1083.82,224.75c-7.81-1.65-15.61-3.29-23.42-4.94" style="fill: #666; stroke: #4d4d4d; stroke-linecap: round; stroke-linejoin: round;"/>
  <path d="M1048.8,217.66c-7.95-1.43-15.9-2.86-23.85-4.3" style="fill: #666; stroke: #4d4d4d; stroke-linecap: round; stroke-linejoin: round;"/>
  <path d="M1014.33,212.07c-8.13-1.29-16.27-2.58-24.4-3.87" style="fill: #666; stroke: #4d4d4d; stroke-linecap: round; stroke-linejoin: round;"/>
  <path d="M978.45,206.75c-8.17-1.12-16.35-2.24-24.52-3.36" style="fill: #666; stroke: #4d4d4d; stroke-linecap: round; stroke-linejoin: round;"/>
  <path d="M942.16,201.71c-8.17-.83-16.35-1.65-24.52-2.48" style="fill: #666; stroke: #4d4d4d; stroke-linecap: round; stroke-linejoin: round;"/>
  <path d="M905.95,197.9l-24.87-2.04" style="fill: #666; stroke: #4d4d4d; stroke-linecap: round; stroke-linejoin: round;"/>
  <path d="M870.19,194.27c-8.11-.59-16.23-1.18-24.34-1.77" style="fill: #666; stroke: #4d4d4d; stroke-linecap: round; stroke-linejoin: round;"/>
  <path d="M833.99,191.44c-7.82-.24-15.64-.47-23.46-.71" style="fill: #666; stroke: #4d4d4d; stroke-linecap: round; stroke-linejoin: round;"/>
  <path d="M798.05,189.49c-8.38-.27-16.76-.53-25.14-.8" style="fill: #666; stroke: #4d4d4d; stroke-linecap: round; stroke-linejoin: round;"/>
  <path d="M760.96,187.99c-8.24-.08-16.48-.17-24.72-.25" style="fill: #666; stroke: #4d4d4d; stroke-linecap: round; stroke-linejoin: round;"/>
  <path d="M724.2,186.97h-26.7" style="fill: #666; stroke: #4d4d4d; stroke-linecap: round; stroke-linejoin: round;"/>
  <path d="M686.31,186.97h-25.43" style="fill: #666; stroke: #4d4d4d; stroke-linecap: round; stroke-linejoin: round;"/>
  <path d="M646.16,186.97c-7.7.25-15.4.5-23.1.76" style="fill: #666; stroke: #4d4d4d; stroke-linecap: round; stroke-linejoin: round;"/>
  <path d="M609.02,189.05c-8.37.31-16.73.63-25.1.94" style="fill: #666; stroke: #4d4d4d; stroke-linecap: round; stroke-linejoin: round;"/>
  <path d="M569.21,191.21c-6.75.31-13.5.63-20.24.94" style="fill: #666; stroke: #333; stroke-linecap: round; stroke-linejoin: round;"/>
  <path d="M421.93,206.46c-7.33,1.42-14.65,2.84-21.98,4.25" style="fill: #666; stroke: #000; stroke-linecap: round; stroke-linejoin: round;"/>
  <path d="M385.72,212.65c-7.44,1.56-14.89,3.13-22.33,4.69" style="fill: #666; stroke: #000; stroke-linecap: round; stroke-linejoin: round;"/>
  <path d="M349,219.94c-7.2,1.74-14.41,3.47-21.61,5.21" style="fill: #666; stroke: #000; stroke-linecap: round; stroke-linejoin: round;"/>
  <path d="M315.12,228.02c-7.73,2.08-15.46,4.17-23.19,6.25" style="fill: #666; stroke: #000; stroke-linecap: round; stroke-linejoin: round;"/>
  <path d="M1405,297.77c-5.38-4.11-10.76-8.21-16.14-12.32" style="fill: none; stroke: #000; stroke-linecap: round; stroke-linejoin: round;"/>
  <path d="M1380.5,278.94c-6.51-4.2-13.02-8.4-19.54-12.6" style="fill: none; stroke: #000; stroke-linecap: round; stroke-linejoin: round;"/>
  <path d="M1352.19,261.53c-6.94-3.73-13.87-7.46-20.81-11.18" style="fill: none; stroke: #000; stroke-linecap: round; stroke-linejoin: round;"/>
  <path d="M1322.6,245.96c-7.5-3.44-15.01-6.89-22.51-10.33" style="fill: #666; stroke: #4d4d4d; stroke-linecap: round; stroke-linejoin: round;"/>
  <path d="M1289.62,231.94l-21.24-8.49" style="fill: #666; stroke: #4d4d4d; stroke-linecap: round; stroke-linejoin: round;"/>
  <path d="M1258.05,219.49c-7.55-2.5-15.1-5-22.65-7.5" style="fill: #666; stroke: #4d4d4d; stroke-linecap: round; stroke-linejoin: round;"/>
  <path d="M1224.64,208.02c-7.74-2.22-15.48-4.44-23.22-6.65" style="fill: #666; stroke: #4d4d4d; stroke-linecap: round; stroke-linejoin: round;"/>
  <path d="M1190.52,198.53c-7.88-2.08-15.76-4.15-23.64-6.23" style="fill: #666; stroke: #4d4d4d; stroke-linecap: round; stroke-linejoin: round;"/>
  <path d="M1156.4,189.47c-8.12-1.98-16.23-3.96-24.35-5.95" style="fill: #666; stroke: #4d4d4d; stroke-linecap: round; stroke-linejoin: round;"/>
  <path d="M1121.72,181.4c-7.83-1.6-15.67-3.21-23.5-4.81" style="fill: #666; stroke: #4d4d4d; stroke-linecap: round; stroke-linejoin: round;"/>
  <path d="M1086.89,174.75c-7.93-1.6-15.86-3.21-23.78-4.81" style="fill: #666; stroke: #4d4d4d; stroke-linecap: round; stroke-linejoin: round;"/>
  <path d="M1052.35,168.1c-7.93-1.46-15.86-2.93-23.78-4.39" style="fill: #666; stroke: #4d4d4d; stroke-linecap: round; stroke-linejoin: round;"/>
  <path d="M1016.53,162.01c-7.79-.82-15.57-1.65-23.36-2.47" style="fill: #666; stroke: #4d4d4d; stroke-linecap: round; stroke-linejoin: round;"/>
  <path d="M1073.41,644.1c6.56-1.26,13.11-2.51,19.67-3.77" style="fill: none; stroke: #666; stroke-linecap: round; stroke-linejoin: round;"/>
  <path d="M1108.77,637.64l20.58-3.14" style="fill: none; stroke: #000; stroke-linecap: round; stroke-linejoin: round;"/>
  <path d="M1142.61,630.53c6.7-1.76,13.39-3.52,20.09-5.28" style="fill: none; stroke: #000; stroke-linecap: round; stroke-linejoin: round;"/>
  <path d="M1176.14,622.24c6.7-2.26,13.39-4.52,20.09-6.78" style="fill: none; stroke: #000; stroke-linecap: round; stroke-linejoin: round;"/>
  <path d="M1207.91,613.25c7.99-2.39,15.98-4.78,23.96-7.17" style="fill: none; stroke: #000; stroke-linecap: round; stroke-linejoin: round;"/>
  <path d="M1242.24,601.89c7.2-2.42,14.4-4.85,21.6-7.27" style="fill: none; stroke: #000; stroke-linecap: round; stroke-linejoin: round;"/>
  <path d="M1275.07,590.66c7.07-3.06,14.14-6.11,21.21-9.17" style="fill: none; stroke: #000; stroke-linecap: round; stroke-linejoin: round;"/>
  <path d="M1306.81,577.81c7.19-3.24,14.38-6.47,21.57-9.71" style="fill: none; stroke: #000; stroke-linecap: round; stroke-linejoin: round;"/>
  <path d="M1337.91,564.14c6.83-3.39,13.66-6.77,20.5-10.16" style="fill: none; stroke: #000; stroke-linecap: round; stroke-linejoin: round;"/>
  <path d="M1367.84,549.4c6.8-3.75,13.6-7.49,20.41-11.24" style="fill: none; stroke: #000; stroke-linecap: round; stroke-linejoin: round;"/>
  <path d="M1398.05,532.95c6.56-4.11,13.12-8.21,19.69-12.32" style="fill: none; stroke: #000; stroke-linecap: round; stroke-linejoin: round;"/>
  <path d="M1425.46,516.14c6.11-4.52,12.23-9.05,18.34-13.57" style="fill: none; stroke: #000; stroke-linecap: round; stroke-linejoin: round;"/>
  <path d="M1452.16,497.71c5.75-4.73,11.51-9.47,17.26-14.2" style="fill: none; stroke: #000; stroke-linecap: round; stroke-linejoin: round;"/>
  <path d="M1477.6,476.05c5.06-5.09,10.13-10.19,15.19-15.28" style="fill: none; stroke: #000; stroke-linecap: round; stroke-linejoin: round;"/>
  <path d="M1498.63,453.76c4.28-5.52,8.57-11.03,12.85-16.55" style="fill: none; stroke: #000; stroke-linecap: round; stroke-linejoin: round;"/>
  <path d="M980.43,157.32c-7.97-1.07-15.95-2.14-23.92-3.21" style="fill: #666; stroke: #4d4d4d; stroke-linecap: round; stroke-linejoin: round;"/>
  <path d="M1471.57,272.64c-5.62-4.65-11.23-9.3-16.85-13.95" style="fill: none; stroke: #000; stroke-linecap: round; stroke-linejoin: round;"/>
  <path d="M1445.83,252.42c-6.47-4.39-12.93-8.78-19.4-13.16" style="fill: #666; stroke: #4d4d4d; stroke-linecap: round; stroke-linejoin: round;"/>
  <path d="M1417.58,234.14l-19.35-11.46" style="fill: #666; stroke: #4d4d4d; stroke-linecap: round; stroke-linejoin: round;"/>
  <path d="M1389.07,218.57c-7.12-3.62-14.25-7.25-21.37-10.87" style="fill: #666; stroke: #4d4d4d; stroke-linecap: round; stroke-linejoin: round;"/>
  <path d="M1357.47,204.35c-7.3-3.48-14.6-6.96-21.9-10.45" style="fill: #666; stroke: #4d4d4d; stroke-linecap: round; stroke-linejoin: round;"/>
  <path d="M1325.97,190.65c-7.59-3.11-15.17-6.22-22.76-9.33" style="fill: #666; stroke: #4d4d4d; stroke-linecap: round; stroke-linejoin: round;"/>
  <path d="M1292.93,178.39c-7.64-2.75-15.28-5.51-22.92-8.26" style="fill: #666; stroke: #4d4d4d; stroke-linecap: round; stroke-linejoin: round;"/>
  <path d="M1259.67,167.31c-7.8-2.61-15.6-5.22-23.4-7.83" style="fill: #666; stroke: #4d4d4d; stroke-linecap: round; stroke-linejoin: round;"/>
</svg>