<svg width="1329" height="76" viewBox="0 0 1329 76" fill="none" xmlns="http://www.w3.org/2000/svg">
<path d="M28.206 22.1498C30.3179 21.8767 50.0009 19.6809 60.3883 33.2426C61.7388 35.0061 68.477 44.2672 65.0289 54.6091C60.9486 66.8852 45.9637 70.2643 42.3145 71.0834C29.4559 73.9846 18.8816 69.1038 14.6002 66.6804C10.3332 64.2684 4.47143 60.9463 2.02902 54.2792C-2.22365 42.6175 8.03454 31.6725 8.73852 30.9444C15.7209 23.7198 24.8297 22.5593 28.1916 22.1384L28.206 22.1498Z" fill="#DD8E6F" stroke="white" stroke-linecap="round" stroke-linejoin="round"/>
<path d="M43.5566 39.6368C44.5313 39.5138 53.6158 38.5241 58.41 44.6364C59.0333 45.4312 62.1432 49.6052 60.5518 54.2664C58.6686 59.7993 51.7525 61.3222 50.0682 61.6914C44.1335 62.999 39.2531 60.7992 37.277 59.707C35.3076 58.6199 32.6022 57.1226 31.4749 54.1177C29.5122 48.8617 34.2467 43.9288 34.5716 43.6006C37.7943 40.3444 41.9983 39.8214 43.55 39.6317L43.5566 39.6368Z" fill="#FFEBCD" stroke="white" stroke-linecap="round" stroke-linejoin="round"/>
<path d="M309.996 44.9099C311.131 44.6542 321.748 42.4769 328.773 49.9776C329.686 50.953 334.288 56.0912 333.39 62.3236C332.331 69.721 324.413 72.3819 322.484 73.0277C315.691 75.312 309.402 72.9205 306.812 71.6895C304.232 70.4645 300.686 68.7766 298.698 64.9691C295.232 58.3083 299.818 51.4146 300.135 50.955C303.279 46.3951 308.178 45.3027 309.987 44.9038L309.996 44.9099Z" fill="#DD8E6F" stroke="white" stroke-linecap="round" stroke-linejoin="round"/>
<path d="M320.281 54.6318C320.785 54.5169 325.502 53.5389 328.635 56.9358C329.042 57.3776 331.094 59.7044 330.703 62.5226C330.242 65.8676 326.725 67.0659 325.869 67.3568C322.851 68.3856 320.053 67.2999 318.9 66.7415C317.751 66.1858 316.173 65.4201 315.284 63.6968C313.735 60.6821 315.765 57.5672 315.905 57.3595C317.297 55.2992 319.473 54.8083 320.277 54.629L320.281 54.6318Z" fill="#FFEBCD" stroke="white" stroke-linecap="round" stroke-linejoin="round"/>
<path d="M591.343 19.206C593.283 19.8563 611.069 26.2 608.262 41.4894C607.896 43.4774 605.691 53.7716 594.328 60.7379C580.849 69.0121 565.894 65.5676 562.255 64.7258C549.421 61.7714 544.886 53.447 543.42 49.7138C541.957 45.9957 539.953 40.881 543.494 34.4644C549.704 23.2487 567.092 18.6045 568.266 18.3044C579.915 15.326 588.265 18.1446 591.341 19.1909L591.343 19.206Z" fill="#DD8E6F" stroke="white" stroke-linecap="round" stroke-linejoin="round"/>
<path d="M589.311 39.7282C590.204 40.0307 598.393 42.9779 597.219 49.9153C597.067 50.8174 596.132 55.4871 590.98 58.6114C584.869 62.3224 577.997 60.703 576.325 60.3072C570.428 58.9181 568.291 55.119 567.593 53.4173C566.895 51.7225 565.941 49.391 567.516 46.4881C570.277 41.4141 578.204 39.3668 578.739 39.2347C584.051 37.9236 587.894 39.2347 589.31 39.7213L589.311 39.7282Z" fill="#FFEBCD" stroke="white" stroke-linecap="round" stroke-linejoin="round"/>
<path d="M832.098 3.94775C832.906 3.63517 840.502 0.847072 847.161 4.65152C848.027 5.14624 852.431 7.78036 852.893 11.8375C853.448 16.652 847.973 19.3866 846.639 20.0512C841.941 22.3982 836.769 21.724 834.594 21.2907C832.428 20.8601 829.449 20.2654 827.257 18.1242C823.43 14.377 825.624 9.41147 825.779 9.07893C827.312 5.77976 830.801 4.43779 832.09 3.94513L832.098 3.94775Z" fill="#DD8E6F" stroke="white" stroke-linecap="round" stroke-linejoin="round"/>
<path d="M841.747 8.95597C842.123 8.81278 845.657 7.53392 848.701 9.20384C849.097 9.42099 851.108 10.5781 851.286 12.3882C851.499 14.5363 848.945 15.7818 848.323 16.0846C846.131 17.1537 843.748 16.8753 842.747 16.6914C841.749 16.5086 840.378 16.2561 839.384 15.3094C837.649 13.6526 838.707 11.425 838.781 11.2758C839.519 9.79538 841.143 9.18058 841.743 8.95483L841.747 8.95597Z" fill="#FFEBCD" stroke="white" stroke-linecap="round" stroke-linejoin="round"/>
<path d="M1149.76 46.3683C1150.35 47.1222 1155.54 54.2036 1149.18 60.2842C1148.35 61.0748 1143.93 65.0929 1136.87 65.4375C1128.48 65.8513 1123.46 60.7319 1122.25 59.4846C1117.94 55.0918 1118.9 50.3227 1119.57 48.3205C1120.23 46.3256 1121.14 43.5837 1124.79 41.6003C1131.17 38.1383 1139.94 40.2688 1140.53 40.4187C1146.36 41.9047 1148.85 45.1588 1149.77 46.361L1149.76 46.3683Z" fill="#DD8E6F" stroke="white" stroke-linecap="round" stroke-linejoin="round"/>
<path d="M1141.55 54.9661C1141.81 55.314 1144.15 58.58 1141.52 61.2977C1141.18 61.6511 1139.35 63.4453 1136.33 63.5457C1132.74 63.667 1130.51 61.2958 1129.97 60.7182C1128.06 58.6836 1128.39 56.5197 1128.65 55.6134C1128.9 54.7104 1129.24 53.4692 1130.77 52.5953C1133.45 51.07 1137.24 52.1102 1137.5 52.1832C1140.02 52.9065 1141.14 54.4081 1141.55 54.9628L1141.55 54.9661Z" fill="#FFEBCD" stroke="white" stroke-linecap="round" stroke-linejoin="round"/>
<path d="M1296.6 20.6383C1298.36 20.4576 1314.71 19.004 1323.34 27.9815C1324.46 29.1489 1330.06 35.2794 1327.19 42.1255C1323.8 50.2519 1311.35 52.4888 1308.32 53.031C1297.64 54.9516 1288.86 51.7206 1285.3 50.1164C1281.75 48.5197 1276.88 46.3205 1274.85 41.9071C1271.32 34.1874 1279.84 26.9421 1280.43 26.4601C1286.23 21.6777 1293.8 20.9095 1296.59 20.6308L1296.6 20.6383Z" fill="#DD8E6F" stroke="white" stroke-linecap="round" stroke-linejoin="round"/>
<path d="M1309.46 32.5317C1310.28 32.451 1317.85 31.8015 1321.84 35.8127C1322.36 36.3343 1324.95 39.0735 1323.63 42.1324C1322.06 45.7633 1316.29 46.7628 1314.89 47.0051C1309.94 47.8632 1305.88 46.4195 1304.23 45.7028C1302.59 44.9894 1300.34 44.0067 1299.4 42.0348C1297.76 38.5856 1301.71 35.3483 1301.98 35.1329C1304.66 32.9961 1308.17 32.6529 1309.46 32.5284L1309.46 32.5317Z" fill="#FFEBCD" stroke="white" stroke-linecap="round" stroke-linejoin="round"/>
</svg>
