<svg width="236" height="195" viewBox="0 0 236 195" fill="none" xmlns="http://www.w3.org/2000/svg">
<path d="M44.111 28.5568C47.4576 28.1142 78.6476 24.555 95.1077 46.5372C97.2477 49.3956 107.925 64.407 102.461 81.1703C95.9955 101.069 72.2502 106.546 66.4676 107.874C46.0917 112.576 29.3355 104.665 22.5512 100.737C15.7895 96.827 6.50088 91.4421 2.63059 80.6355C-4.10825 61.733 12.147 43.9923 13.2626 42.812C24.327 31.1017 38.7609 29.2207 44.0882 28.5383L44.111 28.5568Z" fill="#F28F85" stroke="white" stroke-linecap="round" stroke-linejoin="round"/>
<path d="M183.509 1.25853C185.101 1.01827 199.939 -0.913872 207.77 11.0193C208.788 12.571 213.867 20.7201 211.268 29.8201C208.192 40.6221 196.896 43.5954 194.145 44.3162C184.451 46.869 176.48 42.5742 173.252 40.4419C170.036 38.3195 165.617 35.3963 163.776 29.5298C160.57 19.2684 168.303 9.63778 168.834 8.99707C174.097 2.64004 180.964 1.61892 183.498 1.24851L183.509 1.25853Z" fill="#F28F85" stroke="white" stroke-linecap="round" stroke-linejoin="round"/>
<path d="M175.111 112.898C178.458 112.451 209.648 108.858 226.108 131.05C228.248 133.936 238.925 149.09 233.461 166.013C226.996 186.101 203.25 191.63 197.468 192.97C177.092 197.718 160.336 189.731 153.551 185.765C146.79 181.819 137.501 176.382 133.631 165.473C126.892 146.39 143.147 128.481 144.263 127.289C155.327 115.467 169.761 113.568 175.088 112.88L175.111 112.898Z" fill="#F28F85" stroke="white" stroke-linecap="round" stroke-linejoin="round"/>
<path d="M61.3937 70.0211C62.4334 69.8735 72.1235 68.6871 77.2373 76.0145C77.9022 76.9673 81.2194 81.9711 79.5219 87.5589C77.5132 94.1916 70.136 96.0174 68.3394 96.46C62.0091 98.0275 56.8033 95.3903 54.6955 94.081C52.5948 92.7778 49.709 90.9828 48.5066 87.3806C46.413 81.0798 51.4632 75.1662 51.8097 74.7728C55.2472 70.8693 59.7315 70.2423 61.3866 70.0149L61.3937 70.0211Z" fill="#FFEBCD" stroke="white" stroke-linecap="round" stroke-linejoin="round"/>
<path d="M31.534 73.0208C32.1188 72.9618 37.5695 72.4872 40.446 75.4182C40.82 75.7993 42.6859 77.8008 41.7311 80.0359C40.6012 82.689 36.4515 83.4193 35.4409 83.5963C31.8801 84.2233 28.9518 83.1685 27.7662 82.6447C26.5846 82.1235 24.9613 81.4055 24.285 79.9646C23.1073 77.4443 25.948 75.0788 26.143 74.9215C28.0766 73.3601 30.599 73.1093 31.53 73.0183L31.534 73.0208Z" fill="#FFEBCD" stroke="white" stroke-linecap="round" stroke-linejoin="round"/>
<path d="M60.8597 47.5012C61.3146 47.4295 65.554 46.8533 67.7913 50.4123C68.0822 50.8751 69.5335 53.3055 68.7908 56.0195C67.912 59.2412 64.6845 60.128 63.8985 60.3429C61.129 61.1043 58.8514 59.8234 57.9293 59.1874C57.0102 58.5545 55.7477 57.6826 55.2216 55.933C54.3057 52.8726 56.5151 50.0003 56.6668 49.8092C58.1707 47.9132 60.1325 47.6087 60.8566 47.4982L60.8597 47.5012Z" fill="#FFEBCD" stroke="white" stroke-linecap="round" stroke-linejoin="round"/>
<path d="M195.79 15.8279C196.472 15.7099 202.831 14.7608 206.187 20.6227C206.623 21.3849 208.8 25.388 207.686 29.8582C206.368 35.1644 201.527 36.625 200.348 36.979C196.193 38.2331 192.777 36.1234 191.394 35.0759C190.015 34.0333 188.122 32.5973 187.332 29.7156C185.959 24.6749 189.273 19.944 189.5 19.6293C191.756 16.5066 194.699 16.005 195.785 15.823L195.79 15.8279Z" fill="#FFEBCD" stroke="white" stroke-linecap="round" stroke-linejoin="round"/>
<path d="M184.649 124.961C185.787 124.809 196.385 123.589 201.978 131.125C202.706 132.105 206.334 137.252 204.477 143C202.28 149.822 194.211 151.7 192.246 152.155C185.322 153.767 179.629 151.055 177.323 149.708C175.026 148.368 171.869 146.521 170.554 142.816C168.264 136.335 173.788 130.253 174.167 129.848C177.927 125.833 182.831 125.188 184.642 124.954L184.649 124.961Z" fill="#FFEBCD" stroke="white" stroke-linecap="round" stroke-linejoin="round"/>
<path d="M196.86 174.366C197.315 174.32 201.554 173.947 203.791 176.25C204.082 176.549 205.534 178.122 204.791 179.878C203.912 181.963 200.684 182.536 199.899 182.675C197.129 183.168 194.851 182.339 193.929 181.928C193.01 181.518 191.748 180.954 191.222 179.822C190.306 177.842 192.515 175.983 192.667 175.859C194.171 174.633 196.133 174.436 196.857 174.364L196.86 174.366Z" fill="#FFEBCD" stroke="white" stroke-linecap="round" stroke-linejoin="round"/>
</svg>
