<svg width="296" height="234" viewBox="0 0 296 234" fill="none" xmlns="http://www.w3.org/2000/svg">
<path d="M55.2637 34.2521C59.4762 33.7232 98.7349 29.4696 119.453 55.7403C122.147 59.1564 135.587 77.0962 128.709 97.1298C120.571 120.91 90.6826 127.456 83.4039 129.043C57.7568 134.663 36.6659 125.208 28.1264 120.513C19.6156 115.841 7.92395 109.406 3.05243 96.4907C-5.42975 73.9006 15.0308 52.6989 16.4349 51.2884C30.3617 37.2935 48.5296 35.0455 55.2351 34.2301L55.2637 34.2521Z" fill="#D3C4E9" stroke="white" stroke-width="1.5" stroke-linecap="round" stroke-linejoin="round"/>
<path d="M230.376 1.62806C232.333 1.34092 250.571 -0.968154 260.196 13.2931C261.448 15.1475 267.691 24.8863 264.496 35.7617C260.716 48.6709 246.831 52.2243 243.449 53.0857C231.534 56.1366 221.736 51.0039 217.769 48.4556C213.815 45.9192 208.384 42.4257 206.12 35.4147C202.18 23.1515 211.685 11.642 212.338 10.8763C218.807 3.27908 227.248 2.05876 230.363 1.61608L230.376 1.62806Z" fill="#D3C4E9" stroke="white" stroke-width="1.5" stroke-linecap="round" stroke-linejoin="round"/>
<path d="M219.618 135.048C223.831 134.514 263.089 130.22 283.808 156.741C286.501 160.189 299.941 178.3 293.064 198.524C284.925 222.531 255.037 229.139 247.758 230.741C222.111 236.414 201.02 226.87 192.481 222.13C183.97 217.414 172.278 210.917 167.407 197.879C158.925 175.074 179.385 153.67 180.789 152.246C194.716 138.118 212.884 135.849 219.59 135.025L219.618 135.048Z" fill="#D3C4E9" stroke="white" stroke-width="1.5" stroke-linecap="round" stroke-linejoin="round"/>
<path d="M76.2784 83.8053C77.6052 83.629 89.9702 82.2112 96.4956 90.968C97.344 92.1067 101.577 98.0867 99.4108 104.765C96.8476 112.691 87.434 114.873 85.1415 115.402C77.0637 117.275 70.4209 114.124 67.7313 112.559C65.0507 111.002 61.3683 108.856 59.8339 104.551C57.1624 97.0215 63.6066 89.9542 64.0489 89.4841C68.4353 84.8191 74.1574 84.0698 76.2694 83.798L76.2784 83.8053Z" fill="#FFEBCD" stroke="white" stroke-width="1.5" stroke-linecap="round" stroke-linejoin="round"/>
<path d="M40.0035 87.3901C40.7332 87.3196 47.534 86.7524 51.123 90.2552C51.5896 90.7107 53.9177 93.1026 52.7263 95.7738C51.3166 98.9445 46.1391 99.8172 44.8782 100.029C40.4354 100.778 36.7819 99.5175 35.3026 98.8916C33.8283 98.2686 31.8029 97.4106 30.9591 95.6886C29.4897 92.6766 33.034 89.8497 33.2773 89.6616C35.6898 87.7956 38.837 87.4959 39.9986 87.3872L40.0035 87.3901Z" fill="#FFEBCD" stroke="white" stroke-width="1.5" stroke-linecap="round" stroke-linejoin="round"/>
<path d="M76.0659 56.8921C76.663 56.8064 82.2272 56.1178 85.1636 60.3711C85.5454 60.9242 87.4503 63.8287 86.4755 67.0723C85.322 70.9224 81.0859 71.9822 80.0543 72.2391C76.4193 73.149 73.43 71.6182 72.2197 70.8582C71.0134 70.1017 69.3563 69.0598 68.6659 66.9688C67.4637 63.3113 70.3636 59.8787 70.5626 59.6503C72.5365 57.3845 75.1115 57.0205 76.0619 56.8885L76.0659 56.8921Z" fill="#FFEBCD" stroke="white" stroke-width="1.5" stroke-linecap="round" stroke-linejoin="round"/>
<path d="M245.286 19.04C246.182 18.8989 254.528 17.7646 258.933 24.7701C259.506 25.6811 262.363 30.4651 260.901 35.8073C259.171 42.1487 252.816 43.8942 251.269 44.3174C245.816 45.8161 241.333 43.2948 239.517 42.0429C237.708 40.797 235.222 39.0809 234.186 35.6369C232.383 29.6129 236.733 23.9591 237.031 23.5829C239.992 19.851 243.855 19.2515 245.28 19.0341L245.286 19.04Z" fill="#FFEBCD" stroke="white" stroke-width="1.5" stroke-linecap="round" stroke-linejoin="round"/>
<path d="M231.279 149.463C232.673 149.282 245.656 147.823 252.507 156.83C253.398 158.002 257.843 164.152 255.568 171.021C252.877 179.174 242.993 181.419 240.586 181.963C232.104 183.89 225.129 180.648 222.305 179.038C219.49 177.436 215.624 175.23 214.013 170.802C211.208 163.057 217.974 155.788 218.438 155.304C223.044 150.506 229.052 149.735 231.27 149.456L231.279 149.463Z" fill="#FFEBCD" stroke="white" stroke-width="1.5" stroke-linecap="round" stroke-linejoin="round"/>
</svg>
