<svg width="1329" height="76" viewBox="0 0 1329 76" fill="none" xmlns="http://www.w3.org/2000/svg">
<path d="M28.206 22.0929C30.3179 21.8205 50.0009 19.6303 60.3883 33.1571C61.7388 34.9161 68.477 44.1533 65.0289 54.4687C60.9486 66.7131 45.9637 70.0835 42.3145 70.9006C29.4559 73.7943 18.8816 68.926 14.6002 66.5089C10.3332 64.1031 4.47143 60.7895 2.02902 54.1396C-2.22365 42.5079 8.03454 31.5911 8.73852 30.8648C15.7209 23.6589 24.8297 22.5014 28.1916 22.0815L28.206 22.0929Z" fill="#D1C4E5" stroke="white" stroke-width="1.5" stroke-linecap="round" stroke-linejoin="round"/>
<path d="M43.5566 39.5349C44.5313 39.4122 53.6158 38.425 58.41 44.5216C59.0333 45.3144 62.1432 49.4777 60.5518 54.1268C58.6686 59.6455 51.7525 61.1645 50.0682 61.5328C44.1335 62.837 39.2531 60.6428 37.277 59.5534C35.3076 58.4691 32.6022 56.9756 31.4749 53.9785C29.5122 48.736 34.2467 43.8158 34.5716 43.4885C37.7943 40.2407 41.9983 39.719 43.55 39.5298L43.5566 39.5349Z" fill="#FFEBCD" stroke="white" stroke-width="1.5" stroke-linecap="round" stroke-linejoin="round"/>
<path d="M309.996 44.7944C311.131 44.5394 321.748 42.3677 328.773 49.8491C329.686 50.822 334.288 55.947 333.39 62.1633C332.331 69.5417 324.413 72.1957 322.484 72.8399C315.691 75.1183 309.402 72.733 306.812 71.5051C304.232 70.2833 300.686 68.5997 298.698 64.802C295.232 58.1583 299.818 51.2824 300.135 50.824C303.279 46.2758 308.178 45.1862 309.987 44.7884L309.996 44.7944Z" fill="#D1C4E5" stroke="white" stroke-width="1.5" stroke-linecap="round" stroke-linejoin="round"/>
<path d="M320.28 54.4914C320.785 54.3768 325.502 53.4013 328.634 56.7895C329.041 57.2301 331.094 59.5509 330.702 62.3619C330.241 65.6982 326.725 66.8935 325.868 67.1836C322.851 68.2098 320.052 67.1269 318.899 66.5699C317.751 66.0157 316.172 65.252 315.284 63.5331C313.734 60.5261 315.764 57.4192 315.905 57.2121C317.296 55.1571 319.473 54.6674 320.276 54.4886L320.28 54.4914Z" fill="#FFEBCD" stroke="white" stroke-width="1.5" stroke-linecap="round" stroke-linejoin="round"/>
<path d="M591.343 19.1565C593.283 19.8051 611.069 26.1325 608.262 41.3825C607.896 43.3654 605.691 53.6331 594.328 60.5814C580.849 68.8344 565.894 65.3988 562.255 64.5591C549.421 61.6123 544.886 53.3093 543.42 49.5857C541.957 45.8772 539.953 40.7757 543.494 34.3756C549.704 23.1888 567.092 18.5565 568.266 18.2572C579.915 15.2864 588.265 18.0978 591.341 19.1414L591.343 19.1565Z" fill="#D1C4E5" stroke="white" stroke-width="1.5" stroke-linecap="round" stroke-linejoin="round"/>
<path d="M589.311 39.6262C590.203 39.9279 598.393 42.8675 597.219 49.7871C597.066 50.6868 596.132 55.3446 590.98 58.4608C584.869 62.1623 577.997 60.547 576.325 60.1522C570.427 58.7668 568.29 54.9774 567.592 53.2801C566.895 51.5896 565.941 49.2642 567.515 46.3687C570.277 41.3078 578.203 39.2658 578.739 39.134C584.05 37.8262 587.894 39.134 589.31 39.6193L589.311 39.6262Z" fill="#FFEBCD" stroke="white" stroke-width="1.5" stroke-linecap="round" stroke-linejoin="round"/>
<path d="M832.098 3.9375C832.906 3.62573 840.502 0.844812 847.161 4.63946C848.027 5.13292 852.431 7.76026 852.893 11.8069C853.448 16.6091 847.973 19.3366 846.639 19.9995C841.941 22.3405 836.769 21.668 834.594 21.2359C832.428 20.8063 829.449 20.2132 827.257 18.0775C823.43 14.34 825.624 9.38716 825.779 9.05548C827.312 5.76481 830.801 4.42629 832.09 3.93489L832.098 3.9375Z" fill="#D1C4E5" stroke="white" stroke-width="1.5" stroke-linecap="round" stroke-linejoin="round"/>
<path d="M841.747 8.93278C842.124 8.78997 845.658 7.5144 848.701 9.18002C849.097 9.39661 851.108 10.5508 851.286 12.3562C851.5 14.4987 848.946 15.7411 848.323 16.043C846.132 17.1094 843.748 16.8318 842.747 16.6483C841.75 16.466 840.379 16.2142 839.385 15.2699C837.65 13.6173 838.707 11.3954 838.782 11.2466C839.52 9.77004 841.144 9.15682 841.744 8.93165L841.747 8.93278Z" fill="#FFEBCD" stroke="white" stroke-width="1.5" stroke-linecap="round" stroke-linejoin="round"/>
<path d="M1149.76 46.249C1150.35 47.0009 1155.54 54.0641 1149.18 60.129C1148.35 60.9176 1143.93 64.9254 1136.87 65.2691C1128.48 65.6818 1123.46 60.5756 1122.25 59.3315C1117.94 54.95 1118.9 50.1932 1119.57 48.1962C1120.23 46.2064 1121.14 43.4715 1124.79 41.4932C1131.17 38.0401 1139.94 40.1652 1140.53 40.3146C1146.36 41.7968 1148.85 45.0426 1149.77 46.2417L1149.76 46.249Z" fill="#D1C4E5" stroke="white" stroke-width="1.5" stroke-linecap="round" stroke-linejoin="round"/>
<path d="M1141.55 54.825C1141.81 55.172 1144.15 58.4296 1141.52 61.1403C1141.18 61.4928 1139.35 63.2824 1136.33 63.3825C1132.74 63.5035 1130.51 61.1385 1129.97 60.5623C1128.06 58.5329 1128.39 56.3746 1128.65 55.4707C1128.9 54.5699 1129.24 53.3319 1130.77 52.4603C1133.45 50.9389 1137.24 51.9765 1137.5 52.0492C1140.02 52.7707 1141.14 54.2684 1141.55 54.8217L1141.55 54.825Z" fill="#FFEBCD" stroke="white" stroke-width="1.5" stroke-linecap="round" stroke-linejoin="round"/>
<path d="M1296.6 20.5851C1298.36 20.4048 1314.71 18.955 1323.34 27.9094C1324.46 29.0737 1330.06 35.1885 1327.19 42.017C1323.8 50.1225 1311.35 52.3536 1308.32 52.8944C1297.64 54.81 1288.86 51.5873 1285.3 49.9873C1281.75 48.3947 1276.88 46.2012 1274.85 41.7991C1271.32 34.0993 1279.84 26.8727 1280.43 26.3919C1286.23 21.6218 1293.8 20.8555 1296.59 20.5776L1296.6 20.5851Z" fill="#D1C4E5" stroke="white" stroke-width="1.5" stroke-linecap="round" stroke-linejoin="round"/>
<path d="M1309.46 32.448C1310.28 32.3675 1317.85 31.7197 1321.84 35.7205C1322.36 36.2408 1324.95 38.9729 1323.63 42.0239C1322.06 45.6456 1316.29 46.6424 1314.89 46.8841C1309.94 47.74 1305.88 46.3001 1304.23 45.5851C1302.59 44.8736 1300.34 43.8935 1299.4 41.9266C1297.76 38.4863 1301.71 35.2573 1301.98 35.0425C1304.66 32.9112 1308.17 32.5688 1309.46 32.4446L1309.46 32.448Z" fill="#FFEBCD" stroke="white" stroke-width="1.5" stroke-linecap="round" stroke-linejoin="round"/>
</svg>
