<?xml version="1.0" encoding="UTF-8"?>
<svg id="Layer_1" data-name="Layer 1" xmlns="http://www.w3.org/2000/svg" width="271.61" height="231.16" viewBox="0 0 271.61 231.16">
  <path d="M81.58,97.23h0l-3.44,5.45-9.73,18.8-1.86,6.4-1.57,17.43.14,15.66,3.58,8.17,1.29,8.17,4.44,4.36c2.53,6.17,5.06,12.35,7.59,18.52,7.4,7.29,25.63,23.17,53.96,28.33,12.94,2.36,24.22,1.79,32.49.65,1.67-1.51,5.09-4.16,10.15-5.18,1.97-.4,3.75-.46,5.2-.39l4.39-4.81c4.49-1.33,10.98-3.69,17.92-8.01,13.96-8.7,21.04-19.9,25.26-26.77,2.63-4.27,7.35-12.07,10.21-23.36,0,0,3.31-13.07.9-34.61-.54-4.77-1.34-6.71-1.79-7.67-1.45-3.1-2.83-3.79-3.94-7.16-.96-2.93-.27-3.47-1.25-5.46-1.43-2.87-3.62-3.26-5.91-5.29-4.31-3.81-1.3-7.44-5.55-12.96-2.27-2.95-4.99-5.18-11.11-9.21-3.31-2.18-8.03-4.98-14.13-7.63" style="fill: #d9d5e2; stroke: #c8b8e0; stroke-miterlimit: 10; stroke-width: 2px;"/>
  <polyline points="79.5 101.51 80.07 93.85 77.66 87.77 77.03 82.11 82.99 80.23 90.41 83.42" style="fill: #d9d5e2; stroke: #c8b8e0; stroke-miterlimit: 10; stroke-width: 2px;"/>
  <path d="M162.01,101.15c1.52-3.83,7.76-5.7,12.46-3.92,3.25,1.23,6.86,4.62,6.23,8.74-.65,4.26-5.45,6.81-9.35,6.67-6.04-.22-11.15-6.94-9.35-11.49Z" style="fill: #d9d5e2; stroke: #c3c0c9; stroke-miterlimit: 10; stroke-width: 1.5px;"/>
  <path d="M92.79,136.02c1.07-1.01,3.83-3.64,7.85-3.88,4.58-.28,10.46,2.56,11.86,8.24,1.46,5.96-2.85,11.67-7.62,13.33-7.57,2.62-16.33-4.96-16.14-10.79.1-3.13,2.78-5.67,4.06-6.89Z" style="fill: #d9d5e2; stroke: #c3c0c9; stroke-miterlimit: 10; stroke-width: 1.5px;"/>
  <path d="M174.77,166.09c1.33-1.32,4.76-4.74,9.77-5.06,5.69-.36,13.02,3.33,14.75,10.74,1.82,7.77-3.54,15.21-9.49,17.37-9.43,3.42-20.32-6.47-20.08-14.07.13-4.08,3.46-7.39,5.05-8.98Z" style="fill: #d9d5e2; stroke: #c3c0c9; stroke-miterlimit: 10; stroke-width: 1.5px;"/>
  <path d="M81.58,97.23c1.23-3.18,3.5-7.88,7.79-12.51,0,0,1.42-1.53,3.1-3,21.14-18.47,40.21-21.5,40.21-21.5,21.86-3.47,29.5,9.96,44.03,2.79,8.2-4.05,14.64-12.7,16.88-11.17,1.37.94-.84,4.33,1.38,8.64,1.28,2.49,2.7,2.68,3.82,4.98,1.38,2.83.88,5.96,0,8.53" style="fill: #d9d5e2; stroke: #c8b8e0; stroke-miterlimit: 10; stroke-width: 2px;"/>
  <path d="M111.14,194.43c1.52-3.83,7.76-5.7,12.46-3.92,3.25,1.23,6.86,4.62,6.23,8.74-.65,4.26-5.45,6.81-9.35,6.67-6.04-.22-11.15-6.94-9.35-11.49Z" style="fill: #d9d5e2; stroke: #c3c0c9; stroke-miterlimit: 10; stroke-width: 1.5px;"/>
  <polyline points="237.53 112.5 242.2 118.03 247.73 120.81 251.85 124.31 249.3 128.9 242.48 130.87" style="fill: #d9d5e2; stroke: #c8b8e0; stroke-miterlimit: 10; stroke-width: 2px;"/>
  <polygon points="76.64 6.6 75.27 0 80 3.54 90.35 1.94 86.15 7.17 85.83 12.47 80.72 12.16 80.45 16.6 77.87 12.5 71.85 12.65 76.64 6.6" style="fill: #f7ee84; opacity: .7;"/>
  <polygon points="3.27 133.28 1.96 128.76 5.63 131.02 13.22 129.47 10.34 133.28 10.34 136.97 6.54 136.97 6.54 140.07 4.45 137.33 0 137.69 3.27 133.28" style="fill: #f7ee84; opacity: .7;"/>
  <path d="M238.71,34.94c2.18-1.99,4.37-3.99,6.55-5.98v7.86h6.98l-6.79,4.09-1.75,4.56-3.1-4.88-7.37,2.83,1.94-4.72-3.49-3.77h7.02Z" style="fill: #f7ee84; opacity: .7;"/>
  <path d="M40.72,84.16c-.57,1.53-2.89,2.29-4.65,1.57-1.21-.49-2.56-1.85-2.32-3.5.24-1.71,2.03-2.73,3.49-2.67,2.25.09,4.16,2.78,3.49,4.6Z" style="fill: #d9d5e2; stroke: #c3c0c9; stroke-miterlimit: 10;"/>
  <path d="M139.12,25.04c.78-2.55,3.98-3.8,6.4-2.61,1.67.82,3.52,3.08,3.2,5.83-.33,2.84-2.8,4.54-4.8,4.45-3.1-.15-5.73-4.63-4.8-7.66Z" style="fill: #d9d5e2; stroke: #c3c0c9; stroke-miterlimit: 10;"/>
  <path d="M265.62,73.34c.44-1.22,2.27-1.81,3.65-1.25.95.39,2.01,1.47,1.82,2.78-.19,1.35-1.59,2.16-2.73,2.12-1.77-.07-3.26-2.21-2.73-3.65Z" style="fill: #d9d5e2; stroke: #c3c0c9; stroke-miterlimit: 10;"/>
</svg>